<?xml version="1.0" encoding="utf-8"?>
<!-- Generator: Adobe Illustrator 23.0.0, SVG Export Plug-In . SVG Version: 6.00 Build 0)  -->
<svg version="1.1" xmlns="http://www.w3.org/2000/svg" xmlns:xlink="http://www.w3.org/1999/xlink" x="0px" y="0px"
	 viewBox="0 0 1400 730" style="enable-background:new 0 0 1400 730;" xml:space="preserve" width="1400px" height="730px" id="maf5">
<style type="text/css">
	#maf5 .st0{fill:#CBD5DD;}
	#maf5 .st1{fill:#EAEAEA;}
	#maf5 .st2{fill:#A5855B;}
	#maf5 .st3{fill:#FFFFFF;}
	#maf5 .st4{font-family:'NanumSquareOTFB-KSCpc-EUC-H';}
	#maf5 .st5{font-size:12px;}
	#maf5 .st6{fill:none;stroke:#00FF00;}
	#maf5 .st7{fill:none;stroke:#EF405C;}
	#maf5 .st8{fill:none;stroke:#FF00FF;}
</style>
<title>181010_Ma_5F_wayfinding_KOR</title>
<g id="BG">
	<rect class="st0" width="1400" height="730"/>
</g>
<g id="LGF">
	<g id="Base">
		<g id="Marriott_Base02">
			<path class="st1" d="M520.5,1209.9c-4.3,0.1-7.8-3.4-7.9-7.7v-698c66.7,4.4,148.3,6.6,242.6,6.6c268.8,0,560.8-18,580.8-19.3
				v436.6c0,1.3-0.5,2.6-1.4,3.5l-273.7,276.8c-0.9,0.9-2.2,1.5-3.6,1.5H520.5z"/>
			<path class="st2" d="M1335,492.6v435.5c0,1.1-0.4,2.1-1.2,2.8l-273.7,276.7c-0.8,0.8-1.8,1.2-2.8,1.2H520.5
				c-3.7,0.1-6.8-2.9-6.9-6.7V505.3c66.5,4.3,147.8,6.5,241.6,6.5C1020.1,511.8,1307.4,494.4,1335,492.6 M1337,490.5
				c0,0-301.5,19.3-581.8,19.3c-86.4,0-170.7-1.8-243.6-6.6v699.1c0.1,4.8,4.1,8.7,8.9,8.7c0,0,0,0,0,0h536.7c1.6,0,3.1-0.6,4.3-1.8
				l273.7-276.8c1.1-1.1,1.7-2.6,1.7-4.2V490.5z"/>
		</g>
		<g id="Marriott_Base01">
			<path class="st1" d="M273.9,944.8c-3.2-0.1-5.7-2.6-5.9-5.7c-0.6-11-5-32.5-15.1-46.4c-2.1-2.9-6.1-3.8-9.2-2l-6.6,3.8
				c-2.4,1.4-5.4,0.6-6.8-1.8L209,855.8c-1.4-2.4-0.6-5.4,1.8-6.8l9.9-5.7c0.7-0.4,1.2-1.1,1.4-1.9c0.2-0.8,0.1-1.6-0.4-2.3
				c-1.6-2.5-3.2-5.1-4.8-7.5c-0.9-1.4-2.8-1.8-4.1-0.9c0,0-0.1,0-0.1,0.1l-9.8,7c-2.2,1.6-5.4,1.1-7-1.1c0,0,0,0,0,0L171.2,802
				c-1.6-2.2-1.1-5.4,1.1-7c0,0,0,0,0,0l9-6.4c1.4-1,1.7-2.8,0.7-4.2c0-0.1-0.1-0.1-0.1-0.2c-2.2-2.6-4.4-5.2-6.6-7.7
				c-0.6-0.6-1.4-1-2.3-1c-0.7,0-1.5,0.3-2,0.8l-8.2,7.7c-0.9,0.9-2.1,1.4-3.4,1.3l0,0c-1.4,0-2.7-0.6-3.6-1.6L142,769
				c-5.4-5.7-10.8-11.5-14.6-15.6c-1.2-1.1-1.9-2.6-2-4.3c0.2-1.6,1.1-3.1,2.3-4.2l2.4-2.3c2.8-2.6,3-7.1,0.3-9.9
				c-0.2-0.2-0.5-0.5-0.7-0.7c-7.5-6.1-15.5-11.6-23.9-16.3c-2.2-1.4-3.6-3.8-3.8-6.4v-326c0-5.1-4.1-9.3-9.2-9.4l-27.5-0.4
				c-4.1-0.1-7.3-3.4-7.3-7.5v-61.3c0-4.1,3.3-7.4,7.4-7.4h6.8c4.8,0,8.6-3.9,8.6-8.6c-0.1-1.9,0.7-3.8,2-5.2
				c1.9-1.9,4.7-2.7,7.2-1.9h0.1l111.8,8.5c0.8,0.3,1.7,0.4,2.6,0.4c2.9,0,5.5-1.4,7.3-3.6c1.7-2.3,2.3-5.2,1.5-8l-18.8-67.2
				c-0.8-2.9,0.2-5.9,2.6-7.7c31.7-24.9,158-54.7,579.7-55.2c3.9,0,392.3,3.6,554.7,12.9c2.6,0.2,4.7,2.3,4.7,5v325.2
				c-19.4,1.1-328.7,19.2-592.1,19.2c-92.9,0-170.3-2.2-230-6.7l-1.1-0.1v440.5H273.9z"/>
			<path class="st2" d="M776.6,149.8L776.6,149.8c4,0,392.3,3.6,554.6,12.9c2.1,0.1,3.8,1.9,3.8,4v324.2
				c-26.8,1.6-331.3,19.1-591.1,19.1c-92.9,0-170.2-2.2-229.9-6.6l-2.1-0.2v440.5h-238c-2.6-0.1-4.8-2.2-4.9-4.8
				c-0.5-9.6-4.3-31.7-15.3-47c-2.4-3.3-6.9-4.3-10.5-2.2l-6.6,3.8c-1.9,1.1-4.4,0.4-5.5-1.5l-21.3-36.8c-1.1-1.9-0.5-4.4,1.5-5.5
				c0,0,0,0,0,0l9.9-5.7c1.9-1.1,2.6-3.5,1.5-5.5c0,0-0.1-0.1-0.1-0.1c-1.6-2.5-3.2-5.1-4.8-7.5c-0.7-1.1-2-1.8-3.4-1.8
				c-0.8,0-1.6,0.3-2.3,0.7l-9.8,7c-0.7,0.5-1.5,0.7-2.3,0.7c-1.3,0-2.5-0.6-3.3-1.7L172,801.4c-1.3-1.8-0.9-4.3,0.9-5.6
				c0,0,0,0,0,0l9-6.4c0.9-0.7,1.5-1.6,1.6-2.8c0.1-1.1-0.2-2.2-0.9-3.1c-2.2-2.7-4.5-5.3-6.6-7.8c-1.5-1.7-4-1.8-5.6-0.4
				c0,0-0.1,0.1-0.1,0.1l-8.2,7.7c-0.7,0.7-1.7,1.1-2.7,1.1c-1.1,0-2.2-0.5-2.9-1.3c-3.3-3.6-8.6-9.1-13.9-14.8
				s-10.7-11.4-14.5-15.5c-1-0.9-1.6-2.2-1.7-3.6c0.2-1.4,0.9-2.6,2-3.5l2.4-2.3c3.2-3,3.4-8.1,0.4-11.3c-0.3-0.3-0.6-0.5-0.9-0.8
				c-7.5-6.1-15.5-11.6-24-16.4c-1.9-1.2-3.1-3.3-3.3-5.5v-326c0-5.7-4.6-10.3-10.2-10.4l-27.5-0.4c-3.5-0.1-6.3-2.9-6.3-6.4v-61.3
				c0-3.5,2.9-6.4,6.4-6.4h6.8c5.3,0,9.6-4.3,9.6-9.6v0c-0.1-1.6,0.6-3.2,1.7-4.4c1.2-1.2,2.7-1.9,4.4-1.9c0.6,0,1.2,0.1,1.8,0.3
				l0.2,0.1h0.2l111.6,8.5c4,1.2,8.3-0.3,10.8-3.6c1.9-2.5,2.5-5.8,1.7-8.8l-18.8-67.2c-0.7-2.5,0.2-5.1,2.2-6.7
				c17-13.4,56.9-24.6,118.5-33.3C416.3,157.4,571.2,150,776.6,149.8 M776.6,147.8c-476.1,0.6-559.3,38.9-580.3,55.4
				c-2.7,2.1-3.8,5.6-2.9,8.9l18.8,67.2c1.2,4.3-1.3,8.8-5.6,10c-0.7,0.2-1.4,0.3-2.2,0.3c-0.8,0-1.6-0.1-2.4-0.4l-111.8-8.5
				c-0.8-0.2-1.6-0.4-2.4-0.4c-4.5,0-8.1,3.7-8.1,8.2c0,0.1,0,0.1,0,0.2c0,4.2-3.4,7.6-7.6,7.6h-6.8c-4.6,0-8.4,3.8-8.4,8.4V366
				c0,4.6,3.7,8.3,8.3,8.4l27.5,0.4c4.6,0.1,8.3,3.8,8.3,8.4v326c0.2,3,1.8,5.7,4.3,7.3c8.4,4.7,16.3,10.1,23.7,16.2
				c2.6,2.1,3,5.8,0.9,8.4c-0.2,0.2-0.4,0.4-0.6,0.6l-2.5,2.4c-3.4,3.2-3.6,6.5-0.4,9.9c7.6,8.1,21.8,23.2,28.4,30.3
				c2.3,2.4,6.1,2.6,8.5,0.3l8.2-7.7c0.8-0.8,2.1-0.7,2.8,0.1c0,0,0,0,0.1,0.1c2.2,2.6,4.4,5.1,6.6,7.7c0.7,0.8,0.6,2.1-0.3,2.8
				c0,0-0.1,0.1-0.1,0.1l-9,6.4c-2.7,1.9-3.3,5.7-1.4,8.4c0,0,0,0,0,0l24.7,34.6c1.9,2.7,5.7,3.3,8.4,1.4l9.8-7
				c0.9-0.6,2.1-0.4,2.8,0.5c0,0,0,0,0.1,0.1c1.6,2.5,3.2,5,4.8,7.5c0.6,0.9,0.3,2.2-0.6,2.8c0,0,0,0-0.1,0l-9.9,5.7
				c-2.9,1.7-3.8,5.3-2.2,8.2c0,0,0,0,0,0l21.3,36.8c1.1,1.9,3.1,3,5.2,3c1.1,0,2.1-0.3,3-0.8l6.6-3.8c2.7-1.5,6.1-0.8,7.9,1.7
				c10.4,14.4,14.5,35.8,14.9,45.9c0.2,3.7,3.1,6.6,6.8,6.7h240V505.4c65.2,4.8,145.5,6.7,230.1,6.7c273.8,0,593.1-19.3,593.1-19.3
				V166.7c0-3.2-2.5-5.8-5.7-6C1167,151.3,776.6,147.8,776.6,147.8L776.6,147.8z"/>
		</g>
	</g>
	<g id="Base-2">
		<path class="st1" d="M1208,182h178c2.8,0,5,2.2,5,5v280c0,2.8-2.2,5-5,5h-178c-2.8,0-5-2.2-5-5V187
			C1203,184.2,1205.2,182,1208,182z"/>
		<path class="st2" d="M1386,183c2.2,0,4,1.8,4,4v280c0,2.2-1.8,4-4,4h-178c-2.2,0-4-1.8-4-4V187c0-2.2,1.8-4,4-4H1386 M1386,181
			h-178c-3.3,0-6,2.7-6,6v280c0,3.3,2.7,6,6,6l0,0h178c3.3,0,6-2.7,6-6l0,0V187C1392,183.7,1389.3,181,1386,181z"/>
	</g>
	<g id="Rooms">
		<a id="ma5f101" xlink:href="#" >
			<g>
				<rect x="1213" y="223" class="st1" width="162" height="204"/>
			</g>
		</a>
		<g id="Elevator">
			<path class="st3" d="M1208,432h30c2.8,0,5,2.2,5,5v30c0,2.8-2.2,5-5,5h-30c-2.8,0-5-2.2-5-5v-30C1203,434.2,1205.2,432,1208,432z
				"/>
			<path class="st2" d="M1238,433c2.2,0,4,1.8,4,4v30c0,2.2-1.8,4-4,4h-30c-2.2,0-4-1.8-4-4v-30c0-2.2,1.8-4,4-4H1238 M1238,431h-30
				c-3.3,0-6,2.7-6,6v30c0,3.3,2.7,6,6,6l0,0h30c3.3,0,6-2.7,6-6l0,0v-30C1244,433.7,1241.3,431,1238,431z"/>
			
				<image style="overflow:visible;" width="76" height="76" id="elevator_x5F_off" xlink:href="./images/2x/elevator_off@2x.png" class="i_elevator" transform="matrix(0.5 0 0 0.5 1204 433)">
			</image>
		</g>
	</g>
	<g id="Soptname">
		<text transform="matrix(1 0 0 1 1258.58 331.67)" class="st2 st4 st5">스카이 온 파이브</text>
	</g>
	<g id="Doors">
		<line id="ma5f101" class="st6" x1="1233" y1="408" x2="1240" y2="401"/>
	</g>
	<g id="Paths">
		<line class="st7" x1="1223" y1="418" x2="1223" y2="438"/>
		<line class="st7" x1="1233" y1="408" x2="1223" y2="418"/>
	</g>
	<g id="Portals">
		<line id="Elev.1.floorGfMa" class="st8" x1="1216" y1="445" x2="1223" y2="438"/>
		<line id="Elev.5.floorMaF100" class="st8" x1="1216" y1="445" x2="1223" y2="438"/>
	</g>
</g>
</svg>
