<?xml version="1.0" encoding="utf-8"?>
<!-- Generator: Adobe Illustrator 23.0.0, SVG Export Plug-In . SVG Version: 6.00 Build 0)  -->
<svg version="1.1" xmlns="http://www.w3.org/2000/svg" xmlns:xlink="http://www.w3.org/1999/xlink" x="0px" y="0px"
	 viewBox="0 0 1400 730" style="enable-background:new 0 0 1400 730;" xml:space="preserve" width="1400px" height="730px" id="shf100">
<style type="text/css">
	#shf100 .st0{fill:#CBD5DD;}
	#shf100 .st1{fill:#F2F2F2;}
	#shf100 .st2{fill:#B3B3B3;}
	#shf100 .st3{fill:#A5855B;}
	#shf100 .st4{font-family:'NotoSans';}
	#shf100 .st5{font-size:12px;}
	#shf100 .st6{fill:#EAEAEA;}
	#shf100 .st7{fill:none;stroke:#A5855B;stroke-width:2;stroke-linejoin:round;stroke-miterlimit:10;}
	#shf100 .st8{fill:none;stroke:#A5855B;stroke-width:2;stroke-miterlimit:10;}
	#shf100 .st9{fill:#C69C6D;}
	#shf100 .st10{fill:#FFFFFF;}
	#shf100 .st11{fill:#7EB6CE;}
	#shf100 .st12{fill:url(#SVGID_sh1);}
	#shf100 .st13{fill:url(#SVGID_sh2);}
	#shf100 .st14{fill:#EF405C;}
	#shf100 .st15{fill:#C72D46;}
	#shf100 .st16{fill:none;stroke:#FF00FF;}
	#shf100 .st17{fill:none;stroke:#00FF00;}
	#shf100 .st18{fill:none;stroke:#EF405C;}
</style>
<g id="BG">
	<rect class="st0" width="1400" height="730"/>
</g>
<g id="Road">
	<g>
		<path class="st1" d="M1650,354.4c0-6.7-2.6-13-7.3-17.7L1443.9,138c-4.7-4.7-11-7.3-17.7-7.3s-13,2.6-17.7,7.3l-257,257
			c-4.3,4.3-10.1,6.7-16.3,6.7H989.5c-10.7,0-20.2,6.9-23.7,17.2c-12.1,35.6-45.4,59.6-82.9,59.6c-0.4,0-0.9,0-1.3,0
			c-47.5-0.7-86.2-40.4-86.2-88.4v-40c0-48.8,39.3-88.5,87.5-88.5h0.9c38.7,0.4,73,26.8,83.4,64.1c3,10.7,12.9,18.2,24.2,18.2H1111
			c6.7,0,13-2.6,17.8-7.4l239.4-239.4c4.7-4.7,7.3-11,7.3-17.7s-2.6-13-7.3-17.7l-123.5-124c-4.7-4.7-11-7.3-17.7-7.3H566.1
			c-13.9,0-25.1,11.3-25.1,25.1V-4h-58v-402.6h58v253.9c0,13.9,11.3,25.1,25.1,25.1h216.3c13.9,0,25.1-11.3,25.1-25.1v-253.9h58
			v253.9c0,13.9,11.3,25.1,25.1,25.1h361.1c6.1,0,11.9,2.4,16.3,6.7l433.7,433.6c4.3,4.3,6.7,10.1,6.7,16.3"/>
		<path class="st2" d="M864.6-405.6v252.9c0,14.4,11.7,26.1,26.1,26.1h361.1c5.9,0,11.4,2.3,15.6,6.4l433.7,433.5
			c4.2,4.2,6.4,9.7,6.4,15.6h2.8c0-6.4-2.5-12.5-7-17l-433.7-433.5c-4.5-4.5-10.6-7-17-7H890.7c-13.3,0-24.1-10.8-24.1-24.1v-254.7
			c0-0.1-0.1-0.2-0.1-0.2l0,0h-59.7c-0.1,0-0.1,0.1-0.1,0.1v254.7c0,13.3-10.8,24.1-24.1,24.1H566.1c-13.3,0-24.1-10.8-24.1-24.1
			v-254.7c0-0.1-0.1-0.1-0.1-0.1h-59.7c-0.1,0-0.1,0.1-0.1,0.1V-3.1c0,0.1,0.1,0.1,0.1,0.1h59.7c0.1,0,0.1-0.1,0.1-0.1v-41.3
			c0-13.3,10.8-24.1,24.1-24.1H1227c6.4,0,12.5,2.5,17,7l123.4,123.3c9.4,9.4,9.4,24.6,0,33.9L1128,335.1
			c-4.5,4.5-10.7,7.1-17.1,7.1H991.4c-10.8,0-20.3-7.1-23.2-17.4c-10.3-37-44.3-64.4-84.4-64.8c-0.3,0-0.6,0-0.9,0
			c-49,0-88.5,40.4-88.5,89.5v40c0,48.5,38.7,88.7,87.2,89.4c0.4,0,0.9,0,1.3,0c38.8,0,72-25.3,83.8-60.2
			c3.3-9.8,12.4-16.5,22.8-16.5h146.4c6.4,0,12.5-2.5,17-7l257-257c4.7-4.7,10.8-7,17-7c6.1,0,12.3,2.3,17,7l198.8,198.7
			c4.5,4.5,7,10.6,7,17l2.3-0.4c0-6.9-2.7-13.5-7.6-18.4l-198.8-198.7c-4.9-4.9-11.4-7.6-18.4-7.6c-6.9,0-13.5,2.7-18.4,7.6
			l-257,257c-4.2,4.2-9.7,6.4-15.6,6.4H989.5c-11.1,0-21,7.2-24.7,17.9c-5.8,17-16.5,31.6-31.1,42.2c-14.9,10.9-32.5,16.6-50.8,16.6
			c-0.4,0-0.8,0-1.3,0c-22.9-0.3-44.3-9.6-60.4-26.2c-16-16.5-24.8-38.2-24.8-61.3v-40c0-23.3,9-45.2,25.3-61.8
			c16.4-16.6,38.1-25.7,61.2-25.7c0.3,0,0.6,0,0.9,0c38.2,0.4,72.1,26.4,82.4,63.4c3.1,11.1,13.4,18.9,25.1,18.9H1111
			c7,0,13.5-2.7,18.5-7.7l239.4-239.4c4.9-4.9,7.6-11.4,7.6-18.4c0-6.9-2.7-13.5-7.6-18.4L1245.4-63c-4.9-4.9-11.4-7.6-18.4-7.6
			H566.1c-14.4,0-26.1,11.7-26.1,26.1V-5h-56v-400.6h56v252.9c0,14.4,11.7,26.1,26.1,26.1h216.3c14.4,0,26.1-11.7,26.1-26.1v-252.9
			H864.6"/>
	</g>
	<g>
		<path class="st0" d="M883.5,423c-21,0-38-17-38-38v-30c0-21,17-38,38-38s38,17,38,38v30C921.5,405.9,904.5,423,883.5,423z"/>
		<path class="st2" d="M883.5,318c20.4,0,37,16.6,37,37v30c0,20.4-16.6,37-37,37s-37-16.6-37-37v-30
			C846.5,334.6,863.1,318,883.5,318 M883.5,316L883.5,316c-21.5,0-39,17.5-39,39v30c0,21.4,17.5,39,39,39l0,0c21.5,0,39-17.5,39-39
			v-30C922.5,333.5,905,316,883.5,316L883.5,316z"/>
	</g>
</g>
<g id="Layer_3">
	<g id="Base_2_">
		<g id="Theme_Garden_2_">
			<g>
				<path class="st1" d="M1033.1,690.8c-1.1,0-2.1-0.6-2.7-1.7c-0.7-1.3-0.7-3,0.1-4.3c2.6-4.3,4-9.6,4-15.4v-37.5
					c0-27.3,20.1-49.4,44.8-49.4h3.6c24.7,0,44.8,22.2,44.8,49.4v37.5c0,7,2.4,12.2,4.3,15.4c0.8,1.3,0.9,2.9,0.1,4.3
					c-0.6,1.1-1.6,1.7-2.7,1.7H1033.1z"/>
				<path class="st2" d="M1082.9,583.4c24.2,0,43.8,21.7,43.8,48.4v37.5c0,7.3,2.4,12.7,4.5,15.9c0.6,1,0.6,2.3,0.1,3.3
					c-0.2,0.4-0.8,1.2-1.9,1.2h-96.3c-1.1,0-1.7-0.9-1.9-1.2c-0.4-0.8-0.7-2.1,0.1-3.2c2.7-4.5,4.2-10,4.2-16v-37.5
					c0-26.7,19.7-48.4,43.8-48.4H1082.9 M1082.9,581.4h-3.6c-25.2,0-45.8,22.7-45.8,50.4v37.5c0,6-1.6,11.1-3.9,14.9
					c-2,3.2,0.1,7.5,3.5,7.5h96.3c3.5,0,5.5-4.4,3.5-7.6c-2.4-3.8-4.2-8.8-4.2-14.9v-37.5C1128.7,604.1,1108.1,581.4,1082.9,581.4
					L1082.9,581.4z"/>
			</g>
			<g>
				<g>
					<path class="st1" d="M1113.2,583.8c-0.6,0-1.2-0.2-1.7-0.5c-9.1-5.4-18.8-8.3-28.1-8.3h-4.1c-6.3,0-12.9,1.5-20.7,4.6
						c-0.4,0.2-0.8,0.2-1.2,0.2c-1,0-2-0.5-2.6-1.3c-16.6-20.4-25.6-25.4-37-31.6c0,0-2-1.1-2.8-1.5c-7.3-4.1-14.3-6.4-21.1-8.8
						c-7.6-2.6-14.7-5-20.7-9.5c-5.3-4-11-10.7-15.9-16.6c-0.9-1.1-1.8-2.2-2.7-3.2c-1-1.2-1.1-3-0.3-4.3l12.2-18.8
						c2.9-4.4,7.7-7,12.8-7h182.2c1.7,0,3.2,1.3,3.4,3.1c1.2,11.1-0.8,22.5-0.9,22.6v0.3c-3,24.9-28,51.5-28.3,51.8l-0.1,0.1
						c-8.2,9-14.7,18-19.5,26.9C1115.6,583.1,1114.4,583.8,1113.2,583.8L1113.2,583.8z"/>
					<path class="st2" d="M1161.5,478.2c1.2,0,2.3,0.9,2.4,2.2c1.1,11-0.8,22.2-0.9,22.3c0,0,0,0,0,0.1v0.3c0,0,0,0,0,0.1
						c-3,24.6-27.7,50.9-28,51.2l-0.1,0.1c-8.3,9-14.9,18.1-19.6,27.1c-0.4,0.8-1.2,1.3-2.1,1.3c-0.4,0-0.8-0.1-1.2-0.3
						c-9.3-5.5-19.2-8.4-28.6-8.4h-4.1c-6.5,0-13.2,1.5-21.1,4.7c-0.3,0.1-0.5,0.2-0.8,0.2c-0.7,0-1.4-0.3-1.8-0.9
						c-16.8-20.6-25.8-25.6-37.3-31.9l-0.2-0.1c-0.8-0.5-1.7-0.9-2.6-1.4c-7.4-4.1-14.4-6.5-21.2-8.8c-7.5-2.6-14.6-5-20.4-9.4
						c-5.3-3.9-10.8-10.6-15.8-16.5c-0.9-1.1-1.8-2.2-2.7-3.2c-0.7-0.9-0.8-2.2-0.2-3.1l12.2-18.8c2.7-4.1,7.2-6.6,12-6.6h182.1
						 M1161.5,476.2H979.3c-5.5,0-10.6,2.8-13.7,7.5l-12.2,18.8c-1.1,1.7-1,4,0.3,5.5c5.5,6.5,12.4,15.2,18.8,20
						c6.1,4.6,13.3,7,21,9.7c6.7,2.3,13.7,4.7,20.9,8.7c1,0.5,1.9,1,2.8,1.5c11.6,6.3,20.2,11.1,36.7,31.4c0.9,1,2.1,1.6,3.4,1.6
						c0.5,0,1.1-0.1,1.6-0.3c6.3-2.5,13.1-4.5,20.3-4.5h4.1c10.1,0,19.6,3.4,27.6,8.1c0.7,0.4,1.4,0.6,2.2,0.6
						c1.6,0,3.1-0.9,3.9-2.4c4-7.6,10.1-16.6,19.3-26.7l0.1-0.1c0.3-0.3,25.4-27,28.5-52.3V503c0-0.2,2.1-11.6,0.9-22.9
						C1165.7,477.9,1163.8,476.2,1161.5,476.2L1161.5,476.2z"/>
				</g>
				<g>
					<path class="st1" d="M924,691.1c-20.8,0-29-4.6-29.1-4.7c-24-13.3-38.6-36.9-43.3-70.1c-4-27.8-0.2-56.4,3.6-75.5
						c1.6-7.8,7.8-13.3,15.1-13.3c1.5,0,3,0.2,4.4,0.7c6.2,2,14,4,25.1,4c28.5,0,40.7-13.7,43.8-17.9c0.7-0.9,1.6-1.4,2.7-1.4
						c0.9,0,1.8,0.4,2.5,1.2c7,8.5,13.2,14.8,18.2,18.8c7.3,5.8,15.2,8.7,23.5,11.7c6.3,2.3,12.8,4.7,19.3,8.5
						c1,0.6,1.9,1.1,2.8,1.6c10.3,6,17.8,10.4,31.7,28.2c1.3,1.6,1.1,4.1-0.4,5.5c-11.6,10.3-18.2,25.2-18.2,40.7v39.6
						c0,11.3-8.3,20.9-19.2,22.4H924z"/>
					<path class="st2" d="M946.2,513.9c0.6,0,1.2,0.3,1.7,0.8c7.1,8.6,13.2,14.9,18.3,19c7.4,5.9,15.4,8.8,23.8,11.9
						c6.2,2.3,12.7,4.6,19.1,8.4c0.9,0.5,1.7,1,2.6,1.5l0.2,0.1c10.2,6,17.7,10.3,31.4,27.9c1,1.2,0.8,3.1-0.3,4.1
						c-11.8,10.5-18.6,25.6-18.6,41.4v39.6c0,10.7-7.9,19.9-18.3,21.4H924c-20.4,0-28.5-4.5-28.6-4.5
						c-23.7-13.2-38.1-36.5-42.8-69.4c-4-27.6-0.2-56.1,3.6-75.1c1.5-7.4,7.3-12.5,14.1-12.5c1.4,0,2.8,0.2,4.1,0.7
						c6.2,2,14.1,4.1,25.4,4.1c29,0,41.5-14.1,44.6-18.4C944.8,514.3,945.5,513.9,946.2,513.9 M946.2,511.9c-1.3,0-2.6,0.6-3.5,1.8
						c-4.8,6.6-17.8,17.5-43,17.5c-10.5,0-18-1.8-24.8-4c-1.6-0.5-3.2-0.8-4.7-0.8c-7.5,0-14.4,5.6-16.1,14.1
						c-7.6,37.5-15.5,115.7,40.2,146.6c0,0,8.2,4.8,29.6,4.8h82.3c11.4-1.5,20.2-11.4,20.2-23.4v-39.6c0-15.9,6.9-30.2,17.9-39.9
						c1.9-1.7,2.2-4.8,0.6-6.8c-14-17.9-21.4-22.2-32-28.4c-0.9-0.5-1.8-1.1-2.8-1.6c-6.5-3.9-13.1-6.2-19.4-8.6
						c-8.3-3-16.1-5.9-23.3-11.6c-5.9-4.7-12.6-12.1-18-18.7C948.5,512.4,947.4,511.9,946.2,511.9L946.2,511.9z"/>
				</g>
				<g>
					<path class="st1" d="M1155.4,691.1c-11-1.5-19.2-11.1-19.2-22.4v-39.6c0-3.7-0.4-7.4-1.1-11c-0.3-1.3,0-2.6,0.8-3.5
						c6.4-7.7,19.8-20.6,38.5-20.6c28.1,0,47.3,4.5,53.5,6.8c0.5,0.2,12.3,4.9,28.1,7.8c8.2,1.5,16,2.3,23.2,2.3
						c11.6,0,21.9-2,30.4-6c26.3-12.1,43.5-23.7,57.5-38.5c0.6-0.7,1.4-1,2.3-1c1.6,0,3.4,1.5,3.4,3.8V674c0,9.4-6.9,17-15.4,17
						L1155.4,691.1L1155.4,691.1L1155.4,691.1z"/>
					<path class="st2" d="M1369.4,566.5c1.2,0,2.4,1.1,2.4,2.8v104.8c0,8.8-6.5,16-14.4,16h-201.9c-10.4-1.5-18.3-10.7-18.3-21.4
						v-39.6c0-3.8-0.4-7.5-1.1-11.2c-0.2-1,0-1.9,0.6-2.6c4.4-5.4,9.6-9.9,14.8-13.3c7.3-4.6,15-6.9,22.9-6.9c28,0,47,4.4,53.1,6.8
						c0.5,0.2,12.4,4.9,28.4,7.8c8.3,1.5,16.2,2.3,23.4,2.3c11.8,0,22.2-2,30.9-6.1c26.5-12.2,43.8-23.8,57.8-38.7
						C1368.4,566.7,1368.9,566.5,1369.4,566.5 M1369.4,564.5c-1,0-2.1,0.4-3,1.4c-15.8,16.8-34.8,28-57.2,38.3
						c-8.5,3.9-18.5,5.9-30,5.9c-7.1,0-14.8-0.8-23-2.3c-15.8-2.9-27.5-7.5-28-7.7c-6.2-2.4-25.6-6.9-53.8-6.9
						c-18.7,0-32.2,12.4-39.3,20.9c-1,1.2-1.3,2.8-1,4.3c0.7,3.5,1.1,7.1,1.1,10.8v39.6c0,12,8.8,21.9,20.2,23.4h202.1
						c9.1,0,16.4-8.1,16.4-18V569.3C1373.9,566.4,1371.7,564.5,1369.4,564.5L1369.4,564.5z"/>
				</g>
				<g>
					<path class="st1" d="M1130.8,602.1c-1.1,0-2.1-0.6-2.8-1.5c-1.4-2.1-2.8-3.9-4.2-5.5c-0.9-1.1-1.1-2.6-0.5-3.9
						c4.3-9.1,10.8-18.5,19.3-27.9c0.7-0.8,7.2-7.7,14.1-18c9.7-14.5,15.4-28,16.9-40.3c0.2-1.2,2-12.1,1.1-23.9
						c-0.1-1,0.3-2,0.9-2.8c0.6-0.7,1.5-1.1,2.4-1.1h37c4.4,0,8.6-1.7,11.8-4.8l24.2-23.2c2.9-2.7,6.6-4.2,10.4-4.2
						c4,0,7.7,1.6,10.6,4.4l95.8,94.8c1.7,1.7,1.8,4.4,0.3,6.3c-16.4,21-37,32.8-62.9,44.2c-7.2,3.1-16,4.7-26.2,4.7
						c-23.9,0-47.5-8.8-47.7-8.9c-0.8-0.3-19.9-7.2-57.2-7.2c-18.8,0-32.9,9.6-41.3,17.7C1132.4,601.8,1131.6,602.1,1130.8,602.1
						L1130.8,602.1z"/>
					<path class="st2" d="M1261.6,446c3.7,0,7.2,1.5,9.9,4.1l95.9,94.8c1.3,1.3,1.4,3.5,0.2,5c-16.2,20.8-36.7,32.6-62.5,43.9
						c-7.1,3.1-15.7,4.7-25.8,4.7c-23.8,0-47.1-8.7-47.4-8.8c-0.8-0.3-20.1-7.2-57.5-7.2c-19.1,0-33.4,9.8-42,18
						c-0.6,0.5-1.2,0.6-1.6,0.6c-0.8,0-1.5-0.4-1.9-1.1c-1.4-2.1-2.8-4-4.2-5.6c-0.7-0.8-0.8-1.9-0.4-2.9c4.3-9,10.7-18.3,19.1-27.6
						c0.7-0.8,7.2-7.8,14.2-18.2c9.8-14.6,15.6-28.3,17.1-40.6c0.4-2.1,2-12.6,1.1-24.1c-0.1-0.7,0.2-1.5,0.7-2s1-0.8,1.7-0.8h37
						c4.6,0,9.1-1.8,12.5-5.1l24.2-23.2C1254.5,447.4,1258,446,1261.6,446 M1261.6,444c-4,0-8,1.5-11.1,4.5l-24.2,23.2
						c-3,2.9-7,4.5-11.1,4.5h-37c-2.6,0-4.6,2.3-4.4,4.9c0.9,11.5-0.8,22.2-1.1,23.7c-1.5,12.1-7.1,25.5-16.8,39.8
						c-6.9,10.3-13.4,17.3-14,17.9c-10.2,11.3-16.1,21-19.5,28.1c-0.8,1.7-0.5,3.6,0.7,5c1.5,1.7,2.8,3.6,4.1,5.4
						c0.9,1.3,2.2,1.9,3.6,1.9c1,0,2.1-0.4,2.9-1.2c8.9-8.4,22.6-17.4,40.7-17.4c37,0,56,6.8,56.8,7.1c0.4,0.1,23.9,8.9,48,8.9
						c9.2,0,18.5-1.3,26.6-4.8c26.5-11.6,47.1-23.8,63.3-44.5c1.8-2.3,1.7-5.6-0.4-7.6l0,0l-95.8-94.8
						C1269.8,445.6,1265.7,444,1261.6,444L1261.6,444z"/>
				</g>
			</g>
			<text id="kids" transform="matrix(1 0 0 1 932.1042 617.4998)" class="st3 st4 st5">키즈</text>
			<text id="family" transform="matrix(1 0 0 1 1061.4949 526.8997)" class="st3 st4 st5">패밀리</text>
			<text id="theme" transform="matrix(1 0 0 1 1224.4851 537.0999)" class="st3 st4 st5">테마가든</text>
			<text id="gramping" transform="matrix(1 0 0 1 1235.4949 649.8997)" class="st3 st4 st5">글램핑</text>
			<text id="theme" transform="matrix(1 0 0 1 1061.8855 643.8997)" class="st3 st4 st5">테마가든</text>
		</g>
		<g id="Shinhwa_2_">
			<g>
				<path class="st6" d="M347.4,911.2c-2.2,0-4.1-1.4-4.8-3.5l-32.2-100c-0.8-2.6,0.6-5.4,3.2-6.3c30.5-9.9,144.3-43.1,326.8-52.5
					c3.7-0.2,6.6-3.3,6.6-7V622.2c0-3.9-3.1-7-7-7h-40.2c-2.8,0-5-2.2-5-5v-75.6c0-0.6-0.4-1-1-1h-93c-3.9,0-7,3.1-7,7V705
					c0,2.8-2.2,5-5,5H127c-2.8,0-5-2.2-5-5v-75.2c0-3.7,2.8-6.9,6.5-7.3c39.6-4.9,76.9-16.3,110.9-33.9c32.6-16.9,61.4-39,85.8-65.9
					c48.2-53.1,75.8-121.8,77.7-193.4c0.1-4.1,3.4-7.2,7.4-7.2h78.5c2.8,0,5,2.2,5,5v147.6c0,3.9,3.1,7,7,7h93c0.6,0,1-0.4,1-1
					V166.2c0-3.9-3.1-7-7-7h-60c-2.8,0-5-2.2-5-5v-132c0-2.8,2.2-5,5-5h204c2.8,0,5,2.2,5,5V51c0,3.9,3.1,7,7,7H850c3.9,0,7-3.1,7-7
					V22.2c0-2.8,2.2-5,5-5h78.6c0.6,0,1-0.4,1-1V-207h34.6V16.2c0,0.6,0.4,1,1,1h224.3c1.3,0,2.6,0.5,3.5,1.5L1308.3,122
					c1.9,1.9,1.9,5.1,0,7.1l-76.4,76.4c-0.9,0.9-2.2,1.5-3.5,1.5s-2.6-0.5-3.5-1.5l-68.1-68.1c-1.3-1.3-3.1-2.1-4.9-2.1H862.1
					c-2.8,0-5-2.2-5-5V99c0-3.9-3.1-7-7-7H743.9c-3.9,0-7,3.1-7,7v229.8c0,3.9,3.1,7,7,7h13.8c2.8,0,5,2.2,5,5v60c0,2.8-2.2,5-5,5
					h-13.8c-3.9,0-7,3.1-7,7v197.4c0,2.8-2.2,5-5,5h-43.8c-3.9,0-7,3.1-7,7V740c0,1.9,0.7,3.6,2.1,5c1.3,1.3,3.1,2,4.9,2h0.2
					c14.4-0.4,29.1-0.6,43.6-0.6c2.8,0,5,2.2,5,5v104.2c0,4-2.3,6.4-6.4,6.4c-41.4,0.2-254.6,3.3-381.4,48.9
					C348.6,911.1,348,911.2,347.4,911.2z"/>
				<path class="st3" d="M975.3-206V16.2c0,1.1,0.9,2,2,2h224.3c1.1,0,2.1,0.4,2.8,1.2l103.3,103.3c1.6,1.6,1.6,4.1,0,5.7
					l-76.4,76.4c-0.8,0.8-1.8,1.2-2.8,1.2c-1.1,0-2.1-0.4-2.8-1.2l-68.1-68.1c-1.5-1.5-3.5-2.3-5.7-2.3H862.1c-2.2,0-4-1.8-4-4V99
					c0-4.4-3.6-8-8-8H743.9c-4.4,0-8,3.6-8,8v229.8c0,4.4,3.6,8,8,8h13.8c2.2,0,4,1.8,4,4v60c0,2.2-1.8,4-4,4h-13.8
					c-4.4,0-8,3.6-8,8v197.4c0,2.2-1.8,4-4,4h-43.8c-4.4,0-8,3.6-8,8V740c0,4.4,3.6,8,8,8c0.1,0,0.1,0,0.2,0
					c14.4-0.4,29.1-0.6,43.6-0.6c2.2,0,4,1.8,4,4v104.2c0,3.5-1.9,5.4-5.4,5.4c-98.9,0.4-189.1,7.5-267.9,21.1
					c-63.6,11-100.8,23.1-113.8,27.8c-0.4,0.2-0.9,0.2-1.3,0.2c-1.7,0-3.3-1.1-3.8-2.8l-32.2-100c-0.7-2.1,0.5-4.3,2.6-5
					c12.7-4.1,48.2-14.9,103.6-25.8c69.3-13.6,144.2-22.6,222.9-26.7c4.3-0.2,7.6-3.7,7.6-8V622.2c0-4.4-3.6-8-8-8H600
					c-2.2,0-4-1.8-4-4v-75.6c0-1.1-0.9-2-2-2h-93c-4.4,0-8,3.6-8,8V705c0,2.2-1.8,4-4,4H127c-2.2,0-4-1.8-4-4v-75.2
					c0-3.2,2.4-6,5.6-6.3c39.7-4.9,77.1-16.4,111.2-34c32.7-16.9,61.6-39.1,86.1-66.1c48.3-53.3,76-122.2,78-194
					c0.1-3.5,2.9-6.3,6.4-6.3h78.5c2.2,0,4,1.8,4,4v147.6c0,4.4,3.6,8,8,8h93c1.1,0,2-0.9,2-2V166.2c0-4.4-3.6-8-8-8h-60
					c-2.2,0-4-1.8-4-4v-132c0-2.2,1.8-4,4-4h204c2.2,0,4,1.8,4,4V51c0,4.4,3.6,8,8,8H850c4.4,0,8-3.6,8-8V22.2c0-2.2,1.8-4,4-4h78.6
					c1.1,0,2-0.9,2-2V-206H975.3 M977.3-208h-36.6V16.2h-78.6c-3.3,0-6,2.7-6,6V51c0,3.3-2.7,6-6,6H743.9c-3.3,0-6-2.7-6-6V22.2
					c0-3.3-2.7-6-6-6h-204c-3.3,0-6,2.7-6,6v132c0,3.3,2.7,6,6,6h60c3.3,0,6,2.7,6,6v314.4h-93c-3.3,0-6-2.7-6-6V327
					c0-3.3-2.7-6-6-6h-78.5c-4.6,0-8.3,3.6-8.4,8.2c-4,144.5-111.6,272.1-273.7,292.2c-4.2,0.5-7.3,4.1-7.3,8.3V705c0,3.3,2.7,6,6,6
					h361.9c3.3,0,6-2.7,6-6V540.6c0-3.3,2.7-6,6-6h93v75.6c0,3.3,2.7,6,6,6h40.2c3.3,0,6,2.7,6,6v119.7c0,3.2-2.5,5.8-5.7,6
					c-185.2,9.6-300.9,44.1-327,52.6c-3.1,1-4.9,4.4-3.8,7.5l32.2,100c0.8,2.5,3.2,4.2,5.7,4.2c0.7,0,1.4-0.1,2-0.4
					c26.8-9.6,148.7-47.9,381-48.8c4.6,0,7.4-2.8,7.4-7.4V751.4c0-3.3-2.7-6-6-6l0,0c-14.9,0-29.4,0.3-43.6,0.6c-0.1,0-0.1,0-0.2,0
					c-3.3,0-6-2.7-6-6V622.2c0-3.3,2.7-6,6-6h43.8c3.3,0,6-2.7,6-6V412.8c0-3.3,2.7-6,6-6h13.8c3.3,0,6-2.7,6-6v-60c0-3.3-2.7-6-6-6
					h-13.8c-3.3,0-6-2.7-6-6V99c0-3.3,2.7-6,6-6h106.2c3.3,0,6,2.7,6,6v31.2c0,3.3,2.7,6,6,6h289.8c1.6,0,3.1,0.6,4.2,1.8l68.1,68.1
					c1.2,1.2,2.7,1.8,4.2,1.8s3.1-0.6,4.2-1.8l76.4-76.4c2.3-2.3,2.3-6.1,0-8.5L1205.8,18c-1.1-1.1-2.7-1.8-4.2-1.8H977.3V-208
					L977.3-208z"/>
			</g>
			<path class="st7" d="M494.3,441.6h-40.6c-4.1,0-8,2.1-10.2,5.6c-25.9,43.4,63.1,213.9-270.2,213.9c-4.5,0-7.9,4.3-7.6,8.9v41"/>
			<line class="st8" x1="358.3" y1="631.2" x2="358.3" y2="711"/>
			<line class="st8" x1="236.9" y1="659.4" x2="236.9" y2="711"/>
			<line class="st8" x1="288.5" y1="652.2" x2="288.5" y2="711"/>
			<g>
				<g>
					<path class="st9" d="M564.7,273.5c-1.5,0-6.7-0.2-11.3-2.8c-5.8-3.2-8.7-8.8-8.7-16.6c0-15.6-20.1-46.9-32-64.2
						c-4.9-7.1-7.6-15.5-7.6-24.1v-1.7c0-2.8,2.2-5,5-5h77.8c3.9,0,7,3.1,7,7v107.4h-29.6C565.2,273.5,565,273.5,564.7,273.5z"/>
					<path class="st3" d="M587.9,160.1c3.3,0,6,2.7,6,6v106.4h-28.6h-0.1c0,0-0.2,0-0.5,0c-1.4,0-6.4-0.2-10.8-2.7
						c-5.4-3-8.2-8.3-8.2-15.7c0-15.9-20.2-47.4-32.2-64.7c-4.8-7-7.4-15.1-7.4-23.5v-1.7c0-2.2,1.8-4,4-4L587.9,160.1 M587.9,158.1
						h-77.8c-3.3,0-6,2.7-6,6v1.7c0,8.8,2.7,17.4,7.7,24.7c11.5,16.6,31.9,48.1,31.9,63.6c0,19.4,17.5,20.4,21,20.4
						c0.4,0,0.6,0,0.6,0h30.6V166.1C595.9,161.7,592.3,158.1,587.9,158.1L587.9,158.1z"/>
				</g>
				<path class="st3" d="M595.9,167.5h-91.8c0,0.4,0,0.8,0.1,1.2h91.7V167.5z"/>
				<path class="st3" d="M507.4,182.5h88.5v-1.2H507C507.1,181.7,507.2,182.1,507.4,182.5z"/>
				<path class="st3" d="M515.7,196.3h80.1v-1.2h-80.9C515.2,195.5,515.5,195.9,515.7,196.3z"/>
				<path class="st3" d="M524.7,210.1h71.2v-1.2H524C524.2,209.3,524.4,209.7,524.7,210.1z"/>
				<path class="st3" d="M532.7,223.9h63.2v-1.2H532C532.3,223.1,532.5,223.5,532.7,223.9z"/>
				<path class="st3" d="M539.4,237.7h56.5v-1.2h-57C539,236.9,539.2,237.3,539.4,237.7z"/>
				<path class="st3" d="M543.5,251.5h52.4v-1.2h-52.6C543.4,250.7,543.4,251.1,543.5,251.5z"/>
				<path class="st3" d="M546.3,265.3h49.5v-1.2h-50.2C545.9,264.5,546.1,264.9,546.3,265.3z"/>
			</g>
			<g>
				<path class="st6" d="M594.9,575.2v-41.6h95c2.8,0,5,2.2,5,5v31.6c0,2.8-2.2,5-5,5H594.9z"/>
				<path class="st3" d="M689.9,534.6c2.2,0,4,1.8,4,4v31.6c0,2.2-1.8,4-4,4h-94v-39.6H689.9 M689.9,532.6h-96v43.6h96
					c3.3,0,6-2.7,6-6v-31.6C695.9,535.3,693.2,532.6,689.9,532.6L689.9,532.6z"/>
			</g>
			<g>
				<path class="st6" d="M594.9,481.6v-76h95c2.8,0,5,2.2,5,5v66c0,2.8-2.2,5-5,5H594.9z"/>
				<path class="st3" d="M689.9,406.6c2.2,0,4,1.8,4,4v66c0,2.2-1.8,4-4,4h-94v-74H689.9 M689.9,404.6h-96v78h96c3.3,0,6-2.7,6-6
					v-66C695.9,407.3,693.2,404.6,689.9,404.6L689.9,404.6z"/>
			</g>
			<g id="exit">
				<g>
					<path class="st10" d="M599.9,615.2c-2.8,0-5-2.2-5-5v-30c0-2.8,2.2-5,5-5h12c2.8,0,5,2.2,5,5v30c0,2.8-2.2,5-5,5H599.9z"/>
					<path class="st3" d="M611.9,576.2c2.2,0,4,1.8,4,4v30c0,2.2-1.8,4-4,4h-12c-2.2,0-4-1.8-4-4v-30c0-2.2,1.8-4,4-4H611.9
						 M611.9,574.2h-12c-3.3,0-6,2.7-6,6v30c0,3.3,2.7,6,6,6h12c3.3,0,6-2.7,6-6v-30C617.9,576.9,615.2,574.2,611.9,574.2
						L611.9,574.2z"/>
				</g>
				
					<image style="overflow:visible;enable-background:new ;" width="40" height="76" id="stairs_x5F_off" xlink:href="./images/2x/stairs_off@2x.png" class="i_stairs" transform="matrix(0.5 0 0 0.5 595.9 576.2)">
				</image>
			</g>
		</g>
		<g>
			<g>
				<path class="st6" d="M1303.2,277.2L1400,374V210.1l-14.9-14.9c-0.7-0.8-1.7-1.2-2.8-1.2c-1.1,0-2.1,0.4-2.8,1.1l-76.3,76.4
					C1301.6,273.1,1301.6,275.6,1303.2,277.2z"/>
				<path class="st3" d="M1382.3,196c0.4,0,0.9,0.1,1.3,0.5v0.1l0.1,0.1L1400,213v158.2l-95.4-95.4c-0.8-0.8-0.8-2,0-2.9l76.3-76.4
					C1381.2,196.2,1381.7,196,1382.3,196 M1382.3,194c-1.1,0-2.1,0.4-2.8,1.1l-76.3,76.4c-1.6,1.6-1.6,4.1,0,5.7L1400,374V210.1
					l-14.9-14.9C1384.4,194.4,1383.4,194,1382.3,194L1382.3,194z"/>
			</g>
		</g>
	</g>
	<g id="Rooms">
		<a id="sh1f110" xlink:href="#" >
			<g>
				<g>
					<g>
						<path class="st10" d="M308.3,710c-2.8,0-5-2.2-5-5v-30c0-2.8,2.2-5,5-5h30c2.8,0,5,2.2,5,5v30c0,2.8-2.2,5-5,5H308.3z"/>
						<path class="st3" d="M338.3,671c2.2,0,4,1.8,4,4v30c0,2.2-1.8,4-4,4h-30c-2.2,0-4-1.8-4-4v-30c0-2.2,1.8-4,4-4H338.3
							 M338.3,669h-30c-3.3,0-6,2.7-6,6v30c0,3.3,2.7,6,6,6h30c3.3,0,6-2.7,6-6v-30C344.3,671.7,341.6,669,338.3,669L338.3,669z"/>
					</g>
				</g>
				
					<image style="overflow:visible;enable-background:new ;" width="76" height="76" id="hospi_x5F_off" xlink:href="./images/2x/hospi_off@2x.png" class="i_hospi" transform="matrix(0.5 0 0 0.5 304.3 671)">
				</image>
			</g>
		</a>
		<a id="sh1f109" xlink:href="#" >
			<g>
				<g>
					<path class="st10" d="M458.9,621.8c-2.8,0-5-2.2-5-5v-30c0-2.8,2.2-5,5-5h30c2.8,0,5,2.2,5,5v30c0,2.8-2.2,5-5,5H458.9z"/>
					<path class="st3" d="M488.9,582.8c2.2,0,4,1.8,4,4v30c0,2.2-1.8,4-4,4h-30c-2.2,0-4-1.8-4-4v-30c0-2.2,1.8-4,4-4H488.9
						 M488.9,580.8h-30c-3.3,0-6,2.7-6,6v30c0,3.3,2.7,6,6,6h30c3.3,0,6-2.7,6-6v-30C494.9,583.5,492.2,580.8,488.9,580.8
						L488.9,580.8z"/>
				</g>
				
					<image style="overflow:visible;enable-background:new ;" width="76" height="76" id="toilet_x5F_off" xlink:href="./images/2x/toilet_off@2x.png" class="i_toilet" transform="matrix(0.5 0 0 0.5 454.9 582.8)">
				</image>
			</g>
		</a>
		<a id="sh1f107" xlink:href="#" >
			<g>
				<path class="st6" d="M434.9,356c-2.8,0-5-2.2-5-5v-29h59c2.8,0,5,2.2,5,5v29H434.9z"/>
				<path class="st3" d="M488.9,323c2.2,0,4,1.8,4,4v28h-58c-2.2,0-4-1.8-4-4v-28H488.9 M488.9,321h-60v30c0,3.3,2.7,6,6,6h60v-30
					C494.9,323.7,492.2,321,488.9,321L488.9,321z"/>
			</g>
		</a>
		<a id="sh1f113" xlink:href="#" >
			<g>
				<path class="st11" d="M239.2,638.3c-2.1,0-4-1.3-4.7-3.3l-13.2-37.6c70.1-31.9,111.7-79.6,134.2-114.1
					c22-33.6,30.6-61.5,32.2-67.1l44.4,15.1c1.3,0.4,2.3,1.4,2.9,2.6s0.6,2.6,0.2,3.9l-0.6,1.5c-19.8,53.2-53,142.2-193.5,198.8
					C240.4,638.2,239.8,638.3,239.2,638.3z"/>
				<path class="st3" d="M388.2,417.4l43.4,14.7c1,0.4,1.9,1.1,2.3,2.1c0.5,1,0.5,2.1,0.1,3.1l-0.6,1.5c-9.8,26.2-23.2,62.2-51.4,98
					c-15.4,19.5-33.9,37.3-55,52.9c-24.6,18.2-53.7,34.1-86.5,47.3c-0.5,0.2-1,0.3-1.5,0.3c-1.7,0-3.2-1.1-3.8-2.7l-12.9-36.8
					c30.6-14,58.3-32.2,82.4-54c19.6-17.8,36.9-38,51.3-60C377.1,451.8,386,424.9,388.2,417.4 M386.9,414.8
					c0,0-30.6,120.4-166.9,182l13.5,38.5c0.9,2.5,3.2,4,5.7,4c0.7,0,1.5-0.1,2.2-0.4C383.6,581.6,416.1,491.4,436,438
					c1.2-3.2-0.5-6.7-3.7-7.8L386.9,414.8L386.9,414.8z"/>
			</g>
		</a>
		<g id="Elavator_6_">
			<g>
				<g>
					<path class="st10" d="M458.9,481.6c-2.8,0-5-2.2-5-5v-30c0-2.8,2.2-5,5-5h30c2.8,0,5,2.2,5,5v30c0,2.8-2.2,5-5,5H458.9z"/>
					<path class="st3" d="M488.9,442.6c2.2,0,4,1.8,4,4v30c0,2.2-1.8,4-4,4h-30c-2.2,0-4-1.8-4-4v-30c0-2.2,1.8-4,4-4H488.9
						 M488.9,440.6h-30c-3.3,0-6,2.7-6,6v30c0,3.3,2.7,6,6,6h30c3.3,0,6-2.7,6-6v-30C494.9,443.3,492.2,440.6,488.9,440.6
						L488.9,440.6z"/>
				</g>
			</g>
			
				<image style="overflow:visible;enable-background:new ;" width="76" height="76" id="elevator_x5F_off_1_" xlink:href="./images/2x/elevator_off@2x.png" class="i_elevator" transform="matrix(0.5 0 0 0.5 454.9 442.6)">
			</image>
		</g>
		<g id="Elavator_2_">
			<g>
				<g>
					<path class="st10" d="M458.9,581.8c-2.8,0-5-2.2-5-5v-30c0-2.8,2.2-5,5-5h30c2.8,0,5,2.2,5,5v30c0,2.8-2.2,5-5,5H458.9z"/>
					<path class="st3" d="M488.9,542.8c2.2,0,4,1.8,4,4v30c0,2.2-1.8,4-4,4h-30c-2.2,0-4-1.8-4-4v-30c0-2.2,1.8-4,4-4H488.9
						 M488.9,540.8h-30c-3.3,0-6,2.7-6,6v30c0,3.3,2.7,6,6,6h30c3.3,0,6-2.7,6-6v-30C494.9,543.5,492.2,540.8,488.9,540.8
						L488.9,540.8z"/>
				</g>
			</g>
			
				<image style="overflow:visible;enable-background:new ;" width="76" height="76" id="elevator_x5F_off" xlink:href="./images/2x/elevator_off@2x.png" class="i_elevator" transform="matrix(0.5 0 0 0.5 454.9 542.8)">
			</image>
		</g>
		<a id="sh1f106" xlink:href="#" >
			<g>
				<path class="st6" d="M504,533.6v-19c0-2.8,2.2-5,5-5h76c2.8,0,5,2.2,5,5v19H504z"/>
				<path class="st3" d="M585,510.6c2.2,0,4,1.8,4,4v18h-84v-18c0-2.2,1.8-4,4-4L585,510.6 M585,508.6h-76c-3.3,0-6,2.7-6,6v20h88
					v-20C591,511.3,588.3,508.6,585,508.6L585,508.6z"/>
			</g>
		</a>
		<a id="sh1f105" xlink:href="#" >
			<g>
				<path class="st6" d="M594.9,575.2v-41.6h41c2.8,0,5,2.2,5,5v31.6c0,2.8-2.2,5-5,5H594.9z"/>
				<path class="st3" d="M635.9,534.6c2.2,0,4,1.8,4,4v31.6c0,2.2-1.8,4-4,4h-40v-39.6H635.9 M635.9,532.6h-42v43.6h42
					c3.3,0,6-2.7,6-6v-31.6C641.9,535.3,639.2,532.6,635.9,532.6L635.9,532.6z"/>
			</g>
		</a>
		<a id="sh1f104" xlink:href="#" >
			<g>
				<path class="st6" d="M594.9,481.6v-41.2h41c2.8,0,5,2.2,5,5v36.2H594.9z"/>
				<path class="st3" d="M635.9,441.4c2.2,0,4,1.8,4,4v35.2h-44v-39.2H635.9 M635.9,439.4h-42v43.2h48v-37.2
					C641.9,442.1,639.2,439.4,635.9,439.4L635.9,439.4z"/>
			</g>
		</a>
		<a id="sh1f103" xlink:href="#" >
			<g>
				<path class="st6" d="M594.9,405.6v-36.4h95c2.8,0,5,2.2,5,5v26.4c0,2.8-2.2,5-5,5H594.9z"/>
				<path class="st3" d="M689.9,370.2c2.2,0,4,1.8,4,4v26.4c0,2.2-1.8,4-4,4h-94v-34.4H689.9 M689.9,368.2h-96v38.4h96
					c3.3,0,6-2.7,6-6v-26.4C695.9,370.9,693.2,368.2,689.9,368.2L689.9,368.2z"/>
			</g>
		</a>
		<g id="sh1f101_0">
			<path class="st6" d="M614.3,333.8c-8.7,0-16.9-1.5-19.4-2v-67.6c6,1.5,33.7,10.2,44.3,43.5c2.5,7.7,2.1,13.8-1,18.1
				C633.4,332.5,622.5,333.8,614.3,333.8z"/>
			<path class="st3" d="M595.9,265.6c7.7,2.2,32.5,11.5,42.4,42.5c2.4,7.4,2.1,13.2-0.8,17.2c-4.6,6.3-15.1,7.6-23.1,7.6
				c-7.9,0-15.3-1.2-18.4-1.8v-65.5 M593.9,263v69.7c0,0,9.7,2.2,20.4,2.2c15.5,0,33.1-4.6,25.9-27.4
				C627.9,269.1,593.9,263,593.9,263L593.9,263z"/>
		</g>
		<a id="sh1f101" xlink:href="#" >
			<g>
				<path class="st6" d="M594.9,262v-95.8c0-3.9-3.1-7-7-7h-60c-2.8,0-5-2.2-5-5V67.8h123.2c2.8,0,5,2.2,5,5V257c0,2.8-2.2,5-5,5
					H594.9z"/>
				<g>
					<path class="st3" d="M523.9,66.8L523.9,66.8L523.9,66.8 M646.1,68.8c2.2,0,4,1.8,4,4V257c0,2.2-1.8,4-4,4h-50.2v-94.8
						c0-4.4-3.6-8-8-8h-60c-2.2,0-4-1.8-4-4V68.8H646.1 M646.1,66.8H521.9v87.4c0,3.3,2.7,6,6,6h60c3.3,0,6,2.7,6,6V263h52.2
						c3.3,0,6-2.7,6-6V72.8C652.1,69.5,649.4,66.8,646.1,66.8L646.1,66.8z"/>
				</g>
			</g>
		</a>
		<a id="sh1f108" xlink:href="#" >
			<rect x="362" y="632" class="st6" width="128" height="75.8"/>
		</a>
		<a id="sh1f111" xlink:href="#" >
			<polygon class="st6" points="240,661.1 240,707 285,707 285,661 			"/>
		</a>
		<a id="sh1f112" xlink:href="#" >
			<g>
				<polygon class="st6" points="168,665.1 168,707 234,707 234,665 				"/>
			</g>
		</a>
		<a id="lobbysh1f" xlink:href="#" class="svg_lobby_mark">
			<g>
				<g>
					
						<linearGradient id="SVGID_sh1" gradientUnits="userSpaceOnUse" x1="2095.8655" y1="307" x2="2117.8655" y2="307" gradientTransform="matrix(-1 0 0 1 2829.8655 0)">
						<stop  offset="0.1" style="stop-color:#EF405C;stop-opacity:0"/>
						<stop  offset="0.8" style="stop-color:#EF405C"/>
					</linearGradient>
					<polygon class="st12" points="734,292 712,307 734,322 					"/>
					<linearGradient id="SVGID_sh2" gradientUnits="userSpaceOnUse" x1="734" y1="307" x2="712" y2="307">
						<stop  offset="0.1" style="stop-color:#EF405C;stop-opacity:0"/>
						<stop  offset="0.8" style="stop-color:#B30521"/>
					</linearGradient>
					<path class="st13" d="M733,293.9v26.2L713.8,307L733,293.9 M734,292l-22,15l22,15V292L734,292z"/>
				</g>
				<g>
					<path class="st14" d="M713.1,308.5c-0.1,0-0.3,0-0.4-0.2l-8.1-13.3c-0.7-1.3-1-2.7-1-4.2c0-2.5,1-4.9,2.8-6.6s4.2-2.7,6.7-2.7
						h0.1c5.1,0.1,9.3,4.2,9.4,9.2c0,1.5-0.3,2.9-1,4.3l-8.1,13.3C713.4,308.5,713.2,308.5,713.1,308.5z M713,287c-2.2,0-4,1.8-4,4
						s1.8,4,4,4s4-1.8,4-4S715.2,287,713,287z"/>
					<path class="st15" d="M713.1,282L713.1,282c5,0.1,8.9,4,9,8.7c0,1.4-0.3,2.8-1,4l-8,13.2l-8-13.2c-0.6-1.2-1-2.6-1-3.9
						c0-2.4,0.9-4.6,2.7-6.3C708.5,282.9,710.7,282,713.1,282 M713,295.5c2.5,0,4.5-2,4.5-4.5s-2-4.5-4.5-4.5s-4.5,2-4.5,4.5
						S710.5,295.5,713,295.5 M713.1,281c-2.6,0-5.1,1-7,2.8c-1.9,1.9-3,4.3-3,7c0,1.6,0.4,3.1,1.1,4.4l8.1,13.3
						c0.2,0.4,0.6,0.5,0.8,0.5s0.6,0,0.8-0.5l8.1-13.3c0.7-1.4,1.1-2.9,1.1-4.5C723.1,285.4,718.6,281,713.1,281
						C713.2,281,713.1,281,713.1,281L713.1,281z M713,294.5c-1.9,0-3.5-1.6-3.5-3.5s1.6-3.5,3.5-3.5s3.5,1.6,3.5,3.5
						S714.9,294.5,713,294.5L713,294.5z"/>
				</g>
			</g>
		</a>
	</g>
	<g id="Spotname1Fsh_2_" class="spotname">
		<text id="sh1f112" transform="matrix(1 0 0 1 187.2957 690.6995)" class="st3 st4 st5">사우나</text>
		<text id="sh1f111" transform="matrix(1 0 0 1 247.2957 690.6995)" class="st3 st4 st5">샤워실</text>
		<text id="sh1f108" transform="matrix(1 0 0 1 409.6951 662.6995)" class="st3 st4 st5">바온탑</text>
		<text id="sh1f113" transform="matrix(1 0 0 1 322.6853 544.8997)" class="st10 st4 st5">스카이풀</text>
		<text id="sh1f107" transform="matrix(1 0 0 1 445.8953 343.2996)" class="st3 st4 st5">봄바쉑</text>
		<text id="sh1f106" transform="matrix(1 0 0 1 515.615 524.8997)" class="st3 st4 st5">서비스 데스크</text>
		<text id="shinhwa" transform="matrix(1 0 0 1 1031.4949 83.4998)" class="st3 st4 st5">신화관</text>
		<text id="sh1f105" transform="matrix(1 0 0 1 596.4851 552.0999)"><tspan x="0" y="0" class="st3 st4 st5">피트니스</tspan><tspan x="10" y="14" class="st3 st4 st5">코너</tspan></text>
		<text id="sh1f104" transform="matrix(1 0 0 1 602.4949 464.0996)" class="st3 st4 st5">요가룸</text>
		<text id="sh1f103" transform="matrix(1 0 0 1 613.4148 392.6997)" class="st3 st4 st5">프론트 데스크</text>
		<text id="shlounge" transform="matrix(1 0 0 1 604.3748 301.2996)"><tspan x="0" y="0" class="st3 st4 st5">신화</tspan><tspan x="-4" y="14" class="st3 st4 st5">라운지</tspan></text>
		<text id="sh1f101" transform="matrix(1 0 0 1 555.574 121.8997)" class="st3 st4 st5">신화 다이닝</text>
		<text id="lobbysh1f" transform="matrix(1 0 0 1 696.0945 332.4998)"><tspan x="0" y="0" class="st3 st4 st5">신화관</tspan><tspan x="6" y="14" class="st3 st4 st5">로비</tspan></text>
	</g>
	<g id="Portals">
		<line id="Elev.4.floor0_2_" class="st16" x1="467" y1="555" x2="474" y2="548"/>
		<line id="Elev.3.floor0_2_" class="st16" x1="474" y1="475" x2="481" y2="468"/>
		<line id="Wayout.1.floorShF101" class="st16" x1="959" y1="10" x2="966" y2="3"/>
		<line id="Wayout.4.floorGfMa" class="st16" x1="657" y1="728" x2="664" y2="721"/>
	</g>
	<g id="Doors">
		<line id="sh1f101" class="st17" x1="635" y1="251" x2="642" y2="244"/>
		<line id="lobbysh1f" class="st17" x1="713" y1="306" x2="720" y2="299"/>
		<line id="sh1f103" class="st17" x1="638" y1="387" x2="645" y2="380"/>
		<line id="sh1f104" class="st17" x1="618" y1="471" x2="625" y2="464"/>
		<line id="sh1f105" class="st17" x1="611" y1="547" x2="618" y2="540"/>
		<line id="sh1f106" class="st17" x1="540" y1="521" x2="547" y2="514"/>
		<line id="sh1f107" class="st17" x1="461" y1="345" x2="468" y2="338"/>
		<line id="sh1f109" class="st17" x1="465" y1="602" x2="472" y2="595"/>
		<line id="sh1f108" class="st17" x1="418" y1="650" x2="425" y2="643"/>
		<line id="sh1f113" class="st17" x1="347" y1="560" x2="354" y2="553"/>
		<line id="sh1f110" class="st17" x1="316" y1="688" x2="323" y2="681"/>
		<line id="sh1f111" class="st17" x1="256" y1="675" x2="263" y2="668"/>
		<line id="sh1f112" class="st17" x1="197" y1="679" x2="204" y2="672"/>
	</g>
	<g id="Paths">
		<line class="st18" x1="687" y1="306" x2="713" y2="306"/>
		<line class="st18" x1="687" y1="273" x2="687" y2="306"/>
		<line class="st18" x1="687" y1="76" x2="687" y2="273"/>
		<line class="st18" x1="959" y1="76" x2="687" y2="76"/>
		<line class="st18" x1="959" y1="10" x2="959" y2="76"/>
		<line class="st18" x1="687" y1="306" x2="687" y2="357"/>
		<line class="st18" x1="687" y1="357" x2="716" y2="357"/>
		<line class="st18" x1="618" y1="502" x2="716" y2="502"/>
		<line class="st18" x1="547" y1="502" x2="618" y2="502"/>
		<line class="st18" x1="474" y1="502" x2="547" y2="502"/>
		<line class="st18" x1="443" y1="502" x2="474" y2="502"/>
		<line class="st18" x1="425" y1="502" x2="443" y2="502"/>
		<line class="st18" x1="399" y1="543" x2="425" y2="502"/>
		<line class="st18" x1="374" y1="573" x2="399" y2="543"/>
		<line class="st18" x1="314" y1="620" x2="374" y2="573"/>
		<line class="st18" x1="323" y1="659" x2="314" y2="620"/>
		<line class="st18" x1="263" y1="645" x2="314" y2="620"/>
		<line class="st18" x1="204" y1="650" x2="263" y2="645"/>
		<line class="st18" x1="443" y1="602" x2="443" y2="502"/>
		<line class="st18" x1="443" y1="502" x2="443" y2="395"/>
		<line class="st18" x1="425" y1="621" x2="443" y2="602"/>
		<line class="st18" x1="716" y1="357" x2="716" y2="502"/>
		<line class="st18" x1="645" y1="357" x2="687" y2="357"/>
		<line class="st18" x1="635" y1="273" x2="687" y2="273"/>
		<line class="st18" x1="635" y1="273" x2="635" y2="251"/>
		<line class="st18" x1="645" y1="380" x2="645" y2="357"/>
		<line class="st18" x1="618" y1="502" x2="618" y2="471"/>
		<line class="st18" x1="618" y1="540" x2="618" y2="502"/>
		<line class="st18" x1="547" y1="514" x2="547" y2="502"/>
		<line class="st18" x1="474" y1="502" x2="474" y2="475"/>
		<line class="st18" x1="461" y1="377" x2="461" y2="345"/>
		<line class="st18" x1="443" y1="395" x2="461" y2="377"/>
		<line class="st18" x1="474" y1="548" x2="474" y2="502"/>
		<line class="st18" x1="443" y1="602" x2="465" y2="602"/>
		<line class="st18" x1="425" y1="621" x2="425" y2="643"/>
		<line class="st18" x1="354" y1="553" x2="374" y2="573"/>
		<line class="st18" x1="323" y1="659" x2="323" y2="681"/>
		<line class="st18" x1="263" y1="645" x2="263" y2="668"/>
		<line class="st18" x1="204" y1="650" x2="204" y2="672"/>
		<line class="st18" x1="716" y1="502" x2="716" y2="603"/>
		<line class="st18" x1="716" y1="603" x2="664" y2="603"/>
		<line class="st18" x1="664" y1="603" x2="664" y2="721"/>
	</g>
</g>
</svg>
