<?xml version="1.0" encoding="utf-8"?>
<!-- Generator: Adobe Illustrator 23.0.0, SVG Export Plug-In . SVG Version: 6.00 Build 0)  -->
<svg version="1.1" xmlns="http://www.w3.org/2000/svg" xmlns:xlink="http://www.w3.org/1999/xlink" x="0px" y="0px"
	 viewBox="0 0 1400 730" style="enable-background:new 0 0 1400 730;" xml:space="preserve" width="1400px" height="730px" id="lgfMa">
	<style>
	#lgfMa .st0{fill:#CBD5DD;}
	#lgfMa .st1{fill:#EAEAEA;}
	#lgfMa .st2{fill:#A5855B;}
	#lgfMa .st3{fill:#FFFFFF;}
	#lgfMa .st4{fill:url(#SVGID_lgf1);}
	#lgfMa .st5{fill:url(#SVGID_lgf2);}
	#lgfMa .st6{fill:#EF405C;}
	#lgfMa .st7{fill:#C72D46;}
	#lgfMa .st8{fill:url(#SVGID_lgf3);}
	#lgfMa .st9{fill:url(#SVGID_lgf4);}
	#lgfMa .st10{font-family:'NanumSquareB';}
	#lgfMa .st11{font-size:14.4px;}
	#lgfMa .st12{font-size:12px;}
	#lgfMa .st13{fill:none;stroke:#FF00FF;}
	#lgfMa .st14{fill:none;stroke:#00FF00;}
	#lgfMa .st15{fill:none;stroke:#EF405C;}
</style>
<g id="BG">
	<rect class="st0" width="1400" height="730"/>
</g>
<g id="LGF">
	<g id="Base_2_">
		<g id="Marriott_Base02_1_">
			<path class="st1" d="M520.5,1209.9c-4.4,0-7.9-3.4-7.9-7.7v-698c66.7,4.4,148.3,6.6,242.6,6.6c268.8,0,560.8-18,580.8-19.3v436.6
				c0,1.3-0.5,2.6-1.4,3.5l-273.7,276.8c-0.9,0.9-2.2,1.5-3.6,1.5L520.5,1209.9L520.5,1209.9z"/>
			<path class="st2" d="M1335,492.6v435.5c0,1.1-0.4,2.1-1.2,2.8l-273.7,276.8c-0.7,0.8-1.8,1.2-2.8,1.2H520.5c-3.8,0-6.9-3-6.9-6.7
				V505.3c66.5,4.3,147.8,6.5,241.6,6.5C1020.1,511.8,1307.5,494.3,1335,492.6 M1337,490.5c0,0-301.5,19.3-581.8,19.3
				c-86.4,0-170.7-1.8-243.6-6.6v699c0,4.8,4,8.7,8.9,8.7h536.7c1.6,0,3.1-0.6,4.3-1.8l273.7-276.8c1.1-1.1,1.7-2.6,1.7-4.2V490.5
				H1337z"/>
		</g>
		<g id="Marriott_Base01_1_">
			<path class="st1" d="M273.9,944.8c-3.2,0-5.7-2.5-5.9-5.7c-0.6-11-5-32.5-15.1-46.4c-1.3-1.8-3.4-2.9-5.7-2.9
				c-1.2,0-2.4,0.3-3.5,0.9l-6.6,3.8c-0.8,0.4-1.6,0.7-2.5,0.7c-1.8,0-3.4-1-4.3-2.5L209,855.8c-0.7-1.2-0.8-2.5-0.5-3.8
				s1.2-2.4,2.3-3l9.9-5.7c0.7-0.4,1.2-1.1,1.4-1.9c0.2-0.8,0.1-1.6-0.4-2.3c-1.6-2.5-3.2-5.1-4.8-7.5c-0.6-0.9-1.5-1.4-2.5-1.4
				c-0.6,0-1.2,0.2-1.7,0.6l-9.8,7c-0.9,0.6-1.9,0.9-2.9,0.9c-1.6,0-3.1-0.8-4.1-2.1L171.2,802c-1.6-2.2-1.1-5.4,1.2-7l9-6.4
				c0.7-0.5,1.1-1.2,1.2-2.1c0.1-0.8-0.1-1.7-0.7-2.3c-2.2-2.6-4.4-5.2-6.6-7.7c-0.6-0.6-1.4-1-2.3-1c-0.8,0-1.5,0.3-2.1,0.8
				l-8.2,7.7c-0.9,0.9-2.1,1.3-3.4,1.3l0,0c-1.4,0-2.7-0.6-3.6-1.6c-3.3-3.5-8.5-9.1-13.8-14.7c-5.3-5.7-10.8-11.5-14.6-15.6
				c-1.4-1.5-2.1-2.9-2-4.3c0.1-1.4,0.8-2.8,2.3-4.2l2.4-2.3c1.5-1.4,2.3-3.3,2.2-5.4c-0.1-2-1-3.9-2.6-5.2
				c-8.6-6.8-16.6-12.3-23.9-16.3c-2-1.1-3.8-4.1-3.8-6.4v-326c0-5.1-4.2-9.3-9.3-9.4l-27.5-0.4c-4-0.1-7.3-3.4-7.3-7.4v-61.3
				c0-4.1,3.3-7.4,7.4-7.4H72c4.7,0,8.6-3.9,8.6-8.6c0-2,0.7-3.8,2-5.2c1.3-1.4,3.2-2.2,5.1-2.2c0.7,0,1.4,0.1,2.1,0.3h0.1
				l111.8,8.5c0.9,0.3,1.7,0.4,2.6,0.4c2.8,0,5.5-1.4,7.3-3.6c1.7-2.3,2.3-5.2,1.5-8l-18.8-67.2c-0.8-2.9,0.2-6,2.5-7.8
				c31.7-24.9,158-54.7,579.7-55.2c3.9,0,392.3,3.6,554.7,12.9c2.6,0.1,4.7,2.3,4.7,5v325.2c-19.4,1.2-328.7,19.2-592.1,19.2
				c-92.9,0-170.3-2.2-230-6.7l-1.1-0.1v440.5L273.9,944.8L273.9,944.8z"/>
			<path class="st2" d="M776.6,149.8L776.6,149.8c4,0,392.3,3.6,554.6,12.9c2.1,0.1,3.8,1.9,3.8,4V491
				c-26.8,1.6-331.3,19.1-591.1,19.1c-92.9,0-170.2-2.2-229.9-6.7l-2.1-0.2v2.2v438.4h-238h-0.1c-2.6,0-4.7-2.1-4.8-4.8
				c-0.5-9.6-4.3-31.7-15.3-47c-1.5-2.1-3.9-3.3-6.5-3.3c-1.4,0-2.8,0.4-4,1.1l-6.6,3.8c-0.6,0.4-1.3,0.5-2,0.5
				c-1.4,0-2.8-0.8-3.5-2l-21.3-36.8c-1.1-1.9-0.4-4.4,1.5-5.5l9.9-5.7c0.9-0.5,1.6-1.5,1.9-2.5c0.3-1.1,0.1-2.2-0.5-3.1
				c-1.6-2.5-3.2-5.1-4.8-7.5c-0.7-1.1-2-1.8-3.4-1.8c-0.8,0-1.6,0.3-2.3,0.7l-9.8,7c-0.7,0.5-1.5,0.7-2.3,0.7
				c-1.3,0-2.5-0.6-3.3-1.7L172,801.3c-1.3-1.8-0.9-4.3,0.9-5.6l9-6.4c0.9-0.6,1.5-1.7,1.7-2.8c0.1-1.1-0.2-2.2-0.9-3.1
				c-2.2-2.7-4.5-5.3-6.6-7.8c-0.8-0.9-1.9-1.4-3-1.4c-1,0-2,0.4-2.7,1.1l-8.2,7.7c-0.7,0.7-1.7,1.1-2.7,1.1c-1.1,0-2.2-0.4-2.9-1.3
				c-3.3-3.6-8.6-9.1-13.9-14.8c-5.3-5.7-10.7-11.4-14.5-15.5c-1.2-1.3-1.8-2.5-1.7-3.6c0-1.1,0.7-2.3,2-3.5l2.4-2.3
				c1.7-1.6,2.6-3.8,2.5-6.2c-0.1-2.3-1.2-4.5-3-5.9c-8.6-6.9-16.7-12.4-24-16.4c-1.7-0.9-3.3-3.6-3.3-5.5v-326
				c0-5.6-4.6-10.3-10.2-10.4l-27.5-0.4c-3.5-0.1-6.3-2.9-6.3-6.4v-61.3c0-3.5,2.9-6.4,6.4-6.4h6.8c5.3,0,9.6-4.3,9.6-9.6l0,0l0,0
				c0-1.7,0.6-3.2,1.7-4.4c1.2-1.2,2.8-1.9,4.4-1.9c0.6,0,1.2,0.1,1.8,0.3l0.2,0.1h0.2l111.5,8.5c0.9,0.3,1.9,0.4,2.8,0.4
				c3.1,0,6.1-1.5,8.1-4c1.9-2.5,2.5-5.8,1.7-8.8l-18.8-67.2c-0.7-2.5,0.2-5.1,2.2-6.7c17-13.4,56.9-24.6,118.5-33.3
				C416.3,157.4,571.3,150.1,776.6,149.8 M776.6,147.8c-476.1,0.6-559.3,38.9-580.3,55.4c-2.7,2.1-3.8,5.6-2.9,8.8l18.8,67.2
				c1.5,5.4-2.7,10.3-7.8,10.3c-0.8,0-1.6-0.1-2.4-0.4l-111.8-8.5c-0.8-0.2-1.6-0.4-2.4-0.4c-4.4,0-8.2,3.6-8.1,8.3
				c0,4.2-3.4,7.6-7.6,7.6h-6.8c-4.6,0-8.4,3.8-8.4,8.4V366c0,4.6,3.7,8.3,8.3,8.4l27.5,0.4c4.6,0.1,8.3,3.8,8.3,8.4v326
				c0,2.7,1.9,6,4.3,7.3c8,4.3,16.1,10.1,23.7,16.2c2.9,2.3,3,6.6,0.4,9.1l-2.4,2.3c-3.4,3.2-3.6,6.5-0.4,9.9
				c7.6,8.1,21.8,23.2,28.4,30.3c1.2,1.3,2.8,1.9,4.4,1.9c1.5,0,2.9-0.5,4.1-1.6l8.2-7.7c0.4-0.4,0.9-0.5,1.4-0.5
				c0.6,0,1.1,0.2,1.5,0.7c2.2,2.6,4.5,5.1,6.6,7.7c0.7,0.9,0.6,2.2-0.4,2.9l-9,6.4c-2.7,1.9-3.3,5.7-1.4,8.4l24.7,34.6
				c1.2,1.6,3,2.5,4.9,2.5c1.2,0,2.4-0.4,3.5-1.1l9.8-7c0.4-0.3,0.8-0.4,1.2-0.4c0.7,0,1.3,0.3,1.7,0.9c1.6,2.5,3.2,5,4.8,7.5
				c0.6,1,0.3,2.2-0.7,2.8l-9.9,5.7c-2.9,1.7-3.9,5.3-2.2,8.2l21.3,36.8c1.1,1.9,3.1,3,5.2,3c1,0,2-0.3,3-0.8l6.6-3.8
				c0.9-0.5,2-0.8,3-0.8c1.9,0,3.7,0.9,4.9,2.5c10.3,14.3,14.4,35.8,14.9,45.9c0.2,3.7,3.1,6.6,6.8,6.7h0.1h240V505.4
				c65.2,4.8,145.5,6.7,230.1,6.7c273.8,0,593.1-19.3,593.1-19.3V166.7c0-3.2-2.5-5.8-5.6-6C1167.1,151.3,776.6,147.8,776.6,147.8
				L776.6,147.8z"/>
		</g>
		<g id="LGF_x5F_Base">
			<path class="st1" d="M1001.3,506.9c-2.8,0-5-2.2-5-5V157c0-2.8,2.2-5,5-5c200.5,3.3,328.7,9.5,329.9,9.5c2.7,0.1,4.7,2.3,4.7,5
				V487c0,2.7-2.1,4.8-4.7,5c-139.3,7.5-296.3,13.9-329.8,14.8L1001.3,506.9z"/>
			<path class="st2" d="M1001.3,153L1001.3,153c200.5,3.3,328.6,9.5,329.9,9.5c2.1,0.1,3.8,1.9,3.8,4V487c0,2.1-1.7,3.9-3.8,4
				c-139.3,7.5-296.3,13.9-329.8,14.8h-0.1c-2.2,0-4-1.8-4-4V156.9C997.3,154.8,999.1,153,1001.3,153 M1001.3,151c-3.3,0-6,2.7-6,6
				v344.9c0,3.3,2.7,6,6,6c0.1,0,0.1,0,0.2,0c34.8-1,191-7.3,329.9-14.8c3.2-0.2,5.7-2.8,5.7-6V166.5c0-3.2-2.5-5.8-5.7-6
				c-27.3-1.3-151.4-6.6-329.9-9.5C1001.4,151,1001.3,151,1001.3,151L1001.3,151z"/>
		</g>
		<g id="Elevator_11">
			<g>
				<g>
					<path class="st3" d="M627,353.6c-2.8,0-5-2.2-5-5v-30c0-2.8,2.2-5,5-5h30c2.8,0,5,2.2,5,5v30c0,2.8-2.2,5-5,5H627z"/>
					<path class="st2" d="M657,314.6c2.2,0,4,1.8,4,4v30c0,2.2-1.8,4-4,4h-30c-2.2,0-4-1.8-4-4v-30c0-2.2,1.8-4,4-4H657 M657,312.6
						h-30c-3.3,0-6,2.7-6,6v30c0,3.3,2.7,6,6,6h30c3.3,0,6-2.7,6-6v-30C663,315.3,660.3,312.6,657,312.6L657,312.6z"/>
				</g>
			</g>
			
				<image style="overflow:visible;enable-background:new    ;" width="76" height="76" id="elevator_x5F_off_4_" xlink:href="./images/2x/elevator_off@2x.png"  class="i_elevator" transform="matrix(0.5 0 0 0.5 623 314.6)">
			</image>
		</g>
		<g id="Stairs_2">
			<g>
				<path class="st3" d="M587,353.6c-2.8,0-5-2.2-5-5v-30c0-2.8,2.2-5,5-5h30c2.8,0,5,2.2,5,5v30c0,2.8-2.2,5-5,5H587z"/>
				<path class="st2" d="M617,314.6c2.2,0,4,1.8,4,4v30c0,2.2-1.8,4-4,4h-30c-2.2,0-4-1.8-4-4v-30c0-2.2,1.8-4,4-4H617 M617,312.6
					h-30c-3.3,0-6,2.7-6,6v30c0,3.3,2.7,6,6,6h30c3.3,0,6-2.7,6-6v-30C623,315.3,620.3,312.6,617,312.6L617,312.6z"/>
			</g>
			
				<image style="overflow:visible;enable-background:new    ;" width="76" height="76" id="escal_x5F_off" xlink:href="./images/2x/escal_off@2x.png" class="i_escal" transform="matrix(0.5 0 0 0.5 583 314.6)">
			</image>
		</g>
	</g>
	<g id="Rooms">
		<a id="malgf101" xlink:href="#" >
			<g>
				<path class="st1" d="M1249,437c-2.8,0-5-2.2-5-5V220c0-2.8,2.2-5,5-5h126c2.8,0,5,2.2,5,5v212c0,2.8-2.2,5-5,5H1249z"/>
				<path class="st2" d="M1375,216c2.2,0,4,1.8,4,4v212c0,2.2-1.8,4-4,4h-126c-2.2,0-4-1.8-4-4V220c0-2.2,1.8-4,4-4H1375 M1375,214
					h-126c-3.3,0-6,2.7-6,6v212c0,3.3,2.7,6,6,6h126c3.3,0,6-2.7,6-6V220C1381,216.7,1378.3,214,1375,214L1375,214z"/>
			</g>
		</a>
		<a id="malgf102" xlink:href="#" >
			<g>
				<path class="st1" d="M1163,461.6c0-2.8,2.2-5,5-5h48c2.8,0,5,2.2,5,5v36c-19.8,0.9-51.8,2.6-58,2.9V461.6z"/>
				<g>
					<path class="st2" d="M1216,457.6c2.2,0,4,1.8,4,4v35.1c-18.9,0.9-48,2.4-56,2.8v-37.9c0-2.2,1.8-4,4-4H1216 M1216,455.6h-48
						c-3.3,0-6,2.7-6,6v40c0,0,38-2,60-3v-37C1222,458.3,1219.3,455.6,1216,455.6L1216,455.6z"/>
				</g>
			</g>
		</a>
		<a id="malgf103" xlink:href="#" >
			<g>
				<path class="st1" d="M1221,462c0-2.8,2.2-5,5-5h36c2.8,0,5,2.2,5,5v33.5c-24.4,1.3-41.7,2.1-46,2.3V462z"/>
				<g>
					<path class="st2" d="M1262,458c2.2,0,4,1.8,4,4v32.5c-22.3,1.2-38.5,2-44,2.2V462c0-2.2,1.8-4,4-4H1262 M1262,456h-36
						c-3.3,0-6,2.7-6,6v36.8c0,0,19-0.8,48-2.4V462C1268,458.7,1265.3,456,1262,456L1262,456z"/>
				</g>
			</g>
		</a>
		<g id="Stairs_1_">
			<g>
				<path class="st3" d="M1162,347c-2.8,0-5-2.2-5-5v-30c0-2.8,2.2-5,5-5h30c2.8,0,5,2.2,5,5v30c0,2.8-2.2,5-5,5H1162z"/>
				<path class="st2" d="M1192,308c2.2,0,4,1.8,4,4v30c0,2.2-1.8,4-4,4h-30c-2.2,0-4-1.8-4-4v-30c0-2.2,1.8-4,4-4H1192 M1192,306
					h-30c-3.3,0-6,2.7-6,6v30c0,3.3,2.7,6,6,6h30c3.3,0,6-2.7,6-6v-30C1198,308.7,1195.3,306,1192,306L1192,306z"/>
			</g>
			
				<image style="overflow:visible;enable-background:new;" width="76" height="76" id="escal_x5F_off" xlink:href="./images/2x/escal_off@2x.png" class="i_escal" transform="matrix(0.5 0 0 0.5 1158 308)">
			</image>
		</g>
		<a id="lobbymalgf" xlink:href="#"  class="svg_lobby_mark">
			<g>
				<g>
					
						<linearGradient id="SVGID_lgf1" gradientUnits="userSpaceOnUse" x1="306.5571" y1="1451.1482" x2="328.5571" y2="1451.1482" gradientTransform="matrix(0.766 -0.6428 -0.6428 -0.766 1855.2251 1572.1345)">
						<stop  offset="0.1" style="stop-color:#EF405C;stop-opacity:0"/>
						<stop  offset="0.8" style="stop-color:#EF405C"/>
					</linearGradient>
					<polygon class="st4" points="1147.6,252 1174.1,249.3 1166.9,275"/>
					
						<linearGradient id="SVGID_lgf2" gradientUnits="userSpaceOnUse" x1="1157.2693" y1="466.5162" x2="1174.1223" y2="480.6575" gradientTransform="matrix(1 0 0 -1 0 730)">
						<stop  offset="0.1" style="stop-color:#EF405C;stop-opacity:0"/>
						<stop  offset="0.8" style="stop-color:#B30521"/>
					</linearGradient>
					<path class="st5" d="M1172.8,250.5l-6.3,22.4l-16.9-20.1L1172.8,250.5 M1174.1,249.3l-26.5,2.7l19.3,23L1174.1,249.3
						L1174.1,249.3z"/>
				</g>
				<g>
					<path class="st6" d="M1173.9,251.5c-0.1,0-0.3,0-0.4-0.2l-8.1-13.3c-0.7-1.3-1-2.7-1-4.2c0-5,4.2-9.2,9.4-9.2h0.1
						c2.5,0,4.9,1,6.7,2.7c1.8,1.8,2.8,4.1,2.8,6.6c0,1.5-0.3,2.9-1,4.2l-8.1,13.3C1174.2,251.5,1174,251.5,1173.9,251.5z M1174,230
						c-2.2,0-4,1.8-4,4s1.8,4,4,4s4-1.8,4-4S1176.2,230,1174,230z"/>
					<path class="st7" d="M1173.9,225c2.4,0,4.6,0.9,6.3,2.5c1.7,1.7,2.7,3.9,2.7,6.3c0,1.4-0.3,2.7-1,3.9l-8,13.2l-8-13.2
						c-0.6-1.2-1-2.6-1-4C1164.9,228.9,1168.9,225,1173.9,225L1173.9,225 M1174,238.5c2.5,0,4.5-2,4.5-4.5s-2-4.5-4.5-4.5
						s-4.5,2-4.5,4.5S1171.6,238.5,1174,238.5 M1173.9,224L1173.9,224c-5.5,0.1-9.9,4.4-10,9.7c0,1.6,0.4,3.1,1.1,4.5l8.1,13.3
						c0.2,0.4,0.6,0.5,0.8,0.5c0.2,0,0.6,0,0.8-0.5l8.1-13.3c0.7-1.4,1.1-2.9,1.1-4.4c0-2.6-1.1-5.1-3-7
						C1179.1,225,1176.6,224,1173.9,224L1173.9,224z M1174,237.5c-1.9,0-3.5-1.6-3.5-3.5s1.6-3.5,3.5-3.5s3.5,1.6,3.5,3.5
						S1176,237.5,1174,237.5L1174,237.5z"/>
				</g>
			</g>
		</a>
		<a id="lobbymalgf2" xlink:href="#" class="svg_lobby_mark">
			<g>
				<g>
					<linearGradient id="SVGID_lgf3" gradientUnits="userSpaceOnUse" x1="669" y1="396" x2="691" y2="396" gradientTransform="matrix(1 0 0 -1 0 730)">
						<stop  offset="0.1" style="stop-color:#EF405C;stop-opacity:0"/>
						<stop  offset="0.8" style="stop-color:#EF405C"/>
					</linearGradient>
					<polygon class="st8" points="669,319 691,334 669,349"/>
					
						<linearGradient id="SVGID_lgf4" gradientUnits="userSpaceOnUse" x1="669" y1="396" x2="691" y2="396" gradientTransform="matrix(1 0 0 -1 0 730)">
						<stop  offset="0.1" style="stop-color:#EF405C;stop-opacity:0"/>
						<stop  offset="0.8" style="stop-color:#B30521"/>
					</linearGradient>
					<path class="st9" d="M670,320.9l19.2,13.1L670,347.1V320.9 M669,319v30l22-15L669,319L669,319z"/>
				</g>
				<g>
					<path class="st6" d="M689.9,335.5c-0.1,0-0.3,0-0.4-0.2l-8.1-13.3c-0.7-1.3-1-2.7-1-4.2c0-5,4.2-9.2,9.4-9.2h0.1
						c2.5,0,4.9,1,6.7,2.7c1.8,1.8,2.8,4.1,2.8,6.6c0,1.5-0.3,2.9-1,4.2l-8.1,13.3C690.2,335.5,690,335.5,689.9,335.5z M690,314
						c-2.2,0-4,1.8-4,4s1.8,4,4,4s4-1.8,4-4S692.2,314,690,314z"/>
					<path class="st7" d="M689.9,309c2.4,0,4.6,0.9,6.3,2.5c1.7,1.7,2.7,3.9,2.7,6.3c0,1.4-0.3,2.7-1,3.9l-8,13.2l-8-13.2
						c-0.6-1.2-1-2.6-1-4C680.9,312.9,684.9,309,689.9,309L689.9,309 M690,322.5c2.5,0,4.5-2,4.5-4.5s-2-4.5-4.5-4.5s-4.5,2-4.5,4.5
						S687.6,322.5,690,322.5 M689.9,308L689.9,308c-5.5,0.1-9.9,4.4-10,9.7c0,1.6,0.4,3.1,1.1,4.5l8.1,13.3c0.2,0.4,0.6,0.5,0.8,0.5
						s0.6,0,0.8-0.5l8.1-13.3c0.7-1.4,1.1-2.9,1.1-4.4c0-2.6-1.1-5.1-3-7C695.1,309,692.6,308,689.9,308L689.9,308z M690,321.5
						c-1.9,0-3.5-1.6-3.5-3.5s1.6-3.5,3.5-3.5s3.5,1.6,3.5,3.5S692,321.5,690,321.5L690,321.5z"/>
				</g>
			</g>
		</a>
	</g>
	<g id="SpotnameLGF" class="spotname">
		<text transform="matrix(1 0 0 1 1268.3137 331.4998)" class="st2 st10 st11">랜딩 카지노</text>
		<text transform="matrix(1 0 0 1 1229.0002 480.8098)" class="st2 st10 st12">환전소</text>
		<text transform="matrix(1 0 0 1 1181.0198 473.8098)" class="st2 st10 st12">영승</text>
		<text transform="matrix(1 0 0 1 1171.0198 488.2098)" class="st2 st10 st12">쥬얼리숍</text>
	</g>
	<g id="Portals">
		<line id="Stair.1.floorGfMa" class="st13" x1="1183" y1="334" x2="1190" y2="327"/>

		<line id="Stair.3.floorGfMa" class="st13" x1="586" y1="334" x2="593" y2="327"/>
		<line id="Elev.3.floorGfMa" class="st13" x1="642" y1="350" x2="649" y2="343"/>
	</g>
	<g id="Doors">
		<line id="lobbymalgf" class="st14" x1="1174" y1="245" x2="1181" y2="238"/>
		<line id="lobbymalgf2" class="st15" x1="676" y1="341" x2="683" y2="334"/>
		<line id="malgf101" class="st14" x1="1255" y1="327" x2="1262" y2="320"/>
		<line id="malgf102" class="st14" x1="1185" y1="471" x2="1192" y2="464"/>
		<line id="malgf103" class="st14" x1="1237" y1="471" x2="1244" y2="464"/>
	</g>
	<g id="Paths">
		<line class="st15" x1="1190" y1="327" x2="1220" y2="327"/>
		<line class="st15" x1="1174" y1="245" x2="1189" y2="261"/>
		<line class="st15" x1="1189" y1="261" x2="1220" y2="261"/>
		<line class="st15" x1="1192" y1="446" x2="1220" y2="446"/>
		<line class="st15" x1="1220" y1="446" x2="1244" y2="446"/>
		<line class="st15" x1="1220" y1="261" x2="1220" y2="327"/>
		<line class="st15" x1="1220" y1="327" x2="1220" y2="446"/>
		<line class="st15" x1="1220" y1="327" x2="1255" y2="327"/>
		<line class="st15" x1="1192" y1="464" x2="1192" y2="446"/>
		<line class="st15" x1="1244" y1="464" x2="1244" y2="446"/>
		<line class="st15" x1="570" y1="334" x2="586" y2="334"/>
		<line class="st15" x1="642" y1="360" x2="642" y2="350"/>
		<line class="st15" x1="570" y1="307" x2="661" y2="307"/>
		<line class="st15" x1="570" y1="334" x2="570" y2="307"/>
		<line class="st15" x1="570" y1="360" x2="570" y2="334"/>
		<line class="st15" x1="661" y1="307" x2="714" y2="300"/>
		<line class="st15" x1="661" y1="360" x2="713" y2="368"/>
		<line class="st15" x1="700" y1="334" x2="713" y2="368"/>
		<line class="st15" x1="683" y1="334" x2="700" y2="334"/>
		<line class="st15" x1="714" y1="300" x2="700" y2="334"/>
		<line class="st15" x1="570" y1="360" x2="642" y2="360"/>
		<line class="st15" x1="642" y1="360" x2="661" y2="360"/>
	</g>
</g>
</svg>
