<?xml version="1.0" encoding="utf-8"?>
<!-- Generator: Adobe Illustrator 23.0.0, SVG Export Plug-In . SVG Version: 6.00 Build 0)  -->
<svg version="1.1" xmlns="http://www.w3.org/2000/svg" xmlns:xlink="http://www.w3.org/1999/xlink" x="0px" y="0px"
	 viewBox="0 0 1400 730" style="enable-background:new 0 0 1400 730;" xml:space="preserve" width="1400px" height="730px" id="smsF3">
<style type="text/css">
	#smsF3 .st0{fill:#CBD5DD;}
	#smsF3 .st1{fill:#EAEAEA;}
	#smsF3 .st2{fill:#A5855B;}
	#smsF3 .st3{fill:none;stroke:#A5855B;stroke-width:2;stroke-linejoin:round;stroke-miterlimit:10;}
	#smsF3 .st4{fill:#FFFFFF;}
	#smsF3 .st5{fill-rule:evenodd;clip-rule:evenodd;fill:#A5855B;}
	#smsF3 .st6{font-family:'NotoSans';}
	#smsF3 .st7{font-size:12px;}
	#smsF3 .st8{fill:none;stroke:#FF00FF;}
	#smsF3 .st9{fill:none;stroke:#00FF00;}
	#smsF3 .st10{fill:none;stroke:#EF405C;}
</style>
<rect id="BGColor" class="st0" width="1400" height="730"/>
<g id="Base_smsF3">
	<g>
		<path class="st1" d="M661.8,630.5c-1.3,0-2.5-0.5-3.5-1.4L368.1,338.8c-1.9-1.9-1.9-5,0-6.9l126.5-126.5c0.9-0.9,2.1-1.4,3.5-1.4
			s2.5,0.5,3.5,1.4l81.2,81.2c1,1,2.3,1.5,3.7,1.5s2.7-0.5,3.7-1.5l2.7-2.7c1-1,1.5-2.3,1.5-3.7c0-1.4-0.5-2.7-1.5-3.7l-2.2-2.2
			c-1.9-1.9-1.9-5.1,0-7.1l15.9-15.9c0.9-0.9,2.2-1.5,3.5-1.5s2.6,0.5,3.5,1.5l0.9,0.9c1.3,1.3,3.1,2,5,2s3.6-0.7,4.9-2l19.4-19.4
			c1-1,1.5-2.3,1.5-3.7V54c0-2.8,2.2-5,5-5h484.3c1.8,0,3.2,1.4,3.2,3.2v126c0,1.8-1.4,3.2-3.2,3.2H858.4c-2.9,0-5.2,2.3-5.2,5.2
			v128.5c0,0.8-0.3,1.7-0.9,2.3l-1.6,1.6c-2.7,2.7-2.7,7.2,0,9.9l4.8,4.8c0.9,0.9,1.5,2.2,1.5,3.5s-0.5,2.6-1.5,3.5L830,366.2
			c-0.9,0.9-2.2,1.5-3.5,1.5s-2.6-0.5-3.5-1.5l-4.8-4.8c-1.3-1.3-3.1-2.1-4.9-2.1c-1.9,0-3.6,0.7-5,2.1l-70.4,70.5
			c-1.3,1.3-2,3-2,4.9s0.7,3.6,2,4.9l54,54c1.9,1.9,1.9,5,0,6.9L665.3,629.1C664.3,630,663.1,630.5,661.8,630.5z"/>
		<path class="st2" d="M1134.5,50c1.2,0,2.2,1,2.2,2.2v126c0,1.2-1,2.2-2.2,2.2H858.4c-3.4,0-6.2,2.8-6.2,6.2v128.5
			c0,0.6-0.2,1.1-0.6,1.6l-1.6,1.6c-3.1,3.1-3.1,8.2,0,11.3l4.8,4.8c1.6,1.6,1.6,4.1,0,5.7l-25.5,25.5c-0.8,0.8-1.8,1.2-2.8,1.2
			c-1.1,0-2.1-0.4-2.8-1.2l-4.8-4.8c-1.5-1.5-3.5-2.3-5.7-2.3c-2.1,0-4.1,0.8-5.7,2.3L737,431.2c-1.5,1.5-2.3,3.5-2.3,5.6
			s0.8,4.1,2.3,5.6l54,54c0.7,0.7,1.1,1.7,1.1,2.7s-0.4,2-1.1,2.7L664.6,628.3c-0.7,0.7-1.7,1.1-2.7,1.1s-2-0.4-2.7-1.1L368.8,338.1
			c-1.5-1.5-1.5-4,0-5.5l126.5-126.5c0.7-0.7,1.7-1.1,2.7-1.1s2,0.4,2.7,1.1l81.2,81.2c1.2,1.2,2.7,1.8,4.4,1.8s3.2-0.6,4.4-1.8
			l2.7-2.7c1.2-1.2,1.8-2.7,1.8-4.4c0-1.7-0.6-3.2-1.8-4.4l-2.2-2.2c-0.8-0.8-1.2-1.8-1.2-2.8c0-1.1,0.4-2.1,1.2-2.8l15.9-15.9
			c0.8-0.8,1.8-1.2,2.8-1.2s2.1,0.4,2.8,1.2l0.9,0.9c1.5,1.5,3.5,2.3,5.7,2.3c2.1,0,4.1-0.8,5.7-2.3l19.4-19.4
			c1.2-1.2,1.8-2.7,1.8-4.4V54c0-2.2,1.8-4,4-4H1134.5 M1134.5,48H650.2c-3.3,0-6,2.7-6,6v175.3c0,1.1-0.4,2.2-1.2,3l-19.4,19.4
			c-1.2,1.2-2.7,1.8-4.2,1.8s-3.1-0.6-4.2-1.8l-0.9-0.9c-1.2-1.2-2.7-1.8-4.2-1.8s-3.1,0.6-4.2,1.8L590,266.7
			c-2.3,2.3-2.3,6.1,0,8.5l2.2,2.2c1.6,1.6,1.6,4.3,0,5.9l-2.7,2.7c-0.8,0.8-1.9,1.2-3,1.2s-2.1-0.4-3-1.2l-81.2-81.2
			c-1.1-1.1-2.7-1.7-4.2-1.7s-3,0.6-4.2,1.7L367.4,331.2c-2.3,2.3-2.3,6,0,8.3l290.3,290.3c1.1,1.1,2.7,1.7,4.2,1.7s3-0.6,4.2-1.7
			l126.5-126.5c2.3-2.3,2.3-6,0-8.3l-54-54c-2.3-2.3-2.3-6,0-8.3l70.4-70.5c1.2-1.2,2.7-1.8,4.2-1.8s3.1,0.6,4.2,1.8l4.8,4.8
			c1.2,1.2,2.7,1.8,4.2,1.8s3.1-0.6,4.2-1.8l25.5-25.5c2.3-2.3,2.3-6.1,0-8.5l-4.8-4.8c-2.3-2.3-2.3-6.1,0-8.5l1.6-1.6
			c0.8-0.8,1.2-1.9,1.2-3V186.6c0-2.3,1.9-4.2,4.2-4.2h276.1c2.3,0,4.2-1.9,4.2-4.2v-126C1138.7,49.9,1136.8,48,1134.5,48L1134.5,48
			z"/>
	</g>
	<g>
		<path class="st1" d="M661.6,630.2c-1.3,0-2.6-0.5-3.5-1.5L368.2,338.8c-1.9-1.9-1.9-5.1,0-7.1l126.1-126.1
			c0.9-0.9,2.2-1.5,3.5-1.5l0,0c1.3,0,2.6,0.5,3.5,1.5l289.9,289.9c1.9,1.9,1.9,5.1,0,7.1l-126,126.2
			C664.2,629.7,663,630.2,661.6,630.2z"/>
		<path class="st2" d="M497.8,205.2c1.1,0,2.1,0.4,2.8,1.2l289.9,289.9c1.6,1.6,1.6,4.1,0,5.7l-126,126c-0.8,0.8-1.8,1.2-2.8,1.2
			c-1.1,0-2.1-0.4-2.8-1.2l-290-289.9c-0.8-0.8-1.2-1.8-1.2-2.8c0-1.1,0.4-2.1,1.2-2.8L495,206.3
			C495.8,205.6,496.8,205.2,497.8,205.2 M497.8,203.2c-1.5,0-3.1,0.6-4.2,1.8L367.5,331.1c-2.3,2.3-2.3,6.1,0,8.5l289.9,289.9
			c1.2,1.2,2.7,1.8,4.2,1.8s3.1-0.6,4.2-1.8L792,503.3c2.3-2.3,2.3-6.1,0-8.5L502.1,204.9C500.9,203.8,499.4,203.2,497.8,203.2
			L497.8,203.2z"/>
	</g>
	<g>
		<path class="st1" d="M539.3,423.2c-1.3,0-2.6-0.5-3.5-1.5l-41-41c-1.2-1.2-1.3-3-0.2-4.3c5-6.2,14.7-22.8-4.4-41.9
			c-8.5-8.5-17.7-12.8-27.2-12.8c-15.9,0-27.2,11.9-28,12.8c-1.1,1-20.3,19.5,1.3,44.9c1.7,1.9,1.5,4.9-0.3,6.7l-10.3,10.3
			L368.3,339c-1.9-1.9-1.9-5.1,0-7.1l64.4-64.4l128.7,128.7c1.9,2,1.9,5.1,0,7.1l-18.5,18.5C541.9,422.7,540.7,423.2,539.3,423.2z"
			/>
		<path class="st2" d="M432.7,268.9l128,128c1.6,1.6,1.6,4.1,0,5.7L542.2,421c-0.8,0.8-1.8,1.2-2.8,1.2s-2.1-0.4-2.8-1.2l-41-41
			c-0.8-0.8-0.9-2.1-0.1-2.9c5.2-6.5,15.2-23.6-4.5-43.3c-8.7-8.7-18.1-13.1-27.9-13.1c-16.1,0-27.6,11.9-28.7,13.1
			c-0.7,0.7-5.6,5.4-8,13c-4.2,13.6,2.7,25.6,9.2,33.2c1.3,1.6,1.2,3.9-0.2,5.4l-9.5,9.5L369,338.2c-0.8-0.8-1.2-1.8-1.2-2.8
			s0.4-2.1,1.2-2.8L432.7,268.9 M432.7,266l-65.1,65.1c-2.3,2.3-2.3,6.1,0,8.5l58.1,58.1l11-11c2.2-2.2,2.4-5.7,0.4-8.1
			c-21.7-25.5-1.3-43.5-1.3-43.5s11.4-12.5,27.3-12.5c8,0,17.1,3.1,26.5,12.5c18.4,18.4,9.3,34.4,4.3,40.6c-1.4,1.7-1.2,4.1,0.3,5.6
			l41,41c1.2,1.2,2.7,1.8,4.2,1.8s3.1-0.6,4.2-1.8l18.5-18.5c2.3-2.3,2.3-6.1,0-8.5L432.7,266L432.7,266z"/>
	</g>
	<g>
		<path class="st1" d="M467.8,322.1c-1.7-0.2-3.4-0.4-5.1-0.4c-1.9,0-3.3,0.2-4.1,0.3c-5.9-6.7-16.2-11.4-30.7-14
			c-0.4-0.1-0.7-0.1-0.9-0.2c-2.7-0.5-6.4-3.1-6.5-3.1c-4.6-3.5-6.8-7-6.4-10.4c0.7-6.1,9.4-10.1,9.5-10.1s3.2-1.5,7.9-1.5
			c5.3,0,13.4,1.9,21.6,11.1C465,307,467.4,318.4,467.8,322.1z"/>
		<path class="st2" d="M431.5,281.7v2c5.1,0,12.9,1.9,20.8,10.7c10.6,11.8,13.5,22.1,14.3,26.5c-1.3-0.1-2.6-0.2-4-0.2
			c-1.6,0-2.8,0.1-3.7,0.2c-6.1-6.7-16.5-11.3-30.9-13.9c-0.4-0.1-0.7-0.1-0.9-0.2c-2.1-0.4-5-2.2-6.1-2.9c-4.3-3.3-6.4-6.5-6-9.5
			c0.5-4.6,6.6-8.3,8.9-9.4c0,0,0,0,0.1,0c0,0,3-1.4,7.4-1.4v-1.9 M431.5,281.7c-5,0-8.3,1.6-8.3,1.6s-20.5,9.2-3.3,22.3
			c0,0,3.9,2.7,6.8,3.3S448.8,312,458,323c0,0,1.8-0.4,4.6-0.4c1.7,0,3.7,0,6.1,0.5c0,0-0.1-13.2-14.9-29.8
			C445.5,283.8,437.3,281.7,431.5,281.7L431.5,281.7z"/>
	</g>
	<g>
		<path class="st1" d="M426,353.2c-4.4-4-7.2-4.9-10.2-4.9c-1,0-2,0.1-3,0.2c-0.9,0.1-1.8,0.2-2.8,0.2c-0.2,0-0.3,0-0.5,0
			c-3.9,0-16.1-1.7-21.5-9c-2.8-3.8-3.3-8.7-1.5-14.5c4.7-14.9,13.8-17.2,18.9-17.2c4.1,0,8.2,1.5,10.7,3.8c6.5,5.9,9,14.7,8.2,20.3
			c-0.8,5.5,2.9,9.5,4.5,11C426.9,346.8,426.2,350.8,426,353.2z"/>
		<path class="st2" d="M405.4,309.1c4.6,0,8.2,1.8,10.1,3.6c6.2,5.7,8.7,14.1,7.9,19.4c-0.8,5.3,2.4,9.4,4.2,11.3
			c-1.3,2.7-2,5.6-2.3,7.9c-3.8-3.2-6.6-3.9-9.4-3.9c-1,0-2,0.1-3.1,0.2c-0.9,0.1-1.8,0.2-2.8,0.2c-0.1,0-0.3,0-0.5,0
			c-3.7,0-15.5-1.6-20.7-8.6c-2.6-3.6-3.1-8.2-1.4-13.6C391.9,311.3,400.6,309.1,405.4,309.1 M405.4,307.1
			c-7.3,0-15.6,4.4-19.8,17.9c-6.5,20.7,17.4,24.8,24,24.8c0.2,0,0.4,0,0.5,0c2.3-0.1,4.1-0.4,5.8-0.4c3.1,0,6,1,11.1,6.2
			c0,0-0.2-6.9,3.1-12.6c0,0-5.7-4.4-4.7-10.6s-2-15.2-8.5-21.1C414.3,308.9,410.1,307.1,405.4,307.1L405.4,307.1z"/>
	</g>
	<g>
		<path class="st1" d="M640.4,498c-0.9-0.9-1.5-2.2-1.5-3.5s0.5-2.6,1.5-3.5l32.3-32.3l28.6,28.6l-35.8,35.8L640.4,498z"/>
		<path class="st2" d="M672.7,460.1l27.2,27.2l-34.4,34.4l-24.3-24.3c-1.6-1.6-1.6-4.1,0-5.7L672.7,460.1 M672.7,457.3l-33,33
			c-2.3,2.3-2.3,6.1,0,8.5l25.7,25.7l37.2-37.2L672.7,457.3L672.7,457.3z"/>
	</g>
	<g>
		<path class="st1" d="M665.5,523.1l76.7-76.7l49.1,49.1c1.9,1.9,1.9,5.1,0,7.1l-73.1,73.1L665.5,523.1z"/>
		<path class="st2" d="M742.2,447.9l48.4,48.4c0.8,0.8,1.2,1.8,1.2,2.8c0,1.1-0.4,2.1-1.2,2.8l-72.4,72.4L667,523.1L742.2,447.9
			 M742.2,445l-78.1,78.1l54.1,54.1l73.8-73.8c2.3-2.3,2.3-6.1,0-8.5L742.2,445L742.2,445z"/>
	</g>
	<g>
		<g>
			<path class="st1" d="M592.4,424c-1.9-2-1.9-5.1,0-7.1l15.8-15.8c0.9-0.9,2.2-1.5,3.5-1.5s2.6,0.5,3.5,1.5l57.4,57.4l-22.8,22.8
				L592.4,424z"/>
			<path class="st2" d="M611.7,400.7c1.1,0,2.1,0.4,2.8,1.2l56.7,56.7L649.9,480l-56.7-56.7c-1.6-1.6-1.6-4.1,0-5.7l15.8-15.8
				C609.7,401.1,610.7,400.7,611.7,400.7 M611.7,398.7c-1.5,0-3.1,0.6-4.2,1.8l-15.8,15.8c-2.3,2.3-2.3,6.1,0,8.5l58.1,58.1
				l24.2-24.2l-58-58.2C614.8,399.3,613.3,398.7,611.7,398.7L611.7,398.7z"/>
		</g>
		<line class="st3" x1="636.1" y1="420.6" x2="611.8" y2="444.8"/>
		<line class="st3" x1="648.9" y1="433.4" x2="624.6" y2="457.6"/>
	</g>
	<g>
		<path class="st1" d="M531.5,398.1c-3.6,0-7.5-3.4-7.6-3.5c-5.4-4.1-9.7-10.1-13.2-14.9c-2.2-3.1-3.9-5.5-5.4-6.5
			c-1.6-1.2-4.7-3.1-6.2-4c0.6-1.3,1.1-2.8,1.4-4c4.8,4.9,12.7,8.7,13,8.8c18.2,10,21.9,16.2,22.4,19c0.2,1.3,0,2.4-0.9,3.4
			C534.1,397.5,532.9,398.1,531.5,398.1L531.5,398.1z"/>
		<path class="st2" d="M501,367c4.8,4.3,11.3,7.5,12.1,7.9c18.6,10.1,21.5,16.2,21.9,18.3c0.2,1,0,1.8-0.7,2.6
			c-0.8,0.9-1.7,1.3-2.8,1.3c-2.7,0-5.9-2.3-6.9-3.2l-0.1-0.1c-5.2-4-9.5-9.9-12.9-14.7c-2.3-3.2-4-5.6-5.6-6.7
			c-1.4-1.1-3.9-2.6-5.6-3.6C500.6,368.2,500.8,367.6,501,367 M500,363.1c0,0-0.8,4.2-2.2,6.5c0,0,4.8,2.8,7,4.4
			c3.4,2.5,9.7,14.7,18.5,21.4c0,0,4.2,3.7,8.2,3.7c1.6,0,3.1-0.5,4.4-2.1c4.4-5.2-3.4-13.9-21.8-23.9
			C514,373.1,504.4,368.6,500,363.1L500,363.1z"/>
	</g>
	<g>
		<g>
			<g>
				<path class="st1" d="M827,251.5c-0.6,0-0.9-0.4-0.9-0.5s0.3-0.5,0.9-0.5l15.4-1.2c0.5,0,0.7,0.3,0.7,0.7v2.1
					c0,0.3-0.1,0.4-0.2,0.5c-0.1,0.1-0.3,0.2-0.5,0.2L827,251.5z"/>
				<path class="st2" d="M842.4,250.2L842.4,250.2L842.4,250.2 M842.1,250.2v1.4l-9.1-0.7L842.1,250.2 M842.4,248.2L842.4,248.2
					l-15.5,1.2c-1,0.1-1.8,0.8-1.8,1.5c0,0.8,0.8,1.4,1.8,1.5l15.4,1.2h0.1c0.9,0,1.7-0.7,1.7-1.7v-2.1
					C844.1,248.9,843.4,248.2,842.4,248.2L842.4,248.2z"/>
			</g>
			<g>
				<path class="st1" d="M815.6,280.2c-0.2,0-0.4-0.1-0.5-0.2s-0.2-0.3-0.2-0.5l1.5-18.8c0-0.5,0.4-0.9,0.8-0.9s0.7,0.4,0.8,0.9
					l1.5,18.8c0,0.2,0,0.4-0.2,0.5c-0.1,0.1-0.3,0.2-0.5,0.2H815.6z"/>
				<path class="st2" d="M817.4,260.7L817.4,260.7L817.4,260.7 M817.2,263.7l1.2,15.6H816L817.2,263.7 M817.2,258.8
					c-0.9,0-1.7,0.8-1.8,1.8l-1.5,18.8c-0.1,1,0.7,1.8,1.7,1.8h3.1c1,0,1.8-0.8,1.7-1.8l-1.5-18.8
					C818.9,259.6,818.1,258.8,817.2,258.8L817.2,258.8z"/>
			</g>
			<g>
				<path class="st1" d="M823.7,244.7c-0.1,0-0.2,0-0.2,0c-0.1-0.1-0.1-0.5,0.3-1l9.8-11.5c0.1-0.2,0.3-0.3,0.5-0.3
					c0.1,0,0.3,0,0.5,0.2l1.4,1.4c0.1,0.1,0.2,0.3,0.2,0.5s-0.1,0.4-0.3,0.5l-11.5,9.8C824.2,244.6,823.9,244.7,823.7,244.7z"/>
				<path class="st2" d="M834.3,232.8L834.3,232.8L834.3,232.8 M834.1,233.1l0.9,0.9l-6.4,5.5L834.1,233.1 M834.1,230.9
					c-0.5,0-0.9,0.2-1.3,0.6L823,243c-0.7,0.8-0.8,1.8-0.2,2.3c0.2,0.2,0.5,0.3,0.9,0.3c0.5,0,1-0.2,1.4-0.6l11.5-9.8
					c0.8-0.7,0.8-1.8,0.1-2.5l-1.4-1.4C834.9,231.1,834.5,230.9,834.1,230.9L834.1,230.9z"/>
			</g>
			<g>
				<path class="st1" d="M835.5,271.9c-0.2,0-0.4-0.1-0.5-0.3l-11.3-13.3c-0.3-0.4-0.4-0.9-0.2-1.1c0.1-0.1,0.2-0.1,0.4-0.1
					c0.3,0,0.5,0.1,0.7,0.3l13.3,11.3c0.2,0.1,0.2,0.3,0.3,0.5c0,0.2-0.1,0.4-0.2,0.5l-1.9,1.9C835.8,271.8,835.6,271.9,835.5,271.9
					z"/>
				<path class="st2" d="M827.1,260.8l9.9,8.4l-1.4,1.4L827.1,260.8 M823.8,256.1c-0.4,0-0.8,0.1-1.1,0.4c-0.6,0.6-0.5,1.7,0.1,2.5
					l11.3,13.3c0.3,0.4,0.8,0.6,1.3,0.6c0.4,0,0.9-0.2,1.2-0.5l1.9-1.9c0.7-0.7,0.7-1.8-0.1-2.5l-13.3-11.3
					C824.8,256.3,824.3,256.1,823.8,256.1L823.8,256.1z"/>
			</g>
			<g>
				<path class="st1" d="M797,274.4c-0.1,0-0.3,0-0.5-0.2l-2.6-2.6c-0.1-0.1-0.2-0.3-0.2-0.5s0.1-0.4,0.3-0.5l15.7-13.4
					c0.2-0.2,0.4-0.2,0.7-0.2c0.2,0,0.5,0.1,0.6,0.2c0.3,0.3,0.3,0.9,0,1.3l-13.4,15.7C797.4,274.4,797.2,274.4,797,274.4L797,274.4
					z"/>
				<path class="st2" d="M809.4,258.8L797,273.3l-2.1-2.1L809.4,258.8 M810.3,256c-0.5,0-0.9,0.2-1.3,0.5l-15.7,13.4
					c-0.8,0.7-0.8,1.8-0.1,2.5l2.6,2.6c0.3,0.3,0.8,0.5,1.2,0.5c0.5,0,0.9-0.2,1.3-0.6l13.4-15.7c0.7-0.8,0.6-1.9-0.1-2.6
					C811.3,256.1,810.8,256,810.3,256L810.3,256z"/>
			</g>
			<g>
				<path class="st1" d="M820.6,242.7c-0.1,0-0.3-0.5-0.1-1l4.6-14c0.1-0.3,0.3-0.5,0.6-0.5c0.1,0,0.2,0,0.3,0.1l1.7,0.7
					c0.2,0.1,0.3,0.2,0.4,0.4c0.1,0.2,0,0.4,0,0.6l-6.7,13.1C821.2,242.5,820.8,242.7,820.6,242.7L820.6,242.7z"/>
				<path class="st2" d="M826,228L826,228L826,228 M825.9,228.3l1.1,0.5l-3.5,6.9L825.9,228.3 M825.7,226.2c-0.7,0-1.3,0.4-1.6,1.2
					l-4.6,14c-0.3,1,0,2,0.7,2.3c0.1,0.1,0.3,0.1,0.4,0.1c0.6,0,1.3-0.5,1.7-1.2l6.7-13.1c0.5-0.9,0.1-1.9-0.9-2.3l-1.7-0.7
					C826.2,226.3,826,226.2,825.7,226.2L825.7,226.2z"/>
			</g>
			<g>
				<path class="st1" d="M840.9,262.8c-0.1,0-0.2,0-0.3-0.1l-14.6-7.5c-0.5-0.2-0.7-0.7-0.6-0.9c0.1-0.1,0.3-0.3,0.7-0.3
					c0.1,0,0.3,0,0.4,0.1l15.6,5.1c0.2,0.1,0.3,0.2,0.4,0.4c0.1,0.2,0.1,0.4,0,0.6l-0.9,2.2C841.4,262.6,841.2,262.8,840.9,262.8
					L840.9,262.8z"/>
				<path class="st2" d="M831,256.7l10.4,3.4l-0.7,1.6L831,256.7 M826,253.1c-0.7,0-1.3,0.3-1.6,0.9c-0.3,0.7,0.2,1.7,1.1,2.2
					l14.6,7.5c0.3,0.1,0.5,0.2,0.8,0.2c0.7,0,1.3-0.4,1.5-1.1l0.9-2.2c0.4-0.9-0.1-1.9-1-2.3l-15.6-5.1
					C826.5,253.1,826.3,253.1,826,253.1L826,253.1z"/>
			</g>
			<g>
				<path class="st1" d="M807.4,279.7c-0.1,0-0.2,0-0.3-0.1l-3.2-1.3c-0.2-0.1-0.3-0.2-0.4-0.4s0-0.4,0-0.6l9.1-17.7
					c0.2-0.3,0.5-0.6,0.9-0.6c0.1,0,0.2,0,0.3,0c0.4,0.2,0.6,0.7,0.4,1.2l-6.2,18.9C808,279.5,807.7,279.7,807.4,279.7L807.4,279.7z
					"/>
				<path class="st2" d="M813.6,260.1L813.6,260.1L813.6,260.1 M812.6,261.9l-5.4,16.7l-2.6-1.1L812.6,261.9 M813.5,258.1
					c-0.7,0-1.4,0.4-1.8,1.1l-9.1,17.7c-0.5,0.9-0.1,1.9,0.9,2.3l3.2,1.3c0.2,0.1,0.5,0.1,0.7,0.1c0.7,0,1.3-0.4,1.6-1.2l6.2-18.9
					c0.3-1-0.1-2-1-2.4C814,258.1,813.7,258.1,813.5,258.1L813.5,258.1z"/>
			</g>
			<g>
				<path class="st1" d="M826,247.7c-0.4,0-0.6-0.1-0.6-0.2c0-0.1,0.1-0.6,0.6-0.8l13.6-6.9c0.1-0.1,0.2-0.1,0.3-0.1
					c0.3,0,0.5,0.2,0.6,0.4l0.8,1.9c0.1,0.2,0.1,0.4,0,0.6c-0.1,0.2-0.2,0.3-0.4,0.4l-14.6,4.7C826.3,247.7,826.1,247.7,826,247.7
					L826,247.7z"/>
				<path class="st2" d="M840.1,240.7L840.1,240.7L840.1,240.7 M839.8,240.8l0.5,1.3l-8.4,2.7L839.8,240.8 M840,238.7
					c-0.3,0-0.5,0.1-0.8,0.2l-13.6,6.9c-0.9,0.5-1.4,1.4-1.1,2.1c0.2,0.5,0.8,0.8,1.5,0.8c0.2,0,0.5,0,0.8-0.1l14.6-4.7
					c1-0.3,1.4-1.3,1-2.3l-0.8-1.9C841.3,239.1,840.7,238.7,840,238.7L840,238.7z"/>
			</g>
			<g>
				<path class="st1" d="M826.5,278.2c-0.3,0-0.5-0.2-0.6-0.5l-5.6-17.5c-0.2-0.5,0-1,0.3-1.1c0.1,0,0.1,0,0.2,0
					c0.3,0,0.6,0.2,0.8,0.6l8.3,16.4c0.1,0.2,0.1,0.4,0,0.6s-0.2,0.3-0.4,0.4l-2.8,1.1C826.7,278.2,826.6,278.2,826.5,278.2z"/>
				<path class="st2" d="M821.2,259.9L821.2,259.9L821.2,259.9 M822.2,263.1l6.7,13.1l-2.1,0.9L822.2,263.1 M820.8,258.1
					c-0.2,0-0.4,0-0.6,0.1c-0.8,0.3-1.2,1.4-0.9,2.3l5.6,17.5c0.2,0.7,0.9,1.2,1.6,1.2c0.2,0,0.4,0,0.7-0.1l2.8-1.1
					c0.9-0.4,1.3-1.4,0.9-2.3l-8.3-16.4C822.1,258.5,821.4,258.1,820.8,258.1L820.8,258.1z"/>
			</g>
			<g>
				<path class="st1" d="M789.2,265.2c-0.3,0-0.5-0.2-0.6-0.4l-1.5-3.6c-0.1-0.2-0.1-0.4,0-0.6s0.2-0.3,0.4-0.4l20-6.4
					c0.1,0,0.2-0.1,0.3-0.2c0.1,0,0.2,0,0.3,0c0.4,0,0.8,0.2,0.9,0.6c0.2,0.4,0,1-0.5,1.2l-19,9.6
					C789.4,265.2,789.3,265.2,789.2,265.2L789.2,265.2z M785.8,253.6c-0.5,0-0.7-0.3-0.7-0.7v-4c0-0.4,0.3-0.7,0.7-0.7l21.2,1.7h0.1
					c0.1,0,0.3,0,0.4-0.1c0.1,0.1,0.2,0.2,0.3,0.2c0.3,0.2,0.6,0.5,0.6,0.9s-0.3,0.7-0.6,0.9c-0.1,0-0.2,0.1-0.2,0.1
					c-0.1,0-0.2,0-0.3,0h-0.1C807.1,251.9,785.8,253.6,785.8,253.6z M807.8,248.2c-0.1-0.1-0.3-0.2-0.4-0.3l-20.8-6.8
					c-0.2-0.1-0.3-0.2-0.4-0.4c-0.1-0.2-0.1-0.4,0-0.6l1.6-3.9c0.1-0.3,0.3-0.4,0.6-0.4c0.1,0,0.2,0,0.3,0.1l18.8,9.6
					c0.1,0.1,0.3,0.1,0.5,0.1c0.3,0,0.6-0.2,0.8-0.4c0.3-0.4,0.2-1-0.2-1.3l-17-14.5c-0.2-0.1-0.2-0.3-0.3-0.5
					c0-0.2,0.1-0.4,0.2-0.5l3.2-3.2c0.2-0.2,0.4-0.2,0.5-0.2c0.2,0,0.4,0.1,0.5,0.3l14.3,16.8c0.2,0.2,0.5,0.4,0.8,0.4
					c0.2,0,0.4-0.1,0.6-0.2c0.4-0.3,0.6-0.8,0.3-1.3l-10-19.8c-0.1-0.2-0.1-0.4,0-0.6c0.1-0.2,0.2-0.3,0.4-0.4l4.2-1.7
					c0.1,0,0.2-0.1,0.3-0.1c0.3,0,0.5,0.2,0.6,0.5l6.7,20.7c0.1,0.4,0.5,0.7,1,0.7c0.1,0,0.1,0,0.2,0c0.5-0.1,0.8-0.6,0.8-1.1
					l-1.8-22.4c0-0.2,0-0.4,0.2-0.5c0.1-0.1,0.3-0.2,0.5-0.2h4.8c0.2,0,0.4,0.1,0.5,0.2c0.1,0.1,0.2,0.3,0.2,0.5l-1.9,24.2
					c0,0.5-0.5,0.9-1,0.9H817c-0.3,0-0.6-0.1-0.8-0.4c-0.2-0.2-0.5-0.4-0.8-0.4c-0.1,0-0.1,0-0.2,0c-0.4,0.1-0.7,0.3-0.8,0.7
					c-0.1,0.3-0.3,0.6-0.6,0.7l-0.2,0.1c-0.1,0-0.2,0.1-0.3,0.1c-0.2,0-0.4-0.1-0.6-0.2c-0.2-0.1-0.3-0.2-0.5-0.2s-0.4,0.1-0.6,0.2
					c-0.3,0.2-0.5,0.6-0.4,1c0.1,0.3,0,0.7-0.3,0.9l-0.2,0.2c-0.2,0.2-0.4,0.3-0.7,0.3c-0.1,0-0.1,0-0.2,0c-0.1,0-0.1,0-0.2,0
					c-0.3,0-0.6,0.2-0.8,0.4c-0.2,0.3-0.2,0.8,0,1.1s0.2,0.6,0.1,0.9c-0.2,0.4-0.5,0.7-0.9,0.7C808,248.2,807.9,248.2,807.8,248.2z"
					/>
				<path class="st2" d="M819.2,217.2l-1.9,23.8h-0.4c-0.1-0.2-0.3-0.3-0.5-0.4c0.3-0.4,0.4-0.8,0.4-1.3l-1.7-22.1H819.2
					 M806.7,219.5L806.7,219.5L806.7,219.5 M806.4,219.7l6.6,20.4c0.1,0.5,0.5,0.8,0.8,1.1c-0.1,0.2-0.2,0.4-0.3,0.6l-0.2,0.1
					c-0.1-0.1-0.3-0.1-0.4-0.2c0-0.3-0.1-0.7-0.2-1l-9.9-19.5L806.4,219.7 M795.5,226L795.5,226L795.5,226 M795.3,226.3l14.1,16.6
					c0.2,0.3,0.5,0.5,0.9,0.6c0,0.1,0,0.3,0,0.4l-0.2,0.2c-0.1,0-0.2,0-0.3,0c-0.1-0.3-0.3-0.5-0.5-0.7L792.5,229L795.3,226.3
					 M788.6,236.8L788.6,236.8L788.6,236.8 M788.5,237.1l18.5,9.5c0.3,0.1,0.6,0.2,0.9,0.2c0,0.1,0.1,0.2,0.2,0.3v0.1c0,0,0,0-0.1,0
					c-0.1-0.1-0.2-0.1-0.3-0.1l-20.5-6.7L788.5,237.1 M786.1,249.3l20.8,1.6c0.1,0,0.1,0,0.2,0l0,0l0,0l-20.9,1.7L786.1,249.3
					 M807.2,250.9L807.2,250.9L807.2,250.9L807.2,250.9L807.2,250.9 M807.5,254.9l-18.1,9.2l-1.2-3L807.5,254.9 M819.6,215.2h-4.8
					c-1,0-1.8,0.8-1.7,1.8l1.8,22.4l-6.7-20.7c-0.2-0.7-0.9-1.2-1.6-1.2c-0.2,0-0.4,0-0.7,0.1l-4.2,1.7c-0.9,0.4-1.3,1.4-0.9,2.3
					l10,19.8l-14.3-16.8c-0.3-0.4-0.8-0.6-1.3-0.6c-0.4,0-0.9,0.2-1.2,0.5l-3.2,3.2c-0.7,0.7-0.7,1.8,0.1,2.5l17,14.5l-18.8-9.6
					c-0.3-0.1-0.5-0.2-0.8-0.2c-0.7,0-1.3,0.4-1.5,1.1l-1.6,3.9c-0.4,0.9,0.1,1.9,1,2.3L807,249l-21.1-1.7h-0.1
					c-0.9,0-1.7,0.7-1.7,1.7v4c0,1,0.7,1.7,1.7,1.7h0.1l21.3-1.7l-20,6.4c-1,0.3-1.4,1.3-1,2.3l1.5,3.6c0.3,0.7,0.9,1.1,1.5,1.1
					c0.3,0,0.5-0.1,0.8-0.2l19-9.6c0.9-0.5,1.3-1.6,0.9-2.5c-0.3-0.7-1.1-1.2-1.8-1.2c0.7-0.3,1.2-1,1.2-1.8s-0.5-1.5-1.1-1.8
					c0.7,0,1.4-0.5,1.7-1.2V248c0.3-0.6,0.2-1.4-0.2-1.9c0.1,0,0.3,0,0.4,0c0.5,0,1-0.2,1.4-0.6l0.2-0.2c0.5-0.5,0.6-1.1,0.5-1.8
					c0.3,0.2,0.7,0.3,1.1,0.3c0.2,0,0.5,0,0.7-0.1l0.2-0.1c0.6-0.2,1-0.7,1.1-1.3c0.4,0.5,0.9,0.8,1.6,0.8h0.4c1,0,1.9-0.8,2-1.8
					l1.9-24.2C821.3,216,820.6,215.2,819.6,215.2L819.6,215.2z"/>
			</g>
		</g>
	</g>
</g>
<g id="Rooms">
	<a id="somer301" xlink:href="#" >
		<g>
			<path class="st1" d="M645.2,221V54c0-2.8,2.2-5,5-5h115v85.2c0,2.8-2.2,5-5,5H730c-2.8,0-5,2.2-5,5V216c0,2.8-2.2,5-5,5H645.2z"
				/>
			<path class="st2" d="M764.2,50v84.2c0,2.2-1.8,4-4,4H730c-3.3,0-6,2.7-6,6V216c0,2.2-1.8,4-4,4h-73.8V54c0-2.2,1.8-4,4-4H764.2
				 M766.2,48h-116c-3.3,0-6,2.7-6,6v168H720c3.3,0,6-2.7,6-6v-71.8c0-2.2,1.8-4,4-4h30.2c3.3,0,6-2.7,6-6V48L766.2,48z"/>
		</g>
	</a>
	<a id="somer302" xlink:href="#" >
		<g>
			<path class="st1" d="M565.1,398.2c-0.9,0-1.7-0.3-2.3-0.9L432.7,267.2l61.6-61.6c0.9-0.9,2.2-1.5,3.5-1.5s2.6,0.5,3.5,1.5
				l48.9,48.9l-36,36c-1.3,1.3-2.1,3.1-2.1,4.9s0.7,3.6,2.1,4.9l72.7,72.7c0.6,0.6,0.9,1.4,0.9,2.3s-0.3,1.7-0.9,2.3l-19.6,19.6
				C566.7,397.9,565.9,398.2,565.1,398.2z"/>
			<path class="st2" d="M497.8,205.2c1.1,0,2.1,0.4,2.8,1.2l48.2,48.2l-35.3,35.3c-1.5,1.5-2.3,3.5-2.3,5.7c0,2.1,0.8,4.1,2.3,5.7
				l72.7,72.7c0.9,0.9,0.9,2.3,0,3.1l-19.6,19.6c-0.4,0.4-1,0.6-1.6,0.6s-1.1-0.2-1.6-0.6L434.1,267.2l60.9-60.9
				C495.8,205.6,496.8,205.2,497.8,205.2 M497.8,203.2c-1.5,0-3.1,0.6-4.2,1.8l-62.3,62.3L562.1,398c0.8,0.8,1.9,1.2,3,1.2
				s2.1-0.4,3-1.2l19.6-19.6c1.6-1.6,1.6-4.3,0-5.9L515,299.7c-2.3-2.3-2.3-6.1,0-8.5l36.7-36.7l-49.6-49.6
				C500.9,203.8,499.4,203.2,497.8,203.2L497.8,203.2z"/>
		</g>
	</a>
	<a id="somer306" xlink:href="#" >
		<g>
			<path class="st1" d="M579.7,550.3l33.7-33.7c0.9-0.9,2.2-1.5,3.5-1.5s2.6,0.5,3.5,1.5l39,39c1.9,2,1.9,5.1,0,7.1l-33.7,33.7
				L579.7,550.3z"/>
			<path class="st2" d="M616.8,516.2c1.1,0,2.1,0.4,2.8,1.2l39,39c0.8,0.8,1.2,1.8,1.2,2.8c0,1.1-0.4,2.1-1.2,2.8l-33,33l-44.7-44.7
				l33-33C614.8,516.6,615.8,516.2,616.8,516.2 M616.8,514.2c-1.5,0-3.1,0.6-4.2,1.8l-34.4,34.4l47.5,47.5l34.4-34.4
				c2.3-2.3,2.3-6.1,0-8.5l-39-39C619.9,514.8,618.4,514.2,616.8,514.2L616.8,514.2z"/>
		</g>
	</a>
	<a id="somer305" xlink:href="#" >
		<g>
			<rect x="496" y="345" transform="matrix(0.7071 -0.7071 0.7071 0.7071 -166.4314 502.2)" class="st1" width="54" height="214"/>
		</g>
	</a>
	<g id="Elavator_10_">
		<g>
			<g>
				<path class="st4" d="M594.6,354.1c-1.3,0-2.6-0.5-3.5-1.5l-21.2-21.2c-1.9-1.9-1.9-5.1,0-7.1l21.2-21.2c0.9-0.9,2.2-1.5,3.5-1.5
					s2.6,0.5,3.5,1.5l21.2,21.2c1.9,1.9,1.9,5.1,0,7.1l-21.2,21.2C597.2,353.5,596,354.1,594.6,354.1z"/>
				<path class="st2" d="M594.6,302.6c1.1,0,2.1,0.4,2.8,1.2l21.2,21.2c0.8,0.8,1.2,1.8,1.2,2.8s-0.4,2.1-1.2,2.8l-21.2,21.2
					c-0.8,0.8-1.8,1.2-2.8,1.2s-2.1-0.4-2.8-1.2l-21.2-21.2c-0.8-0.8-1.2-1.8-1.2-2.8s0.4-2.1,1.2-2.8l21.2-21.2
					C592.5,303,593.6,302.6,594.6,302.6 M594.6,300.6c-1.5,0-3.1,0.6-4.2,1.8l-21.2,21.2c-2.3,2.3-2.3,6.1,0,8.5l21.2,21.2
					c1.2,1.2,2.7,1.8,4.2,1.8s3.1-0.6,4.2-1.8l21.2-21.2c2.3-2.3,2.3-6.1,0-8.5l-21.2-21.2C597.7,301.2,596.2,300.6,594.6,300.6
					L594.6,300.6z"/>
			</g>
		</g>
		
			<image style="overflow:visible;" width="76" height="76" id="elevator_x5F_off" xlink:href="./images/2x/toilet_off@2x.png" class="i_toilet" transform="matrix(0.3536 0.3536 -0.3536 0.3536 594.6 300.9799)">
		</image>
	</g>
	<g id="Exit_15_">
		<g>
			<path class="st4" d="M609.9,369.4c-1.3,0-2.6-0.5-3.5-1.5l-8.5-8.5c-1.9-1.9-1.9-5.1,0-7.1l21.2-21.2c0.9-0.9,2.2-1.5,3.5-1.5
				s2.6,0.5,3.5,1.5l8.5,8.5c1.9,1.9,1.9,5.1,0,7.1l-21.2,21.2C612.5,368.9,611.3,369.4,609.9,369.4z"/>
			<path class="st2" d="M622.7,330.7c1.1,0,2.1,0.4,2.8,1.2l8.5,8.5c0.8,0.8,1.2,1.8,1.2,2.8s-0.4,2.1-1.2,2.8l-21.2,21.2
				c-0.8,0.8-1.8,1.2-2.8,1.2s-2.1-0.4-2.8-1.2l-8.5-8.5c-1.6-1.6-1.6-4.1,0-5.7l21.2-21.2C620.6,331.1,621.6,330.7,622.7,330.7
				 M622.7,328.7c-1.5,0-3.1,0.6-4.2,1.8l-21.2,21.2c-2.3,2.3-2.3,6.1,0,8.5l8.5,8.5c1.2,1.2,2.7,1.8,4.2,1.8s3.1-0.6,4.2-1.8
				l21.2-21.2c2.3-2.3,2.3-6.1,0-8.5l-8.5-8.5C625.7,329.3,624.2,328.7,622.7,328.7L622.7,328.7z"/>
		</g>
		
			<image style="overflow:visible;" width="40" height="76" id="stairs_x5F_off" xlink:href="./images/2x/stairs_off@2x.png" class="i_stairs" transform="matrix(0.3536 0.3536 -0.3536 0.3536 622.714 328.9939)">
		</image>
	</g>
	<g id="Elavator_9_">
		<g>
			<g>
				<path class="st4" d="M690,602.1c-1.3,0-2.6-0.5-3.5-1.5l-21.2-21.2c-1.9-2-1.9-5.1,0-7.1l21.2-21.2c0.9-0.9,2.2-1.5,3.5-1.5
					s2.6,0.5,3.5,1.5l21.2,21.2c1.9,1.9,1.9,5.1,0,7.1l-21.2,21.2C692.6,601.6,691.3,602.1,690,602.1z"/>
				<path class="st2" d="M690,550.7c1.1,0,2.1,0.4,2.8,1.2l21.2,21.2c0.8,0.8,1.2,1.8,1.2,2.8s-0.4,2.1-1.2,2.8L692.8,600
					c-0.8,0.8-1.8,1.2-2.8,1.2c-1.1,0-2.1-0.4-2.8-1.2L666,578.7c-0.8-0.8-1.2-1.8-1.2-2.8s0.4-2.1,1.2-2.8l21.2-21.2
					C687.9,551.1,688.9,550.7,690,550.7 M690,548.7c-1.5,0-3.1,0.6-4.2,1.8l-21.2,21.2c-2.3,2.3-2.3,6.1,0,8.5l21.2,21.2
					c1.2,1.2,2.7,1.8,4.2,1.8s3.1-0.6,4.2-1.8l21.2-21.2c2.3-2.3,2.3-6.1,0-8.5l-21.2-21.2C693.1,549.3,691.5,548.7,690,548.7
					L690,548.7z"/>
			</g>
		</g>
	</g>
	
		<image style="overflow:visible;" width="76" height="76" id="elevator_x5F_off_2_" xlink:href="./images/2x/elevator_off@2x.png" class="i_elevator" transform="matrix(0.3536 0.3536 -0.3536 0.3536 690 549.08)">
	</image>
	<g id="Exit_16_">
		<g>
			<path class="st4" d="M661.8,630.5c-1.3,0-2.6-0.5-3.5-1.5l-8.5-8.5c-1.9-1.9-1.9-5.1,0-7.1l21.2-21.2c0.9-0.9,2.2-1.5,3.5-1.5
				s2.6,0.5,3.5,1.5l8.5,8.5c0.9,0.9,1.5,2.2,1.5,3.5s-0.5,2.6-1.5,3.5L665.3,629C664.4,630,663.1,630.5,661.8,630.5z"/>
			<path class="st2" d="M674.5,591.8c1.1,0,2.1,0.4,2.8,1.2l8.5,8.5c0.8,0.8,1.2,1.8,1.2,2.8s-0.4,2.1-1.2,2.8l-21.2,21.2
				c-0.8,0.8-1.8,1.2-2.8,1.2s-2.1-0.4-2.8-1.2l-8.5-8.5c-1.6-1.6-1.6-4.1,0-5.7l21.2-21.2C672.4,592.2,673.4,591.8,674.5,591.8
				 M674.5,589.8c-1.5,0-3.1,0.6-4.2,1.8l-21.2,21.2c-2.3,2.3-2.3,6.1,0,8.5l8.5,8.5c1.2,1.2,2.7,1.8,4.2,1.8s3.1-0.6,4.2-1.8
				l21.2-21.2c2.3-2.3,2.3-6.1,0-8.5l-8.5-8.5C677.6,590.4,676,589.8,674.5,589.8L674.5,589.8z"/>
		</g>
		
			<image style="overflow:visible;" width="40" height="76" id="stairs_x5F_off_2_" xlink:href="./images/2x/stairs_off@2x.png" class="i_stairs" transform="matrix(0.3536 0.3536 -0.3536 0.3536 674.5515 590.0939)">
		</image>
	</g>
	<a id="somer303" xlink:href="#" >
		<g>
			<path class="st4" d="M557.6,316c-1.3,0-2.6-0.5-3.5-1.5l-21.2-21.2c-1.9-1.9-1.9-5.1,0-7.1L554,265c0.9-0.9,2.2-1.5,3.5-1.5
				s2.6,0.5,3.5,1.5l21.2,21.2c0.9,0.9,1.5,2.2,1.5,3.5s-0.5,2.6-1.5,3.5L561,314.4C560.1,315.5,558.9,316,557.6,316z"/>
			<path class="st2" d="M557.6,264.6c1.1,0,2.1,0.4,2.8,1.2l21.2,21.2c0.8,0.8,1.2,1.8,1.2,2.8s-0.4,2.1-1.2,2.8l-21.2,21.2
				c-0.8,0.8-1.8,1.2-2.8,1.2s-2.1-0.4-2.8-1.2l-21.2-21.2c-0.8-0.8-1.2-1.8-1.2-2.8s0.4-2.1,1.2-2.8l21.2-21.2
				C555.5,265,556.5,264.6,557.6,264.6 M557.6,262.6c-1.5,0-3.1,0.6-4.2,1.8l-21.2,21.2c-2.3,2.3-2.3,6.1,0,8.5l21.2,21.2
				c1.2,1.2,2.7,1.8,4.2,1.8s3.1-0.6,4.2-1.8L583,294c2.3-2.3,2.3-6.1,0-8.5l-21.2-21.2C560.6,263.1,559.1,262.6,557.6,262.6
				L557.6,262.6z"/>
			<path id="SVGID_4_" class="st5" d="M561.5,285.8c1,1,2.5,0.9,3.5,0c1-1,1-2.5,0-3.5s-2.5-0.9-3.5,0
				C560.6,283.3,560.6,284.9,561.5,285.8 M563.8,283.5c0.3,0.3,0.3,0.8,0,1.2c-0.3,0.3-0.8,0.3-1.2,0c-0.3-0.3-0.3-0.8,0-1.2
				C563,283.2,563.5,283.2,563.8,283.5"/>
			<path id="SVGID_3_" class="st5" d="M562.1,287.5l-2.3-2.3c-1-1-2.5-0.9-3.5,0l-4.9,4.9l1.2,1.2l-4.2,4.2l1.2,1.2l5.4-5.4
				l-1.2-1.2l3.7-3.7c0.3-0.3,0.8-0.3,1.2,0l2.3,2.3c0.3,0.3,0.3,0.8,0,1.2l-3.7,3.7l-1.2-1.2l-5.4,5.4l1.2,1.2l4.2-4.2l1.2,1.2
				l4.9-4.9C563.1,290,563.1,288.5,562.1,287.5"/>
			<g>
				<path class="st5" d="M562.1,287.5l-2.3-2.3c-1-1-2.5-0.9-3.5,0l-4.9,4.9l1.2,1.2l-4.2,4.2l1.2,1.2l5.4-5.4l-1.2-1.2l3.7-3.7
					c0.3-0.3,0.8-0.3,1.2,0l2.3,2.3c0.3,0.3,0.3,0.8,0,1.2l-3.7,3.7l-1.2-1.2l-5.4,5.4l1.2,1.2l4.2-4.2l1.2,1.2l4.9-4.9
					C563.1,290,563.1,288.5,562.1,287.5"/>
			</g>
		</g>
	</a>
	<g id="Elavator_11_">
		<g>
			<g>
				<path class="st4" d="M668.6,427.1c-1.3,0-2.6-0.5-3.5-1.5l-21.2-21.2c-0.9-0.9-1.5-2.2-1.5-3.5s0.5-2.6,1.5-3.5l21.2-21.2
					c0.9-0.9,2.2-1.5,3.5-1.5s2.6,0.5,3.5,1.5l21.2,21.2c0.9,0.9,1.5,2.2,1.5,3.5s-0.5,2.6-1.5,3.5l-21.2,21.3
					C671.2,426.6,669.9,427.1,668.6,427.1z"/>
				<path class="st2" d="M668.6,375.8c1.1,0,2.1,0.4,2.8,1.2l21.2,21.2c0.8,0.8,1.2,1.8,1.2,2.8c0,1.1-0.4,2.1-1.2,2.8L671.4,425
					c-0.8,0.8-1.8,1.2-2.8,1.2c-1.1,0-2.1-0.4-2.8-1.2l-21.2-21.2c-0.8-0.8-1.2-1.8-1.2-2.8c0-1.1,0.4-2.1,1.2-2.8l21.2-21.2
					C666.5,376.1,667.5,375.8,668.6,375.8 M668.6,373.8c-1.5,0-3.1,0.6-4.2,1.8l-21.3,21.2c-2.3,2.3-2.3,6.1,0,8.5l21.2,21.2
					c1.2,1.2,2.7,1.8,4.2,1.8s3.1-0.6,4.2-1.8l21.2-21.2c2.3-2.3,2.3-6.1,0-8.5l-21.2-21.2C671.7,374.4,670.1,373.8,668.6,373.8
					L668.6,373.8z"/>
			</g>
		</g>
		
			<image style="overflow:visible;" width="76" height="76" id="elevator_x5F_off_1_" xlink:href="./images/2x/elevator_off@2x.png" class="i_elevator" transform="matrix(0.3536 0.3536 -0.3536 0.3536 668.5 374.0799)">
		</image>
	</g>
	<g id="Exit_17_">
		<g>
			<path class="st4" d="M640.1,398.8c-1.3,0-2.6-0.5-3.5-1.5l-8.5-8.5c-0.9-0.9-1.5-2.2-1.5-3.5s0.5-2.6,1.5-3.5l21.2-21.2
				c0.9-0.9,2.2-1.5,3.5-1.5s2.6,0.5,3.5,1.5l8.5,8.5c0.9,0.9,1.5,2.2,1.5,3.5s-0.5,2.6-1.5,3.5l-21.2,21.2
				C642.7,398.2,641.4,398.8,640.1,398.8z"/>
			<path class="st2" d="M652.8,360.1c1.1,0,2.1,0.4,2.8,1.2l8.5,8.5c1.6,1.6,1.6,4.1,0,5.7l-21.2,21.2c-0.8,0.8-1.8,1.2-2.8,1.2
				c-1.1,0-2.1-0.4-2.8-1.2l-8.5-8.5c-1.6-1.6-1.6-4.1,0-5.7l21.2-21.2C650.7,360.5,651.7,360.1,652.8,360.1 M652.8,358.1
				c-1.5,0-3.1,0.6-4.2,1.8l-21.2,21.2c-2.3,2.3-2.3,6.1,0,8.5l8.5,8.5c1.2,1.2,2.7,1.8,4.2,1.8s3.1-0.6,4.2-1.8l21.2-21.2
				c2.3-2.3,2.3-6.1,0-8.5l-8.5-8.5C655.9,358.7,654.3,358.1,652.8,358.1L652.8,358.1z"/>
		</g>
		
			<image style="overflow:visible;" width="40" height="76" id="stairs_x5F_off_1_" xlink:href="./images/2x/stairs_off@2x.png" class="i_stairs"  transform="matrix(0.3536 0.3536 -0.3536 0.3536 652.858 358.4439)">
		</image>
	</g>
	<a id="somer304" xlink:href="#" >
		<g>
			<path class="st4" d="M706.6,465.1c-1.3,0-2.6-0.5-3.5-1.5l-21.2-21.2c-0.9-0.9-1.5-2.2-1.5-3.5s0.5-2.6,1.5-3.5l21.2-21.2
				c0.9-0.9,2.2-1.5,3.5-1.5s2.6,0.5,3.5,1.5l21.2,21.2c1.9,2,1.9,5.1,0,7.1l-21.2,21.2C709.2,464.5,708,465.1,706.6,465.1z"/>
			<path class="st2" d="M706.6,413.6c1.1,0,2.1,0.4,2.8,1.2l21.2,21.2c0.8,0.8,1.2,1.8,1.2,2.8s-0.4,2.1-1.2,2.8l-21.2,21.2
				c-0.8,0.8-1.8,1.2-2.8,1.2s-2.1-0.4-2.8-1.2l-21.2-21.2c-0.8-0.8-1.2-1.8-1.2-2.8s0.4-2.1,1.2-2.8l21.2-21.2
				C704.6,414.1,705.6,413.6,706.6,413.6 M706.6,411.6c-1.5,0-3.1,0.6-4.2,1.8l-21.2,21.2c-2.3,2.3-2.3,6.1,0,8.5l21.2,21.2
				c1.2,1.2,2.7,1.8,4.2,1.8s3.1-0.6,4.2-1.8l21.2-21.2c2.3-2.3,2.3-6.1,0-8.5l-21.2-21.2C709.7,412.2,708.2,411.6,706.6,411.6
				L706.6,411.6z"/>
			<path class="st5" d="M710.6,434.9c1,1,2.5,0.9,3.5,0c1-1,1-2.5,0-3.5s-2.5-0.9-3.5,0C709.7,432.4,709.7,433.9,710.6,434.9
				 M712.9,432.6c0.3,0.3,0.3,0.8,0,1.2c-0.3,0.3-0.8,0.3-1.2,0c-0.3-0.3-0.3-0.8,0-1.2C712.1,432.3,712.6,432.3,712.9,432.6"/>
			<path class="st5" d="M711.1,439.4L711.1,439.4c0.7-1,0.6-2.3-0.3-3.1l-1.6-1.6c-0.8-0.8-2.1-0.9-3.1-0.3l-6.7,4.7l-0.7,0.7
				l1.7,1.7l-3,3l1.2,1.2l3-3l1.2,1.2l-3,3l1.2,1.2l3-3l1.7,1.7l0.7-0.7L711.1,439.4z M701.1,439.9l5.9-4.2c0.3-0.2,0.8-0.2,1,0.1
				l1.6,1.6c0.3,0.3,0.3,0.7,0.1,1l-4.2,5.9L701.1,439.9z"/>
		</g>
	</a>
	<g id="Elavator_12_">
		<g>
			<g>
				<path class="st4" d="M730,179.2c-2.8,0-5-2.2-5-5v-30c0-2.8,2.2-5,5-5h30c2.8,0,5,2.2,5,5v30c0,2.8-2.2,5-5,5H730z"/>
				<path class="st2" d="M760,140.2c2.2,0,4,1.8,4,4v30c0,2.2-1.8,4-4,4h-30c-2.2,0-4-1.8-4-4v-30c0-2.2,1.8-4,4-4H760 M760,138.2
					h-30c-3.3,0-6,2.7-6,6v30c0,3.3,2.7,6,6,6h30c3.3,0,6-2.7,6-6v-30C766,140.9,763.3,138.2,760,138.2L760,138.2z"/>
			</g>
		</g>
		
			<image style="overflow:visible;" width="76" height="76" id="elevator_x5F_off_3_" xlink:href="./images/2x/elevator_off@2x.png" class="i_elevator" transform="matrix(0.5 0 0 0.5 726 140.2)">
		</image>
	</g>
</g>
<g id="Spotname3Fsomerset" class="spotname">
	<text transform="matrix(1 0 0 1 663.7136 94.7)" class="st2 st6 st7">트랜스포머 오토봇</text>
	<text transform="matrix(1 0 0 1 679.8136 109.1)" class="st2 st6 st7">얼라이언스</text>
	<text transform="matrix(1 0 0 1 471.2029 268.0994)" class="st2 st6 st7">피트니스</text>
	<text transform="matrix(1 0 0 1 448.8132 357.2996)" class="st2 st6 st7">찜질방</text>
	<text transform="matrix(1 0 0 1 509.9333 464.7)" class="st2 st6 st7">탐모라 찜질방</text>
	<text transform="matrix(1 0 0 1 647.2029 495.2996)" class="st2 st6 st7">미디어룸</text>
	<text transform="matrix(1 0 0 1 596.2126 425.2996)" class="st2 st6 st7">락커룸</text>
	<text transform="matrix(1 0 0 1 632.8132 461.8992)" class="st2 st6 st7">락커룸</text>
	<text transform="matrix(1 0 0 1 605.3132 557.5994)" class="st2 st6 st7">키즈룸</text>
</g>
<g id="Portals">
	<line id="ElevSms.1.floorSmsF1" class="st8" x1="751" y1="167" x2="758" y2="160"/>
	<line id="Elevsms.2.floorSmsF1" class="st8" x1="658" y1="411" x2="665" y2="404"/>
	<line id="Elevsms.3.floorSmsF1" class="st8" x1="585" y1="338" x2="592" y2="331"/>
	<line id="Stair.1.floorSmsF1" class="st8" x1="810" y1="233" x2="817" y2="226"/>
</g>
<g id="Doors">
	<line id="somer301" class="st9" x1="751" y1="105" x2="758" y2="98"/>
	<line id="somer302" class="st9" x1="547" y1="300" x2="554" y2="293"/>
	<line id="somer303" class="st9" x1="510" y1="283" x2="517" y2="276"/>
	<line id="somer304" class="st9" x1="696" y1="449" x2="703" y2="442"/>
	<line id="somer305" class="st9" x1="530" y1="459" x2="537" y2="452"/>
	<line id="somer306" class="st9" x1="624" y1="551" x2="631" y2="544"/>
</g>
<g id="Paths">
	<line class="st10" x1="758" y1="98" x2="793" y2="98"/>
	<line class="st10" x1="758" y1="160" x2="793" y2="160"/>
	<line class="st10" x1="817" y1="226" x2="817" y2="160"/>
	<line class="st10" x1="793" y1="160" x2="793" y2="98"/>
	<line class="st10" x1="817" y1="160" x2="793" y2="98"/>
	<line class="st10" x1="793" y1="160" x2="817" y2="160"/>
	<line class="st10" x1="537" y1="452" x2="557" y2="432"/>
	<line class="st10" x1="631" y1="544" x2="650" y2="525"/>
	<line class="st10" x1="537" y1="310" x2="510" y2="283"/>
	<line class="st10" x1="608" y1="381" x2="575" y2="348"/>
	<line class="st10" x1="537" y1="310" x2="547" y2="300"/>
	<line class="st10" x1="575" y1="348" x2="585" y2="338"/>
	<line class="st10" x1="648" y1="421" x2="658" y2="411"/>
	<line class="st10" x1="686" y1="459" x2="696" y2="449"/>
	<line class="st10" x1="575" y1="348" x2="537" y2="310"/>
	<line class="st10" x1="686" y1="459" x2="648" y2="421"/>
	<line class="st10" x1="650" y1="525" x2="557" y2="432"/>
	<line class="st10" x1="557" y1="432" x2="608" y2="381"/>
	<line class="st10" x1="648" y1="421" x2="608" y2="381"/>
</g>
</svg>
