<?xml version="1.0" encoding="utf-8"?>
<!-- Generator: Adobe Illustrator 23.0.0, SVG Export Plug-In . SVG Version: 6.00 Build 0) -->
<svg version="1.1" xmlns="http://www.w3.org/2000/svg" xmlns:xlink="http://www.w3.org/1999/xlink" x="0px" y="0px" viewBox="0 0 1400 680" style="enable-background:new 0 0 1400 730;" xml:space="preserve" width="1400px" height="730px" id="gfld">
<defs>
<style type="text/css">
	#gfld .st0{fill:#CBD5DD;}
	#gfld .st1{fill:#EAEAEA;}
	#gfld .st2{fill:#A5855B;}
	#gfld .st3{fill:#8CC63F;}
	#gfld .st4{fill:none;stroke:#A5855B;stroke-width:2;stroke-miterlimit:10;}
	#gfld .st5{fill:#EAEAEA;stroke:#A5855B;stroke-width:2;stroke-linecap:round;stroke-linejoin:round;stroke-miterlimit:10;}
	#gfld .st6{fill:#FFFFFF;}
	#gfld .st7{fill:url(#SVGID_rd1);}
	#gfld .st8{fill:url(#SVGID_rd2);}
	#gfld .st9{fill:#EF405C;}
	#gfld .st10{fill:#C72D46;}
	#gfld .st11{font-family:'NotoSans';}
	#gfld .st12{font-size:12px;}
	#gfld .st13{font-size:12px; glyph-orientation-vertical:0; writing-mode:tb;}
	#gfld .st14{fill:none;stroke:#FF00FF;}
	#gfld .st15{fill:none;stroke:#00FF00;}
	#gfld .st16{fill:none;stroke:#EF405C;}
    #gfld .st17{fill:#C9CDD1;}
    #gfld .st18{fill:#818387;}
    #gfld .st19{fill:none;stroke:#A5855B;stroke-width:2;stroke-linecap:round;stroke-linejoin:round;}
</style>
</defs>
<g id="BG">
	<rect class="st0" y="-50" width="1400" height="780"/>
</g>
<g id="GF">
	<g id="Base">
		<g id="Circulation">
			<g>
				<path class="st17" d="M285.2,644.4c-3.2,0-5.7-2.5-5.9-5.7c-0.6-11-16.3-82.1-26.4-96c-1.3-1.8-3.4-2.9-5.7-2.9
					c-1.2,0-2.4,0.3-3.5,0.9l-6.6,3.8c-0.8,0.4-1.6,0.7-2.5,0.7c-1.8,0-3.4-1-4.3-2.5L209,505.8c-1.4-2.4-0.6-5.5,1.8-6.8l9.9-5.7
					c0.7-0.4,1.2-1.1,1.4-1.9s0.1-1.6-0.4-2.3c-1.6-2.5-3.2-5.1-4.8-7.5c-0.6-0.9-1.5-1.4-2.5-1.4c-0.6,0-1.2,0.2-1.7,0.6l-9.8,7
					c-0.9,0.6-1.9,0.9-2.9,0.9c-1.6,0-3.1-0.8-4.1-2.1L171.2,452c-1.6-2.2-1.1-5.4,1.2-7l9-6.4c0.7-0.5,1.1-1.2,1.2-2.1
					c0.1-0.8-0.1-1.7-0.7-2.3c-2.2-2.6-4.4-5.2-6.6-7.7c-0.6-0.6-1.4-1-2.3-1c-0.8,0-1.5,0.3-2.1,0.8l-8.2,7.7
					c-0.9,0.9-2.1,1.3-3.4,1.3c-1.4,0-2.7-0.6-3.6-1.6c-3.3-3.5-8.5-9.1-13.8-14.7c-5.3-5.7-10.8-11.5-14.6-15.6
					c-1.4-1.5-2.1-2.9-2-4.3s0.8-2.8,2.3-4.2l2.4-2.3c1.5-1.4,2.3-3.3,2.2-5.4c-0.1-2-1-3.9-2.6-5.2c-8.6-6.9-16.6-12.3-23.9-16.3
					c-2-1.1-3.8-4.1-3.8-6.4v-326c0-5.1-4.2-9.3-9.3-9.4l-27.5-0.4C61.3,23.4,58,20,58,16v-61.3c0-4.1,3.3-7.4,7.4-7.4h6.8
					c4.7,0,8.6-3.9,8.6-8.6c0-2,0.7-3.8,2-5.2c1.3-1.4,3.2-2.2,5.1-2.2c0.7,0,1.4,0.1,2.1,0.3h0.1l111.8,8.5
					c0.9,0.3,1.7,0.4,2.6,0.4c2.8,0,5.5-1.4,7.3-3.6c1.7-2.3,2.3-5.2,1.5-8l-18.8-67.2c-0.8-2.9,0.2-6,2.5-7.8
					c31.7-24.9,158-54.7,579.7-55.2c3.9,0,392.3,3.6,554.7,12.9c2.6,0.1,4.7,2.3,4.7,5v71.3c0,2.8-2.2,5-5,5h-121.9
					c-5.2,0-9.4,4.2-9.4,9.4v19.9c0,3.8-2.9,7-6.6,7.4c-19.8,2-33,6.8-41.6,15.1c-9.2,8.9-13.4,22-13.4,41.3s4.3,32.5,13.4,41.3
					c8.5,8.3,21.7,13.1,41.6,15.1c3.8,0.4,6.6,3.5,6.6,7.4V71c0,3.9,3.1,7,7,7H1331c2.8,0,5,2.2,5,5v58.5
					c-11.2,0.7-120.7,7.9-275,13.2c-111,4.2-214.7,6.3-308.1,6.3c-162,0-238.2-6.5-238.9-6.6l-1.1-0.1v490.1H285.2z"/>
				<path class="st2" d="M776.6-200.2L776.6-200.2c4,0,392.3,3.6,554.6,12.9c2.1,0.1,3.8,1.9,3.8,4v71.3c0,2.2-1.8,4-4,4h-121.9
					c-5.7,0-10.4,4.7-10.4,10.4v19.9c0,3.3-2.5,6-5.7,6.4c-20.1,2-33.4,6.9-42.1,15.4c-9.4,9.1-13.7,22.4-13.7,42.1
					c0,19.6,4.4,33,13.7,42.1c8.7,8.4,22.1,13.3,42.1,15.4c3.3,0.3,5.7,3.1,5.7,6.4V71c0,4.4,3.6,8,8,8H1331c2.2,0,4,1.8,4,4v57.5
					c-15.3,1-123.4,7.9-274.1,13.1c-111,4.2-214.6,6.3-308,6.3c-162,0-238.1-6.5-238.9-6.6l-2.2-0.2v2.2v488H285.1H285
					c-2.6,0-4.7-2.1-4.8-4.8c-0.5-9.6-15.6-81.3-26.6-96.6c-1.5-2.1-3.9-3.3-6.5-3.3c-1.4,0-2.8,0.4-4,1.1l-6.6,3.8
					c-0.6,0.4-1.3,0.5-2,0.5c-1.4,0-2.8-0.8-3.5-2l-21.3-36.8c-1.1-1.9-0.4-4.4,1.5-5.5l9.9-5.7c0.9-0.5,1.6-1.5,1.9-2.5
					c0.3-1.1,0.1-2.2-0.5-3.1c-1.6-2.5-3.2-5.1-4.8-7.5c-0.7-1.1-2-1.8-3.4-1.8c-0.8,0-1.6,0.3-2.3,0.7l-9.8,7
					c-0.7,0.5-1.5,0.7-2.3,0.7c-1.3,0-2.5-0.6-3.3-1.7l-24.7-34.6c-1.3-1.8-0.9-4.3,0.9-5.6l9-6.4c0.9-0.6,1.5-1.7,1.7-2.8
					c0.1-1.1-0.2-2.2-0.9-3.1c-2.2-2.6-4.5-5.3-6.6-7.8c-0.8-0.9-1.9-1.4-3-1.4c-1,0-2,0.4-2.7,1.1l-8.2,7.7
					c-0.7,0.7-1.7,1.1-2.7,1.1c-1.1,0-2.2-0.4-2.9-1.3c-3.3-3.6-8.5-9.1-13.9-14.8c-5.3-5.7-10.8-11.5-14.5-15.5
					c-1.2-1.3-1.8-2.5-1.7-3.6c0-1.1,0.7-2.3,2-3.5l2.4-2.3c1.7-1.6,2.6-3.8,2.5-6.2c-0.1-2.3-1.2-4.5-3-5.9
					c-8.6-6.9-16.7-12.4-24-16.4c-1.7-0.9-3.3-3.6-3.3-5.5V33c0-5.6-4.6-10.3-10.2-10.4l-27.5-0.4C61.8,22.4,59,19.5,59,16v-61.3
					c0-3.5,2.9-6.4,6.4-6.4h6.8c5.3,0,9.6-4.3,9.6-9.6l0,0l0,0c0-1.7,0.6-3.2,1.7-4.4c1.2-1.2,2.8-1.9,4.4-1.9
					c0.6,0,1.2,0.1,1.8,0.3l0.2,0.1h0.2l111.5,8.5c0.9,0.3,1.9,0.4,2.8,0.4c3.1,0,6.1-1.5,8.1-4c1.9-2.5,2.5-5.8,1.7-8.8l-18.8-67.2
					c-0.7-2.5,0.2-5.1,2.2-6.7c17-13.4,56.9-24.6,118.5-33.3C416.3-192.6,571.3-199.9,776.6-200.2 M776.6-202.2
					c-476.1,0.6-559.3,38.9-580.3,55.4c-2.7,2.1-3.8,5.6-2.9,8.8l18.8,67.2c1.5,5.4-2.7,10.3-7.8,10.3c-0.8,0-1.6-0.1-2.4-0.4
					L90.3-69.3c-0.8-0.2-1.6-0.4-2.4-0.4c-4.4,0-8.2,3.6-8.1,8.3c0,4.2-3.4,7.6-7.6,7.6h-6.8c-4.6,0-8.4,3.8-8.4,8.4V16
					c0,4.6,3.7,8.3,8.3,8.4l27.5,0.4c4.6,0.1,8.3,3.8,8.3,8.4v326c0,2.7,1.9,6,4.3,7.3c8,4.3,16.1,10.1,23.7,16.2
					c2.9,2.3,3,6.6,0.4,9.1l-2.4,2.3c-3.4,3.2-3.6,6.5-0.4,9.9c7.6,8.1,21.8,23.2,28.4,30.3c1.2,1.3,2.8,1.9,4.4,1.9
					c1.5,0,2.9-0.5,4.1-1.6l8.2-7.7c0.4-0.4,0.9-0.5,1.4-0.5c0.6,0,1.1,0.2,1.5,0.7c2.2,2.6,4.5,5.1,6.6,7.7
					c0.7,0.9,0.6,2.2-0.4,2.9l-9,6.4c-2.7,1.9-3.3,5.7-1.4,8.4l24.7,34.6c1.2,1.6,3,2.5,4.9,2.5c1.2,0,2.4-0.4,3.5-1.1l9.8-7
					c0.4-0.3,0.8-0.4,1.2-0.4c0.7,0,1.3,0.3,1.7,0.9c1.6,2.5,3.2,5,4.8,7.5c0.6,1,0.3,2.2-0.7,2.8l-9.9,5.7
					c-2.9,1.7-3.9,5.3-2.2,8.2l21.3,36.8c1.1,1.9,3.1,3,5.2,3c1,0,2-0.3,3-0.8l6.6-3.8c0.9-0.5,2-0.8,3-0.8c1.9,0,3.7,0.9,4.9,2.5
					c10.3,14.3,25.7,85.4,26.2,95.5c0.2,3.7,3.1,6.6,6.8,6.7h0.1h228.7V155.4c0,0,75.1,6.6,239,6.6c80.7,0,182.8-1.6,308.1-6.3
					c164-5.6,276-13.2,276-13.2V83c0-3.3-2.7-6-6-6H1207c-3.3,0-6-2.7-6-6V49.9c0-4.3-3.3-7.9-7.5-8.4
					c-37.1-3.8-54.1-17.2-54.1-55.4s17-51.6,54.1-55.4c4.3-0.4,7.5-4,7.5-8.4v-19.9c0-4.6,3.8-8.4,8.4-8.4H1331c3.3,0,6-2.7,6-6
					v-71.3c0-3.2-2.5-5.8-5.6-6C1167.1-198.7,776.6-202.2,776.6-202.2L776.6-202.2z"/>
			</g>
<!--
			<g>
				<path class="st1" d="M520.5,859.9c-4.4,0-7.9-3.4-7.9-7.7v-698c66.7,4.4,148.3,6.6,242.6,6.6c268.8,0,560.8-18,580.8-19.3v436.6
					c0,1.3-0.5,2.6-1.4,3.5l-273.7,276.8c-0.9,0.9-2.2,1.5-3.6,1.5H520.5z"/>
				<path class="st2" d="M1335,142.6v435.5c0,1.1-0.4,2.1-1.2,2.8l-273.7,276.8c-0.7,0.8-1.8,1.2-2.8,1.2H520.5
					c-3.8,0-6.9-3-6.9-6.7V155.3c66.5,4.3,147.8,6.5,241.6,6.5C1020.1,161.8,1307.5,144.3,1335,142.6 M1337,140.5
					c0,0-301.5,19.3-581.8,19.3c-86.4,0-170.7-1.8-243.6-6.6v699c0,4.8,4,8.7,8.9,8.7h536.7c1.6,0,3.1-0.6,4.3-1.8l273.7-276.8
					c1.1-1.1,1.7-2.6,1.7-4.2V140.5H1337z"/>
			</g>
-->
			<g>
				<path class="st0" d="M436.1,33.6c-44,0-99.5-11.2-101.7-11.6c-1.1-0.4-2.3-0.7-3.6-1.1c-11-3.3-24.7-7.4-24.7-37.2
					s13.7-33.9,24.7-37.2c1.3-0.4,2.5-0.8,3.6-1.1c0.4-0.1,46.1-11.6,101.7-11.6c49.7,0,91.9,19.5,96.5,21.7c0.1,0,0.1,0.1,0.2,0.1
					c8,1.7,17.2,7,17.3,7c5.5,3.1,8,11.3,8.9,15.9c0.7,3.5,0.7,7.2,0,10.6c-1,4.6-3.4,12.8-8.9,15.9c-0.1,0.1-9.3,5.3-17.3,7
					c-0.1,0-0.2,0-0.2,0.1C528,14.1,485.9,33.6,436.1,33.6z"/>
				<path class="st2" d="M436.1-65.4c49.5,0,91.5,19.4,96.1,21.6c0.1,0.1,0.3,0.1,0.4,0.2c7.9,1.7,16.9,6.9,17,6.9
					c5.1,2.9,7.5,10.8,8.4,15.2c0.7,3.3,0.7,6.9,0,10.2c-0.9,4.4-3.3,12.3-8.5,15.2c-0.1,0.1-9.1,5.3-17,6.9c-0.2,0-0.3,0.1-0.4,0.2
					c-4.6,2.2-46.6,21.6-96.1,21.6c-43.5,0-98.5-11-101.5-11.6c-1.1-0.4-2.3-0.7-3.6-1.1c-10.7-3.2-24-7.2-24-36.3
					s13.3-33.1,24-36.3c1.3-0.4,2.5-0.7,3.6-1.1C336.8-54.3,381.7-65.4,436.1-65.4 M436.1-67.4c-56.3,0-102,11.7-102,11.7
					c-10.9,3.7-29,5.2-29,39.3s18.1,35.6,29,39.3c0,0,56.7,11.7,102,11.7c50.4,0,93.5-20.1,97-21.8c8.3-1.8,17.6-7.1,17.6-7.1
					c5.7-3.2,8.3-11.1,9.4-16.5c0.8-3.6,0.8-7.4,0-11.1c-1.2-5.4-3.8-13.4-9.4-16.5c0,0-9.3-5.4-17.6-7.1
					C529.6-47.3,486.5-67.4,436.1-67.4L436.1-67.4z"/>
			</g>
			<g>
				<path class="st1" d="M502.5,22.8c-2.1,0-4.1-0.9-5.5-2.5c-4.3-4.8-9.4-15.1-9.4-36.8s5.1-31.9,9.4-36.8c1.4-1.6,3.4-2.5,5.5-2.5
					c0.7,0,1.5,0.1,2.2,0.3c15.7,4.9,26,9.7,27.9,10.6l0.1,0.1h0.1c8.1,1.7,17.2,7,17.3,7c5.5,3.1,8,11.3,8.9,15.9
					c0.7,3.5,0.7,7.1,0,10.6c-1,4.6-3.4,12.8-8.9,15.9c-0.1,0.1-9.3,5.3-17.3,7h-0.1l-0.1,0.1c-1.9,0.9-12.2,5.7-27.9,10.6
					C504,22.7,503.3,22.8,502.5,22.8L502.5,22.8z"/>
				<g>
					<path class="st2" d="M502.5-54.6c0.6,0,1.3,0.1,1.9,0.3c15.7,4.9,25.9,9.6,27.8,10.5l0.2,0.1h0.2c7.9,1.7,16.9,6.9,17,6.9
						c5.1,2.9,7.5,10.8,8.4,15.2c0.7,3.4,0.7,6.8,0,10.2c-0.9,4.4-3.3,12.3-8.5,15.2c-0.1,0.1-9.1,5.3-17,6.9h-0.2l-0.2,0.1
						c-1.9,0.9-12.1,5.7-27.8,10.5c-0.6,0.2-1.3,0.3-1.9,0.3c-1.8,0-3.6-0.8-4.8-2.1c-4.2-4.7-9.2-14.8-9.2-36.1s5-31.4,9.2-36.1
						C499-53.8,500.7-54.6,502.5-54.6 M502.5-56.6c-2.4,0-4.7,1-6.3,2.8c-4.2,4.7-9.7,15.1-9.7,37.4s5.5,32.7,9.7,37.4
						c1.6,1.8,3.9,2.8,6.3,2.8c0.8,0,1.7-0.1,2.5-0.4c15.9-5,26.4-9.9,28-10.6c8.3-1.8,17.6-7.1,17.6-7.1c5.7-3.2,8.3-11.1,9.4-16.5
						c0.8-3.6,0.8-7.4,0-11.1c-1.2-5.4-3.8-13.4-9.4-16.5c0,0-9.3-5.4-17.6-7.1c-1.6-0.8-12.1-5.7-28-10.6
						C504.2-56.5,503.4-56.6,502.5-56.6L502.5-56.6z"/>
				</g>
			</g>
			<g>
				<path class="st1" d="M834.7,33.8c-48.7,0-91.3-19.2-96-21.4c-0.4-0.2-0.9-0.4-1.4-0.5c-7.9-1.8-16.6-6.8-16.7-6.9
					c-7.6-4.2-9.4-18-9.7-20.7c0-0.3,0-0.7,0-1c0.3-2.7,2.1-16.5,9.7-20.7c0.1-0.1,8.8-5.1,16.7-6.9c0.5-0.1,0.9-0.3,1.4-0.5
					c4.7-2.2,47.3-21.4,96-21.4c53.5,0,96.8,10.4,101.5,11.6c0.1,0,0.2,0.1,0.3,0.1c1.1,0.4,2.2,0.7,3.4,1.1
					c7.5,2.3,16.8,5.1,21.5,17c1,2.6,3.7,4.4,6.6,4.4h26.1c3.9,0,7-3.1,7-7v-5.4c0-2.8,2.2-5,5-5h56.4c2.8,0,5,2.2,5,5V12
					c0,2.8-2.2,5-5,5h-56.4c-2.8,0-5-2.2-5-5V6.6c0-3.9-3.1-7-7-7h-26c-2.9,0-5.6,1.8-6.6,4.4c-4.7,12-14.1,14.8-21.6,17.1
					c-1.2,0.3-2.3,0.7-3.3,1c-0.2,0.1-0.4,0.1-0.6,0.2C930.2,23.4,877.5,33.8,834.7,33.8z"/>
				<path class="st2" d="M834.7-65.2c53.4,0,96.5,10.4,101.3,11.5c0.1,0,0.2,0,0.3,0.1c1.1,0.4,2.3,0.7,3.5,1.1
					c7.7,2.3,16.4,4.9,20.9,16.4c1.2,3,4.2,5,7.5,5h26.1c4.4,0,8-3.6,8-8v-5.4c0-2.2,1.8-4,4-4h56.4c2.2,0,4,1.8,4,4V12
					c0,2.2-1.8,4-4,4h-56.4c-2.2,0-4-1.8-4-4V6.6c0-4.4-3.6-8-8-8h-26c-3.3,0-6.3,2-7.5,5.1c-4.5,11.5-13.2,14.2-20.9,16.5
					c-1.2,0.4-2.3,0.7-3.3,1c-0.2,0.1-0.3,0.1-0.4,0.1c-5.9,1.2-58.5,11.6-101.2,11.6c-48.5,0-90.9-19.2-95.6-21.3
					c-0.5-0.2-1-0.4-1.6-0.5c-7.7-1.8-16.3-6.7-16.5-6.8c-7.2-4-8.9-17.3-9.2-19.9c0-0.3,0-0.5,0-0.8c0.2-1.5,0.7-5.6,2.1-9.8
					c1.7-5,4.2-8.5,7.1-10.2c0.1,0,8.7-5,16.4-6.8c0.6-0.1,1.1-0.3,1.6-0.5C743.8-46,786.2-65.2,834.7-65.2 M834.7-67.2
					c-48.5,0-90.3,18.7-96.4,21.5c-0.4,0.2-0.8,0.3-1.2,0.4c-8.1,1.9-17,7-17,7c-8,4.4-9.9,18.4-10.2,21.5c0,0.4,0,0.8,0,1.2
					c0.3,3.1,2.2,17,10.2,21.5c0,0,8.8,5.1,17,7c0.4,0.1,0.8,0.2,1.2,0.4c6.1,2.9,47.9,21.5,96.4,21.5c43.2,0,96.8-10.6,101.6-11.6
					c0.2,0,0.5-0.1,0.7-0.2c8.1-2.7,19.9-4.4,25.5-18.7c0.9-2.3,3.2-3.8,5.7-3.8h26c3.3,0,6,2.7,6,6V12c0,3.3,2.7,6,6,6h56.4
					c3.3,0,6-2.7,6-6v-56.4c0-3.3-2.7-6-6-6h-56.4c-3.3,0-6,2.7-6,6v5.4c0,3.3-2.7,6-6,6h-26.1c-2.5,0-4.8-1.5-5.7-3.8
					c-5.7-14.3-17.5-15.9-25.6-18.7c-0.1,0-0.3-0.1-0.4-0.1C933-56.4,888.8-67.2,834.7-67.2L834.7-67.2z"/>
			</g>
			<g>
				<path class="st2" d="M626.4,17.8c43.5,0,74.8,8.7,107.9,17.8l2.8,0.8c31.7,8.8,72.5,15.9,99.3,17.2c3.4,0.2,6.1,3,6.1,6.4v22.4
					v14.4c0,2.2-1.8,4-4,4h-10.9c-1.1,0-2,0.9-2,2v16c0,1.1,0.9,2,2,2h10.9c2.2,0,4,1.8,4,4v34.4c-29.7,0.6-60.1,0.9-90.2,0.9
					c-130.7,0-224.6-5.8-238.8-6.7v-21.2c0-2.2,1.8-4,4-4h9.9c4.4,0,8-3.6,8-8V92.7c0-2.2,1.8-4,4-4h49.3c4.4,0,8-3.6,8-8V70.5
					c0-4.4-3.6-8-8-8h-49.3c-2.2,0-4-1.8-4-4V37.8c0-1.6,1-3.1,2.5-3.7c11-4.6,40.9-15.3,80.2-16.2
					C620.9,17.8,623.7,17.8,626.4,17.8 M626.4,15.8c-2.7,0-5.5,0-8.3,0.1c-40.1,1-70.7,12.2-80.9,16.4c-2.2,0.9-3.7,3.1-3.7,5.5
					v20.7c0,3.3,2.7,6,6,6h49.3c3.3,0,6,2.7,6,6v10.2c0,3.3-2.7,6-6,6h-49.3c-3.3,0-6,2.7-6,6v27.6c0,3.3-2.7,6-6,6h-9.9
					c-3.3,0-6,2.7-6,6v23.1c0,0,97.7,6.8,240.8,6.8c29,0,59.9-0.3,92.2-1v-36.3c0-3.3-2.7-6-6-6h-10.9v-16h10.9c3.3,0,6-2.7,6-6
					V82.5V60.1c0-4.5-3.5-8.2-8-8.4c-25.1-1.3-65.9-8-98.9-17.2C703,24.9,671.4,15.8,626.4,15.8L626.4,15.8z"/>
			</g>
            <g>
                <path class="st0" d="M834.5-66.4c44,0,99.5,11.2,101.7,11.6c1.1,0.4,2.3,0.7,3.6,1.1c11,3.3,24.7,7.4,24.7,37.2      s-13.7,33.9-24.7,37.2c-1.3,0.4-2.5,0.8-3.6,1.1c-0.4,0.1-46.1,11.6-101.7,11.6c-49.7,0-91.9-19.5-96.5-21.7      c-0.1,0-0.1-0.1-0.2-0.1c-8-1.7-17.2-7-17.3-7c-5.5-3.1-8-11.3-8.9-15.9c-0.7-3.5-0.7-7.2,0-10.6c1-4.6,3.4-12.8,8.9-15.9      c0.1-0.1,9.3-5.3,17.3-7c0.1,0,0.2,0,0.2-0.1C742.6-46.9,784.7-66.4,834.5-66.4z"/>
            </g>
            <g>
                <path class="st2" d="M834.5,32.6C785,32.6,743,13.2,738.4,11c-0.1-0.1-0.3-0.1-0.4-0.2c-7.9-1.7-16.9-6.9-17-6.9      c-5.1-2.9-7.5-10.8-8.4-15.2c-0.7-3.3-0.7-6.9,0-10.2c0.9-4.4,3.3-12.3,8.5-15.2c0.1-0.1,9.1-5.3,17-6.9c0.2,0,0.3-0.1,0.4-0.2      c4.6-2.2,46.6-21.6,96.1-21.6c43.5,0,98.5,11,101.5,11.6c1.1,0.4,2.3,0.7,3.6,1.1c10.7,3.2,24,7.2,24,36.3s-13.3,33.1-24,36.3      c-1.3,0.4-2.5,0.7-3.6,1.1C933.8,21.5,888.9,32.6,834.5,32.6 M834.5,34.6c56.3,0,102-11.7,102-11.7c10.9-3.7,29-5.2,29-39.3      s-18.1-35.6-29-39.3c0,0-56.7-11.7-102-11.7c-50.4,0-93.5,20.1-97,21.8c-8.3,1.8-17.6,7.1-17.6,7.1c-5.7,3.2-8.3,11.1-9.4,16.5      c-0.8,3.6-0.8,7.4,0,11.1c1.2,5.4,3.8,13.4,9.4,16.5c0,0,9.3,5.4,17.6,7.1C741,14.5,784.1,34.6,834.5,34.6L834.5,34.6z"/>
            </g>
			<g>
				<path class="st2" d="M237.6,23.9c1,0,2,0.2,3.2,0.6c21.6,7.6,98.7,32.2,184.8,32.2c16.4,0,32.4-0.9,47.7-2.7
					c0.3,0,0.7-0.1,1-0.1c4,0,7.3,2.9,7.3,6.5v51.1c0,2.2-1.8,4-4,4c-190.2-0.2-268.2-11.9-292.9-16.9c-1.4-0.3-2.4-1.2-2.9-2.5
					s-0.3-2.7,0.5-3.8l50.1-66.4C234.3,24.5,235.9,23.9,237.6,23.9 M237.6,21.9c-2.2,0-4.2,0.8-6.6,2.6L180.8,91
					c-2.7,3.5-0.7,8.6,3.6,9.5c24.3,4.9,102.3,16.7,293.3,17l0,0c3.3,0,6-2.7,6-6V60.4c0-4.7-4.2-8.5-9.3-8.5c-0.4,0-0.8,0-1.2,0.1
					c-15.9,1.9-31.8,2.7-47.4,2.7c-85.8,0-162.4-24.5-184.1-32.1C240.1,22.1,238.8,21.9,237.6,21.9L237.6,21.9z"/>
                <path class="st1" d="M237.6,23.9c1,0,2,0.2,3.2,0.6c21.6,7.6,98.7,32.2,184.8,32.2c16.4,0,32.4-0.9,47.7-2.7       c0.3,0,0.7-0.1,1-0.1c4,0,7.3,2.9,7.3,6.5v51.1c0,2.2-1.8,4-4,4c-190.2-0.2-268.2-11.9-292.9-16.9c-1.4-0.3-2.4-1.2-2.9-2.5       s-0.3-2.7,0.5-3.8l50.1-66.4C234.3,24.5,235.9,23.9,237.6,23.9"/>
			</g>
			<line class="st4" x1="316.8" y1="-178.8" x2="316.8" y2="-72.2"/>
			<line class="st4" x1="414.6" y1="-189.4" x2="414.6" y2="-86.7"/>
			<g>
				<path class="st2" d="M499-194.1v105.9c0,3.5-2.9,6.4-6.4,6.4c-0.5,0-0.9-0.1-1.4-0.1c-20.3-4.4-42-6.7-64.5-6.7
					c-75.5,0-140.3,25.3-152.5,30.4c-0.8,0.3-1.6,0.5-2.5,0.5h-42.5c-6.7,0-12.5-4.5-14.3-10.9l-19.4-70.2c-0.7-2.5,0.2-5.1,2.2-6.7
					c8.5-6.6,38.1-23.3,130.3-34.4C329.2-180.1,421.2-191.6,499-194.1 M501-196.2c-79.2,2.4-173,14.3-173,14.3
					c-91,10.9-121.9,27.4-131.3,34.8c-2.7,2.1-3.8,5.6-2.9,8.8l19.4,70.2c2,7.3,8.7,12.4,16.2,12.4h42.5c1.1,0,2.2-0.2,3.2-0.6
					c10.6-4.4,75.2-30.3,151.7-30.3c20.7,0,42.4,1.9,64,6.6c0.6,0.1,1.2,0.2,1.8,0.2c4.5,0,8.4-3.7,8.4-8.4L501-196.2L501-196.2z"/>
			</g>
			<line class="st4" x1="635.4" y1="-199.3" x2="635.4" y2="-48.6"/>
			<line class="st4" x1="536.4" y1="-127.2" x2="635.4" y2="-127.2"/>
			<line class="st4" x1="737.4" y1="-201.1" x2="737.4" y2="-67.2"/>
			<line class="st4" x1="686.4" y1="-199.5" x2="686.4" y2="-53.4"/>
			<path class="st4" d="M845.4-200.6v107.8c0,4.5-3.5,8.2-8,8.4c-24.9,1.3-65.4,8-98.2,17.2C702.6-57,669.6-47.4,620.4-48.6
				c-37.9-0.9-67.3-11.1-78.7-15.7c-3.2-1.3-5.3-4.4-5.3-7.8v-125"/>
			<path class="st4" d="M1089.6-196.2v78.6c0,3.3-2.7,6-6,6h-25.8"/>
			<path class="st4" d="M1153.8-195v59.4c0,3.3-2.7,6-6,6H1089"/>
			<path class="st4" d="M1201.8-193.2v48c0,3.3-2.7,6-6,6h-41.4"/>
			<path class="st4" d="M1225.2-192.6v38.4c0,3.3-2.7,6-6,6h-17.4"/>
			<path class="st4" d="M1282.2-190.8v36.6c0,3.3-2.7,6-6,6H1265V-162h-39.8v-31.3"/>
			<path class="st4" d="M1297.2-190.2v36c0,3.3,2.7,6,6,6h33"/>
			<path class="st4" d="M1200-98h-43.9c-3.4,0-6.1,2.7-6.1,6.1V-54"/>
			<line class="st4" x1="723" y1="31.6" x2="723" y2="161.6"/>
			<g>
				<path class="st1" d="M283.1,528c-2.9,0-5.5-1.7-6.7-4.3c-10.3-22.9-48.9-101.4-114.5-152.1c-1.8-1.4-2.9-3.6-2.9-5.9V297
					c0-2.7,2.2-5,5-5h310c3.8,0,7,3.3,7,7.4v221.3c0,4.1-3.1,7.4-7,7.4H283.1V528z"/>
				<g>
					<path class="st2" d="M474,293c3.3,0,6,2.9,6,6.4v221.3c0,3.5-2.7,6.4-6,6.4H283c-2.5,0-4.8-1.5-5.8-3.8
						c-10.3-22.9-49-101.6-114.8-152.5c-1.5-1.2-2.5-3.1-2.5-5.1V297c0-2.2,1.8-4,4-4H474 M474,291H164c-3.3,0-6,2.7-6,6v68.7
						c0,2.6,1.2,5.1,3.2,6.7c66.1,51,104.9,131.1,114.2,151.7c1.4,3,4.3,4.9,7.6,4.9h191c4.4,0,8-3.7,8-8.4V299.4
						C482,294.7,478.4,291,474,291L474,291z"/>
				</g>
			</g>
			<g>
				<path class="st1" d="M512.6,361.7v-49.6h75.8c2.8,0,5,2.2,5,5v39.6c0,2.8-2.2,5-5,5H512.6z"/>
				<path class="st2" d="M588.4,313.1c2.2,0,4,1.8,4,4v39.6c0,2.2-1.8,4-4,4h-74.8v-47.6H588.4 M588.4,311.1h-76.8v51.6h76.8
					c3.3,0,6-2.7,6-6v-39.6C594.4,313.8,591.7,311.1,588.4,311.1L588.4,311.1z"/>
			</g>
			<g>
				<path class="st1" d="M512.6,484.2v-100h75.8c2.8,0,5,2.2,5,5v90c0,2.8-2.2,5-5,5H512.6z"/>
				<path class="st2" d="M588.4,385.2c2.2,0,4,1.8,4,4v90c0,2.2-1.8,4-4,4h-74.8v-98H588.4 M588.4,383.2h-76.8v102h76.8
					c3.3,0,6-2.7,6-6v-90C594.4,385.9,591.7,383.2,588.4,383.2L588.4,383.2z"/>
			</g>
			<g>
				<path class="st1" d="M512.6,530.2v-46h57.8c2.8,0,5,2.2,5,5v36c0,2.8-2.2,5-5,5H512.6z"/>
				<path class="st2" d="M570.4,485.2c2.2,0,4,1.8,4,4v36c0,2.2-1.8,4-4,4h-56.8v-44H570.4 M570.4,483.2h-58.8v48h58.8
					c3.3,0,6-2.7,6-6v-36C576.4,485.9,573.7,483.2,570.4,483.2L570.4,483.2z"/>
			</g>
			<g>
				<path class="st1" d="M164.4,234.2c-2.8,0-5-2.2-5-5v-70c0-2.8,2.2-5,5-5h85v75c0,2.8-2.2,5-5,5H164.4z"/>
				<path class="st2" d="M248.4,155.2v74c0,2.2-1.8,4-4,4h-80c-2.2,0-4-1.8-4-4v-70c0-2.2,1.8-4,4-4H248.4 M250.4,153.2h-86
					c-3.3,0-6,2.7-6,6v70c0,3.3,2.7,6,6,6h80c3.3,0,6-2.7,6-6V153.2L250.4,153.2z"/>
			</g>
			<g>
				<path class="st1" d="M254.4,234.2c-2.8,0-5-2.2-5-5v-75h28v75c0,2.8-2.2,5-5,5H254.4z"/>
				<path class="st2" d="M276.4,155.2v74c0,2.2-1.8,4-4,4h-18c-2.2,0-4-1.8-4-4v-74H276.4 M278.4,153.2h-30v76c0,3.3,2.7,6,6,6h18
					c3.3,0,6-2.7,6-6V153.2L278.4,153.2z"/>
			</g>
			<g>
				<path class="st1" d="M282.4,234.2c-2.8,0-5-2.2-5-5v-75h28v75c0,2.8-2.2,5-5,5H282.4z"/>
				<path class="st2" d="M304.4,155.2v74c0,2.2-1.8,4-4,4h-18c-2.2,0-4-1.8-4-4v-74H304.4 M306.4,153.2h-30v76c0,3.3,2.7,6,6,6h18
					c3.3,0,6-2.7,6-6V153.2L306.4,153.2z"/>
			</g>
			<g>
				<path class="st1" d="M310.4,234.2c-2.8,0-5-2.2-5-5v-75h28v75c0,2.8-2.2,5-5,5H310.4z"/>
				<path class="st2" d="M332.4,155.2v74c0,2.2-1.8,4-4,4h-18c-2.2,0-4-1.8-4-4v-74H332.4 M334.4,153.2h-30v76c0,3.3,2.7,6,6,6h18
					c3.3,0,6-2.7,6-6V153.2L334.4,153.2z"/>
			</g>
			<g>
				<path class="st1" d="M338.4,234.2c-2.8,0-5-2.2-5-5v-75h28v75c0,2.8-2.2,5-5,5H338.4z"/>
				<path class="st2" d="M360.4,155.2v74c0,2.2-1.8,4-4,4h-18c-2.2,0-4-1.8-4-4v-74H360.4 M362.4,153.2h-30v76c0,3.3,2.7,6,6,6h18
					c3.3,0,6-2.7,6-6V153.2L362.4,153.2z"/>
			</g>
			<g>
				<path class="st1" d="M366.4,234.2c-2.8,0-5-2.2-5-5v-75h28v75c0,2.8-2.2,5-5,5H366.4z"/>
				<path class="st2" d="M388.4,155.2v74c0,2.2-1.8,4-4,4h-18c-2.2,0-4-1.8-4-4v-74H388.4 M390.4,153.2h-30v76c0,3.3,2.7,6,6,6h18
					c3.3,0,6-2.7,6-6V153.2L390.4,153.2z"/>
			</g>
			<g>
				<path class="st1" d="M394.4,234.2c-2.8,0-5-2.2-5-5v-75h28v75c0,2.8-2.2,5-5,5H394.4z"/>
				<path class="st2" d="M416.4,155.2v74c0,2.2-1.8,4-4,4h-18c-2.2,0-4-1.8-4-4v-74H416.4 M418.4,153.2h-30v76c0,3.3,2.7,6,6,6h18
					c3.3,0,6-2.7,6-6V153.2L418.4,153.2z"/>
			</g>
			<g>
				<path class="st1" d="M422.4,234.2c-2.8,0-5-2.2-5-5v-75h28v75c0,2.8-2.2,5-5,5H422.4z"/>
				<path class="st2" d="M444.4,155.2v74c0,2.2-1.8,4-4,4h-18c-2.2,0-4-1.8-4-4v-74H444.4 M446.4,153.2h-30v76c0,3.3,2.7,6,6,6h18
					c3.3,0,6-2.7,6-6V153.2L446.4,153.2z"/>
			</g>
			<g>
				<path class="st1" d="M450.4,234.2c-2.8,0-5-2.2-5-5v-75h28v75c0,2.8-2.2,5-5,5H450.4z"/>
				<path class="st2" d="M472.4,155.2v74c0,2.2-1.8,4-4,4h-18c-2.2,0-4-1.8-4-4v-74H472.4 M474.4,153.2h-30v76c0,3.3,2.7,6,6,6h18
					c3.3,0,6-2.7,6-6V153.2L474.4,153.2z"/>
			</g>
			<g>
				<path class="st1" d="M210,355c-2.8,0-5-2.2-5-5v-58h44v58c0,2.8-2.2,5-5,5H210z"/>
				<path class="st2" d="M248,293v57c0,2.2-1.8,4-4,4h-34c-2.2,0-4-1.8-4-4v-57H248 M250,291h-46v59c0,3.3,2.7,6,6,6h34
					c3.3,0,6-2.7,6-6V291L250,291z"/>
			</g>
			<g>
				<path class="st1" d="M254,355c-2.8,0-5-2.2-5-5v-58h44v58c0,2.8-2.2,5-5,5H254z"/>
				<path class="st2" d="M292,293v57c0,2.2-1.8,4-4,4h-34c-2.2,0-4-1.8-4-4v-57H292 M294,291h-46v59c0,3.3,2.7,6,6,6h34
					c3.3,0,6-2.7,6-6V291L294,291z"/>
			</g>
			<g>
				<path class="st1" d="M298,355c-2.8,0-5-2.2-5-5v-58h44v58c0,2.8-2.2,5-5,5H298z"/>
				<path class="st2" d="M336,293v57c0,2.2-1.8,4-4,4h-34c-2.2,0-4-1.8-4-4v-57H336 M338,291h-46v59c0,3.3,2.7,6,6,6h34
					c3.3,0,6-2.7,6-6V291L338,291z"/>
			</g>
			<path class="st4" d="M858,159.2V59.9c0-4.6,3.7-8.4,8.3-8.4c10.6-0.1,31.3-0.4,63.1-1.2c0,0,15.3-1.6,24-8.4
				c8.4-6.5,25.2-10.4,38.5-11.3c4.8-0.3,8.9,3.5,8.9,8.4v117.5"/>
			<path class="st4" d="M923.4,50.4v12c0,4.6,3.8,8.4,8.4,8.4h69"/>
			<path class="st4" d="M949.8,71.4v29.4c0,4.6,3.8,8.4,8.4,8.4h42.6"/>
			<g>
				<path class="st1" d="M1056,122c0-2.8,2.2-5,5-5h38c2.8,0,5,2.2,5,5v31l-48,1.9V122z"/>
				<path class="st2" d="M1099,118c2.2,0,4,1.8,4,4v30.1l-46,1.8V122c0-2.2,1.8-4,4-4H1099 M1099,116h-38c-3.3,0-6,2.7-6,6v34l50-2
					v-32C1105,118.7,1102.3,116,1099,116L1099,116z"/>
			</g>
			<g>
				<g>
					<path class="st1" d="M317.6,558c-2.8,0-5-2.2-5-5v-25h68v25c0,2.8-2.2,5-5,5H317.6z"/>
					<path class="st2" d="M379.6,529v24c0,2.2-1.8,4-4,4h-58c-2.2,0-4-1.8-4-4v-24H379.6 M381.6,527h-70v26c0,3.3,2.7,6,6,6h58
						c3.3,0,6-2.7,6-6V527L381.6,527z"/>
				</g>
			</g>
			<g>
				<g>
					<path class="st1" d="M385.6,558c-2.8,0-5-2.2-5-5v-25h90v25c0,2.8-2.2,5-5,5H385.6z"/>
					<path class="st2" d="M469.6,529v24c0,2.2-1.8,4-4,4h-80c-2.2,0-4-1.8-4-4v-24H469.6 M471.6,527h-92v26c0,3.3,2.7,6,6,6h80
						c3.3,0,6-2.7,6-6V527L471.6,527z"/>
				</g>
			</g>
			<g>
				<g>
					<path class="st1" d="M512.6,644.3h-210v-34.1c0-3.3,2.9-5.9,6.6-5.9h203.4V644.3z"/>
					<path class="st2" d="M513.5,645.2H301.6v-35c0-3.8,3.4-6.9,7.5-6.9h204.4V645.2z M303.5,643.3h208.1v-38.1H309.1
						c-3.1,0-5.6,2.2-5.6,5V643.3z"/>
				</g>
			</g>
			<polyline class="st5" points="499.8,-190.8 499.8,-244.2 536.4,-244.2 536.4,-190.8"/>
            <path class="st17" d="M347.8,486c-2.8,0-5-2.2-5-5V337.3c0-2.8,2.2-5,5-5h128c2.8,0,5,2.2,5,5V481c0,2.8-2.2,5-5,5H347.8z"/>
            <path class="st2" d="M475.8,333.3c2.2,0,4,1.8,4,4v143.2c0,2.2-1.8,4-4,4h-128c-2.2,0-4-1.8-4-4V337.3c0-2.2,1.8-4,4-4H475.8 M475.8,331.3h-128c-3.3,0-6,2.7-6,6v143.2c0,3.3,2.7,6,6,6h128c3.3,0,6-2.7,6-6V337.3C481.8,334,479.1,331.3,475.8,331.3 L475.8,331.3z"/>
			<!-- <g>
				<path class="st1" d="M348,384c-2.8,0-5-2.2-5-5v-42c0-2.8,2.2-5,5-5h128c2.8,0,5,2.2,5,5v42c0,2.8-2.2,5-5,5H348z"/>
				<path class="st2" d="M476,333c2.2,0,4,1.8,4,4v42c0,2.2-1.8,4-4,4H348c-2.2,0-4-1.8-4-4v-42c0-2.2,1.8-4,4-4H476 M476,331H348
					c-3.3,0-6,2.7-6,6v42c0,3.3,2.7,6,6,6h128c3.3,0,6-2.7,6-6v-42C482,333.7,479.3,331,476,331L476,331z"/>
			</g> //-->
			<!-- <g>
				<path class="st1" d="M348,436c-2.8,0-5-2.2-5-5v-42c0-2.8,2.2-5,5-5h128c2.8,0,5,2.2,5,5v42c0,2.8-2.2,5-5,5H348z"/>
				<path class="st2" d="M476,385c2.2,0,4,1.8,4,4v42c0,2.2-1.8,4-4,4H348c-2.2,0-4-1.8-4-4v-42c0-2.2,1.8-4,4-4H476 M476,383H348
					c-3.3,0-6,2.7-6,6v42c0,3.3,2.7,6,6,6h128c3.3,0,6-2.7,6-6v-42C482,385.7,479.3,383,476,383L476,383z"/>
			</g> //-->
			<!-- <g>
				<path class="st1" d="M348,488c-2.8,0-5-2.2-5-5v-42c0-2.8,2.2-5,5-5h128c2.8,0,5,2.2,5,5v42c0,2.8-2.2,5-5,5H348z"/>
				<path class="st2" d="M476,437c2.2,0,4,1.8,4,4v42c0,2.2-1.8,4-4,4H348c-2.2,0-4-1.8-4-4v-42c0-2.2,1.8-4,4-4H476 M476,435H348
					c-3.3,0-6,2.7-6,6v42c0,3.3,2.7,6,6,6h128c3.3,0,6-2.7,6-6v-42C482,437.7,479.3,435,476,435L476,435z"/>
			</g> //-->
			<g id="magf_x5F_111">
				<path class="st2" d="M858.9-199c48.1,0.6,95.2,1.3,140,2.1v129.5c0,1.3-1,2.3-2.3,2.4c-16.5,0-34.2-5.8-41.1-11.3
					c-9.5-7.4-25.6-9.2-26.3-9.3l0,0l0,0h-0.1l0,0l0,0c-33.3-0.8-54.9-1.1-64.7-1.2c-2.9,0-5.3-2.4-5.3-5.4V-199 M856.9-201v108.8
					c0,4,3.3,7.4,7.3,7.4c9.9,0.1,31.4,0.4,64.7,1.2h0.1c0.7,0.1,16.1,1.8,25.2,8.9c7.6,5.9,25.9,11.7,42.4,11.7
					c2.4-0.1,4.2-2,4.2-4.4v-131.4C946.8-199.8,896.5-200.5,856.9-201L856.9-201z"/>
			</g>
			<g id="magf_x5F_112">
				<path class="st2" d="M1001-197c19.1,0.3,38,0.7,56,1.1v94.5c0,1.9-1,3.7-2.7,4.7L1001-70.2V-197 M999-199v132l56.3-27.9
					c2.3-1.3,3.7-3.8,3.7-6.5v-96.5C1038.7-198.3,1018.6-198.7,999-199L999-199z"/>
			</g>
		</g>
		<g id="Elevator_16_">
			<g>
				<g>
					<path class="st6" d="M214.4,234.2c-2.8,0-5-2.2-5-5v-30c0-2.8,2.2-5,5-5h30c2.8,0,5,2.2,5,5v30c0,2.8-2.2,5-5,5H214.4z"/>
					<path class="st2" d="M244.4,195.2c2.2,0,4,1.8,4,4v30c0,2.2-1.8,4-4,4h-30c-2.2,0-4-1.8-4-4v-30c0-2.2,1.8-4,4-4H244.4
						 M244.4,193.2h-30c-3.3,0-6,2.7-6,6v30c0,3.3,2.7,6,6,6h30c3.3,0,6-2.7,6-6v-30C250.4,195.9,247.7,193.2,244.4,193.2
						L244.4,193.2z"/>
				</g>
			</g>
		</g>
		
			<image style="overflow:visible;enable-background:new;" width="76" height="76" class="i_elevator" id="elevator_x5F_off" xlink:href="./images/2x/elevator_off@2x.png"  transform="matrix(0.5 0 0 0.5 210.4 195.2)">
		</image>
		<g id="Elevator_15_">
			<g>
				<g>
					<path class="st6" d="M164,372c-2.8,0-5-2.2-5-5v-30c0-2.8,2.2-5,5-5h30c2.8,0,5,2.2,5,5v30c0,2.8-2.2,5-5,5H164z"/>
					<path class="st2" d="M194,333c2.2,0,4,1.8,4,4v30c0,2.2-1.8,4-4,4h-30c-2.2,0-4-1.8-4-4v-30c0-2.2,1.8-4,4-4H194 M194,331h-30
						c-3.3,0-6,2.7-6,6v30c0,3.3,2.7,6,6,6h30c3.3,0,6-2.7,6-6v-30C200,333.7,197.3,331,194,331L194,331z"/>
				</g>
			</g>
			
				<image style="overflow:visible;enable-background:new;" width="76" height="76" class="i_elevator" id="elevator_x5F_off_1_" xlink:href="./images/2x/elevator_off@2x.png"  transform="matrix(0.5 0 0 0.5 160 333)">
			</image>
		</g>
		<g id="Elevator_14_">
			<g>
				<g>
					<path class="st6" d="M388,332c-2.8,0-5-2.2-5-5v-30c0-2.8,2.2-5,5-5h30c2.8,0,5,2.2,5,5v30c0,2.8-2.2,5-5,5H388z"/>
					<path class="st2" d="M418,293c2.2,0,4,1.8,4,4v30c0,2.2-1.8,4-4,4h-30c-2.2,0-4-1.8-4-4v-30c0-2.2,1.8-4,4-4H418 M418,291h-30
						c-3.3,0-6,2.7-6,6v30c0,3.3,2.7,6,6,6h30c3.3,0,6-2.7,6-6v-30C424,293.7,421.3,291,418,291L418,291z"/>
				</g>
			</g>
			
				<image style="overflow:visible;enable-background:new;" width="76" height="76" class="i_elevator" id="elevator_x5F_off_4_" xlink:href="./images/2x/elevator_off@2x.png"  transform="matrix(0.5 0 0 0.5 384 293)">
			</image>
		</g>
		<g id="Elevator_13_">
			<g>
				<g>
					<path class="st6" d="M517.6,265.3c-2.8,0-5-2.2-5-5v-30c0-2.8,2.2-5,5-5h30c2.8,0,5,2.2,5,5v30c0,2.8-2.2,5-5,5H517.6z"/>
					<path class="st2" d="M547.6,226.3c2.2,0,4,1.8,4,4v30c0,2.2-1.8,4-4,4h-30c-2.2,0-4-1.8-4-4v-30c0-2.2,1.8-4,4-4L547.6,226.3
						 M547.6,224.3h-30c-3.3,0-6,2.7-6,6v30c0,3.3,2.7,6,6,6h30c3.3,0,6-2.7,6-6v-30C553.6,227,550.9,224.3,547.6,224.3L547.6,224.3
						z"/>
				</g>
			</g>
			
				<image style="overflow:visible;enable-background:new;" width="76" height="76" class="i_elevator" id="elevator_x5F_off_6_" xlink:href="./images/2x/elevator_off@2x.png"  transform="matrix(0.5 0 0 0.5 513.6 226.3)">
			</image>
		</g>
		<g id="Elevator_12_">
			<g>
				<g>
					<path class="st6" d="M540.6,659c-2.8,0-5-2.2-5-5v-30c0-2.8,2.2-5,5-5h30c2.8,0,5,2.2,5,5v30c0,2.8-2.2,5-5,5H540.6z"/>
					<path class="st2" d="M570.6,620c2.2,0,4,1.8,4,4v30c0,2.2-1.8,4-4,4h-30c-2.2,0-4-1.8-4-4v-30c0-2.2,1.8-4,4-4H570.6
						 M570.6,618h-30c-3.3,0-6,2.7-6,6v30c0,3.3,2.7,6,6,6h30c3.3,0,6-2.7,6-6v-30C576.6,620.7,573.9,618,570.6,618L570.6,618z"/>
				</g>
			</g>
			
				<image style="overflow:visible;enable-background:new;" width="76" height="76" class="i_elevator" id="elevator_x5F_off_8_" xlink:href="./images/2x/elevator_off@2x.png"  transform="matrix(0.5 0 0 0.5 536.6 620)">
			</image>
		</g>
		<g id="Stairs_4_">
			<g>
				<path class="st6" d="M348,332c-2.8,0-5-2.2-5-5v-30c0-2.8,2.2-5,5-5h30c2.8,0,5,2.2,5,5v30c0,2.8-2.2,5-5,5H348z"/>
				<path class="st2" d="M378,293c2.2,0,4,1.8,4,4v30c0,2.2-1.8,4-4,4h-30c-2.2,0-4-1.8-4-4v-30c0-2.2,1.8-4,4-4H378 M378,291h-30
					c-3.3,0-6,2.7-6,6v30c0,3.3,2.7,6,6,6h30c3.3,0,6-2.7,6-6v-30C384,293.7,381.3,291,378,291L378,291z"/>
			</g>
			
				<image style="overflow:visible;enable-background:new;" width="76" height="76" id="stairs_x5F_off_10_" xlink:href="./images/2x/escal_off@2x.png" class="i_escal"  transform="matrix(0.5 0 0 0.5 344 293)">
			</image>
		</g>
	</g>
	<g id="Rooms">
		<a id="lobbyLdGf" xlink:href="#" class="svg_lobby_mark">
			<g>
				<g>
					<linearGradient id="SVGID_rd1" gradientUnits="userSpaceOnUse" x1="2524.8655" y1="152" x2="2546.8655" y2="152" gradientTransform="matrix(-1 0 0 -1 2829.8655 730)">
						<stop  offset="0.1" style="stop-color:#EF405C;stop-opacity:0"/>
						<stop  offset="0.8" style="stop-color:#EF405C"/>
					</linearGradient>
					<polygon class="st7" points="305,563 283,578 305,593"/>
					
						<linearGradient id="SVGID_rd2" gradientUnits="userSpaceOnUse" x1="305" y1="152" x2="283" y2="152" gradientTransform="matrix(1 0 0 -1 0 730)">
						<stop  offset="0.1" style="stop-color:#EF405C;stop-opacity:0"/>
						<stop  offset="0.8" style="stop-color:#B30521"/>
					</linearGradient>
					<path class="st8" d="M304,564.9v26.2L284.8,578L304,564.9 M305,563l-22,15l22,15V563L305,563z"/>
				</g>
				<g>
					<path class="st9" d="M284.1,579.5c-0.1,0-0.3,0-0.4-0.2l-8.1-13.3c-0.7-1.3-1-2.7-1-4.2c0-2.5,1-4.9,2.8-6.6c1.8-1.7,4.2-2.7,6.7-2.7h0.1c5.1,0.1,9.3,4.2,9.4,9.2c0,1.5-0.3,2.9-1,4.3l-.1,13.3C284.3,579.5,284.2,579.5,284.1,579.5zM284,558c-2.2,0-4,1.8-4,4s1.8,4,4,4s4-1.8,4-4S286.2,558,284,558z"/>
					<path class="st10" d="M284.1,553h0.1c4.9,0.1,8.8,4,8.9,8.7c0,1.4-0.3,2.8-1,4l-8,13.2l-8-13.2c-0.6-1.2-1-2.6-1-3.9
						c0-2.4,0.9-4.6,2.7-6.3C279.4,553.9,281.7,553,284.1,553 M284,566.5c2.5,0,4.5-2,4.5-4.5s-2-4.5-4.5-4.5s-4.5,2-4.5,4.5
						S281.5,566.5,284,566.5 M284.1,552c-2.6,0-5.1,1-7,2.8c-1.9,1.9-3,4.3-3,7c0,1.6,0.4,3.1,1.1,4.4l8.1,13.3
						c0.2,0.4,0.6,0.5,0.8,0.5s0.6,0,0.8-0.5l8.1-13.3c0.7-1.4,1.1-2.9,1.1-4.5c0-5.3-4.5-9.7-9.9-9.7H284.1L284.1,552z M284,565.5
						c-1.9,0-3.5-1.6-3.5-3.5s1.6-3.5,3.5-3.5s3.5,1.6,3.5,3.5S285.9,565.5,284,565.5L284,565.5z"/>
				</g>

			</g>
		</a>
		<a id="ldgf117" xlink:href="#">
			<g>
				<path class="st1" d="M588.4,360.7c2.2,0,4-1.8,4-4v-39.6c0-2.2-1.8-4-4-4h-74.5v47.6H588.4z"/>
			</g>
		</a>
		<a id="ldgf118" xlink:href="#">
			<g>
				<path class="st1" d="M570.4,483.2h18c2.2,0,4-1.8,4-4v-90c0-2.2-1.8-4-4-4h-74.5v98H570.4z"/>
			</g>
		</a>
		<a id="ldgf119" xlink:href="#">
			<g>
				<path class="st1" d="M513.9,529.2h56.5c2.2,0,4-1.8,4-4v-36c0-2.2-1.8-4-4-4h-56.5V529.2z"/>
			</g>
		</a>
		<a id="ldgf102" xlink:href="#">
			<g>
				<path class="st1" d="M254.4,233.2h18c2.2,0,4-1.8,4-4v-74h-26v74C250.4,231.4,252.2,233.2,254.4,233.2z"/>
			</g>
		</a>
		<a id="ldgf103" xlink:href="#">
			<g>
				<path class="st1" d="M282.4,233.2h18c2.2,0,4-1.8,4-4v-74h-26v74C278.4,231.4,280.2,233.2,282.4,233.2z"/>
			</g>
		</a>
		<a id="ldgf104" xlink:href="#">
			<g>
				<path class="st1" d="M310.4,233.2h18c2.2,0,4-1.8,4-4v-74h-26v74C306.4,231.4,308.2,233.2,310.4,233.2z"/>
			</g>
		</a>
		<a id="ldgf105" xlink:href="#">
			<g>
				<path class="st1" d="M338.4,233.2h18c2.2,0,4-1.8,4-4v-74h-26v74C334.4,231.4,336.2,233.2,338.4,233.2z"/>
			</g>
		</a>
		<a id="ldgf106" xlink:href="#">
			<g>
				<path class="st1" d="M366.4,233.2h18c2.2,0,4-1.8,4-4v-74h-26v74C362.4,231.4,364.2,233.2,366.4,233.2z"/>
			</g>
		</a>
		<a id="ldgf107" xlink:href="#">
			<g>
				<path class="st1" d="M394.4,233.2h18c2.2,0,4-1.8,4-4v-74h-26v74C390.4,231.4,392.2,233.2,394.4,233.2z"/>
			</g>
		</a>
		<a id="ldgf108" xlink:href="#">
			<g>
				<path class="st1" d="M422.4,233.2h18c2.2,0,4-1.8,4-4v-74h-26v74C418.4,231.4,420.2,233.2,422.4,233.2z"/>
			</g>
		</a>
		<a id="ldgf109" xlink:href="#">
			<g>
				<path class="st1" d="M450.4,233.2h18c2.2,0,4-1.8,4-4v-74h-26v74C446.4,231.4,448.2,233.2,450.4,233.2z"/>
			</g>
		</a>
		<a id="ldgf111" xlink:href="#">
			<g>
				<path class="st1" d="M210,354h34c2.2,0,4-1.8,4-4v-57h-42v57C206,352.2,207.8,354,210,354z"/>
			</g>
		</a>
		<a id="ldgf112" xlink:href="#">
			<g>
				<path class="st1" d="M254,354h34c2.2,0,4-1.8,4-4v-57h-42v57C250,352.2,251.8,354,254,354z"/>
			</g>
		</a>
		<a id="ldgf113" xlink:href="#">
			<g>
				<path class="st1" d="M298,354h34c2.2,0,4-1.8,4-4v-57h-42v57C294,352.2,295.8,354,298,354z"/>
			</g>
		</a>
		<a id="ldgf114" xlink:href="#">
			<g>
				<path class="st1" d="M313.6,553c0,2.2,1.8,4,4,4h58c2.2,0,4-1.8,4-4v-24h-66V553z"/>
			</g>
		</a>
		<a id="ldgf115" xlink:href="#">
			<g>
				<path class="st1" d="M385.6,557h80c2.2,0,4-1.8,4-4v-24h-88v24C381.6,555.2,383.4,557,385.6,557z"/>
			</g>
		</a>
		<a id="ldgf116" xlink:href="#">
			<g>
				<path class="st1" d="M511.5,643h-208v-32c0-3.1,2-5.6,6.5-5.6h201.5V643.2z"/>
			</g>
		</a>
		<a id="ldgf110" xlink:href="#">
			<g>
				<g>
					<path class="st6" d="M164.4,274.2c-2.8,0-5-2.2-5-5v-30c0-2.8,2.2-5,5-5h30c2.8,0,5,2.2,5,5v30c0,2.8-2.2,5-5,5H164.4z"/>
					<path class="st2" d="M194.4,235.2c2.2,0,4,1.8,4,4v30c0,2.2-1.8,4-4,4h-30c-2.2,0-4-1.8-4-4v-30c0-2.2,1.8-4,4-4L194.4,235.2
						 M194.4,233.2h-30c-3.3,0-6,2.7-6,6v30c0,3.3,2.7,6,6,6h30c3.3,0,6-2.7,6-6v-30C200.4,235.9,197.7,233.2,194.4,233.2
						L194.4,233.2z"/>
				</g>
				
					<image style="overflow:visible;enable-background:new;" width="76" height="76" class="i_toilet" id="toilet_x5F_off_3_" xlink:href="./images/2x/toilet_off@2x.png"  transform="matrix(0.5 0 0 0.5 160.4 235.2)">
				</image>
			</g>
		</a>
		<a id="ldgf101" xlink:href="#">
			<g>
				<g>
					<path class="st6" d="M164.4,194.2c-2.8,0-5-2.2-5-5v-30c0-2.8,2.2-5,5-5h30c2.8,0,5,2.2,5,5v30c0,2.8-2.2,5-5,5H164.4z"/>
					<path class="st2" d="M194.4,155.2c2.2,0,4,1.8,4,4v30c0,2.2-1.8,4-4,4h-30c-2.2,0-4-1.8-4-4v-30c0-2.2,1.8-4,4-4H194.4
						 M194.4,153.2h-30c-3.3,0-6,2.7-6,6v30c0,3.3,2.7,6,6,6h30c3.3,0,6-2.7,6-6v-30C200.4,155.9,197.7,153.2,194.4,153.2
						L194.4,153.2z"/>
				</g>
				
					<image style="overflow:visible;enable-background:new;" width="76" height="76" class="i_toilet" id="toilet_x5F_off" xlink:href="./images/2x/toilet_off@2x.png"  transform="matrix(0.5 0 0 0.5 160.4 155.2)">
				</image>
			</g>
		</a>
		<a id="ldgf120" xlink:href="#">
			<g>
				<g>
					<path class="st6" d="M540.6,619c-2.8,0-5-2.2-5-5v-30c0-2.8,2.2-5,5-5h30c2.8,0,5,2.2,5,5v30c0,2.8-2.2,5-5,5H540.6z"/>
					<path class="st2" d="M570.6,580c2.2,0,4,1.8,4,4v30c0,2.2-1.8,4-4,4h-30c-2.2,0-4-1.8-4-4v-30c0-2.2,1.8-4,4-4H570.6
						 M570.6,578h-30c-3.3,0-6,2.7-6,6v30c0,3.3,2.7,6,6,6h30c3.3,0,6-2.7,6-6v-30C576.6,580.7,573.9,578,570.6,578L570.6,578z"/>
				</g>
				
					<image style="overflow:visible;enable-background:new;" width="76" height="76" class="i_toilet" id="toilet_x5F_off_5_" xlink:href="./images/2x/toilet_off@2x.png"  transform="matrix(0.5 0 0 0.5 536.6 580)">
				</image>
			</g>
		</a>
        <a id="shss115" xlink:href="#">
			<g>
				<path class="st1" d="M626.4,17.8C672.6,17,723,32.5,723,32.5l0,127.5c-115.3-0.8-196.4-5.8-209.5-6.6v-21.2 c0-2.2,1.8-4,4-4h9.9c4.4,0,8-3.6,8-8V92.7c0-2.2,1.8-4,4-4h49.3c4.4,0,8-3.6,8-8V70.5c0-4.4-3.6-8-8-8h-49.3c-2.2,0-4-1.8-4-4 V37.8c0-1.6,1-3.1,2.5-3.7c11-4.6,40.9-15.3,80.2-16.2C620.9,17.8,623.7,17.8,626.4,17.8"/>
			</g>
		</a>
        <a id="shss116" xlink:href="#">
            <g>
                <g>
                    <path class="st6" d="M561.6,127.9c-2.8,0-5-2.2-5-5v-30c0-2.8,2.2-5,5-5h30c2.8,0,5,2.2,5,5v30c0,2.8-2.2,5-5,5H561.6z"/>
                    <path class="st2" d="M591.6,88.9c2.2,0,4,1.8,4,4v30c0,2.2-1.8,4-4,4h-30c-2.2,0-4-1.8-4-4v-30c0-2.2,1.8-4,4-4H591.6M591.6,86.9h-30c-3.3,0-6,2.7-6,6v30c0,3.3,2.7,6,6,6h30c3.3,0,6-2.7,6-6v-30C597.6,89.6,594.9,86.9,591.6,86.9L591.6,86.9z"/>
                </g>
                <image style="overflow:visible;enable-background;" width="76" height="76"  class="i_toilet" id="toilet_x5F_off_3" xlink:href="./images/2x/toilet_off@2x.png"  transform="matrix(0.5 0 0 0.5 557.6 88.9)">
                </image>
            </g>
        </a>
        <a id="shss122" xlink:href="#">
            <g>
                <path class="st1" d="M723,32.5c0,0,7.5,2.1,11.3,3.1l2.8,0.8c31.7,8.8,72.5,15.9,99.3,17.2c3.4,0.2,6.1,3,6.1,6.4v22.4v14.4c0,2.2-1.8,4-4,4h-10.9c-1.1,0-2,0.9-2,2v16c0,1.1,0.9,2,2,2h10.9c2.2,0,4,1.8,4,4v34.4c-29.7,0.6-60.1,0.9-90.2,0.9c-10,0-29.3-0.1-29.3-0.1L723,32.5z"/>
            </g>
        </a>
        <a id="shss112" xlink:href="#">
            <g>
                <path class="st1" d="M929.5,51.3c0.6-0.1,15.7-1.7,24.5-8.6c8.3-6.5,25.1-10.2,38-11.1c0.2,0,0.3,0,0.5,0 c1.9,0,3.6,0.7,5,2c1.5,1.4,2.3,3.3,2.3,5.4v30.8h-68c-4.1,0-7.4-3.3-7.4-7.4v-11C926.1,51.4,927.8,51.3,929.5,51.3z"/>
            </g>
        </a>
        <a id="magf121" xlink:href="#">
            <g>
                <path class="st1" d="M950.8,71.8h49v36.4h-41.6c-4.1,0-7.4-3.3-7.4-7.4V71.8z"/>
            </g>
        </a>
        <a id="magf118" xlink:href="#">
            <g>
               <path class="st1" d="M1099,118c2.2,0,4,1.8,4,4v30.1l-46,1.8V122c0-2.2,1.8-4,4-4H1099"/>
            </g>
        </a>
        <a id="shss113" xlink:href="#">
            <g>
                <path class="st1" d="M859,159V59.9c0-4.1,3.3-7.4,7.3-7.4c8.5-0.1,26.8-0.3,56.1-1v10.9c0,5.2,4.2,9.4,9.4,9.4h17v29 c0,5.2,4.2,9.4,9.4,9.4h41.6v45.6C942.4,157.9,868.5,158.9,859,159z"/>
            </g>
        </a>
	</g>
    <g id="Elevator_10">
        <g>
            <g>
                <path class="st1" d="M1150,150.2c-2.8,0-5-2.2-5-5v-30c0-2.8,2.2-5,5-5h30c2.8,0,5,2.2,5,5v30c0,2.8-2.2,5-5,5H1150z"/>
                <path class="st2" d="M1180,111.2c2.2,0,4,1.8,4,4v30c0,2.2-1.8,4-4,4h-30c-2.2,0-4-1.8-4-4v-30c0-2.2,1.8-4,4-4H1180        M1180,109.2h-30c-3.3,0-6,2.7-6,6v30c0,3.3,2.7,6,6,6h30c3.3,0,6-2.7,6-6v-30C1186,111.9,1183.3,109.2,1180,109.2L1180,109.2z       "/>
            </g>
        <image style="overflow:visible;enable-background;" width="76" height="76" class="i_elevator" id="elevator_x5F_off" xlink:href="./images/2x/elevator_off@2x.png"  transform="matrix(0.5 0 0 0.5 1146 111)">
        </image>
        </g>
    </g>
    <g id="Exit_14">
        <g>
            <g>
                <path class="st6" d="M539.6,127.9c-2.8,0-5-2.2-5-5v-30c0-2.8,2.2-5,5-5h12c2.8,0,5,2.2,5,5v30c0,2.8-2.2,5-5,5H539.6z"/>
                <path class="st2" d="M551.6,88.9c2.2,0,4,1.8,4,4v30c0,2.2-1.8,4-4,4h-12c-2.2,0-4-1.8-4-4v-30c0-2.2,1.8-4,4-4H551.6       M551.6,86.9h-12c-3.3,0-6,2.7-6,6v30c0,3.3,2.7,6,6,6h12c3.3,0,6-2.7,6-6v-30C557.6,89.6,554.9,86.9,551.6,86.9L551.6,86.9z"/>
            </g>
        <image style="overflow:visible;enable-background:new;" width="40" height="76" id="stairs_x5F_off_8_" xlink:href="./images/2x/stairs_off@2x.png" class="i_stairs"  transform="matrix(0.5 0 0 0.5 535.5 88.5)">
        </image>
        </g>
    </g>
    <a id="shss114" xlink:href="#">
        <g>
            <g>
                <path class="st6" d="M808.6,160c-2.8,0-5-2.2-5-5v-30c0-2.8,2.2-5,5-5h30c2.8,0,5,2.2,5,5v30c0,2.8-2.2,5-5,5H808.6z"/>
                <path class="st2" d="M838.6,121c2.2,0,4,1.8,4,4v30c0,2.2-1.8,4-4,4h-30c-2.2,0-4-1.8-4-4v-30c0-2.2,1.8-4,4-4H838.6        M838.6,119h-30c-3.3,0-6,2.7-6,6v30c0,3.3,2.7,6,6,6h30c3.3,0,6-2.7,6-6v-30C844.6,121.7,841.9,119,838.6,119L838.6,119z"/>
            </g>
            <image style="overflow:visible;enable-background;" width="76" height="76"  class="i_toilet" id="toilet_x5F_off_3" xlink:href="./images/2x/toilet_off@2x.png"  transform="matrix(0.5 0 0 0.5 804.6 120.9)">
            </image>
        </g>
    </a>
    <g id="Exit_10">
        <g>
            <path class="st6" d="M826.6,102.2c-2.8,0-5-2.2-5-5v-30c0-2.8,2.2-5,5-5h12c2.8,0,5,2.2,5,5v30c0,2.8-2.2,5-5,5H826.6z"/>
            <path class="st2" d="M838.6,63.2c2.2,0,4,1.8,4,4v30c0,2.2-1.8,4-4,4h-12c-2.2,0-4-1.8-4-4v-30c0-2.2,1.8-4,4-4L838.6,63.2       M838.6,61.2h-12c-3.3,0-6,2.7-6,6v30c0,3.3,2.7,6,6,6h12c3.3,0,6-2.7,6-6v-30C844.6,63.9,841.9,61.2,838.6,61.2L838.6,61.2z"/>
        </g>
        <image style="overflow:visible;enable-background:new;" width="40" height="76" id="stairs_x5F_off_8_" xlink:href="./images/2x/stairs_off@2x.png" class="i_stairs"  transform="matrix(0.5 0 0 0.5 822.5 63)">
        </image>
    </g>
    <a id="magf122" xlink:href="#">
        <g>
            <path class="st6" d="M965.8,156.9c-2.8,0-5-2.2-5-5v-30c0-2.8,2.2-5,5-5h30c2.8,0,5,2.2,5,5v30c0,2.8-2.2,5-5,5H965.8z"/>
            <path class="st2" d="M995.8,117.9c2.2,0,4,1.8,4,4v30c0,2.2-1.8,4-4,4h-30c-2.2,0-4-1.8-4-4v-30c0-2.2,1.8-4,4-4H995.8         M995.8,115.9h-30c-3.3,0-6,2.7-6,6v30c0,3.3,2.7,6,6,6h30c3.3,0,6-2.7,6-6v-30C1001.8,118.6,999.1,115.9,995.8,115.9        L995.8,115.9z"/>
        </g>
        <image style="overflow: visible; pointer-events: auto;" width="76" height="76" class="i_hospi" id="hospi_x5F_off" xlink:href="./images/2x/hospi_off@2x.png" transform="matrix(0.5 0 0 0.5 962 117.7)">
        </image>
    </a>
    <line id="ma_x5F_line" class="st4" x1="723" y1="31.6" x2="723" y2="161.6"/>
	<g>
		<g id="Exit_19_">
			<g>
				<path class="st6" d="M164,332c-2.8,0-5-2.2-5-5v-30c0-2.8,2.2-5,5-5h12c2.8,0,5,2.2,5,5v30c0,2.8-2.2,5-5,5H164z"/>
				<path class="st2" d="M176,293c2.2,0,4,1.8,4,4v30c0,2.2-1.8,4-4,4h-12c-2.2,0-4-1.8-4-4v-30c0-2.2,1.8-4,4-4H176 M176,291h-12
					c-3.3,0-6,2.7-6,6v30c0,3.3,2.7,6,6,6h12c3.3,0,6-2.7,6-6v-30C182,293.7,179.3,291,176,291L176,291z"/>
			</g>
			
				<image style="overflow:visible;enable-background:new;" width="40" height="76" id="stairs_x5F_off_8_" xlink:href="./images/2x/stairs_off@2x.png" class="i_stairs"  transform="matrix(0.5 0 0 0.5 160 293)">
			</image>
		</g>
		<g id="Exit_18_">
			<g>
				<path class="st6" d="M517.6,225.4c-2.8,0-5-2.2-5-5v-30c0-2.8,2.2-5,5-5h12c2.8,0,5,2.2,5,5v30c0,2.8-2.2,5-5,5H517.6z"/>
				<path class="st2" d="M529.6,186.4c2.2,0,4,1.8,4,4v30c0,2.2-1.8,4-4,4h-12c-2.2,0-4-1.8-4-4v-30c0-2.2,1.8-4,4-4H529.6
					 M529.6,184.4h-12c-3.3,0-6,2.7-6,6v30c0,3.3,2.7,6,6,6h12c3.3,0,6-2.7,6-6v-30C535.6,187.1,532.9,184.4,529.6,184.4
					L529.6,184.4z"/>
			</g>
			
				<image style="overflow:visible;enable-background:new;" width="40" height="76" id="stairs_x5F_off_1_" xlink:href="./images/2x/stairs_off@2x.png" class="i_stairs"  transform="matrix(0.5 0 0 0.5 513.574 186.4)">
			</image>
		</g>
		<g id="Exit_17_">
			<g>
				<path class="st6" d="M164.4,234.2c-2.8,0-5-2.2-5-5v-30c0-2.8,2.2-5,5-5h12c2.8,0,5,2.2,5,5v30c0,2.8-2.2,5-5,5H164.4z"/>
				<path class="st2" d="M176.4,195.2c2.2,0,4,1.8,4,4v30c0,2.2-1.8,4-4,4h-12c-2.2,0-4-1.8-4-4v-30c0-2.2,1.8-4,4-4H176.4
					 M176.4,193.2h-12c-3.3,0-6,2.7-6,6v30c0,3.3,2.7,6,6,6h12c3.3,0,6-2.7,6-6v-30C182.4,195.9,179.7,193.2,176.4,193.2
					L176.4,193.2z"/>
			</g>
		</g>
		
			<image style="overflow:visible;enable-background:new;" width="40" height="76" id="stairs_x5F_off" xlink:href="./images/2x/stairs_off@2x.png" class="i_stairs"  transform="matrix(0.5 0 0 0.5 160.4 195.2)">
		</image>
		<g id="Exit_16_">
			<g>
				<path class="st6" d="M540.6,579c-2.8,0-5-2.2-5-5v-30c0-2.8,2.2-5,5-5h12c2.8,0,5,2.2,5,5v30c0,2.8-2.2,5-5,5H540.6z"/>
				<path class="st2" d="M552.6,540c2.2,0,4,1.8,4,4v30c0,2.2-1.8,4-4,4h-12c-2.2,0-4-1.8-4-4v-30c0-2.2,1.8-4,4-4H552.6 M552.6,538
					h-12c-3.3,0-6,2.7-6,6v30c0,3.3,2.7,6,6,6h12c3.3,0,6-2.7,6-6v-30C558.6,540.7,555.9,538,552.6,538L552.6,538z"/>
			</g>
			
				<image style="overflow:visible;enable-background:new;" width="40" height="76" id="stairs_x5F_off_4_" xlink:href="./images/2x/stairs_off@2x.png" class="i_stairs"  transform="matrix(0.5 0 0 0.5 536.6 540)">
			</image>
		</g>
		<g id="Exit_15_">
			<g>
				<path class="st6" d="M220.8,455.2c-2.8,0-5-2.2-5-5v-30c0-2.8,2.2-5,5-5h12c2.8,0,5,2.2,5,5v30c0,2.8-2.2,5-5,5H220.8z"/>
				<path class="st2" d="M232.8,416.2c2.2,0,4,1.8,4,4v30c0,2.2-1.8,4-4,4h-12c-2.2,0-4-1.8-4-4v-30c0-2.2,1.8-4,4-4H232.8
					 M232.8,414.2h-12c-3.3,0-6,2.7-6,6v30c0,3.3,2.7,6,6,6h12c3.3,0,6-2.7,6-6v-30C238.8,416.9,236.1,414.2,232.8,414.2
					L232.8,414.2z"/>
			</g>
			
				<image style="overflow:visible;enable-background:new;" width="40" height="76" id="stairs_x5F_off_6_" xlink:href="./images/2x/stairs_off@2x.png" class="i_stairs"  transform="matrix(0.5 0 0 0.5 216.8 416.2)">
			</image>
		</g>
		<g id="Spotname" class="spotname">
			<text id="ldgf117" text-anchor="middle" transform="matrix(1 0 0 1 553 341)" class="st2 st11 st12">플레이 타임</text>
			<text id="ldgf118" text-anchor="middle" transform="matrix(1 0 0 1 553 438)" class="st2 st11 st12">랜딩 다이닝</text>
			<text id="ldgf119" text-anchor="middle" transform="matrix(1 0 0 1 544 512)" class="st2 st11 st12">랜딩 델리</text>
			<g>
				<text id="ldgf102" text-anchor="middle" transform="matrix(1 0 0 1 264 187)" class="st2 st11 st13">영실룸</text>
			</g>
			<g>
				<text id="ldgf103" text-anchor="middle" transform="matrix(1 0 0 1 291 187)" class="st2 st11 st13">어리목룸</text>
			</g>
			<g>
				<text id="ldgf104" text-anchor="middle" transform="matrix(1 0 0 1 319 187)" class="st2 st11 st13">백록룸</text>
			</g>
			<g>
				<text id="ldgf105" text-anchor="middle" transform="matrix(1 0 0 1 347 187)" class="st2 st11 st13">영주룸</text>
			</g>
			<g>
				<text id="ldgf106" text-anchor="middle" transform="matrix(1 0 0 1 375 187)" class="st2 st11 st13">올레룸</text>
			</g>
			<g>
				<text id="ldgf107" text-anchor="middle" transform="matrix(1 0 0 1 404 187)" class="st2 st11 st13">우도룸</text>
			</g>
			<g>
				<text id="ldgf108" text-anchor="middle" transform="matrix(1 0 0 1 431 187)" class="st2 st11 st13">성산룸</text>
			</g>
			<g>
				<text id="ldgf109" text-anchor="middle" transform="matrix(1 0 0 1 459 187)" class="st2 st11 st13">안덕룸</text>
			</g>
			<text id="ldgf114" text-anchor="middle" transform="matrix(1 0 0 1 347 547)" class="st2 st11 st12">컨시어지</text>
			<text id="ldgf115" text-anchor="middle" transform="matrix(1 0 0 1 426 547)" class="st2 st11 st12">프론트 데스크</text>
			<text id="ldgf116" text-anchor="middle" transform="matrix(1 0 0 1 408 628)" class="st2 st11 st12">랜딩 라운지</text>
			<text id="lobbyLdGf" text-anchor="middle" transform="matrix(1 0 0 1 396 584)" class="st2 st11 st12">랜딩관 로비</text>
			<text id="ldgf111" text-anchor="middle" transform="matrix(1 0 0 1 227 320)"><tspan x="0" y="0" class="st2 st11 st12">한라룸</tspan><tspan x="0" y="14" class="st2 st11 st12">A</tspan></text>
			<text id="ldgf112" text-anchor="middle" transform="matrix(1 0 0 1 271 320)"><tspan x="0" y="0" class="st2 st11 st12">한라룸</tspan><tspan x="0" y="14" class="st2 st11 st12">B</tspan></text>
			<text id="ldgf113" text-anchor="middle" transform="matrix(1 0 0 1 315 320)"><tspan x="0" y="0" class="st2 st11 st12">한라룸</tspan><tspan x="0" y="14" class="st2 st11 st12">C</tspan></text>
            <text id="ldballom" text-anchor="middle" transform="matrix(1 0 0 1 414 406)"><tspan x="0" y="0" class="st18 st11 st12">랜딩 볼룸</tspan><tspan x="0" y="14" class="st18 st11 st12">(LGF)</tspan></text>
			<!-- <text id="ldlgf102" text-anchor="middle" transform="matrix(1 0 0 1 414 355)"><tspan x="0" y="0" class="st2 st11 st12">랜딩 볼룸 A</tspan><tspan x="0" y="14" class="st2 st11 st12">(LGF)</tspan></text>
			<text id="ldlgf103" text-anchor="middle" transform="matrix(1 0 0 1 414 407)"><tspan x="0" y="0" class="st2 st11 st12">랜딩 볼룸 B</tspan><tspan x="0" y="14" class="st2 st11 st12">(LGF)</tspan></text>
			<text id="ldlgf104" text-anchor="middle" transform="matrix(1 0 0 1 414 459)"><tspan x="0" y="0" class="st2 st11 st12">랜딩 볼룸 C</tspan><tspan x="0" y="14" class="st2 st11 st12">(LGF)</tspan></text> //-->
            <text id="shss117" text-anchor="middle" transform="matrix(1 0 0 1 364 -8)" class="st2 st11 st12">스무디킹</text>
            <text id="magf119" text-anchor="middle" transform="matrix(1 0 0 1 450 -10)" class="st2 st11 st12">앤티앤스</text>
            <text id="shss119" text-anchor="middle" transform="matrix(1 0 0 1 374 10)" class="st2 st11 st12">왔다 스트리트 푸드</text>
            <text id="shss120" text-anchor="middle" transform="matrix(1 0 0 1 460 20)" class="st2 st11 st12">아주약국</text>
            <text id="shss121" text-anchor="middle" transform="matrix(1 0 0 1 524 -10)" class="st2 st11 st12">다만 프레르</text>
            <text id="magf119" text-anchor="middle" transform="matrix(1 0 0 1 1034 -10)" class="st2 st11 st12">엠 라운지</text>
            <!--메리어트관 장소추가 시작-->
            <text id="shss115" text-anchor="middle" transform="matrix(1 0 0 1 658 98)" class="st2 st11 st12">크랩통</text>
            <text id="shss122" text-anchor="middle" transform="matrix(1 0 0 1 776 98)"><tspan x="0" y="0" class="st2 st11 st12">제주관광공사</tspan><tspan x="0" y="14" class="st2 st11 st12">신화월드 면세점</tspan></text>
            <text id="shss113" text-anchor="middle" transform="matrix(1 0 0 1 904 98)"><tspan x="0" y="0" class="st2 st11 st12">제주관광공사</tspan><tspan x="0" y="14" class="st2 st11 st12">신화월드 면세점</tspan></text>
            <text id="shss112" text-anchor="middle" transform="matrix(1 0 0 1 962 64)" class="st2 st11 st12">프랭크 뮬러</text>
			<text id="magf121" text-anchor="middle" transform="matrix(1 0 0 1 976 87)"><tspan x="0" y="0" class="st2 st11 st12">디자인</tspan><tspan x="0" y="14" class="st2 st11 st12">오키즘</tspan></text>
            <text id="magf118" text-anchor="middle" transform="matrix(1 0 0 1 1080 140)" class="st2 st11 st12">베레종</text>
            <!--메리어트관 장소추가 끝-->
            <text id="shspstreet" text-anchor="middle" transform="matrix(6.12e-17 1 -1 6.12e-17 500 196)" class="st2 st11 st12">신화쇼핑스트리트</text>
            <text id="shspstreet" text-anchor="middle" transform="matrix(-1.8e-16 -1 1 -1.8e-16 144 196)" class="st2 st11 st12">신화쇼핑스트리트</text>
		</g>
        <g id="arrow01">
				<g>
					<line class="st19" x1="148" y1="138.8" x2="148" y2="161.7"/>
					<g>
						<polygon class="st2" points="140.6,144.5 148,141.3 155.4,144.5 148,126.9"/>
					</g>
				</g>
        </g>
        <g id="arrow02">
				<g>
					<line class="st19" x1="496" y1="138.8" x2="496" y2="161.7"/>
					<g>
						<polygon class="st2" points="488.6,144.5 496,141.3 503.4,144.5 496,126.9"/>
					</g>
				</g>
        </g>
	</g>
	<g id="Portals">
		<line id="Wayout.2.floorGfMa" class="st14" x1="148" y1="145" x2="155" y2="138"/>
		<line id="Wayout.3.floorGfMa" class="st14" x1="496" y1="145" x2="503" y2="138"/>
		<line id="Wayout.4.floorGfZOM" class="st14" x1="162" y1="489" x2="169" y2="482"/>
		<line id="Wayout.6.floorGfAtr" class="st14" x1="162" y1="489" x2="169" y2="482"/>
		<line id="Elev.5.floorMaF101" class="st14" x1="519" y1="245" x2="526" y2="238"/>
		<line id="Stair.2.floorLGFLd" class="st14" x1="356" y1="306" x2="363" y2="299"/>


		<!-- <line id="Elev.5.floorMaF101" class="st14" x1="229" y1="227" x2="236" y2="220"/> -->
		<line id="Elev.6.floorLGFLd" class="st14" x1="166" y1="351" x2="173" y2="344"/>
		<line id="Elev.7.floorLGFLd" class="st14" x1="396" y1="306" x2="403" y2="299"/>
		<!-- <line id="Elev.8.floor3_1_" class="st14" x1="542" y1="640" x2="549" y2="633"/> -->
	</g>
	<g id="Doors">
		<line id="ldgf101" class="st15" x1="166" y1="176" x2="173" y2="169"/>
		<line id="ldgf102" class="st15" x1="264" y1="227" x2="271" y2="220"/>
		<line id="ldgf103" class="st15" x1="291" y1="227" x2="298" y2="220"/>
		<line id="ldgf104" class="st15" x1="319" y1="227" x2="326" y2="220"/>
		<line id="ldgf105" class="st15" x1="347" y1="227" x2="354" y2="220"/>
		<line id="ldgf106" class="st15" x1="375" y1="227" x2="382" y2="220"/>
		<line id="ldgf107" class="st15" x1="404" y1="227" x2="411" y2="220"/>
		<line id="ldgf108" class="st15" x1="432" y1="227" x2="439" y2="220"/>
		<line id="ldgf109" class="st15" x1="459" y1="227" x2="466" y2="220"/>
		<line id="ldgf110" class="st15" x1="166" y1="255" x2="173" y2="248"/>
		<line id="ldgf111" class="st15" x1="220" y1="308" x2="227" y2="301"/>
		<line id="ldgf112" class="st15" x1="264" y1="308" x2="271" y2="301"/>
		<line id="ldgf113" class="st15" x1="308" y1="308" x2="315" y2="301"/>
		<line id="lobbyLdGf" class="st15" x1="277" y1="574" x2="284" y2="567"/>
		<line id="ldgf114" class="st15" x1="348" y1="553" x2="355" y2="546"/>
		<line id="ldgf115" class="st15" x1="426" y1="553" x2="433" y2="546"/>
		<line id="ldgf116" class="st15" x1="436" y1="617" x2="443" y2="610"/>
		<line id="ldgf117" class="st15" x1="519" y1="338" x2="526" y2="331"/>
		<line id="ldgf118" class="st15" x1="519" y1="436" x2="526" y2="429"/>
		<line id="ldgf119" class="st15" x1="519" y1="508" x2="526" y2="501"/>
		<line id="ldgf120" class="st15" x1="542" y1="599" x2="549" y2="592"/>
	</g>
	<g id="Paths">
		<line class="st16" x1="496" y1="245" x2="496" y2="145"/>
		<line class="st16" x1="496" y1="281" x2="496" y2="245"/>
		<line class="st16" x1="496" y1="338" x2="496" y2="281"/>
		<line class="st16" x1="496" y1="436" x2="496" y2="338"/>
		<line class="st16" x1="496" y1="508" x2="496" y2="436"/>
		<line class="st16" x1="496" y1="565" x2="496" y2="508"/>
		<line class="st16" x1="524" y1="599" x2="524" y2="565"/>
		<line class="st16" x1="524" y1="640" x2="524" y2="599"/>
		<line class="st16" x1="148" y1="176" x2="148" y2="145"/>
		<line class="st16" x1="148" y1="255" x2="148" y2="176"/>
		<line class="st16" x1="148" y1="351" x2="148" y2="281"/>
		<line class="st16" x1="148" y1="281" x2="148" y2="255"/>
		<line class="st16" x1="148" y1="378" x2="148" y2="351"/>
		<line class="st16" x1="166" y1="393" x2="148" y2="378"/>
		<line class="st16" x1="184" y1="410" x2="166" y2="393"/>
		<line class="st16" x1="202" y1="430" x2="184" y2="410"/>
		<line class="st16" x1="208" y1="453" x2="202" y2="430"/>
		<line class="st16" x1="228" y1="479" x2="208" y2="453"/>
		<line class="st16" x1="243" y1="503" x2="228" y2="479"/>
		<line class="st16" x1="258" y1="533" x2="243" y2="503"/>
		<line class="st16" x1="292" y1="548" x2="258" y2="533"/>
		<line class="st16" x1="318" y1="565" x2="292" y2="548"/>
		<line class="st16" x1="292" y1="548" x2="284" y2="567"/>
		<line class="st16" x1="348" y1="565" x2="318" y2="565"/>
		<line class="st16" x1="426" y1="565" x2="348" y2="565"/>
		<line class="st16" x1="443" y1="565" x2="426" y2="565"/>
		<line class="st16" x1="496" y1="565" x2="443" y2="565"/>
		<line class="st16" x1="348" y1="565" x2="348" y2="553"/>
		<line class="st16" x1="426" y1="565" x2="426" y2="553"/>
		<line class="st16" x1="443" y1="610" x2="443" y2="565"/>
		<line class="st16" x1="166" y1="176" x2="148" y2="176"/>
		<line class="st16" x1="166" y1="255" x2="148" y2="255"/>
		<line class="st16" x1="166" y1="351" x2="148" y2="351"/>
		<line class="st16" x1="264" y1="245" x2="264" y2="227"/>
		<line class="st16" x1="229" y1="245" x2="229" y2="227"/>
		<line class="st16" x1="227" y1="281" x2="229" y2="245"/>
		<line class="st16" x1="227" y1="301" x2="227" y2="281"/>
		<line class="st16" x1="271" y1="301" x2="271" y2="281"/>
		<line class="st16" x1="315" y1="301" x2="315" y2="281"/>
		<line class="st16" x1="363" y1="299" x2="363" y2="281"/>
		<line class="st16" x1="403" y1="299" x2="403" y2="281"/>
		<line class="st16" x1="291" y1="245" x2="291" y2="227"/>
		<line class="st16" x1="319" y1="245" x2="319" y2="227"/>
		<line class="st16" x1="347" y1="245" x2="347" y2="227"/>
		<line class="st16" x1="375" y1="245" x2="375" y2="227"/>
		<line class="st16" x1="404" y1="245" x2="404" y2="227"/>
		<line class="st16" x1="432" y1="245" x2="432" y2="227"/>
		<line class="st16" x1="459" y1="245" x2="459" y2="227"/>
		<line class="st16" x1="148" y1="281" x2="227" y2="281"/>
		<line class="st16" x1="227" y1="281" x2="271" y2="281"/>
		<line class="st16" x1="271" y1="281" x2="315" y2="281"/>
		<line class="st16" x1="315" y1="281" x2="363" y2="281"/>
		<line class="st16" x1="363" y1="281" x2="403" y2="281"/>
		<line class="st16" x1="229" y1="245" x2="264" y2="245"/>
		<line class="st16" x1="264" y1="245" x2="291" y2="245"/>
		<line class="st16" x1="291" y1="245" x2="319" y2="245"/>
		<line class="st16" x1="319" y1="245" x2="347" y2="245"/>
		<line class="st16" x1="347" y1="245" x2="375" y2="245"/>
		<line class="st16" x1="375" y1="245" x2="404" y2="245"/>
		<line class="st16" x1="404" y1="245" x2="432" y2="245"/>
		<line class="st16" x1="432" y1="245" x2="459" y2="245"/>
		<line class="st16" x1="496" y1="245" x2="519" y2="245"/>
		<line class="st16" x1="496" y1="338" x2="519" y2="338"/>
		<line class="st16" x1="496" y1="436" x2="519" y2="436"/>
		<line class="st16" x1="496" y1="508" x2="519" y2="508"/>
		<line class="st16" x1="496" y1="565" x2="524" y2="565"/>
		<line class="st16" x1="524" y1="599" x2="542" y2="599"/>
		<line class="st16" x1="524" y1="640" x2="542" y2="640"/>
		<line class="st16" x1="459" y1="245" x2="496" y2="245"/>
		<line class="st16" x1="403" y1="281" x2="496" y2="281"/>
		<line class="st16" x1="169" y1="482" x2="208" y2="453"/>
	</g>
</g>
</svg>
