<?xml version="1.0" encoding="utf-8"?>
<!-- Generator: Adobe Illustrator 23.0.0, SVG Export Plug-In . SVG Version: 6.00 Build 0)  -->
<svg version="1.1" xmlns="http://www.w3.org/2000/svg" xmlns:xlink="http://www.w3.org/1999/xlink" x="0px" y="0px"
	 viewBox="0 0 1400 730" style="enable-background:new 0 0 1400 730;" xml:space="preserve" width="1400px" height="730px" id="maf101">
<style type="text/css">
	#maf101 .st0{fill:#CBD5DD;}
	#maf101 .st1{fill:#EAEAEA;}
	#maf101 .st2{fill:#A5855B;}
	#maf101 .st3{fill:#7EB6CE;}
	#maf101 .st4{fill:#FFFFFF;}
	#maf101 .st5{fill:url(#SVGID_1f);}
	#maf101 .st6{fill:url(#SVGID_1f2);}
	#maf101 .st7{fill:#EF405C;}
	#maf101 .st8{fill:#C72D46;}
	#maf101 .st9{font-family:'NotoSans';}
	#maf101 .st10{font-size:12px;}
	#maf101 .st11{fill:none;stroke:#FF00FF;}
	#maf101 .st12{fill:none;stroke:#00FF00;}
	#maf101 .st13{fill:none;stroke:#EF405C;}
</style>
<g id="BG">
	<rect class="st0" width="1400" height="730"/>
</g>
<g id="Base">
	<g id="Marriott_Base02">
		<path class="st1" d="M520.5,1209.9c-4.4,0-7.9-3.4-7.9-7.7v-698c66.7,4.4,148.3,6.6,242.6,6.6c268.8,0,560.8-18,580.8-19.3v436.6
			c0,1.3-0.5,2.6-1.4,3.5l-273.7,276.8c-0.9,0.9-2.2,1.5-3.6,1.5H520.5z"/>
		<path class="st2" d="M1335,492.6v435.5c0,1.1-0.4,2.1-1.2,2.8l-273.7,276.8c-0.7,0.8-1.8,1.2-2.8,1.2H520.5c-3.8,0-6.9-3-6.9-6.7
			V505.3c66.5,4.3,147.8,6.5,241.6,6.5C1020.1,511.8,1307.5,494.3,1335,492.6 M1337,490.5c0,0-301.5,19.3-581.8,19.3
			c-86.4,0-170.7-1.8-243.6-6.6v699c0,4.8,4,8.7,8.9,8.7h536.7c1.6,0,3.1-0.6,4.3-1.8l273.7-276.8c1.1-1.1,1.7-2.6,1.7-4.2V490.5
			L1337,490.5z"/>
	</g>
	<g id="Marriott_Base01">
		<path class="st1" d="M273.9,944.8c-3.2,0-5.7-2.5-5.9-5.7c-0.6-11-5-32.5-15.1-46.4c-1.3-1.8-3.4-2.9-5.7-2.9
			c-1.2,0-2.4,0.3-3.5,0.9l-6.6,3.8c-0.8,0.4-1.6,0.7-2.5,0.7c-1.8,0-3.4-1-4.3-2.5L209,855.8c-0.7-1.2-0.8-2.5-0.5-3.8
			c0.3-1.3,1.2-2.4,2.3-3l9.9-5.7c0.7-0.4,1.2-1.1,1.4-1.9c0.2-0.8,0.1-1.6-0.4-2.3c-1.6-2.5-3.2-5.1-4.8-7.5
			c-0.6-0.9-1.5-1.4-2.5-1.4c-0.6,0-1.2,0.2-1.7,0.6l-9.8,7c-0.9,0.6-1.9,0.9-2.9,0.9c-1.6,0-3.1-0.8-4.1-2.1L171.2,802
			c-1.6-2.2-1.1-5.4,1.2-7l9-6.4c0.7-0.5,1.1-1.2,1.2-2.1c0.1-0.8-0.1-1.7-0.7-2.3c-2.2-2.6-4.4-5.2-6.6-7.7c-0.6-0.6-1.4-1-2.3-1
			c-0.8,0-1.5,0.3-2.1,0.8l-8.2,7.7c-0.9,0.9-2.1,1.3-3.4,1.3h0c-1.4,0-2.7-0.6-3.6-1.6c-3.3-3.5-8.5-9.1-13.8-14.7
			c-5.3-5.7-10.8-11.5-14.6-15.6c-1.4-1.5-2.1-2.9-2-4.3c0.1-1.4,0.8-2.8,2.3-4.2l2.4-2.3c1.5-1.4,2.3-3.3,2.2-5.4
			c-0.1-2-1-3.9-2.6-5.2c-8.6-6.8-16.6-12.3-23.9-16.3c-2-1.1-3.8-4.1-3.8-6.4v-326c0-5.1-4.2-9.3-9.3-9.4l-27.5-0.4
			c-4-0.1-7.3-3.4-7.3-7.4v-61.3c0-4.1,3.3-7.4,7.4-7.4h6.8c4.7,0,8.6-3.9,8.6-8.6c0-2,0.7-3.8,2-5.2c1.3-1.4,3.2-2.2,5.1-2.2
			c0.7,0,1.4,0.1,2.1,0.3l0.1,0l111.8,8.5c0.9,0.3,1.7,0.4,2.6,0.4c2.8,0,5.5-1.4,7.3-3.6c1.7-2.3,2.3-5.2,1.5-8l-18.8-67.2
			c-0.8-2.9,0.2-6,2.5-7.8c31.7-24.9,158-54.7,579.7-55.2c3.9,0,392.3,3.6,554.7,12.9c2.6,0.1,4.7,2.3,4.7,5v325.2
			c-19.4,1.2-328.7,19.2-592.1,19.2c-92.9,0-170.3-2.2-230-6.7l-1.1-0.1v440.5H273.9z"/>
		<path class="st2" d="M776.6,149.8L776.6,149.8c4,0,392.3,3.6,554.6,12.9c2.1,0.1,3.8,1.9,3.8,4l0,324.3
			c-26.8,1.6-331.3,19.1-591.1,19.1c-92.9,0-170.2-2.2-229.9-6.7l-2.1-0.2v2.2v438.4h-238l-0.1,0c-2.6,0-4.7-2.1-4.8-4.8
			c-0.5-9.6-4.3-31.7-15.3-47c-1.5-2.1-3.9-3.3-6.5-3.3c-1.4,0-2.8,0.4-4,1.1l-6.6,3.8c-0.6,0.4-1.3,0.5-2,0.5c-1.4,0-2.8-0.8-3.5-2
			l-21.3-36.8c-1.1-1.9-0.4-4.4,1.5-5.5l9.9-5.7c0.9-0.5,1.6-1.5,1.9-2.5c0.3-1.1,0.1-2.2-0.5-3.1c-1.6-2.5-3.2-5.1-4.8-7.5
			c-0.7-1.1-2-1.8-3.4-1.8c-0.8,0-1.6,0.3-2.3,0.7l-9.8,7c-0.7,0.5-1.5,0.7-2.3,0.7c-1.3,0-2.5-0.6-3.3-1.7l-24.7-34.6
			c-1.3-1.8-0.9-4.3,0.9-5.6l9-6.4c0.9-0.6,1.5-1.7,1.7-2.8c0.1-1.1-0.2-2.2-0.9-3.1c-2.2-2.7-4.5-5.3-6.6-7.8
			c-0.8-0.9-1.9-1.4-3-1.4c-1,0-2,0.4-2.7,1.1l-8.2,7.7c-0.7,0.7-1.7,1.1-2.7,1.1c-1.1,0-2.2-0.4-2.9-1.3
			c-3.3-3.6-8.6-9.1-13.9-14.8c-5.3-5.7-10.7-11.4-14.5-15.5c-1.2-1.3-1.8-2.5-1.7-3.6c0-1.1,0.7-2.3,2-3.5l2.4-2.3
			c1.7-1.6,2.6-3.8,2.5-6.2c-0.1-2.3-1.2-4.5-3-5.9c-8.6-6.9-16.7-12.4-24-16.4c-1.7-0.9-3.3-3.6-3.3-5.5v-326
			c0-5.6-4.6-10.3-10.2-10.4l-27.5-0.4c-3.5-0.1-6.3-2.9-6.3-6.4v-61.3c0-3.5,2.9-6.4,6.4-6.4h6.8c5.3,0,9.6-4.3,9.6-9.6v0l0,0
			c0-1.7,0.6-3.2,1.7-4.4c1.2-1.2,2.8-1.9,4.4-1.9c0.6,0,1.2,0.1,1.8,0.3l0.2,0.1l0.2,0l111.5,8.5c0.9,0.3,1.9,0.4,2.8,0.4
			c3.1,0,6.1-1.5,8.1-4c1.9-2.5,2.5-5.8,1.7-8.8l-18.8-67.2c-0.7-2.5,0.2-5.1,2.2-6.7c17-13.4,56.9-24.6,118.5-33.3
			C416.3,157.4,571.3,150.1,776.6,149.8 M776.6,147.8c-476.1,0.6-559.3,38.9-580.3,55.4c-2.7,2.1-3.8,5.6-2.9,8.8l18.8,67.2
			c1.5,5.4-2.7,10.3-7.8,10.3c-0.8,0-1.6-0.1-2.4-0.4l-111.8-8.5c-0.8-0.2-1.6-0.4-2.4-0.4c-4.4,0-8.2,3.6-8.1,8.3
			c0,4.2-3.4,7.6-7.6,7.6h-6.8c-4.6,0-8.4,3.8-8.4,8.4V366c0,4.6,3.7,8.3,8.3,8.4l27.5,0.4c4.6,0.1,8.3,3.8,8.3,8.4v326
			c0,2.7,1.9,6,4.3,7.3c8,4.3,16.1,10.1,23.7,16.2c2.9,2.3,3,6.6,0.4,9.1l-2.4,2.3c-3.4,3.2-3.6,6.5-0.4,9.9
			c7.6,8.1,21.8,23.2,28.4,30.3c1.2,1.3,2.8,1.9,4.4,1.9c1.5,0,2.9-0.5,4.1-1.6l8.2-7.7c0.4-0.4,0.9-0.5,1.4-0.5
			c0.6,0,1.1,0.2,1.5,0.7c2.2,2.6,4.5,5.1,6.6,7.7c0.7,0.9,0.6,2.2-0.4,2.9l-9,6.4c-2.7,1.9-3.3,5.7-1.4,8.4l24.7,34.6
			c1.2,1.6,3,2.5,4.9,2.5c1.2,0,2.4-0.4,3.5-1.1l9.8-7c0.4-0.3,0.8-0.4,1.2-0.4c0.7,0,1.3,0.3,1.7,0.9c1.6,2.5,3.2,5,4.8,7.5
			c0.6,1,0.3,2.2-0.7,2.8l-9.9,5.7c-2.9,1.7-3.9,5.3-2.2,8.2l21.3,36.8c1.1,1.9,3.1,3,5.2,3c1,0,2-0.3,3-0.8l6.6-3.8
			c0.9-0.5,2-0.8,3-0.8c1.9,0,3.7,0.9,4.9,2.5c10.3,14.3,14.4,35.8,14.9,45.9c0.2,3.7,3.1,6.6,6.8,6.7c0,0,0.1,0,0.1,0h240V505.4
			c65.2,4.8,145.5,6.7,230.1,6.7c273.8,0,593.1-19.3,593.1-19.3l0-326.1c0-3.2-2.5-5.8-5.6-6C1167.1,151.3,776.6,147.8,776.6,147.8
			L776.6,147.8z"/>
	</g>
</g>
<g id="Layer_3">
	<g id="Base_2_">
		<g id="메리어트관_2_">
			<g>
				<path class="st1" d="M1172.3,1211c-1.3,0-2.6-0.5-3.5-1.5l-76.3-76.4c-1.9-1.9-1.9-5.1,0-7.1l116.5-116.5c1.3-1.3,2-3.1,2-4.9
					V678.7c0-2.8,2.2-5,5-5h29.9c3.9,0,7-3.1,7-7v-42.8c0-3.9-3.1-7-7-7H986.8c-3.9,0-7,3.1-7,7v30c0,2.8-2.2,5-5,5H597
					c-2.8,0-5-2.2-5-5v-108c0-2.8,2.2-5,5-5h377.8c2.8,0,5,2.2,5,5v30c0,3.9,3.1,7,7,7h259.1c3.9,0,7-3.1,7-7V488c0-3.9-3.1-7-7-7
					H1143c-2.8,0-5-2.2-5-5v-45.4c0-2.6,2-4.8,4.5-5c27.3-2.1,52.6-13.4,71.3-31.8c18.8-18.5,29.2-42.6,29.2-67.8
					s-10.4-49.3-29.2-67.8c-18.7-18.4-44-29.7-71.3-31.8c-2.5-0.2-4.5-2.4-4.5-5V178c0-2.8,2.2-5,5-5h102.9c3.9,0,7-3.1,7-7V78.1
					c0-3.9-3.1-7-7-7H986.8c-3.9,0-7,3.1-7,7v30c0,2.8-2.2,5-5,5H597c-2.8,0-5-2.2-5-5V0.1c0-2.8,2.2-5,5-5h377.8c2.8,0,5,2.2,5,5
					v30c0,3.9,3.1,7,7,7h259.1c3.9,0,7-3.1,7-7v-42.8c0-3.9-3.1-7-7-7H1216c-2.8,0-5-2.2-5-5v-325.9c0-1.9-0.7-3.6-2-4.9
					l-116.5-116.5c-1.9-1.9-1.9-5.1,0-7.1l76.3-76.4c0.9-0.9,2.2-1.5,3.5-1.5s2.6,0.5,3.5,1.5l151.6,151.7c0.9,0.9,1.5,2.2,1.5,3.5
					v375.6c0,2.8-2.2,5-5,5h-30.1c-3.9,0-7,3.1-7,7v179c0,3.9,3.1,7,7,7h37.2c2.8,0,5,2.2,5,5v106.4c0,3.9,3.1,7,7,7h12
					c2.8,0,5,2.2,5,5v60.8c0,2.8-2.2,5-5,5h-12c-3.9,0-7,3.1-7,7v106.4c0,2.8-2.2,5-5,5h-37.2c-3.9,0-7,3.1-7,7v178.9
					c0,3.9,3.1,7,7,7h30.1c2.8,0,5,2.2,5,5v375.6c0,1.3-0.5,2.6-1.5,3.5l-151.6,151.7C1174.9,1210.5,1173.6,1211,1172.3,1211z"/>
				<path class="st2" d="M1172.3-556c1.1,0,2.1,0.4,2.8,1.2l151.6,151.7c0.8,0.8,1.2,1.8,1.2,2.8v375.6c0,2.2-1.8,4-4,4h-30.1
					c-4.4,0-8,3.6-8,8v179c0,4.4,3.6,8,8,8h37.2c2.2,0,4,1.8,4,4v106.4c0,4.4,3.6,8,8,8h12c2.2,0,4,1.8,4,4v60.8c0,2.2-1.8,4-4,4
					h-12c-4.4,0-8,3.6-8,8v106.4c0,2.2-1.8,4-4,4h-37.2c-4.4,0-8,3.6-8,8v178.9c0,4.4,3.6,8,8,8h30.1c2.2,0,4,1.8,4,4v375.6
					c0,1.1-0.4,2.1-1.2,2.8l-151.6,151.7c-0.8,0.8-1.8,1.2-2.8,1.2c-1.1,0-2.1-0.4-2.8-1.2l-76.3-76.4c-1.6-1.6-1.6-4.1,0-5.7
					l116.5-116.5c1.5-1.5,2.3-3.5,2.3-5.7V678.7c0-2.2,1.8-4,4-4h29.9c4.4,0,8-3.6,8-8v-42.8c0-4.4-3.6-8-8-8H986.8
					c-4.4,0-8,3.6-8,8v30c0,2.2-1.8,4-4,4H597c-2.2,0-4-1.8-4-4v-108c0-2.2,1.8-4,4-4h377.8c2.2,0,4,1.8,4,4v30c0,4.4,3.6,8,8,8
					h259.1c4.4,0,8-3.6,8-8V488c0-4.4-3.6-8-8-8H1143c-2.2,0-4-1.8-4-4v-45.4c0-2.1,1.6-3.8,3.6-4c27.5-2.2,53.1-13.6,71.9-32.1
					c19-18.7,29.5-43,29.5-68.5c0-25.5-10.5-49.8-29.5-68.5c-18.8-18.5-44.4-29.9-71.9-32.1c-2-0.2-3.6-1.9-3.6-4V178
					c0-2.2,1.8-4,4-4h102.9c4.4,0,8-3.6,8-8V78.1c0-4.4-3.6-8-8-8H986.8c-4.4,0-8,3.6-8,8v30c0,2.2-1.8,4-4,4H597c-2.2,0-4-1.8-4-4
					V0.1c0-2.2,1.8-4,4-4h377.8c2.2,0,4,1.8,4,4v30c0,4.4,3.6,8,8,8h259.1c4.4,0,8-3.6,8-8v-42.8c0-4.4-3.6-8-8-8H1216
					c-2.2,0-4-1.8-4-4v-325.9c0-2.1-0.8-4.1-2.3-5.7l-116.5-116.5c-1.6-1.6-1.6-4.1,0-5.7l76.3-76.4
					C1170.2-555.6,1171.2-556,1172.3-556 M1172.3-558c-1.5,0-3.1,0.6-4.2,1.8l-76.3,76.4c-2.3,2.3-2.3,6.1,0,8.5l116.5,116.5
					c1.1,1.1,1.8,2.7,1.8,4.2v325.9c0,3.3,2.7,6,6,6h29.9c3.3,0,6,2.7,6,6v42.8c0,3.3-2.7,6-6,6H986.8c-3.3,0-6-2.7-6-6v-30
					c0-3.3-2.7-6-6-6H597c-3.3,0-6,2.7-6,6v108c0,3.3,2.7,6,6,6h377.8c3.3,0,6-2.7,6-6v-30c0-3.3,2.7-6,6-6h259.1c3.3,0,6,2.7,6,6
					V166c0,3.3-2.7,6-6,6H1143c-3.3,0-6,2.7-6,6v43.4c0,3.1,2.4,5.7,5.5,6c55.8,4.4,99.5,46.8,99.5,98.6c0,51.8-43.8,94.3-99.5,98.6
					c-3.1,0.2-5.5,2.9-5.5,6V476c0,3.3,2.7,6,6,6h102.9c3.3,0,6,2.7,6,6v87.9c0,3.3-2.7,6-6,6H986.8c-3.3,0-6-2.7-6-6v-30
					c0-3.3-2.7-6-6-6H597c-3.3,0-6,2.7-6,6v108c0,3.3,2.7,6,6,6h377.8c3.3,0,6-2.7,6-6v-30c0-3.3,2.7-6,6-6h259.1c3.3,0,6,2.7,6,6
					v42.8c0,3.3-2.7,6-6,6H1216c-3.3,0-6,2.7-6,6v325.9c0,1.6-0.6,3.1-1.8,4.2l-116.5,116.5c-2.3,2.3-2.3,6.1,0,8.5l76.3,76.4
					c1.2,1.2,2.7,1.8,4.2,1.8s3.1-0.6,4.2-1.8l151.6-151.7c1.1-1.1,1.8-2.7,1.8-4.2V678.7c0-3.3-2.7-6-6-6h-30.1c-3.3,0-6-2.7-6-6
					V487.8c0-3.3,2.7-6,6-6h37.2c3.3,0,6-2.7,6-6V369.4c0-3.3,2.7-6,6-6h12c3.3,0,6-2.7,6-6v-60.8c0-3.3-2.7-6-6-6h-12
					c-3.3,0-6-2.7-6-6V178.3c0-3.3-2.7-6-6-6h-37.2c-3.3,0-6-2.7-6-6v-179c0-3.3,2.7-6,6-6h30.1c3.3,0,6-2.7,6-6v-375.6
					c0-1.6-0.6-3.1-1.8-4.2l-151.6-151.7C1175.3-557.4,1173.8-558,1172.3-558L1172.3-558z"/>
			</g>
		</g>
		<g id="Landing_2_">
			<g id="Landing_Base_2_">
				<path class="st1" d="M660.6,1384.8c-2.8,0-5-2.2-5-5V1351c0-3.9-3.1-7-7-7H530.4c-3.9,0-7,3.1-7,7v28.8c0,2.8-2.2,5-5,5h-108
					c-2.8,0-5-2.2-5-5v-588c0-2.8,2.2-5,5-5h30.5c3.9,0,7-3.1,7-7V664.4c0-3.8-2.9-6.8-6.7-7c-82.2-3.6-160.6-12.5-233.1-26.5
					c-57.8-11.2-94.8-22.4-108-26.7c-2.6-0.8-4-3.7-3.2-6.3l32.2-100c0.7-2.1,2.6-3.5,4.8-3.5c0.6,0,1.1,0.1,1.7,0.3
					c13.1,4.7,50.5,16.9,113.8,27.8c79,13.7,169.5,20.8,269,21c2.8,0,5,2.2,5,5v105.6c0,2.8-2.2,5-5,5c-9.7,0-19.6-0.1-29.3-0.3
					l-0.1,0c-3.9,0-7,3.1-7,7v113.9c0,3.9,3.1,7,7,7h29.5c2.8,0,5,2.2,5,5V1303c0,3.9,3.1,7,7,7h118.2c3.9,0,7-3.1,7-7v-31.2
					c0-2.8,2.2-5,5-5h289.8c1.9,0,3.6-0.7,4.9-2l68.1-68.1c0.9-0.9,2.2-1.5,3.5-1.5c1.3,0,2.6,0.5,3.5,1.5l76.4,76.4
					c1.9,1.9,1.9,5.1,0,7.1l-103.3,103.3c-0.9,0.9-2.2,1.5-3.5,1.5H660.6z"/>
				<path class="st2" d="M133.8,495.4L133.8,495.4c0.5,0,0.9,0.1,1.3,0.2c13.1,4.7,50.5,16.9,113.9,27.9
					c79,13.7,169.6,20.8,269.2,21c2.2,0,4,1.8,4,4v105.6c0,2.2-1.8,4-4,4c-9.7,0-19.5-0.1-29.2-0.3l-0.1,0c-4.4,0-8,3.6-8,8v113.9
					c0,4.4,3.6,8,8,8h29.5c2.2,0,4,1.8,4,4V1303c0,4.4,3.6,8,8,8h118.2c4.4,0,8-3.6,8-8v-31.2c0-2.2,1.8-4,4-4h289.8
					c2.1,0,4.1-0.8,5.7-2.3l68.1-68.1c0.8-0.8,1.8-1.2,2.8-1.2c1.1,0,2.1,0.4,2.8,1.2l76.4,76.4c0.8,0.8,1.2,1.8,1.2,2.8
					c0,1.1-0.4,2.1-1.2,2.8L1003,1382.6c-0.8,0.8-1.8,1.2-2.8,1.2H660.6c-2.2,0-4-1.8-4-4V1351c0-4.4-3.6-8-8-8H530.4
					c-4.4,0-8,3.6-8,8v28.8c0,2.2-1.8,4-4,4h-108c-2.2,0-4-1.8-4-4v-588c0-2.2,1.8-4,4-4h30.5c4.4,0,8-3.6,8-8V664.4
					c0-4.3-3.4-7.8-7.7-8c-82.1-3.6-160.5-12.5-232.9-26.5c-57.8-11.2-94.7-22.4-107.9-26.7c-2.1-0.7-3.2-2.9-2.6-5l32.2-100
					C130.6,496.6,132.1,495.4,133.8,495.4 M133.8,493.4c-2.5,0-4.9,1.6-5.7,4.2l-32.2,100c-1,3.1,0.7,6.5,3.8,7.5
					c26.8,8.7,147.8,44.8,341.4,53.3c3.2,0.1,5.7,2.8,5.7,6v115.4c0,3.3-2.7,6-6,6h-30.5c-3.3,0-6,2.7-6,6v588c0,3.3,2.7,6,6,6h108
					c3.3,0,6-2.7,6-6V1351c0-3.3,2.7-6,6-6h118.2c3.3,0,6,2.7,6,6v28.8c0,3.3,2.7,6,6,6h339.5c1.6,0,3.1-0.6,4.2-1.8l103.3-103.3
					c2.3-2.3,2.3-6.1,0-8.5l-76.4-76.4c-1.2-1.2-2.7-1.8-4.2-1.8c-1.5,0-3.1,0.6-4.2,1.8l-68.1,68.1c-1.1,1.1-2.7,1.8-4.2,1.8H660.6
					c-3.3,0-6,2.7-6,6v31.2c0,3.3-2.7,6-6,6H530.4c-3.3,0-6-2.7-6-6V791.8c0-3.3-2.7-6-6-6h-29.5c-3.3,0-6-2.7-6-6V665.9
					c0-3.3,2.7-6,6-6c0,0,0.1,0,0.1,0c9.6,0.2,19.4,0.3,29.3,0.3c0,0,0,0,0,0c3.3,0,6-2.7,6-6V548.6c0-3.3-2.7-6-6-6
					c-233.9-0.6-355.5-39.1-382.4-48.8C135.2,493.6,134.5,493.4,133.8,493.4L133.8,493.4z"/>
			</g>
		</g>
		<g id="Mosil_Pool_2_">
			<g>
				<g>
					<path class="st3" d="M620.3,1117.9c-2.8,0-5-2.2-5-5v-386c0-2.8,2.2-5,5-5h211.3c2.8,0,5,2.2,5,5V753c0,3.9,3.1,7,7,7h161
						c3,0,5.7-1.9,6.6-4.7c4.8-14.2,21.7-47.3,73.9-47.3c59.1,0,72.7,42.1,74.9,50.5c0.1,0.4,0.1,0.8,0.1,1.2v162.6
						c0,1.3-0.5,2.6-1.4,3.5l-187,190.6c-0.9,1-2.2,1.5-3.6,1.5H620.3z"/>
					<path class="st2" d="M1085.1,709c25.1,0,44.9,7.6,58.8,22.6c10.5,11.4,14.2,23.6,15.1,27.1c0.1,0.3,0.1,0.6,0.1,1v162.6
						c0,1.1-0.4,2-1.1,2.8l-187,190.6c-0.7,0.8-1.8,1.2-2.9,1.2H620.3c-2.2,0-4-1.8-4-4v-386c0-2.2,1.8-4,4-4h211.3c2.2,0,4,1.8,4,4
						V753c0,4.4,3.6,8,8,8h161c3.4,0,6.5-2.2,7.6-5.4c2-6,7.1-17.6,18-27.6C1043.8,715.4,1062.3,709,1085.1,709 M1085.1,707
						c-54.5,0-70.8,36.1-74.8,48c-0.8,2.4-3.1,4-5.7,4h-161c-3.3,0-6-2.7-6-6v-26.1c0-3.3-2.7-6-6-6H620.3c-3.3,0-6,2.7-6,6v386
						c0,3.3,2.7,6,6,6H968c1.6,0,3.2-0.6,4.3-1.8l187-190.6c1.1-1.1,1.7-2.6,1.7-4.2V759.7c0-0.5-0.1-1-0.2-1.4
						C1159.3,752,1146.3,707,1085.1,707L1085.1,707z"/>
				</g>
			</g>
		</g>
		<g id="Shinhwa_2_">
			<g>
				<path class="st1" d="M137.4,161.2c-2.2,0-4.1-1.4-4.8-3.5l-32.2-100c-0.8-2.6,0.6-5.4,3.2-6.3c30.5-9.9,144.3-43.1,326.8-52.5
					c3.4-0.2,6.1-2.8,6.6-6l34.1-1.8c0.2,1.5,0.9,2.8,2,3.9c1.3,1.3,3.1,2,4.9,2l0.2,0c14.4-0.4,29.1-0.6,43.6-0.6c2.8,0,5,2.2,5,5
					v104.2c0,4.1-2.3,6.4-6.4,6.4c-41.4,0.2-254.6,3.3-381.4,48.9C138.6,161.1,138,161.2,137.4,161.2z"/>
				<path class="st2" d="M470.3-7.9c0.9,3.4,4,5.9,7.7,5.9c0.1,0,0.1,0,0.2,0c14.4-0.4,29.1-0.6,43.6-0.6c2.2,0,4,1.8,4,4v104.2
					c0,3.5-1.9,5.4-5.4,5.4c-98.9,0.4-189.1,7.5-267.9,21.1c-63.6,11-100.8,23.1-113.8,27.8c-0.4,0.2-0.9,0.2-1.3,0.2
					c-1.7,0-3.3-1.1-3.8-2.8l-32.2-100c-0.7-2.1,0.5-4.3,2.6-5c12.7-4.1,48.2-14.9,103.6-25.8C276.8,13,351.8,4,430.5-0.1
					c3.6-0.2,6.5-2.7,7.4-6.1L470.3-7.9 M472.1-10l-36,1.9c0,3.2-2.5,5.8-5.7,6C245.2,7.5,129.5,42,103.3,50.5
					c-3.1,1-4.9,4.4-3.8,7.5l32.2,100c0.8,2.5,3.2,4.2,5.7,4.2c0.7,0,1.4-0.1,2-0.4c26.8-9.6,148.7-47.9,381-48.8
					c4.6,0,7.4-2.8,7.4-7.4V1.4c0-3.3-2.7-6-6-6c0,0,0,0,0,0c-14.9,0-29.4,0.3-43.6,0.6c-0.1,0-0.1,0-0.2,0
					C474.8-4,472.1-6.6,472.1-10L472.1-10z"/>
			</g>
		</g>
	</g>
	<g id="Rooms">
		<a id="ma1f103" xlink:href="#">
			<g>
				<g>
					<path class="st4" d="M1183,481c-2.8,0-5-2.2-5-5v-30c0-2.8,2.2-5,5-5h30c2.8,0,5,2.2,5,5v30c0,2.8-2.2,5-5,5H1183z"/>
					<path class="st2" d="M1213,442c2.2,0,4,1.8,4,4v30c0,2.2-1.8,4-4,4h-30c-2.2,0-4-1.8-4-4v-30c0-2.2,1.8-4,4-4H1213 M1213,440
						h-30c-3.3,0-6,2.7-6,6v30c0,3.3,2.7,6,6,6h30c3.3,0,6-2.7,6-6v-30C1219,442.7,1216.3,440,1213,440L1213,440z"/>
				</g>
				
					<image style="overflow:visible;" width="76" height="76" id="toilet_x5F_off" xlink:href="./images/2x/toilet_off@2x.png" class="i_toilet" transform="matrix(0.5 0 0 0.5 1179 442)">
				</image>
			</g>
		</a>
		<g id="Elevator_1_">
			<g>
				<g>
					<path class="st4" d="M1143,481c-2.8,0-5-2.2-5-5v-30c0-2.8,2.2-5,5-5h30c2.8,0,5,2.2,5,5v30c0,2.8-2.2,5-5,5H1143z"/>
					<path class="st2" d="M1173,442c2.2,0,4,1.8,4,4v30c0,2.2-1.8,4-4,4h-30c-2.2,0-4-1.8-4-4v-30c0-2.2,1.8-4,4-4H1173 M1173,440
						h-30c-3.3,0-6,2.7-6,6v30c0,3.3,2.7,6,6,6h30c3.3,0,6-2.7,6-6v-30C1179,442.7,1176.3,440,1173,440L1173,440z"/>
				</g>
			</g>
			
				<image style="overflow:visible;" width="76" height="76" id="elevator_x5F_off" xlink:href="./images/2x/elevator_off@2x.png" class="i_elevator" transform="matrix(0.5 0 0 0.5 1139 442)">
			</image>
		</g>
		<g id="Stairs_5_">
			<g>
				<path class="st4" d="M1203,388c-2.8,0-5-2.2-5-5v-30c0-2.8,2.2-5,5-5h30c2.8,0,5,2.2,5,5v30c0,2.8-2.2,5-5,5H1203z"/>
				<path class="st2" d="M1233,349c2.2,0,4,1.8,4,4v30c0,2.2-1.8,4-4,4h-30c-2.2,0-4-1.8-4-4v-30c0-2.2,1.8-4,4-4H1233 M1233,347
					h-30c-3.3,0-6,2.7-6,6v30c0,3.3,2.7,6,6,6h30c3.3,0,6-2.7,6-6v-30C1239,349.7,1236.3,347,1233,347L1233,347z"/>
			</g>
			
				<image style="overflow:visible;" width="76" height="76" id="escal_x5F_off" xlink:href="./images/2x/escal_off@2x.png" class="i_escal" transform="matrix(0.5 0 0 0.5 1199 349)">
			</image>
		</g>
		<a id="ma1f102" xlink:href="#">
			<g>
				<path class="st1" d="M1289,428.8c-2.8,0-5-2.2-5-5v-42c0-2.8,2.2-5,5-5h47v52H1289z"/>
				<path class="st2" d="M1335,377.8v50h-46c-2.2,0-4-1.8-4-4v-42c0-2.2,1.8-4,4-4H1335 M1337,375.8h-48c-3.3,0-6,2.7-6,6v42
					c0,3.3,2.7,6,6,6h48V375.8L1337,375.8z"/>
			</g>
		</a>
		<a id="ma1f101" xlink:href="#">
		<g>
			<path class="st1" d="M1283,276c-2.8,0-5-2.2-5-5v-24c0-2.8,2.2-5,5-5h53v34H1283z"/>
			<path class="st2" d="M1335,243v32h-52c-2.2,0-4-1.8-4-4v-24c0-2.2,1.8-4,4-4H1335 M1337,241h-54c-3.3,0-6,2.7-6,6v24
				c0,3.3,2.7,6,6,6h54V241L1337,241z"/>
		</g>
		</a>
		<a id="ma1f106" xlink:href="#">
		<g>
			<path class="st1" d="M1199,245c-1,0-1.9-0.3-2.7-0.8c-5-3.3-10.1-5.8-13.4-7.4c-1.8-0.8-2.9-2.6-2.9-4.5V208c0-2.8,2.2-5,5-5h48
				c2.8,0,5,2.2,5,5v32c0,2.8-2.2,5-5,5H1199z"/>
			<path class="st2" d="M1233,204c2.2,0,4,1.8,4,4v32c0,2.2-1.8,4-4,4h-34c-0.8,0-1.5-0.2-2.1-0.6c-5.1-3.3-10.2-5.9-13.6-7.4
				c-1.4-0.7-2.3-2.1-2.3-3.6V208c0-2.2,1.8-4,4-4H1233 M1233,202h-48c-3.3,0-6,2.7-6,6v24.3c0,2.3,1.4,4.5,3.5,5.4
				c3.2,1.5,8.3,4,13.3,7.3c1,0.6,2.1,0.9,3.2,0.9h34c3.3,0,6-2.7,6-6v-32C1239,204.7,1236.3,202,1233,202L1233,202z"/>
		</g>
		</a>
		<a id="lobbyma1f" xlink:href="#" class="svg_lobby_mark">
			<g>
				<g>
					<linearGradient id="SVGID_1f" gradientUnits="userSpaceOnUse" x1="1245.02" y1="326" x2="1267.02" y2="326">
						<stop offset="0.1" style="stop-color:#EF405C;stop-opacity:0"/>
						<stop offset="0.8" style="stop-color:#EF405C"/>
					</linearGradient>
					<polygon class="st5" points="1245,311 1267,326 1245,341     "/>
					<linearGradient id="SVGID_1f2" gradientUnits="userSpaceOnUse" x1="1245.02" y1="326" x2="1267.02" y2="326">
						<stop offset="0.1" style="stop-color:#EF405C;stop-opacity:0"/>
						<stop offset="0.8" style="stop-color:#B30521"/>
					</linearGradient>
					<path class="st6" d="M1246,312.9l19.2,13.1l-19.2,13.1V312.9 M1245,311v30l22-15L1245,311L1245,311z"/>
				</g>
				<g>
					<path class="st7" d="M1266,327.5c-0.1,0-0.3,0-0.4-0.2l-8.1-13.3c-0.7-1.3-1-2.7-1-4.2c0-5,4.2-9.2,9.4-9.2l0.1,0      c2.5,0,4.9,1,6.7,2.7c1.8,1.8,2.8,4.1,2.8,6.6c0,1.5-0.3,2.9-1,4.2l-8.1,13.3C1266.2,327.5,1266.1,327.5,1266,327.5z       M1266.1,306c-2.2,0-4,1.8-4,4s1.8,4,4,4s4-1.8,4-4S1268.3,306,1266.1,306z"/>
					<path class="st8" d="M1265.9,301c2.4,0,4.6,0.9,6.3,2.5c1.7,1.7,2.7,3.9,2.7,6.3c0,1.4-0.3,2.7-1,3.9l-8,13.2l-8-13.2      c-0.6-1.2-1-2.6-1-4c0-4.8,4-8.7,8.9-8.7L1265.9,301 M1266.1,314.5c2.5,0,4.5-2,4.5-4.5s-2-4.5-4.5-4.5s-4.5,2-4.5,4.5      S1263.6,314.5,1266.1,314.5 M1265.9,300c0,0-0.1,0-0.1,0c-5.4,0.1-9.8,4.4-9.9,9.7c0,1.6,0.4,3.1,1.1,4.5l8.1,13.3      c0.2,0.4,0.6,0.5,0.8,0.5c0.2,0,0.6,0,0.8-0.5l8.1-13.3c0.7-1.4,1.1-2.9,1.1-4.4c0-2.6-1.1-5.1-3-7      C1271.1,301,1268.6,300,1265.9,300L1265.9,300z M1266.1,313.5c-1.9,0-3.5-1.6-3.5-3.5c0-1.9,1.6-3.5,3.5-3.5      c1.9,0,3.5,1.6,3.5,3.5C1269.6,311.9,1268,313.5,1266.1,313.5L1266.1,313.5z"/>
				</g>
			</g>
		</a>
		<g id="Elavator_6_">
			<g>
				<g>
					<path class="st4" d="M487,724c-2.8,0-5-2.2-5-5v-30c0-2.8,2.2-5,5-5h30c2.8,0,5,2.2,5,5v30c0,2.8-2.2,5-5,5H487z"/>
					<path class="st2" d="M517,685c2.2,0,4,1.8,4,4v30c0,2.2-1.8,4-4,4h-30c-2.2,0-4-1.8-4-4v-30c0-2.2,1.8-4,4-4H517 M517,683h-30
						c-3.3,0-6,2.7-6,6v30c0,3.3,2.7,6,6,6h30c3.3,0,6-2.7,6-6v-30C523,685.7,520.3,683,517,683L517,683z"/>
				</g>
			</g>
			
				<image style="overflow:visible;" width="76" height="76" id="elevator_x5F_off_1_" xlink:href="./images/2x/elevator_off@2x.png" class="i_elevator" transform="matrix(0.5 0 0 0.5 483 685)">
			</image>
		</g>
	
		<g id="rdobserver1">
			<path class="st1" d="M187.2,626.6c-6.7-1.4-47.8-10-87.2-22.5c-1.3-0.4-2.3-1.3-2.9-2.5c-0.6-1.2-0.7-2.6-0.3-3.8l14-43.1
				c6.7,2.2,47,15.5,83,23.1c1.3,0.3,2.5,1.1,3.2,2.2c0.7,1.2,1,2.5,0.6,3.8L187.2,626.6z"/>
			<path class="st2" d="M111.4,555.9c9,3,47.5,15.5,82.1,22.8c1.1,0.2,2,0.9,2.6,1.8c0.6,0.9,0.8,2,0.5,3.1l-10.1,41.9
				c-9-1.9-48.4-10.3-86.1-22.3c-1-0.3-1.9-1-2.4-2c-0.5-1-0.6-2-0.2-3.1L111.4,555.9 M110.2,553.4l-14.3,44.1
				c-1,3.2,0.7,6.6,3.9,7.6c43.3,13.8,88.2,22.8,88.2,22.8l10.6-43.8c0.8-3.3-1.3-6.6-4.6-7.3C154.4,568.4,110.2,553.4,110.2,553.4
				L110.2,553.4z"/>
		</g>

	</g>
	<g id="Spotname1Fsh" class="spotname">
		<text id="shinhwa" text-anchor="middle" transform="matrix(1 0 0 1 301 75)" class="st2 st9 st10">신화관</text>
	</g>
	<g id="Spotname1Fma" class="spotname">
		<text id="mariott" text-anchor="middle" transform="matrix(1 0 0 1 1247 -243)" class="st2 st9 st10">메리어트관</text>
		<text id="mariott" text-anchor="middle" transform="matrix(1 0 0 1 788 58)" class="st2 st9 st10">메리어트관</text>
		<text id="mariott" text-anchor="middle" transform="matrix(1 0 0 1 788 604)" class="st2 st9 st10">메리어트관</text>
		<text id="ma1f102" text-anchor="middle" transform="matrix(1 0 0 1 1310 400)"><tspan x="0" y="0" class="st2 st9 st10">프론트</tspan><tspan x="0" y="14" class="st2 st9 st10">데스크</tspan></text>
		<text id="ma1f101" text-anchor="middle" transform="matrix(1 0 0 1 1306 262)" class="st2 st9 st10">컨시어지</text>
		<text id="ma1f106" text-anchor="middle" transform="matrix(1 0 0 1 1208 220)"><tspan x="0" y="0" class="st2 st9 st10">디 아일렛</tspan><tspan x="0" y="14" class="st2 st9 st10">라운지</tspan></text>
	</g>
	<g id="Spotname1Fld" class="spotname">
		<text id="landing" text-anchor="middle" transform="matrix(1 0 0 1 301 581)" class="st2 st9 st10">랜딩관</text>
		<text id="rdobserver" text-anchor="middle" transform="matrix(1 0 0 1 152 594)" class="st2 st9 st10">전망대</text>
	</g>
	<g id="Portals">
		<!-- <line id="Elev.1.floor2" class="st11" x1="493" y1="704" x2="500" y2="697"/> -->
		<line id="Elev.2.floorGfMa" class="st11" x1="1152" y1="454" x2="1159" y2="447"/>
		<line id="Elev.5.floorMaF5" class="st11" x1="1152" y1="454" x2="1159" y2="447"/>
		<line id="Stair.2.floorGfMa" class="st11" x1="1224" y1="375" x2="1231" y2="368"/>
		<line id="Wayout.1.floorGfZOM" class="st22" x1="1370" y1="325" x2="1377" y2="318"/>
		<line id="Wayout.2.floorMaF101" class="st22" x1="1263" y1="547" x2="1270" y2="540"/>
	</g>
	<g id="Doors">
		<line id="ma1f101" class="st12" x1="1285" y1="259" x2="1292" y2="252"/>
		<line id="lobbyma1f" class="st12" x1="1258" y1="332" x2="1265" y2="325"/>
		<line id="ma1f102" class="st12" x1="1291" y1="403" x2="1298" y2="396"/>
		<line id="ma1f103" class="st12" x1="1191" y1="454" x2="1198" y2="447"/>
		<line id="ma1f106" class="st12" x1="1227" y1="232" x2="1234" y2="225"/>
		<!-- <line id="rdobserver" class="st12" x1="144" y1="585" x2="151" y2="578"/> -->
	</g>
	<g id="Paths">
		<line class="st13" x1="1269" y1="259" x2="1285" y2="259"/>
		<line class="st13" x1="1269" y1="293" x2="1269" y2="259"/>
		<line class="st13" x1="1281" y1="325" x2="1281" y2="293"/>
		<line class="st13" x1="1281" y1="368" x2="1281" y2="325"/>
		<line class="st13" x1="1270" y1="403" x2="1270" y2="368"/>
		<line class="st13" x1="1270" y1="432" x2="1270" y2="403"/>
		<line class="st13" x1="1270" y1="540" x2="1270" y2="432"/>
		<line class="st13" x1="1198" y1="432" x2="1270" y2="432"/>
		<line class="st13" x1="1159" y1="432" x2="1198" y2="432"/>
		<line class="st13" x1="1265" y1="325" x2="1281" y2="325"/>
		<line class="st13" x1="1270" y1="403" x2="1291" y2="403"/>
		<line class="st13" x1="1231" y1="368" x2="1270" y2="368"/>
		<line class="st13" x1="1270" y1="368" x2="1281" y2="368"/>
		<line class="st13" x1="1269" y1="293" x2="1281" y2="293"/>
		<line class="st13" x1="1281" y1="325" x2="1370" y2="325"/>
		<line class="st13" x1="1198" y1="447" x2="1198" y2="432"/>
		<line class="st13" x1="1159" y1="447" x2="1159" y2="432"/>
		<line class="st13" x1="151" y1="578" x2="151" y2="551"/>
		<line class="st13" x1="465" y1="704" x2="493" y2="704"/>
		<line class="st13" x1="465" y1="602" x2="465" y2="704"/>
		<line class="st13" x1="302" y1="589" x2="465" y2="602"/>
		<line class="st13" x1="151" y1="551" x2="302" y2="589"/>
		<line class="st13" x1="1269" y1="259" x2="1269" y2="225"/>
		<line class="st13" x1="1269" y1="225" x2="1234" y2="225"/>
	</g>
</g>
</svg>
