<?xml version="1.0" encoding="utf-8"?>
<!-- Generator: Adobe Illustrator 23.0.0, SVG Export Plug-In . SVG Version: 6.00 Build 0)  -->
<svg version="1.1" xmlns="http://www.w3.org/2000/svg" xmlns:xlink="http://www.w3.org/1999/xlink" x="0px" y="0px" viewBox="0 0 1400 730" style="enable-background:new 0 0 1400 730;" xml:space="preserve" width="1400px" height="730px" id="lgfRd">
<style type="text/css">
	#lgfRd .st0{fill:#CBD5DD;}
	#lgfRd .st1{fill:#EAEAEA;}
	#lgfRd .st2{fill:#A5855B;}
	#lgfRd .st3{fill:#FFFFFF;}
	#lgfRd .st4{font-family:'NotoSans';}
	#lgfRd .st5{font-size:12px;}
	#lgfRd .st6{fill:none;stroke:#FF00FF;}
	#lgfRd .st7{fill:none;stroke:#00FF00;}
	#lgfRd .st8{fill:none;stroke:#EF405C;}
</style>
<g id="BG">
	<rect class="st0" width="1400" height="730"/>
</g>
<g id="LGF">
	<g id="Base_2_">
		<g id="Marriott_Base02_1_">
			<path class="st1" d="M520.5,859.9c-4.4,0-7.9-3.4-7.9-7.7v-698c66.7,4.4,148.3,6.6,242.6,6.6c268.8,0,560.8-18,580.8-19.3v436.6
				c0,1.3-0.5,2.6-1.4,3.5l-273.7,276.8c-0.9,0.9-2.2,1.5-3.6,1.5H520.5z"/>
			<path class="st2" d="M1335,142.6v435.5c0,1.1-0.4,2.1-1.2,2.8l-273.7,276.8c-0.7,0.8-1.8,1.2-2.8,1.2H520.5c-3.8,0-6.9-3-6.9-6.7
				V155.3c66.5,4.3,147.8,6.5,241.6,6.5C1020.1,161.8,1307.5,144.3,1335,142.6 M1337,140.5c0,0-301.5,19.3-581.8,19.3
				c-86.4,0-170.7-1.8-243.6-6.6v699c0,4.8,4,8.7,8.9,8.7h536.7c1.6,0,3.1-0.6,4.3-1.8l273.7-276.8c1.1-1.1,1.7-2.6,1.7-4.2V140.5
				H1337z"/>
		</g>
		<g id="Marriott_Base01_1_">
			<path class="st1" d="M273.9,594.8c-3.2,0-5.7-2.5-5.9-5.7c-0.6-11-5-32.5-15.1-46.4c-1.3-1.8-3.4-2.9-5.7-2.9
				c-1.2,0-2.4,0.3-3.5,0.9l-6.6,3.8c-0.8,0.4-1.6,0.7-2.5,0.7c-1.8,0-3.4-1-4.3-2.5L209,505.8c-0.7-1.2-0.8-2.5-0.5-3.8
				s1.2-2.4,2.3-3l9.9-5.7c0.7-0.4,1.2-1.1,1.4-1.9s0.1-1.6-0.4-2.3c-1.6-2.5-3.2-5.1-4.8-7.5c-0.6-0.9-1.5-1.4-2.5-1.4
				c-0.6,0-1.2,0.2-1.7,0.6l-9.8,7c-0.9,0.6-1.9,0.9-2.9,0.9c-1.6,0-3.1-0.8-4.1-2.1L171.2,452c-1.6-2.2-1.1-5.4,1.2-7l9-6.4
				c0.7-0.5,1.1-1.2,1.2-2.1c0.1-0.8-0.1-1.7-0.7-2.3c-2.2-2.6-4.4-5.2-6.6-7.7c-0.6-0.6-1.4-1-2.3-1c-0.8,0-1.5,0.3-2.1,0.8
				l-8.2,7.7c-0.9,0.9-2.1,1.3-3.4,1.3l0,0c-1.4,0-2.7-0.6-3.6-1.6c-3.3-3.5-8.5-9.1-13.8-14.7c-5.3-5.7-10.8-11.5-14.6-15.6
				c-1.4-1.5-2.1-2.9-2-4.3s0.8-2.8,2.3-4.2l2.4-2.3c1.5-1.4,2.3-3.3,2.2-5.4c-0.1-2-1-3.9-2.6-5.2c-8.6-6.8-16.6-12.3-23.9-16.3
				c-2-1.1-3.8-4.1-3.8-6.4v-326c0-5.1-4.2-9.3-9.3-9.4l-27.5-0.4C61.3,23.4,58,20,58,16v-61.3c0-4.1,3.3-7.4,7.4-7.4h6.8
				c4.7,0,8.6-3.9,8.6-8.6c0-2,0.7-3.8,2-5.2c1.3-1.4,3.2-2.2,5.1-2.2c0.7,0,1.4,0.1,2.1,0.3h0.1l111.8,8.5c0.9,0.3,1.7,0.4,2.6,0.4
				c2.8,0,5.5-1.4,7.3-3.6c1.7-2.3,2.3-5.2,1.5-8l-18.8-67.2c-0.8-2.9,0.2-6,2.5-7.8c31.7-24.9,158-54.7,579.7-55.2
				c3.9,0,392.3,3.6,554.7,12.9c2.6,0.1,4.7,2.3,4.7,5v325.2C1316.7,143,1007.4,161,744,161c-92.9,0-170.3-2.2-230-6.7l-1.1-0.1
				v440.5L273.9,594.8L273.9,594.8z"/>
			<path class="st2" d="M776.6-200.2L776.6-200.2c4,0,392.3,3.6,554.6,12.9c2.1,0.1,3.8,1.9,3.8,4V141
				c-26.8,1.6-331.3,19.1-591.1,19.1c-92.9,0-170.2-2.2-229.9-6.7l-2.1-0.2v2.2v438.4h-238h-0.1c-2.6,0-4.7-2.1-4.8-4.8
				c-0.5-9.6-4.3-31.7-15.3-47c-1.5-2.1-3.9-3.3-6.5-3.3c-1.4,0-2.8,0.4-4,1.1l-6.6,3.8c-0.6,0.4-1.3,0.5-2,0.5
				c-1.4,0-2.8-0.8-3.5-2l-21.3-36.8c-1.1-1.9-0.4-4.4,1.5-5.5l9.9-5.7c0.9-0.5,1.6-1.5,1.9-2.5c0.3-1.1,0.1-2.2-0.5-3.1
				c-1.6-2.5-3.2-5.1-4.8-7.5c-0.7-1.1-2-1.8-3.4-1.8c-0.8,0-1.6,0.3-2.3,0.7l-9.8,7c-0.7,0.5-1.5,0.7-2.3,0.7
				c-1.3,0-2.5-0.6-3.3-1.7L172,451.3c-1.3-1.8-0.9-4.3,0.9-5.6l9-6.4c0.9-0.6,1.5-1.7,1.7-2.8c0.1-1.1-0.2-2.2-0.9-3.1
				c-2.2-2.7-4.5-5.3-6.6-7.8c-0.8-0.9-1.9-1.4-3-1.4c-1,0-2,0.4-2.7,1.1l-8.2,7.7c-0.7,0.7-1.7,1.1-2.7,1.1c-1.1,0-2.2-0.4-2.9-1.3
				c-3.3-3.6-8.6-9.1-13.9-14.8c-5.3-5.7-10.7-11.4-14.5-15.5c-1.2-1.3-1.8-2.5-1.7-3.6c0-1.1,0.7-2.3,2-3.5l2.4-2.3
				c1.7-1.6,2.6-3.8,2.5-6.2c-0.1-2.3-1.2-4.5-3-5.9c-8.6-6.9-16.7-12.4-24-16.4c-1.7-0.9-3.3-3.6-3.3-5.5v-326
				c0-5.6-4.6-10.3-10.2-10.4l-27.5-0.4C61.8,22.4,59,19.5,59,16v-61.3c0-3.5,2.9-6.4,6.4-6.4h6.8c5.3,0,9.6-4.3,9.6-9.6l0,0l0,0
				c0-1.7,0.6-3.2,1.7-4.4c1.2-1.2,2.8-1.9,4.4-1.9c0.6,0,1.2,0.1,1.8,0.3l0.2,0.1h0.2l111.5,8.5c0.9,0.3,1.9,0.4,2.8,0.4
				c3.1,0,6.1-1.5,8.1-4c1.9-2.5,2.5-5.8,1.7-8.8l-18.8-67.2c-0.7-2.5,0.2-5.1,2.2-6.7c17-13.4,56.9-24.6,118.5-33.3
				C416.3-192.6,571.3-199.9,776.6-200.2 M776.6-202.2c-476.1,0.6-559.3,38.9-580.3,55.4c-2.7,2.1-3.8,5.6-2.9,8.8l18.8,67.2
				c1.5,5.4-2.7,10.3-7.8,10.3c-0.8,0-1.6-0.1-2.4-0.4L90.3-69.3c-0.8-0.2-1.6-0.4-2.4-0.4c-4.4,0-8.2,3.6-8.1,8.3
				c0,4.2-3.4,7.6-7.6,7.6h-6.8c-4.6,0-8.4,3.8-8.4,8.4V16c0,4.6,3.7,8.3,8.3,8.4l27.5,0.4c4.6,0.1,8.3,3.8,8.3,8.4v326
				c0,2.7,1.9,6,4.3,7.3c8,4.3,16.1,10.1,23.7,16.2c2.9,2.3,3,6.6,0.4,9.1l-2.4,2.3c-3.4,3.2-3.6,6.5-0.4,9.9
				c7.6,8.1,21.8,23.2,28.4,30.3c1.2,1.3,2.8,1.9,4.4,1.9c1.5,0,2.9-0.5,4.1-1.6l8.2-7.7c0.4-0.4,0.9-0.5,1.4-0.5
				c0.6,0,1.1,0.2,1.5,0.7c2.2,2.6,4.5,5.1,6.6,7.7c0.7,0.9,0.6,2.2-0.4,2.9l-9,6.4c-2.7,1.9-3.3,5.7-1.4,8.4l24.7,34.6
				c1.2,1.6,3,2.5,4.9,2.5c1.2,0,2.4-0.4,3.5-1.1l9.8-7c0.4-0.3,0.8-0.4,1.2-0.4c0.7,0,1.3,0.3,1.7,0.9c1.6,2.5,3.2,5,4.8,7.5
				c0.6,1,0.3,2.2-0.7,2.8l-9.9,5.7c-2.9,1.7-3.9,5.3-2.2,8.2l21.3,36.8c1.1,1.9,3.1,3,5.2,3c1,0,2-0.3,3-0.8l6.6-3.8
				c0.9-0.5,2-0.8,3-0.8c1.9,0,3.7,0.9,4.9,2.5c10.3,14.3,14.4,35.8,14.9,45.9c0.2,3.7,3.1,6.6,6.8,6.7h0.1h240V155.4
				c65.2,4.8,145.5,6.7,230.1,6.7c273.8,0,593.1-19.3,593.1-19.3v-326.1c0-3.2-2.5-5.8-5.6-6C1167.1-198.7,776.6-202.2,776.6-202.2
				L776.6-202.2z"/>
		</g>
		<g id="RandingBase">
			<path class="st1" d="M283.1,528c-2.9,0-5.5-1.7-6.7-4.3c-10.3-22.9-48.9-101.4-114.5-152.1c-1.8-1.4-2.9-3.6-2.9-5.9V297
				c0-2.7,2.2-5,5-5h310c3.8,0,7,3.3,7,7.4v221.3c0,4.1-3.1,7.4-7,7.4H283.1V528z"/>
			<g>
				<path class="st2" d="M474,293c3.3,0,6,2.9,6,6.4v221.3c0,3.5-2.7,6.4-6,6.4H283c-2.5,0-4.8-1.5-5.8-3.8
					c-10.3-22.9-49-101.6-114.8-152.5c-1.5-1.2-2.5-3.1-2.5-5.1V297c0-2.2,1.8-4,4-4H474 M474,291H164c-3.3,0-6,2.7-6,6v68.7
					c0,2.6,1.2,5.1,3.2,6.7c66.1,51,104.9,131.1,114.2,151.7c1.4,3,4.3,4.9,7.6,4.9h191c4.4,0,8-3.7,8-8.4V299.4
					C482,294.7,478.4,291,474,291L474,291z"/>
			</g>
		</g>
	</g>
	<g id="Rooms">
		<a id="ldlgf102" xlink:href="#" >
			<g>
				<path class="st1" d="M348,384c-2.8,0-5-2.2-5-5v-42c0-2.8,2.2-5,5-5h128c2.8,0,5,2.2,5,5v42c0,2.8-2.2,5-5,5H348z"/>
				<path class="st2" d="M348,331v2h128c2.2,0,4,1.8,4,4v42c0,2.2-1.8,4-4,4H348c-2.2,0-4-1.8-4-4v-42c0-2.2,1.8-4,4-4V331 M348,331
					c-3.3,0-6,2.7-6,6v42c0,3.3,2.7,6,6,6h128c3.3,0,6-2.7,6-6v-42c0-3.3-2.7-6-6-6H348L348,331z"/>
			</g>
		</a>
		<a id="ldlgf103" xlink:href="#" >
			<g>
				<path class="st1" d="M348,436c-2.8,0-5-2.2-5-5v-42c0-2.8,2.2-5,5-5h128c2.8,0,5,2.2,5,5v42c0,2.8-2.2,5-5,5H348z"/>
				<path class="st2" d="M476,385c2.2,0,4,1.8,4,4v42c0,2.2-1.8,4-4,4H348c-2.2,0-4-1.8-4-4v-42c0-2.2,1.8-4,4-4H476 M476,383H348
					c-3.3,0-6,2.7-6,6v42c0,3.3,2.7,6,6,6h128c3.3,0,6-2.7,6-6v-42C482,385.7,479.3,383,476,383L476,383z"/>
			</g>
		</a>
		<a id="ldlgf104" xlink:href="#" >
			<g>
				<path class="st1" d="M348,488c-2.8,0-5-2.2-5-5v-42c0-2.8,2.2-5,5-5h128c2.8,0,5,2.2,5,5v42c0,2.8-2.2,5-5,5H348z"/>
				<path class="st2" d="M476,437c2.2,0,4,1.8,4,4v42c0,2.2-1.8,4-4,4H348c-2.2,0-4-1.8-4-4v-42c0-2.2,1.8-4,4-4H476 M476,435H348
					c-3.3,0-6,2.7-6,6v42c0,3.3,2.7,6,6,6h128c3.3,0,6-2.7,6-6v-42C482,437.7,479.3,435,476,435L476,435z"/>
			</g>
		</a>
		<a id="ldlgf105" xlink:href="#" >
			<g>
				<g>
					<path class="st3" d="M446,528c-2.8,0-5-2.2-5-5v-30c0-2.8,2.2-5,5-5h30c2.8,0,5,2.2,5,5v30c0,2.8-2.2,5-5,5H446z"/>
					<path class="st2" d="M476,489c2.2,0,4,1.8,4,4v30c0,2.2-1.8,4-4,4h-30c-2.2,0-4-1.8-4-4v-30c0-2.2,1.8-4,4-4H476 M476,487h-30
						c-3.3,0-6,2.7-6,6v30c0,3.3,2.7,6,6,6h30c3.3,0,6-2.7,6-6v-30C482,489.7,479.3,487,476,487L476,487z"/>
				</g>
				
					<image style="overflow:visible;" width="76" height="76" id="toilet_x5F_off_1_" xlink:href="./images/2x/toilet_off@2x.png" class="i_toilet" transform="matrix(0.5 0 0 0.5 442 489)">
				</image>
			</g>
		</a>
		<a id="ldlgf101" xlink:href="#" >
			<g>
				<g>
					<path class="st3" d="M256,332c-2.8,0-5-2.2-5-5v-30c0-2.8,2.2-5,5-5h30c2.8,0,5,2.2,5,5v30c0,2.8-2.2,5-5,5H256z"/>
					<path class="st2" d="M286,293c2.2,0,4,1.8,4,4v30c0,2.2-1.8,4-4,4h-30c-2.2,0-4-1.8-4-4v-30c0-2.2,1.8-4,4-4H286 M286,291h-30
						c-3.3,0-6,2.7-6,6v30c0,3.3,2.7,6,6,6h30c3.3,0,6-2.7,6-6v-30C292,293.7,289.3,291,286,291L286,291z"/>
				</g>
				
					<image style="overflow:visible;" width="76" height="76" id="toilet_x5F_off" xlink:href="./images/2x/toilet_off@2x.png" class="i_toilet" transform="matrix(0.5 0 0 0.5 252 293)">
				</image>
			</g>
		</a>
		<a id="ldlgf106" xlink:href="#" >
			<g>
				<g>
					<g>
						<path class="st3" d="M323,528c-2.8,0-5-2.2-5-5v-30c0-2.8,2.2-5,5-5h30c2.8,0,5,2.2,5,5v30c0,2.8-2.2,5-5,5H323z"/>
						<path class="st2" d="M353,489c2.2,0,4,1.8,4,4v30c0,2.2-1.8,4-4,4h-30c-2.2,0-4-1.8-4-4v-30c0-2.2,1.8-4,4-4H353 M353,487h-30
							c-3.3,0-6,2.7-6,6v30c0,3.3,2.7,6,6,6h30c3.3,0,6-2.7,6-6v-30C359,489.7,356.3,487,353,487L353,487z"/>
					</g>
				</g>
				
					<image style="overflow:visible;" width="76" height="76" id="atm_x5F_off" xlink:href="./images/2x/atm_off@2x.png" class="i_atm" transform="matrix(0.5 0 0 0.5 319 489)">
				</image>
			</g>
		</a>
		<g id="Elavator">
			<g>
				<g>
					<path class="st3" d="M164,372c-2.8,0-5-2.2-5-5v-30c0-2.8,2.2-5,5-5h30c2.8,0,5,2.2,5,5v30c0,2.8-2.2,5-5,5H164z"/>
					<path class="st2" d="M194,333c2.2,0,4,1.8,4,4v30c0,2.2-1.8,4-4,4h-30c-2.2,0-4-1.8-4-4v-30c0-2.2,1.8-4,4-4H194 M194,331h-30
						c-3.3,0-6,2.7-6,6v30c0,3.3,2.7,6,6,6h30c3.3,0,6-2.7,6-6v-30C200,333.7,197.3,331,194,331L194,331z"/>
				</g>
			</g>
			
				<image style="overflow:visible;" width="76" height="76" id="elevator_x5F_off" xlink:href="./images/2x/elevator_off@2x.png" class="i_elevator" transform="matrix(0.5 0 0 0.5 160 333)">
			</image>
		</g>
		<g id="Elavator_3_">
			<g>
				<g>
					<path class="st3" d="M388,332c-2.8,0-5-2.2-5-5v-30c0-2.8,2.2-5,5-5h30c2.8,0,5,2.2,5,5v30c0,2.8-2.2,5-5,5H388z"/>
					<path class="st2" d="M418,293c2.2,0,4,1.8,4,4v30c0,2.2-1.8,4-4,4h-30c-2.2,0-4-1.8-4-4v-30c0-2.2,1.8-4,4-4H418 M418,291h-30
						c-3.3,0-6,2.7-6,6v30c0,3.3,2.7,6,6,6h30c3.3,0,6-2.7,6-6v-30C424,293.7,421.3,291,418,291L418,291z"/>
				</g>
			</g>
			
				<image style="overflow:visible;" width="76" height="76" id="elevator_x5F_off_1_" xlink:href="./images/2x/elevator_off@2x.png" class="i_elevator" transform="matrix(0.5 0 0 0.5 384 293)">
			</image>
		</g>
		<g id="Stairs_1_">
			<g>
				<path class="st3" d="M348,332c-2.8,0-5-2.2-5-5v-30c0-2.8,2.2-5,5-5h30c2.8,0,5,2.2,5,5v30c0,2.8-2.2,5-5,5H348z"/>
				<path class="st2" d="M378,293c2.2,0,4,1.8,4,4v30c0,2.2-1.8,4-4,4h-30c-2.2,0-4-1.8-4-4v-30c0-2.2,1.8-4,4-4H378 M378,291h-30
					c-3.3,0-6,2.7-6,6v30c0,3.3,2.7,6,6,6h30c3.3,0,6-2.7,6-6v-30C384,293.7,381.3,291,378,291L378,291z"/>
			</g>
			
				<image style="overflow:visible;" width="76" height="76" id="escal_x5F_off" xlink:href="./images/2x/escal_off@2x.png" class="i_escal" transform="matrix(0.5 0 0 0.5 344 293)">
			</image>
		</g>
	</g>
	<g id="Exit_10_">
		<g>
			<path class="st3" d="M164,332c-2.8,0-5-2.2-5-5v-30c0-2.8,2.2-5,5-5h12c2.8,0,5,2.2,5,5v30c0,2.8-2.2,5-5,5H164z"/>
			<path class="st2" d="M176,293c2.2,0,4,1.8,4,4v30c0,2.2-1.8,4-4,4h-12c-2.2,0-4-1.8-4-4v-30c0-2.2,1.8-4,4-4H176 M176,291h-12
				c-3.3,0-6,2.7-6,6v30c0,3.3,2.7,6,6,6h12c3.3,0,6-2.7,6-6v-30C182,293.7,179.3,291,176,291L176,291z"/>
			
				<image style="overflow:visible;" width="40" height="76" id="stairs_x5F_off" xlink:href="./images/2x/stairs_off@2x.png" class="i_stairs"  transform="matrix(0.5 0 0 0.5 160 293)">
			</image>
		</g>
	</g>
	<g id="Exit_11_">
		<g>
			<path class="st3" d="M220.8,455.2c-2.8,0-5-2.2-5-5v-30c0-2.8,2.2-5,5-5h12c2.8,0,5,2.2,5,5v30c0,2.8-2.2,5-5,5H220.8z"/>
			<path class="st2" d="M232.8,416.2c2.2,0,4,1.8,4,4v30c0,2.2-1.8,4-4,4h-12c-2.2,0-4-1.8-4-4v-30c0-2.2,1.8-4,4-4H232.8
				 M232.8,414.2h-12c-3.3,0-6,2.7-6,6v30c0,3.3,2.7,6,6,6h12c3.3,0,6-2.7,6-6v-30C238.8,416.9,236.1,414.2,232.8,414.2L232.8,414.2
				z"/>
			
				<image style="overflow:visible;" width="40" height="76" id="stairs_x5F_off_1_" xlink:href="./images/2x/stairs_off@2x.png" class="i_stairs" transform="matrix(0.5 0 0 0.5 216.8 416.2)">
			</image>
		</g>
	</g>
	<g id="SpotnameLGF" class="spotname">
		<text transform="matrix(1 0 0 1 382.9367 362.0999)" class="st2 st4 st5">랜딩 볼룸 A</text>
		<text transform="matrix(1 0 0 1 383.1652 414.2996)" class="st2 st4 st5">랜딩 볼룸 B</text>
		<text transform="matrix(1 0 0 1 383.1105 466.0999)" class="st2 st4 st5">랜딩 볼룸 C</text>
	</g>
	<g id="Portals">
		<line id="Stair.2.floorGfLd" class="st6" x1="350" y1="313" x2="357" y2="306"/>
		<line id="Elev.6.floorGfLd" class="st6" x1="179" y1="365" x2="186" y2="358"/>
		<line id="Elev.7.floorGfLd" class="st6" x1="390" y1="323" x2="397" y2="316"/>
	</g>
	<g id="Doors">
		<line id="ldlgf101" class="st7" x1="270" y1="325" x2="277" y2="318"/>
		<line id="ldlgf102" class="st7" x1="354" y1="358" x2="361" y2="351"/>
		<line id="ldlgf103" class="st7" x1="354" y1="411" x2="361" y2="404"/>
		<line id="ldlgf104" class="st7" x1="354" y1="463" x2="361" y2="456"/>
		<line id="ldlgf106" class="st7" x1="338" y1="521" x2="345" y2="514"/>
		<line id="ldlgf105" class="st7" x1="462" y1="521" x2="469" y2="514"/>
	</g>
	<g id="Paths">
		<line class="st8" x1="270" y1="343" x2="270" y2="325"/>
		<line class="st8" x1="270" y1="358" x2="270" y2="343"/>
		<line class="st8" x1="270" y1="381" x2="270" y2="358"/>
		<line class="st8" x1="270" y1="411" x2="270" y2="381"/>
		<line class="st8" x1="332" y1="313" x2="350" y2="313"/>
		<line class="st8" x1="332" y1="323" x2="332" y2="313"/>
		<line class="st8" x1="332" y1="358" x2="332" y2="323"/>
		<line class="st8" x1="332" y1="411" x2="332" y2="358"/>
		<line class="st8" x1="332" y1="463" x2="332" y2="411"/>
		<line class="st8" x1="332" y1="323" x2="390" y2="323"/>
		<line class="st8" x1="310" y1="323" x2="332" y2="323"/>
		<line class="st8" x1="310" y1="343" x2="310" y2="323"/>
		<line class="st8" x1="270" y1="343" x2="310" y2="343"/>
		<line class="st8" x1="270" y1="358" x2="332" y2="358"/>
		<line class="st8" x1="270" y1="411" x2="332" y2="411"/>
		<line class="st8" x1="270" y1="463" x2="270" y2="411"/>
		<line class="st8" x1="312" y1="545" x2="270" y2="463"/>
		<line class="st8" x1="270" y1="463" x2="332" y2="463"/>
		<line class="st8" x1="312" y1="545" x2="338" y2="545"/>
		<line class="st8" x1="338" y1="545" x2="462" y2="545"/>
		<line class="st8" x1="179" y1="381" x2="270" y2="381"/>
		<line class="st8" x1="332" y1="358" x2="354" y2="358"/>
		<line class="st8" x1="332" y1="411" x2="354" y2="411"/>
		<line class="st8" x1="332" y1="463" x2="354" y2="463"/>
		<line class="st8" x1="338" y1="545" x2="338" y2="521"/>
		<line class="st8" x1="462" y1="545" x2="462" y2="521"/>
		<line class="st8" x1="179" y1="381" x2="179" y2="365"/>
	</g>
</g>
</svg>
