<?xml version="1.0" encoding="utf-8"?>
<!-- Generator: Adobe Illustrator 23.0.0, SVG Export Plug-In . SVG Version: 6.00 Build 0)  -->
<svg version="1.1" xmlns="http://www.w3.org/2000/svg" xmlns:xlink="http://www.w3.org/1999/xlink" x="0px" y="0px" viewBox="0 0 1400 730" style="enable-background:new 0 0 1400 730;" xml:space="preserve" width="1400px" height="730px" id="gfma">
<defs>
	<style type="text/css">
		#gfma .st0{fill:#CBD5DD;}
		#gfma .st1{fill:#EAEAEA;}
		#gfma .st2{fill:#A5855B;}
		#gfma .st3{fill:#8CC63F;}
		#gfma .st4{fill:none;stroke:#A5855B;stroke-width:2;stroke-miterlimit:10;}
		#gfma .st5{fill:#EAEAEA;stroke:#A5855B;stroke-width:2;stroke-linecap:round;stroke-linejoin:round;stroke-miterlimit:10;}
		#gfma .st6{fill:#FFFFFF;}
		#gfma .st7{fill:url(#SVGID_1_);}
		#gfma .st8{fill:url(#SVGID_2_);}
		#gfma .st9{fill:#EF405C;}
		#gfma .st10{fill:#C72D46;}
		#gfma .st11{font-family:'NotoSans';}
		#gfma .st12{font-size:12px;}
		#gfma .st13{fill:none;stroke:#A5855B;stroke-width:2;stroke-linecap:round;stroke-linejoin:round;}
		#gfma .st14{fill:none;stroke:#FF00FF;}
		#gfma .st15{fill:none;stroke:#00FF00;}
		#gfma .st16{fill:none;stroke:#EF405C;}
        #gfma .st17{fill:#C9CDD1;}
        #gfma .st18{fill:#C9CDD1;stroke:#A5855B;stroke-width:2;stroke-linecap:round;stroke-linejoin:round;stroke-miterlimit:10;}
</style>
</defs>
<g id="BG">
	<rect class="st0" width="1400" height="730"/>
</g>
<g id="GF">
	<g id="Base">
		<g id="Circulation_1">
			<g>
				<path class="st17" d="M273.9,944.8c-3.2,0-5.7-2.5-5.9-5.7c-0.6-11-5-32.5-15.1-46.4c-1.3-1.8-3.4-2.9-5.7-2.9
					c-1.2,0-2.4,0.3-3.5,0.9l-6.6,3.8c-0.8,0.4-1.6,0.7-2.5,0.7c-1.8,0-3.4-1-4.3-2.5L209,855.8c-1.4-2.4-0.6-5.5,1.8-6.8l9.9-5.7
					c0.7-0.4,1.2-1.1,1.4-1.9c0.2-0.8,0.1-1.6-0.4-2.3c-1.6-2.5-3.2-5.1-4.8-7.5c-0.6-0.9-1.5-1.4-2.5-1.4c-0.6,0-1.2,0.2-1.7,0.6
					l-9.8,7c-0.9,0.6-1.9,0.9-2.9,0.9c-1.6,0-3.1-0.8-4.1-2.1L171.2,802c-1.6-2.2-1.1-5.4,1.2-7l9-6.4c0.7-0.5,1.1-1.2,1.2-2.1
					c0.1-0.8-0.1-1.7-0.7-2.3c-2.2-2.6-4.4-5.2-6.6-7.7c-0.6-0.6-1.4-1-2.3-1c-0.8,0-1.5,0.3-2.1,0.8l-8.2,7.7
					c-0.9,0.9-2.1,1.3-3.4,1.3c-1.4,0-2.7-0.6-3.6-1.6c-3.3-3.5-8.5-9.1-13.8-14.7c-5.3-5.7-10.8-11.5-14.6-15.6
					c-1.4-1.5-2.1-2.9-2-4.3c0.1-1.4,0.8-2.8,2.3-4.2l2.4-2.3c1.5-1.4,2.3-3.3,2.2-5.4c-0.1-2-1-3.9-2.6-5.2
					c-8.6-6.9-16.6-12.3-23.9-16.3c-2-1.1-3.8-4.1-3.8-6.4v-326c0-5.1-4.2-9.3-9.3-9.4l-27.5-0.4c-4-0.1-7.3-3.4-7.3-7.4v-61.3
					c0-4.1,3.3-7.4,7.4-7.4H72c4.7,0,8.6-3.9,8.6-8.6c0-2,0.7-3.8,2-5.2c1.3-1.4,3.2-2.2,5.1-2.2c0.7,0,1.4,0.1,2.1,0.3h0.1
					l111.8,8.5c0.9,0.3,1.7,0.4,2.6,0.4c2.8,0,5.5-1.4,7.3-3.6c1.7-2.3,2.3-5.2,1.5-8l-18.8-67.2c-0.8-2.9,0.2-6,2.5-7.8
					c31.7-24.9,158-54.7,579.7-55.2c3.9,0,392.3,3.6,554.7,12.9c2.6,0.1,4.7,2.3,4.7,5V238c0,2.8-2.2,5-5,5H1209
					c-5.2,0-9.4,4.2-9.4,9.4v19.9c0,3.8-2.9,7-6.6,7.4c-19.8,2-33,6.8-41.6,15.1c-9.2,8.9-13.4,22-13.4,41.3s4.3,32.5,13.4,41.3
					c8.5,8.3,21.7,13.1,41.6,15.1c3.8,0.4,6.6,3.5,6.6,7.4V421c0,3.9,3.1,7,7,7H1331c2.8,0,5,2.2,5,5v58.5
					c-11.2,0.7-120.7,7.9-275,13.2c-111,4.2-214.7,6.3-308.1,6.3c-162,0-238.2-6.5-238.9-6.6l-1.1-0.1v440.5H273.9z"/>
				<path class="st2" d="M776.6,149.8L776.6,149.8c4,0,392.3,3.6,554.6,12.9c2.1,0.1,3.8,1.9,3.8,4V238c0,2.2-1.8,4-4,4h-121.9
					c-5.7,0-10.4,4.7-10.4,10.4v19.9c0,3.3-2.5,6-5.7,6.4c-20.1,2-33.4,6.9-42.1,15.4c-9.4,9.1-13.7,22.4-13.7,42.1
					c0,19.6,4.4,33,13.7,42.1c8.7,8.4,22.1,13.3,42.1,15.4c3.3,0.3,5.7,3.1,5.7,6.4V421c0,4.4,3.6,8,8,8H1331c2.2,0,4,1.8,4,4v57.5
					c-15.3,1-123.4,7.9-274.1,13.1c-111,4.2-214.6,6.3-308,6.3c-162,0-238.1-6.5-238.9-6.6l-2.2-0.2v2.2v438.4h-238h-0.1
					c-2.6,0-4.7-2.1-4.8-4.8c-0.5-9.6-4.3-31.7-15.3-47c-1.5-2.1-3.9-3.3-6.5-3.3c-1.4,0-2.8,0.4-4,1.1l-6.6,3.8
					c-0.6,0.4-1.3,0.5-2,0.5c-1.4,0-2.8-0.8-3.5-2l-21.3-36.8c-1.1-1.9-0.4-4.4,1.5-5.5l9.9-5.7c0.9-0.5,1.6-1.5,1.9-2.5
					c0.3-1.1,0.1-2.2-0.5-3.1c-1.6-2.5-3.2-5.1-4.8-7.5c-0.7-1.1-2-1.8-3.4-1.8c-0.8,0-1.6,0.3-2.3,0.7l-9.8,7
					c-0.7,0.5-1.5,0.7-2.3,0.7c-1.3,0-2.5-0.6-3.3-1.7l-24.7-34.6c-1.3-1.8-0.9-4.3,0.9-5.6l9-6.4c0.9-0.6,1.5-1.7,1.7-2.8
					c0.1-1.1-0.2-2.2-0.9-3.1c-2.2-2.6-4.5-5.3-6.6-7.8c-0.8-0.9-1.9-1.4-3-1.4c-1,0-2,0.4-2.7,1.1l-8.2,7.7
					c-0.7,0.7-1.7,1.1-2.7,1.1c-1.1,0-2.2-0.4-2.9-1.3c-3.3-3.6-8.5-9.1-13.9-14.8c-5.3-5.7-10.8-11.5-14.5-15.5
					c-1.2-1.3-1.8-2.5-1.7-3.6c0-1.1,0.7-2.3,2-3.5l2.4-2.3c1.7-1.6,2.6-3.8,2.5-6.2c-0.1-2.3-1.2-4.5-3-5.9
					c-8.6-6.9-16.7-12.4-24-16.4c-1.7-0.9-3.3-3.6-3.3-5.5V383c0-5.6-4.6-10.3-10.2-10.4l-27.5-0.4c-3.5-0.1-6.3-2.9-6.3-6.4v-61.3
					c0-3.5,2.9-6.4,6.4-6.4h6.8c5.3,0,9.6-4.3,9.6-9.6l0,0l0,0c0-1.7,0.6-3.2,1.7-4.4c1.2-1.2,2.8-1.9,4.4-1.9
					c0.6,0,1.2,0.1,1.8,0.3l0.2,0.1h0.2l111.5,8.5c0.9,0.3,1.9,0.4,2.8,0.4c3.1,0,6.1-1.5,8.1-4c1.9-2.5,2.5-5.8,1.7-8.8l-18.8-67.2
					c-0.7-2.5,0.2-5.1,2.2-6.7c17-13.4,56.9-24.6,118.5-33.3C416.3,157.4,571.3,150.1,776.6,149.8 M776.6,147.8
					c-476.1,0.6-559.3,38.9-580.3,55.4c-2.7,2.1-3.8,5.6-2.9,8.8l18.8,67.2c1.5,5.4-2.7,10.3-7.8,10.3c-0.8,0-1.6-0.1-2.4-0.4
					l-111.8-8.5c-0.8-0.2-1.6-0.4-2.4-0.4c-4.4,0-8.2,3.6-8.1,8.3c0,4.2-3.4,7.6-7.6,7.6h-6.8c-4.6,0-8.4,3.8-8.4,8.4V366
					c0,4.6,3.7,8.3,8.3,8.4l27.5,0.4c4.6,0.1,8.3,3.8,8.3,8.4v326c0,2.7,1.9,6,4.3,7.3c8,4.3,16.1,10.1,23.7,16.2
					c2.9,2.3,3,6.6,0.4,9.1l-2.4,2.3c-3.4,3.2-3.6,6.5-0.4,9.9c7.6,8.1,21.8,23.2,28.4,30.3c1.2,1.3,2.8,1.9,4.4,1.9
					c1.5,0,2.9-0.5,4.1-1.6l8.2-7.7c0.4-0.4,0.9-0.5,1.4-0.5c0.6,0,1.1,0.2,1.5,0.7c2.2,2.6,4.5,5.1,6.6,7.7
					c0.7,0.9,0.6,2.2-0.4,2.9l-9,6.4c-2.7,1.9-3.3,5.7-1.4,8.4l24.7,34.6c1.2,1.6,3,2.5,4.9,2.5c1.2,0,2.4-0.4,3.5-1.1l9.8-7
					c0.4-0.3,0.8-0.4,1.2-0.4c0.7,0,1.3,0.3,1.7,0.9c1.6,2.5,3.2,5,4.8,7.5c0.6,1,0.3,2.2-0.7,2.8l-9.9,5.7
					c-2.9,1.7-3.9,5.3-2.2,8.2l21.3,36.8c1.1,1.9,3.1,3,5.2,3c1,0,2-0.3,3-0.8l6.6-3.8c0.9-0.5,2-0.8,3-0.8c1.9,0,3.7,0.9,4.9,2.5
					c10.3,14.3,14.4,35.8,14.9,45.9c0.2,3.7,3.1,6.6,6.8,6.7h0.1h240V505.4c0,0,75.1,6.6,239,6.6c80.7,0,182.8-1.6,308.1-6.3
					c164-5.6,276-13.2,276-13.2V433c0-3.3-2.7-6-6-6h-124.2c-3.3,0-6-2.7-6-6v-21.1c0-4.3-3.3-7.9-7.5-8.4
					c-37.1-3.8-54.1-17.2-54.1-55.4s17-51.6,54.1-55.4c4.3-0.4,7.5-4,7.5-8.4v-19.9c0-4.6,3.8-8.4,8.4-8.4H1331c3.3,0,6-2.7,6-6
					v-71.3c0-3.2-2.5-5.8-5.6-6C1167.1,151.3,776.6,147.8,776.6,147.8L776.6,147.8z"/>
			</g>
			<!--<g>
				<path class="st1" d="M520.5,1209.9c-4.4,0-7.9-3.4-7.9-7.7v-698c66.7,4.4,148.3,6.6,242.6,6.6c268.8,0,560.8-18,580.8-19.3
					v436.6c0,1.3-0.5,2.6-1.4,3.5l-273.7,276.8c-0.9,0.9-2.2,1.5-3.6,1.5L520.5,1209.9L520.5,1209.9z"/>
				<path class="st2" d="M1335,492.6v435.5c0,1.1-0.4,2.1-1.2,2.8l-273.7,276.8c-0.7,0.8-1.8,1.2-2.8,1.2H520.5
					c-3.8,0-6.9-3-6.9-6.7V505.3c66.5,4.3,147.8,6.5,241.6,6.5C1020.1,511.8,1307.5,494.3,1335,492.6 M1337,490.5
					c0,0-301.5,19.3-581.8,19.3c-86.4,0-170.7-1.8-243.6-6.6v699c0,4.8,4,8.7,8.9,8.7h536.7c1.6,0,3.1-0.6,4.3-1.8l273.7-276.8
					c1.1-1.1,1.7-2.6,1.7-4.2V490.5H1337z"/>
			</g>-->
			<g>
				<path class="st0" d="M436.1,383.6c-44,0-99.5-11.2-101.7-11.6c-1.1-0.4-2.3-0.7-3.6-1.1c-11-3.3-24.7-7.4-24.7-37.2
					s13.7-33.9,24.7-37.2c1.3-0.4,2.5-0.8,3.6-1.1c0.4-0.1,46.1-11.6,101.7-11.6c49.7,0,91.9,19.5,96.5,21.7c0.1,0,0.1,0.1,0.2,0.1
					c8,1.7,17.2,7,17.3,7c5.5,3.1,8,11.3,8.9,15.9c0.7,3.5,0.7,7.2,0,10.6c-1,4.6-3.4,12.8-8.9,15.9c-0.1,0.1-9.3,5.3-17.3,7
					c-0.1,0-0.2,0-0.2,0.1C528,364.1,485.9,383.6,436.1,383.6z"/>
				<path class="st2" d="M436.1,284.6c49.5,0,91.5,19.4,96.1,21.6c0.1,0.1,0.3,0.1,0.4,0.2c7.9,1.7,16.9,6.9,17,6.9
					c5.1,2.9,7.5,10.8,8.4,15.2c0.7,3.3,0.7,6.9,0,10.2c-0.9,4.4-3.3,12.3-8.5,15.2c-0.1,0.1-9.1,5.3-17,6.9c-0.2,0-0.3,0.1-0.4,0.2
					c-4.6,2.2-46.6,21.6-96.1,21.6c-43.5,0-98.5-11-101.5-11.6c-1.1-0.4-2.3-0.7-3.6-1.1c-10.7-3.2-24-7.2-24-36.3
					c0-29.1,13.3-33.1,24-36.3c1.3-0.4,2.5-0.7,3.6-1.1C336.8,295.7,381.7,284.6,436.1,284.6 M436.1,282.6
					c-56.3,0-102,11.7-102,11.7c-10.9,3.7-29,5.2-29,39.3s18.1,35.6,29,39.3c0,0,56.7,11.7,102,11.7c50.4,0,93.5-20.1,97-21.8
					c8.3-1.8,17.6-7.1,17.6-7.1c5.7-3.2,8.3-11.1,9.4-16.5c0.8-3.6,0.8-7.4,0-11.1c-1.2-5.4-3.8-13.4-9.4-16.5c0,0-9.3-5.4-17.6-7.1
					C529.6,302.7,486.5,282.6,436.1,282.6L436.1,282.6z"/>
			</g>
			<g>
				<path class="st1" d="M502.5,372.8c-2.1,0-4.1-0.9-5.5-2.5c-4.3-4.8-9.4-15.1-9.4-36.8s5.1-31.9,9.4-36.8
					c1.4-1.6,3.4-2.5,5.5-2.5c0.7,0,1.5,0.1,2.2,0.3c15.7,4.9,26,9.7,27.9,10.6l0.1,0.1h0.1c8.1,1.7,17.2,7,17.3,7
					c5.5,3.1,8,11.3,8.9,15.9c0.7,3.5,0.7,7.1,0,10.6c-1,4.6-3.4,12.8-8.9,15.9c-0.1,0.1-9.3,5.3-17.3,7h-0.1l-0.1,0.1
					c-1.9,0.9-12.2,5.7-27.9,10.6C504,372.7,503.3,372.8,502.5,372.8L502.5,372.8z"/>
				<g>
					<path class="st2" d="M502.5,295.4c0.6,0,1.3,0.1,1.9,0.3c15.7,4.9,25.9,9.6,27.8,10.5l0.2,0.1h0.2c7.9,1.7,16.9,6.9,17,6.9
						c5.1,2.9,7.5,10.8,8.4,15.2c0.7,3.4,0.7,6.8,0,10.2c-0.9,4.4-3.3,12.3-8.5,15.2c-0.1,0.1-9.1,5.3-17,6.9h-0.2l-0.2,0.1
						c-1.9,0.9-12.1,5.7-27.8,10.5c-0.6,0.2-1.3,0.3-1.9,0.3c-1.8,0-3.6-0.8-4.8-2.1c-4.2-4.7-9.2-14.8-9.2-36.1s5-31.4,9.2-36.1
						C499,296.2,500.7,295.4,502.5,295.4 M502.5,293.4c-2.4,0-4.7,1-6.3,2.8c-4.2,4.7-9.7,15.1-9.7,37.4s5.5,32.7,9.7,37.4
						c1.6,1.8,3.9,2.8,6.3,2.8c0.8,0,1.7-0.1,2.5-0.4c15.9-5,26.4-9.9,28-10.6c8.3-1.8,17.6-7.1,17.6-7.1c5.7-3.2,8.3-11.1,9.4-16.5
						c0.8-3.6,0.8-7.4,0-11.1c-1.2-5.4-3.8-13.4-9.4-16.5c0,0-9.3-5.4-17.6-7.1c-1.6-0.8-12.1-5.7-28-10.6
						C504.2,293.5,503.4,293.4,502.5,293.4L502.5,293.4z"/>
				</g>
			</g>
			<g>
				<path class="st1" d="M834.7,383.8c-48.7,0-91.3-19.2-96-21.4c-0.4-0.2-0.9-0.4-1.4-0.5c-7.9-1.8-16.6-6.8-16.7-6.9
					c-7.6-4.2-9.4-18-9.7-20.7c0-0.3,0-0.7,0-1c0.3-2.7,2.1-16.5,9.7-20.7c0.1-0.1,8.8-5.1,16.7-6.9c0.5-0.1,0.9-0.3,1.4-0.5
					c4.7-2.2,47.3-21.4,96-21.4c53.5,0,96.8,10.4,101.5,11.6c0.1,0,0.2,0.1,0.3,0.1c1.1,0.4,2.2,0.7,3.4,1.1
					c7.5,2.3,16.8,5.1,21.5,17c1,2.6,3.7,4.4,6.6,4.4h26.1c3.9,0,7-3.1,7-7v-5.4c0-2.8,2.2-5,5-5h56.4c2.8,0,5,2.2,5,5V362
					c0,2.8-2.2,5-5,5h-56.4c-2.8,0-5-2.2-5-5v-5.4c0-3.9-3.1-7-7-7h-26c-2.9,0-5.6,1.8-6.6,4.4c-4.7,12-14.1,14.8-21.6,17.1
					c-1.2,0.3-2.3,0.7-3.3,1c-0.2,0.1-0.4,0.1-0.6,0.2C930.2,373.4,877.5,383.8,834.7,383.8z"/>
				<path class="st2" d="M834.7,284.8c53.4,0,96.5,10.4,101.3,11.5c0.1,0,0.2,0,0.3,0.1c1.1,0.4,2.3,0.7,3.5,1.1
					c7.7,2.3,16.4,4.9,20.9,16.4c1.2,3,4.2,5,7.5,5h26.1c4.4,0,8-3.6,8-8v-5.4c0-2.2,1.8-4,4-4h56.4c2.2,0,4,1.8,4,4V362
					c0,2.2-1.8,4-4,4h-56.4c-2.2,0-4-1.8-4-4v-5.4c0-4.4-3.6-8-8-8h-26c-3.3,0-6.3,2-7.5,5.1c-4.5,11.5-13.2,14.2-20.9,16.5
					c-1.2,0.4-2.3,0.7-3.3,1c-0.2,0.1-0.3,0.1-0.4,0.1c-5.9,1.2-58.5,11.6-101.2,11.6c-48.5,0-90.9-19.2-95.6-21.3
					c-0.5-0.2-1-0.4-1.6-0.5c-7.7-1.8-16.3-6.7-16.5-6.8c-7.2-4-8.9-17.3-9.2-19.9c0-0.3,0-0.5,0-0.8c0.2-1.5,0.7-5.6,2.1-9.8
					c1.7-5,4.2-8.5,7.1-10.2c0.1,0,8.7-5,16.4-6.8c0.6-0.1,1.1-0.3,1.6-0.5C743.8,304,786.2,284.8,834.7,284.8 M834.7,282.8
					c-48.5,0-90.3,18.7-96.4,21.5c-0.4,0.2-0.8,0.3-1.2,0.4c-8.1,1.9-17,7-17,7c-8,4.4-9.9,18.4-10.2,21.5c0,0.4,0,0.8,0,1.2
					c0.3,3.1,2.2,17,10.2,21.5c0,0,8.8,5.1,17,7c0.4,0.1,0.8,0.2,1.2,0.4c6.1,2.9,47.9,21.5,96.4,21.5c43.2,0,96.8-10.6,101.6-11.6
					c0.2,0,0.5-0.1,0.7-0.2c8.1-2.7,19.9-4.4,25.5-18.7c0.9-2.3,3.2-3.8,5.7-3.8h26c3.3,0,6,2.7,6,6v5.4c0,3.3,2.7,6,6,6h56.4
					c3.3,0,6-2.7,6-6v-56.4c0-3.3-2.7-6-6-6h-56.4c-3.3,0-6,2.7-6,6v5.4c0,3.3-2.7,6-6,6h-26.1c-2.5,0-4.8-1.5-5.7-3.8
					c-5.7-14.3-17.5-15.9-25.6-18.7c-0.1,0-0.3-0.1-0.4-0.1C933,293.6,888.8,282.8,834.7,282.8L834.7,282.8z"/>
			</g>
			<g>
				<path class="st2" d="M626.4,367.8c43.5,0,74.8,8.7,107.9,17.8l2.8,0.8c31.7,8.8,72.5,15.9,99.3,17.2c3.4,0.2,6.1,3,6.1,6.4v22.4
					v14.4c0,2.2-1.8,4-4,4h-10.9c-1.1,0-2,0.9-2,2v16c0,1.1,0.9,2,2,2h10.9c2.2,0,4,1.8,4,4v34.4c-29.7,0.6-60.1,0.9-90.2,0.9
					c-130.7,0-224.6-5.8-238.8-6.7v-21.2c0-2.2,1.8-4,4-4h9.9c4.4,0,8-3.6,8-8v-27.6c0-2.2,1.8-4,4-4h49.3c4.4,0,8-3.6,8-8v-10.2
					c0-4.4-3.6-8-8-8h-49.3c-2.2,0-4-1.8-4-4v-20.7c0-1.6,1-3.1,2.5-3.7c11-4.6,40.9-15.3,80.2-16.2
					C620.9,367.8,623.7,367.8,626.4,367.8 M626.4,365.8c-2.7,0-5.5,0-8.3,0.1c-40.1,1-70.7,12.2-80.9,16.4c-2.2,0.9-3.7,3.1-3.7,5.5
					v20.7c0,3.3,2.7,6,6,6h49.3c3.3,0,6,2.7,6,6v10.2c0,3.3-2.7,6-6,6h-49.3c-3.3,0-6,2.7-6,6v27.6c0,3.3-2.7,6-6,6h-9.9
					c-3.3,0-6,2.7-6,6v23.1c0,0,97.7,6.8,240.8,6.8c29,0,59.9-0.3,92.2-1v-36.3c0-3.3-2.7-6-6-6h-10.9v-16h10.9c3.3,0,6-2.7,6-6
					v-14.4v-22.4c0-4.5-3.5-8.2-8-8.4c-25.1-1.3-65.9-8-98.9-17.2C703,374.9,671.4,365.8,626.4,365.8L626.4,365.8z"/>
			</g>
			<g>
				<path class="st2" d="M237.6,373.9c1,0,2,0.2,3.2,0.6c21.6,7.6,98.7,32.2,184.8,32.2c16.4,0,32.4-0.9,47.7-2.7
					c0.3,0,0.7-0.1,1-0.1c4,0,7.3,2.9,7.3,6.5v51.1c0,2.2-1.8,4-4,4c-190.2-0.2-268.2-11.9-292.9-16.9c-1.4-0.3-2.4-1.2-2.9-2.5
					s-0.3-2.7,0.5-3.8l50.1-66.4C234.3,374.5,235.9,373.9,237.6,373.9 M237.6,371.9c-2.2,0-4.2,0.8-6.6,2.6L180.8,441
					c-2.7,3.5-0.7,8.6,3.6,9.5c24.3,4.9,102.3,16.7,293.3,17l0,0c3.3,0,6-2.7,6-6v-51.1c0-4.7-4.2-8.5-9.3-8.5c-0.4,0-0.8,0-1.2,0.1
					c-15.9,1.9-31.8,2.7-47.4,2.7c-85.8,0-162.4-24.5-184.1-32.1C240.1,372.1,238.8,371.9,237.6,371.9L237.6,371.9z"/>
                <path class="st1" d="M237.6,373.9c1,0,2,0.2,3.2,0.6c21.6,7.6,98.7,32.2,184.8,32.2c16.4,0,32.4-0.9,47.7-2.7 c0.3,0,0.7-0.1,1-0.1c4,0,7.3,2.9,7.3,6.5v51.1c0,2.2-1.8,4-4,4c-190.2-0.2-268.2-11.9-292.9-16.9c-1.4-0.3-2.4-1.2-2.9-2.5 s-0.3-2.7,0.5-3.8l50.1-66.4C234.3,374.5,235.9,373.9,237.6,373.9"/>
			</g>
			<line class="st4" x1="316.8" y1="171.2" x2="316.8" y2="277.8"/>
			<line class="st4" x1="414.6" y1="160.6" x2="414.6" y2="263.3"/>
			<g>
				<path class="st2" d="M499,155.9v105.9c0,3.5-2.9,6.4-6.4,6.4c-0.5,0-0.9-0.1-1.4-0.1c-20.3-4.4-42-6.7-64.5-6.7
					c-75.5,0-140.3,25.3-152.5,30.4c-0.8,0.3-1.6,0.5-2.5,0.5h-42.5c-6.7,0-12.5-4.5-14.3-10.9l-19.4-70.2c-0.7-2.5,0.2-5.1,2.2-6.7
					c8.5-6.6,38.1-23.3,130.3-34.4C329.2,169.9,421.2,158.4,499,155.9 M501,153.8c-79.2,2.4-173,14.3-173,14.3
					c-91,10.9-121.9,27.4-131.3,34.8c-2.7,2.1-3.8,5.6-2.9,8.8l19.4,70.2c2,7.3,8.7,12.4,16.2,12.4h42.5c1.1,0,2.2-0.2,3.2-0.6
					c10.6-4.4,75.2-30.3,151.7-30.3c20.7,0,42.4,1.9,64,6.6c0.6,0.1,1.2,0.2,1.8,0.2c4.5,0,8.4-3.7,8.4-8.4L501,153.8L501,153.8z"/>
			</g>
			<line class="st4" x1="635.4" y1="150.7" x2="635.4" y2="301.4"/>
			<line class="st4" x1="536.4" y1="222.8" x2="635.4" y2="222.8"/>
			<line class="st4" x1="737.4" y1="148.9" x2="737.4" y2="282.8"/>
			<line class="st4" x1="686.4" y1="150.5" x2="686.4" y2="296.6"/>
			<path class="st4" d="M845.4,149.4v107.8c0,4.5-3.5,8.2-8,8.4c-24.9,1.3-65.4,8-98.2,17.2c-36.6,10.2-69.6,19.8-118.8,18.6
				c-37.9-0.9-67.3-11.1-78.7-15.7c-3.2-1.3-5.3-4.4-5.3-7.8v-125"/>
			<line class="st4" x1="723" y1="381.6" x2="723" y2="511.6"/>
			<path class="st4" d="M858,509.2v-99.3c0-4.6,3.7-8.4,8.3-8.4c10.6-0.1,31.3-0.4,63.1-1.2c0,0,15.3-1.6,24-8.4
				c8.4-6.5,25.2-10.4,38.5-11.3c4.8-0.3,8.9,3.5,8.9,8.4v117.5"/>
			<path class="st4" d="M923.4,400.4v12c0,4.6,3.8,8.4,8.4,8.4h69"/>
			<path class="st4" d="M949.8,421.4v29.4c0,4.6,3.8,8.4,8.4,8.4h42.6"/>
			<g>
				<path class="st1" d="M1056,472c0-2.8,2.2-5,5-5h38c2.8,0,5,2.2,5,5v31l-48,1.9V472z"/>
				<path class="st2" d="M1099,468c2.2,0,4,1.8,4,4v30.1l-46,1.8V472c0-2.2,1.8-4,4-4H1099 M1099,466h-38c-3.3,0-6,2.7-6,6v34l50-2
					v-32C1105,468.7,1102.3,466,1099,466L1099,466z"/>
			</g>
			<polyline class="st18" points="499.8,159.2 499.8,105.8 536.4,105.8 536.4,159.2"/>
			<g id="magf_x5F_111_1">
				<path class="st2" d="M858.9,151c48.1,0.6,95.2,1.3,140,2.1v129.5c0,1.3-1,2.3-2.3,2.4c-16.5,0-34.2-5.8-41.1-11.3c-9.5-7.4-25.6-9.2-26.3-9.3l0,0l0,0h-0.1l0,0l0,0c-33.3-0.8-54.9-1.1-64.7-1.2c-2.9,0-5.3-2.4-5.3-5.4V151M856.9,149v108.8c0,4,3.3,7.4,7.3,7.4c9.9,0.1,31.4,0.4,64.7,1.2h0.1c0.7,0.1,16.1,1.8,25.2,8.9c7.6,5.9,25.9,11.7,42.4,11.7c2.4-0.1,4.2-2,4.2-4.4V151.2C946.8,150.2,896.5,149.5,856.9,149L856.9,149z"/>
                <path class="st2" d="M1026.6,153.4c19.2,0.4,55,1,73,1.4v65.5h-66c-3.9,0-7-3.1-7-7V153.4M1024.6,151.3v2v59.9c0,5,4,9,9,9h66h2v-2v-65.5v-2l-2,0c-10-0.2-37-0.8-47.6-0.9c-8.4-0.2-16.9-0.3-25.4-0.5L1024.6,151.3L1024.6,151.3z"/>
                <path class="st2" d="M1101.6,154.8c20.9,0.5,37.7,1.1,58.2,1.6v58.2c0,2.8-2.2,4.9-5,4.9l-53.2,0.8V154.8 M1099.6,154.8v65.5v2l2,0l53.2-0.8c3.9,0,7-3,7-6.9v-58.2v-2l-2,0c-9.2-0.2-18.4-0.5-27.6-0.7c-11.5-0.3-19-0.5-30.6-0.8l-2,0V154.8z"/>
                <path class="st2" d="M1161.8,156.4c15.6,0.4,31,0.9,46,1.3V205c0,2.8-2.2,5-5,5h-41V156.4M1159.8,154.4v2.1V210v2h2h41c3.9,0,7-3.1,7-7v-47.3v-1.9l-1.9-0.1c-6.8-0.2-13.7-0.4-20.7-0.6c-8.3-0.2-16.8-0.5-25.3-0.7L1159.8,154.4L1159.8,154.4z"/>
			</g>
            <g>
				<path class="st0" d="M738,362.1c0-0.1-0.1-0.1-0.2-0.1c-8-1.7-17.2-6.9-17.3-7c-5.5-3.1-7.9-11.3-8.9-15.9c-0.7-3.4-0.7-7.1,0-10.6c0.9-4.6,3.4-12.8,8.9-15.9c0.1,0,9.3-5.3,17.3-7c0.1,0,0.1-0.1,0.2-0.1c4.6-2.2,46.8-21.7,96.5-21.7c55.6,0,101.3,11.5,101.7,11.6c1.1,0.3,2.3,0.7,3.6,1.1c11,3.3,24.7,7.4,24.7,37.2s-13.7,33.9-24.7,37.2c-1.3,0.4-2.5,0.7-3.6,1.1c-2.2,0.4-57.7,11.6-101.7,11.6C784.7,383.6,742.6,364.1,738,362.1z"/>
				<path class="st2" d="M834.5,284.6c54.4,0,99.3,11.1,101.6,11.6c1.1,0.4,2.3,0.7,3.6,1.1c10.7,3.2,24,7.2,24,36.3c0,29.1-13.3,33.1-24,36.3c-1.3,0.4-2.5,0.7-3.6,1.1c-3,0.6-58,11.6-101.5,11.6c-49.5,0-91.5-19.4-96.1-21.6c-0.1-0.1-0.2-0.2-0.4-0.2c-7.9-1.6-16.9-6.8-17-6.9c-5.2-2.9-7.6-10.8-8.5-15.2c-0.7-3.3-0.7-6.9,0-10.2c0.9-4.4,3.3-12.3,8.4-15.2c0.1,0,9.1-5.2,17-6.9c0.1-0.1,0.3-0.1,0.4-0.2C743,304,785,284.6,834.5,284.6 M834.5,282.6c-50.4,0-93.5,20.1-97,21.9c-8.3,1.7-17.6,7.1-17.6,7.1c-5.6,3.1-8.2,11.1-9.4,16.5c-0.8,3.7-0.8,7.5,0,11.1c1.1,5.4,3.7,13.3,9.4,16.5c0,0,9.3,5.3,17.6,7.1c3.5,1.7,46.6,21.8,97,21.8c45.3,0,102-11.7,102-11.7c10.9-3.7,29-5.2,29-39.3s-18.1-35.6-29-39.3C936.5,294.3,890.8,282.6,834.5,282.6L834.5,282.6z"/>
			</g>
		</g>
		<g id="Elevator_11">
			<g>
				<g>
					<path class="st6" d="M627,353.6c-2.8,0-5-2.2-5-5v-30c0-2.8,2.2-5,5-5h30c2.8,0,5,2.2,5,5v30c0,2.8-2.2,5-5,5H627z"/>
					<path class="st2" d="M657,314.6c2.2,0,4,1.8,4,4v30c0,2.2-1.8,4-4,4h-30c-2.2,0-4-1.8-4-4v-30c0-2.2,1.8-4,4-4H657 M657,312.6
						h-30c-3.3,0-6,2.7-6,6v30c0,3.3,2.7,6,6,6h30c3.3,0,6-2.7,6-6v-30C663,315.3,660.3,312.6,657,312.6L657,312.6z"/>
				</g>
			</g>
			
				<image style="overflow:visible;enable-background;" width="76" height="76" class="i_elevator" id="elevator_x5F_off_4_" xlink:href="./images/2x/elevator_off@2x.png"  transform="matrix(0.5 0 0 0.5 623 314.6)">
			</image>
		</g>
		<g id="Elevator_10">
			<g>
				<g>
					<path class="st6" d="M1150,500c-2.8,0-5-2.2-5-5v-30c0-2.8,2.2-5,5-5h30c2.8,0,5,2.2,5,5v30c0,2.8-2.2,5-5,5H1150z"/>
					<path class="st2" d="M1180,461c2.2,0,4,1.8,4,4v30c0,2.2-1.8,4-4,4h-30c-2.2,0-4-1.8-4-4v-30c0-2.2,1.8-4,4-4H1180 M1180,459
						h-30c-3.3,0-6,2.7-6,6v30c0,3.3,2.7,6,6,6h30c3.3,0,6-2.7,6-6v-30C1186,461.7,1183.3,459,1180,459L1180,459z"/>
				</g>
			</g>
			
				<image style="overflow:visible;enable-background;" width="76" height="76" class="i_elevator" id="elevator_x5F_off" xlink:href="./images/2x/elevator_off@2x.png"  transform="matrix(0.5 0 0 0.5 1146 461)">
			</image>
		</g>
		<g id="Elevator_2">
			<g>
				<g>
					<path class="st6" d="M169,393c-2.8,0-5-2.2-5-5v-30c0-2.8,2.2-5,5-5h30c2.8,0,5,2.2,5,5v30c0,2.8-2.2,5-5,5H169z"/>
					<path class="st2" d="M199,354c2.2,0,4,1.8,4,4v30c0,2.2-1.8,4-4,4h-30c-2.2,0-4-1.8-4-4v-30c0-2.2,1.8-4,4-4H199 M199,352h-30
						c-3.3,0-6,2.7-6,6v30c0,3.3,2.7,6,6,6h30c3.3,0,6-2.7,6-6v-30C205,354.7,202.3,352,199,352L199,352z"/>
				</g>
			</g>
			
				<image style="overflow:visible;enable-background;" width="76" height="76" class="i_elevator" id="elevator_x5F_off" xlink:href="./images/2x/elevator_off@2x.png"  transform="matrix(0.5 0 0 0.5 165 354)">
			</image>
		</g>
		<g id="Stairs_3">
			<g>
				<path class="st6" d="M169,353c-2.8,0-5-2.2-5-5v-30c0-2.8,2.2-5,5-5h30c2.8,0,5,2.2,5,5v30c0,2.8-2.2,5-5,5H169z"/>
				<path class="st2" d="M199,314c2.2,0,4,1.8,4,4v30c0,2.2-1.8,4-4,4h-30c-2.2,0-4-1.8-4-4v-30c0-2.2,1.8-4,4-4H199 M199,312h-30
					c-3.3,0-6,2.7-6,6v30c0,3.3,2.7,6,6,6h30c3.3,0,6-2.7,6-6v-30C205,314.7,202.3,312,199,312L199,312z"/>
			</g>
			
				<image style="overflow:visible;enable-background;" width="76" height="76" class="i_escal" id="escal_x5F_off" xlink:href="./images/2x/escal_off@2x.png"  transform="matrix(0.5 0 0 0.5 165 314)">
			</image>
		</g>
		<g id="Stairs_2">
			<g>
				<path class="st6" d="M587,353.6c-2.8,0-5-2.2-5-5v-30c0-2.8,2.2-5,5-5h30c2.8,0,5,2.2,5,5v30c0,2.8-2.2,5-5,5H587z"/>
				<path class="st2" d="M617,314.6c2.2,0,4,1.8,4,4v30c0,2.2-1.8,4-4,4h-30c-2.2,0-4-1.8-4-4v-30c0-2.2,1.8-4,4-4H617 M617,312.6
					h-30c-3.3,0-6,2.7-6,6v30c0,3.3,2.7,6,6,6h30c3.3,0,6-2.7,6-6v-30C623,315.3,620.3,312.6,617,312.6L617,312.6z"/>
			</g>
				<image style="overflow:visible;enable-background;" width="76" height="76" class="i_escal" id="escal_x5F_off" xlink:href="./images/2x/escal_off@2x.png"  transform="matrix(0.5 0 0 0.5 583 314.6)">
			</image>
		</g>
		<g id="Stairs_1">
			<g>
				<path class="st6" d="M1113.1,353.7c-2.8,0-5-2.2-5-5v-30c0-2.8,2.2-5,5-5h30c2.8,0,5,2.2,5,5v30c0,2.8-2.2,5-5,5H1113.1z"/>
				<path class="st2" d="M1143.1,314.7c2.2,0,4,1.8,4,4v30c0,2.2-1.8,4-4,4h-30c-2.2,0-4-1.8-4-4v-30c0-2.2,1.8-4,4-4H1143.1
					 M1143.1,312.7h-30c-3.3,0-6,2.7-6,6v30c0,3.3,2.7,6,6,6h30c3.3,0,6-2.7,6-6v-30C1149.1,315.4,1146.4,312.7,1143.1,312.7
					L1143.1,312.7z"/>
			</g>
			
				<image style="overflow:visible;enable-background;" width="76" height="76" class="i_escal" id="escal_x5F_off_4_" xlink:href="./images/2x/escal_off@2x.png"  transform="matrix(0.5 0 0 0.5 1109.1 314.7)">
			</image>
		</g>
	</g>
	<g id="Rooms">
		<a id="lobbyMaGf" xlink:href="#" class="svg_lobby_mark">
			<g>
				<g>
					<linearGradient id="SVGID_1_" gradientUnits="userSpaceOnUse" x1="669" y1="396" x2="691" y2="396" gradientTransform="matrix(1 0 0 -1 0 730)">
						<stop offset="0.1" style="stop-color:#EF405C;stop-opacity:0"/>
						<stop offset="0.8" style="stop-color:#EF405C"/>
					</linearGradient>
					<polygon class="st7" points="669,319 691,334 669,349"/>
						<linearGradient id="SVGID_2_" gradientUnits="userSpaceOnUse" x1="669" y1="396" x2="691" y2="396" gradientTransform="matrix(1 0 0 -1 0 730)">
						<stop offset="0.1" style="stop-color:#EF405C;stop-opacity:0"/>
						<stop offset="0.8" style="stop-color:#B30521"/>
					</linearGradient>
					<path class="st8" d="M670,320.9l19.2,13.1L670,347.1V320.9 M669,319v30l22-15L669,319L669,319z"/>
				</g>
				<g>
					<path class="st9" d="M689.9,335.5c-0.1,0-0.3,0-0.4-0.2l-8.1-13.3c-0.7-1.3-1-2.7-1-4.2c0-5,4.2-9.2,9.4-9.2h0.1       c2.5,0,4.9,1,6.7,2.7c1.8,1.8,2.8,4.1,2.8,6.6c0,1.5-0.3,2.9-1,4.2l-8.1,13.3C690.2,335.5,690,335.5,689.9,335.5z M690,314       c-2.2,0-4,1.8-4,4s1.8,4,4,4s4-1.8,4-4S692.2,314,690,314z"/>
					<path class="st10" d="M689.9,309c2.4,0,4.6,0.9,6.3,2.5c1.7,1.7,2.7,3.9,2.7,6.3c0,1.4-0.3,2.7-1,3.9l-8,13.2l-8-13.2       c-0.6-1.2-1-2.6-1-4C680.9,312.9,684.9,309,689.9,309L689.9,309 M690,322.5c2.5,0,4.5-2,4.5-4.5s-2-4.5-4.5-4.5s-4.5,2-4.5,4.5       S687.6,322.5,690,322.5 M689.9,308L689.9,308c-5.5,0.1-9.9,4.4-10,9.7c0,1.6,0.4,3.1,1.1,4.5l8.1,13.3c0.2,0.4,0.6,0.5,0.8,0.5       s0.6,0,0.8-0.5l8.1-13.3c0.7-1.4,1.1-2.9,1.1-4.4c0-2.6-1.1-5.1-3-7C695.1,309,692.6,308,689.9,308L689.9,308z M690,321.5       c-1.9,0-3.5-1.6-3.5-3.5s1.6-3.5,3.5-3.5s3.5,1.6,3.5,3.5S692,321.5,690,321.5L690,321.5z"/>
				</g>
			</g>
		</a>
		<a id="shss122" xlink:href="#">
			<g>
				<path class="st1" d="M725.8,509.8c1.3,0,2.5,0,3.8,0c1.5,0,3.1,0,4.6,0c1.2,0,2.5,0,3.7,0c1.5,0,3,0,4.5,0c1.3,0,2.6,0,3.9,0
					c1.5,0,3,0,4.5,0c1.3,0,2.6,0,3.9,0c2.5,0,5,0,7.6,0c0.6,0,1.2,0,1.8,0c2,0,4,0,6,0c0.9,0,1.8,0,2.7,0c1.8,0,3.6,0,5.4,0
					c0.8,0,1.7,0,2.5,0c2.6,0,5.1,0,7.7,0c0.3,0,0.7,0,1,0c2.3,0,4.5,0,6.8,0c0.8,0,1.7,0,2.5,0c1.8,0,3.7,0,5.5,0
					c0.9,0,1.7,0,2.6,0c2.2,0,4.5,0,6.7-0.1c0.4,0,0.7,0,1.1,0c2.5,0,5.1,0,7.6-0.1c0.9,0,1.7,0,2.6,0c1.8,0,3.6,0,5.4-0.1
					c0.9,0,1.8,0,2.7,0c1.9,0,3.9,0,5.8-0.1c0.4,0,0.7,0,1.1,0c1,0,2,0,2.9-0.1v-34.4c0-2.2-1.8-4-4-4h-10.9c-1.1,0-2-0.9-2-2v-16
					c0-1.1,0.9-2,2-2h10.9c2.2,0,4-1.8,4-4v-14.4v-22.4c0-3.4-2.7-6.2-6.1-6.4c-26.8-1.4-67.7-8.5-99.3-17.2l-2.8-0.8
					c-3.5-1-6.9-1.9-10.3-2.8v127C724.6,509.8,725.2,509.8,725.8,509.8z"/>
			</g>
		</a>
		<a id="shss113" xlink:href="#">
			<g>
				<path class="st1" d="M866.7,508.9c2.5,0,5-0.1,7.4-0.1c0.8,0,1.5,0,2.3,0c1.8,0,3.6-0.1,5.4-0.1c1,0,2,0,3-0.1
					c1.6,0,3.3-0.1,4.9-0.1c1,0,1.9,0,2.9-0.1c2.5,0,4.9-0.1,7.4-0.1c0.6,0,1.1,0,1.7,0c2,0,3.9-0.1,5.9-0.1c1,0,2,0,3-0.1
					c1.6,0,3.2-0.1,4.8-0.1c1,0,2,0,3-0.1c1.8,0,3.7-0.1,5.5-0.1c0.9,0,1.9,0,2.8-0.1c2.1,0,4.3-0.1,6.4-0.1c1.1,0,2.1-0.1,3.2-0.1
					c1.4,0,2.9-0.1,4.3-0.1c1.1,0,2.2-0.1,3.4-0.1c1.6,0,3.1-0.1,4.7-0.1c0.9,0,1.9,0,2.8-0.1c2.3-0.1,4.6-0.1,6.9-0.2
					c1.1,0,2.2-0.1,3.3-0.1c0.5,0,1.1,0,1.6,0c12.1-0.3,24.2-0.7,36.5-1.1v-45.6h-41.6c-5.2,0-9.4-4.2-9.4-9.4v-29h-17
					c-5.2,0-9.4-4.2-9.4-9.4v-10.8c-28.5,0.7-47.1,0.9-56.1,1c-4,0-7.3,3.4-7.3,7.4V509c1.7,0,3.5-0.1,5.2-0.1
					C865,508.9,865.9,508.9,866.7,508.9z"/>
			</g>
		</a>
		<a id="magf117" xlink:href="#">
			<g>
				<path class="st1" d="M1243,222c-4.4,0-8-3.6-8-8v-16c0-4.4,3.6-8,8-8h42v32H1243z"/>
                <path class="st2" d="M1284,191v30h-41c-3.9,0-7-3.1-7-7v-16c0-3.9,3.1-7,7-7H1284 M1286,189h-2h-41c-5,0-9,4-9,9v16c0,5,4,9,9,9 h41h2v-2v-30V189L1286,189z"/>
			</g>
		</a>
		<a id="shss115" xlink:href="#">
			<g>
				<path class="st1" d="M521.1,503.8c1.6,0.1,3.1,0.2,4.7,0.3c1,0.1,1.9,0.1,2.9,0.2c1.4,0.1,2.9,0.2,4.3,0.2
					c1,0.1,2.1,0.1,3.2,0.2c1.4,0.1,2.8,0.2,4.1,0.2c1.1,0.1,2.1,0.1,3.2,0.2c1.4,0.1,2.8,0.1,4.2,0.2c1.1,0.1,2.1,0.1,3.2,0.2
					c1.4,0.1,2.8,0.1,4.3,0.2c1.1,0.1,2.1,0.1,3.2,0.1c1.4,0.1,2.9,0.1,4.4,0.2c1.1,0,2.1,0.1,3.2,0.1c1.5,0.1,3,0.1,4.4,0.2
					c1,0,2.1,0.1,3.1,0.1c1.5,0.1,3,0.1,4.6,0.2c1,0,2,0.1,3.1,0.1c1.6,0.1,3.1,0.1,4.7,0.2c1,0,2,0.1,3,0.1
					c1.6,0.1,3.2,0.1,4.8,0.2c1,0,1.9,0.1,2.9,0.1c1.7,0.1,3.4,0.1,5.1,0.2c0.9,0,1.8,0.1,2.7,0.1c1.8,0.1,3.6,0.1,5.4,0.2
					c0.8,0,1.6,0.1,2.4,0.1c1.9,0.1,3.9,0.1,5.8,0.2c0.7,0,1.4,0,2.1,0.1c2.3,0.1,4.6,0.1,6.8,0.2c0.4,0,0.7,0,1.1,0
					c8.1,0.2,16.2,0.4,24.4,0.6c0.4,0,0.9,0,1.3,0c2.2,0,4.5,0.1,6.7,0.1c0.7,0,1.5,0,2.2,0c1.9,0,3.9,0.1,5.8,0.1
					c0.9,0,1.8,0,2.7,0c1.8,0,3.6,0.1,5.4,0.1c1,0,2,0,3,0c1.7,0,3.4,0,5.1,0.1c1.1,0,2.1,0,3.2,0c1.7,0,3.4,0,5,0.1
					c1.1,0,2.2,0,3.3,0c1.6,0,3.3,0,4.9,0.1c1.1,0,2.3,0,3.4,0c1.6,0,3.2,0,4.8,0c1.2,0,2.4,0,3.6,0c1.5,0,3.1,0,4.6,0
					c1.2,0,2.5,0,3.7,0c0.3,0,0.5,0,0.8,0V382.2c-28.8-7.8-57.5-14.5-95.6-14.5c-2.7,0-5.5,0-8.3,0.1c-39.3,1-69.1,11.7-80.2,16.2
					c-1.5,0.6-2.5,2.1-2.5,3.7v20.7c0,2.2,1.8,4,4,4h49.3c4.4,0,8,3.6,8,8v10.2c0,4.4-3.6,8-8,8h-49.3c-2.2,0-4,1.8-4,4v27.6
					c0,4.4-3.6,8-8,8h-9.9c-2.2,0-4,1.8-4,4v21c1.7,0.1,3.4,0.2,5.1,0.3C519.5,503.7,520.3,503.8,521.1,503.8z"/>
			</g>
		</a>
		<a id="shss101" xlink:href="#">
			<g>
				<path class="st1" d="M307.2,172.8c-32.2,4.8-58,10.4-77.2,16.6c-8.9,2.9-15.6,5.7-20.7,8.2c-4.6,2.3-8.5,4.7-11.6,7.1
					c-0.1,0.1-0.2,0.2-0.3,0.3c-1.5,1.6-2.1,3.9-1.5,6.1l19.4,70.2c1.8,6.4,7.7,10.9,14.3,10.9h42.5c0.8,0,1.7-0.2,2.5-0.5
					c5.2-2.2,20.2-8.1,41.4-14.1v-106C312.8,172,310,172.4,307.2,172.8z"/>
			</g>
		</a>
		<a id="shss103" xlink:href="#">
			<g>
				<path class="st1" d="M498.8,155.9c-0.6,0-1.2,0-1.7,0.1c-29.1,1.5-56.3,3.2-81.5,5.1v100.4c3.7-0.1,7.5-0.2,11.2-0.2
					c22.5,0,44.2,2.2,64.5,6.7c0.5,0.1,0.9,0.1,1.4,0.1c3.5,0,6.4-2.9,6.4-6.4V159.8c-0.1-0.2-0.2-0.4-0.2-0.6L498.8,155.9
					L498.8,155.9z"/>
			</g>
		</a>
		<a id="magf121" xlink:href="#">
			<g>
				<path class="st1" d="M950.8,450.8c0,4.1,3.3,7.4,7.4,7.4h41.6v-36.4h-49V450.8z"/>
			</g>
		</a>
		<a id="shss112" xlink:href="#">
			<g>
				<path class="st1" d="M931.8,419.8h68v-30.7c0-2.1-0.8-4-2.3-5.4s-3.5-2.1-5.5-2c-12.9,0.9-29.6,4.6-37.9,11.1
					c-8.8,6.9-23.9,8.5-24.5,8.6c-1.7,0-3.4,0.1-5.1,0.1v10.9C924.4,416.5,927.7,419.8,931.8,419.8z"/>
			</g>
		</a>
		<a id="magf112" xlink:href="#">
			<g>
				<path class="st1" d="M1099.6,220.3v-65.5c-18-0.4-53.8-1-73-1.4v59.9c0,3.9,3.1,7,7,7H1099.6z"/>
			</g>
		</a>
		<a id="magf113" xlink:href="#">
			<g>
				<path class="st1" d="M1154.8,219.5c2.8,0,5-2.1,5-4.9v-58.2c-20.5-0.5-37.3-1.1-58.2-1.6v65.5L1154.8,219.5z"/>
			</g>
		</a>
		<a id="shss111" xlink:href="#">
			<g>
				<path class="st1" d="M864.2,263.2c9.9,0.1,31.5,0.4,64.7,1.2l0,0l0,0h0.1l0,0l0,0c0.7,0.1,16.7,1.9,26.3,9.3
					c6.9,5.4,24.6,11.2,41.1,11.3c1.3-0.1,2.3-1.1,2.3-2.4V153.2c-44.8-0.8-91.9-1.5-140-2.1v106.8
					C858.9,260.8,861.3,263.2,864.2,263.2z"/>
			</g>
		</a>
        <a id="magf115" xlink:href="#">
			<g>
				<path class="st1" d="M1287,221h48v-54.3c0-2.1-1.7-3.9-3.8-4c-10.2-0.6-37.1-1.7-49.2-2.2V216 C1282,218.8,1284.2,221,1287,221z"/>
                <path class="st2" d="M1282,160.5c12.1,0.5,39,1.6,49.2,2.2c2.1,0.1,3.8,1.9,3.8,4V221h-48c-2.8,0-5-2.2-5-5 V160.5 M1280,158.4v2.1V216c0,3.9,3.1,7,7,7h48h2v-2v-54.3c0-3.2-2.6-5.8-5.7-6c-9.8-0.6-36.6-1.7-49.2-2.2L1280,158.4 L1280,158.4z"/>
			</g>
		</a>
		<a id="magf114" xlink:href="#">
			<g>
				<path class="st1" d="M1202.8,210c2.8,0,5-2.2,5-5v-47.3c-15-0.4-30.4-0.9-46-1.3V210L1202.8,210L1202.8,210z"/>
			</g>
		</a>
		<!-- <a id="shss106" xlink:href="#">
			<g>
				<path class="st1" d="M537.4,277.9c0,3,1.8,5.7,4.6,6.9c10.9,4.4,40.4,14.7,78.4,15.7c4.8,0.1,9.4,0.1,14,0v-76.6h-97V277.9z"/>
			</g>
		</a> //-->
		<a id="shss102" xlink:href="#">
			<g>
				<path class="st1" d="M328.3,170c-3.6,0.4-7.1,0.9-10.5,1.3V277c25.2-7,58.8-14.1,95.8-15.5V161.2
					C366.3,165.3,328.8,170,328.3,170z"/>
			</g>
		</a>
		<path class="st1" d="M537.4,221.8h97v-70.5c-34.2,0.7-66.5,1.7-97,2.9v5.1V221.8z"/>
		<a id="shss108" xlink:href="#">
			<g>
				<path class="st1" d="M736.1,282.6l0.3-0.1V149.9c-16.7,0.1-33,0.3-49,0.4v144.4C704.3,291.5,720,287.1,736.1,282.6z"/>
			</g>
		</a>
		<a id="shss109" xlink:href="#">
			<g>
				<path class="st1" d="M738.9,281.8c31.4-8.7,71.9-15.8,98.4-17.2c3.9-0.2,7-3.5,7-7.4V150.6c-40.8-0.5-66.7-0.7-67.8-0.8
					c-12.9,0-25.7,0.1-38.2,0.1V282L738.9,281.8z"/>
			</g>
		</a>
		<a id="shss107" xlink:href="#">
			<g>
				<path class="st1" d="M685.4,295.2V150.4c-16.7,0.2-33.1,0.5-49,0.8v149.2C654.5,300,670.4,298,685.4,295.2z"/>
			</g>
		</a>
		<a id="shss118" xlink:href="#">
			<g>
				<path class="st0" d="M413.6,333.6h73c0-4.9,0.3-9.2,0.7-13c0.1-1.1,0.3-2.1,0.4-3.1s0.3-2,0.5-2.9s0.4-1.8,0.6-2.7
					c1.6-6.4,3.7-10.8,5.8-13.7c0.3-0.4,0.5-0.8,0.8-1.1c0.1-0.2,0.3-0.3,0.4-0.5s0.3-0.3,0.4-0.5l0,0c0.2-0.3,0.5-0.5,0.8-0.8
					c0.1-0.1,0.2-0.1,0.2-0.2c0.2-0.2,0.4-0.3,0.7-0.5c0.1-0.1,0.2-0.1,0.2-0.2c0.3-0.2,0.6-0.4,0.9-0.5c0,0,0,0,0.1,0
					c-17-4.9-39.2-9.4-63.1-9.4c-7.7,0-15.3,0.2-22.5,0.6L413.6,333.6z"/>
			</g>
		</a>
		<a id="shss117" xlink:href="#">
			<g>
				<path class="st0" d="M413.6,285.2c-43.7,2.3-77.1,10.5-78.9,11c-1.1,0.4-2.3,0.8-3.6,1.1c-10.7,3.2-24,7.2-24,36.3h106.5V285.2z
					"/>
			</g>
		</a>
		<a id="shss120_1" xlink:href="#">
			<g>
				<path class="st0" d="M499.2,373.2C499.2,373.2,499.2,373.1,499.2,373.2c-0.4-0.2-0.7-0.3-1-0.5c-0.1-0.1-0.2-0.1-0.2-0.2
					c-0.2-0.1-0.4-0.3-0.7-0.5c-0.1-0.1-0.2-0.1-0.2-0.2c-0.3-0.2-0.5-0.5-0.8-0.8s-0.5-0.6-0.8-1c-0.3-0.3-0.5-0.7-0.8-1.1
					c-0.1-0.2-0.3-0.4-0.4-0.6c-0.3-0.4-0.6-0.9-0.8-1.3c-0.4-0.7-0.8-1.5-1.2-2.3c-0.3-0.6-0.5-1.1-0.8-1.8
					c-2.6-6.2-4.8-15.5-4.8-29.4H429v48.9c2.4,0.1,4.8,0.1,7.1,0.1C460,382.6,482.2,378.1,499.2,373.2z"/>
			</g>
		</a>
		<a id="shss119" xlink:href="#">
			<g>
				<path class="st0" d="M307.1,333.6c0,29.1,13.3,33.1,24,36.3c1.2,0.4,2.4,0.7,3.6,1.1c2.8,0.6,52.2,10.4,94.3,11.5v-48.9H307.1z"
					/>
			</g>
		</a>
		<a id="shss121" xlink:href="#">
			<g>
				<path class="st1" d="M502.5,295.4c-1.8,0-3.6,0.8-4.8,2.1c-4.2,4.7-9.2,14.8-9.2,36.1c0,21.3,5,31.4,9.2,36.1
					c1.2,1.4,3,2.1,4.8,2.1c0.6,0,1.3-0.1,1.9-0.3c14.6-4.6,24.5-9,27.3-10.3c0.2-0.1,0.3-0.2,0.5-0.2l0,0l0.2-0.1h0.2
					c7.9-1.7,16.9-6.9,17-6.9c0.2-0.1,0.3-0.2,0.4-0.3c0.2-0.1,0.3-0.2,0.5-0.3c1.5-1.1,2.7-2.5,3.7-4.2c0-0.1,0.1-0.1,0.1-0.2
					c0.7-1.2,1.3-2.5,1.9-3.9c0.1-0.1,0.1-0.3,0.2-0.4c0-0.1,0.1-0.2,0.1-0.3c0.1-0.2,0.2-0.5,0.3-0.7c0.1-0.3,0.2-0.7,0.3-1v-0.1
					c0.4-1.4,0.8-2.7,1-3.8c0.7-3.3,0.7-6.9,0-10.2c-0.2-0.8-0.4-1.8-0.7-2.8v-0.1c-0.1-0.3-0.2-0.6-0.3-0.9l0,0
					c-0.1-0.4-0.3-0.9-0.4-1.3c-0.2-0.4-0.3-0.9-0.5-1.4c-0.5-1.3-1.1-2.6-1.8-3.7l0,0c-0.2-0.3-0.4-0.7-0.6-1
					c-0.4-0.5-0.8-1-1.2-1.5c-0.1-0.1-0.2-0.2-0.3-0.3c-0.8-0.8-1.6-1.6-2.6-2.1c-0.1-0.1-9.2-5.3-17-6.9h-0.2l-0.2-0.1
					c-0.1-0.1-0.3-0.1-0.5-0.2c-2.8-1.3-12.7-5.8-27.3-10.3C503.8,295.5,503.2,295.4,502.5,295.4z"/>
			</g>
		</a>
		<a id="magf119" xlink:href="#">
			<g>
				<path class="st1" d="M1002.2,311v-5.4c0-2.2,1.8-4,4-4h56.4c2.2,0,4,1.8,4,4V362c0,2.2-1.8,4-4,4h-56.4c-2.2,0-4-1.8-4-4v-5.4
					L1002.2,311L1002.2,311z"/>
			</g>
		</a>
		<a id="magf118" xlink:href="#">
			<g>
				<path class="st1" d="M1090.3,502.6l12.7-0.5V472c0-2.2-1.8-4-4-4h-38c-2.2,0-4,1.8-4,4v31.8c1.3,0,2.6-0.1,3.9-0.1
					C1070.9,503.3,1080.7,502.9,1090.3,502.6z"/>
			</g>
		</a>
		<a id="shss110" xlink:href="#">
			<g>
				<g>
					<path class="st6" d="M810.4,189.5c-2.8,0-5-2.2-5-5v-30c0-2.8,2.2-5,5-5h30c2.8,0,5,2.2,5,5v30c0,2.8-2.2,5-5,5H810.4z"/>
					<path class="st2" d="M840.4,150.5c2.2,0,4,1.8,4,4v30c0,2.2-1.8,4-4,4h-30c-2.2,0-4-1.8-4-4v-30c0-2.2,1.8-4,4-4H840.4
						 M840.4,148.5h-30c-3.3,0-6,2.7-6,6v30c0,3.3,2.7,6,6,6h30c3.3,0,6-2.7,6-6v-30C846.4,151.2,843.7,148.5,840.4,148.5
						L840.4,148.5z"/>
				</g>
				
					<image style="overflow:visible;enable-background;" width="76" height="76" class="i_toilet" id="toilet_x5F_off_1" xlink:href="./images/2x/toilet_off@2x.png"  transform="matrix(0.5 0 0 0.5 806.4 150.5)">
				</image>
			</g>
		</a>
		<a id="shss104" xlink:href="#">
			<g>
				<g>
					<path class="st6" d="M563.4,222.8c-2.8,0-5-2.2-5-5v-30c0-2.8,2.2-5,5-5h30c2.8,0,5,2.2,5,5v30c0,2.8-2.2,5-5,5H563.4z"/>
					<path class="st2" d="M593.4,183.8c2.2,0,4,1.8,4,4v30c0,2.2-1.8,4-4,4h-30c-2.2,0-4-1.8-4-4v-30c0-2.2,1.8-4,4-4H593.4
						 M593.4,181.8h-30c-3.3,0-6,2.7-6,6v30c0,3.3,2.7,6,6,6h30c3.3,0,6-2.7,6-6v-30C599.4,184.5,596.7,181.8,593.4,181.8
						L593.4,181.8z"/>
				</g>
				
					<image style="overflow:visible;enable-background;" width="76" height="76" class="i_toilet" id="toilet_x5F_off_2" xlink:href="./images/2x/toilet_off@2x.png"  transform="matrix(0.5 0 0 0.5 559.4 183.8)">
				</image>
			</g>
		</a>
		<a id="shss116" xlink:href="#">
			<g>
				<g>
					<path class="st6" d="M561.6,477.7c-2.8,0-5-2.2-5-5v-30c0-2.8,2.2-5,5-5h30c2.8,0,5,2.2,5,5v30c0,2.8-2.2,5-5,5H561.6z"/>
					<path class="st2" d="M591.6,438.7c2.2,0,4,1.8,4,4v30c0,2.2-1.8,4-4,4h-30c-2.2,0-4-1.8-4-4v-30c0-2.2,1.8-4,4-4H591.6
						 M591.6,436.7h-30c-3.3,0-6,2.7-6,6v30c0,3.3,2.7,6,6,6h30c3.3,0,6-2.7,6-6v-30C597.6,439.4,594.9,436.7,591.6,436.7
						L591.6,436.7z"/>
				</g>
				
					<image style="overflow:visible;enable-background;" width="76" height="76"  class="i_toilet" id="toilet_x5F_off_3" xlink:href="./images/2x/toilet_off@2x.png"  transform="matrix(0.5 0 0 0.5 557.6 438.7)">
				</image>
			</g>
		</a>
		<a id="shss114" xlink:href="#">
			<g>
				<g>
					<path class="st6" d="M808.6,509.8c-2.8,0-5-2.2-5-5v-30c0-2.8,2.2-5,5-5h30c2.8,0,5,2.2,5,5v30c0,2.8-2.2,5-5,5H808.6z"/>
					<path class="st2" d="M838.6,470.8c2.2,0,4,1.8,4,4v30c0,2.2-1.8,4-4,4h-30c-2.2,0-4-1.8-4-4v-30c0-2.2,1.8-4,4-4H838.6
						 M838.6,468.8h-30c-3.3,0-6,2.7-6,6v30c0,3.3,2.7,6,6,6h30c3.3,0,6-2.7,6-6v-30C844.6,471.5,841.9,468.8,838.6,468.8
						L838.6,468.8z"/>
				</g>
				
					<image style="overflow:visible;enable-background;" width="76" height="76"  class="i_toilet" id="toilet_x5F_off_4" xlink:href="./images/2x/toilet_off@2x.png"  transform="matrix(0.5 0 0 0.5 804.6 470.8)">
				</image>
			</g>
		</a>
		<a id="shss120" xlink:href="#">
			<g>
				<g>
					<g>
						<path class="st6" d="M445.2,356.8c-2.8,0-5-2.2-5-5v-30c0-2.8,2.2-5,5-5h30c2.8,0,5,2.2,5,5v30c0,2.8-2.2,5-5,5H445.2z"/>
						<path class="st2" d="M475.2,317.8c2.2,0,4,1.8,4,4v30c0,2.2-1.8,4-4,4h-30c-2.2,0-4-1.8-4-4v-30c0-2.2,1.8-4,4-4H475.2
							 M475.2,315.8h-30c-3.3,0-6,2.7-6,6v30c0,3.3,2.7,6,6,6h30c3.3,0,6-2.7,6-6v-30C481.2,318.5,478.5,315.8,475.2,315.8
							L475.2,315.8z"/>
					</g>
				</g>
				
					<image style="overflow:visible;enable-background;" width="76" height="76" class="i_pham" id="pham_x5F_off" xlink:href="./images/2x/pham_off@2x.png"  transform="matrix(0.5 0 0 0.5 441.2 317.8)">
				</image>
			</g>
		</a>
		<a id="magf122" xlink:href="#">
			<g>
				<g>
					<g>
						<path class="st6" d="M965.8,506.7c-2.8,0-5-2.2-5-5v-30c0-2.8,2.2-5,5-5h30c2.8,0,5,2.2,5,5v30c0,2.8-2.2,5-5,5H965.8z"/>
						<path class="st2" d="M995.8,467.7c2.2,0,4,1.8,4,4v30c0,2.2-1.8,4-4,4h-30c-2.2,0-4-1.8-4-4v-30c0-2.2,1.8-4,4-4H995.8
							 M995.8,465.7h-30c-3.3,0-6,2.7-6,6v30c0,3.3,2.7,6,6,6h30c3.3,0,6-2.7,6-6v-30C1001.8,468.4,999.1,465.7,995.8,465.7
							L995.8,465.7z"/>
					</g>
				</g>
				
					<image style="overflow:visible;enable-background;" width="76" height="76"  class="i_hospi" id="hospi_x5F_off" xlink:href="./images/2x/hospi_off@2x.png"  transform="matrix(0.5 0 0 0.5 961.8 467.7)">
				</image>
			</g>
		</a>
		<a id="magf116" xlink:href="#">
			<g>
				<g>
					<g>
						<path class="st6" d="M1286,222c-2.8,0-5-2.2-5-5v-30c0-2.8,2.2-5,5-5h30c2.8,0,5,2.2,5,5v30c0,2.8-2.2,5-5,5H1286z"/>
						<path class="st2" d="M1316,183c2.2,0,4,1.8,4,4v30c0,2.2-1.8,4-4,4h-30c-2.2,0-4-1.8-4-4v-30c0-2.2,1.8-4,4-4H1316 M1316,181 h-30c-3.3,0-6,2.7-6,6v30c0,3.3,2.7,6,6,6h30c3.3,0,6-2.7,6-6v-30C1322,183.7,1319.3,181,1316,181L1316,181z"/>
					</g>
				</g>
				
					<image style="overflow:visible;enable-background;" width="76" height="76" class="i_atm"  id="atm_x5F_off" xlink:href="./images/2x/atm_off@2x.png"  transform="matrix(0.5 0 0 0.5 1282 183)">
				</image>
			</g>
		</a>
		<a id="shss105" xlink:href="#">
			<g>
				<g>
					<g>
						<path class="st6" d="M541.4,280.6c-2.8,0-5-2.2-5-5v-30c0-2.8,2.2-5,5-5h30c2.8,0,5,2.2,5,5v30c0,2.8-2.2,5-5,5H541.4z"/>
						<path class="st2" d="M571.4,241.6c2.2,0,4,1.8,4,4v30c0,2.2-1.8,4-4,4h-30c-2.2,0-4-1.8-4-4v-30c0-2.2,1.8-4,4-4H571.4
							 M571.4,239.6h-30c-3.3,0-6,2.7-6,6v30c0,3.3,2.7,6,6,6h30c3.3,0,6-2.7,6-6v-30C577.4,242.3,574.7,239.6,571.4,239.6
							L571.4,239.6z"/>
					</g>
				</g>
				<image style="overflow:visible;enable-background;" width="76" height="76" class="i_atm"  id="atm_x5F_off" xlink:href="./images/2x/atm_off@2x.png"  transform="matrix(0.5 0 0 0.5 537.4 241.6)"></image>
			</g>
		</a>
	</g>
	<g>
		<g id="Exit_14">
			<g>
				<path class="st6" d="M539.6,477.7c-2.8,0-5-2.2-5-5v-30c0-2.8,2.2-5,5-5h12c2.8,0,5,2.2,5,5v30c0,2.8-2.2,5-5,5H539.6z"/>
				<path class="st2" d="M551.6,438.7c2.2,0,4,1.8,4,4v30c0,2.2-1.8,4-4,4h-12c-2.2,0-4-1.8-4-4v-30c0-2.2,1.8-4,4-4H551.6
					 M551.6,436.7h-12c-3.3,0-6,2.7-6,6v30c0,3.3,2.7,6,6,6h12c3.3,0,6-2.7,6-6v-30C557.6,439.4,554.9,436.7,551.6,436.7
					L551.6,436.7z"/>
				<image style="overflow:visible;enable-background;" width="40" height="76" class="i_stairs" id="stairs_x5F_off" xlink:href="./images/2x/stairs_off@2x.png"  transform="matrix(0.5 0 0 0.5 535.6 438.7)"></image>
			</g>
		</g>
		<g id="Exit_13">
			<g>
				<path class="st6" d="M541.4,222.8c-2.8,0-5-2.2-5-5v-30c0-2.8,2.2-5,5-5h12c2.8,0,5,2.2,5,5v30c0,2.8-2.2,5-5,5H541.4z"/>
				<path class="st2" d="M553.4,183.8c2.2,0,4,1.8,4,4v30c0,2.2-1.8,4-4,4h-12c-2.2,0-4-1.8-4-4v-30c0-2.2,1.8-4,4-4H553.4
					 M553.4,181.8h-12c-3.3,0-6,2.7-6,6v30c0,3.3,2.7,6,6,6h12c3.3,0,6-2.7,6-6v-30C559.4,184.5,556.7,181.8,553.4,181.8
					L553.4,181.8z"/>
				<image style="overflow:visible;enable-background;" width="40" height="76" class="i_stairs" id="stairs_x5F_off" xlink:href="./images/2x/stairs_off@2x.png"  transform="matrix(0.5 0 0 0.5 537.4 183.8)"></image>
			</g>
		</g>
		<g id="Exit_12">
			<g>
				<path class="st6" d="M828.4,229.5c-2.8,0-5-2.2-5-5v-30c0-2.8,2.2-5,5-5h12c2.8,0,5,2.2,5,5v30c0,2.8-2.2,5-5,5H828.4z"/>
				<path class="st2" d="M840.4,190.5c2.2,0,4,1.8,4,4v30c0,2.2-1.8,4-4,4h-12c-2.2,0-4-1.8-4-4v-30c0-2.2,1.8-4,4-4H840.4
					 M840.4,188.5h-12c-3.3,0-6,2.7-6,6v30c0,3.3,2.7,6,6,6h12c3.3,0,6-2.7,6-6v-30C846.4,191.2,843.7,188.5,840.4,188.5
					L840.4,188.5z"/>
				<image style="overflow:visible;enable-background;" width="40" height="76" class="i_stairs" id="stairs_x5F_off_4_" xlink:href="./images/2x/stairs_off@2x.png"  transform="matrix(0.5 0 0 0.5 824.4 190.5)"></image>
			</g>
		</g>
		<g id="Exit_11">
			<g>
				<path class="st6" d="M982.9,233.8c-2.8,0-5-2.2-5-5v-30c0-2.8,2.2-5,5-5h12c2.8,0,5,2.2,5,5v30c0,2.8-2.2,5-5,5H982.9z"/>
				<path class="st2" d="M994.9,194.8c2.2,0,4,1.8,4,4v30c0,1.1-0.4,2.1-1.2,2.8c-0.8,0.8-1.8,1.2-2.8,1.2h-12c-2.2,0-4-1.8-4-4v-30
					c0-2.2,1.8-4,4-4H994.9 M994.9,192.8h-12c-3.3,0-6,2.7-6,6v30c0,3.3,2.7,6,6,6h12c3.3,0,6-2.7,6-6v-30
					C1000.9,195.5,998.2,192.8,994.9,192.8L994.9,192.8z"/>
				<image style="overflow:visible;enable-background;" width="40" height="76" class="i_stairs" id="stairs_x5F_off_6_" xlink:href="./images/2x/stairs_off@2x.png"  transform="matrix(0.5 0 0 0.5 978.9 194.8)"></image>
			</g>
		</g>
		<g id="Exit_10">
			<g>
				<path class="st6" d="M826.6,452c-2.8,0-5-2.2-5-5v-30c0-2.8,2.2-5,5-5h12c2.8,0,5,2.2,5,5v30c0,2.8-2.2,5-5,5H826.6z"/>
				<path class="st2" d="M838.6,413c2.2,0,4,1.8,4,4v30c0,2.2-1.8,4-4,4h-12c-2.2,0-4-1.8-4-4v-30c0-2.2,1.8-4,4-4H838.6 M838.6,411
					h-12c-3.3,0-6,2.7-6,6v30c0,3.3,2.7,6,6,6h12c3.3,0,6-2.7,6-6v-30C844.6,413.7,841.9,411,838.6,411L838.6,411z"/>
				<image style="overflow:visible;enable-background;" width="40" height="76" class="i_stairs" id="stairs_x5F_off_8_" xlink:href="./images/2x/stairs_off@2x.png"  transform="matrix(0.5 0 0 0.5 822.6 413)"></image>
			</g>
		</g>
		<g id="Icon" class="icon">
			<!-- <image width="28" height="28" xlink:href="./images/icon/restaurant.svg"  transform="matrix(1 0 0 1 642 400)">크랩통</image> //-->
		</g>
		<g id="Spotname" class="spotname">
			<text id="shss115" text-anchor="middle" transform="matrix(1 0 0 1 658 447)" class="st2 st11 st12">크랩통</text>
			<text id="shss122" text-anchor="middle" transform="matrix(1 0 0 1 776 448)"><tspan x="0" y="0" class="st2 st11 st12">제주관광공사</tspan><tspan x="0" y="14" class="st2 st11 st12">신화월드 면세점</tspan></text>
			<text id="shss113" text-anchor="middle" transform="matrix(1 0 0 1 904 448)"><tspan x="0" y="0" class="st2 st11 st12">제주관광공사</tspan><tspan x="0" y="14" class="st2 st11 st12">신화월드 면세점</tspan></text>
			<text id="magf119" text-anchor="middle" transform="matrix(1 0 0 1 1030 338)" class="st2 st11 st12">엠 라운지</text>
			<text id="shss117" text-anchor="middle" transform="matrix(1 0 0 1 366 309)" class="st2 st11 st12">스무디킹</text>
			<text id="shss119" text-anchor="middle" transform="matrix(1 0 0 1 370 360)" class="st2 st11 st12">왔다 스트리트 푸드</text>
			<text id="shss118" text-anchor="middle" transform="matrix(1 0 0 1 452 306)" class="st2 st11 st12">앤티앤스</text>
			<text id="shss120" text-anchor="middle" transform="matrix(1 0 0 1 460 372)" class="st2 st11 st12">아주약국</text>
			<g><text id="shss121" text-anchor="middle" transform="matrix(1 0 0 1 524 339)" class="st2 st11 st12">다만 프레르</text></g>
			<text id="shss101" text-anchor="middle" transform="matrix(1 0 0 1 260 230)" class="st2 st11 st12">셀렉 더 테이블</text>
			<text id="shss102" text-anchor="middle" transform="matrix(1 0 0 1 367 230)" class="st2 st11 st12">더 플레이스</text>
			<text id="shss103" text-anchor="middle" transform="matrix(1 0 0 1 458 216)"><tspan x="0" y="0" class="st2 st11 st12">스타벅스</tspan><tspan x="0" y="14" class="st2 st11 st12">리저브</tspan></text>
			<!-- <text id="shss106" text-anchor="middle" transform="matrix(1 0 0 1 606 255)"><tspan x="0" y="0" class="st2 st11 st12">브릴랑뜨</tspan><tspan x="0" y="14" class="st2 st11 st12">젬메</tspan></text> //-->
			<text id="shss107" text-anchor="middle" transform="matrix(1 0 0 1 662 229)"><tspan x="0" y="0" class="st2 st11 st12">홍신</tspan><tspan x="0" y="14" class="st2 st11 st12">중식당</tspan></text>
			<text id="shss108" text-anchor="middle" transform="matrix(1 0 0 1 712 229)"><tspan x="0" y="0" class="st2 st11 st12">데블스</tspan><tspan x="0" y="14" class="st2 st11 st12">도어</tspan></text>
			<text id="shss109" text-anchor="middle" transform="matrix(1 0 0 1 784 228)"><tspan x="0" y="0" class="st2 st11 st12">제주관광공사</tspan><tspan x="0" y="14" class="st2 st11 st12">신화월드 면세점</tspan></text>
			<text id="shss111" text-anchor="middle" transform="matrix(1 0 0 1 920 228)"><tspan x="0" y="0" class="st2 st11 st12">제주관광공사</tspan><tspan x="0" y="14" class="st2 st11 st12">신화월드 면세점</tspan></text>
			<text id="magf112" text-anchor="middle" transform="matrix(1 0 0 1 1064 184)" class="st2 st11 st12">르 쉬느아</text>
			<text id="magf113" text-anchor="middle" transform="matrix(1 0 0 1 1132 184)" class="st2 st11 st12">데판야</text>
			<text id="magf114" text-anchor="middle" transform="matrix(1 0 0 1 1185 174)"><tspan x="0" y="0" class="st2 st11 st12">濟州膳</tspan><tspan x="0" y="14" class="st2 st11 st12">제주 선</tspan></text>
			<text id="magf117" text-anchor="middle" transform="matrix(1 0 0 1 1258 210)" class="st2 st11 st12">더 코브</text>
			<text id="magf115" text-anchor="middle" transform="matrix(1 0 0 1 1309 176)" class="st2 st11 st12">신한은행</text>
			<text id="shss112" text-anchor="middle" transform="matrix(1 0 0 1 962 414)" class="st2 st11 st12">프랭크 뮬러</text>
			<text id="magf121" text-anchor="middle" transform="matrix(1 0 0 1 976 437)"><tspan x="0" y="0" class="st2 st11 st12">디자인</tspan><tspan x="0" y="14" class="st2 st11 st12">오키즘</tspan></text>
			<text id="magf118" text-anchor="middle" transform="matrix(1 0 0 1 1080 490)" class="st2 st11 st12">베레종</text>
			<g>
				<g>
					<line class="st13" x1="518.4" y1="136.3" x2="518.4" y2="159.2"/>
					<g><polygon class="st2" points="511,142 518.4,138.8 525.8,142 518.4,124.4"/></g>
				</g>
			</g>
			<text id="shinhwa1f" text-anchor="middle" transform="matrix(1 0 0 1 518 173)" class="st2 st11 st12"><tspan x="0" y="0">신화관</tspan><tspan x="0" y="14">(1F)</tspan></text>
		</g>
	</g>
	<g id="Portals">
		<line id="Wayout.1.floorGfZOM" class="st14" x1="34" y1="341" x2="41" y2="334"/>
		<line id="Wayout.2.floorGfLd" class="st14" x1="141" y1="523" x2="148" y2="516"/>
		<line id="Wayout.3.floorGfLd" class="st14" x1="489" y1="523" x2="496" y2="516"/>
		<line id="Wayout.4.floorShF100" class="st14" x1="518" y1="109" x2="525" y2="102"/>
		<line id="Wayout.5.floorGfAtr" class="st14" x1="34" y1="341" x2="41" y2="334"/>
		<line id="Stair.1.floorLGFMa" class="st14" x1="1114" y1="334" x2="1121" y2="327"/>
		<line id="Stair.2.floorMaF100" class="st14" x1="1114" y1="334" x2="1121" y2="327"/>
		<line id="Elev.1.floorMaF5" class="st14" x1="1158" y1="473" x2="1165" y2="466"/>
		<line id="Elev.2.floorMaF100" class="st14" x1="1158" y1="473" x2="1165" y2="466"/>
		<line id="Stair.3.floorLGFMa" class="st14" x1="586" y1="334" x2="593" y2="327"/>
		<line id="Elev.3.floorLGFMa" class="st14" x1="642" y1="350" x2="649" y2="343"/>
	</g>
	<g id="Doors">
		<line id="lobbyMaGf" class="st15" x1="676" y1="341" x2="683" y2="334"/>
		<line id="shss101" class="st15" x1="261" y1="283" x2="268" y2="276"/>
		<line id="shss102" class="st15" x1="361" y1="258" x2="368" y2="251"/>
		<line id="shss103" class="st15" x1="460" y1="254" x2="467" y2="247"/>
		<line id="shss104" class="st15" x1="571" y1="195" x2="578" y2="188"/>
		<line id="shss105" class="st15" x1="543" y1="261" x2="550" y2="254"/>
		<!-- <line id="shss106" class="st15" x1="606" y1="290" x2="613" y2="283"/> //-->
		<line id="shss107" class="st15" x1="661" y1="290" x2="668" y2="283"/>
		<line id="shss108" class="st15" x1="714" y1="280" x2="721" y2="273"/>
		<line id="shss109" class="st15" x1="788" y1="262" x2="795" y2="255"/>
		<line id="shss110" class="st15" x1="829" y1="177" x2="836" y2="170"/>
		<line id="shss111" class="st15" x1="919" y1="255" x2="926" y2="248"/>
		<line id="magf113" class="st15" x1="1122" y1="210" x2="1129" y2="203"/>
		<line id="magf112" class="st15" x1="1064" y1="210" x2="1071" y2="203"/>
		<line id="magf114" class="st15" x1="1184" y1="201" x2="1191" y2="194"/>
		<line id="magf115" class="st15" x1="1288" y1="172" x2="1295" y2="165"/>
		<line id="magf117" class="st15" x1="1242" y1="206" x2="1249" y2="199"/>
		<line id="magf119" class="st15" x1="1051" y1="341" x2="1058" y2="334"/>
		<line id="magf118" class="st15" x1="1073" y1="482" x2="1080" y2="475"/>
		<line id="magf122" class="st15" x1="988" y1="493" x2="995" y2="486"/>
		<line id="magf121" class="st15" x1="986" y1="446" x2="993" y2="439"/>
		<line id="shss112" class="st15" x1="986" y1="409" x2="993" y2="402"/>
		<line id="shss113" class="st15" x1="886" y1="418" x2="893" y2="411"/>
		<line id="shss114" class="st15" x1="831" y1="498" x2="838" y2="491"/>
		<line id="shss122" class="st15" x1="771" y1="412" x2="778" y2="405"/>
		<line id="shss115" class="st15" x1="654" y1="386" x2="661" y2="379"/>
		<line id="shss116" class="st15" x1="569" y1="451" x2="576" y2="444"/>
		<line id="shss121" class="st15" x1="547" y1="341" x2="554" y2="334"/>
		<line id="shss120" class="st15" x1="460" y1="374" x2="467" y2="367"/>
		<line id="shss119" class="st15" x1="377" y1="371" x2="384" y2="364"/>
		<line id="shss117" class="st15" x1="370" y1="303" x2="377" y2="296"/>
		<line id="shss118" class="st15" x1="444" y1="299" x2="451" y2="292"/>
	</g>
	<g id="Paths">
		<line class="st16" x1="261" y1="283" x2="261" y2="303"/>
		<line class="st16" x1="126" y1="334" x2="215" y2="334"/>
		<line class="st16" x1="41" y1="334" x2="126" y2="334"/>
		<line class="st16" x1="156" y1="374" x2="215" y2="374"/>
		<line class="st16" x1="361" y1="258" x2="361" y2="279"/>
		<line class="st16" x1="460" y1="254" x2="460" y2="275"/>
		<line class="st16" x1="518" y1="261" x2="543" y2="261"/>
		<line class="st16" x1="578" y1="177" x2="578" y2="188"/>
		<!-- <line class="st16" x1="606" y1="290" x2="606" y2="307"/> //-->
		<line class="st16" x1="661" y1="290" x2="661" y2="307"/>
		<line class="st16" x1="714" y1="280" x2="714" y2="300"/>
		<line class="st16" x1="788" y1="262" x2="788" y2="279"/>
		<line class="st16" x1="836" y1="170" x2="851" y2="170"/>
		<line class="st16" x1="919" y1="255" x2="919" y2="277"/>
		<line class="st16" x1="1064" y1="210" x2="1064" y2="259"/>
		<line class="st16" x1="1122" y1="210" x2="1122" y2="230"/>
		<line class="st16" x1="1184" y1="201" x2="1184" y2="230"/>
		<!--<line class="st16" x1="1178" y1="230" x2="1178" y2="258"/>-->
		<line class="st16" x1="1089" y1="334" x2="1114" y2="334"/>
		<line class="st16" x1="1058" y1="334" x2="1089" y2="334"/>
		<line class="st16" x1="993" y1="402" x2="1011" y2="402"/>
		<line class="st16" x1="993" y1="439" x2="1011" y2="439"/>
		<line class="st16" x1="995" y1="486" x2="1011" y2="486"/>
		<line class="st16" x1="893" y1="392" x2="893" y2="411"/>
		<line class="st16" x1="851" y1="491" x2="838" y2="491"/>
		<line class="st16" x1="778" y1="386" x2="778" y2="405"/>
		<line class="st16" x1="661" y1="360" x2="661" y2="379"/>
		<line class="st16" x1="576" y1="428" x2="576" y2="444"/>
		<line class="st16" x1="554" y1="334" x2="570" y2="334"/>
		<line class="st16" x1="570" y1="334" x2="586" y2="334"/>
		<line class="st16" x1="642" y1="360" x2="642" y2="350"/>
		<line class="st16" x1="451" y1="292" x2="451" y2="274"/>
		<line class="st16" x1="377" y1="296" x2="377" y2="277"/>
		<line class="st16" x1="377" y1="390" x2="377" y2="371"/>
		<line class="st16" x1="460" y1="394" x2="460" y2="374"/>
		<line class="st16" x1="1165" y1="450" x2="1165" y2="466"/>
		<line class="st16" x1="1080" y1="457" x2="1080" y2="475"/>
		<line class="st16" x1="261" y1="303" x2="278" y2="303"/>
		<line class="st16" x1="278" y1="303" x2="305" y2="294"/>
		<line class="st16" x1="305" y1="294" x2="335" y2="285"/>
		<line class="st16" x1="335" y1="285" x2="361" y2="279"/>
		<line class="st16" x1="361" y1="279" x2="377" y2="277"/>
		<line class="st16" x1="377" y1="277" x2="415" y2="274"/>
		<line class="st16" x1="415" y1="274" x2="451" y2="274"/>
		<line class="st16" x1="451" y1="274" x2="460" y2="275"/>
		<line class="st16" x1="460" y1="275" x2="518" y2="288"/>
		<line class="st16" x1="518" y1="288" x2="518" y2="261"/>
		<line class="st16" x1="518" y1="261" x2="518" y2="177"/>
		<line class="st16" x1="578" y1="177" x2="518" y2="177"/>
		<line class="st16" x1="518" y1="288" x2="570" y2="307"/>
		<line class="st16" x1="570" y1="307" x2="606" y2="307"/>
		<line class="st16" x1="570" y1="334" x2="570" y2="307"/>
		<line class="st16" x1="570" y1="360" x2="570" y2="334"/>
		<line class="st16" x1="606" y1="307" x2="661" y2="307"/>
		<line class="st16" x1="661" y1="307" x2="714" y2="300"/>
		<line class="st16" x1="714" y1="300" x2="788" y2="279"/>
		<line class="st16" x1="788" y1="279" x2="851" y2="272"/>
		<line class="st16" x1="851" y1="272" x2="919" y2="277"/>
		<line class="st16" x1="919" y1="277" x2="957" y2="290"/>
		<line class="st16" x1="957" y1="290" x2="992" y2="295"/>
		<line class="st16" x1="992" y1="295" x2="1064" y2="259"/>
		<line class="st16" x1="1064" y1="259" x2="1122" y2="230"/>
		<line class="st16" x1="1122" y1="230" x2="1184" y2="230"/>
		<line class="st16" x1="1184" y1="230" x2="1223" y2="230"/>
		<line class="st16" x1="1223" y1="206" x2="1223" y2="230"/>
        <line class="st16" x1="1223" y1="172" x2="1288" y2="172"/>
		<line class="st16" x1="851" y1="170" x2="851" y2="272"/>
		<line class="st16" x1="992" y1="295" x2="1089" y2="295"/>
		<line class="st16" x1="1011" y1="373" x2="1089" y2="373"/>
		<line class="st16" x1="1089" y1="295" x2="1089" y2="334"/>
		<line class="st16" x1="1080" y1="457" x2="1165" y2="450"/>
		<line class="st16" x1="1011" y1="402" x2="1011" y2="439"/>
		<line class="st16" x1="1011" y1="373" x2="1011" y2="402"/>
		<line class="st16" x1="1089" y1="334" x2="1089" y2="373"/>
		<line class="st16" x1="1089" y1="373" x2="1089" y2="404"/>
		<line class="st16" x1="1011" y1="439" x2="1011" y2="486"/>
		<line class="st16" x1="1089" y1="404" x2="1080" y2="457"/>
		<line class="st16" x1="1089" y1="404" x2="1165" y2="450"/>
		<line class="st16" x1="893" y1="392" x2="933" y2="388"/>
		<line class="st16" x1="851" y1="394" x2="893" y2="392"/>
		<line class="st16" x1="810" y1="392" x2="851" y2="394"/>
		<line class="st16" x1="778" y1="386" x2="810" y2="392"/>
		<line class="st16" x1="713" y1="368" x2="778" y2="386"/>
		<line class="st16" x1="661" y1="360" x2="713" y2="368"/>
		<line class="st16" x1="700" y1="334" x2="713" y2="368"/>
		<line class="st16" x1="683" y1="334" x2="700" y2="334"/>
		<line class="st16" x1="714" y1="300" x2="700" y2="334"/>
		<line class="st16" x1="570" y1="360" x2="642" y2="360"/>
		<line class="st16" x1="642" y1="360" x2="661" y2="360"/>
		<line class="st16" x1="509" y1="383" x2="570" y2="360"/>
		<line class="st16" x1="509" y1="428" x2="509" y2="383"/>
		<line class="st16" x1="496" y1="516" x2="496" y2="428"/>
		<line class="st16" x1="576" y1="428" x2="509" y2="428"/>
		<line class="st16" x1="509" y1="428" x2="496" y2="428"/>
		<line class="st16" x1="460" y1="394" x2="509" y2="383"/>
		<line class="st16" x1="419" y1="394" x2="460" y2="394"/>
		<line class="st16" x1="377" y1="390" x2="419" y2="394"/>
		<line class="st16" x1="305" y1="376" x2="377" y2="390"/>
		<line class="st16" x1="278" y1="365" x2="305" y2="376"/>
		<line class="st16" x1="215" y1="334" x2="278" y2="365"/>
		<line class="st16" x1="245" y1="365" x2="278" y2="365"/>
		<line class="st16" x1="278" y1="303" x2="278" y2="334"/>
		<line class="st16" x1="278" y1="334" x2="278" y2="365"/>
		<line class="st16" x1="278" y1="334" x2="215" y2="334"/>
		<line class="st16" x1="215" y1="334" x2="215" y2="374"/>
		<line class="st16" x1="278" y1="334" x2="215" y2="374"/>
		<line class="st16" x1="261" y1="303" x2="215" y2="334"/>
		<line class="st16" x1="851" y1="491" x2="851" y2="394"/>
		<line class="st16" x1="933" y1="388" x2="974" y2="373"/>
		<line class="st16" x1="974" y1="373" x2="1011" y2="373"/>
		<line class="st16" x1="215" y1="374" x2="245" y2="365"/>
		<line class="st16" x1="209" y1="394" x2="215" y2="374"/>
		<line class="st16" x1="148" y1="474" x2="209" y2="394"/>
		<line class="st16" x1="148" y1="516" x2="148" y2="474"/>
		<path class="st16" d="M148,516"/>
		<path class="st16" d="M148,516"/>
		<line class="st16" x1="126" y1="334" x2="156" y2="374"/>
		<line class="st16" x1="518" y1="177" x2="518" y2="109"/>
        <line class="st16" x1="1223" y1="172" x2="1223" y2="206"/>
        <line class="st16" x1="1223" y1="206" x2="1242" y2="206"/>
	</g>
</g>
</svg>
