<?xml version="1.0" encoding="utf-8"?>
<!-- Generator: Adobe Illustrator 23.0.0, SVG Export Plug-In . SVG Version: 6.00 Build 0)  -->
<svg version="1.1" xmlns="http://www.w3.org/2000/svg" xmlns:xlink="http://www.w3.org/1999/xlink" x="0px" y="0px"
	 viewBox="0 0 1400 730" style="enable-background:new 0 0 1400 730;" xml:space="preserve" width="1400px" height="730px" id="maf102">
<style type="text/css">
	#maf102 .st0{fill:#CBD5DD;}
	#maf102 .st1{fill:#EAEAEA;}
	#maf102 .st2{fill:#A5855B;}
	#maf102 .st3{fill:#7EB6CE;}
	#maf102 .st4{fill:#53D4E5;}
	#maf102 .st5{fill:#E9F8FD;}
	#maf102 .st6{fill:#29ABE2;}
	#maf102 .st7{fill:#B4C8D1;}
	#maf102 .st8{fill:#B3B3B3;}
	#maf102 .st9{fill:#FFFFFF;}
	#maf102 .st10{font-family:'NotoSans';}
	#maf102 .st11{font-size:12px;}
	#maf102 .st12{fill:none;stroke:#FF00FF;}
	#maf102 .st13{fill:none;stroke:#00FF00;}
	#maf102 .st14{fill:none;stroke:#EF405C;}
</style>
<g id="BG">
	<rect class="st0" width="1400" height="730"/>
</g>
<g id="Base">
	<g id="Marriott_Base02">
		<path class="st1" d="M520.5,749.9c-4.4,0-7.9-3.4-7.9-7.7v-698c66.7,4.4,148.3,6.6,242.6,6.6c268.8,0,560.8-18,580.8-19.3v436.6
			c0,1.3-0.5,2.6-1.4,3.5l-273.7,276.8c-0.9,0.9-2.2,1.5-3.6,1.5H520.5z"/>
		<path class="st2" d="M1335,32.6v435.5c0,1.1-0.4,2.1-1.2,2.8l-273.7,276.8c-0.7,0.8-1.8,1.2-2.8,1.2H520.5c-3.8,0-6.9-3-6.9-6.7
			V45.3c66.5,4.3,147.8,6.5,241.6,6.5C1020.1,51.8,1307.5,34.3,1335,32.6 M1337,30.5c0,0-301.5,19.3-581.8,19.3
			c-86.4,0-170.7-1.8-243.6-6.6v699c0,4.8,4,8.7,8.9,8.7h536.7c1.6,0,3.1-0.6,4.3-1.8l273.7-276.8c1.1-1.1,1.7-2.6,1.7-4.2V30.5
			L1337,30.5z"/>
	</g>
	<g id="Marriott_Base01">
		<path class="st1" d="M273.9,484.8c-3.2,0-5.7-2.5-5.9-5.7c-0.6-11-5-32.5-15.1-46.4c-1.3-1.8-3.4-2.9-5.7-2.9
			c-1.2,0-2.4,0.3-3.5,0.9l-6.6,3.8c-0.8,0.4-1.6,0.7-2.5,0.7c-1.8,0-3.4-1-4.3-2.5L209,395.8c-0.7-1.2-0.8-2.5-0.5-3.8
			c0.3-1.3,1.2-2.4,2.3-3l9.9-5.7c0.7-0.4,1.2-1.1,1.4-1.9c0.2-0.8,0.1-1.6-0.4-2.3c-1.6-2.5-3.2-5.1-4.8-7.5
			c-0.6-0.9-1.5-1.4-2.5-1.4c-0.6,0-1.2,0.2-1.7,0.6l-9.8,7c-0.9,0.6-1.9,0.9-2.9,0.9c-1.6,0-3.1-0.8-4.1-2.1L171.2,342
			c-1.6-2.2-1.1-5.4,1.2-7l9-6.4c0.7-0.5,1.1-1.2,1.2-2.1c0.1-0.8-0.1-1.7-0.7-2.3c-2.2-2.6-4.4-5.2-6.6-7.7c-0.6-0.6-1.4-1-2.3-1
			c-0.8,0-1.5,0.3-2.1,0.8l-8.2,7.7c-0.9,0.9-2.1,1.3-3.4,1.3h0c-1.4,0-2.7-0.6-3.6-1.6c-3.3-3.5-8.5-9.1-13.8-14.7
			c-5.3-5.7-10.8-11.5-14.6-15.6c-1.4-1.5-2.1-2.9-2-4.3c0.1-1.4,0.8-2.8,2.3-4.2l2.4-2.3c1.5-1.4,2.3-3.3,2.2-5.4
			c-0.1-2-1-3.9-2.6-5.2c-8.6-6.8-16.6-12.3-23.9-16.3c-2-1.1-3.8-4.1-3.8-6.4v-326c0-5.1-4.2-9.3-9.3-9.4l-27.5-0.4
			C61.3-86.6,58-90,58-94v-61.3c0-4.1,3.3-7.4,7.4-7.4h6.8c4.7,0,8.6-3.9,8.6-8.6c0-2,0.7-3.8,2-5.2c1.3-1.4,3.2-2.2,5.1-2.2
			c0.7,0,1.4,0.1,2.1,0.3l0.1,0l111.8,8.5c0.9,0.3,1.7,0.4,2.6,0.4c2.8,0,5.5-1.4,7.3-3.6c1.7-2.3,2.3-5.2,1.5-8l-18.8-67.2
			c-0.8-2.9,0.2-6,2.5-7.8c31.7-24.9,158-54.7,579.7-55.2c3.9,0,392.3,3.6,554.7,12.9c2.6,0.1,4.7,2.3,4.7,5V31.9
			c-19.4,1.2-328.7,19.2-592.1,19.2c-92.9,0-170.3-2.2-230-6.7l-1.1-0.1v440.5H273.9z"/>
		<path class="st2" d="M776.6-310.2L776.6-310.2c4,0,392.3,3.6,554.6,12.9c2.1,0.1,3.8,1.9,3.8,4l0,324.3
			c-26.8,1.6-331.3,19.1-591.1,19.1c-92.9,0-170.2-2.2-229.9-6.7l-2.1-0.2v2.2v438.4h-238l-0.1,0c-2.6,0-4.7-2.1-4.8-4.8
			c-0.5-9.6-4.3-31.7-15.3-47c-1.5-2.1-3.9-3.3-6.5-3.3c-1.4,0-2.8,0.4-4,1.1l-6.6,3.8c-0.6,0.4-1.3,0.5-2,0.5c-1.4,0-2.8-0.8-3.5-2
			l-21.3-36.8c-1.1-1.9-0.4-4.4,1.5-5.5l9.9-5.7c0.9-0.5,1.6-1.5,1.9-2.5c0.3-1.1,0.1-2.2-0.5-3.1c-1.6-2.5-3.2-5.1-4.8-7.5
			c-0.7-1.1-2-1.8-3.4-1.8c-0.8,0-1.6,0.3-2.3,0.7l-9.8,7c-0.7,0.5-1.5,0.7-2.3,0.7c-1.3,0-2.5-0.6-3.3-1.7l-24.7-34.6
			c-1.3-1.8-0.9-4.3,0.9-5.6l9-6.4c0.9-0.6,1.5-1.7,1.7-2.8c0.1-1.1-0.2-2.2-0.9-3.1c-2.2-2.7-4.5-5.3-6.6-7.8
			c-0.8-0.9-1.9-1.4-3-1.4c-1,0-2,0.4-2.7,1.1l-8.2,7.7c-0.7,0.7-1.7,1.1-2.7,1.1c-1.1,0-2.2-0.4-2.9-1.3
			c-3.3-3.6-8.6-9.1-13.9-14.8c-5.3-5.7-10.7-11.4-14.5-15.5c-1.2-1.3-1.8-2.5-1.7-3.6c0-1.1,0.7-2.3,2-3.5l2.4-2.3
			c1.7-1.6,2.6-3.8,2.5-6.2c-0.1-2.3-1.2-4.5-3-5.9c-8.6-6.9-16.7-12.4-24-16.4c-1.7-0.9-3.3-3.6-3.3-5.5v-326
			c0-5.6-4.6-10.3-10.2-10.4l-27.5-0.4C61.8-87.6,59-90.5,59-94v-61.3c0-3.5,2.9-6.4,6.4-6.4h6.8c5.3,0,9.6-4.3,9.6-9.6v0l0,0
			c0-1.7,0.6-3.2,1.7-4.4c1.2-1.2,2.8-1.9,4.4-1.9c0.6,0,1.2,0.1,1.8,0.3l0.2,0.1l0.2,0l111.5,8.5c0.9,0.3,1.9,0.4,2.8,0.4
			c3.1,0,6.1-1.5,8.1-4c1.9-2.5,2.5-5.8,1.7-8.8l-18.8-67.2c-0.7-2.5,0.2-5.1,2.2-6.7c17-13.4,56.9-24.6,118.5-33.3
			C416.3-302.6,571.3-309.9,776.6-310.2 M776.6-312.2c-476.1,0.6-559.3,38.9-580.3,55.4c-2.7,2.1-3.8,5.6-2.9,8.8l18.8,67.2
			c1.5,5.4-2.7,10.3-7.8,10.3c-0.8,0-1.6-0.1-2.4-0.4l-111.8-8.5c-0.8-0.2-1.6-0.4-2.4-0.4c-4.4,0-8.2,3.6-8.1,8.3
			c0,4.2-3.4,7.6-7.6,7.6h-6.8c-4.6,0-8.4,3.8-8.4,8.4V-94c0,4.6,3.7,8.3,8.3,8.4l27.5,0.4c4.6,0.1,8.3,3.8,8.3,8.4v326
			c0,2.7,1.9,6,4.3,7.3c8,4.3,16.1,10.1,23.7,16.2c2.9,2.3,3,6.6,0.4,9.1l-2.4,2.3c-3.4,3.2-3.6,6.5-0.4,9.9
			c7.6,8.1,21.8,23.2,28.4,30.3c1.2,1.3,2.8,1.9,4.4,1.9c1.5,0,2.9-0.5,4.1-1.6l8.2-7.7c0.4-0.4,0.9-0.5,1.4-0.5
			c0.6,0,1.1,0.2,1.5,0.7c2.2,2.6,4.5,5.1,6.6,7.7c0.7,0.9,0.6,2.2-0.4,2.9l-9,6.4c-2.7,1.9-3.3,5.7-1.4,8.4l24.7,34.6
			c1.2,1.6,3,2.5,4.9,2.5c1.2,0,2.4-0.4,3.5-1.1l9.8-7c0.4-0.3,0.8-0.4,1.2-0.4c0.7,0,1.3,0.3,1.7,0.9c1.6,2.5,3.2,5,4.8,7.5
			c0.6,1,0.3,2.2-0.7,2.8l-9.9,5.7c-2.9,1.7-3.9,5.3-2.2,8.2l21.3,36.8c1.1,1.9,3.1,3,5.2,3c1,0,2-0.3,3-0.8l6.6-3.8
			c0.9-0.5,2-0.8,3-0.8c1.9,0,3.7,0.9,4.9,2.5c10.3,14.3,14.4,35.8,14.9,45.9c0.2,3.7,3.1,6.6,6.8,6.7c0,0,0.1,0,0.1,0h240V45.4
			c65.2,4.8,145.5,6.7,230.1,6.7c273.8,0,593.1-19.3,593.1-19.3l0-326.1c0-3.2-2.5-5.8-5.6-6C1167.1-308.7,776.6-312.2,776.6-312.2
			L776.6-312.2z"/>
	</g>
</g>
<g id="Layer_3">
	<g id="Base_2_">
		<g id="메리어트관_2_">
			<g>
				<path class="st1" d="M1172.3,751c-1.3,0-2.6-0.5-3.5-1.5l-76.3-76.4c-1.9-1.9-1.9-5.1,0-7.1l116.5-116.5c1.3-1.3,2-3.1,2-4.9
					V218.7c0-2.8,2.2-5,5-5h29.9c3.9,0,7-3.1,7-7v-42.8c0-3.9-3.1-7-7-7H986.8c-3.9,0-7,3.1-7,7v30c0,2.8-2.2,5-5,5H597
					c-2.8,0-5-2.2-5-5v-108c0-2.8,2.2-5,5-5h377.8c2.8,0,5,2.2,5,5v30c0,3.9,3.1,7,7,7h259.1c3.9,0,7-3.1,7-7V28c0-3.9-3.1-7-7-7
					H1143c-2.8,0-5-2.2-5-5v-45.4c0-2.6,2-4.8,4.5-5c27.3-2.1,52.6-13.4,71.3-31.8c18.8-18.5,29.2-42.6,29.2-67.8
					s-10.4-49.3-29.2-67.8c-18.7-18.4-44-29.7-71.3-31.8c-2.5-0.2-4.5-2.4-4.5-5V-282c0-2.8,2.2-5,5-5h102.9c3.9,0,7-3.1,7-7v-87.9
					c0-3.9-3.1-7-7-7H986.8c-3.9,0-7,3.1-7,7v30c0,2.8-2.2,5-5,5H597c-2.8,0-5-2.2-5-5v-108c0-2.8,2.2-5,5-5h377.8c2.8,0,5,2.2,5,5
					v30c0,3.9,3.1,7,7,7h259.1c3.9,0,7-3.1,7-7v-42.8c0-3.9-3.1-7-7-7H1216c-2.8,0-5-2.2-5-5v-325.9c0-1.9-0.7-3.6-2-4.9
					l-116.5-116.5c-1.9-1.9-1.9-5.1,0-7.1l76.3-76.4c0.9-0.9,2.2-1.5,3.5-1.5s2.6,0.5,3.5,1.5l151.6,151.7c0.9,0.9,1.5,2.2,1.5,3.5
					v375.6c0,2.8-2.2,5-5,5h-30.1c-3.9,0-7,3.1-7,7v179c0,3.9,3.1,7,7,7h37.2c2.8,0,5,2.2,5,5v106.4c0,3.9,3.1,7,7,7h12
					c2.8,0,5,2.2,5,5v60.8c0,2.8-2.2,5-5,5h-12c-3.9,0-7,3.1-7,7V15.8c0,2.8-2.2,5-5,5h-37.2c-3.9,0-7,3.1-7,7v178.9
					c0,3.9,3.1,7,7,7h30.1c2.8,0,5,2.2,5,5v375.6c0,1.3-0.5,2.6-1.5,3.5l-151.6,151.7C1174.9,750.5,1173.6,751,1172.3,751z"/>
				<path class="st2" d="M1172.3-1016c1.1,0,2.1,0.4,2.8,1.2l151.6,151.7c0.8,0.8,1.2,1.8,1.2,2.8v375.6c0,2.2-1.8,4-4,4h-30.1
					c-4.4,0-8,3.6-8,8v179c0,4.4,3.6,8,8,8h37.2c2.2,0,4,1.8,4,4v106.4c0,4.4,3.6,8,8,8h12c2.2,0,4,1.8,4,4v60.8c0,2.2-1.8,4-4,4
					h-12c-4.4,0-8,3.6-8,8V15.8c0,2.2-1.8,4-4,4h-37.2c-4.4,0-8,3.6-8,8v178.9c0,4.4,3.6,8,8,8h30.1c2.2,0,4,1.8,4,4v375.6
					c0,1.1-0.4,2.1-1.2,2.8l-151.6,151.7c-0.8,0.8-1.8,1.2-2.8,1.2c-1.1,0-2.1-0.4-2.8-1.2l-76.3-76.4c-1.6-1.6-1.6-4.1,0-5.7
					l116.5-116.5c1.5-1.5,2.3-3.5,2.3-5.7V218.7c0-2.2,1.8-4,4-4h29.9c4.4,0,8-3.6,8-8v-42.8c0-4.4-3.6-8-8-8H986.8
					c-4.4,0-8,3.6-8,8v30c0,2.2-1.8,4-4,4H597c-2.2,0-4-1.8-4-4v-108c0-2.2,1.8-4,4-4h377.8c2.2,0,4,1.8,4,4v30c0,4.4,3.6,8,8,8
					h259.1c4.4,0,8-3.6,8-8V28c0-4.4-3.6-8-8-8H1143c-2.2,0-4-1.8-4-4v-45.4c0-2.1,1.6-3.8,3.6-4c27.5-2.2,53.1-13.6,71.9-32.1
					c19-18.7,29.5-43,29.5-68.5s-10.5-49.8-29.5-68.5c-18.8-18.5-44.4-29.9-71.9-32.1c-2-0.2-3.6-1.9-3.6-4V-282c0-2.2,1.8-4,4-4
					h102.9c4.4,0,8-3.6,8-8v-87.9c0-4.4-3.6-8-8-8H986.8c-4.4,0-8,3.6-8,8v30c0,2.2-1.8,4-4,4H597c-2.2,0-4-1.8-4-4v-108
					c0-2.2,1.8-4,4-4h377.8c2.2,0,4,1.8,4,4v30c0,4.4,3.6,8,8,8h259.1c4.4,0,8-3.6,8-8v-42.8c0-4.4-3.6-8-8-8H1216c-2.2,0-4-1.8-4-4
					v-325.9c0-2.1-0.8-4.1-2.3-5.7l-116.5-116.5c-1.6-1.6-1.6-4.1,0-5.7l76.3-76.4C1170.2-1015.6,1171.2-1016,1172.3-1016
					 M1172.3-1018c-1.5,0-3.1,0.6-4.2,1.8l-76.3,76.4c-2.3,2.3-2.3,6.1,0,8.5l116.5,116.5c1.1,1.1,1.8,2.7,1.8,4.2v325.9
					c0,3.3,2.7,6,6,6h29.9c3.3,0,6,2.7,6,6v42.8c0,3.3-2.7,6-6,6H986.8c-3.3,0-6-2.7-6-6v-30c0-3.3-2.7-6-6-6H597c-3.3,0-6,2.7-6,6
					v108c0,3.3,2.7,6,6,6h377.8c3.3,0,6-2.7,6-6v-30c0-3.3,2.7-6,6-6h259.1c3.3,0,6,2.7,6,6v87.9c0,3.3-2.7,6-6,6H1143
					c-3.3,0-6,2.7-6,6v43.4c0,3.1,2.4,5.7,5.5,6c55.8,4.4,99.5,46.8,99.5,98.6s-43.8,94.3-99.5,98.6c-3.1,0.2-5.5,2.9-5.5,6V16
					c0,3.3,2.7,6,6,6h102.9c3.3,0,6,2.7,6,6v87.9c0,3.3-2.7,6-6,6H986.8c-3.3,0-6-2.7-6-6v-30c0-3.3-2.7-6-6-6H597c-3.3,0-6,2.7-6,6
					v108c0,3.3,2.7,6,6,6h377.8c3.3,0,6-2.7,6-6v-30c0-3.3,2.7-6,6-6h259.1c3.3,0,6,2.7,6,6v42.8c0,3.3-2.7,6-6,6H1216
					c-3.3,0-6,2.7-6,6v325.9c0,1.6-0.6,3.1-1.8,4.2l-116.5,116.5c-2.3,2.3-2.3,6.1,0,8.5l76.3,76.4c1.2,1.2,2.7,1.8,4.2,1.8
					s3.1-0.6,4.2-1.8l151.6-151.7c1.1-1.1,1.8-2.7,1.8-4.2V218.7c0-3.3-2.7-6-6-6h-30.1c-3.3,0-6-2.7-6-6V27.8c0-3.3,2.7-6,6-6h37.2
					c3.3,0,6-2.7,6-6V-90.6c0-3.3,2.7-6,6-6h12c3.3,0,6-2.7,6-6v-60.8c0-3.3-2.7-6-6-6h-12c-3.3,0-6-2.7-6-6v-106.4c0-3.3-2.7-6-6-6
					h-37.2c-3.3,0-6-2.7-6-6v-179c0-3.3,2.7-6,6-6h30.1c3.3,0,6-2.7,6-6v-375.6c0-1.6-0.6-3.1-1.8-4.2l-151.6-151.7
					C1175.3-1017.4,1173.8-1018,1172.3-1018L1172.3-1018z"/>
			</g>
		</g>
		<g id="Landing_2_">
			<g id="Landing_Base_2_">
				<path class="st1" d="M660.6,924.8c-2.8,0-5-2.2-5-5V891c0-3.9-3.1-7-7-7H530.4c-3.9,0-7,3.1-7,7v28.8c0,2.8-2.2,5-5,5h-108
					c-2.8,0-5-2.2-5-5v-588c0-2.8,2.2-5,5-5h30.5c3.9,0,7-3.1,7-7V204.4c0-3.8-2.9-6.8-6.7-7c-82.2-3.6-160.6-12.5-233.1-26.5
					c-57.8-11.2-94.8-22.4-108-26.7c-2.6-0.8-4-3.7-3.2-6.3l32.2-100c0.7-2.1,2.6-3.5,4.8-3.5c0.6,0,1.1,0.1,1.7,0.3
					c13.1,4.7,50.5,16.9,113.8,27.8c79,13.7,169.5,20.8,269,21c2.8,0,5,2.2,5,5v105.6c0,2.8-2.2,5-5,5c-9.7,0-19.6-0.1-29.3-0.3
					l-0.1,0c-3.9,0-7,3.1-7,7v113.9c0,3.9,3.1,7,7,7h29.5c2.8,0,5,2.2,5,5V843c0,3.9,3.1,7,7,7h118.2c3.9,0,7-3.1,7-7v-31.2
					c0-2.8,2.2-5,5-5h289.8c1.9,0,3.6-0.7,4.9-2l68.1-68.1c0.9-0.9,2.2-1.5,3.5-1.5c1.3,0,2.6,0.5,3.5,1.5l76.4,76.4
					c1.9,1.9,1.9,5.1,0,7.1l-103.3,103.3c-0.9,0.9-2.2,1.5-3.5,1.5H660.6z"/>
				<path class="st2" d="M133.8,35.4c0.5,0,0.9,0.1,1.3,0.2c13.1,4.7,50.5,16.9,113.9,27.9c79,13.7,169.6,20.8,269.2,21
					c2.2,0,4,1.8,4,4v105.6c0,2.2-1.8,4-4,4c-9.7,0-19.5-0.1-29.2-0.3l-0.1,0c-4.4,0-8,3.6-8,8v113.9c0,4.4,3.6,8,8,8h29.5
					c2.2,0,4,1.8,4,4V843c0,4.4,3.6,8,8,8h118.2c4.4,0,8-3.6,8-8v-31.2c0-2.2,1.8-4,4-4h289.8c2.1,0,4.1-0.8,5.7-2.3l68.1-68.1
					c0.8-0.8,1.8-1.2,2.8-1.2c1.1,0,2.1,0.4,2.8,1.2l76.4,76.4c0.8,0.8,1.2,1.8,1.2,2.8c0,1.1-0.4,2.1-1.2,2.8L1003,922.6
					c-0.8,0.8-1.8,1.2-2.8,1.2H660.6c-2.2,0-4-1.8-4-4V891c0-4.4-3.6-8-8-8H530.4c-4.4,0-8,3.6-8,8v28.8c0,2.2-1.8,4-4,4h-108
					c-2.2,0-4-1.8-4-4v-588c0-2.2,1.8-4,4-4h30.5c4.4,0,8-3.6,8-8V204.4c0-4.3-3.4-7.8-7.7-8c-82.1-3.6-160.5-12.5-232.9-26.5
					c-57.8-11.2-94.7-22.4-107.9-26.7c-2.1-0.7-3.2-2.9-2.6-5l32.2-100C130.6,36.6,132.1,35.4,133.8,35.4 M133.8,33.4
					c-2.5,0-4.9,1.6-5.7,4.2l-32.2,100c-1,3.1,0.7,6.5,3.8,7.5c26.8,8.7,147.8,44.8,341.4,53.3c3.2,0.1,5.7,2.8,5.7,6v115.4
					c0,3.3-2.7,6-6,6h-30.5c-3.3,0-6,2.7-6,6v588c0,3.3,2.7,6,6,6h108c3.3,0,6-2.7,6-6V891c0-3.3,2.7-6,6-6h118.2c3.3,0,6,2.7,6,6
					v28.8c0,3.3,2.7,6,6,6h339.5c1.6,0,3.1-0.6,4.2-1.8l103.3-103.3c2.3-2.3,2.3-6.1,0-8.5l-76.4-76.4c-1.2-1.2-2.7-1.8-4.2-1.8
					s-3.1,0.6-4.2,1.8L954.7,804c-1.1,1.1-2.7,1.8-4.2,1.8H660.6c-3.3,0-6,2.7-6,6V843c0,3.3-2.7,6-6,6H530.4c-3.3,0-6-2.7-6-6
					V331.8c0-3.3-2.7-6-6-6h-29.5c-3.3,0-6-2.7-6-6V205.9c0-3.3,2.7-6,6-6c0,0,0.1,0,0.1,0c9.6,0.2,19.4,0.3,29.3,0.3c0,0,0,0,0,0
					c3.3,0,6-2.7,6-6V88.6c0-3.3-2.7-6-6-6c-233.9-0.6-355.5-39.1-382.4-48.8C135.2,33.6,134.5,33.4,133.8,33.4L133.8,33.4z"/>
			</g>
		</g>
		<g id="Mosil_Pool_2_">
			<g>
				<g>
					<path class="st3" d="M620.3,657.9c-2.8,0-5-2.2-5-5v-386c0-2.8,2.2-5,5-5h211.3c2.8,0,5,2.2,5,5V293c0,3.9,3.1,7,7,7h161
						c3,0,5.7-1.9,6.6-4.7c4.8-14.2,21.7-47.3,73.9-47.3c59.1,0,72.7,42.1,74.9,50.5c0.1,0.4,0.1,0.8,0.1,1.2v162.6
						c0,1.3-0.5,2.6-1.4,3.5l-187,190.6c-0.9,1-2.2,1.5-3.6,1.5H620.3z"/>
					<path class="st2" d="M1085.1,249c25.1,0,44.9,7.6,58.8,22.6c10.5,11.4,14.2,23.6,15.1,27.1c0.1,0.3,0.1,0.6,0.1,1v162.6
						c0,1.1-0.4,2-1.1,2.8l-187,190.6c-0.7,0.8-1.8,1.2-2.9,1.2H620.3c-2.2,0-4-1.8-4-4v-386c0-2.2,1.8-4,4-4h211.3c2.2,0,4,1.8,4,4
						V293c0,4.4,3.6,8,8,8h161c3.4,0,6.5-2.2,7.6-5.4c2-6,7.1-17.6,18-27.6C1043.8,255.4,1062.3,249,1085.1,249 M1085.1,247
						c-54.5,0-70.8,36.1-74.8,48c-0.8,2.4-3.1,4-5.7,4h-161c-3.3,0-6-2.7-6-6v-26.1c0-3.3-2.7-6-6-6H620.3c-3.3,0-6,2.7-6,6v386
						c0,3.3,2.7,6,6,6H968c1.6,0,3.2-0.6,4.3-1.8l187-190.6c1.1-1.1,1.7-2.6,1.7-4.2V299.7c0-0.5-0.1-1-0.2-1.4
						C1159.3,292,1146.2,247,1085.1,247L1085.1,247z"/>
				</g>
			</g>
			<g>
				<path class="st4" d="M1115.3,351.7L1115.3,351.7c-0.4-0.5-9-9.8-23.3-13.9c-23.9-6.9-44.5,5.8-57.6,17.6l-0.3,0.3
					c-0.9,1.1-22.5,26-7,44.6c12.7,15.2,31.8,38.2,17.7,76.6c-14.6,39.9-48.3,57.2-75,60.2l-0.2,0c-0.2,0-15.5,2.2-30.7-3.1
					l-2.7,7.7c14.9,5.2,29.6,4,33.6,3.6v14.2c-6.6,0.3-12.5,0.1-17.1-0.4c-29.5-2.8-48.3,5.6-69.6,30.8
					c-20.5,24.2-43.3,32.8-78.9,29.6c-37.3-3.4-45.6-21.2-48.6-34.4c-2.4-10.5-7.6-17.3-16.1-20.8c-8.1-3.4-19-3.7-34.3-1.1
					c-23.6,4-29.5-3.5-37.6-14c-0.8-1.1-1.7-2.2-2.6-3.3c-4.6-5.8-6.4-13.6-4.7-20.9c2.2-9.9,10.4-18.6,23.7-25.1
					c17.9-8.7,24.4-21.9,26.8-31.4c2.3-9.3,1.1-17,0.8-18.6c-0.3-2.9-3.2-25.7-26.3-34.3c-5.1-1.9-8.5-4.8-10-8.6
					c-2.8-7.2,1.5-15.8,1.6-15.9l0.1-0.1l0.1-0.4c0.5-0.9,6-9.9,34-12c13.2-1,21.9,0.7,26.8,5.1c5,4.5,6.3,11.9,6.7,22.4
					c0.8,18.6,15.8,23.5,23.7,23.5l0-8.2c-1.5,0-14.9-0.6-15.5-15.7c-0.4-9.9-1.5-21.1-9.5-28.2c-6.7-6-17.2-8.3-32.9-7.1
					c-33.2,2.4-39.9,14.5-41,17.1c-0.8,1.7-5.7,12.4-1.8,22.3c2.4,6.1,7.3,10.6,14.8,13.3c19.2,7.1,20.9,26.7,21,27.5l0.1,0.6
					c0.2,1.1,5.3,27.3-23.1,41.2c-19.7,9.6-26.2,22-28.1,30.6c-2.2,9.7,0.2,20.1,6.3,27.8c0.9,1.1,1.7,2.1,2.5,3.2
					c8.7,11.3,17,21.9,45.5,17.1c29.9-5.1,38,2.5,41,15.7c5.6,24.5,23.8,37.8,55.8,40.7c5.2,0.5,10,0.7,14.7,0.7
					c12.7,0,23.6-1.8,33.5-5.4c14-5.1,26.3-14.2,37.7-27.7c22.2-26.3,39.1-30.1,62.6-27.9c12.7,1.2,37.9,1.4,63.1-10.6
					c30.4-14.4,52.1-41.8,64.4-81.2l0-0.1c0-0.1,3.2-11,17.1-20.6c3.2-2.2,31.7-22.5,35.8-53.6
					C1134.6,384.2,1128.9,367.5,1115.3,351.7z M978,558.9v-14.8c13.9-2.7,27.7-8.7,39.3-17.3c15.9-11.6,28-27.9,35.1-47.1
					c0.6-1.6,1.1-3.1,1.6-4.7l15.1,5.4C1048.1,539,1007.8,555.4,978,558.9z M1124.2,400.2c-2.9,22.4-21.7,40.6-32.3,47.9
					c-15.2,10.4-19.5,22.4-20.3,24.8l-15.6-5.6c7.7-35.5-11-58-22.7-72.1c-10.5-12.7,5.1-31.9,6.7-33.8c39.2-35.3,67.5-5.9,69.1-4.2
					C1121.1,371,1126.2,385.5,1124.2,400.2z"/>
				<g>
					<path class="st5" d="M838.4,561.1c-30.3,0-57.5-5.5-78.4-16c-21.3-10.6-34.6-25.6-38.4-43.4C711.3,454,772.5,400,858.2,381.5
						c19.3-4.2,38.5-6.3,57.2-6.3c30.3,0,57.5,5.5,78.4,16c21.3,10.6,34.6,25.6,38.4,43.4c5,23-6.4,48.2-32.1,70.9
						c-25.8,22.8-62.9,40.3-104.5,49.3C876.3,559,857.1,561.1,838.4,561.1z"/>
					<path class="st6" d="M915.4,376.3c30.2,0,57.1,5.5,77.9,15.9c21,10.5,34.1,25.3,37.9,42.7c4.9,22.7-6.4,47.5-31.7,69.9
						c-25.7,22.7-62.6,40.1-104,49.1c-19.2,4.2-38.4,6.3-57,6.3c-30.2,0-57.1-5.5-77.9-15.9c-21-10.5-34.1-25.3-37.9-42.7
						c-4.9-22.7,6.4-47.5,31.7-69.9c25.7-22.7,62.6-40.1,104-49.1C877.6,378.4,896.8,376.3,915.4,376.3L915.4,376.3 M915.4,374.3
						c-18.2,0-37.6,2-57.4,6.3c-86.3,18.6-147.8,73-137.3,121.4c8.1,37.3,56.5,60.2,117.8,60.2c18.2,0,37.6-2,57.4-6.3
						c86.3-18.6,147.8-73,137.3-121.4C1025.1,397.1,976.6,374.3,915.4,374.3L915.4,374.3z"/>
				</g>
				<circle class="st6" cx="773.2" cy="370.3" r="22.8"/>
				<circle class="st6" cx="694.8" cy="530.2" r="22.8"/>
				<path class="st6" d="M895.3,515.5H763.7c-3.3,0-6-2.7-6-6v-40.2c0-3.3,2.7-6,6-6h131.6c3.3,0,6,2.7,6,6v40.2
					C901.3,512.8,898.6,515.5,895.3,515.5z"/>
				<g>
					<path class="st1" d="M940.9,527.8c-0.8,0-1.6-0.2-2.4-0.6L909,511.4c-1.6-0.9-2.6-2.6-2.6-4.4v-27.7c0-1.9,1.1-3.7,2.8-4.5
						l27.5-13.4c2.4-1.2,3.9-3.6,3.9-6.3v-16c0-2.8,2.2-5,5-5h17.5c1.8,0,3.4,1,4.3,2.5l29.6,51.3c1.1,1.9,0.8,4.2-0.6,5.8
						c-16.5,18.7-45.3,30.5-53.8,33.7C942.1,527.7,941.5,527.8,940.9,527.8z"/>
					<path class="st2" d="M963.1,435.1c1.4,0,2.8,0.8,3.5,2l29.6,51.3c0.9,1.5,0.7,3.4-0.5,4.7c-16.3,18.5-45,30.3-53.4,33.5
						c-0.5,0.2-0.9,0.3-1.4,0.3c-0.7,0-1.3-0.2-1.9-0.5l-29.6-15.8c-1.3-0.7-2.1-2-2.1-3.5v-27.7c0-1.5,0.9-2.9,2.2-3.6l27.5-13.4
						c2.7-1.3,4.5-4.2,4.5-7.2v-16c0-2.2,1.8-4,4-4H963.1 M963.1,433.1h-17.5c-3.3,0-6,2.7-6,6v16c0,2.3-1.3,4.4-3.4,5.4l-27.5,13.4
						c-2.1,1-3.4,3.1-3.4,5.4V507c0,2.2,1.2,4.2,3.2,5.3l29.6,15.8c0.9,0.5,1.9,0.7,2.8,0.7c0.7,0,1.4-0.1,2.1-0.4
						c8.7-3.3,37.6-15.2,54.2-34c1.7-1.9,2-4.8,0.7-7l-29.6-51.3C967.2,434.2,965.2,433.1,963.1,433.1L963.1,433.1z"/>
				</g>
				<path class="st6" d="M989.7,403.4C989.7,403.4,989.6,403.3,989.7,403.4c-3.5-0.9-6.8,1.8-6.8,5.4v42.2c0,1.1,0.3,2.1,0.8,3
					l14.3,24.8c1.8,3.2,6,4,8.9,1.7c7.3-5.9,12.7-14,15.1-23.8C1027.8,433,1013.3,409.1,989.7,403.4z"/>
				<path class="st6" d="M967.9,424.1h-143c-3.3,0-6-2.7-6-6v-85.9c0-3.3,2.7-6,6-6h143c3.3,0,6,2.7,6,6v85.9
					C973.9,421.4,971.2,424.1,967.9,424.1z"/>
			</g>
		</g>
		<g id="Parking_2_">
			<g id="jsw_x5F_park06_1_">
				<path class="st7" d="M717-1417c-6.1,0-11-4.9-11-11v-134c0-6.1,4.9-11,11-11h302c6.1,0,11,4.9,11,11v134c0,6.1-4.9,11-11,11H717
					z"/>
				<g>
					<path class="st8" d="M1019-1572c5.5,0,10,4.5,10,10v134c0,5.5-4.5,10-10,10H717c-5.5,0-10-4.5-10-10v-134c0-5.5,4.5-10,10-10
						H1019 M1019-1574H717c-6.6,0-12,5.4-12,12v134c0,6.6,5.4,12,12,12h302c6.6,0,12-5.4,12-12v-134
						C1031-1568.6,1025.6-1574,1019-1574L1019-1574z"/>
				</g>
			</g>
		</g>
	</g>
	<g id="Rooms">
		<a id="ma1f104" xlink:href="#">
			<g>
			<path id="" class="st6" d="M967.9,424.1h-143c-3.3,0-6-2.7-6-6v-85.9c0-3.3,2.7-6,6-6h143c3.3,0,6,2.7,6,6v85.9
			C973.9,421.4,971.2,424.1,967.9,424.1z"/>
			</g>
		</a>	
		<a id="ma1f105" xlink:href="#">
		<g id="">
			<path class="st1" d="M940.9,527.8c-0.8,0-1.6-0.2-2.4-0.6L909,511.4c-1.6-0.9-2.6-2.6-2.6-4.4v-27.7c0-1.9,1.1-3.7,2.8-4.5
				l27.5-13.4c2.4-1.2,3.9-3.6,3.9-6.3v-16c0-2.8,2.2-5,5-5h17.5c1.8,0,3.4,1,4.3,2.5l29.6,51.3c1.1,1.9,0.8,4.2-0.6,5.8
				c-16.5,18.7-45.3,30.5-53.8,33.7C942.1,527.7,941.5,527.8,940.9,527.8z"/>
			<path class="st2" d="M963.1,435.1c1.4,0,2.8,0.8,3.5,2l29.6,51.3c0.9,1.5,0.7,3.4-0.5,4.7c-16.3,18.5-45,30.3-53.4,33.5
				c-0.5,0.2-0.9,0.3-1.4,0.3c-0.7,0-1.3-0.2-1.9-0.5l-29.6-15.8c-1.3-0.7-2.1-2-2.1-3.5v-27.7c0-1.5,0.9-2.9,2.2-3.6l27.5-13.4
				c2.7-1.3,4.5-4.2,4.5-7.2v-16c0-2.2,1.8-4,4-4H963.1 M963.1,433.1h-17.5c-3.3,0-6,2.7-6,6v16c0,2.3-1.3,4.4-3.4,5.4l-27.5,13.4
				c-2.1,1-3.4,3.1-3.4,5.4V507c0,2.2,1.2,4.2,3.2,5.3l29.6,15.8c0.9,0.5,1.9,0.7,2.8,0.7c0.7,0,1.4-0.1,2.1-0.4
				c8.7-3.3,37.6-15.2,54.2-34c1.7-1.9,2-4.8,0.7-7l-29.6-51.3C967.2,434.2,965.3,433.1,963.1,433.1L963.1,433.1z"/>
		</g>
		</a>	
		
		<g id="Elavator_1_">
			<g>
				<g>
					<path class="st9" d="M487,264c-2.8,0-5-2.2-5-5v-30c0-2.8,2.2-5,5-5h30c2.8,0,5,2.2,5,5v30c0,2.8-2.2,5-5,5H487z"/>
					<path class="st2" d="M517,225c2.2,0,4,1.8,4,4v30c0,2.2-1.8,4-4,4h-30c-2.2,0-4-1.8-4-4v-30c0-2.2,1.8-4,4-4H517 M517,223h-30
						c-3.3,0-6,2.7-6,6v30c0,3.3,2.7,6,6,6h30c3.3,0,6-2.7,6-6v-30C523,225.7,520.3,223,517,223L517,223z"/>
				</g>
			</g>
			
				<image style="overflow:visible;" width="76" height="76" id="elevator_x5F_off" xlink:href="./images/2x/elevator_off@2x.png" class="i_elevator" transform="matrix(0.5 0 0 0.5 483 225)">
			</image>
		</g>
		<a id="rdobserver" xlink:href="#">
		<g id="">
			<path class="st1" d="M187.2,166.6c-6.7-1.4-47.8-10-87.2-22.5c-1.3-0.4-2.3-1.3-2.9-2.5c-0.6-1.2-0.7-2.6-0.3-3.8l14-43.1
				c6.7,2.2,47,15.5,83,23.1c1.3,0.3,2.5,1.1,3.2,2.2c0.7,1.2,1,2.5,0.6,3.8L187.2,166.6z"/>
			<path class="st2" d="M111.4,95.9c9,3,47.5,15.5,82.1,22.8c1.1,0.2,2,0.9,2.6,1.8c0.6,0.9,0.8,2,0.5,3.1l-10.1,41.9
				c-9-1.9-48.4-10.3-86.1-22.3c-1-0.3-1.9-1-2.4-2c-0.5-1-0.6-2-0.2-3.1L111.4,95.9 M110.2,93.4l-14.3,44.1c-1,3.2,0.7,6.6,3.9,7.6
				c43.3,13.8,88.2,22.8,88.2,22.8l10.6-43.8c0.8-3.3-1.3-6.6-4.6-7.3C154.4,108.4,110.2,93.4,110.2,93.4L110.2,93.4z"/>
		</g>
		</a>
		<g id="jswpark06_4_">
			<g>
				<path class="st9" d="M852.2-1475.5c-2.2,0-4-1.8-4-4v-32c0-2.2,1.8-4,4-4h32c2.2,0,4,1.8,4,4v32c0,2.2-1.8,4-4,4H852.2z"/>
				<path class="st2" d="M884.2-1514.6c1.7,0,3,1.3,3,3v32c0,1.7-1.3,3-3,3h-32c-1.7,0-3-1.3-3-3v-32c0-1.7,1.3-3,3-3H884.2
					 M884.2-1516.6h-32c-2.8,0-5,2.2-5,5v32c0,2.8,2.2,5,5,5h32c2.8,0,5-2.2,5-5v-32C889.2-1514.3,887-1516.6,884.2-1516.6
					L884.2-1516.6z"/>
			</g>
			<g id="Map-Search_4_">
				<g id="T03-Map_4_" transform="translate(-1058.000000, -928.000000)">
					<g id="하단퀵메뉴_4_" transform="translate(0.000000, 850.000000)">
						<g id="Quickmenu_4_" transform="translate(760.000000, 60.000000)">
							<g id="parking_2_" transform="translate(298.000000, 18.000000)">
								<path id="Rectangle-6_2_" class="st2" d="M860.4-1503.9c-0.3,0-0.6,0.3-0.6,0.6v15.6c0,0.3,0.3,0.6,0.6,0.6H876
									c0.3,0,0.6-0.3,0.6-0.6v-15.6c0-0.3-0.3-0.6-0.6-0.6H860.4z M860.4-1505.8H876c1.3,0,2.4,1.1,2.4,2.4v15.6
									c0,1.3-1.1,2.4-2.4,2.4h-15.6c-1.3,0-2.4-1.1-2.4-2.4v-15.6C858-1504.7,859.1-1505.8,860.4-1505.8z"/>
								<path id="P_2_" class="st2" d="M864.4-1489.6c-0.1,0-0.2,0-0.3-0.1s-0.1-0.2-0.1-0.3v-10.6c0-0.1,0-0.2,0.1-0.3
									s0.2-0.1,0.3-0.1h4.3c1.3,0,2.4,0.3,3.1,1s1.1,1.6,1.1,2.8c0,1.2-0.4,2.2-1.1,2.8s-1.8,0.9-3.1,0.9H867v3.5
									c0,0.1,0,0.2-0.1,0.3c-0.1,0.1-0.2,0.1-0.3,0.1H864.4z M868.7-1495.8c0.4,0,0.8-0.1,1-0.4c0.2-0.2,0.4-0.6,0.4-1
									c0-0.4-0.1-0.8-0.3-1c-0.2-0.3-0.6-0.4-1-0.4H867v2.8H868.7z"/>
							</g>
						</g>
					</g>
				</g>
			</g>
		</g>
	</g>
	<g id="Spotname1Fma" class="spotname">
		<text id="mariott" text-anchor="middle" transform="matrix(1 0 0 1 1268 448)" class="st2 st10 st11">메리어트관</text>
		<text id="mariott" text-anchor="middle" transform="matrix(1 0 0 1 788 144)" class="st2 st10 st11">메리어트관</text>
	</g>
	<g id="Spotname1Fld" class="spotname">
		<text id="landing" text-anchor="middle" transform="matrix(1 0 0 1 301 121)" class="st2 st10 st11">랜딩관</text>
		<text id="rdobserver" text-anchor="middle" transform="matrix(1 0 0 1 152 134)" class="st2 st10 st11">전망대</text>
		<text id="landing" text-anchor="middle" transform="matrix(1 0 0 1 466 591)" class="st2 st10 st11">랜딩관</text>
	</g>
	<g id="SpotnameMOSIL" class="spotname">
		<text id="sauna" text-anchor="middle" transform="matrix(1 0 0 1 898 377)" class="st9 st10 st11">사우나</text>
		<text id="ma1f104" text-anchor="middle" transform="matrix(1 0 0 1 800 317)" class="st9 st10 st11">모실 클럽 하우스</text>
		<text id="mosil01" text-anchor="middle" transform="matrix(1 0 0 1 1002 448)" class="st9 st10 st11">스파</text>
		<text id="mosil02" text-anchor="middle" transform="matrix(1 0 0 1 828 494)" class="st9 st10 st11">실내수영장</text>
		<text id="mosil03" text-anchor="middle" transform="matrix(1 0 0 1 772 374)" class="st9 st10 st11">스몰 풀</text>
		<text id="mosil04" text-anchor="middle" transform="matrix(1 0 0 1 710 405)" class="st9 st10 st11">키즈 풀</text>
		<text id="mosil05" text-anchor="middle" transform="matrix(1 0 0 1 694 535)" class="st9 st10 st11">온수 풀</text>
		<text id="mosil06" text-anchor="middle" transform="matrix(1 0 0 1 820 593)" class="st9 st10 st11">패밀리 풀</text>
		<text id="mosil07" text-anchor="middle" transform="matrix(1 0 0 1 1080 393)" class="st9 st10 st11">어덜트 풀</text>
		<g>
			<text id="ma1f105" text-anchor="middle" transform="matrix(1 0 0 1 950 486)"><tspan x="0" y="0" class="st2 st10 st11">풀사이드</tspan><tspan x="0" y="14" class="st2 st10 st11">카페</tspan></text>
		</g>
	</g>
	<g id="Portals">
		<line id="Wayout.2.floorMaF100" class="st22" x1="1270" y1="80" x2="1277" y2="73"/>
		<line id="Elev.5.floorGfLd" class="st22" x1="493" y1="244" x2="500" y2="237"/>
	</g>
	<g id="Doors">
		<line id="ma1f104" class="st13" x1="898" y1="344" x2="905" y2="337"/>
		<line id="ma1f105" class="st13" x1="948" y1="452" x2="955" y2="445"/>
		<line id="rdobserver" class="st13" x1="144" y1="125" x2="151" y2="118"/>
	</g>
	<g id="Paths">
		<line class="st14" x1="1270" y1="141" x2="1270" y2="80"/>
		<line class="st14" x1="1011" y1="141" x2="1270" y2="141"/>
		<line class="st14" x1="1011" y1="222" x2="1011" y2="141"/>
		<line class="st14" x1="955" y1="278" x2="1011" y2="222"/>
		<line class="st14" x1="955" y1="314" x2="955" y2="278"/>
		<line class="st14" x1="905" y1="314" x2="955" y2="314"/>
		<line class="st14" x1="905" y1="337" x2="905" y2="314"/>
		<line class="st14" x1="955" y1="445" x2="955" y2="314"/>
		<line class="st14" x1="151" y1="118" x2="151" y2="91"/>
		<line class="st14" x1="465" y1="244" x2="493" y2="244"/>
		<line class="st14" x1="465" y1="142" x2="465" y2="244"/>
		<line class="st14" x1="302" y1="129" x2="465" y2="142"/>
		<line class="st14" x1="151" y1="91" x2="302" y2="129"/>
	</g>
</g>
</svg>
