<?xml version="1.0" encoding="utf-8"?>
<!-- Generator: Adobe Illustrator 23.0.0, SVG Export Plug-In . SVG Version: 6.00 Build 0)  -->
<svg version="1.1" xmlns="http://www.w3.org/2000/svg" xmlns:xlink="http://www.w3.org/1999/xlink" x="0px" y="0px"
	 viewBox="0 0 1400 730" style="enable-background:new 0 0 1400 730;" xml:space="preserve" width="1400px" height="730px" id="maf5">
<style type="text/css">
	#maf5 .st0{fill:#CBD5DD;}
	#maf5 .st1{fill:#EAEAEA;}
	#maf5 .st2{fill:#A5855B;}
	#maf5 .st3{fill:#FFFFFF;}
	#maf5 .st4{font-family:'NotoSans';}
	#maf5 .st5{font-size:17px;}
	#maf5 .st6{fill:none;stroke:#00FF00;}
	#maf5 .st7{fill:none;stroke:#EF405C;}
	#maf5 .st8{fill:none;stroke:#FF00FF;}
	#maf5 .st9{fill:#C9CDD1;}
	#maf5 .st10{fill:none;stroke:#A5855B;stroke-width:2;stroke-linecap:round;stroke-linejoin:round;}
	#maf5 .st11{fill:none;stroke:#A5855B;stroke-width:2;stroke-miterlimit:10;}
	
	<!-- GF BG css Start //-->
	#maf5 .st18{fill:#CBD5DD;}
	#maf5 .st19{opacity:0.1;}
	#maf5 .st20{opacity:0.5;}
	#maf5 .st21{fill:#EAEAEA;}
	#maf5 .st22{fill:#A5855B;}
	#maf5 .st23{fill:#C9CDD1;}
	#maf5 .st24{fill:#FFFFFF;}
	#maf5 .st25{fill:none;stroke:#A5855B;stroke-width:2;stroke-miterlimit:10;}
	#maf5 .st26{fill:none;stroke:#EF405C;}
	#maf5 .st27{fill:none;stroke:#FF00FF;}
	#maf5 .st28{fill:none;}
	#maf5 .st29{opacity:5.000000e-02;}
	#maf5 .st30{opacity:0.5;fill:#818387;enable-background:new;}
	#maf5 .st31{font-size:22px;}
	<!-- GF BG css End //-->
</style>
<title>181010_Ma_5F_wayfinding_KOR</title>
<g id="BG">
	<rect class="st0" width="1400" height="730"/>
</g>
<g id="LGF">
	<g id="Base">
		<!-- <g id="Marriott_Base02">
			<path class="st1" d="M520.5,1209.9c-4.3,0.1-7.8-3.4-7.9-7.7v-698c66.7,4.4,148.3,6.6,242.6,6.6c268.8,0,560.8-18,580.8-19.3
				v436.6c0,1.3-0.5,2.6-1.4,3.5l-273.7,276.8c-0.9,0.9-2.2,1.5-3.6,1.5H520.5z"/>
			<path class="st2" d="M1335,492.6v435.5c0,1.1-0.4,2.1-1.2,2.8l-273.7,276.7c-0.8,0.8-1.8,1.2-2.8,1.2H520.5
				c-3.7,0.1-6.8-2.9-6.9-6.7V505.3c66.5,4.3,147.8,6.5,241.6,6.5C1020.1,511.8,1307.4,494.4,1335,492.6 M1337,490.5
				c0,0-301.5,19.3-581.8,19.3c-86.4,0-170.7-1.8-243.6-6.6v699.1c0.1,4.8,4.1,8.7,8.9,8.7c0,0,0,0,0,0h536.7c1.6,0,3.1-0.6,4.3-1.8
				l273.7-276.8c1.1-1.1,1.7-2.6,1.7-4.2V490.5z"/>
		</g> //-->
		<!-- <g id="Marriott_Base01">
			<path class="st1" d="M273.9,944.8c-3.2-0.1-5.7-2.6-5.9-5.7c-0.6-11-5-32.5-15.1-46.4c-2.1-2.9-6.1-3.8-9.2-2l-6.6,3.8
				c-2.4,1.4-5.4,0.6-6.8-1.8L209,855.8c-1.4-2.4-0.6-5.4,1.8-6.8l9.9-5.7c0.7-0.4,1.2-1.1,1.4-1.9c0.2-0.8,0.1-1.6-0.4-2.3
				c-1.6-2.5-3.2-5.1-4.8-7.5c-0.9-1.4-2.8-1.8-4.1-0.9c0,0-0.1,0-0.1,0.1l-9.8,7c-2.2,1.6-5.4,1.1-7-1.1c0,0,0,0,0,0L171.2,802
				c-1.6-2.2-1.1-5.4,1.1-7c0,0,0,0,0,0l9-6.4c1.4-1,1.7-2.8,0.7-4.2c0-0.1-0.1-0.1-0.1-0.2c-2.2-2.6-4.4-5.2-6.6-7.7
				c-0.6-0.6-1.4-1-2.3-1c-0.7,0-1.5,0.3-2,0.8l-8.2,7.7c-0.9,0.9-2.1,1.4-3.4,1.3l0,0c-1.4,0-2.7-0.6-3.6-1.6L142,769
				c-5.4-5.7-10.8-11.5-14.6-15.6c-1.2-1.1-1.9-2.6-2-4.3c0.2-1.6,1.1-3.1,2.3-4.2l2.4-2.3c2.8-2.6,3-7.1,0.3-9.9
				c-0.2-0.2-0.5-0.5-0.7-0.7c-7.5-6.1-15.5-11.6-23.9-16.3c-2.2-1.4-3.6-3.8-3.8-6.4v-326c0-5.1-4.1-9.3-9.2-9.4l-27.5-0.4
				c-4.1-0.1-7.3-3.4-7.3-7.5v-61.3c0-4.1,3.3-7.4,7.4-7.4h6.8c4.8,0,8.6-3.9,8.6-8.6c-0.1-1.9,0.7-3.8,2-5.2
				c1.9-1.9,4.7-2.7,7.2-1.9h0.1l111.8,8.5c0.8,0.3,1.7,0.4,2.6,0.4c2.9,0,5.5-1.4,7.3-3.6c1.7-2.3,2.3-5.2,1.5-8l-18.8-67.2
				c-0.8-2.9,0.2-5.9,2.6-7.7c31.7-24.9,158-54.7,579.7-55.2c3.9,0,392.3,3.6,554.7,12.9c2.6,0.2,4.7,2.3,4.7,5v325.2
				c-19.4,1.1-328.7,19.2-592.1,19.2c-92.9,0-170.3-2.2-230-6.7l-1.1-0.1v440.5H273.9z"/>
			<path class="st2" d="M776.6,149.8L776.6,149.8c4,0,392.3,3.6,554.6,12.9c2.1,0.1,3.8,1.9,3.8,4v324.2
				c-26.8,1.6-331.3,19.1-591.1,19.1c-92.9,0-170.2-2.2-229.9-6.6l-2.1-0.2v440.5h-238c-2.6-0.1-4.8-2.2-4.9-4.8
				c-0.5-9.6-4.3-31.7-15.3-47c-2.4-3.3-6.9-4.3-10.5-2.2l-6.6,3.8c-1.9,1.1-4.4,0.4-5.5-1.5l-21.3-36.8c-1.1-1.9-0.5-4.4,1.5-5.5
				c0,0,0,0,0,0l9.9-5.7c1.9-1.1,2.6-3.5,1.5-5.5c0,0-0.1-0.1-0.1-0.1c-1.6-2.5-3.2-5.1-4.8-7.5c-0.7-1.1-2-1.8-3.4-1.8
				c-0.8,0-1.6,0.3-2.3,0.7l-9.8,7c-0.7,0.5-1.5,0.7-2.3,0.7c-1.3,0-2.5-0.6-3.3-1.7L172,801.4c-1.3-1.8-0.9-4.3,0.9-5.6
				c0,0,0,0,0,0l9-6.4c0.9-0.7,1.5-1.6,1.6-2.8c0.1-1.1-0.2-2.2-0.9-3.1c-2.2-2.7-4.5-5.3-6.6-7.8c-1.5-1.7-4-1.8-5.6-0.4
				c0,0-0.1,0.1-0.1,0.1l-8.2,7.7c-0.7,0.7-1.7,1.1-2.7,1.1c-1.1,0-2.2-0.5-2.9-1.3c-3.3-3.6-8.6-9.1-13.9-14.8
				s-10.7-11.4-14.5-15.5c-1-0.9-1.6-2.2-1.7-3.6c0.2-1.4,0.9-2.6,2-3.5l2.4-2.3c3.2-3,3.4-8.1,0.4-11.3c-0.3-0.3-0.6-0.5-0.9-0.8
				c-7.5-6.1-15.5-11.6-24-16.4c-1.9-1.2-3.1-3.3-3.3-5.5v-326c0-5.7-4.6-10.3-10.2-10.4l-27.5-0.4c-3.5-0.1-6.3-2.9-6.3-6.4v-61.3
				c0-3.5,2.9-6.4,6.4-6.4h6.8c5.3,0,9.6-4.3,9.6-9.6v0c-0.1-1.6,0.6-3.2,1.7-4.4c1.2-1.2,2.7-1.9,4.4-1.9c0.6,0,1.2,0.1,1.8,0.3
				l0.2,0.1h0.2l111.6,8.5c4,1.2,8.3-0.3,10.8-3.6c1.9-2.5,2.5-5.8,1.7-8.8l-18.8-67.2c-0.7-2.5,0.2-5.1,2.2-6.7
				c17-13.4,56.9-24.6,118.5-33.3C416.3,157.4,571.2,150,776.6,149.8 M776.6,147.8c-476.1,0.6-559.3,38.9-580.3,55.4
				c-2.7,2.1-3.8,5.6-2.9,8.9l18.8,67.2c1.2,4.3-1.3,8.8-5.6,10c-0.7,0.2-1.4,0.3-2.2,0.3c-0.8,0-1.6-0.1-2.4-0.4l-111.8-8.5
				c-0.8-0.2-1.6-0.4-2.4-0.4c-4.5,0-8.1,3.7-8.1,8.2c0,0.1,0,0.1,0,0.2c0,4.2-3.4,7.6-7.6,7.6h-6.8c-4.6,0-8.4,3.8-8.4,8.4V366
				c0,4.6,3.7,8.3,8.3,8.4l27.5,0.4c4.6,0.1,8.3,3.8,8.3,8.4v326c0.2,3,1.8,5.7,4.3,7.3c8.4,4.7,16.3,10.1,23.7,16.2
				c2.6,2.1,3,5.8,0.9,8.4c-0.2,0.2-0.4,0.4-0.6,0.6l-2.5,2.4c-3.4,3.2-3.6,6.5-0.4,9.9c7.6,8.1,21.8,23.2,28.4,30.3
				c2.3,2.4,6.1,2.6,8.5,0.3l8.2-7.7c0.8-0.8,2.1-0.7,2.8,0.1c0,0,0,0,0.1,0.1c2.2,2.6,4.4,5.1,6.6,7.7c0.7,0.8,0.6,2.1-0.3,2.8
				c0,0-0.1,0.1-0.1,0.1l-9,6.4c-2.7,1.9-3.3,5.7-1.4,8.4c0,0,0,0,0,0l24.7,34.6c1.9,2.7,5.7,3.3,8.4,1.4l9.8-7
				c0.9-0.6,2.1-0.4,2.8,0.5c0,0,0,0,0.1,0.1c1.6,2.5,3.2,5,4.8,7.5c0.6,0.9,0.3,2.2-0.6,2.8c0,0,0,0-0.1,0l-9.9,5.7
				c-2.9,1.7-3.8,5.3-2.2,8.2c0,0,0,0,0,0l21.3,36.8c1.1,1.9,3.1,3,5.2,3c1.1,0,2.1-0.3,3-0.8l6.6-3.8c2.7-1.5,6.1-0.8,7.9,1.7
				c10.4,14.4,14.5,35.8,14.9,45.9c0.2,3.7,3.1,6.6,6.8,6.7h240V505.4c65.2,4.8,145.5,6.7,230.1,6.7c273.8,0,593.1-19.3,593.1-19.3
				V166.7c0-3.2-2.5-5.8-5.7-6C1167,151.3,776.6,147.8,776.6,147.8L776.6,147.8z"/>
		</g> //-->
	</g>
<!-- GF BG Start //-->
<g class="st19">
	<g id="Marriott_Base01" class="st20">
		<path class="st21" d="M292.3,981.4c-3.2,0-5.7-2.5-5.9-5.7c-0.6-11-5-32.5-15.1-46.4c-1.3-1.8-3.4-2.9-5.7-2.9
			c-1.2,0-2.4,0.3-3.5,0.9l-6.6,3.8c-0.8,0.4-1.6,0.7-2.5,0.7c-1.8,0-3.4-1-4.3-2.5l-21.3-36.9c-0.7-1.2-0.8-2.5-0.5-3.8
			s1.2-2.4,2.3-3l9.9-5.7c0.7-0.4,1.2-1.1,1.4-1.9c0.2-0.8,0.1-1.6-0.4-2.3c-1.6-2.5-3.2-5.1-4.8-7.5c-0.6-0.9-1.5-1.4-2.5-1.4
			c-0.6,0-1.2,0.2-1.7,0.6l-9.8,7c-0.9,0.6-1.9,0.9-2.9,0.9c-1.6,0-3.1-0.8-4.1-2.1l-24.7-34.6c-1.6-2.2-1.1-5.4,1.2-7l9-6.4
			c0.7-0.5,1.1-1.2,1.2-2.1c0.1-0.8-0.1-1.7-0.7-2.3c-2.2-2.6-4.4-5.2-6.6-7.7c-0.6-0.6-1.4-1-2.3-1c-0.8,0-1.5,0.3-2.1,0.8
			l-8.2,7.7c-0.9,0.9-2.1,1.3-3.4,1.3l0,0c-1.4,0-2.7-0.6-3.6-1.6c-3.3-3.5-8.5-9.1-13.8-14.7c-5.3-5.7-10.8-11.5-14.6-15.6
			c-1.4-1.5-2.1-2.9-2-4.3c0.1-1.4,0.8-2.8,2.3-4.2l2.4-2.3c1.5-1.4,2.3-3.3,2.2-5.4c-0.1-2-1-3.9-2.6-5.2
			c-8.6-6.8-16.6-12.3-23.9-16.3c-2-1.1-3.8-4.1-3.8-6.4v-326c0-5.1-4.2-9.3-9.3-9.4l-27.5-0.4c-4-0.1-7.3-3.4-7.3-7.4v-61.3
			c0-4.1,3.3-7.4,7.4-7.4h6.8c4.7,0,8.6-3.9,8.6-8.6c0-2,0.7-3.8,2-5.2c1.3-1.4,3.2-2.2,5.1-2.2c0.7,0,1.4,0.1,2.1,0.3h0.1
			l111.8,8.5c0.9,0.3,1.7,0.4,2.6,0.4c2.8,0,5.5-1.4,7.3-3.6c1.7-2.3,2.3-5.2,1.5-8l-18.8-67.2c-0.8-2.9,0.2-6,2.5-7.8
			c31.7-24.9,158-54.7,579.7-55.2c3.9,0,392.3,3.6,554.7,12.9c2.6,0.1,4.7,2.3,4.7,5v325.2c-19.4,1.2-328.7,19.2-592.1,19.2
			c-92.9,0-170.3-2.2-230-6.7l-1.1-0.1v440.5L292.3,981.4L292.3,981.4z"/>
		<path class="st22" d="M795,186.4L795,186.4c4,0,392.3,3.6,554.6,12.9c2.1,0.1,3.8,1.9,3.8,4v324.3c-26.8,1.6-331.3,19.1-591.1,19.1
			c-92.9,0-170.2-2.2-229.9-6.7l-2.1-0.2v2.2v438.4h-238h-0.1c-2.6,0-4.7-2.1-4.8-4.8c-0.5-9.6-4.3-31.7-15.3-47
			c-1.5-2.1-3.9-3.3-6.5-3.3c-1.4,0-2.8,0.4-4,1.1l-6.6,3.8c-0.6,0.4-1.3,0.5-2,0.5c-1.4,0-2.8-0.8-3.5-2l-21.3-36.8
			c-1.1-1.9-0.4-4.4,1.5-5.5l9.9-5.7c0.9-0.5,1.6-1.5,1.9-2.5c0.3-1.1,0.1-2.2-0.5-3.1c-1.6-2.5-3.2-5.1-4.8-7.5
			c-0.7-1.1-2-1.8-3.4-1.8c-0.8,0-1.6,0.3-2.3,0.7l-9.8,7c-0.7,0.5-1.5,0.7-2.3,0.7c-1.3,0-2.5-0.6-3.3-1.7l-24.7-34.6
			c-1.3-1.8-0.9-4.3,0.9-5.6l9-6.4c0.9-0.6,1.5-1.7,1.7-2.8c0.1-1.1-0.2-2.2-0.9-3.1c-2.2-2.7-4.5-5.3-6.6-7.8
			c-0.8-0.9-1.9-1.4-3-1.4c-1,0-2,0.4-2.7,1.1l-8.2,7.7c-0.7,0.7-1.7,1.1-2.7,1.1c-1.1,0-2.2-0.4-2.9-1.3
			c-3.3-3.6-8.6-9.1-13.9-14.8c-5.3-5.7-10.7-11.4-14.5-15.5c-1.2-1.3-1.8-2.5-1.7-3.6c0-1.1,0.7-2.3,2-3.5l2.4-2.3
			c1.7-1.6,2.6-3.8,2.5-6.2c-0.1-2.3-1.2-4.5-3-5.9c-8.6-6.9-16.7-12.4-24-16.4c-1.7-0.9-3.3-3.6-3.3-5.5v-326
			c0-5.6-4.6-10.3-10.2-10.4l-27.5-0.4c-3.5-0.1-6.3-2.9-6.3-6.4v-61.3c0-3.5,2.9-6.4,6.4-6.4h6.8c5.3,0,9.6-4.3,9.6-9.6l0,0l0,0
			c0-1.7,0.6-3.2,1.7-4.4c1.2-1.2,2.8-1.9,4.4-1.9c0.6,0,1.2,0.1,1.8,0.3l0.2,0.1h0.2l111.5,8.5c0.9,0.3,1.9,0.4,2.8,0.4
			c3.1,0,6.1-1.5,8.1-4c1.9-2.5,2.5-5.8,1.7-8.8l-18.8-67.2c-0.7-2.5,0.2-5.1,2.2-6.7c17-13.4,56.9-24.6,118.5-33.3
			C434.7,194,589.7,186.7,795,186.4 M795,184.4c-476.1,0.6-559.3,38.9-580.3,55.4c-2.7,2.1-3.8,5.6-2.9,8.8l18.8,67.2
			c1.5,5.4-2.7,10.3-7.8,10.3c-0.8,0-1.6-0.1-2.4-0.4l-111.8-8.5c-0.8-0.2-1.6-0.4-2.4-0.4c-4.4,0-8.2,3.6-8.1,8.3
			c0,4.2-3.4,7.6-7.6,7.6h-6.8c-4.6,0-8.4,3.8-8.4,8.4v61.5c0,4.6,3.7,8.3,8.3,8.4l27.5,0.4c4.6,0.1,8.3,3.8,8.3,8.4v326
			c0,2.7,1.9,6,4.3,7.3c8,4.3,16.1,10.1,23.7,16.2c2.9,2.3,3,6.6,0.4,9.1l-2.4,2.3c-3.4,3.2-3.6,6.5-0.4,9.9
			c7.6,8.1,21.8,23.2,28.4,30.3c1.2,1.3,2.8,1.9,4.4,1.9c1.5,0,2.9-0.5,4.1-1.6l8.2-7.7c0.4-0.4,0.9-0.5,1.4-0.5
			c0.6,0,1.1,0.2,1.5,0.7c2.2,2.6,4.5,5.1,6.6,7.7c0.7,0.9,0.6,2.2-0.4,2.9l-9,6.4c-2.7,1.9-3.3,5.7-1.4,8.4l24.7,34.6
			c1.2,1.6,3,2.5,4.9,2.5c1.2,0,2.4-0.4,3.5-1.1l9.8-7c0.4-0.3,0.8-0.4,1.2-0.4c0.7,0,1.3,0.3,1.7,0.9c1.6,2.5,3.2,5,4.8,7.5
			c0.6,1,0.3,2.2-0.7,2.8l-9.9,5.7c-2.9,1.7-3.9,5.3-2.2,8.2l21.3,36.8c1.1,1.9,3.1,3,5.2,3c1,0,2-0.3,3-0.8l6.6-3.8
			c0.9-0.5,2-0.8,3-0.8c1.9,0,3.7,0.9,4.9,2.5c10.3,14.3,14.4,35.8,14.9,45.9c0.2,3.7,3.1,6.6,6.8,6.7h0.1h240V542
			c65.2,4.8,145.5,6.7,230.1,6.7c273.8,0,593.1-19.3,593.1-19.3V203.3c0-3.2-2.5-5.8-5.6-6C1185.5,187.9,795,184.4,795,184.4
			L795,184.4z"/>
	</g>
	<path class="st23" d="M292.3,981.4c-3.2,0-5.7-2.5-5.9-5.7c-0.6-11-5-32.5-15.1-46.4c-1.3-1.8-3.4-2.9-5.7-2.9
		c-1.2,0-2.4,0.3-3.5,0.9l-6.6,3.8c-0.8,0.4-1.6,0.7-2.5,0.7c-1.8,0-3.4-1-4.3-2.5l-21.3-36.9c-1.4-2.4-0.6-5.5,1.8-6.8l9.9-5.7
		c0.7-0.4,1.2-1.1,1.4-1.9c0.2-0.8,0.1-1.6-0.4-2.3c-1.6-2.5-3.2-5.1-4.8-7.5c-0.6-0.9-1.5-1.4-2.5-1.4c-0.6,0-1.2,0.2-1.7,0.6
		l-9.8,7c-0.9,0.6-1.9,0.9-2.9,0.9c-1.6,0-3.1-0.8-4.1-2.1l-24.7-34.6c-1.6-2.2-1.1-5.4,1.2-7l9-6.4c0.7-0.5,1.1-1.2,1.2-2.1
		c0.1-0.8-0.1-1.7-0.7-2.3c-2.2-2.6-4.4-5.2-6.6-7.7c-0.6-0.6-1.4-1-2.3-1c-0.8,0-1.5,0.3-2.1,0.8l-8.2,7.7
		c-0.9,0.9-2.1,1.3-3.4,1.3c-1.4,0-2.7-0.6-3.6-1.6c-3.3-3.5-8.5-9.1-13.8-14.7c-5.3-5.7-10.8-11.5-14.6-15.6
		c-1.4-1.5-2.1-2.9-2-4.3c0.1-1.4,0.8-2.8,2.3-4.2l2.4-2.3c1.5-1.4,2.3-3.3,2.2-5.4c-0.1-2-1-3.9-2.6-5.2
		c-8.6-6.9-16.6-12.3-23.9-16.3c-2-1.1-3.8-4.1-3.8-6.4v-326c0-5.1-4.2-9.3-9.3-9.4l-27.5-0.4c-4-0.1-7.3-3.4-7.3-7.4v-61.3
		c0-4.1,3.3-7.4,7.4-7.4h6.8c4.7,0,8.6-3.9,8.6-8.6c0-2,0.7-3.8,2-5.2c1.3-1.4,3.2-2.2,5.1-2.2c0.7,0,1.4,0.1,2.1,0.3h0.1l111.8,8.5
		c0.9,0.3,1.7,0.4,2.6,0.4c2.8,0,5.5-1.4,7.3-3.6c1.7-2.3,2.3-5.2,1.5-8l-18.8-67.2c-0.8-2.9,0.2-6,2.5-7.8
		c31.7-24.9,158-54.7,579.7-55.2c3.9,0,392.3,3.6,554.7,12.9c2.6,0.1,4.7,2.3,4.7,5v71.3c0,2.8-2.2,5-5,5h-121.9
		c-5.2,0-9.4,4.2-9.4,9.4v19.9c0,3.8-2.9,7-6.6,7.4c-19.8,2-33,6.8-41.6,15.1c-9.2,8.9-13.4,22-13.4,41.3s4.3,32.5,13.4,41.3
		c8.5,8.3,21.7,13.1,41.6,15.1c3.8,0.4,6.6,3.5,6.6,7.4v21.1c0,3.9,3.1,7,7,7h124.4c2.8,0,5,2.2,5,5v58.5
		c-11.2,0.7-120.7,7.9-275,13.2c-111,4.2-214.7,6.3-308.1,6.3c-162,0-238.2-6.5-238.9-6.6l-1.1-0.1v440.5L292.3,981.4L292.3,981.4z"
		/>
	<g>
		<g>
			<path class="st21" d="M301.3,916.5c-2.9,0-5.5-1.7-6.7-4.3c-10.3-22.9-48.9-101.4-114.5-152.1c-1.8-1.4-2.9-3.6-2.9-5.9v-68.7
				c0-2.7,2.2-5,5-5h310c3.8,0,7,3.3,7,7.4v221.3c0,4.1-3.1,7.4-7,7.4L301.3,916.5L301.3,916.5z"/>
			<g>
				<path class="st22" d="M492.2,681.5c3.3,0,6,2.9,6,6.4v221.3c0,3.5-2.7,6.4-6,6.4h-191c-2.5,0-4.8-1.5-5.8-3.8
					c-10.3-22.9-49-101.6-114.8-152.5c-1.5-1.2-2.5-3.1-2.5-5.1v-68.7c0-2.2,1.8-4,4-4L492.2,681.5 M492.2,679.5h-310
					c-3.3,0-6,2.7-6,6v68.7c0,2.6,1.2,5.1,3.2,6.7c66.1,51,104.9,131.1,114.2,151.7c1.4,3,4.3,4.9,7.6,4.9h191c4.4,0,8-3.7,8-8.4
					V687.9C500.2,683.2,496.6,679.5,492.2,679.5L492.2,679.5z"/>
			</g>
		</g>
		<g>
			<path class="st21" d="M530.8,750.2v-49.6h75.8c2.8,0,5,2.2,5,5v39.6c0,2.8-2.2,5-5,5H530.8z"/>
			<path class="st22" d="M606.6,701.6c2.2,0,4,1.8,4,4v39.6c0,2.2-1.8,4-4,4h-74.8v-47.6H606.6 M606.6,699.6h-76.8v51.6h76.8
				c3.3,0,6-2.7,6-6v-39.6C612.6,702.3,609.9,699.6,606.6,699.6L606.6,699.6z"/>
		</g>
		<g>
			<path class="st21" d="M530.8,872.7v-100h75.8c2.8,0,5,2.2,5,5v90c0,2.8-2.2,5-5,5H530.8z"/>
			<path class="st22" d="M606.6,773.7c2.2,0,4,1.8,4,4v90c0,2.2-1.8,4-4,4h-74.8v-98H606.6 M606.6,771.7h-76.8v102h76.8
				c3.3,0,6-2.7,6-6v-90C612.6,774.4,609.9,771.7,606.6,771.7L606.6,771.7z"/>
		</g>
		<g>
			<path class="st21" d="M530.8,918.7v-46h57.8c2.8,0,5,2.2,5,5v36c0,2.8-2.2,5-5,5H530.8z"/>
			<path class="st22" d="M588.6,873.7c2.2,0,4,1.8,4,4v36c0,2.2-1.8,4-4,4h-56.8v-44H588.6 M588.6,871.7h-58.8v48h58.8
				c3.3,0,6-2.7,6-6v-36C594.6,874.4,591.9,871.7,588.6,871.7L588.6,871.7z"/>
		</g>
		<g>
			<path class="st21" d="M182.6,622.7c-2.8,0-5-2.2-5-5v-70c0-2.8,2.2-5,5-5h85v75c0,2.8-2.2,5-5,5H182.6z"/>
			<path class="st22" d="M266.6,543.7v74c0,2.2-1.8,4-4,4h-80c-2.2,0-4-1.8-4-4v-70c0-2.2,1.8-4,4-4H266.6 M268.6,541.7h-86
				c-3.3,0-6,2.7-6,6v70c0,3.3,2.7,6,6,6h80c3.3,0,6-2.7,6-6V541.7L268.6,541.7z"/>
		</g>
		<g>
			<path class="st21" d="M272.6,622.7c-2.8,0-5-2.2-5-5v-75h28v75c0,2.8-2.2,5-5,5H272.6z"/>
			<path class="st22" d="M294.6,543.7v74c0,2.2-1.8,4-4,4h-18c-2.2,0-4-1.8-4-4v-74H294.6 M296.6,541.7h-30v76c0,3.3,2.7,6,6,6h18
				c3.3,0,6-2.7,6-6V541.7L296.6,541.7z"/>
		</g>
		<g>
			<path class="st21" d="M300.6,622.7c-2.8,0-5-2.2-5-5v-75h28v75c0,2.8-2.2,5-5,5H300.6z"/>
			<path class="st22" d="M322.6,543.7v74c0,2.2-1.8,4-4,4h-18c-2.2,0-4-1.8-4-4v-74H322.6 M324.6,541.7h-30v76c0,3.3,2.7,6,6,6h18
				c3.3,0,6-2.7,6-6V541.7L324.6,541.7z"/>
		</g>
		<g>
			<path class="st21" d="M328.6,622.7c-2.8,0-5-2.2-5-5v-75h28v75c0,2.8-2.2,5-5,5H328.6z"/>
			<path class="st22" d="M350.6,543.7v74c0,2.2-1.8,4-4,4h-18c-2.2,0-4-1.8-4-4v-74H350.6 M352.6,541.7h-30v76c0,3.3,2.7,6,6,6h18
				c3.3,0,6-2.7,6-6V541.7L352.6,541.7z"/>
		</g>
		<g>
			<path class="st21" d="M356.6,622.7c-2.8,0-5-2.2-5-5v-75h28v75c0,2.8-2.2,5-5,5H356.6z"/>
			<path class="st22" d="M378.6,543.7v74c0,2.2-1.8,4-4,4h-18c-2.2,0-4-1.8-4-4v-74H378.6 M380.6,541.7h-30v76c0,3.3,2.7,6,6,6h18
				c3.3,0,6-2.7,6-6V541.7L380.6,541.7z"/>
		</g>
		<g>
			<path class="st21" d="M384.6,622.7c-2.8,0-5-2.2-5-5v-75h28v75c0,2.8-2.2,5-5,5H384.6z"/>
			<path class="st22" d="M406.6,543.7v74c0,2.2-1.8,4-4,4h-18c-2.2,0-4-1.8-4-4v-74H406.6 M408.6,541.7h-30v76c0,3.3,2.7,6,6,6h18
				c3.3,0,6-2.7,6-6V541.7L408.6,541.7z"/>
		</g>
		<g>
			<path class="st21" d="M412.6,622.7c-2.8,0-5-2.2-5-5v-75h28v75c0,2.8-2.2,5-5,5H412.6z"/>
			<path class="st22" d="M434.6,543.7v74c0,2.2-1.8,4-4,4h-18c-2.2,0-4-1.8-4-4v-74H434.6 M436.6,541.7h-30v76c0,3.3,2.7,6,6,6h18
				c3.3,0,6-2.7,6-6V541.7L436.6,541.7z"/>
		</g>
		<g>
			<path class="st21" d="M440.6,622.7c-2.8,0-5-2.2-5-5v-75h28v75c0,2.8-2.2,5-5,5H440.6z"/>
			<path class="st22" d="M462.6,543.7v74c0,2.2-1.8,4-4,4h-18c-2.2,0-4-1.8-4-4v-74H462.6 M464.6,541.7h-30v76c0,3.3,2.7,6,6,6h18
				c3.3,0,6-2.7,6-6V541.7L464.6,541.7z"/>
		</g>
		<g>
			<path class="st21" d="M468.6,622.7c-2.8,0-5-2.2-5-5v-75h28v75c0,2.8-2.2,5-5,5H468.6z"/>
			<path class="st22" d="M490.6,543.7v74c0,2.2-1.8,4-4,4h-18c-2.2,0-4-1.8-4-4v-74H490.6 M492.6,541.7h-30v76c0,3.3,2.7,6,6,6h18
				c3.3,0,6-2.7,6-6V541.7L492.6,541.7z"/>
		</g>
		<g>
			<path class="st21" d="M228.2,743.5c-2.8,0-5-2.2-5-5v-58h44v58c0,2.8-2.2,5-5,5H228.2z"/>
			<path class="st22" d="M266.2,681.5v57c0,2.2-1.8,4-4,4h-34c-2.2,0-4-1.8-4-4v-57H266.2 M268.2,679.5h-46v59c0,3.3,2.7,6,6,6h34
				c3.3,0,6-2.7,6-6V679.5L268.2,679.5z"/>
		</g>
		<g>
			<path class="st21" d="M272.2,743.5c-2.8,0-5-2.2-5-5v-58h44v58c0,2.8-2.2,5-5,5H272.2z"/>
			<path class="st22" d="M310.2,681.5v57c0,2.2-1.8,4-4,4h-34c-2.2,0-4-1.8-4-4v-57H310.2 M312.2,679.5h-46v59c0,3.3,2.7,6,6,6h34
				c3.3,0,6-2.7,6-6V679.5L312.2,679.5z"/>
		</g>
		<g>
			<path class="st21" d="M316.2,743.5c-2.8,0-5-2.2-5-5v-58h44v58c0,2.8-2.2,5-5,5H316.2z"/>
			<path class="st22" d="M354.2,681.5v57c0,2.2-1.8,4-4,4h-34c-2.2,0-4-1.8-4-4v-57H354.2 M356.2,679.5h-46v59c0,3.3,2.7,6,6,6h34
				c3.3,0,6-2.7,6-6V679.5L356.2,679.5z"/>
		</g>
		<g>
			<g>
				<path class="st21" d="M335.8,946.5c-2.8,0-5-2.2-5-5v-25h68v25c0,2.8-2.2,5-5,5H335.8z"/>
				<path class="st22" d="M397.8,917.5v24c0,2.2-1.8,4-4,4h-58c-2.2,0-4-1.8-4-4v-24H397.8 M399.8,915.5h-70v26c0,3.3,2.7,6,6,6h58
					c3.3,0,6-2.7,6-6V915.5L399.8,915.5z"/>
			</g>
		</g>
		<g>
			<g>
				<path class="st21" d="M403.8,946.5c-2.8,0-5-2.2-5-5v-25h90v25c0,2.8-2.2,5-5,5H403.8z"/>
				<path class="st22" d="M487.8,917.5v24c0,2.2-1.8,4-4,4h-80c-2.2,0-4-1.8-4-4v-24H487.8 M489.8,915.5h-92v26c0,3.3,2.7,6,6,6h80
					c3.3,0,6-2.7,6-6V915.5L489.8,915.5z"/>
			</g>
		</g>
		<g>
			<g>
				<path class="st21" d="M292.3,983.3v44.7c0,3.9,3.1,7,7,7h42.2c0,0,12.4,1.7,23.7,16.2c11.3,14.5,24.6,12.6,24.6,12.6h141v-80.5
					L292.3,983.3L292.3,983.3z"/>
				<path class="st22" d="M388.1,1064.9c-1.5,0-3.8-0.2-6.6-1c-4.5-1.2-11.1-4.4-17.1-12.1c-10.5-13.5-22.1-15.7-23-15.8h-42.1
					c-4.4,0-8-3.6-8-8v-45.7h240.5v82.5H389.9C389.7,1064.8,389,1064.9,388.1,1064.9z M293.3,984.3v43.7c0,3.3,2.7,6,6,6h42.3
					c0.5,0.1,13,1.9,24.4,16.6c10.8,13.9,23.5,12.2,23.7,12.2h0.1h140v-78.5L293.3,984.3L293.3,984.3z"/>
			</g>
		</g>
		<g>
			<path class="st21" d="M366.2,772.5c-2.8,0-5-2.2-5-5v-42c0-2.8,2.2-5,5-5h128c2.8,0,5,2.2,5,5v42c0,2.8-2.2,5-5,5H366.2z"/>
			<path class="st22" d="M494.2,721.5c2.2,0,4,1.8,4,4v42c0,2.2-1.8,4-4,4h-128c-2.2,0-4-1.8-4-4v-42c0-2.2,1.8-4,4-4H494.2
				 M494.2,719.5h-128c-3.3,0-6,2.7-6,6v42c0,3.3,2.7,6,6,6h128c3.3,0,6-2.7,6-6v-42C500.2,722.2,497.5,719.5,494.2,719.5
				L494.2,719.5z"/>
		</g>
		<g>
			<path class="st21" d="M366.2,824.5c-2.8,0-5-2.2-5-5v-42c0-2.8,2.2-5,5-5h128c2.8,0,5,2.2,5,5v42c0,2.8-2.2,5-5,5H366.2z"/>
			<path class="st22" d="M494.2,773.5c2.2,0,4,1.8,4,4v42c0,2.2-1.8,4-4,4h-128c-2.2,0-4-1.8-4-4v-42c0-2.2,1.8-4,4-4H494.2
				 M494.2,771.5h-128c-3.3,0-6,2.7-6,6v42c0,3.3,2.7,6,6,6h128c3.3,0,6-2.7,6-6v-42C500.2,774.2,497.5,771.5,494.2,771.5
				L494.2,771.5z"/>
		</g>
		<g>
			<path class="st21" d="M366.2,876.5c-2.8,0-5-2.2-5-5v-42c0-2.8,2.2-5,5-5h128c2.8,0,5,2.2,5,5v42c0,2.8-2.2,5-5,5H366.2z"/>
			<path class="st22" d="M494.2,825.5c2.2,0,4,1.8,4,4v42c0,2.2-1.8,4-4,4h-128c-2.2,0-4-1.8-4-4v-42c0-2.2,1.8-4,4-4H494.2
				 M494.2,823.5h-128c-3.3,0-6,2.7-6,6v42c0,3.3,2.7,6,6,6h128c3.3,0,6-2.7,6-6v-42C500.2,826.2,497.5,823.5,494.2,823.5
				L494.2,823.5z"/>
		</g>
		<g id="Elevator_16_">
			<g>
				<g>
					<path class="st24" d="M232.6,622.7c-2.8,0-5-2.2-5-5v-30c0-2.8,2.2-5,5-5h30c2.8,0,5,2.2,5,5v30c0,2.8-2.2,5-5,5H232.6z"/>
					<path class="st22" d="M262.6,583.7c2.2,0,4,1.8,4,4v30c0,2.2-1.8,4-4,4h-30c-2.2,0-4-1.8-4-4v-30c0-2.2,1.8-4,4-4H262.6
						 M262.6,581.7h-30c-3.3,0-6,2.7-6,6v30c0,3.3,2.7,6,6,6h30c3.3,0,6-2.7,6-6v-30C268.6,584.4,265.9,581.7,262.6,581.7
						L262.6,581.7z"/>
				</g>
			</g>
		</g>
		<g id="Elevator_15_">
			<g>
				<g>
					<path class="st24" d="M182.2,760.5c-2.8,0-5-2.2-5-5v-30c0-2.8,2.2-5,5-5h30c2.8,0,5,2.2,5,5v30c0,2.8-2.2,5-5,5H182.2z"/>
					<path class="st22" d="M212.2,721.5c2.2,0,4,1.8,4,4v30c0,2.2-1.8,4-4,4h-30c-2.2,0-4-1.8-4-4v-30c0-2.2,1.8-4,4-4H212.2
						 M212.2,719.5h-30c-3.3,0-6,2.7-6,6v30c0,3.3,2.7,6,6,6h30c3.3,0,6-2.7,6-6v-30C218.2,722.2,215.5,719.5,212.2,719.5
						L212.2,719.5z"/>
				</g>
			</g>
		</g>
		<g id="Elevator_14_">
			<g>
				<g>
					<path class="st24" d="M406.2,720.5c-2.8,0-5-2.2-5-5v-30c0-2.8,2.2-5,5-5h30c2.8,0,5,2.2,5,5v30c0,2.8-2.2,5-5,5H406.2z"/>
					<path class="st22" d="M436.2,681.5c2.2,0,4,1.8,4,4v30c0,2.2-1.8,4-4,4h-30c-2.2,0-4-1.8-4-4v-30c0-2.2,1.8-4,4-4H436.2
						 M436.2,679.5h-30c-3.3,0-6,2.7-6,6v30c0,3.3,2.7,6,6,6h30c3.3,0,6-2.7,6-6v-30C442.2,682.2,439.5,679.5,436.2,679.5
						L436.2,679.5z"/>
				</g>
			</g>
		</g>
		<g id="Elevator_13_">
			<g>
				<g>
					<path class="st24" d="M535.8,653.8c-2.8,0-5-2.2-5-5v-30c0-2.8,2.2-5,5-5h30c2.8,0,5,2.2,5,5v30c0,2.8-2.2,5-5,5H535.8z"/>
					<path class="st22" d="M565.8,614.8c2.2,0,4,1.8,4,4v30c0,2.2-1.8,4-4,4h-30c-2.2,0-4-1.8-4-4v-30c0-2.2,1.8-4,4-4H565.8
						 M565.8,612.8h-30c-3.3,0-6,2.7-6,6v30c0,3.3,2.7,6,6,6h30c3.3,0,6-2.7,6-6v-30C571.8,615.5,569.1,612.8,565.8,612.8
						L565.8,612.8z"/>
				</g>
			</g>
		</g>
		<g id="Elevator_12_">
			<g>
				<g>
					<path class="st24" d="M558.8,1047.5c-2.8,0-5-2.2-5-5v-30c0-2.8,2.2-5,5-5h30c2.8,0,5,2.2,5,5v30c0,2.8-2.2,5-5,5H558.8z"/>
					<path class="st22" d="M588.8,1008.5c2.2,0,4,1.8,4,4v30c0,2.2-1.8,4-4,4h-30c-2.2,0-4-1.8-4-4v-30c0-2.2,1.8-4,4-4H588.8
						 M588.8,1006.5h-30c-3.3,0-6,2.7-6,6v30c0,3.3,2.7,6,6,6h30c3.3,0,6-2.7,6-6v-30C594.8,1009.2,592.1,1006.5,588.8,1006.5
						L588.8,1006.5z"/>
				</g>
			</g>
		</g>
		<g id="Stairs_4_">
			<g>
				<path class="st24" d="M366.2,720.5c-2.8,0-5-2.2-5-5v-30c0-2.8,2.2-5,5-5h30c2.8,0,5,2.2,5,5v30c0,2.8-2.2,5-5,5H366.2z"/>
				<path class="st22" d="M396.2,681.5c2.2,0,4,1.8,4,4v30c0,2.2-1.8,4-4,4h-30c-2.2,0-4-1.8-4-4v-30c0-2.2,1.8-4,4-4H396.2
					 M396.2,679.5h-30c-3.3,0-6,2.7-6,6v30c0,3.3,2.7,6,6,6h30c3.3,0,6-2.7,6-6v-30C402.2,682.2,399.5,679.5,396.2,679.5
					L396.2,679.5z"/>
			</g>
		</g>
		<g id="Exit_19_">
			<g>
				<path class="st24" d="M182.2,720.5c-2.8,0-5-2.2-5-5v-30c0-2.8,2.2-5,5-5h12c2.8,0,5,2.2,5,5v30c0,2.8-2.2,5-5,5H182.2z"/>
				<path class="st22" d="M194.2,681.5c2.2,0,4,1.8,4,4v30c0,2.2-1.8,4-4,4h-12c-2.2,0-4-1.8-4-4v-30c0-2.2,1.8-4,4-4H194.2
					 M194.2,679.5h-12c-3.3,0-6,2.7-6,6v30c0,3.3,2.7,6,6,6h12c3.3,0,6-2.7,6-6v-30C200.2,682.2,197.5,679.5,194.2,679.5
					L194.2,679.5z"/>
			</g>
		</g>
		<g id="Exit_18_">
			<g>
				<path class="st24" d="M535.8,613.9c-2.8,0-5-2.2-5-5v-30c0-2.8,2.2-5,5-5h12c2.8,0,5,2.2,5,5v30c0,2.8-2.2,5-5,5H535.8z"/>
				<path class="st22" d="M547.8,574.9c2.2,0,4,1.8,4,4v30c0,2.2-1.8,4-4,4h-12c-2.2,0-4-1.8-4-4v-30c0-2.2,1.8-4,4-4H547.8
					 M547.8,572.9h-12c-3.3,0-6,2.7-6,6v30c0,3.3,2.7,6,6,6h12c3.3,0,6-2.7,6-6v-30C553.8,575.6,551.1,572.9,547.8,572.9
					L547.8,572.9z"/>
			</g>
		</g>
		<g id="Exit_17_">
			<g>
				<path class="st24" d="M182.6,622.7c-2.8,0-5-2.2-5-5v-30c0-2.8,2.2-5,5-5h12c2.8,0,5,2.2,5,5v30c0,2.8-2.2,5-5,5H182.6z"/>
				<path class="st22" d="M194.6,583.7c2.2,0,4,1.8,4,4v30c0,2.2-1.8,4-4,4h-12c-2.2,0-4-1.8-4-4v-30c0-2.2,1.8-4,4-4H194.6
					 M194.6,581.7h-12c-3.3,0-6,2.7-6,6v30c0,3.3,2.7,6,6,6h12c3.3,0,6-2.7,6-6v-30C200.6,584.4,197.9,581.7,194.6,581.7
					L194.6,581.7z"/>
			</g>
		</g>
		<g id="Exit_16_">
			<g>
				<path class="st24" d="M558.8,967.5c-2.8,0-5-2.2-5-5v-30c0-2.8,2.2-5,5-5h12c2.8,0,5,2.2,5,5v30c0,2.8-2.2,5-5,5H558.8z"/>
				<path class="st22" d="M570.8,928.5c2.2,0,4,1.8,4,4v30c0,2.2-1.8,4-4,4h-12c-2.2,0-4-1.8-4-4v-30c0-2.2,1.8-4,4-4H570.8
					 M570.8,926.5h-12c-3.3,0-6,2.7-6,6v30c0,3.3,2.7,6,6,6h12c3.3,0,6-2.7,6-6v-30C576.8,929.2,574.1,926.5,570.8,926.5
					L570.8,926.5z"/>
			</g>
		</g>
		<g id="Exit_15_">
			<g>
				<path class="st24" d="M239,843.7c-2.8,0-5-2.2-5-5v-30c0-2.8,2.2-5,5-5h12c2.8,0,5,2.2,5,5v30c0,2.8-2.2,5-5,5H239z"/>
				<path class="st22" d="M251,804.7c2.2,0,4,1.8,4,4v30c0,2.2-1.8,4-4,4h-12c-2.2,0-4-1.8-4-4v-30c0-2.2,1.8-4,4-4H251 M251,802.7
					h-12c-3.3,0-6,2.7-6,6v30c0,3.3,2.7,6,6,6h12c3.3,0,6-2.7,6-6v-30C257,805.4,254.3,802.7,251,802.7L251,802.7z"/>
			</g>
		</g>
	</g>
	<a id="magf115" xlink:href="#" >
		<g>
			<path class="st21" d="M1326.4,223.6v13.8h17.1c4.7,0,10.9-2.2,10.9-5l-0.6-33.2c-28.3-1.8-20.5-2.4-52.9-3v27.3L1326.4,223.6
				L1326.4,223.6z"/>
		</g>
	</a>
	<path class="st21" d="M454.5,420.2c-44,0-99.5-11.2-101.7-11.6c-1.1-0.4-2.3-0.7-3.6-1.1c-11-3.3-24.7-7.4-24.7-37.2
		s13.7-33.9,24.7-37.2c1.3-0.4,2.5-0.8,3.6-1.1c0.4-0.1,46.1-11.6,101.7-11.6c49.7,0,91.9,19.5,96.5,21.7c0.1,0,0.1,0.1,0.2,0.1
		c8,1.7,17.2,7,17.3,7c5.5,3.1,8,11.3,8.9,15.9c0.7,3.5,0.7,7.2,0,10.6c-1,4.6-3.4,12.8-8.9,15.9c-0.1,0.1-9.3,5.3-17.3,7
		c-0.1,0-0.2,0-0.2,0.1C546.4,400.7,504.3,420.2,454.5,420.2z"/>
	<path class="st22" d="M454.5,321.2c49.5,0,91.5,19.4,96.1,21.6c0.1,0.1,0.3,0.1,0.4,0.2c7.9,1.7,16.9,6.9,17,6.9
		c5.1,2.9,7.5,10.8,8.4,15.2c0.7,3.3,0.7,6.9,0,10.2c-0.9,4.4-3.3,12.3-8.5,15.2c-0.1,0.1-9.1,5.3-17,6.9c-0.2,0-0.3,0.1-0.4,0.2
		c-4.6,2.2-46.6,21.6-96.1,21.6c-43.5,0-98.5-11-101.5-11.6c-1.1-0.4-2.3-0.7-3.6-1.1c-10.7-3.2-24-7.2-24-36.3
		c0-29.1,13.3-33.1,24-36.3c1.3-0.4,2.5-0.7,3.6-1.1C355.2,332.3,400.1,321.2,454.5,321.2 M454.5,319.2c-56.3,0-102,11.7-102,11.7
		c-10.9,3.7-29,5.2-29,39.3s18.1,35.6,29,39.3c0,0,56.7,11.7,102,11.7c50.4,0,93.5-20.1,97-21.8c8.3-1.8,17.6-7.1,17.6-7.1
		c5.7-3.2,8.3-11.1,9.4-16.5c0.8-3.6,0.8-7.4,0-11.1c-1.2-5.4-3.8-13.4-9.4-16.5c0,0-9.3-5.4-17.6-7.1
		C548,339.3,504.9,319.2,454.5,319.2L454.5,319.2z"/>
	<g>
		<path class="st21" d="M520.9,409.4c-2.1,0-4.1-0.9-5.5-2.5c-4.3-4.8-9.4-15.1-9.4-36.8s5.1-31.9,9.4-36.8c1.4-1.6,3.4-2.5,5.5-2.5
			c0.7,0,1.5,0.1,2.2,0.3c15.7,4.9,26,9.7,27.9,10.6l0.1,0.1h0.1c8.1,1.7,17.2,7,17.3,7c5.5,3.1,8,11.3,8.9,15.9
			c0.7,3.5,0.7,7.1,0,10.6c-1,4.6-3.4,12.8-8.9,15.9c-0.1,0.1-9.3,5.3-17.3,7h-0.1l-0.1,0.1c-1.9,0.9-12.2,5.7-27.9,10.6
			C522.4,409.3,521.7,409.4,520.9,409.4L520.9,409.4z"/>
		<g>
			<path class="st22" d="M520.9,332c0.6,0,1.3,0.1,1.9,0.3c15.7,4.9,25.9,9.6,27.8,10.5l0.2,0.1h0.2c7.9,1.7,16.9,6.9,17,6.9
				c5.1,2.9,7.5,10.8,8.4,15.2c0.7,3.4,0.7,6.8,0,10.2c-0.9,4.4-3.3,12.3-8.5,15.2c-0.1,0.1-9.1,5.3-17,6.9h-0.2l-0.2,0.1
				c-1.9,0.9-12.1,5.7-27.8,10.5c-0.6,0.2-1.3,0.3-1.9,0.3c-1.8,0-3.6-0.8-4.8-2.1c-4.2-4.7-9.2-14.8-9.2-36.1s5-31.4,9.2-36.1
				C517.4,332.8,519.1,332,520.9,332 M520.9,330c-2.4,0-4.7,1-6.3,2.8c-4.2,4.7-9.7,15.1-9.7,37.4s5.5,32.7,9.7,37.4
				c1.6,1.8,3.9,2.8,6.3,2.8c0.8,0,1.7-0.1,2.5-0.4c15.9-5,26.4-9.9,28-10.6c8.3-1.8,17.6-7.1,17.6-7.1c5.7-3.2,8.3-11.1,9.4-16.5
				c0.8-3.6,0.8-7.4,0-11.1c-1.2-5.4-3.8-13.4-9.4-16.5c0,0-9.3-5.4-17.6-7.1c-1.6-0.8-12.1-5.7-28-10.6
				C522.6,330.1,521.8,330,520.9,330L520.9,330z"/>
		</g>
	</g>
	<g>
		<path class="st21" d="M853.1,420.4c-48.7,0-91.3-19.2-96-21.4c-0.4-0.2-0.9-0.4-1.4-0.5c-7.9-1.8-16.6-6.8-16.7-6.9
			c-7.6-4.2-9.4-18-9.7-20.7c0-0.3,0-0.7,0-1c0.3-2.7,2.1-16.5,9.7-20.7c0.1-0.1,8.8-5.1,16.7-6.9c0.5-0.1,0.9-0.3,1.4-0.5
			c4.7-2.2,47.3-21.4,96-21.4c53.5,0,96.8,10.4,101.5,11.6c0.1,0,0.2,0.1,0.3,0.1c1.1,0.4,2.2,0.7,3.4,1.1c7.5,2.3,16.8,5.1,21.5,17
			c1,2.6,3.7,4.4,6.6,4.4h26.1c3.9,0,7-3.1,7-7v-5.4c0-2.8,2.2-5,5-5h56.4c2.8,0,5,2.2,5,5v56.4c0,2.8-2.2,5-5,5h-56.4
			c-2.8,0-5-2.2-5-5v-5.4c0-3.9-3.1-7-7-7h-26c-2.9,0-5.6,1.8-6.6,4.4c-4.7,12-14.1,14.8-21.6,17.1c-1.2,0.3-2.3,0.7-3.3,1
			c-0.2,0.1-0.4,0.1-0.6,0.2C948.6,410,895.9,420.4,853.1,420.4z"/>
		<path class="st22" d="M853.1,321.4c53.4,0,96.5,10.4,101.3,11.5c0.1,0,0.2,0,0.3,0.1c1.1,0.4,2.3,0.7,3.5,1.1
			c7.7,2.3,16.4,4.9,20.9,16.4c1.2,3,4.2,5,7.5,5h26.1c4.4,0,8-3.6,8-8v-5.4c0-2.2,1.8-4,4-4h56.4c2.2,0,4,1.8,4,4v56.5
			c0,2.2-1.8,4-4,4h-56.4c-2.2,0-4-1.8-4-4v-5.4c0-4.4-3.6-8-8-8h-26c-3.3,0-6.3,2-7.5,5.1c-4.5,11.5-13.2,14.2-20.9,16.5
			c-1.2,0.4-2.3,0.7-3.3,1c-0.2,0.1-0.3,0.1-0.4,0.1c-5.9,1.2-58.5,11.6-101.2,11.6c-48.5,0-90.9-19.2-95.6-21.3
			c-0.5-0.2-1-0.4-1.6-0.5c-7.7-1.8-16.3-6.7-16.5-6.8c-7.2-4-8.9-17.3-9.2-19.9c0-0.3,0-0.5,0-0.8c0.2-1.5,0.7-5.6,2.1-9.8
			c1.7-5,4.2-8.5,7.1-10.2c0.1,0,8.7-5,16.4-6.8c0.6-0.1,1.1-0.3,1.6-0.5C762.2,340.6,804.6,321.4,853.1,321.4 M853.1,319.4
			c-48.5,0-90.3,18.7-96.4,21.5c-0.4,0.2-0.8,0.3-1.2,0.4c-8.1,1.9-17,7-17,7c-8,4.4-9.9,18.4-10.2,21.5c0,0.4,0,0.8,0,1.2
			c0.3,3.1,2.2,17,10.2,21.5c0,0,8.8,5.1,17,7c0.4,0.1,0.8,0.2,1.2,0.4c6.1,2.9,47.9,21.5,96.4,21.5c43.2,0,96.8-10.6,101.6-11.6
			c0.2,0,0.5-0.1,0.7-0.2c8.1-2.7,19.9-4.4,25.5-18.7c0.9-2.3,3.2-3.8,5.7-3.8h26c3.3,0,6,2.7,6,6v5.4c0,3.3,2.7,6,6,6h56.4
			c3.3,0,6-2.7,6-6v-56.4c0-3.3-2.7-6-6-6h-56.4c-3.3,0-6,2.7-6,6v5.4c0,3.3-2.7,6-6,6h-26.1c-2.5,0-4.8-1.5-5.7-3.8
			c-5.7-14.3-17.5-15.9-25.6-18.7c-0.1,0-0.3-0.1-0.4-0.1C951.4,330.2,907.2,319.4,853.1,319.4L853.1,319.4z"/>
	</g>
	<g>
		<path class="st22" d="M644.8,404.4c43.5,0,74.8,8.7,107.9,17.8l2.8,0.8c31.7,8.8,72.5,15.9,99.3,17.2c3.4,0.2,6.1,3,6.1,6.4V469
			v14.4c0,2.2-1.8,4-4,4H846c-1.1,0-2,0.9-2,2v16c0,1.1,0.9,2,2,2h10.9c2.2,0,4,1.8,4,4v34.4c-29.7,0.6-60.1,0.9-90.2,0.9
			c-130.7,0-224.6-5.8-238.8-6.7v-21.2c0-2.2,1.8-4,4-4h9.9c4.4,0,8-3.6,8-8v-27.6c0-2.2,1.8-4,4-4h49.3c4.4,0,8-3.6,8-8V457
			c0-4.4-3.6-8-8-8h-49.3c-2.2,0-4-1.8-4-4v-20.7c0-1.6,1-3.1,2.5-3.7c11-4.6,40.9-15.3,80.2-16.2
			C639.3,404.4,642.1,404.4,644.8,404.4 M644.8,402.4c-2.7,0-5.5,0-8.3,0.1c-40.1,1-70.7,12.2-80.9,16.4c-2.2,0.9-3.7,3.1-3.7,5.5
			v20.7c0,3.3,2.7,6,6,6h49.3c3.3,0,6,2.7,6,6v10.2c0,3.3-2.7,6-6,6h-49.3c-3.3,0-6,2.7-6,6v27.6c0,3.3-2.7,6-6,6H536
			c-3.3,0-6,2.7-6,6V542c0,0,97.7,6.8,240.8,6.8c29,0,59.9-0.3,92.2-1v-36.3c0-3.3-2.7-6-6-6h-10.9v-16H857c3.3,0,6-2.7,6-6v-14.4
			v-22.4c0-4.5-3.5-8.2-8-8.4c-25.1-1.3-65.9-8-98.9-17.2C721.4,411.5,689.8,402.4,644.8,402.4L644.8,402.4z"/>
	</g>
	<line class="st25" x1="335.2" y1="207.8" x2="335.2" y2="314.4"/>
	<line class="st25" x1="433" y1="197.2" x2="433" y2="299.9"/>
	<g>
		<path class="st22" d="M517.4,192.5v105.9c0,3.5-2.9,6.4-6.4,6.4c-0.5,0-0.9-0.1-1.4-0.1c-20.3-4.4-42-6.7-64.5-6.7
			c-75.5,0-140.3,25.3-152.5,30.4c-0.8,0.3-1.6,0.5-2.5,0.5h-42.5c-6.7,0-12.5-4.5-14.3-10.9l-19.4-70.2c-0.7-2.5,0.2-5.1,2.2-6.7
			c8.5-6.6,38.1-23.3,130.3-34.4C347.6,206.5,439.6,195,517.4,192.5 M519.4,190.4c-79.2,2.4-173,14.3-173,14.3
			c-91,10.9-121.9,27.4-131.3,34.8c-2.7,2.1-3.8,5.6-2.9,8.8l19.4,70.2c2,7.3,8.7,12.4,16.2,12.4h42.5c1.1,0,2.2-0.2,3.2-0.6
			c10.6-4.4,75.2-30.3,151.7-30.3c20.7,0,42.4,1.9,64,6.6c0.6,0.1,1.2,0.2,1.8,0.2c4.5,0,8.4-3.7,8.4-8.4V190.4L519.4,190.4z"/>
	</g>
	<line class="st25" x1="653.8" y1="187.3" x2="653.8" y2="338"/>
	<line class="st25" x1="554.8" y1="259.4" x2="653.8" y2="259.4"/>
	<line class="st25" x1="755.8" y1="185.5" x2="755.8" y2="319.4"/>
	<line class="st25" x1="704.8" y1="187.1" x2="704.8" y2="333.2"/>
	<path class="st25" d="M863.8,186v107.8c0,4.5-3.5,8.2-8,8.4c-24.9,1.3-65.4,8-98.2,17.2C721,329.6,688,339.2,638.8,338
		c-37.9-0.9-67.3-11.1-78.7-15.7c-3.2-1.3-5.3-4.4-5.3-7.8v-125"/>
	<path class="st25" d="M1193,192.1v59.4c0,3.3-2.7,6-6,6h-58.8"/>
	<path class="st25" d="M1241,193.9v48c0,3.3-2.7,6-6,6h-41.4"/>
	<line class="st25" x1="741.4" y1="418.2" x2="741.4" y2="548.2"/>
	<path class="st25" d="M876.4,545.8v-99.3c0-4.6,3.7-8.4,8.3-8.4c10.6-0.1,31.3-0.4,63.1-1.2c0,0,15.3-1.6,24-8.4
		c8.4-6.5,25.2-10.4,38.5-11.3c4.8-0.3,8.9,3.5,8.9,8.4v117.5"/>
	<path class="st25" d="M941.8,437v12c0,4.6,3.8,8.4,8.4,8.4h69"/>
	<path class="st25" d="M968.2,458v29.4c0,4.6,3.8,8.4,8.4,8.4h42.6"/>
	<g>
		<path class="st21" d="M1074.4,508.6c0-2.8,2.2-5,5-5h38c2.8,0,5,2.2,5,5v31l-48,1.9V508.6z"/>
		<path class="st22" d="M1117.4,504.6c2.2,0,4,1.8,4,4v30.1l-46,1.8v-31.9c0-2.2,1.8-4,4-4H1117.4 M1117.4,502.6h-38
			c-3.3,0-6,2.7-6,6v34l50-2v-32C1123.4,505.3,1120.7,502.6,1117.4,502.6L1117.4,502.6z"/>
	</g>
	<g id="magf_x5F_111_1">
		<path class="st22" d="M877.3,187.6c48.1,0.6,95.2,1.3,140,2.1v129.5c0,1.3-1,2.3-2.3,2.4c-16.5,0-34.2-5.8-41.1-11.3
			c-9.5-7.4-25.6-9.2-26.3-9.3l0,0l0,0h-0.1l0,0l0,0c-33.3-0.8-54.9-1.1-64.7-1.2c-2.9,0-5.3-2.4-5.3-5.4V187.6 M875.3,185.6v108.8
			c0,4,3.3,7.4,7.3,7.4c9.9,0.1,31.4,0.4,64.7,1.2h0.1c0.7,0.1,16.1,1.8,25.2,8.9c7.6,5.9,25.9,11.7,42.4,11.7
			c2.4-0.1,4.2-2,4.2-4.4V187.8C965.2,186.8,914.9,186.1,875.3,185.6L875.3,185.6z"/>
	</g>
	<g id="Elevator_11">
		<g>
			<g>
				<path class="st24" d="M645.4,390.2c-2.8,0-5-2.2-5-5v-30c0-2.8,2.2-5,5-5h30c2.8,0,5,2.2,5,5v30c0,2.8-2.2,5-5,5H645.4z"/>
				<path class="st22" d="M675.4,351.2c2.2,0,4,1.8,4,4v30c0,2.2-1.8,4-4,4h-30c-2.2,0-4-1.8-4-4v-30c0-2.2,1.8-4,4-4H675.4
					 M675.4,349.2h-30c-3.3,0-6,2.7-6,6v30c0,3.3,2.7,6,6,6h30c3.3,0,6-2.7,6-6v-30C681.4,351.9,678.7,349.2,675.4,349.2
					L675.4,349.2z"/>
			</g>
		</g>
	</g>
	<g id="Elevator_10">
		<g>
			<g>
				<path class="st24" d="M1168.4,536.6c-2.8,0-5-2.2-5-5v-30c0-2.8,2.2-5,5-5h30c2.8,0,5,2.2,5,5v30c0,2.8-2.2,5-5,5H1168.4z"/>
				<path class="st22" d="M1198.4,497.6c2.2,0,4,1.8,4,4v30c0,2.2-1.8,4-4,4h-30c-2.2,0-4-1.8-4-4v-30c0-2.2,1.8-4,4-4L1198.4,497.6
					 M1198.4,495.6h-30c-3.3,0-6,2.7-6,6v30c0,3.3,2.7,6,6,6h30c3.3,0,6-2.7,6-6v-30C1204.4,498.3,1201.7,495.6,1198.4,495.6
					L1198.4,495.6z"/>
			</g>
		</g>
	</g>
	<g id="Elevator_2">
		<g>
			<g>
				<path class="st24" d="M187.4,429.6c-2.8,0-5-2.2-5-5v-30c0-2.8,2.2-5,5-5h30c2.8,0,5,2.2,5,5v30c0,2.8-2.2,5-5,5H187.4z"/>
				<path class="st22" d="M217.4,390.6c2.2,0,4,1.8,4,4v30c0,2.2-1.8,4-4,4h-30c-2.2,0-4-1.8-4-4v-30c0-2.2,1.8-4,4-4H217.4
					 M217.4,388.6h-30c-3.3,0-6,2.7-6,6v30c0,3.3,2.7,6,6,6h30c3.3,0,6-2.7,6-6v-30C223.4,391.3,220.7,388.6,217.4,388.6
					L217.4,388.6z"/>
			</g>
		</g>
	</g>
	<g id="Stairs_3">
		<g>
			<path class="st24" d="M187.4,389.6c-2.8,0-5-2.2-5-5v-30c0-2.8,2.2-5,5-5h30c2.8,0,5,2.2,5,5v30c0,2.8-2.2,5-5,5H187.4z"/>
			<path class="st22" d="M217.4,350.6c2.2,0,4,1.8,4,4v30c0,2.2-1.8,4-4,4h-30c-2.2,0-4-1.8-4-4v-30c0-2.2,1.8-4,4-4H217.4
				 M217.4,348.6h-30c-3.3,0-6,2.7-6,6v30c0,3.3,2.7,6,6,6h30c3.3,0,6-2.7,6-6v-30C223.4,351.3,220.7,348.6,217.4,348.6L217.4,348.6
				z"/>
		</g>
	</g>
	<g id="Stairs_2">
		<g>
			<path class="st24" d="M605.4,390.2c-2.8,0-5-2.2-5-5v-30c0-2.8,2.2-5,5-5h30c2.8,0,5,2.2,5,5v30c0,2.8-2.2,5-5,5H605.4z"/>
			<path class="st22" d="M635.4,351.2c2.2,0,4,1.8,4,4v30c0,2.2-1.8,4-4,4h-30c-2.2,0-4-1.8-4-4v-30c0-2.2,1.8-4,4-4H635.4
				 M635.4,349.2h-30c-3.3,0-6,2.7-6,6v30c0,3.3,2.7,6,6,6h30c3.3,0,6-2.7,6-6v-30C641.4,351.9,638.7,349.2,635.4,349.2L635.4,349.2
				z"/>
		</g>
	</g>
	<g id="Stairs_1">
		<g>
			<path class="st24" d="M1118.8,390.3c-2.8,0-5-2.2-5-5v-30c0-2.8,2.2-5,5-5h30c2.8,0,5,2.2,5,5v30c0,2.8-2.2,5-5,5H1118.8z"/>
			<path class="st22" d="M1148.8,351.3c2.2,0,4,1.8,4,4v30c0,2.2-1.8,4-4,4h-30c-2.2,0-4-1.8-4-4v-30c0-2.2,1.8-4,4-4H1148.8
				 M1148.8,349.3h-30c-3.3,0-6,2.7-6,6v30c0,3.3,2.7,6,6,6h30c3.3,0,6-2.7,6-6v-30C1154.8,352,1152.1,349.3,1148.8,349.3
				L1148.8,349.3z"/>
		</g>
	</g>
	<a id="shss122" xlink:href="#" >
		<g>
			<path class="st21" d="M744.2,546.4c1.3,0,2.5,0,3.8,0c1.5,0,3.1,0,4.6,0c1.2,0,2.5,0,3.7,0c1.5,0,3,0,4.5,0c1.3,0,2.6,0,3.9,0
				c1.5,0,3,0,4.5,0c1.3,0,2.6,0,3.9,0c2.5,0,5,0,7.6,0c0.6,0,1.2,0,1.8,0c2,0,4,0,6,0c0.9,0,1.8,0,2.7,0c1.8,0,3.6,0,5.4,0
				c0.8,0,1.7,0,2.5,0c2.6,0,5.1,0,7.7,0c0.3,0,0.7,0,1,0c2.3,0,4.5,0,6.8,0c0.8,0,1.7,0,2.5,0c1.8,0,3.7,0,5.5,0c0.9,0,1.7,0,2.6,0
				c2.2,0,4.5,0,6.7-0.1c0.4,0,0.7,0,1.1,0c2.5,0,5.1,0,7.6-0.1c0.9,0,1.7,0,2.6,0c1.8,0,3.6,0,5.4-0.1c0.9,0,1.8,0,2.7,0
				c1.9,0,3.9,0,5.8-0.1c0.4,0,0.7,0,1.1,0c1,0,2,0,2.9-0.1v-34.4c0-2.2-1.8-4-4-4h-10.9c-1.1,0-2-0.9-2-2v-16c0-1.1,0.9-2,2-2h10.9
				c2.2,0,4-1.8,4-4v-14.4v-22.4c0-3.4-2.7-6.2-6.1-6.4c-26.8-1.4-67.7-8.5-99.3-17.2l-2.8-0.8c-3.5-1-6.9-1.9-10.3-2.8v127
				C743,546.4,743.6,546.4,744.2,546.4z"/>
		</g>
	</a>
	<a id="shss113" xlink:href="#" >
		<g>
			<path class="st21" d="M885.1,545.5c2.5,0,5-0.1,7.4-0.1c0.8,0,1.5,0,2.3,0c1.8,0,3.6-0.1,5.4-0.1c1,0,2,0,3-0.1
				c1.6,0,3.3-0.1,4.9-0.1c1,0,1.9,0,2.9-0.1c2.5,0,4.9-0.1,7.4-0.1c0.6,0,1.1,0,1.7,0c2,0,3.9-0.1,5.9-0.1c1,0,2,0,3-0.1
				c1.6,0,3.2-0.1,4.8-0.1c1,0,2,0,3-0.1c1.8,0,3.7-0.1,5.5-0.1c0.9,0,1.9,0,2.8-0.1c2.1,0,4.3-0.1,6.4-0.1c1.1,0,2.1-0.1,3.2-0.1
				c1.4,0,2.9-0.1,4.3-0.1c1.1,0,2.2-0.1,3.4-0.1c1.6,0,3.1-0.1,4.7-0.1c0.9,0,1.9,0,2.8-0.1c2.3-0.1,4.6-0.1,6.9-0.2
				c1.1,0,2.2-0.1,3.3-0.1c0.5,0,1.1,0,1.6,0c12.1-0.3,24.2-0.7,36.5-1.1v-45.6h-41.6c-5.2,0-9.4-4.2-9.4-9.4v-29h-17
				c-5.2,0-9.4-4.2-9.4-9.4v-10.8c-28.5,0.7-47.1,0.9-56.1,1c-4,0-7.3,3.4-7.3,7.4v99.1c1.7,0,3.5-0.1,5.2-0.1
				C883.4,545.5,884.3,545.5,885.1,545.5z"/>
		</g>
	</a>
	<a id="shss115" xlink:href="#" >
		<g>
			<path class="st21" d="M539.5,540.4c1.6,0.1,3.1,0.2,4.7,0.3c1,0.1,1.9,0.1,2.9,0.2c1.4,0.1,2.9,0.2,4.3,0.2c1,0.1,2.1,0.1,3.2,0.2
				c1.4,0.1,2.8,0.2,4.1,0.2c1.1,0.1,2.1,0.1,3.2,0.2c1.4,0.1,2.8,0.1,4.2,0.2c1.1,0.1,2.1,0.1,3.2,0.2c1.4,0.1,2.8,0.1,4.3,0.2
				c1.1,0.1,2.1,0.1,3.2,0.1c1.4,0.1,2.9,0.1,4.4,0.2c1.1,0,2.1,0.1,3.2,0.1c1.5,0.1,3,0.1,4.4,0.2c1,0,2.1,0.1,3.1,0.1
				c1.5,0.1,3,0.1,4.6,0.2c1,0,2,0.1,3.1,0.1c1.6,0.1,3.1,0.1,4.7,0.2c1,0,2,0.1,3,0.1c1.6,0.1,3.2,0.1,4.8,0.2c1,0,1.9,0.1,2.9,0.1
				c1.7,0.1,3.4,0.1,5.1,0.2c0.9,0,1.8,0.1,2.7,0.1c1.8,0.1,3.6,0.1,5.4,0.2c0.8,0,1.6,0.1,2.4,0.1c1.9,0.1,3.9,0.1,5.8,0.2
				c0.7,0,1.4,0,2.1,0.1c2.3,0.1,4.6,0.1,6.8,0.2c0.4,0,0.7,0,1.1,0c8.1,0.2,16.2,0.4,24.4,0.6c0.4,0,0.9,0,1.3,0
				c2.2,0,4.5,0.1,6.7,0.1c0.7,0,1.5,0,2.2,0c1.9,0,3.9,0.1,5.8,0.1c0.9,0,1.8,0,2.7,0c1.8,0,3.6,0.1,5.4,0.1c1,0,2,0,3,0
				c1.7,0,3.4,0,5.1,0.1c1.1,0,2.1,0,3.2,0c1.7,0,3.4,0,5,0.1c1.1,0,2.2,0,3.3,0c1.6,0,3.3,0,4.9,0.1c1.1,0,2.3,0,3.4,0
				c1.6,0,3.2,0,4.8,0c1.2,0,2.4,0,3.6,0c1.5,0,3.1,0,4.6,0c1.2,0,2.5,0,3.7,0c0.3,0,0.5,0,0.8,0V418.8
				c-28.8-7.8-57.5-14.5-95.6-14.5c-2.7,0-5.5,0-8.3,0.1c-39.3,1-69.1,11.7-80.2,16.2c-1.5,0.6-2.5,2.1-2.5,3.7V445c0,2.2,1.8,4,4,4
				H607c4.4,0,8,3.6,8,8v10.2c0,4.4-3.6,8-8,8h-49.3c-2.2,0-4,1.8-4,4v27.6c0,4.4-3.6,8-8,8h-9.9c-2.2,0-4,1.8-4,4v21
				c1.7,0.1,3.4,0.2,5.1,0.3C537.9,540.3,538.7,540.4,539.5,540.4z"/>
		</g>
	</a>
	<a id="shss101" xlink:href="#" >
		<g>
			<path class="st21" d="M325.6,209.4c-32.2,4.8-58,10.4-77.2,16.6c-8.9,2.9-15.6,5.7-20.7,8.2c-4.6,2.3-8.5,4.7-11.6,7.1
				c-0.1,0.1-0.2,0.2-0.3,0.3c-1.5,1.6-2.1,3.9-1.5,6.1l19.4,70.2c1.8,6.4,7.7,10.9,14.3,10.9h42.5c0.8,0,1.7-0.2,2.5-0.5
				c5.2-2.2,20.2-8.1,41.4-14.1v-106C331.2,208.6,328.4,209,325.6,209.4z"/>
		</g>
	</a>
	<a id="shss103" xlink:href="#" >
		<g>
			<path class="st21" d="M517.2,192.5c-0.6,0-1.2,0-1.7,0.1c-29.1,1.5-56.3,3.2-81.5,5.1v100.4c3.7-0.1,7.5-0.2,11.2-0.2
				c22.5,0,44.2,2.2,64.5,6.7c0.5,0.1,0.9,0.1,1.4,0.1c3.5,0,6.4-2.9,6.4-6.4V196.4c-0.1-0.2-0.2-0.4-0.2-0.6L517.2,192.5
				L517.2,192.5z"/>
		</g>
	</a>
	<a id="magf121" xlink:href="#" >
		<g>
			<path class="st21" d="M969.2,487.4c0,4.1,3.3,7.4,7.4,7.4h41.6v-36.4h-49V487.4z"/>
		</g>
	</a>
	<a id="shss112" xlink:href="#" >
		<g>
			<path class="st21" d="M950.2,456.4h68v-30.7c0-2.1-0.8-4-2.3-5.4s-3.5-2.1-5.5-2c-12.9,0.9-29.6,4.6-37.9,11.1
				c-8.8,6.9-23.9,8.5-24.5,8.6c-1.7,0-3.4,0.1-5.1,0.1V449C942.8,453.1,946.1,456.4,950.2,456.4z"/>
		</g>
	</a>
	<a id="magf112" xlink:href="#" >
		<g>
			<path class="st21" d="M1128.2,257.5l-0.4-65.9c-18-0.4-60.2-1.7-79.4-2.1v68"/>
		</g>
	</a>
	<a id="magf113" xlink:href="#" >
		<g>
			<path class="st21" d="M1187,256.5c2.8,0,5-2.2,5-5v-58.3c-20.5-0.5-41.3-1-62.2-1.5v64.7h57.2V256.5z"/>
		</g>
	</a>
	<a id="shss111" xlink:href="#" >
		<g>
			<path class="st21" d="M882.6,299.8c9.9,0.1,31.5,0.4,64.7,1.2l0,0l0,0h0.1l0,0l0,0c0.7,0.1,16.7,1.9,26.3,9.3
				c6.9,5.4,24.6,11.2,41.1,11.3c1.3-0.1,2.3-1.1,2.3-2.4V189.8c-44.8-0.8-91.9-1.5-140-2.1v106.8
				C877.3,297.4,879.7,299.8,882.6,299.8z"/>
		</g>
	</a>
	<path class="st21" d="M1300.1,249.8l1.4-29.7c-7.2,0.2-31.7-0.3-38.7-0.2v20.9v4.6c0,1.9,2.2,3.4,5,3.4L1300.1,249.8z"/>
	<a id="magf114" xlink:href="#" >
		<g>
			<path class="st21" d="M1235,246.9c2.8,0,5-2.2,5-5v-47.3c-15-0.4-30.4-0.9-46-1.3v53.6H1235L1235,246.9z"/>
		</g>
	</a>
	<a id="shss102" xlink:href="#" >
		<g>
			<path class="st21" d="M346.7,206.6c-3.6,0.4-7.1,0.9-10.5,1.3v105.7c25.2-7,58.8-14.1,95.8-15.5V197.8
				C384.7,201.9,347.2,206.6,346.7,206.6z"/>
		</g>
	</a>
	<path class="st21" d="M555.8,258.4h97v-70.5c-34.2,0.7-66.5,1.7-97,2.9v5.1V258.4z"/>
	<a id="shss108" xlink:href="#" >
		<g>
			<path class="st21" d="M754.5,319.2l0.3-0.1V186.5c-16.7,0.1-33,0.3-49,0.4v144.4C722.7,328.1,738.4,323.7,754.5,319.2z"/>
		</g>
	</a>
	<a id="shss109" xlink:href="#" >
		<g>
			<path class="st21" d="M757.3,318.4c31.4-8.7,71.9-15.8,98.4-17.2c3.9-0.2,7-3.5,7-7.4V187.2c-40.8-0.5-66.7-0.7-67.8-0.8
				c-12.9,0-25.7,0.1-38.2,0.1v132.1L757.3,318.4z"/>
		</g>
	</a>
	<a id="shss107" xlink:href="#" >
		<g>
			<path class="st21" d="M703.8,331.8V187c-16.7,0.2-33.1,0.5-49,0.8V337C672.9,336.6,688.8,334.6,703.8,331.8z"/>
		</g>
	</a>
	<a id="shss121" xlink:href="#" >
		<g>
			<path class="st21" d="M520.9,332c-1.8,0-3.6,0.8-4.8,2.1c-4.2,4.7-9.2,14.8-9.2,36.1c0,21.3,5,31.4,9.2,36.1
				c1.2,1.4,3,2.1,4.8,2.1c0.6,0,1.3-0.1,1.9-0.3c14.6-4.6,24.5-9,27.3-10.3c0.2-0.1,0.3-0.2,0.5-0.2l0,0l0.2-0.1h0.2
				c7.9-1.7,16.9-6.9,17-6.9c0.2-0.1,0.3-0.2,0.4-0.3c0.2-0.1,0.3-0.2,0.5-0.3c1.5-1.1,2.7-2.5,3.7-4.2c0-0.1,0.1-0.1,0.1-0.2
				c0.7-1.2,1.3-2.5,1.9-3.9c0.1-0.1,0.1-0.3,0.2-0.4c0-0.1,0.1-0.2,0.1-0.3c0.1-0.2,0.2-0.5,0.3-0.7c0.1-0.3,0.2-0.7,0.3-1v-0.1
				c0.4-1.4,0.8-2.7,1-3.8c0.7-3.3,0.7-6.9,0-10.2c-0.2-0.8-0.4-1.8-0.7-2.8v-0.1c-0.1-0.3-0.2-0.6-0.3-0.9l0,0
				c-0.1-0.4-0.3-0.9-0.4-1.3c-0.2-0.4-0.3-0.9-0.5-1.4c-0.5-1.3-1.1-2.6-1.8-3.7l0,0c-0.2-0.3-0.4-0.7-0.6-1
				c-0.4-0.5-0.8-1-1.2-1.5c-0.1-0.1-0.2-0.2-0.3-0.3c-0.8-0.8-1.6-1.6-2.6-2.1c-0.1-0.1-9.2-5.3-17-6.9h-0.2l-0.2-0.1
				c-0.1-0.1-0.3-0.1-0.5-0.2c-2.8-1.3-12.7-5.8-27.3-10.3C522.2,332.1,521.6,332,520.9,332z"/>
		</g>
	</a>
	<a id="magf119" xlink:href="#" >
		<g>
			<path class="st21" d="M1020.6,347.6v-5.4c0-2.2,1.8-4,4-4h56.4c2.2,0,4,1.8,4,4v56.4c0,2.2-1.8,4-4,4h-56.4c-2.2,0-4-1.8-4-4v-5.4
				V347.6L1020.6,347.6z"/>
		</g>
	</a>
	<a id="magf118" xlink:href="#" >
		<g>
			<path class="st21" d="M1108.7,539.2l12.7-0.5v-30.1c0-2.2-1.8-4-4-4h-38c-2.2,0-4,1.8-4,4v31.8c1.3,0,2.6-0.1,3.9-0.1
				C1089.3,539.9,1099.1,539.5,1108.7,539.2z"/>
		</g>
	</a>
	<a id="shss110" xlink:href="#" >
		<g>
			<g>
				<path class="st24" d="M828.8,226.1c-2.8,0-5-2.2-5-5v-30c0-2.8,2.2-5,5-5h30c2.8,0,5,2.2,5,5v30c0,2.8-2.2,5-5,5H828.8z"/>
				<path class="st22" d="M858.8,187.1c2.2,0,4,1.8,4,4v30c0,2.2-1.8,4-4,4h-30c-2.2,0-4-1.8-4-4v-30c0-2.2,1.8-4,4-4H858.8
					 M858.8,185.1h-30c-3.3,0-6,2.7-6,6v30c0,3.3,2.7,6,6,6h30c3.3,0,6-2.7,6-6v-30C864.8,187.8,862.1,185.1,858.8,185.1
					L858.8,185.1z"/>
			</g>
		</g>
	</a>
	<a id="shss104" xlink:href="#" >
		<g>
			<g>
				<path class="st24" d="M581.8,259.4c-2.8,0-5-2.2-5-5v-30c0-2.8,2.2-5,5-5h30c2.8,0,5,2.2,5,5v30c0,2.8-2.2,5-5,5H581.8z"/>
				<path class="st22" d="M611.8,220.4c2.2,0,4,1.8,4,4v30c0,2.2-1.8,4-4,4h-30c-2.2,0-4-1.8-4-4v-30c0-2.2,1.8-4,4-4H611.8
					 M611.8,218.4h-30c-3.3,0-6,2.7-6,6v30c0,3.3,2.7,6,6,6h30c3.3,0,6-2.7,6-6v-30C617.8,221.1,615.1,218.4,611.8,218.4
					L611.8,218.4z"/>
			</g>
		</g>
	</a>
	<a id="shss116" xlink:href="#" >
		<g>
			<g>
				<path class="st24" d="M580,514.3c-2.8,0-5-2.2-5-5v-30c0-2.8,2.2-5,5-5h30c2.8,0,5,2.2,5,5v30c0,2.8-2.2,5-5,5H580z"/>
				<path class="st22" d="M610,475.3c2.2,0,4,1.8,4,4v30c0,2.2-1.8,4-4,4h-30c-2.2,0-4-1.8-4-4v-30c0-2.2,1.8-4,4-4H610 M610,473.3
					h-30c-3.3,0-6,2.7-6,6v30c0,3.3,2.7,6,6,6h30c3.3,0,6-2.7,6-6v-30C616,476,613.3,473.3,610,473.3L610,473.3z"/>
			</g>
		</g>
	</a>
	<a id="shss114" xlink:href="#" >
		<g>
			<g>
				<path class="st24" d="M827,546.4c-2.8,0-5-2.2-5-5v-30c0-2.8,2.2-5,5-5h30c2.8,0,5,2.2,5,5v30c0,2.8-2.2,5-5,5H827z"/>
				<path class="st22" d="M857,507.4c2.2,0,4,1.8,4,4v30c0,2.2-1.8,4-4,4h-30c-2.2,0-4-1.8-4-4v-30c0-2.2,1.8-4,4-4L857,507.4
					 M857,505.4h-30c-3.3,0-6,2.7-6,6v30c0,3.3,2.7,6,6,6h30c3.3,0,6-2.7,6-6v-30C863,508.1,860.3,505.4,857,505.4L857,505.4z"/>
			</g>
		</g>
	</a>
	<a id="shss120" xlink:href="#" >
		<g>
			<g>
				<g>
					<path class="st24" d="M463.6,393.4c-2.8,0-5-2.2-5-5v-30c0-2.8,2.2-5,5-5h30c2.8,0,5,2.2,5,5v30c0,2.8-2.2,5-5,5H463.6z"/>
					<path class="st22" d="M493.6,354.4c2.2,0,4,1.8,4,4v30c0,2.2-1.8,4-4,4h-30c-2.2,0-4-1.8-4-4v-30c0-2.2,1.8-4,4-4H493.6
						 M493.6,352.4h-30c-3.3,0-6,2.7-6,6v30c0,3.3,2.7,6,6,6h30c3.3,0,6-2.7,6-6v-30C499.6,355.1,496.9,352.4,493.6,352.4
						L493.6,352.4z"/>
				</g>
			</g>
		</g>
	</a>
	<a id="magf122" xlink:href="#" >
		<g>
			<g>
				<g>
					<path class="st24" d="M984.2,543.3c-2.8,0-5-2.2-5-5v-30c0-2.8,2.2-5,5-5h30c2.8,0,5,2.2,5,5v30c0,2.8-2.2,5-5,5H984.2z"/>
					<path class="st22" d="M1014.2,504.3c2.2,0,4,1.8,4,4v30c0,2.2-1.8,4-4,4h-30c-2.2,0-4-1.8-4-4v-30c0-2.2,1.8-4,4-4H1014.2
						 M1014.2,502.3h-30c-3.3,0-6,2.7-6,6v30c0,3.3,2.7,6,6,6h30c3.3,0,6-2.7,6-6v-30C1020.2,505,1017.5,502.3,1014.2,502.3
						L1014.2,502.3z"/>
				</g>
			</g>
		</g>
	</a>
	<a id="shss105" xlink:href="#" >
		<g>
			<g>
				<g>
					<path class="st24" d="M559.8,317.2c-2.8,0-5-2.2-5-5v-30c0-2.8,2.2-5,5-5h30c2.8,0,5,2.2,5,5v30c0,2.8-2.2,5-5,5H559.8z"/>
					<path class="st22" d="M589.8,278.2c2.2,0,4,1.8,4,4v30c0,2.2-1.8,4-4,4h-30c-2.2,0-4-1.8-4-4v-30c0-2.2,1.8-4,4-4H589.8
						 M589.8,276.2h-30c-3.3,0-6,2.7-6,6v30c0,3.3,2.7,6,6,6h30c3.3,0,6-2.7,6-6v-30C595.8,278.9,593.1,276.2,589.8,276.2
						L589.8,276.2z"/>
				</g>
			</g>
		</g>
	</a>
	<g id="Exit_14">
		<g>
			<path class="st24" d="M558,514.3c-2.8,0-5-2.2-5-5v-30c0-2.8,2.2-5,5-5h12c2.8,0,5,2.2,5,5v30c0,2.8-2.2,5-5,5H558z"/>
			<path class="st22" d="M570,475.3c2.2,0,4,1.8,4,4v30c0,2.2-1.8,4-4,4h-12c-2.2,0-4-1.8-4-4v-30c0-2.2,1.8-4,4-4H570 M570,473.3
				h-12c-3.3,0-6,2.7-6,6v30c0,3.3,2.7,6,6,6h12c3.3,0,6-2.7,6-6v-30C576,476,573.3,473.3,570,473.3L570,473.3z"/>
		</g>
	</g>
	<g id="Exit_13">
		<g>
			<path class="st24" d="M559.8,259.4c-2.8,0-5-2.2-5-5v-30c0-2.8,2.2-5,5-5h12c2.8,0,5,2.2,5,5v30c0,2.8-2.2,5-5,5H559.8z"/>
			<path class="st22" d="M571.8,220.4c2.2,0,4,1.8,4,4v30c0,2.2-1.8,4-4,4h-12c-2.2,0-4-1.8-4-4v-30c0-2.2,1.8-4,4-4H571.8
				 M571.8,218.4h-12c-3.3,0-6,2.7-6,6v30c0,3.3,2.7,6,6,6h12c3.3,0,6-2.7,6-6v-30C577.8,221.1,575.1,218.4,571.8,218.4L571.8,218.4
				z"/>
		</g>
	</g>
	<g id="Exit_12">
		<g>
			<path class="st24" d="M846.8,266.1c-2.8,0-5-2.2-5-5v-30c0-2.8,2.2-5,5-5h12c2.8,0,5,2.2,5,5v30c0,2.8-2.2,5-5,5H846.8z"/>
			<path class="st22" d="M858.8,227.1c2.2,0,4,1.8,4,4v30c0,2.2-1.8,4-4,4h-12c-2.2,0-4-1.8-4-4v-30c0-2.2,1.8-4,4-4H858.8
				 M858.8,225.1h-12c-3.3,0-6,2.7-6,6v30c0,3.3,2.7,6,6,6h12c3.3,0,6-2.7,6-6v-30C864.8,227.8,862.1,225.1,858.8,225.1L858.8,225.1
				z"/>
		</g>
	</g>
	<g id="Exit_11">
		<g>
			<path class="st24" d="M1001.3,270.4c-2.8,0-5-2.2-5-5v-30c0-2.8,2.2-5,5-5h12c2.8,0,5,2.2,5,5v30c0,2.8-2.2,5-5,5H1001.3z"/>
			<path class="st22" d="M1013.3,231.4c2.2,0,4,1.8,4,4v30c0,1.1-0.4,2.1-1.2,2.8c-0.8,0.8-1.8,1.2-2.8,1.2h-12c-2.2,0-4-1.8-4-4v-30
				c0-2.2,1.8-4,4-4H1013.3 M1013.3,229.4h-12c-3.3,0-6,2.7-6,6v30c0,3.3,2.7,6,6,6h12c3.3,0,6-2.7,6-6v-30
				C1019.3,232.1,1016.6,229.4,1013.3,229.4L1013.3,229.4z"/>
		</g>
	</g>
	<g id="Exit_10">
		<g>
			<path class="st24" d="M845,488.6c-2.8,0-5-2.2-5-5v-30c0-2.8,2.2-5,5-5h12c2.8,0,5,2.2,5,5v30c0,2.8-2.2,5-5,5H845z"/>
			<path class="st22" d="M857,449.6c2.2,0,4,1.8,4,4v30c0,2.2-1.8,4-4,4h-12c-2.2,0-4-1.8-4-4v-30c0-2.2,1.8-4,4-4H857 M857,447.6
				h-12c-3.3,0-6,2.7-6,6v30c0,3.3,2.7,6,6,6h12c3.3,0,6-2.7,6-6v-30C863,450.3,860.3,447.6,857,447.6L857,447.6z"/>
		</g>
	</g>
	<path class="st25" d="M1354.4,202.4v30c0,3.3-2.5,6-5.6,6h-23.1v-13.8h-24.8v-28.3"/>
	<rect x="1047.4" y="256.4" class="st22" width="80.8" height="2"/>
	<path class="st22" d="M1046.9,188.4v70h82.9v-68.7L1046.9,188.4z M1127.8,257.5h-79v-67l79,1.2V257.5z"/>
	<path class="st26" d="M1186.9,496.6"/>
	<path class="st26" d="M1101.9,503.6"/>
	<path class="st26" d="M166.4,552.6"/>
	<path class="st26" d="M166.4,552.6"/>
	<g id="XMLID_2_">
		<g>
			<path class="st21" d="M502.1,447v51.1c0,1.6-0.7,3.1-1.8,4.2c-1.1,1.1-2.6,1.8-4.2,1.8c-191-0.3-269-12.1-293.3-17
				c-4.3-0.9-6.3-6-3.6-9.5l50.2-66.5c2.4-1.8,4.4-2.6,6.6-2.6c1.2,0,2.5,0.2,4.1,0.7c21.7,7.6,98.3,32.1,184.1,32.1
				c15.6,0,31.5-0.8,47.4-2.7c0.4-0.1,0.8-0.1,1.2-0.1C497.9,438.5,502.1,442.3,502.1,447z M500,498.1V447c0-3.6-3.3-6.5-7.3-6.5
				c-0.3,0-0.7,0.1-1,0.1c-15.3,1.8-31.3,2.7-47.7,2.7c-86.1,0-163.2-24.6-184.8-32.2c-1.2-0.4-2.2-0.6-3.2-0.6
				c-1.7,0-3.3,0.6-5.2,2l-50.1,66.4c-0.8,1.1-1,2.5-0.5,3.8s1.5,2.2,2.9,2.5c24.7,5,102.7,16.7,292.9,16.9
				C498.2,502.1,500,500.3,500,498.1z"/>
			<path class="st21" d="M500,447v51.1c0,2.2-1.8,4-4,4c-190.2-0.2-268.2-11.9-292.9-16.9c-1.4-0.3-2.4-1.2-2.9-2.5s-0.3-2.7,0.5-3.8
				l50.1-66.4c1.9-1.4,3.5-2,5.2-2c1,0,2,0.2,3.2,0.6c21.6,7.6,98.7,32.2,184.8,32.2c16.4,0,32.4-0.9,47.7-2.7c0.3,0,0.7-0.1,1-0.1
				C496.7,440.5,500,443.4,500,447z"/>
		</g>
	</g>
	<g id="XMLID_1_">
		<g>
			<path class="st22" d="M502.1,447v51.1c0,1.6-0.7,3.1-1.8,4.2c-1.1,1.1-2.6,1.8-4.2,1.8c-191-0.3-269-12.1-293.3-17
				c-4.3-0.9-6.3-6-3.6-9.5l50.2-66.5c2.4-1.8,4.4-2.6,6.6-2.6c1.2,0,2.5,0.2,4.1,0.7c21.7,7.6,98.3,32.1,184.1,32.1
				c15.6,0,31.5-0.8,47.4-2.7c0.4-0.1,0.8-0.1,1.2-0.1C497.9,438.5,502.1,442.3,502.1,447z M500,498.1V447c0-3.6-3.3-6.5-7.3-6.5
				c-0.3,0-0.7,0.1-1,0.1c-15.3,1.8-31.3,2.7-47.7,2.7c-86.1,0-163.2-24.6-184.8-32.2c-1.2-0.4-2.2-0.6-3.2-0.6
				c-1.7,0-3.3,0.6-5.2,2l-50.1,66.4c-0.8,1.1-1,2.5-0.5,3.8s1.5,2.2,2.9,2.5c24.7,5,102.7,16.7,292.9,16.9
				C498.2,502.1,500,500.3,500,498.1z"/>
		</g>
	</g>
	<a id="magf116" xlink:href="#" >
		<g>
			<g>
				<g>
					<path class="st24" d="M1305.3,258.4c-2.8,0-5-2.2-5-5v-30c0-2.8,2.2-5,5-5h30c2.8,0,5,2.2,5,5v30c0,2.8-2.2,5-5,5H1305.3z"/>
					<path class="st22" d="M1335.3,219.4c2.2,0,4,1.8,4,4v30c0,2.2-1.8,4-4,4h-30c-2.2,0-4-1.8-4-4v-30c0-2.2,1.8-4,4-4H1335.3
						 M1335.3,217.4h-30c-3.3,0-6,2.7-6,6v30c0,3.3,2.7,6,6,6h30c3.3,0,6-2.7,6-6v-30C1341.3,220.1,1338.6,217.4,1335.3,217.4
						L1335.3,217.4z"/>
				</g>
			</g>
		</g>
	</a>
	<path class="st25" d="M1300.2,249.2h-32.3c-3.3,0-6-1.8-6-4.1v-20.5"/>
	<path class="st25" d="M1261.9,243.9V223c0-2.2,2.7-4.1,6-4.1h35.1"/>
	<path class="st22" d="M795,186.4L795,186.4c4,0,392.3,3.6,554.6,12.9c2.1,0.1,3.8,1.9,3.8,4v71.3c0,2.2-1.8,4-4,4h-121.9
		c-5.7,0-10.4,4.7-10.4,10.4v19.9c0,3.3-2.5,6-5.7,6.4c-20.1,2-33.4,6.9-42.1,15.4c-9.4,9.1-13.7,22.4-13.7,42.1
		c0,19.6,4.4,33,13.7,42.1c8.7,8.4,22.1,13.3,42.1,15.4c3.3,0.3,5.7,3.1,5.7,6.4v20.9c0,4.4,3.6,8,8,8h124.3c2.2,0,4,1.8,4,4v57.5
		c-15.3,1-123.4,7.9-274.1,13.1c-111,4.2-214.6,6.3-308,6.3c-162,0-238.1-6.5-238.9-6.6l-2.2-0.2v2.2v438.4h-238h-0.1
		c-2.6,0-4.7-2.1-4.8-4.8c-0.5-9.6-4.3-31.7-15.3-47c-1.5-2.1-3.9-3.3-6.5-3.3c-1.4,0-2.8,0.4-4,1.1l-6.6,3.8
		c-0.6,0.4-1.3,0.5-2,0.5c-1.4,0-2.8-0.8-3.5-2l-21.3-36.8c-1.1-1.9-0.4-4.4,1.5-5.5l9.9-5.7c0.9-0.5,1.6-1.5,1.9-2.5
		c0.3-1.1,0.1-2.2-0.5-3.1c-1.6-2.5-3.2-5.1-4.8-7.5c-0.7-1.1-2-1.8-3.4-1.8c-0.8,0-1.6,0.3-2.3,0.7l-9.8,7
		c-0.7,0.5-1.5,0.7-2.3,0.7c-1.3,0-2.5-0.6-3.3-1.7l-24.7-34.6c-1.3-1.8-0.9-4.3,0.9-5.6l9-6.4c0.9-0.6,1.5-1.7,1.7-2.8
		c0.1-1.1-0.2-2.2-0.9-3.1c-2.2-2.6-4.5-5.3-6.6-7.8c-0.8-0.9-1.9-1.4-3-1.4c-1,0-2,0.4-2.7,1.1l-8.2,7.7c-0.7,0.7-1.7,1.1-2.7,1.1
		c-1.1,0-2.2-0.4-2.9-1.3c-3.3-3.6-8.5-9.1-13.9-14.8c-5.3-5.7-10.8-11.5-14.5-15.5c-1.2-1.3-1.8-2.5-1.7-3.6c0-1.1,0.7-2.3,2-3.5
		l2.4-2.3c1.7-1.6,2.6-3.8,2.5-6.2c-0.1-2.3-1.2-4.5-3-5.9c-8.6-6.9-16.7-12.4-24-16.4c-1.7-0.9-3.3-3.6-3.3-5.5v-326
		c0-5.6-4.6-10.3-10.2-10.4l-27.5-0.4c-3.5-0.1-6.3-2.9-6.3-6.4v-61.3c0-3.5,2.9-6.4,6.4-6.4h6.8c5.3,0,9.6-4.3,9.6-9.6l0,0l0,0
		c0-1.7,0.6-3.2,1.7-4.4c1.2-1.2,2.8-1.9,4.4-1.9c0.6,0,1.2,0.1,1.8,0.3l0.2,0.1h0.2l111.5,8.5c0.9,0.3,1.9,0.4,2.8,0.4
		c3.1,0,6.1-1.5,8.1-4c1.9-2.5,2.5-5.8,1.7-8.8l-18.8-67.2c-0.7-2.5,0.2-5.1,2.2-6.7c17-13.4,56.9-24.6,118.5-33.3
		C434.7,194,589.7,186.7,795,186.4 M795,184.4c-476.1,0.6-559.3,38.9-580.3,55.4c-2.7,2.1-3.8,5.6-2.9,8.8l18.8,67.2
		c1.5,5.4-2.7,10.3-7.8,10.3c-0.8,0-1.6-0.1-2.4-0.4l-111.8-8.5c-0.8-0.2-1.6-0.4-2.4-0.4c-4.4,0-8.2,3.6-8.1,8.3
		c0,4.2-3.4,7.6-7.6,7.6h-6.8c-4.6,0-8.4,3.8-8.4,8.4v61.5c0,4.6,3.7,8.3,8.3,8.4l27.5,0.4c4.6,0.1,8.3,3.8,8.3,8.4v326
		c0,2.7,1.9,6,4.3,7.3c8,4.3,16.1,10.1,23.7,16.2c2.9,2.3,3,6.6,0.4,9.1l-2.4,2.3c-3.4,3.2-3.6,6.5-0.4,9.9
		c7.6,8.1,21.8,23.2,28.4,30.3c1.2,1.3,2.8,1.9,4.4,1.9c1.5,0,2.9-0.5,4.1-1.6l8.2-7.7c0.4-0.4,0.9-0.5,1.4-0.5
		c0.6,0,1.1,0.2,1.5,0.7c2.2,2.6,4.5,5.1,6.6,7.7c0.7,0.9,0.6,2.2-0.4,2.9l-9,6.4c-2.7,1.9-3.3,5.7-1.4,8.4l24.7,34.6
		c1.2,1.6,3,2.5,4.9,2.5c1.2,0,2.4-0.4,3.5-1.1l9.8-7c0.4-0.3,0.8-0.4,1.2-0.4c0.7,0,1.3,0.3,1.7,0.9c1.6,2.5,3.2,5,4.8,7.5
		c0.6,1,0.3,2.2-0.7,2.8l-9.9,5.7c-2.9,1.7-3.9,5.3-2.2,8.2l21.3,36.8c1.1,1.9,3.1,3,5.2,3c1,0,2-0.3,3-0.8l6.6-3.8
		c0.9-0.5,2-0.8,3-0.8c1.9,0,3.7,0.9,4.9,2.5c10.3,14.3,14.4,35.8,14.9,45.9c0.2,3.7,3.1,6.6,6.8,6.7h0.1h240V542
		c0,0,75.1,6.6,239,6.6c80.7,0,182.8-1.6,308.1-6.3c164-5.6,276-13.2,276-13.2v-59.5c0-3.3-2.7-6-6-6h-124.2c-3.3,0-6-2.7-6-6v-21.1
		c0-4.3-3.3-7.9-7.5-8.4c-37.1-3.8-54.1-17.2-54.1-55.4s17-51.6,54.1-55.4c4.3-0.4,7.5-4,7.5-8.4V289c0-4.6,3.8-8.4,8.4-8.4h121.7
		c3.3,0,6-2.7,6-6v-71.3c0-3.2-2.5-5.8-5.6-6C1185.5,187.9,795,184.4,795,184.4L795,184.4z"/>
	<g id="Portals_1_">
		<line id="Wayout.1.floorGfZOM" class="st28" x1="1388.4" y1="361.5" x2="1395.4" y2="354.5"/>
		<line id="Wayout.2.floorMaF101" class="st28" x1="1281.4" y1="583.5" x2="1288.4" y2="576.5"/>
	</g>
</g>
<g class="st29">
	<path d="M1350,197.3c-158.1-9-524.8-12.6-553.2-12.9c-1.2,0-1.8,0-1.8,0c-114.2,0.1-205.8,2.5-279.4,6.1c-28.1,1-57.7,3-84.2,5.3
		c-47.1,3.7-83.9,8.1-112.8,12.6c-23.1,3.5-41.4,7.4-55.7,11.3c-26.3,6.9-39.2,13.6-46.2,18.7l0,0c-0.7,0.5-1.3,0.9-1.8,1.4
		c-2.7,2.1-3.8,5.6-2.9,8.8l18.8,67.2c1.5,5.4-2.7,10.3-7.8,10.3c-0.8,0-1.6-0.1-2.4-0.4l-111.8-8.5c-0.8-0.2-1.6-0.4-2.4-0.4
		c-4.4,0-8.2,3.6-8.1,8.3c0,4.2-3.4,7.6-7.6,7.6h-6.8c-4.6,0-8.4,3.8-8.4,8.4v61.5c0,4.6,3.7,8.3,8.3,8.4l27.5,0.4
		c4.6,0.1,8.3,3.8,8.3,8.4v326c0,2.7,1.9,6,4.3,7.3c8,4.3,16.1,10.1,23.7,16.2c2.9,2.3,3,6.6,0.4,9.1l-2.4,2.3
		c-3.4,3.2-3.6,6.5-0.4,9.9c7.6,8.1,21.8,23.2,28.4,30.3c1.2,1.3,2.8,1.9,4.4,1.9c1.5,0,2.9-0.5,4.1-1.6l8.2-7.7
		c0.4-0.4,0.9-0.5,1.4-0.5c0.6,0,1.1,0.2,1.5,0.7c2.2,2.6,4.5,5.1,6.6,7.7c0.7,0.9,0.6,2.2-0.4,2.9l-9,6.4c-2.7,1.9-3.3,5.7-1.4,8.4
		l24.7,34.6c1.2,1.6,3,2.5,4.9,2.5c1.2,0,2.4-0.4,3.5-1.1l9.8-7c0.4-0.3,0.8-0.4,1.2-0.4c0.7,0,1.3,0.3,1.7,0.9
		c1.6,2.5,3.2,5,4.8,7.5c0.6,1,0.3,2.2-0.7,2.8l-9.9,5.7c-2.9,1.7-3.9,5.3-2.2,8.2l21.3,36.8c1.1,1.9,3.1,3,5.2,3c1,0,2-0.3,3-0.8
		l6.6-3.8c0.9-0.5,2-0.8,3-0.8c1.9,0,3.7,0.9,4.9,2.5c10.3,14.3,14.4,35.8,14.9,45.9c0.2,3.6,3,6.5,6.6,6.7h-0.8v45.7
		c0,4.4,3.6,8,8,8h42.1c0.9,0.1,12.5,2.3,23,15.8c6,7.7,12.6,10.9,17.1,12.1c2.8,0.8,5.1,1,6.6,1c0.9,0,1.6-0.1,1.8-0.1H532v-82.5
		h0.6v-62.6h56.2c3.3,0,6-2.7,6-6v-36c0-1.5-0.6-2.9-1.5-4h13.5c3.3,0,6-2.7,6-6v-90c0-3.3-2.7-6-6-6h-74.2v-20.5h74.2
		c3.3,0,6-2.7,6-6v-39.6c0-3.3-2.7-6-6-6h-74.2v-45.9c1,0.7,2.1,1.1,3.4,1.1h30c3.3,0,6-2.7,6-6v-30c0-3.3-2.7-6-6-6h-13.5
		c0.9-1.1,1.5-2.4,1.5-3.9v-30c0-3.3-2.7-6-6-6h-12c-1.3,0-2.4,0.4-3.4,1.1v-31.8c2.4,0.2,6.7,0.4,12.6,0.8
		c5.4,0.4,12.6,0.8,21.7,1.3c47.8,2.6,101.8,4,158.5,4.4c14.6,0.1,29.8,0.2,45.5,0.2c22,0,45.2-0.2,69.2-0.6
		c66.3-0.7,143.8-2.4,233.4-5.7v0.1l16.7-0.7c39.4-1.4,75.7-2.9,107.9-4.3h0.5c0.3,0,0.5,0,0.8-0.1c33.8-1.5,63-3,86.8-4.3
		c43.5-2.2,69.6-3.8,69.6-3.8V203.3C1355.6,200.1,1353.1,197.5,1350,197.3z M532.4,613.8L532.4,613.8L532.4,613.8L532.4,613.8z"/>
	<path d="M588.8,1006.5h-30c-3.3,0-6,2.7-6,6v30c0,3.3,2.7,6,6,6h30c3.3,0,6-2.7,6-6v-30C594.8,1009.2,592.1,1006.5,588.8,1006.5z"
		/>
	<path d="M558.8,968.5h12c3.3,0,6-2.7,6-6v-30c0-3.3-2.7-6-6-6h-12c-3.3,0-6,2.7-6,6v30C552.8,965.8,555.5,968.5,558.8,968.5z"/>
</g>
<!-- GF BG End //-->
	<g id="Base-2">
		<path class="st1" d="M1186.9,218.8h178c2.8,0,5,2.2,5,5v280c0,2.8-2.2,5-5,5h-178c-2.8,0-5-2.2-5-5v-280 C1181.9,221,1184.1,218.8,1186.9,218.8z"/>
		<path class="st2" d="M1364.9,219.8c2.2,0,4,1.8,4,4v280c0,2.2-1.8,4-4,4h-178c-2.2,0-4-1.8-4-4v-280c0-2.2,1.8-4,4-4L1364.9,219.8 
			M1364.9,217.8h-178c-3.3,0-6,2.7-6,6v280c0,3.3,2.7,6,6,6l0,0h178c3.3,0,6-2.7,6-6l0,0v-280 C1370.9,220.5,1368.2,217.8,1364.9,217.8z"/>
		<path class="st9" d="M709.9-692.4h339.5c1.3,0,2.6,0.6,3.5,1.5l103.3,103.3c1.9,2,1.9,5.2,0,7.1l-76.4,76.4c-0.9,1-2.2,1.5-3.5,1.5  
			s-2.6-0.6-3.5-1.5l-68.1-68.1c-1.3-1.3-3-2-4.9-2H710c-2.8,0-5-2.2-5-5v-31.2c0-3.9-3.1-7-7-7H579.8c-3.9,0-7,3.1-7,7v511.3  
			c0,2.8-2.2,5-5,5h-29.5c-3.9,0-7,3.1-7,7V26.8c0,3.9,3.1,7,7,7h0.1c9.7-0.2,19.6-0.3,29.3-0.3c2.8,0,5,2.2,5,5v105.6  
			c0,2.8-2.2,5-5,5c-99.5,0.2-190,7.3-269,21C235.4,181,198,193.2,184.9,197.9c-0.6,0.2-1.1,0.3-1.7,0.3c-2.2,0-4.1-1.4-4.8-3.5  
			l-32.2-100c-0.8-2.6,0.6-5.5,3.2-6.3c13.2-4.3,50.2-15.5,108-26.7c72.5-14,150.9-22.9,233.1-26.5c3.8-0.2,6.7-3.2,6.7-7V-87.2  
			c0-3.9-3.1-7-7-7h-30.5c-2.8,0-5-2.2-5-5v-588c0-2.8,2.2-5,5-5h108c2.8,0,5,2.2,5,5v28.8c0,3.9,3.1,7,7,7h118.2c3.9,0,7-3.1,7-7  
			v-28.8c0-2.8,2.2-5,5-5V-692.4z"/>
		<path class="st2" d="M183.1,197.2c-1.7,0-3.2-1.2-3.8-2.8l-32.2-100c-0.6-2.1,0.5-4.3,2.6-5c13.2-4.3,50.1-15.5,107.9-26.7  
			c72.4-14,150.8-22.9,232.9-26.5c4.3-0.2,7.7-3.7,7.7-8V-87.2c0-4.4-3.6-8-8-8h-30.5c-2.2,0-4-1.8-4-4v-588c0-2.2,1.8-4,4-4h108  
			c2.2,0,4,1.8,4,4v28.8c0,4.4,3.6,8,8,8h118.2c4.4,0,8-3.6,8-8v-28.8c0-2.2,1.8-4,4-4h339.6c1,0,2,0.4,2.8,1.2l103.2,103.2  
			c0.8,0.7,1.2,1.7,1.2,2.8c0,1-0.4,2-1.2,2.8l-76.4,76.4c-0.7,0.8-1.7,1.2-2.8,1.2c-1,0-2-0.4-2.8-1.2l-68.1-68.1  
			c-1.6-1.5-3.6-2.3-5.7-2.3H709.9c-2.2,0-4-1.8-4-4v-31.2c0-4.4-3.6-8-8-8H579.7c-4.4,0-8,3.6-8,8v511.3c0,2.2-1.8,4-4,4h-29.5  
			c-4.4,0-8,3.6-8,8V26.8c0,4.4,3.6,8,8,8h0.1c9.7-0.2,19.5-0.3,29.2-0.3c2.2,0,4,1.8,4,4v105.6c0,2.2-1.8,4-4,4  
			c-99.6,0.2-190.2,7.3-269.2,21c-63.4,11-100.8,23.2-113.9,27.9C184,197.1,183.6,197.2,183.1,197.2L183.1,197.2 M183.1,199.2  
			c0.7,0,1.4-0.2,2.1-0.4c26.9-9.7,148.5-48.2,382.4-48.8c3.3,0,6-2.7,6-6V38.4c0-3.3-2.7-6-6-6l0,0c-9.9,0-19.7,0.1-29.3,0.3h-0.1  
			c-3.3,0-6-2.7-6-6V-87.2c0-3.3,2.7-6,6-6h29.5c3.3,0,6-2.7,6-6v-511.1c0-3.3,2.7-6,6-6h118.2c3.3,0,6,2.7,6,6v31.2c0,3.3,2.7,6,6,6  
			h289.8c1.5,0,3.1,0.7,4.2,1.8l68.1,68.1c1.1,1.2,2.7,1.8,4.2,1.8s3-0.6,4.2-1.8l76.4-76.4c2.3-2.4,2.3-6.2,0-8.5l-103.3-103.3  
			c-1.1-1.2-2.6-1.8-4.2-1.8H709.8c-3.3,0-6,2.7-6,6v28.8c0,3.3-2.7,6-6,6H579.6c-3.3,0-6-2.7-6-6v-28.8c0-3.3-2.7-6-6-6h-108  
			c-3.3,0-6,2.7-6,6v588c0,3.3,2.7,6,6,6h30.5c3.3,0,6,2.7,6,6V28.2c0,3.2-2.5,5.9-5.7,6C296.8,42.7,175.8,78.8,149,87.5  
			c-3.1,1-4.8,4.4-3.8,7.5l32.2,100C178.2,197.6,180.6,199.2,183.1,199.2L183.1,199.2z"/>
		<path class="st9" d="M709.9,1421.5c-2.8,0-5-2.2-5-5v-28.8c0-3.9-3.1-7-7-7H579.7c-3.9,0-7,3.1-7,7v28.8c0,2.8-2.2,5-5,5h-108  
			c-2.8,0-5-2.2-5-5v-588c0-2.8,2.2-5,5-5h30.5c3.9,0,7-3.1,7-7V701.1c0-3.8-2.9-6.8-6.7-7c-82.2-3.6-160.6-12.5-233.1-26.5  
			c-57.8-11.2-94.8-22.4-108-26.7c-2.6-0.8-4-3.7-3.2-6.3l32.2-100c0.7-2.1,2.6-3.5,4.8-3.5c0.6,0,1.1,0.1,1.7,0.3  
			c13.1,4.7,50.5,16.9,113.8,27.8c79,13.7,169.5,20.8,269,21c2.8,0,5,2.2,5,5v105.6c0,2.8-2.2,5-5,5c-9.7,0-19.6-0.1-29.3-0.3h-0.1  
			c-3.9,0-7,3.1-7,7v113.9c0,3.9,3.1,7,7,7h29.5c2.8,0,5,2.2,5,5v511.3c0,3.9,3.1,7,7,7H698c3.9,0,7-3.1,7-7v-31.2c0-2.8,2.2-5,5-5  
			h289.8c1.9,0,3.6-0.7,4.9-2l68.1-68.1c0.9-0.9,2.2-1.5,3.5-1.5s2.6,0.5,3.5,1.5l76.4,76.4c1.9,1.9,1.9,5.1,0,7.1l-103.3,103.3  
			c-0.9,0.9-2.2,1.5-3.5,1.5H709.9V1421.5z"/>
		<path class="st2" d="M183.1,532.1L183.1,532.1c0.5,0,0.9,0.1,1.3,0.2c13.1,4.7,50.5,16.9,113.9,27.9c79,13.7,169.6,20.8,269.2,21  
			c2.2,0,4,1.8,4,4v105.6c0,2.2-1.8,4-4,4c-9.7,0-19.5-0.1-29.2-0.3h-0.1c-4.4,0-8,3.6-8,8v113.9c0,4.4,3.6,8,8,8h29.5  
			c2.2,0,4,1.8,4,4v511.3c0,4.4,3.6,8,8,8h118.2c4.4,0,8-3.6,8-8v-31.2c0-2.2,1.8-4,4-4h289.8c2.1,0,4.1-0.8,5.7-2.3l68.1-68.1  
			c0.8-0.8,1.8-1.2,2.8-1.2c1.1,0,2.1,0.4,2.8,1.2l76.4,76.4c0.8,0.8,1.2,1.8,1.2,2.8c0,1.1-0.4,2.1-1.2,2.8l-103.2,103.2  
			c-0.8,0.8-1.8,1.2-2.8,1.2H709.9c-2.2,0-4-1.8-4-4v-28.8c0-4.4-3.6-8-8-8H579.7c-4.4,0-8,3.6-8,8v28.8c0,2.2-1.8,4-4,4h-108  
			c-2.2,0-4-1.8-4-4v-588c0-2.2,1.8-4,4-4h30.5c4.4,0,8-3.6,8-8V701.1c0-4.3-3.4-7.8-7.7-8c-82.1-3.6-160.5-12.5-232.9-26.5  
			c-57.8-11.2-94.7-22.4-107.9-26.7c-2.1-0.7-3.2-2.9-2.6-5l32.2-100C179.9,533.3,181.4,532.1,183.1,532.1 M183.1,530.1  
			c-2.5,0-4.9,1.6-5.7,4.2l-32.2,100c-1,3.1,0.7,6.5,3.8,7.5c26.8,8.7,147.8,44.8,341.4,53.3c3.2,0.1,5.7,2.8,5.7,6v115.4  
			c0,3.3-2.7,6-6,6h-30.5c-3.3,0-6,2.7-6,6v588c0,3.3,2.7,6,6,6h108c3.3,0,6-2.7,6-6v-28.8c0-3.3,2.7-6,6-6h118.2c3.3,0,6,2.7,6,6  
			v28.8c0,3.3,2.7,6,6,6h339.5c1.6,0,3.1-0.6,4.2-1.8l103.3-103.3c2.3-2.3,2.3-6.1,0-8.5l-76.4-76.4c-1.2-1.2-2.7-1.8-4.2-1.8  
			s-3.1,0.6-4.2,1.8l-68.1,68.1c-1.1,1.1-2.7,1.8-4.2,1.8H709.9c-3.3,0-6,2.7-6,6v31.2c0,3.3-2.7,6-6,6H579.7c-3.3,0-6-2.7-6-6V828.5  
			c0-3.3-2.7-6-6-6h-29.5c-3.3,0-6-2.7-6-6V702.6c0-3.3,2.7-6,6-6h0.1c9.6,0.2,19.4,0.3,29.3,0.3l0,0c3.3,0,6-2.7,6-6V585.3  
			c0-3.3-2.7-6-6-6c-233.9-0.6-355.5-39.1-382.4-48.8C184.5,530.3,183.8,530.1,183.1,530.1L183.1,530.1z"/>
	</g>

<!-- Marroit BG Start //-->
<g id="marriot_base">
	<g>
		<path class="st1" d="M1335.7,504.9v198.6c0,3.9,3.1,7,7,7h30.1c2.8,0,5,2.2,5,5v375.6c0,1.3-0.5,2.6-1.5,3.5l-151.6,151.7
			c-0.9,0.9-2.2,1.4-3.5,1.4s-2.6-0.5-3.5-1.5l-76.3-76.4c-1.9-1.9-1.9-5.1,0-7.1l116.5-116.5c1.3-1.3,2-3.1,2-4.9V715.4
			c0-2.8,2.2-5,5-5h29.9c3.9,0,7-3.1,7-7v-42.8c0-3.9-3.1-7-7-7h-259.1c-3.9,0-7,3.1-7,7v30c0,2.8-2.2,5-5,5H645.9c-2.8,0-5-2.2-5-5
			v-108c0-2.8,2.2-5,5-5h377.8c2.8,0,5,2.2,5,5v30c0,3.9,3.1,7,7,7h259.1c3.9,0,7-3.1,7-7V504.9H1335.7z"/>
		<path class="st1" d="M1301.8,222.3V116.3c0-3.9-3.1-7-7-7h-259.1c-3.9,0-7,3.1-7,7v30c0,2.8-2.2,5-5,5H645.9c-2.8,0-5-2.2-5-5
			v-108c0-2.8,2.2-5,5-5h377.8c2.8,0,5,2.2,5,5v30c0,3.9,3.1,7,7,7h259.1c3.9,0,7-3.1,7-7V25.5c0-3.9-3.1-7-7-7h-29.9
			c-2.8,0-5-2.2-5-5v-325.9c0-1.9-0.7-3.6-2-4.9l-116.5-116.5c-1.9-1.9-1.9-5.1,0-7.1l76.3-76.4c0.9-0.9,2.2-1.5,3.5-1.5
			s2.6,0.5,3.5,1.5l151.6,151.7c0.9,0.9,1.5,2.2,1.5,3.5V13.5c0,2.8-2.2,5-5,5h-30.1c-3.9,0-7,3.1-7,7v196.9H1301.8z"/>
		<path class="st2" d="M1300.8,507.8v104.8c0,3.3-2.7,6-6,6h-259.1c-3.3,0-6-2.7-6-6v-30c0-3.3-2.7-6-6-6H645.9c-3.3,0-6,2.7-6,6
			v108c0,3.3,2.7,6,6,6h377.8c3.3,0,6-2.7,6-6v-30c0-3.3,2.7-6,6-6h259.1c3.3,0,6,2.7,6,6v42.8c0,3.3-2.7,6-6,6h-29.9
			c-3.3,0-6,2.7-6,6v325.9c0,1.6-0.6,3.1-1.8,4.2L1140.6,1162c-2.3,2.3-2.3,6.1,0,8.5l76.3,76.4c1.2,1.2,2.7,1.8,4.2,1.8
			s3.1-0.6,4.2-1.8l151.6-151.7c1.1-1.1,1.8-2.7,1.8-4.2V715.4c0-3.3-2.7-6-6-6h-30.1c-3.3,0-6-2.7-6-6V507.8h-1.9v195.7
			c0,4.4,3.6,8,8,8h30.1c2.2,0,4,1.8,4,4v375.6c0,1.1-0.4,2.1-1.2,2.8L1224,1245.6c-0.8,0.8-1.8,1.2-2.8,1.2c-1.1,0-2.1-0.4-2.8-1.2
			l-76.3-76.4c-1.6-1.6-1.6-4.1,0-5.7l116.5-116.5c1.5-1.5,2.3-3.5,2.3-5.7V715.4c0-2.2,1.8-4,4-4h29.9c4.4,0,8-3.6,8-8v-42.8
			c0-4.4-3.6-8-8-8h-259.1c-4.4,0-8,3.6-8,8v30c0,2.2-1.8,4-4,4H645.9c-2.2,0-4-1.8-4-4v-108c0-2.2,1.8-4,4-4h377.8c2.2,0,4,1.8,4,4
			v30c0,4.4,3.6,8,8,8h259.1c4.4,0,8-3.6,8-8V507.8H1300.8z M1221.2-519.2c1.1,0,2.1,0.4,2.8,1.2l151.6,151.7
			c0.8,0.8,1.2,1.8,1.2,2.8V12.1c0,2.2-1.8,4-4,4h-30.1c-4.4,0-8,3.6-8,8v195.7h1.9V24.1c0-3.3,2.7-6,6-6h30.1c3.3,0,6-2.7,6-6
			v-375.6c0-1.6-0.6-3.1-1.8-4.2l-151.6-151.7c-1.1-1.2-2.6-1.8-4.1-1.8l0,0c-1.5,0-3.1,0.6-4.2,1.8l-76.3,76.4
			c-2.3,2.3-2.3,6.1,0,8.5L1257.2-318c1.1,1.1,1.8,2.7,1.8,4.2V12.1c0,3.3,2.7,6,6,6h29.9c3.3,0,6,2.7,6,6v42.8c0,3.3-2.7,6-6,6
			h-259.2c-3.3,0-6-2.7-6-6v-30c0-3.3-2.7-6-6-6H645.9c-3.3,0-6,2.7-6,6v108c0,3.3,2.7,6,6,6h377.8c3.3,0,6-2.7,6-6v-30
			c0-3.3,2.7-6,6-6h259.1c3.3,0,6,2.7,6,6v104.9h2V114.9c0-4.4-3.6-8-8-8h-259.1c-4.4,0-8,3.6-8,8v30c0,2.2-1.8,4-4,4H645.9
			c-2.2,0-4-1.8-4-4v-108c0-2.2,1.8-4,4-4h377.8c2.2,0,4,1.8,4,4v30c0,4.4,3.6,8,8,8h259.1c4.4,0,8-3.6,8-8V24.1c0-4.4-3.6-8-8-8
			h-29.9c-2.2,0-4-1.8-4-4v-325.9c0-2.1-0.8-4.1-2.3-5.7L1142.1-436c-1.6-1.6-1.6-4.1,0-5.7l76.3-76.4
			C1219.1-518.8,1220.1-519.2,1221.2-519.2"/>
	</g>
</g>
<g>
	<g>
		<g>
			<line class="st10" x1="1318.6" y1="688.3" x2="1318.6" y2="665.4"/>
			<g>
				<polygon class="st2" points="1326,682.6 1318.6,685.8 1311.2,682.6 1318.6,700.2"/>
			</g>
		</g>
	</g>
	<g>
		<g>
			<line class="st10" x1="1265.3" y1="636.8" x2="1288.2" y2="636.8"/>
			<g>
				<polygon class="st2" points="1271,644.2 1267.8,636.8 1271,629.4 1253.4,636.8"/>
			</g>
		</g>
	</g>
</g>
<g>
	<g>
		<line class="st10" x1="1288" y1="91" x2="1265" y2="91"/>
		<g>
			<polygon class="st2" points="1253.4,91 1271,98.4 1267.8,91 1271,83.6"/>
		</g>
	</g>
</g>
<line class="st11" x1="1292" y1="74" x2="1336" y2="74"/>
<!-- Marroit BG End //-->
	<g id="Rooms">
		<a id="ma5f101" xlink:href="#" >
			<g>
				<rect x="1190" y="260" class="st1" width="162" height="204"/>
			</g>
		</a>
		<g id="Elevator">
			<path class="st3" d="M1186.9,468.8h30c2.8,0,5,2.2,5,5v30c0,2.8-2.2,5-5,5h-30c-2.8,0-5-2.2-5-5v-30 C1181.9,471,1184.1,468.8,1186.9,468.8z"/>
			<path class="st2" d="M1216.9,469.8c2.2,0,4,1.8,4,4v30c0,2.2-1.8,4-4,4h-30c-2.2,0-4-1.8-4-4v-30c0-2.2,1.8-4,4-4H1216.9 
				M1216.9,467.8h-30c-3.3,0-6,2.7-6,6v30c0,3.3,2.7,6,6,6l0,0h30c3.3,0,6-2.7,6-6l0,0v-30C1222.9,470.5,1220.2,467.8,1216.9,467.8z"/>
			
			<image style="overflow:visible;" width="76" height="76" id="elevator_x5F_off" xlink:href="./images/2x/elevator_off@2x.png" class="i_elevator" transform="matrix(0.5 0 0 0.5 1183 470)">
			</image>
		</g>
	</g>
	<g id="SpotnameSide" class="spotname">
		<text id="ma5f101" text-anchor="middle" transform="matrix(1 0 0 1 360 110)" class="st2 st4 st5"></text>
		<text id="ma5f101" text-anchor="middle" transform="matrix(1 0 0 1 360 630)" class="st2 st4 st5"></text>
		<text id="ma5f101" text-anchor="middle" transform="matrix(1 0 0 1 835 100)" class="st2 st4 st5"></text>
		<text id="ma5f101" text-anchor="middle" transform="matrix(1 0 0 1 835 640)" class="st2 st4 st5"></text>
	</g>
	<g id="SpotnameGFbg" class="spotname">
		<text id="foodavenue" text-anchor="middle" transform="matrix(1 0 0 1 440 376)" class="st9 st30 st31">(GF)</text>
		<text id="shopstreetgf" text-anchor="middle" transform="matrix(1 0 0 1 860 376)" class="st9 st30 st31"> (GF)</text>
	</g>
	<g id="Soptname">
		<text id="ma5f101" text-anchor="middle" transform="matrix(1 0 0 1 1278 366)" class="st2 st4 st5">  </text>
	</g>
	<g id="Doors">
		<line id="ma5f101" class="st6" x1="1211" y1="444" x2="1218" y2="437"/>
	</g>
	<g id="Paths">
		<line class="st7" x1="1201" y1="454" x2="1201" y2="474"/>
		<line class="st7" x1="1211" y1="444" x2="1201" y2="454"/>
	</g>
	<g id="Portals">
		<line id="Elev.1.floorGfMa" class="st8" x1="1194" y1="481" x2="1201" y2="474"/>
		<line id="Elev.5.floorMaF100" class="st8" x1="1194" y1="481" x2="1201" y2="474"/>
	</g>
</g>
</svg>
