<?xml version="1.0" encoding="utf-8"?>
<!-- Generator: Adobe Illustrator 23.0.0, SVG Export Plug-In . SVG Version: 6.00 Build 0)  -->
<svg version="1.1" xmlns="http://www.w3.org/2000/svg" xmlns:xlink="http://www.w3.org/1999/xlink" x="0px" y="0px" viewBox="0 0 1400 730" style="enable-background:new 0 0 1400 730;" xml:space="preserve" width="1400px" height="730px" id="lgfRd">
<style type="text/css">
	#lgfRd .st0{fill:#CBD5DD;}
	#lgfRd .st1{fill:#EAEAEA;}
	#lgfRd .st2{fill:#A5855B;}
	#lgfRd .st3{fill:#FFFFFF;}
	#lgfRd .st4{font-family:'NotoSans';}
	#lgfRd .st5{font-size:12px;}
	#lgfRd .st6{fill:none;stroke:#FF00FF;}
	#lgfRd .st7{fill:none;stroke:#00FF00;}
	#lgfRd .st8{fill:none;stroke:#EF405C;}
    
	#lgfRd .st11{opacity:0.1;}
	#lgfRd .st12{fill:#C9CDD1;}
	#lgfRd .st13{fill:#EAEAEA;}
	#lgfRd .st14{fill:#A5855B;}
	#lgfRd .st15{fill:#FFFFFF;}
	#lgfRd .st16{fill:none;stroke:#A5855B;}
	#lgfRd .st17{fill:none;stroke:#A5855B;stroke-width:2;}
	#lgfRd .st18{fill:#A5855B;stroke:#A5855B;stroke-width:2;}
	#lgfRd .st19{fill:none;stroke:#EF405C;}
	#lgfRd .st20{opacity:5.000000e-02;}  
</style>
<g id="BG">
	<rect class="st0" width="1400" height="730"/>
</g>
<g id="LGF">
	<g id="Base_2_">
		<!-- <g id="Marriott_Base02_1_">
			<path class="st1" d="M520.5,859.9c-4.4,0-7.9-3.4-7.9-7.7v-698c66.7,4.4,148.3,6.6,242.6,6.6c268.8,0,560.8-18,580.8-19.3v436.6
				c0,1.3-0.5,2.6-1.4,3.5l-273.7,276.8c-0.9,0.9-2.2,1.5-3.6,1.5H520.5z"/>
			<path class="st2" d="M1335,142.6v435.5c0,1.1-0.4,2.1-1.2,2.8l-273.7,276.8c-0.7,0.8-1.8,1.2-2.8,1.2H520.5c-3.8,0-6.9-3-6.9-6.7
				V155.3c66.5,4.3,147.8,6.5,241.6,6.5C1020.1,161.8,1307.5,144.3,1335,142.6 M1337,140.5c0,0-301.5,19.3-581.8,19.3
				c-86.4,0-170.7-1.8-243.6-6.6v699c0,4.8,4,8.7,8.9,8.7h536.7c1.6,0,3.1-0.6,4.3-1.8l273.7-276.8c1.1-1.1,1.7-2.6,1.7-4.2V140.5
				H1337z"/>
		</g> //-->
<!-- Langding BG Start //-->
		<g id="landing_x5F_BG_1_" class="st11">
			<path class="st12" d="M285.3,642.5c-3.2,0-5.7-2.5-5.9-5.7c-0.6-11-16.3-82.1-26.4-96c-1.3-1.8-3.4-2.9-5.7-2.9
				c-1.2,0-2.4,0.3-3.5,0.9l-6.6,3.8c-0.8,0.4-1.6,0.7-2.5,0.7c-1.8,0-3.4-1-4.3-2.5l-21.3-36.9c-1.4-2.4-0.6-5.5,1.8-6.8l9.9-5.7
				c0.7-0.4,1.2-1.1,1.4-1.9s0.1-1.6-0.4-2.3c-1.6-2.5-3.2-5.1-4.8-7.5c-0.6-0.9-1.5-1.4-2.5-1.4c-0.6,0-1.2,0.2-1.7,0.6l-9.8,7
				c-0.9,0.6-1.9,0.9-2.9,0.9c-1.6,0-3.1-0.8-4.1-2.1l-24.7-34.6c-1.6-2.2-1.1-5.4,1.2-7l9-6.4c0.7-0.5,1.1-1.2,1.2-2.1
				c0.1-0.8-0.1-1.7-0.7-2.3c-2.2-2.6-4.4-5.2-6.6-7.7c-0.6-0.6-1.4-1-2.3-1c-0.8,0-1.5,0.3-2.1,0.8l-8.2,7.7
				c-0.9,0.9-2.1,1.3-3.4,1.3c-1.4,0-2.7-0.6-3.6-1.6c-3.3-3.5-8.5-9.1-13.8-14.7c-5.3-5.7-10.8-11.5-14.6-15.6
				c-1.4-1.5-2.1-2.9-2-4.3s0.8-2.8,2.3-4.2l2.4-2.3c1.5-1.4,2.3-3.3,2.2-5.4c-0.1-2-1-3.9-2.6-5.2c-8.6-6.9-16.6-12.3-23.9-16.3
				c-2-1.1-3.8-4.1-3.8-6.4v-326c0-5.1-4.2-9.3-9.3-9.4l-27.5-0.4c-3.8-0.1-7.1-3.5-7.1-7.5v-61.3c0-4.1,3.3-7.4,7.4-7.4h6.8
				c4.7,0,8.6-3.9,8.6-8.6c0-2,0.7-3.8,2-5.2c1.3-1.4,3.2-2.2,5.1-2.2c0.7,0,1.4,0.1,2.1,0.3h0.1L202-61.8c0.9,0.3,1.7,0.4,2.6,0.4
				c2.8,0,5.5-1.4,7.3-3.6c1.7-2.3,2.3-5.2,1.5-8l-18.8-67.2c-0.8-2.9,0.2-6,2.5-7.8c31.7-24.9,158-54.7,579.7-55.2
				c3.9,0,392.3,3.6,554.7,12.9c2.6,0.1,4.7,2.3,4.7,5v71.3c0,2.8-2.2,5-5,5h-121.9c-5.2,0-9.4,4.2-9.4,9.4v19.9
				c0,3.8-2.9,7-6.6,7.4c-19.8,2-33,6.8-41.6,15.1c-9.2,8.9-13.4,22-13.4,41.3s4.3,32.5,13.4,41.3c8.5,8.3,21.7,13.1,41.6,15.1
				c3.8,0.4,6.6,3.5,6.6,7.4v21.2c0,3.9,3.1,7,7,7h124.2c2.8,0,5,2.2,5,5v58.5c-11.2,0.7-120.7,7.9-275,13.2
				c-111,4.2-214.7,6.3-308.1,6.3c-162,0-238.2-6.5-238.9-6.6l-1.1-0.1v490.1H285.3z"/>
			<g>
				<g>
					<path class="st13" d="M283.1,528c-2.9,0-5.5-1.7-6.7-4.3c-10.3-22.9-48.9-101.4-114.5-152.1c-1.8-1.4-2.9-3.6-2.9-5.9V297
						c0-2.7,2.2-5,5-5h310c3.8,0,7,3.3,7,7.4v221.3c0,4.1-3.1,7.4-7,7.4H283.1V528z"/>
					<g>
						<path class="st14" d="M474,293c3.3,0,6,2.9,6,6.4v221.3c0,3.5-2.7,6.4-6,6.4H283c-2.5,0-4.8-1.5-5.8-3.8
							c-10.3-22.9-49-101.6-114.8-152.5c-1.5-1.2-2.5-3.1-2.5-5.1V297c0-2.2,1.8-4,4-4H474 M474,291H164c-3.3,0-6,2.7-6,6v68.7
							c0,2.6,1.2,5.1,3.2,6.7c66.1,51,104.9,131.1,114.2,151.7c1.4,3,4.3,4.9,7.6,4.9h191c4.4,0,8-3.7,8-8.4V299.4
							C482,294.7,478.4,291,474,291L474,291z"/>
					</g>
				</g>
				<g>
					<path class="st13" d="M512.6,361.7v-49.6h75.8c2.8,0,5,2.2,5,5v39.6c0,2.8-2.2,5-5,5H512.6z"/>
					<path class="st14" d="M588.4,313.1c2.2,0,4,1.8,4,4v39.6c0,2.2-1.8,4-4,4h-74.8v-47.6H588.4 M588.4,311.1h-76.8v51.6h76.8
						c3.3,0,6-2.7,6-6v-39.6C594.4,313.8,591.7,311.1,588.4,311.1L588.4,311.1z"/>
				</g>
				<g>
					<path class="st13" d="M512.6,484.2v-100h75.8c2.8,0,5,2.2,5,5v90c0,2.8-2.2,5-5,5H512.6z"/>
					<path class="st14" d="M588.4,385.2c2.2,0,4,1.8,4,4v90c0,2.2-1.8,4-4,4h-74.8v-98H588.4 M588.4,383.2h-76.8v102h76.8
						c3.3,0,6-2.7,6-6v-90C594.4,385.9,591.7,383.2,588.4,383.2L588.4,383.2z"/>
				</g>
				<g>
					<path class="st13" d="M512.6,530.2v-46h57.8c2.8,0,5,2.2,5,5v36c0,2.8-2.2,5-5,5H512.6z"/>
					<path class="st14" d="M570.4,485.2c2.2,0,4,1.8,4,4v36c0,2.2-1.8,4-4,4h-56.8v-44H570.4 M570.4,483.2h-58.8v48h58.8
						c3.3,0,6-2.7,6-6v-36C576.4,485.9,573.7,483.2,570.4,483.2L570.4,483.2z"/>
				</g>
				<g>
					<path class="st13" d="M164.4,234.2c-2.8,0-5-2.2-5-5v-70c0-2.8,2.2-5,5-5h85v75c0,2.8-2.2,5-5,5H164.4z"/>
					<path class="st14" d="M248.4,155.2v74c0,2.2-1.8,4-4,4h-80c-2.2,0-4-1.8-4-4v-70c0-2.2,1.8-4,4-4H248.4 M250.4,153.2h-86
						c-3.3,0-6,2.7-6,6v70c0,3.3,2.7,6,6,6h80c3.3,0,6-2.7,6-6V153.2L250.4,153.2z"/>
				</g>
				<g>
					<path class="st13" d="M254.4,234.2c-2.8,0-5-2.2-5-5v-75h28v75c0,2.8-2.2,5-5,5H254.4z"/>
					<path class="st14" d="M276.4,155.2v74c0,2.2-1.8,4-4,4h-18c-2.2,0-4-1.8-4-4v-74H276.4 M278.4,153.2h-30v76c0,3.3,2.7,6,6,6h18
						c3.3,0,6-2.7,6-6V153.2L278.4,153.2z"/>
				</g>
				<g>
					<path class="st13" d="M282.4,234.2c-2.8,0-5-2.2-5-5v-75h28v75c0,2.8-2.2,5-5,5H282.4z"/>
					<path class="st14" d="M304.4,155.2v74c0,2.2-1.8,4-4,4h-18c-2.2,0-4-1.8-4-4v-74H304.4 M306.4,153.2h-30v76c0,3.3,2.7,6,6,6h18
						c3.3,0,6-2.7,6-6V153.2L306.4,153.2z"/>
				</g>
				<g>
					<path class="st13" d="M310.4,234.2c-2.8,0-5-2.2-5-5v-75h28v75c0,2.8-2.2,5-5,5H310.4z"/>
					<path class="st14" d="M332.4,155.2v74c0,2.2-1.8,4-4,4h-18c-2.2,0-4-1.8-4-4v-74H332.4 M334.4,153.2h-30v76c0,3.3,2.7,6,6,6h18
						c3.3,0,6-2.7,6-6V153.2L334.4,153.2z"/>
				</g>
				<g>
					<path class="st13" d="M338.4,234.2c-2.8,0-5-2.2-5-5v-75h28v75c0,2.8-2.2,5-5,5H338.4z"/>
					<path class="st14" d="M360.4,155.2v74c0,2.2-1.8,4-4,4h-18c-2.2,0-4-1.8-4-4v-74H360.4 M362.4,153.2h-30v76c0,3.3,2.7,6,6,6h18
						c3.3,0,6-2.7,6-6V153.2L362.4,153.2z"/>
				</g>
				<g>
					<path class="st13" d="M366.4,234.2c-2.8,0-5-2.2-5-5v-75h28v75c0,2.8-2.2,5-5,5H366.4z"/>
					<path class="st14" d="M388.4,155.2v74c0,2.2-1.8,4-4,4h-18c-2.2,0-4-1.8-4-4v-74H388.4 M390.4,153.2h-30v76c0,3.3,2.7,6,6,6h18
						c3.3,0,6-2.7,6-6V153.2L390.4,153.2z"/>
				</g>
				<g>
					<path class="st13" d="M394.4,234.2c-2.8,0-5-2.2-5-5v-75h28v75c0,2.8-2.2,5-5,5H394.4z"/>
					<path class="st14" d="M416.4,155.2v74c0,2.2-1.8,4-4,4h-18c-2.2,0-4-1.8-4-4v-74H416.4 M418.4,153.2h-30v76c0,3.3,2.7,6,6,6h18
						c3.3,0,6-2.7,6-6V153.2L418.4,153.2z"/>
				</g>
				<g>
					<path class="st13" d="M422.4,234.2c-2.8,0-5-2.2-5-5v-75h28v75c0,2.8-2.2,5-5,5H422.4z"/>
					<path class="st14" d="M444.4,155.2v74c0,2.2-1.8,4-4,4h-18c-2.2,0-4-1.8-4-4v-74H444.4 M446.4,153.2h-30v76c0,3.3,2.7,6,6,6h18
						c3.3,0,6-2.7,6-6V153.2L446.4,153.2z"/>
				</g>
				<g>
					<path class="st13" d="M450.4,234.2c-2.8,0-5-2.2-5-5v-75h28v75c0,2.8-2.2,5-5,5H450.4z"/>
					<path class="st14" d="M472.4,155.2v74c0,2.2-1.8,4-4,4h-18c-2.2,0-4-1.8-4-4v-74H472.4 M474.4,153.2h-30v76c0,3.3,2.7,6,6,6h18
						c3.3,0,6-2.7,6-6V153.2L474.4,153.2z"/>
				</g>
				<g>
					<path class="st13" d="M210,355c-2.8,0-5-2.2-5-5v-58h44v58c0,2.8-2.2,5-5,5H210z"/>
					<path class="st14" d="M248,293v57c0,2.2-1.8,4-4,4h-34c-2.2,0-4-1.8-4-4v-57H248 M250,291h-46v59c0,3.3,2.7,6,6,6h34
						c3.3,0,6-2.7,6-6V291L250,291z"/>
				</g>
				<g>
					<path class="st13" d="M254,355c-2.8,0-5-2.2-5-5v-58h44v58c0,2.8-2.2,5-5,5H254z"/>
					<path class="st14" d="M292,293v57c0,2.2-1.8,4-4,4h-34c-2.2,0-4-1.8-4-4v-57H292 M294,291h-46v59c0,3.3,2.7,6,6,6h34
						c3.3,0,6-2.7,6-6V291L294,291z"/>
				</g>
				<g>
					<path class="st13" d="M298,355c-2.8,0-5-2.2-5-5v-58h44v58c0,2.8-2.2,5-5,5H298z"/>
					<path class="st14" d="M336,293v57c0,2.2-1.8,4-4,4h-34c-2.2,0-4-1.8-4-4v-57H336 M338,291h-46v59c0,3.3,2.7,6,6,6h34
						c3.3,0,6-2.7,6-6V291L338,291z"/>
				</g>
				<g>
					<g>
						<path class="st13" d="M317.6,558c-2.8,0-5-2.2-5-5v-25h68v25c0,2.8-2.2,5-5,5H317.6z"/>
						<path class="st14" d="M379.6,529v24c0,2.2-1.8,4-4,4h-58c-2.2,0-4-1.8-4-4v-24H379.6 M381.6,527h-70v26c0,3.3,2.7,6,6,6h58
							c3.3,0,6-2.7,6-6V527L381.6,527z"/>
					</g>
				</g>
				<g>
					<g>
						<path class="st13" d="M385.6,558c-2.8,0-5-2.2-5-5v-25h90v25c0,2.8-2.2,5-5,5H385.6z"/>
						<path class="st14" d="M469.6,529v24c0,2.2-1.8,4-4,4h-80c-2.2,0-4-1.8-4-4v-24H469.6 M471.6,527h-92v26c0,3.3,2.7,6,6,6h80
							c3.3,0,6-2.7,6-6V527L471.6,527z"/>
					</g>
				</g>
				<g>
					<path class="st13" d="M348,384c-2.8,0-5-2.2-5-5v-42c0-2.8,2.2-5,5-5h128c2.8,0,5,2.2,5,5v42c0,2.8-2.2,5-5,5H348z"/>
					<path class="st14" d="M476,333c2.2,0,4,1.8,4,4v42c0,2.2-1.8,4-4,4H348c-2.2,0-4-1.8-4-4v-42c0-2.2,1.8-4,4-4H476 M476,331H348
						c-3.3,0-6,2.7-6,6v42c0,3.3,2.7,6,6,6h128c3.3,0,6-2.7,6-6v-42C482,333.7,479.3,331,476,331L476,331z"/>
				</g>
				<g>
					<path class="st13" d="M348,436c-2.8,0-5-2.2-5-5v-42c0-2.8,2.2-5,5-5h128c2.8,0,5,2.2,5,5v42c0,2.8-2.2,5-5,5H348z"/>
					<path class="st14" d="M476,385c2.2,0,4,1.8,4,4v42c0,2.2-1.8,4-4,4H348c-2.2,0-4-1.8-4-4v-42c0-2.2,1.8-4,4-4H476 M476,383H348
						c-3.3,0-6,2.7-6,6v42c0,3.3,2.7,6,6,6h128c3.3,0,6-2.7,6-6v-42C482,385.7,479.3,383,476,383L476,383z"/>
				</g>
				<g>
					<path class="st13" d="M348,488c-2.8,0-5-2.2-5-5v-42c0-2.8,2.2-5,5-5h128c2.8,0,5,2.2,5,5v42c0,2.8-2.2,5-5,5H348z"/>
					<path class="st14" d="M476,437c2.2,0,4,1.8,4,4v42c0,2.2-1.8,4-4,4H348c-2.2,0-4-1.8-4-4v-42c0-2.2,1.8-4,4-4H476 M476,435H348
						c-3.3,0-6,2.7-6,6v42c0,3.3,2.7,6,6,6h128c3.3,0,6-2.7,6-6v-42C482,437.7,479.3,435,476,435L476,435z"/>
				</g>
				<g id="Elevator_1_">
					<g>
						<g>
							<path class="st15" d="M214.4,234.2c-2.8,0-5-2.2-5-5v-30c0-2.8,2.2-5,5-5h30c2.8,0,5,2.2,5,5v30c0,2.8-2.2,5-5,5H214.4z"/>
							<path class="st14" d="M244.4,195.2c2.2,0,4,1.8,4,4v30c0,2.2-1.8,4-4,4h-30c-2.2,0-4-1.8-4-4v-30c0-2.2,1.8-4,4-4H244.4
								 M244.4,193.2h-30c-3.3,0-6,2.7-6,6v30c0,3.3,2.7,6,6,6h30c3.3,0,6-2.7,6-6v-30C250.4,195.9,247.7,193.2,244.4,193.2
								L244.4,193.2z"/>
						</g>
					</g>
				</g>
				<g id="Elevator_15_">
					<g>
						<g>
							<path class="st15" d="M164,372c-2.8,0-5-2.2-5-5v-30c0-2.8,2.2-5,5-5h30c2.8,0,5,2.2,5,5v30c0,2.8-2.2,5-5,5H164z"/>
							<path class="st14" d="M194,333c2.2,0,4,1.8,4,4v30c0,2.2-1.8,4-4,4h-30c-2.2,0-4-1.8-4-4v-30c0-2.2,1.8-4,4-4H194 M194,331
								h-30c-3.3,0-6,2.7-6,6v30c0,3.3,2.7,6,6,6h30c3.3,0,6-2.7,6-6v-30C200,333.7,197.3,331,194,331L194,331z"/>
						</g>
					</g>
				</g>
				<g id="Elevator_14_">
					<g>
						<g>
							<path class="st15" d="M388,332c-2.8,0-5-2.2-5-5v-30c0-2.8,2.2-5,5-5h30c2.8,0,5,2.2,5,5v30c0,2.8-2.2,5-5,5H388z"/>
							<path class="st14" d="M418,293c2.2,0,4,1.8,4,4v30c0,2.2-1.8,4-4,4h-30c-2.2,0-4-1.8-4-4v-30c0-2.2,1.8-4,4-4H418 M418,291
								h-30c-3.3,0-6,2.7-6,6v30c0,3.3,2.7,6,6,6h30c3.3,0,6-2.7,6-6v-30C424,293.7,421.3,291,418,291L418,291z"/>
						</g>
					</g>
				</g>
				<g id="Elevator_13_">
					<g>
						<g>
							<path class="st15" d="M517.6,265.3c-2.8,0-5-2.2-5-5v-30c0-2.8,2.2-5,5-5h30c2.8,0,5,2.2,5,5v30c0,2.8-2.2,5-5,5H517.6z"/>
							<path class="st14" d="M547.6,226.3c2.2,0,4,1.8,4,4v30c0,2.2-1.8,4-4,4h-30c-2.2,0-4-1.8-4-4v-30c0-2.2,1.8-4,4-4L547.6,226.3
								 M547.6,224.3h-30c-3.3,0-6,2.7-6,6v30c0,3.3,2.7,6,6,6h30c3.3,0,6-2.7,6-6v-30C553.6,227,550.9,224.3,547.6,224.3
								L547.6,224.3z"/>
						</g>
					</g>
				</g>
				<g id="Elevator_12_">
					<g>
						<g>
							<path class="st15" d="M540.6,659c-2.8,0-5-2.2-5-5v-30c0-2.8,2.2-5,5-5h30c2.8,0,5,2.2,5,5v30c0,2.8-2.2,5-5,5H540.6z"/>
							<path class="st14" d="M570.6,620c2.2,0,4,1.8,4,4v30c0,2.2-1.8,4-4,4h-30c-2.2,0-4-1.8-4-4v-30c0-2.2,1.8-4,4-4H570.6
								 M570.6,618h-30c-3.3,0-6,2.7-6,6v30c0,3.3,2.7,6,6,6h30c3.3,0,6-2.7,6-6v-30C576.6,620.7,573.9,618,570.6,618L570.6,618z"/>
						</g>
					</g>
				</g>
				<g id="Stairs_4_">
					<g>
						<path class="st15" d="M348,332c-2.8,0-5-2.2-5-5v-30c0-2.8,2.2-5,5-5h30c2.8,0,5,2.2,5,5v30c0,2.8-2.2,5-5,5H348z"/>
						<path class="st14" d="M378,293c2.2,0,4,1.8,4,4v30c0,2.2-1.8,4-4,4h-30c-2.2,0-4-1.8-4-4v-30c0-2.2,1.8-4,4-4H378 M378,291h-30
							c-3.3,0-6,2.7-6,6v30c0,3.3,2.7,6,6,6h30c3.3,0,6-2.7,6-6v-30C384,293.7,381.3,291,378,291L378,291z"/>
					</g>
				</g>
				<g id="Exit_19_">
					<g>
						<path class="st15" d="M164,332c-2.8,0-5-2.2-5-5v-30c0-2.8,2.2-5,5-5h12c2.8,0,5,2.2,5,5v30c0,2.8-2.2,5-5,5H164z"/>
						<path class="st14" d="M176,293c2.2,0,4,1.8,4,4v30c0,2.2-1.8,4-4,4h-12c-2.2,0-4-1.8-4-4v-30c0-2.2,1.8-4,4-4H176 M176,291h-12
							c-3.3,0-6,2.7-6,6v30c0,3.3,2.7,6,6,6h12c3.3,0,6-2.7,6-6v-30C182,293.7,179.3,291,176,291L176,291z"/>
					</g>
				</g>
				<g id="Exit_18_">
					<g>
						<path class="st15" d="M517.6,225.4c-2.8,0-5-2.2-5-5v-30c0-2.8,2.2-5,5-5h12c2.8,0,5,2.2,5,5v30c0,2.8-2.2,5-5,5H517.6z"/>
						<path class="st14" d="M529.6,186.4c2.2,0,4,1.8,4,4v30c0,2.2-1.8,4-4,4h-12c-2.2,0-4-1.8-4-4v-30c0-2.2,1.8-4,4-4H529.6
							 M529.6,184.4h-12c-3.3,0-6,2.7-6,6v30c0,3.3,2.7,6,6,6h12c3.3,0,6-2.7,6-6v-30C535.6,187.1,532.9,184.4,529.6,184.4
							L529.6,184.4z"/>
					</g>
				</g>
				<g id="Exit_1_">
					<g>
						<path class="st15" d="M164.4,234.2c-2.8,0-5-2.2-5-5v-30c0-2.8,2.2-5,5-5h12c2.8,0,5,2.2,5,5v30c0,2.8-2.2,5-5,5H164.4z"/>
						<path class="st14" d="M176.4,195.2c2.2,0,4,1.8,4,4v30c0,2.2-1.8,4-4,4h-12c-2.2,0-4-1.8-4-4v-30c0-2.2,1.8-4,4-4H176.4
							 M176.4,193.2h-12c-3.3,0-6,2.7-6,6v30c0,3.3,2.7,6,6,6h12c3.3,0,6-2.7,6-6v-30C182.4,195.9,179.7,193.2,176.4,193.2
							L176.4,193.2z"/>
					</g>
				</g>
				<g id="Exit_16_">
					<g>
						<path class="st15" d="M540.6,579c-2.8,0-5-2.2-5-5v-30c0-2.8,2.2-5,5-5h12c2.8,0,5,2.2,5,5v30c0,2.8-2.2,5-5,5H540.6z"/>
						<path class="st14" d="M552.6,540c2.2,0,4,1.8,4,4v30c0,2.2-1.8,4-4,4h-12c-2.2,0-4-1.8-4-4v-30c0-2.2,1.8-4,4-4H552.6
							 M552.6,538h-12c-3.3,0-6,2.7-6,6v30c0,3.3,2.7,6,6,6h12c3.3,0,6-2.7,6-6v-30C558.6,540.7,555.9,538,552.6,538L552.6,538z"/>
					</g>
				</g>
				<g id="Exit_15_">
					<g>
						<path class="st15" d="M220.8,455.2c-2.8,0-5-2.2-5-5v-30c0-2.8,2.2-5,5-5h12c2.8,0,5,2.2,5,5v30c0,2.8-2.2,5-5,5H220.8z"/>
						<path class="st14" d="M232.8,416.2c2.2,0,4,1.8,4,4v30c0,2.2-1.8,4-4,4h-12c-2.2,0-4-1.8-4-4v-30c0-2.2,1.8-4,4-4H232.8
							 M232.8,414.2h-12c-3.3,0-6,2.7-6,6v30c0,3.3,2.7,6,6,6h12c3.3,0,6-2.7,6-6v-30C238.8,416.9,236.1,414.2,232.8,414.2
							L232.8,414.2z"/>
					</g>
				</g>
			</g>
			<a id="magf115" xlink:href="#" >
				<g>
					<path class="st13" d="M1308.2-164.9v13.8h17.1c4.7,0,10.9-2.2,10.9-5l-0.6-33.2c-28.3-1.8-20.5-2.4-52.9-3v27.3L1308.2-164.9
						L1308.2-164.9z"/>
				</g>
			</a>
			<path class="st13" d="M436.3,31.7c-44,0-99.5-11.2-101.7-11.6c-1.1-0.4-2.3-0.7-3.6-1.1c-11-3.3-24.7-7.4-24.7-37.2
				S320-52.1,331-55.4c1.3-0.4,2.5-0.8,3.6-1.1c0.4-0.1,46.1-11.6,101.7-11.6c49.7,0,91.9,19.5,96.5,21.7c0.1,0,0.1,0.1,0.2,0.1
				c8,1.7,17.2,7,17.3,7c5.5,3.1,8,11.3,8.9,15.9c0.7,3.5,0.7,7.2,0,10.6c-1,4.6-3.4,12.8-8.9,15.9c-0.1,0.1-9.3,5.3-17.3,7
				c-0.1,0-0.2,0-0.2,0.1C528.2,12.2,486.1,31.7,436.3,31.7z"/>
			<path class="st14" d="M436.3-67.3c49.5,0,91.5,19.4,96.1,21.6c0.1,0.1,0.3,0.1,0.4,0.2c7.9,1.7,16.9,6.9,17,6.9
				c5.1,2.9,7.5,10.8,8.4,15.2c0.7,3.3,0.7,6.9,0,10.2c-0.9,4.4-3.3,12.3-8.5,15.2c-0.1,0.1-9.1,5.3-17,6.9c-0.2,0-0.3,0.1-0.4,0.2
				c-4.6,2.2-46.6,21.6-96.1,21.6c-43.5,0-98.5-11-101.5-11.6c-1.1-0.4-2.3-0.7-3.6-1.1c-10.7-3.2-24-7.2-24-36.3s13.3-33.1,24-36.3
				c1.3-0.4,2.5-0.7,3.6-1.1C337-56.2,381.9-67.3,436.3-67.3 M436.3-69.3c-56.3,0-102,11.7-102,11.7c-10.9,3.7-29,5.2-29,39.3
				s18.1,35.6,29,39.3c0,0,56.7,11.7,102,11.7c50.4,0,93.5-20.1,97-21.8c8.3-1.8,17.6-7.1,17.6-7.1c5.7-3.2,8.3-11.1,9.4-16.5
				c0.8-3.6,0.8-7.4,0-11.1c-1.2-5.4-3.8-13.4-9.4-16.5c0,0-9.3-5.4-17.6-7.1C529.8-49.2,486.7-69.3,436.3-69.3L436.3-69.3z"/>
			<g>
				<path class="st13" d="M502.7,20.9c-2.1,0-4.1-0.9-5.5-2.5c-4.3-4.8-9.4-15.1-9.4-36.8s5.1-31.9,9.4-36.8c1.4-1.6,3.4-2.5,5.5-2.5
					c0.7,0,1.5,0.1,2.2,0.3c15.7,4.9,26,9.7,27.9,10.6l0.1,0.1h0.1c8.1,1.7,17.2,7,17.3,7c5.5,3.1,8,11.3,8.9,15.9
					c0.7,3.5,0.7,7.1,0,10.6c-1,4.6-3.4,12.8-8.9,15.9c-0.1,0.1-9.3,5.3-17.3,7h-0.1l-0.1,0.1c-1.9,0.9-12.2,5.7-27.9,10.6
					C504.2,20.8,503.5,20.9,502.7,20.9L502.7,20.9z"/>
				<g>
					<path class="st14" d="M502.7-56.5c0.6,0,1.3,0.1,1.9,0.3c15.7,4.9,25.9,9.6,27.8,10.5l0.2,0.1h0.2c7.9,1.7,16.9,6.9,17,6.9
						c5.1,2.9,7.5,10.8,8.4,15.2c0.7,3.4,0.7,6.8,0,10.2c-0.9,4.4-3.3,12.3-8.5,15.2c-0.1,0.1-9.1,5.3-17,6.9h-0.2l-0.2,0.1
						c-1.9,0.9-12.1,5.7-27.8,10.5c-0.6,0.2-1.3,0.3-1.9,0.3c-1.8,0-3.6-0.8-4.8-2.1c-4.2-4.7-9.2-14.8-9.2-36.1s5-31.4,9.2-36.1
						C499.2-55.7,500.9-56.5,502.7-56.5 M502.7-58.5c-2.4,0-4.7,1-6.3,2.8c-4.2,4.7-9.7,15.1-9.7,37.4s5.5,32.7,9.7,37.4
						c1.6,1.8,3.9,2.8,6.3,2.8c0.8,0,1.7-0.1,2.5-0.4c15.9-5,26.4-9.9,28-10.6c8.3-1.8,17.6-7.1,17.6-7.1c5.7-3.2,8.3-11.1,9.4-16.5
						c0.8-3.6,0.8-7.4,0-11.1c-1.2-5.4-3.8-13.4-9.4-16.5c0,0-9.3-5.4-17.6-7.1c-1.6-0.8-12.1-5.7-28-10.6
						C504.4-58.4,503.6-58.5,502.7-58.5L502.7-58.5z"/>
				</g>
			</g>
			<g>
				<path class="st13" d="M834.9,31.9c-48.7,0-91.3-19.2-96-21.4c-0.4-0.2-0.9-0.4-1.4-0.5c-7.9-1.8-16.6-6.8-16.7-6.9
					c-7.6-4.2-9.4-18-9.7-20.7c0-0.3,0-0.7,0-1c0.3-2.7,2.1-16.5,9.7-20.7c0.1-0.1,8.8-5.1,16.7-6.9c0.5-0.1,0.9-0.3,1.4-0.5
					c4.7-2.2,47.3-21.4,96-21.4c53.5,0,96.8,10.4,101.5,11.6c0.1,0,0.2,0.1,0.3,0.1c1.1,0.4,2.2,0.7,3.4,1.1
					c7.5,2.3,16.8,5.1,21.5,17c1,2.6,3.7,4.4,6.6,4.4h26.1c3.9,0,7-3.1,7-7v-5.4c0-2.8,2.2-5,5-5h56.4c2.8,0,5,2.2,5,5v56.4
					c0,2.8-2.2,5-5,5h-56.4c-2.8,0-5-2.2-5-5V4.7c0-3.9-3.1-7-7-7h-26c-2.9,0-5.6,1.8-6.6,4.4c-4.7,12-14.1,14.8-21.6,17.1
					c-1.2,0.3-2.3,0.7-3.3,1c-0.2,0.1-0.4,0.1-0.6,0.2C930.4,21.5,877.7,31.9,834.9,31.9z"/>
				<path class="st14" d="M834.9-67.1c53.4,0,96.5,10.4,101.3,11.5c0.1,0,0.2,0,0.3,0.1c1.1,0.4,2.3,0.7,3.5,1.1
					c7.7,2.3,16.4,4.9,20.9,16.4c1.2,3,4.2,5,7.5,5h26.1c4.4,0,8-3.6,8-8v-5.4c0-2.2,1.8-4,4-4h56.4c2.2,0,4,1.8,4,4v56.5
					c0,2.2-1.8,4-4,4h-56.4c-2.2,0-4-1.8-4-4V4.7c0-4.4-3.6-8-8-8h-26c-3.3,0-6.3,2-7.5,5.1c-4.5,11.5-13.2,14.2-20.9,16.5
					c-1.2,0.4-2.3,0.7-3.3,1c-0.2,0.1-0.3,0.1-0.4,0.1C930.5,20.6,877.9,31,835.2,31c-48.5,0-90.9-19.2-95.6-21.3
					c-0.5-0.2-1-0.4-1.6-0.5c-7.7-1.8-16.3-6.7-16.5-6.8c-7.2-4-8.9-17.3-9.2-19.9c0-0.3,0-0.5,0-0.8c0.2-1.5,0.7-5.6,2.1-9.8
					c1.7-5,4.2-8.5,7.1-10.2c0.1,0,8.7-5,16.4-6.8c0.6-0.1,1.1-0.3,1.6-0.5C744-47.9,786.4-67.1,834.9-67.1 M834.9-69.1
					c-48.5,0-90.3,18.7-96.4,21.5c-0.4,0.2-0.8,0.3-1.2,0.4c-8.1,1.9-17,7-17,7c-8,4.4-9.9,18.4-10.2,21.5c0,0.4,0,0.8,0,1.2
					c0.3,3.1,2.2,17,10.2,21.5c0,0,8.8,5.1,17,7c0.4,0.1,0.8,0.2,1.2,0.4c6.1,2.9,47.9,21.5,96.4,21.5c43.2,0,96.8-10.6,101.6-11.6
					c0.2,0,0.5-0.1,0.7-0.2c8.1-2.7,19.9-4.4,25.5-18.7c0.9-2.3,3.2-3.8,5.7-3.8h26c3.3,0,6,2.7,6,6V10c0,3.3,2.7,6,6,6h56.4
					c3.3,0,6-2.7,6-6v-56.4c0-3.3-2.7-6-6-6h-56.4c-3.3,0-6,2.7-6,6v5.4c0,3.3-2.7,6-6,6h-26.1c-2.5,0-4.8-1.5-5.7-3.8
					c-5.7-14.3-17.5-15.9-25.6-18.7c-0.1,0-0.3-0.1-0.4-0.1C933.2-58.3,889-69.1,834.9-69.1L834.9-69.1z"/>
			</g>
			<g>
				<path class="st14" d="M626.6,15.9c43.5,0,74.8,8.7,107.9,17.8l2.8,0.8c31.7,8.8,72.5,15.9,99.3,17.2c3.4,0.2,6.1,3,6.1,6.4v22.4
					v14.4c0,2.2-1.8,4-4,4h-10.9c-1.1,0-2,0.9-2,2v16c0,1.1,0.9,2,2,2h10.9c2.2,0,4,1.8,4,4v34.4c-29.7,0.6-60.1,0.9-90.2,0.9
					c-130.7,0-224.6-5.8-238.8-6.7v-21.2c0-2.2,1.8-4,4-4h9.9c4.4,0,8-3.6,8-8V90.7c0-2.2,1.8-4,4-4h49.3c4.4,0,8-3.6,8-8V68.5
					c0-4.4-3.6-8-8-8h-49.3c-2.2,0-4-1.8-4-4V35.8c0-1.6,1-3.1,2.5-3.7c11-4.6,40.9-15.3,80.2-16.2
					C621.1,15.9,623.9,15.9,626.6,15.9 M626.6,13.9c-2.7,0-5.5,0-8.3,0.1c-40.1,1-70.7,12.2-80.9,16.4c-2.2,0.9-3.7,3.1-3.7,5.5
					v20.7c0,3.3,2.7,6,6,6H589c3.3,0,6,2.7,6,6v10.2c0,3.3-2.7,6-6,6h-49.3c-3.3,0-6,2.7-6,6v27.6c0,3.3-2.7,6-6,6h-9.9
					c-3.3,0-6,2.7-6,6v23.1c0,0,97.7,6.8,240.8,6.8c29,0,59.9-0.3,92.2-1V123c0-3.3-2.7-6-6-6h-10.9v-16h10.9c3.3,0,6-2.7,6-6V80.6
					V58.2c0-4.5-3.5-8.2-8-8.4c-25.1-1.3-65.9-8-98.9-17.2C703.2,23,671.6,13.9,626.6,13.9L626.6,13.9z"/>
			</g>
			<line class="st16" x1="317" y1="-180.7" x2="317" y2="-74.1"/>
			<line class="st16" x1="414.8" y1="-191.3" x2="414.8" y2="-88.6"/>
			<g>
				<path class="st14" d="M499.2-196v105.9c0,3.5-2.9,6.4-6.4,6.4c-0.5,0-0.9-0.1-1.4-0.1c-20.3-4.4-42-6.7-64.5-6.7
					c-75.5,0-140.3,25.3-152.5,30.4c-0.8,0.3-1.6,0.5-2.5,0.5h-42.5c-6.7,0-12.5-4.5-14.3-10.9l-19.4-70.2c-0.7-2.5,0.2-5.1,2.2-6.7
					c8.5-6.6,38.1-23.3,130.3-34.4C329.4-182,421.4-193.5,499.2-196 M501.2-198.1c-79.2,2.4-173,14.3-173,14.3
					c-91,10.9-121.9,27.4-131.3,34.8c-2.7,2.1-3.8,5.6-2.9,8.8L213.4-70c2,7.3,8.7,12.4,16.2,12.4h42.5c1.1,0,2.2-0.2,3.2-0.6
					c10.6-4.4,75.2-30.3,151.7-30.3c20.7,0,42.4,1.9,64,6.6c0.6,0.1,1.2,0.2,1.8,0.2c4.5,0,8.4-3.7,8.4-8.4L501.2-198.1L501.2-198.1
					z"/>
			</g>
			<line class="st16" x1="635.6" y1="-201.2" x2="635.6" y2="-50.5"/>
			<line class="st16" x1="536.6" y1="-129.1" x2="635.6" y2="-129.1"/>
			<line class="st16" x1="737.6" y1="-203" x2="737.6" y2="-69.1"/>
			<line class="st16" x1="686.6" y1="-201.4" x2="686.6" y2="-55.3"/>
			<path class="st16" d="M845.6-202.5v107.8c0,4.5-3.5,8.2-8,8.4c-24.9,1.3-65.4,8-98.2,17.2c-36.6,10.2-69.6,19.8-118.8,18.6
				c-37.9-0.9-67.3-11.1-78.7-15.7c-3.2-1.3-5.3-4.4-5.3-7.8v-125"/>
			<path class="st16" d="M1174.8-196.4v59.4c0,3.3-2.7,6-6,6H1110"/>
			<path class="st16" d="M1222.8-194.6v48c0,3.3-2.7,6-6,6h-41.4"/>
			<line class="st17" x1="723.2" y1="29.7" x2="723.2" y2="159.7"/>
			<path class="st18" d="M858.2,157.3V58c0-4.6,3.7-8.4,8.3-8.4c10.6-0.1,31.3-0.4,63.1-1.2c0,0,15.3-1.6,24-8.4
				c8.4-6.5,25.2-10.4,38.5-11.3c4.8-0.3,8.9,3.5,8.9,8.4v117.5"/>
			<path class="st14" d="M923.6,48.5v12c0,4.6,3.8,8.4,8.4,8.4h69"/>
			<path class="st14" d="M950,69.5v29.4c0,4.6,3.8,8.4,8.4,8.4h42.6"/>
			<g>
				<path class="st13" d="M1056.2,120.1c0-2.8,2.2-5,5-5h38c2.8,0,5,2.2,5,5v31l-48,1.9V120.1z"/>
				<path class="st14" d="M1099.2,116.1c2.2,0,4,1.8,4,4v30.1l-46,1.8v-31.9c0-2.2,1.8-4,4-4H1099.2 M1099.2,114.1h-38
					c-3.3,0-6,2.7-6,6v34l50-2v-32C1105.2,116.8,1102.5,114.1,1099.2,114.1L1099.2,114.1z"/>
			</g>
			<g id="magf_x5F_111_1">
				<path class="st14" d="M859.1-200.9c48.1,0.6,95.2,1.3,140,2.1v129.5c0,1.3-1,2.3-2.3,2.4c-16.5,0-34.2-5.8-41.1-11.3
					c-9.5-7.4-25.6-9.2-26.3-9.3l0,0l0,0h-0.1l0,0l0,0c-33.3-0.8-54.9-1.1-64.7-1.2c-2.9,0-5.3-2.4-5.3-5.4v-106.8 M857.1-202.9
					v108.8c0,4,3.3,7.4,7.3,7.4c9.9,0.1,31.4,0.4,64.7,1.2h0.1c0.7,0.1,16.1,1.8,25.2,8.9c7.6,5.9,25.9,11.7,42.4,11.7
					c2.4-0.1,4.2-2,4.2-4.4v-131.4C947-201.7,896.7-202.4,857.1-202.9L857.1-202.9z"/>
			</g>
			<g id="Elevator_11">
				<g>
					<g>
						<path class="st15" d="M627.2,1.7c-2.8,0-5-2.2-5-5v-30c0-2.8,2.2-5,5-5h30c2.8,0,5,2.2,5,5v30c0,2.8-2.2,5-5,5
							C657.2,1.7,627.2,1.7,627.2,1.7z"/>
						<path class="st14" d="M657.2-37.3c2.2,0,4,1.8,4,4v30c0,2.2-1.8,4-4,4h-30c-2.2,0-4-1.8-4-4v-30c0-2.2,1.8-4,4-4H657.2
							 M657.2-39.3h-30c-3.3,0-6,2.7-6,6v30c0,3.3,2.7,6,6,6h30c3.3,0,6-2.7,6-6v-30C663.2-36.6,660.5-39.3,657.2-39.3L657.2-39.3z"
							/>
					</g>
				</g>
			</g>
			<g id="Elevator_10_1_">
				<g>
					<g>
						<path class="st15" d="M1150.2,148.1c-2.8,0-5-2.2-5-5v-30c0-2.8,2.2-5,5-5h30c2.8,0,5,2.2,5,5v30c0,2.8-2.2,5-5,5H1150.2z"/>
						<path class="st14" d="M1180.2,109.1c2.2,0,4,1.8,4,4v30c0,2.2-1.8,4-4,4h-30c-2.2,0-4-1.8-4-4v-30c0-2.2,1.8-4,4-4
							L1180.2,109.1 M1180.2,107.1h-30c-3.3,0-6,2.7-6,6v30c0,3.3,2.7,6,6,6h30c3.3,0,6-2.7,6-6v-30
							C1186.2,109.8,1183.5,107.1,1180.2,107.1L1180.2,107.1z"/>
					</g>
				</g>
			</g>
			<g id="Elevator_2_1_">
				<g>
					<g>
						<path class="st15" d="M169.2,41.1c-2.8,0-5-2.2-5-5v-30c0-2.8,2.2-5,5-5h30c2.8,0,5,2.2,5,5v30c0,2.8-2.2,5-5,5H169.2z"/>
						<path class="st14" d="M199.2,2.1c2.2,0,4,1.8,4,4v30c0,2.2-1.8,4-4,4h-30c-2.2,0-4-1.8-4-4v-30c0-2.2,1.8-4,4-4L199.2,2.1
							 M199.2,0.1h-30c-3.3,0-6,2.7-6,6v30c0,3.3,2.7,6,6,6h30c3.3,0,6-2.7,6-6v-30C205.2,2.8,202.5,0.1,199.2,0.1L199.2,0.1z"/>
					</g>
				</g>
			</g>
			<g id="Stairs_3_1_">
				<g>
					<path class="st15" d="M169.2,1.1c-2.8,0-5-2.2-5-5v-30c0-2.8,2.2-5,5-5h30c2.8,0,5,2.2,5,5v30c0,2.8-2.2,5-5,5
						C199.2,1.1,169.2,1.1,169.2,1.1z"/>
					<path class="st14" d="M199.2-37.9c2.2,0,4,1.8,4,4v30c0,2.2-1.8,4-4,4h-30c-2.2,0-4-1.8-4-4v-30c0-2.2,1.8-4,4-4H199.2
						 M199.2-39.9h-30c-3.3,0-6,2.7-6,6v30c0,3.3,2.7,6,6,6h30c3.3,0,6-2.7,6-6v-30C205.2-37.2,202.5-39.9,199.2-39.9L199.2-39.9z"
						/>
				</g>
			</g>
			<g id="Stairs_2">
				<g>
					<path class="st15" d="M587.2,1.7c-2.8,0-5-2.2-5-5v-30c0-2.8,2.2-5,5-5h30c2.8,0,5,2.2,5,5v30c0,2.8-2.2,5-5,5
						C617.2,1.7,587.2,1.7,587.2,1.7z"/>
					<path class="st14" d="M617.2-37.3c2.2,0,4,1.8,4,4v30c0,2.2-1.8,4-4,4h-30c-2.2,0-4-1.8-4-4v-30c0-2.2,1.8-4,4-4H617.2
						 M617.2-39.3h-30c-3.3,0-6,2.7-6,6v30c0,3.3,2.7,6,6,6h30c3.3,0,6-2.7,6-6v-30C623.2-36.6,620.5-39.3,617.2-39.3L617.2-39.3z"
						/>
				</g>
			</g>
			<g id="Stairs_1">
				<g>
					<path class="st15" d="M1100.6,1.8c-2.8,0-5-2.2-5-5v-30c0-2.8,2.2-5,5-5h30c2.8,0,5,2.2,5,5v30c0,2.8-2.2,5-5,5
						C1130.6,1.8,1100.6,1.8,1100.6,1.8z"/>
					<path class="st14" d="M1130.6-37.2c2.2,0,4,1.8,4,4v30c0,2.2-1.8,4-4,4h-30c-2.2,0-4-1.8-4-4v-30c0-2.2,1.8-4,4-4H1130.6
						 M1130.6-39.2h-30c-3.3,0-6,2.7-6,6v30c0,3.3,2.7,6,6,6h30c3.3,0,6-2.7,6-6v-30C1136.6-36.5,1133.9-39.2,1130.6-39.2
						L1130.6-39.2z"/>
				</g>
			</g>
			<a id="shss122_1_" xlink:href="#" >
				<g>
					<path class="st13" d="M726,157.9c1.3,0,2.5,0,3.8,0c1.5,0,3.1,0,4.6,0c1.2,0,2.5,0,3.7,0c1.5,0,3,0,4.5,0c1.3,0,2.6,0,3.9,0
						c1.5,0,3,0,4.5,0c1.3,0,2.6,0,3.9,0c2.5,0,5,0,7.6,0c0.6,0,1.2,0,1.8,0c2,0,4,0,6,0c0.9,0,1.8,0,2.7,0c1.8,0,3.6,0,5.4,0
						c0.8,0,1.7,0,2.5,0c2.6,0,5.1,0,7.7,0c0.3,0,0.7,0,1,0c2.3,0,4.5,0,6.8,0c0.8,0,1.7,0,2.5,0c1.8,0,3.7,0,5.5,0
						c0.9,0,1.7,0,2.6,0c2.2,0,4.5,0,6.7-0.1c0.4,0,0.7,0,1.1,0c2.5,0,5.1,0,7.6-0.1c0.9,0,1.7,0,2.6,0c1.8,0,3.6,0,5.4-0.1
						c0.9,0,1.8,0,2.7,0c1.9,0,3.9,0,5.8-0.1c0.4,0,0.7,0,1.1,0c1,0,2,0,2.9-0.1V123c0-2.2-1.8-4-4-4H828c-1.1,0-2-0.9-2-2v-16
						c0-1.1,0.9-2,2-2h10.9c2.2,0,4-1.8,4-4V80.6V58.2c0-3.4-2.7-6.2-6.1-6.4c-26.8-1.4-67.7-8.5-99.3-17.2l-2.8-0.8
						c-3.5-1-6.9-1.9-10.3-2.8v127C724.8,157.9,725.4,157.9,726,157.9z"/>
				</g>
			</a>
			<a id="shss113_1_" xlink:href="#" >
				<g>
					<path class="st13" d="M866.9,157c2.5,0,5-0.1,7.4-0.1c0.8,0,1.5,0,2.3,0c1.8,0,3.6-0.1,5.4-0.1c1,0,2,0,3-0.1
						c1.6,0,3.3-0.1,4.9-0.1c1,0,1.9,0,2.9-0.1c2.5,0,4.9-0.1,7.4-0.1c0.6,0,1.1,0,1.7,0c2,0,3.9-0.1,5.9-0.1c1,0,2,0,3-0.1
						c1.6,0,3.2-0.1,4.8-0.1c1,0,2,0,3-0.1c1.8,0,3.7-0.1,5.5-0.1c0.9,0,1.9,0,2.8-0.1c2.1,0,4.3-0.1,6.4-0.1c1.1,0,2.1-0.1,3.2-0.1
						c1.4,0,2.9-0.1,4.3-0.1c1.1,0,2.2-0.1,3.4-0.1c1.6,0,3.1-0.1,4.7-0.1c0.9,0,1.9,0,2.8-0.1c2.3-0.1,4.6-0.1,6.9-0.2
						c1.1,0,2.2-0.1,3.3-0.1c0.5,0,1.1,0,1.6,0c12.1-0.3,24.2-0.7,36.5-1.1v-45.6h-41.6c-5.2,0-9.4-4.2-9.4-9.4v-29h-17
						c-5.2,0-9.4-4.2-9.4-9.4V49.6c-28.5,0.7-47.1,0.9-56.1,1c-4,0-7.3,3.4-7.3,7.4v99.1c1.7,0,3.5-0.1,5.2-0.1
						C865.2,157,866.1,157,866.9,157z"/>
				</g>
			</a>
			<a id="shss115_1_" xlink:href="#" >
				<g>
					<path class="st13" d="M521.3,151.9c1.6,0.1,3.1,0.2,4.7,0.3c1,0.1,1.9,0.1,2.9,0.2c1.4,0.1,2.9,0.2,4.3,0.2
						c1,0.1,2.1,0.1,3.2,0.2c1.4,0.1,2.8,0.2,4.1,0.2c1.1,0.1,2.1,0.1,3.2,0.2c1.4,0.1,2.8,0.1,4.2,0.2c1.1,0.1,2.1,0.1,3.2,0.2
						c1.4,0.1,2.8,0.1,4.3,0.2c1.1,0.1,2.1,0.1,3.2,0.1c1.4,0.1,2.9,0.1,4.4,0.2c1.1,0,2.1,0.1,3.2,0.1c1.5,0.1,3,0.1,4.4,0.2
						c1,0,2.1,0.1,3.1,0.1c1.5,0.1,3,0.1,4.6,0.2c1,0,2,0.1,3.1,0.1c1.6,0.1,3.1,0.1,4.7,0.2c1,0,2,0.1,3,0.1
						c1.6,0.1,3.2,0.1,4.8,0.2c1,0,1.9,0.1,2.9,0.1c1.7,0.1,3.4,0.1,5.1,0.2c0.9,0,1.8,0.1,2.7,0.1c1.8,0.1,3.6,0.1,5.4,0.2
						c0.8,0,1.6,0.1,2.4,0.1c1.9,0.1,3.9,0.1,5.8,0.2c0.7,0,1.4,0,2.1,0.1c2.3,0.1,4.6,0.1,6.8,0.2c0.4,0,0.7,0,1.1,0
						c8.1,0.2,16.2,0.4,24.4,0.6c0.4,0,0.9,0,1.3,0c2.2,0,4.5,0.1,6.7,0.1c0.7,0,1.5,0,2.2,0c1.9,0,3.9,0.1,5.8,0.1
						c0.9,0,1.8,0,2.7,0c1.8,0,3.6,0.1,5.4,0.1c1,0,2,0,3,0c1.7,0,3.4,0,5.1,0.1c1.1,0,2.1,0,3.2,0c1.7,0,3.4,0,5,0.1
						c1.1,0,2.2,0,3.3,0c1.6,0,3.3,0,4.9,0.1c1.1,0,2.3,0,3.4,0c1.6,0,3.2,0,4.8,0c1.2,0,2.4,0,3.6,0c1.5,0,3.1,0,4.6,0
						c1.2,0,2.5,0,3.7,0c0.3,0,0.5,0,0.8,0V30.3c-28.8-7.8-57.5-14.5-95.6-14.5c-2.7,0-5.5,0-8.3,0.1c-39.3,1-69.1,11.7-80.2,16.2
						c-1.5,0.6-2.5,2.1-2.5,3.7v20.7c0,2.2,1.8,4,4,4h49.3c4.4,0,8,3.6,8,8v10.2c0,4.4-3.6,8-8,8h-49.3c-2.2,0-4,1.8-4,4v27.6
						c0,4.4-3.6,8-8,8h-9.9c-2.2,0-4,1.8-4,4v21c1.7,0.1,3.4,0.2,5.1,0.3C519.7,151.8,520.5,151.9,521.3,151.9z"/>
				</g>
			</a>
			<a id="shss101" xlink:href="#" >
				<g>
					<path class="st13" d="M307.4-179.1c-32.2,4.8-58,10.4-77.2,16.6c-8.9,2.9-15.6,5.7-20.7,8.2c-4.6,2.3-8.5,4.7-11.6,7.1
						c-0.1,0.1-0.2,0.2-0.3,0.3c-1.5,1.6-2.1,3.9-1.5,6.1l19.4,70.2c1.8,6.4,7.7,10.9,14.3,10.9h42.5c0.8,0,1.7-0.2,2.5-0.5
						c5.2-2.2,20.2-8.1,41.4-14.1v-106C313-179.9,310.2-179.5,307.4-179.1z"/>
				</g>
			</a>
			<a id="shss103" xlink:href="#" >
				<g>
					<path class="st13" d="M499-196c-0.6,0-1.2,0-1.7,0.1c-29.1,1.5-56.3,3.2-81.5,5.1v100.4c3.7-0.1,7.5-0.2,11.2-0.2
						c22.5,0,44.2,2.2,64.5,6.7c0.5,0.1,0.9,0.1,1.4,0.1c3.5,0,6.4-2.9,6.4-6.4v-101.9c-0.1-0.2-0.2-0.4-0.2-0.6L499-196L499-196z"
						/>
				</g>
			</a>
			<a id="magf121_1_" xlink:href="#" >
				<g>
					<path class="st13" d="M951,98.9c0,4.1,3.3,7.4,7.4,7.4h41.6V69.9h-49V98.9z"/>
				</g>
			</a>
			<a id="shss112_1_" xlink:href="#" >
				<g>
					<path class="st13" d="M932,67.9h68V37.2c0-2.1-0.8-4-2.3-5.4s-3.5-2.1-5.5-2c-12.9,0.9-29.6,4.6-37.9,11.1
						c-8.8,6.9-23.9,8.5-24.5,8.6c-1.7,0-3.4,0.1-5.1,0.1v10.9C924.6,64.6,927.9,67.9,932,67.9z"/>
				</g>
			</a>
			<a id="magf112" xlink:href="#" >
				<g>
					<path class="st13" d="M1109.9-131l-0.4-65.9c-18-0.4-60.2-1.7-79.4-2.1v68"/>
				</g>
			</a>
			<a id="magf113" xlink:href="#" >
				<g>
					<path class="st13" d="M1168.8-132c2.8,0,5-2.2,5-5v-58.3c-20.5-0.5-41.3-1-62.2-1.5v64.7h57.2V-132z"/>
				</g>
			</a>
			<a id="shss111" xlink:href="#" >
				<g>
					<path class="st13" d="M864.4-88.7c9.9,0.1,31.5,0.4,64.7,1.2l0,0l0,0h0.1l0,0l0,0c0.7,0.1,16.7,1.9,26.3,9.3
						c6.9,5.4,24.6,11.2,41.1,11.3c1.3-0.1,2.3-1.1,2.3-2.4v-129.4c-44.8-0.8-91.9-1.5-140-2.1V-94
						C859.1-91.1,861.5-88.7,864.4-88.7z"/>
				</g>
			</a>
			<path class="st13" d="M1281.9-138.7l1.4-29.7c-7.2,0.2-31.7-0.3-38.7-0.2v20.9v4.6c0,1.9,2.2,3.4,5,3.4L1281.9-138.7z"/>
			<a id="magf114" xlink:href="#" >
				<g>
					<path class="st13" d="M1216.8-141.6c2.8,0,5-2.2,5-5v-47.3c-15-0.4-30.4-0.9-46-1.3v53.6H1216.8L1216.8-141.6z"/>
				</g>
			</a>
			<a id="shss102" xlink:href="#" >
				<g>
					<path class="st13" d="M328.5-181.9c-3.6,0.4-7.1,0.9-10.5,1.3v105.7c25.2-7,58.8-14.1,95.8-15.5v-100.3
						C366.5-186.6,329-181.9,328.5-181.9z"/>
				</g>
			</a>
			<path class="st13" d="M537.6-130.1h97v-70.5c-34.2,0.7-66.5,1.7-97,2.9v5.1V-130.1z"/>
			<a id="shss108" xlink:href="#" >
				<g>
					<path class="st13" d="M736.3-69.3l0.3-0.1V-202c-16.7,0.1-33,0.3-49,0.4v144.4C704.5-60.4,720.2-64.8,736.3-69.3z"/>
				</g>
			</a>
			<a id="shss109" xlink:href="#" >
				<g>
					<path class="st13" d="M739.1-70.1c31.4-8.7,71.9-15.8,98.4-17.2c3.9-0.2,7-3.5,7-7.4v-106.6c-40.8-0.5-66.7-0.7-67.8-0.8
						c-12.9,0-25.7,0.1-38.2,0.1v132.1L739.1-70.1z"/>
				</g>
			</a>
			<a id="shss107" xlink:href="#" >
				<g>
					<path class="st13" d="M685.6-56.7v-144.8c-16.7,0.2-33.1,0.5-49,0.8v149.2C654.7-51.9,670.6-53.9,685.6-56.7z"/>
				</g>
			</a>
			<a id="shss121" xlink:href="#" >
				<g>
					<path class="st13" d="M502.7-56.5c-1.8,0-3.6,0.8-4.8,2.1c-4.2,4.7-9.2,14.8-9.2,36.1s5,31.4,9.2,36.1c1.2,1.4,3,2.1,4.8,2.1
						c0.6,0,1.3-0.1,1.9-0.3c14.6-4.6,24.5-9,27.3-10.3c0.2-0.1,0.3-0.2,0.5-0.2l0,0l0.2-0.1h0.2c7.9-1.7,16.9-6.9,17-6.9
						c0.2-0.1,0.3-0.2,0.4-0.3c0.2-0.1,0.3-0.2,0.5-0.3c1.5-1.1,2.7-2.5,3.7-4.2c0-0.1,0.1-0.1,0.1-0.2c0.7-1.2,1.3-2.5,1.9-3.9
						c0.1-0.1,0.1-0.3,0.2-0.4c0-0.1,0.1-0.2,0.1-0.3c0.1-0.2,0.2-0.5,0.3-0.7c0.1-0.3,0.2-0.7,0.3-1v-0.1c0.4-1.4,0.8-2.7,1-3.8
						c0.7-3.3,0.7-6.9,0-10.2c-0.2-0.8-0.4-1.8-0.7-2.8v-0.1c-0.1-0.3-0.2-0.6-0.3-0.9l0,0c-0.1-0.4-0.3-0.9-0.4-1.3
						c-0.2-0.4-0.3-0.9-0.5-1.4c-0.5-1.3-1.1-2.6-1.8-3.7l0,0c-0.2-0.3-0.4-0.7-0.6-1c-0.4-0.5-0.8-1-1.2-1.5
						c-0.1-0.1-0.2-0.2-0.3-0.3c-0.8-0.8-1.6-1.6-2.6-2.1c-0.1-0.1-9.2-5.3-17-6.9h-0.2l-0.2-0.1c-0.1-0.1-0.3-0.1-0.5-0.2
						c-2.8-1.3-12.7-5.8-27.3-10.3C504-56.4,503.4-56.5,502.7-56.5z"/>
				</g>
			</a>
			<a id="magf119" xlink:href="#" >
				<g>
					<path class="st13" d="M1002.4-40.9v-5.4c0-2.2,1.8-4,4-4h56.4c2.2,0,4,1.8,4,4v56.4c0,2.2-1.8,4-4,4h-56.4c-2.2,0-4-1.8-4-4V4.7
						V-40.9L1002.4-40.9z"/>
				</g>
			</a>
			<a id="magf118" xlink:href="#" >
				<g>
					<path class="st13" d="M1090.5,150.7l12.7-0.5v-30.1c0-2.2-1.8-4-4-4h-38c-2.2,0-4,1.8-4,4v31.8c1.3,0,2.6-0.1,3.9-0.1
						C1071.1,151.4,1080.9,151,1090.5,150.7z"/>
				</g>
			</a>
			<a id="shss110" xlink:href="#" >
				<g>
					<g>
						<path class="st15" d="M810.6-162.4c-2.8,0-5-2.2-5-5v-30c0-2.8,2.2-5,5-5h30c2.8,0,5,2.2,5,5v30c0,2.8-2.2,5-5,5H810.6z"/>
						<path class="st14" d="M840.6-201.4c2.2,0,4,1.8,4,4v30c0,2.2-1.8,4-4,4h-30c-2.2,0-4-1.8-4-4v-30c0-2.2,1.8-4,4-4H840.6
							 M840.6-203.4h-30c-3.3,0-6,2.7-6,6v30c0,3.3,2.7,6,6,6h30c3.3,0,6-2.7,6-6v-30C846.6-200.7,843.9-203.4,840.6-203.4
							L840.6-203.4z"/>
					</g>
				</g>
			</a>
			<a id="shss104" xlink:href="#" >
				<g>
					<g>
						<path class="st15" d="M563.6-129.1c-2.8,0-5-2.2-5-5v-30c0-2.8,2.2-5,5-5h30c2.8,0,5,2.2,5,5v30c0,2.8-2.2,5-5,5H563.6z"/>
						<path class="st14" d="M593.6-168.1c2.2,0,4,1.8,4,4v30c0,2.2-1.8,4-4,4h-30c-2.2,0-4-1.8-4-4v-30c0-2.2,1.8-4,4-4H593.6
							 M593.6-170.1h-30c-3.3,0-6,2.7-6,6v30c0,3.3,2.7,6,6,6h30c3.3,0,6-2.7,6-6v-30C599.6-167.4,596.9-170.1,593.6-170.1
							L593.6-170.1z"/>
					</g>
				</g>
			</a>
			<a id="shss116_1_" xlink:href="#" >
				<g>
					<g>
						<path class="st15" d="M561.8,125.8c-2.8,0-5-2.2-5-5v-30c0-2.8,2.2-5,5-5h30c2.8,0,5,2.2,5,5v30c0,2.8-2.2,5-5,5H561.8z"/>
						<path class="st14" d="M591.8,86.8c2.2,0,4,1.8,4,4v30c0,2.2-1.8,4-4,4h-30c-2.2,0-4-1.8-4-4v-30c0-2.2,1.8-4,4-4H591.8
							 M591.8,84.8h-30c-3.3,0-6,2.7-6,6v30c0,3.3,2.7,6,6,6h30c3.3,0,6-2.7,6-6v-30C597.8,87.5,595.1,84.8,591.8,84.8L591.8,84.8z"
							/>
					</g>
				</g>
			</a>
			<a id="shss114_1_" xlink:href="#" >
				<g>
					<g>
						<path class="st15" d="M808.8,157.9c-2.8,0-5-2.2-5-5v-30c0-2.8,2.2-5,5-5h30c2.8,0,5,2.2,5,5v30c0,2.8-2.2,5-5,5H808.8z"/>
						<path class="st14" d="M838.8,118.9c2.2,0,4,1.8,4,4v30c0,2.2-1.8,4-4,4h-30c-2.2,0-4-1.8-4-4v-30c0-2.2,1.8-4,4-4L838.8,118.9
							 M838.8,116.9h-30c-3.3,0-6,2.7-6,6v30c0,3.3,2.7,6,6,6h30c3.3,0,6-2.7,6-6v-30C844.8,119.6,842.1,116.9,838.8,116.9
							L838.8,116.9z"/>
					</g>
				</g>
			</a>
			<a id="shss120" xlink:href="#" >
				<g>
					<g>
						<g>
							<path class="st15" d="M445.4,4.9c-2.8,0-5-2.2-5-5v-30c0-2.8,2.2-5,5-5h30c2.8,0,5,2.2,5,5v30c0,2.8-2.2,5-5,5
								C475.4,4.9,445.4,4.9,445.4,4.9z"/>
							<path class="st14" d="M475.4-34.1c2.2,0,4,1.8,4,4v30c0,2.2-1.8,4-4,4h-30c-2.2,0-4-1.8-4-4v-30c0-2.2,1.8-4,4-4H475.4
								 M475.4-36.1h-30c-3.3,0-6,2.7-6,6v30c0,3.3,2.7,6,6,6h30c3.3,0,6-2.7,6-6v-30C481.4-33.4,478.7-36.1,475.4-36.1L475.4-36.1z
								"/>
						</g>
					</g>
				</g>
			</a>
			<a id="magf122_1_" xlink:href="#" >
				<g>
					<g>
						<g>
							<path class="st15" d="M966,154.8c-2.8,0-5-2.2-5-5v-30c0-2.8,2.2-5,5-5h30c2.8,0,5,2.2,5,5v30c0,2.8-2.2,5-5,5H966z"/>
							<path class="st14" d="M996,115.8c2.2,0,4,1.8,4,4v30c0,2.2-1.8,4-4,4h-30c-2.2,0-4-1.8-4-4v-30c0-2.2,1.8-4,4-4H996
								 M996,113.8h-30c-3.3,0-6,2.7-6,6v30c0,3.3,2.7,6,6,6h30c3.3,0,6-2.7,6-6v-30C1002,116.5,999.3,113.8,996,113.8L996,113.8z"
								/>
						</g>
					</g>
				</g>
			</a>
			<a id="shss105" xlink:href="#" >
				<g>
					<g>
						<g>
							<path class="st15" d="M541.6-71.3c-2.8,0-5-2.2-5-5v-30c0-2.8,2.2-5,5-5h30c2.8,0,5,2.2,5,5v30c0,2.8-2.2,5-5,5H541.6z"/>
							<path class="st14" d="M571.6-110.3c2.2,0,4,1.8,4,4v30c0,2.2-1.8,4-4,4h-30c-2.2,0-4-1.8-4-4v-30c0-2.2,1.8-4,4-4H571.6
								 M571.6-112.3h-30c-3.3,0-6,2.7-6,6v30c0,3.3,2.7,6,6,6h30c3.3,0,6-2.7,6-6v-30C577.6-109.6,574.9-112.3,571.6-112.3
								L571.6-112.3z"/>
						</g>
					</g>
				</g>
			</a>
			<g id="Exit_14_1_">
				<g>
					<path class="st15" d="M539.8,125.8c-2.8,0-5-2.2-5-5v-30c0-2.8,2.2-5,5-5h12c2.8,0,5,2.2,5,5v30c0,2.8-2.2,5-5,5H539.8z"/>
					<path class="st14" d="M551.8,86.8c2.2,0,4,1.8,4,4v30c0,2.2-1.8,4-4,4h-12c-2.2,0-4-1.8-4-4v-30c0-2.2,1.8-4,4-4H551.8
						 M551.8,84.8h-12c-3.3,0-6,2.7-6,6v30c0,3.3,2.7,6,6,6h12c3.3,0,6-2.7,6-6v-30C557.8,87.5,555.1,84.8,551.8,84.8L551.8,84.8z"
						/>
				</g>
			</g>
			<g id="Exit_13">
				<g>
					<path class="st15" d="M541.6-129.1c-2.8,0-5-2.2-5-5v-30c0-2.8,2.2-5,5-5h12c2.8,0,5,2.2,5,5v30c0,2.8-2.2,5-5,5H541.6z"/>
					<path class="st14" d="M553.6-168.1c2.2,0,4,1.8,4,4v30c0,2.2-1.8,4-4,4h-12c-2.2,0-4-1.8-4-4v-30c0-2.2,1.8-4,4-4H553.6
						 M553.6-170.1h-12c-3.3,0-6,2.7-6,6v30c0,3.3,2.7,6,6,6h12c3.3,0,6-2.7,6-6v-30C559.6-167.4,556.9-170.1,553.6-170.1
						L553.6-170.1z"/>
				</g>
			</g>
			<g id="Exit_12">
				<g>
					<path class="st15" d="M828.6-122.4c-2.8,0-5-2.2-5-5v-30c0-2.8,2.2-5,5-5h12c2.8,0,5,2.2,5,5v30c0,2.8-2.2,5-5,5
						C840.6-122.4,828.6-122.4,828.6-122.4z"/>
					<path class="st14" d="M840.6-161.4c2.2,0,4,1.8,4,4v30c0,2.2-1.8,4-4,4h-12c-2.2,0-4-1.8-4-4v-30c0-2.2,1.8-4,4-4H840.6
						 M840.6-163.4h-12c-3.3,0-6,2.7-6,6v30c0,3.3,2.7,6,6,6h12c3.3,0,6-2.7,6-6v-30C846.6-160.7,843.9-163.4,840.6-163.4
						L840.6-163.4z"/>
				</g>
			</g>
			<g id="Exit_11">
				<g>
					<path class="st15" d="M983.1-118.1c-2.8,0-5-2.2-5-5v-30c0-2.8,2.2-5,5-5h12c2.8,0,5,2.2,5,5v30c0,2.8-2.2,5-5,5
						C995.1-118.1,983.1-118.1,983.1-118.1z"/>
					<path class="st14" d="M995.1-157.1c2.2,0,4,1.8,4,4v30c0,1.1-0.4,2.1-1.2,2.8c-0.8,0.8-1.8,1.2-2.8,1.2h-12c-2.2,0-4-1.8-4-4
						v-30c0-2.2,1.8-4,4-4H995.1 M995.1-159.1h-12c-3.3,0-6,2.7-6,6v30c0,3.3,2.7,6,6,6h12c3.3,0,6-2.7,6-6v-30
						C1001.1-156.4,998.4-159.1,995.1-159.1L995.1-159.1z"/>
				</g>
			</g>
			<g id="Exit_10_1_">
				<g>
					<path class="st15" d="M826.8,100.1c-2.8,0-5-2.2-5-5v-30c0-2.8,2.2-5,5-5h12c2.8,0,5,2.2,5,5v30c0,2.8-2.2,5-5,5H826.8z"/>
					<path class="st14" d="M838.8,61.1c2.2,0,4,1.8,4,4v30c0,2.2-1.8,4-4,4h-12c-2.2,0-4-1.8-4-4v-30c0-2.2,1.8-4,4-4H838.8
						 M838.8,59.1h-12c-3.3,0-6,2.7-6,6v30c0,3.3,2.7,6,6,6h12c3.3,0,6-2.7,6-6v-30C844.8,61.8,842.1,59.1,838.8,59.1L838.8,59.1z"
						/>
				</g>
			</g>
			<path class="st16" d="M1336.2-186.1v30c0,3.3-2.5,6-5.6,6h-23.1v-13.8h-24.8v-28.3"/>
			<rect x="1029.2" y="-132.1" class="st14" width="80.8" height="2"/>
			<path class="st14" d="M1028.7-200.1v70h82.9v-68.7L1028.7-200.1z M1109.6-131h-79v-67l79,1.2V-131z"/>
			<path class="st19" d="M1168.7,108.1"/>
			<path class="st19" d="M1083.7,115.1"/>
			<path class="st19" d="M148.2,164.1"/>
			<g id="XMLID_3_">
				<g>
					<path class="st13" d="M483.9,58.5v51.1c0,1.7-0.7,3.2-1.8,4.2c-1.1,1.1-2.6,1.8-4.2,1.8c-191-0.3-269-12.1-293.3-17
						c-4.3-0.9-6.3-6-3.6-9.5l50.2-66.5c2.4-1.8,4.4-2.6,6.6-2.6c1.2,0,2.5,0.2,4.1,0.7c21.7,7.6,98.3,32.1,184.1,32.1
						c15.6,0,31.5-0.8,47.4-2.7c0.4-0.1,0.8-0.1,1.2-0.1C479.7,50,483.9,53.8,483.9,58.5z M481.8,109.6V58.5c0-3.6-3.3-6.5-7.3-6.5
						c-0.3,0-0.7,0.1-1,0.1c-15.3,1.8-31.3,2.7-47.7,2.7c-86.1,0-163.2-24.6-184.8-32.2c-1.2-0.4-2.2-0.6-3.2-0.6
						c-1.7,0-3.3,0.6-5.2,2l-50.1,66.4c-0.8,1.1-1,2.5-0.5,3.8s1.5,2.2,2.9,2.5c24.7,5,102.7,16.7,292.9,16.9
						C480,113.6,481.8,111.8,481.8,109.6z"/>
					<path class="st13" d="M481.8,58.5v51.1c0,2.2-1.8,4-4,4c-190.2-0.2-268.2-11.9-292.9-16.9c-1.4-0.3-2.4-1.2-2.9-2.5
						s-0.3-2.7,0.5-3.8L232.6,24c1.9-1.4,3.5-2,5.2-2c1,0,2,0.2,3.2,0.6c21.6,7.6,98.7,32.2,184.8,32.2c16.4,0,32.4-0.9,47.7-2.7
						c0.3,0,0.7-0.1,1-0.1C478.5,52,481.8,54.9,481.8,58.5z"/>
				</g>
			</g>
			<g id="XMLID_1_">
				<g>
					<path class="st14" d="M483.9,58.5v51.1c0,1.7-0.7,3.2-1.8,4.2c-1.1,1.1-2.6,1.8-4.2,1.8c-191-0.3-269-12.1-293.3-17
						c-4.3-0.9-6.3-6-3.6-9.5l50.2-66.5c2.4-1.8,4.4-2.6,6.6-2.6c1.2,0,2.5,0.2,4.1,0.7c21.7,7.6,98.3,32.1,184.1,32.1
						c15.6,0,31.5-0.8,47.4-2.7c0.4-0.1,0.8-0.1,1.2-0.1C479.7,50,483.9,53.8,483.9,58.5z M481.8,109.6V58.5c0-3.6-3.3-6.5-7.3-6.5
						c-0.3,0-0.7,0.1-1,0.1c-15.3,1.8-31.3,2.7-47.7,2.7c-86.1,0-163.2-24.6-184.8-32.2c-1.2-0.4-2.2-0.6-3.2-0.6
						c-1.7,0-3.3,0.6-5.2,2l-50.1,66.4c-0.8,1.1-1,2.5-0.5,3.8s1.5,2.2,2.9,2.5c24.7,5,102.7,16.7,292.9,16.9
						C480,113.6,481.8,111.8,481.8,109.6z"/>
				</g>
			</g>
			<a id="magf116" xlink:href="#" >
				<g>
					<g>
						<g>
							<path class="st15" d="M1287.1-130.1c-2.8,0-5-2.2-5-5v-30c0-2.8,2.2-5,5-5h30c2.8,0,5,2.2,5,5v30c0,2.8-2.2,5-5,5H1287.1z"/>
							<path class="st14" d="M1317.1-169.1c2.2,0,4,1.8,4,4v30c0,2.2-1.8,4-4,4h-30c-2.2,0-4-1.8-4-4v-30c0-2.2,1.8-4,4-4H1317.1
								 M1317.1-171.1h-30c-3.3,0-6,2.7-6,6v30c0,3.3,2.7,6,6,6h30c3.3,0,6-2.7,6-6v-30C1323.1-168.4,1320.4-171.1,1317.1-171.1
								L1317.1-171.1z"/>
						</g>
					</g>
				</g>
			</a>
			<path class="st14" d="M776.7-202.1L776.7-202.1c4,0,392.3,3.6,554.6,12.9c2.1,0.1,3.8,1.9,3.8,4v71.3c0,2.2-1.8,4-4,4h-121.9
				c-5.7,0-10.4,4.7-10.4,10.4v19.9c0,3.3-2.5,6-5.7,6.4c-20.1,2-33.4,6.9-42.1,15.4c-9.4,9.1-13.7,22.4-13.7,42.1
				c0,19.6,4.4,33,13.7,42.1c8.7,8.4,22.1,13.3,42.1,15.4c3.3,0.3,5.7,3.1,5.7,6.4v20.9c0,4.4,3.6,8,8,8h124.3c2.2,0,4,1.8,4,4v57.5
				c-15.3,1-123.4,7.9-274.1,13.1c-111,4.2-214.6,6.3-308,6.3c-162,0-238.1-6.5-238.9-6.6l-2.2-0.2v2.2v488H285.2h-0.1
				c-2.6,0-4.7-2.1-4.8-4.8c-0.5-9.6-15.6-81.3-26.6-96.6c-1.5-2.1-3.9-3.3-6.5-3.3c-1.4,0-2.8,0.4-4,1.1l-6.6,3.8
				c-0.6,0.4-1.3,0.5-2,0.5c-1.4,0-2.8-0.8-3.5-2l-21.3-36.8c-1.1-1.9-0.4-4.4,1.5-5.5l9.9-5.7c0.9-0.5,1.6-1.5,1.9-2.5
				c0.3-1.1,0.1-2.2-0.5-3.1c-1.6-2.5-3.2-5.1-4.8-7.5c-0.7-1.1-2-1.8-3.4-1.8c-0.8,0-1.6,0.3-2.3,0.7l-9.8,7
				c-0.7,0.5-1.5,0.7-2.3,0.7c-1.3,0-2.5-0.6-3.3-1.7L172,449.3c-1.3-1.8-0.9-4.3,0.9-5.6l9-6.4c0.9-0.6,1.5-1.7,1.7-2.8
				c0.1-1.1-0.2-2.2-0.9-3.1c-2.2-2.6-4.5-5.3-6.6-7.8c-0.8-0.9-1.9-1.4-3-1.4c-1,0-2,0.4-2.7,1.1l-8.2,7.7
				c-0.7,0.7-1.7,1.1-2.7,1.1c-1.1,0-2.2-0.4-2.9-1.3c-3.3-3.6-8.5-9.1-13.9-14.8c-5.3-5.7-10.8-11.5-14.5-15.5
				c-1.2-1.3-1.8-2.5-1.7-3.6c0-1.1,0.7-2.3,2-3.5l2.4-2.3c1.7-1.6,2.6-3.8,2.5-6.2c-0.1-2.3-1.2-4.5-3-5.9
				c-8.6-6.9-16.7-12.4-24-16.4c-1.7-0.9-3.3-3.6-3.3-5.5v-326c0-5.6-4.6-10.3-10.2-10.4l-27.5-0.4c-3.5,0.2-6.3-2.7-6.3-6.2v-61.3
				c0-3.5,2.9-6.4,6.4-6.4h6.8c5.3,0,9.6-4.3,9.6-9.6l0,0l0,0c0-1.7,0.6-3.2,1.7-4.4c1.2-1.2,2.8-1.9,4.4-1.9c0.6,0,1.2,0.1,1.8,0.3
				l0.2,0.1h0.2l111.5,8.5c0.9,0.3,1.9,0.4,2.8,0.4c3.1,0,6.1-1.5,8.1-4c1.9-2.5,2.5-5.8,1.7-8.8l-18.8-67.2
				c-0.7-2.5,0.2-5.1,2.2-6.7c17-13.4,56.9-24.6,118.5-33.3C416.4-194.5,571.4-201.8,776.7-202.1 M776.7-204.1
				c-476.1,0.6-559.3,38.9-580.3,55.4c-2.7,2.1-3.8,5.6-2.9,8.8l18.8,67.2c1.5,5.4-2.7,10.3-7.8,10.3c-0.8,0-1.6-0.1-2.4-0.4
				L90.4-71.2c-0.8-0.2-1.6-0.4-2.4-0.4c-4.4,0-8.2,3.6-8.1,8.3c0,4.2-3.4,7.6-7.6,7.6h-6.8c-4.6,0-8.4,3.8-8.4,8.4v61.4
				c0,4.6,3.7,8.3,8.3,8.4l27.5,0.4c4.6,0.1,8.3,3.8,8.3,8.4v326c0,2.7,1.9,6,4.3,7.3c8,4.3,16.1,10.1,23.7,16.2
				c2.9,2.3,3,6.6,0.4,9.1l-2.4,2.3c-3.4,3.2-3.6,6.5-0.4,9.9c7.6,8.1,21.8,23.2,28.4,30.3c1.2,1.3,2.8,1.9,4.4,1.9
				c1.5,0,2.9-0.5,4.1-1.6l8.2-7.7c0.4-0.4,0.9-0.5,1.4-0.5c0.6,0,1.1,0.2,1.5,0.7c2.2,2.6,4.5,5.1,6.6,7.7c0.7,0.9,0.6,2.2-0.4,2.9
				l-9,6.4c-2.7,1.9-3.3,5.7-1.4,8.4l24.7,34.6c1.2,1.6,3,2.5,4.9,2.5c1.2,0,2.4-0.4,3.5-1.1l9.8-7c0.4-0.3,0.8-0.4,1.2-0.4
				c0.7,0,1.3,0.3,1.7,0.9c1.6,2.5,3.2,5,4.8,7.5c0.6,1,0.3,2.2-0.7,2.8l-9.9,5.7c-2.9,1.7-3.9,5.3-2.2,8.2l21.3,36.8
				c1.1,1.9,3.1,3,5.2,3c1,0,2-0.3,3-0.8l6.6-3.8c0.9-0.5,2-0.8,3-0.8c1.9,0,3.7,0.9,4.9,2.5c10.3,14.3,25.7,85.4,26.2,95.5
				c0.2,3.7,3.1,6.6,6.8,6.7h0.1h228.7V153.5c0,0,75.1,6.6,239,6.6c80.7,0,182.8-1.6,308.1-6.3c164-5.6,276-13.2,276-13.2V81.1
				c0-3.3-2.7-6-6-6h-124.2c-3.3,0-6-2.7-6-6V48c0-4.3-3.3-7.9-7.5-8.4c-37.1-3.8-54.1-17.2-54.1-55.4s17-51.6,54.1-55.4
				c4.3-0.4,7.5-4,7.5-8.4v-19.9c0-4.6,3.8-8.4,8.4-8.4h121.6c3.3,0,6-2.7,6-6v-71.3c0-3.2-2.5-5.8-5.6-6
				C1167.2-200.6,776.7-204.1,776.7-204.1L776.7-204.1z"/>
		</g>
		<g id="landing_x5F_BG_x5F_mask" class="st20">
			<path d="M1337.3,81.1c0-3.3-2.7-6-6-6h-124.2c-3.3,0-6-2.7-6-6V48c0-4.3-3.3-7.9-7.5-8.4c-37.1-3.8-54.1-17.2-54.1-55.4
				c0-38.2,17-51.6,54.1-55.4c4.3-0.4,7.5-4,7.5-8.4v-19.9c0-4.6,3.8-8.4,8.4-8.4h121.6c3.3,0,6-2.7,6-6v-71.3c0-1.5-0.6-2.9-1.5-4
				l0-0.1c0,0-0.1,0-0.1,0c-1-1.1-2.4-1.8-4-1.9c-55.4-3.2-136.6-5.7-219.9-7.6v0l-1,0c-163.2-3.8-333.9-5.3-333.9-5.3
				C662.3-204,570.6-201.6,497-198c-27.6,0.9-56.7,3-82.9,5.2c-49.4,3.9-87.6,8.4-117.2,13.2c-18.4,2.9-33.5,6-46.1,9.1
				c-33.4,8.2-47.4,16.2-54.5,21.7c-2.7,2.1-3.8,5.6-2.9,8.8l18.8,67.2c1.5,5.4-2.7,10.3-7.8,10.3c-0.8,0-1.6-0.1-2.4-0.4L90.4-71.2
				c-0.8-0.2-1.6-0.4-2.4-0.4c-4.4,0-8.2,3.6-8.1,8.3c0,4.2-3.4,7.6-7.6,7.6h-6.8c-4.6,0-8.4,3.8-8.4,8.4v61.4
				c0,4.6,3.7,8.3,8.3,8.4l27.5,0.4c4.6,0.1,8.3,3.8,8.3,8.4v326c0,2.7,1.9,6,4.3,7.3c8,4.3,16.1,10.1,23.7,16.2
				c2.9,2.3,3,6.6,0.4,9.1l-2.4,2.3c-3.4,3.2-3.6,6.5-0.4,9.9c7.6,8.1,21.8,23.2,28.4,30.3c1.2,1.3,2.8,1.9,4.4,1.9
				c1.5,0,2.9-0.5,4.1-1.6l8.2-7.7c0.4-0.4,0.9-0.5,1.4-0.5c0.6,0,1.1,0.2,1.5,0.7c2.2,2.6,4.5,5.1,6.6,7.7c0.7,0.9,0.6,2.2-0.4,2.9
				l-9,6.4c-2.7,1.9-3.3,5.7-1.4,8.4l24.7,34.6c1.2,1.6,3,2.5,4.9,2.5c1.2,0,2.4-0.4,3.5-1.1l9.8-7c0.4-0.3,0.8-0.4,1.2-0.4
				c0.7,0,1.3,0.3,1.7,0.9c1.6,2.5,3.2,5,4.8,7.5c0.6,1,0.3,2.2-0.7,2.8l-9.9,5.7c-2.9,1.7-3.9,5.3-2.2,8.2l21.3,36.8
				c1.1,1.9,3.1,3,5.2,3c1,0,2-0.3,3-0.8l6.6-3.8c0.9-0.5,2-0.8,3-0.8c1.9,0,3.7,0.9,4.9,2.5c10.3,14.3,25.7,85.4,26.2,95.5
				c0.2,3.7,3.1,6.6,6.8,6.7h0.1h228.7V531.2h56.2c3.3,0,6-2.7,6-6v-36c0-1.5-0.6-2.9-1.5-4h13.5c3.3,0,6-2.7,6-6v-90
				c0-3.3-2.7-6-6-6h-74.2v-20.5h74.2c3.3,0,6-2.7,6-6v-39.6c0-3.3-2.7-6-6-6h-74.2v-45.9c1,0.7,2.1,1.1,3.4,1.1h30c3.3,0,6-2.7,6-6
				v-30c0-3.3-2.7-6-6-6h-13.5c0.9-1.1,1.5-2.4,1.5-3.9v-30c0-3.3-2.7-6-6-6h-12c-1.3,0-2.4,0.4-3.4,1.1v-31.8
				c2.4,0.2,6.7,0.4,12.6,0.8c18.9,1.2,59.3,3.4,123.1,4.7c30.4,0.7,65,1.2,102.7,1.2c22,0,45.2-0.2,69.2-0.6
				c66.3-0.7,143.8-2.4,233.4-5.7v0.1l16.7-0.7c39.4-1.4,75.7-2.9,107.9-4.3h0.5c0.3,0,0.5,0,0.8-0.1c96.4-4.4,156.3-8.4,156.3-8.4
				V81.1z M514.2,225.3C514.2,225.4,514.2,225.4,514.2,225.3L514.2,225.3C514.2,225.3,514.2,225.3,514.2,225.3z"/>
			<path d="M570.6,618h-30c-3.3,0-6,2.7-6,6v30c0,3.3,2.7,6,6,6h30c3.3,0,6-2.7,6-6v-30C576.6,620.7,573.9,618,570.6,618z"/>
			<path d="M540.6,580h12c3.3,0,6-2.7,6-6v-30c0-1.4-0.5-2.8-1.4-3.8c-0.4-0.4-0.8-0.8-1.3-1.2c-1-0.6-2.1-1-3.3-1h-12
				c-3.3,0-6,2.7-6,6v30C534.6,577.3,537.3,580,540.6,580z"/>
		</g>
<!-- Langding BG End //-->
<!--
		<g id="Marriott_Base01_1_">
			<path class="st1" d="M273.9,594.8c-3.2,0-5.7-2.5-5.9-5.7c-0.6-11-5-32.5-15.1-46.4c-1.3-1.8-3.4-2.9-5.7-2.9
				c-1.2,0-2.4,0.3-3.5,0.9l-6.6,3.8c-0.8,0.4-1.6,0.7-2.5,0.7c-1.8,0-3.4-1-4.3-2.5L209,505.8c-0.7-1.2-0.8-2.5-0.5-3.8
				s1.2-2.4,2.3-3l9.9-5.7c0.7-0.4,1.2-1.1,1.4-1.9s0.1-1.6-0.4-2.3c-1.6-2.5-3.2-5.1-4.8-7.5c-0.6-0.9-1.5-1.4-2.5-1.4
				c-0.6,0-1.2,0.2-1.7,0.6l-9.8,7c-0.9,0.6-1.9,0.9-2.9,0.9c-1.6,0-3.1-0.8-4.1-2.1L171.2,452c-1.6-2.2-1.1-5.4,1.2-7l9-6.4
				c0.7-0.5,1.1-1.2,1.2-2.1c0.1-0.8-0.1-1.7-0.7-2.3c-2.2-2.6-4.4-5.2-6.6-7.7c-0.6-0.6-1.4-1-2.3-1c-0.8,0-1.5,0.3-2.1,0.8
				l-8.2,7.7c-0.9,0.9-2.1,1.3-3.4,1.3l0,0c-1.4,0-2.7-0.6-3.6-1.6c-3.3-3.5-8.5-9.1-13.8-14.7c-5.3-5.7-10.8-11.5-14.6-15.6
				c-1.4-1.5-2.1-2.9-2-4.3s0.8-2.8,2.3-4.2l2.4-2.3c1.5-1.4,2.3-3.3,2.2-5.4c-0.1-2-1-3.9-2.6-5.2c-8.6-6.8-16.6-12.3-23.9-16.3
				c-2-1.1-3.8-4.1-3.8-6.4v-326c0-5.1-4.2-9.3-9.3-9.4l-27.5-0.4C61.3,23.4,58,20,58,16v-61.3c0-4.1,3.3-7.4,7.4-7.4h6.8
				c4.7,0,8.6-3.9,8.6-8.6c0-2,0.7-3.8,2-5.2c1.3-1.4,3.2-2.2,5.1-2.2c0.7,0,1.4,0.1,2.1,0.3h0.1l111.8,8.5c0.9,0.3,1.7,0.4,2.6,0.4
				c2.8,0,5.5-1.4,7.3-3.6c1.7-2.3,2.3-5.2,1.5-8l-18.8-67.2c-0.8-2.9,0.2-6,2.5-7.8c31.7-24.9,158-54.7,579.7-55.2
				c3.9,0,392.3,3.6,554.7,12.9c2.6,0.1,4.7,2.3,4.7,5v325.2C1316.7,143,1007.4,161,744,161c-92.9,0-170.3-2.2-230-6.7l-1.1-0.1
				v440.5L273.9,594.8L273.9,594.8z"/>
			<path class="st2" d="M776.6-200.2L776.6-200.2c4,0,392.3,3.6,554.6,12.9c2.1,0.1,3.8,1.9,3.8,4V141
				c-26.8,1.6-331.3,19.1-591.1,19.1c-92.9,0-170.2-2.2-229.9-6.7l-2.1-0.2v2.2v438.4h-238h-0.1c-2.6,0-4.7-2.1-4.8-4.8
				c-0.5-9.6-4.3-31.7-15.3-47c-1.5-2.1-3.9-3.3-6.5-3.3c-1.4,0-2.8,0.4-4,1.1l-6.6,3.8c-0.6,0.4-1.3,0.5-2,0.5
				c-1.4,0-2.8-0.8-3.5-2l-21.3-36.8c-1.1-1.9-0.4-4.4,1.5-5.5l9.9-5.7c0.9-0.5,1.6-1.5,1.9-2.5c0.3-1.1,0.1-2.2-0.5-3.1
				c-1.6-2.5-3.2-5.1-4.8-7.5c-0.7-1.1-2-1.8-3.4-1.8c-0.8,0-1.6,0.3-2.3,0.7l-9.8,7c-0.7,0.5-1.5,0.7-2.3,0.7
				c-1.3,0-2.5-0.6-3.3-1.7L172,451.3c-1.3-1.8-0.9-4.3,0.9-5.6l9-6.4c0.9-0.6,1.5-1.7,1.7-2.8c0.1-1.1-0.2-2.2-0.9-3.1
				c-2.2-2.7-4.5-5.3-6.6-7.8c-0.8-0.9-1.9-1.4-3-1.4c-1,0-2,0.4-2.7,1.1l-8.2,7.7c-0.7,0.7-1.7,1.1-2.7,1.1c-1.1,0-2.2-0.4-2.9-1.3
				c-3.3-3.6-8.6-9.1-13.9-14.8c-5.3-5.7-10.7-11.4-14.5-15.5c-1.2-1.3-1.8-2.5-1.7-3.6c0-1.1,0.7-2.3,2-3.5l2.4-2.3
				c1.7-1.6,2.6-3.8,2.5-6.2c-0.1-2.3-1.2-4.5-3-5.9c-8.6-6.9-16.7-12.4-24-16.4c-1.7-0.9-3.3-3.6-3.3-5.5v-326
				c0-5.6-4.6-10.3-10.2-10.4l-27.5-0.4C61.8,22.4,59,19.5,59,16v-61.3c0-3.5,2.9-6.4,6.4-6.4h6.8c5.3,0,9.6-4.3,9.6-9.6l0,0l0,0
				c0-1.7,0.6-3.2,1.7-4.4c1.2-1.2,2.8-1.9,4.4-1.9c0.6,0,1.2,0.1,1.8,0.3l0.2,0.1h0.2l111.5,8.5c0.9,0.3,1.9,0.4,2.8,0.4
				c3.1,0,6.1-1.5,8.1-4c1.9-2.5,2.5-5.8,1.7-8.8l-18.8-67.2c-0.7-2.5,0.2-5.1,2.2-6.7c17-13.4,56.9-24.6,118.5-33.3
				C416.3-192.6,571.3-199.9,776.6-200.2 M776.6-202.2c-476.1,0.6-559.3,38.9-580.3,55.4c-2.7,2.1-3.8,5.6-2.9,8.8l18.8,67.2
				c1.5,5.4-2.7,10.3-7.8,10.3c-0.8,0-1.6-0.1-2.4-0.4L90.3-69.3c-0.8-0.2-1.6-0.4-2.4-0.4c-4.4,0-8.2,3.6-8.1,8.3
				c0,4.2-3.4,7.6-7.6,7.6h-6.8c-4.6,0-8.4,3.8-8.4,8.4V16c0,4.6,3.7,8.3,8.3,8.4l27.5,0.4c4.6,0.1,8.3,3.8,8.3,8.4v326
				c0,2.7,1.9,6,4.3,7.3c8,4.3,16.1,10.1,23.7,16.2c2.9,2.3,3,6.6,0.4,9.1l-2.4,2.3c-3.4,3.2-3.6,6.5-0.4,9.9
				c7.6,8.1,21.8,23.2,28.4,30.3c1.2,1.3,2.8,1.9,4.4,1.9c1.5,0,2.9-0.5,4.1-1.6l8.2-7.7c0.4-0.4,0.9-0.5,1.4-0.5
				c0.6,0,1.1,0.2,1.5,0.7c2.2,2.6,4.5,5.1,6.6,7.7c0.7,0.9,0.6,2.2-0.4,2.9l-9,6.4c-2.7,1.9-3.3,5.7-1.4,8.4l24.7,34.6
				c1.2,1.6,3,2.5,4.9,2.5c1.2,0,2.4-0.4,3.5-1.1l9.8-7c0.4-0.3,0.8-0.4,1.2-0.4c0.7,0,1.3,0.3,1.7,0.9c1.6,2.5,3.2,5,4.8,7.5
				c0.6,1,0.3,2.2-0.7,2.8l-9.9,5.7c-2.9,1.7-3.9,5.3-2.2,8.2l21.3,36.8c1.1,1.9,3.1,3,5.2,3c1,0,2-0.3,3-0.8l6.6-3.8
				c0.9-0.5,2-0.8,3-0.8c1.9,0,3.7,0.9,4.9,2.5c10.3,14.3,14.4,35.8,14.9,45.9c0.2,3.7,3.1,6.6,6.8,6.7h0.1h240V155.4
				c65.2,4.8,145.5,6.7,230.1,6.7c273.8,0,593.1-19.3,593.1-19.3v-326.1c0-3.2-2.5-5.8-5.6-6C1167.1-198.7,776.6-202.2,776.6-202.2
				L776.6-202.2z"/>
		</g>
-->
		<g id="RandingBase">
			<path class="st1" d="M283.1,528c-2.9,0-5.5-1.7-6.7-4.3c-10.3-22.9-48.9-101.4-114.5-152.1c-1.8-1.4-2.9-3.6-2.9-5.9V297
				c0-2.7,2.2-5,5-5h310c3.8,0,7,3.3,7,7.4v221.3c0,4.1-3.1,7.4-7,7.4H283.1V528z"/>
			<g>
				<path class="st2" d="M474,293c3.3,0,6,2.9,6,6.4v221.3c0,3.5-2.7,6.4-6,6.4H283c-2.5,0-4.8-1.5-5.8-3.8
					c-10.3-22.9-49-101.6-114.8-152.5c-1.5-1.2-2.5-3.1-2.5-5.1V297c0-2.2,1.8-4,4-4H474 M474,291H164c-3.3,0-6,2.7-6,6v68.7
					c0,2.6,1.2,5.1,3.2,6.7c66.1,51,104.9,131.1,114.2,151.7c1.4,3,4.3,4.9,7.6,4.9h191c4.4,0,8-3.7,8-8.4V299.4
					C482,294.7,478.4,291,474,291L474,291z"/>
			</g>
		</g>
	</g>
	<g id="Rooms">
		<a id="ldlgf102" xlink:href="#" >
			<g>
				<path class="st1" d="M348,384c-2.8,0-5-2.2-5-5v-42c0-2.8,2.2-5,5-5h128c2.8,0,5,2.2,5,5v42c0,2.8-2.2,5-5,5H348z"/>
				<path class="st2" d="M348,331v2h128c2.2,0,4,1.8,4,4v42c0,2.2-1.8,4-4,4H348c-2.2,0-4-1.8-4-4v-42c0-2.2,1.8-4,4-4V331 M348,331
					c-3.3,0-6,2.7-6,6v42c0,3.3,2.7,6,6,6h128c3.3,0,6-2.7,6-6v-42c0-3.3-2.7-6-6-6H348L348,331z"/>
			</g>
		</a>
		<a id="ldlgf103" xlink:href="#" >
			<g>
				<path class="st1" d="M348,436c-2.8,0-5-2.2-5-5v-42c0-2.8,2.2-5,5-5h128c2.8,0,5,2.2,5,5v42c0,2.8-2.2,5-5,5H348z"/>
				<path class="st2" d="M476,385c2.2,0,4,1.8,4,4v42c0,2.2-1.8,4-4,4H348c-2.2,0-4-1.8-4-4v-42c0-2.2,1.8-4,4-4H476 M476,383H348
					c-3.3,0-6,2.7-6,6v42c0,3.3,2.7,6,6,6h128c3.3,0,6-2.7,6-6v-42C482,385.7,479.3,383,476,383L476,383z"/>
			</g>
		</a>
		<a id="ldlgf104" xlink:href="#" >
			<g>
				<path class="st1" d="M348,488c-2.8,0-5-2.2-5-5v-42c0-2.8,2.2-5,5-5h128c2.8,0,5,2.2,5,5v42c0,2.8-2.2,5-5,5H348z"/>
				<path class="st2" d="M476,437c2.2,0,4,1.8,4,4v42c0,2.2-1.8,4-4,4H348c-2.2,0-4-1.8-4-4v-42c0-2.2,1.8-4,4-4H476 M476,435H348
					c-3.3,0-6,2.7-6,6v42c0,3.3,2.7,6,6,6h128c3.3,0,6-2.7,6-6v-42C482,437.7,479.3,435,476,435L476,435z"/>
			</g>
		</a>
		<a id="ldlgf105" xlink:href="#" >
			<g>
				<g>
					<path class="st3" d="M446,528c-2.8,0-5-2.2-5-5v-30c0-2.8,2.2-5,5-5h30c2.8,0,5,2.2,5,5v30c0,2.8-2.2,5-5,5H446z"/>
					<path class="st2" d="M476,489c2.2,0,4,1.8,4,4v30c0,2.2-1.8,4-4,4h-30c-2.2,0-4-1.8-4-4v-30c0-2.2,1.8-4,4-4H476 M476,487h-30
						c-3.3,0-6,2.7-6,6v30c0,3.3,2.7,6,6,6h30c3.3,0,6-2.7,6-6v-30C482,489.7,479.3,487,476,487L476,487z"/>
				</g>
				
					<image style="overflow:visible;" width="76" height="76" id="toilet_x5F_off_1_" xlink:href="./images/2x/toilet_off@2x.png" class="i_toilet" transform="matrix(0.5 0 0 0.5 442 489)">
				</image>
			</g>
		</a>
		<a id="ldlgf101" xlink:href="#" >
			<g>
				<g>
					<path class="st3" d="M256,332c-2.8,0-5-2.2-5-5v-30c0-2.8,2.2-5,5-5h30c2.8,0,5,2.2,5,5v30c0,2.8-2.2,5-5,5H256z"/>
					<path class="st2" d="M286,293c2.2,0,4,1.8,4,4v30c0,2.2-1.8,4-4,4h-30c-2.2,0-4-1.8-4-4v-30c0-2.2,1.8-4,4-4H286 M286,291h-30
						c-3.3,0-6,2.7-6,6v30c0,3.3,2.7,6,6,6h30c3.3,0,6-2.7,6-6v-30C292,293.7,289.3,291,286,291L286,291z"/>
				</g>
				
					<image style="overflow:visible;" width="76" height="76" id="toilet_x5F_off" xlink:href="./images/2x/toilet_off@2x.png" class="i_toilet" transform="matrix(0.5 0 0 0.5 252 293)">
				</image>
			</g>
		</a>
		<a id="ldlgf106" xlink:href="#" >
			<g>
				<g>
					<g>
						<path class="st3" d="M323,528c-2.8,0-5-2.2-5-5v-30c0-2.8,2.2-5,5-5h30c2.8,0,5,2.2,5,5v30c0,2.8-2.2,5-5,5H323z"/>
						<path class="st2" d="M353,489c2.2,0,4,1.8,4,4v30c0,2.2-1.8,4-4,4h-30c-2.2,0-4-1.8-4-4v-30c0-2.2,1.8-4,4-4H353 M353,487h-30
							c-3.3,0-6,2.7-6,6v30c0,3.3,2.7,6,6,6h30c3.3,0,6-2.7,6-6v-30C359,489.7,356.3,487,353,487L353,487z"/>
					</g>
				</g>
				
					<image style="overflow:visible;" width="76" height="76" id="atm_x5F_off" xlink:href="./images/2x/atm_off@2x.png" class="i_atm" transform="matrix(0.5 0 0 0.5 319 489)">
				</image>
			</g>
		</a>
		<g id="Elavator">
			<g>
				<g>
					<path class="st3" d="M164,372c-2.8,0-5-2.2-5-5v-30c0-2.8,2.2-5,5-5h30c2.8,0,5,2.2,5,5v30c0,2.8-2.2,5-5,5H164z"/>
					<path class="st2" d="M194,333c2.2,0,4,1.8,4,4v30c0,2.2-1.8,4-4,4h-30c-2.2,0-4-1.8-4-4v-30c0-2.2,1.8-4,4-4H194 M194,331h-30
						c-3.3,0-6,2.7-6,6v30c0,3.3,2.7,6,6,6h30c3.3,0,6-2.7,6-6v-30C200,333.7,197.3,331,194,331L194,331z"/>
				</g>
			</g>
			
				<image style="overflow:visible;" width="76" height="76" id="elevator_x5F_off" xlink:href="./images/2x/elevator_off@2x.png" class="i_elevator" transform="matrix(0.5 0 0 0.5 160 333)">
			</image>
		</g>
		<g id="Elavator_3_">
			<g>
				<g>
					<path class="st3" d="M388,332c-2.8,0-5-2.2-5-5v-30c0-2.8,2.2-5,5-5h30c2.8,0,5,2.2,5,5v30c0,2.8-2.2,5-5,5H388z"/>
					<path class="st2" d="M418,293c2.2,0,4,1.8,4,4v30c0,2.2-1.8,4-4,4h-30c-2.2,0-4-1.8-4-4v-30c0-2.2,1.8-4,4-4H418 M418,291h-30
						c-3.3,0-6,2.7-6,6v30c0,3.3,2.7,6,6,6h30c3.3,0,6-2.7,6-6v-30C424,293.7,421.3,291,418,291L418,291z"/>
				</g>
			</g>
			
				<image style="overflow:visible;" width="76" height="76" id="elevator_x5F_off_1_" xlink:href="./images/2x/elevator_off@2x.png" class="i_elevator" transform="matrix(0.5 0 0 0.5 384 293)">
			</image>
		</g>
		<g id="Stairs_1_">
			<g>
				<path class="st3" d="M348,332c-2.8,0-5-2.2-5-5v-30c0-2.8,2.2-5,5-5h30c2.8,0,5,2.2,5,5v30c0,2.8-2.2,5-5,5H348z"/>
				<path class="st2" d="M378,293c2.2,0,4,1.8,4,4v30c0,2.2-1.8,4-4,4h-30c-2.2,0-4-1.8-4-4v-30c0-2.2,1.8-4,4-4H378 M378,291h-30
					c-3.3,0-6,2.7-6,6v30c0,3.3,2.7,6,6,6h30c3.3,0,6-2.7,6-6v-30C384,293.7,381.3,291,378,291L378,291z"/>
			</g>
			
				<image style="overflow:visible;" width="76" height="76" id="escal_x5F_off" xlink:href="./images/2x/escal_off@2x.png" class="i_escal" transform="matrix(0.5 0 0 0.5 344 293)">
			</image>
		</g>
	</g>
	<g id="Exit_10_">
		<g>
			<path class="st3" d="M164,332c-2.8,0-5-2.2-5-5v-30c0-2.8,2.2-5,5-5h12c2.8,0,5,2.2,5,5v30c0,2.8-2.2,5-5,5H164z"/>
			<path class="st2" d="M176,293c2.2,0,4,1.8,4,4v30c0,2.2-1.8,4-4,4h-12c-2.2,0-4-1.8-4-4v-30c0-2.2,1.8-4,4-4H176 M176,291h-12
				c-3.3,0-6,2.7-6,6v30c0,3.3,2.7,6,6,6h12c3.3,0,6-2.7,6-6v-30C182,293.7,179.3,291,176,291L176,291z"/>
			
				<image style="overflow:visible;" width="40" height="76" id="stairs_x5F_off" xlink:href="./images/2x/stairs_off@2x.png" class="i_stairs"  transform="matrix(0.5 0 0 0.5 160 293)">
			</image>
		</g>
	</g>
	<g id="Exit_11_">
		<g>
			<path class="st3" d="M220.8,455.2c-2.8,0-5-2.2-5-5v-30c0-2.8,2.2-5,5-5h12c2.8,0,5,2.2,5,5v30c0,2.8-2.2,5-5,5H220.8z"/>
			<path class="st2" d="M232.8,416.2c2.2,0,4,1.8,4,4v30c0,2.2-1.8,4-4,4h-12c-2.2,0-4-1.8-4-4v-30c0-2.2,1.8-4,4-4H232.8
				 M232.8,414.2h-12c-3.3,0-6,2.7-6,6v30c0,3.3,2.7,6,6,6h12c3.3,0,6-2.7,6-6v-30C238.8,416.9,236.1,414.2,232.8,414.2L232.8,414.2
				z"/>
			
				<image style="overflow:visible;" width="40" height="76" id="stairs_x5F_off_1_" xlink:href="./images/2x/stairs_off@2x.png" class="i_stairs" transform="matrix(0.5 0 0 0.5 216.8 416.2)">
			</image>
		</g>
	</g>
	<g id="SpotnameLGF" class="spotname">
		<text id="ldlgf102" text-anchor="middle" transform="matrix(1 0 0 1 410 362)" class="st2 st4 st5">  A</text>
		<text id="ldlgf103" text-anchor="middle" transform="matrix(1 0 0 1 410 414)" class="st2 st4 st5">  B</text>
		<text id="ldlgf104" text-anchor="middle" transform="matrix(1 0 0 1 410 466)" class="st2 st4 st5">  C</text>
	</g>
	<g id="Portals">
		<line id="Stair.2.floorGfLd" class="st6" x1="350" y1="313" x2="357" y2="306"/>
		<line id="Elev.6.floorGfLd" class="st6" x1="179" y1="365" x2="186" y2="358"/>
		<line id="Elev.7.floorGfLd" class="st6" x1="390" y1="323" x2="397" y2="316"/>
	</g>
	<g id="Doors">
		<line id="ldlgf101" class="st7" x1="270" y1="325" x2="277" y2="318"/>
		<line id="ldlgf102" class="st7" x1="354" y1="358" x2="361" y2="351"/>
		<line id="ldlgf103" class="st7" x1="354" y1="411" x2="361" y2="404"/>
		<line id="ldlgf104" class="st7" x1="354" y1="463" x2="361" y2="456"/>
		<line id="ldlgf106" class="st7" x1="338" y1="521" x2="345" y2="514"/>
		<line id="ldlgf105" class="st7" x1="462" y1="521" x2="469" y2="514"/>
	</g>
	<g id="Paths">
		<line class="st8" x1="270" y1="343" x2="270" y2="325"/>
		<line class="st8" x1="270" y1="358" x2="270" y2="343"/>
		<line class="st8" x1="270" y1="381" x2="270" y2="358"/>
		<line class="st8" x1="270" y1="411" x2="270" y2="381"/>
		<line class="st8" x1="332" y1="313" x2="350" y2="313"/>
		<line class="st8" x1="332" y1="323" x2="332" y2="313"/>
		<line class="st8" x1="332" y1="358" x2="332" y2="323"/>
		<line class="st8" x1="332" y1="411" x2="332" y2="358"/>
		<line class="st8" x1="332" y1="463" x2="332" y2="411"/>
		<line class="st8" x1="332" y1="323" x2="390" y2="323"/>
		<line class="st8" x1="310" y1="323" x2="332" y2="323"/>
		<line class="st8" x1="310" y1="343" x2="310" y2="323"/>
		<line class="st8" x1="270" y1="343" x2="310" y2="343"/>
		<line class="st8" x1="270" y1="358" x2="332" y2="358"/>
		<line class="st8" x1="270" y1="411" x2="332" y2="411"/>
		<line class="st8" x1="270" y1="463" x2="270" y2="411"/>
		<line class="st8" x1="312" y1="545" x2="270" y2="463"/>
		<line class="st8" x1="270" y1="463" x2="332" y2="463"/>
		<line class="st8" x1="312" y1="545" x2="338" y2="545"/>
		<line class="st8" x1="338" y1="545" x2="462" y2="545"/>
		<line class="st8" x1="179" y1="381" x2="270" y2="381"/>
		<line class="st8" x1="332" y1="358" x2="354" y2="358"/>
		<line class="st8" x1="332" y1="411" x2="354" y2="411"/>
		<line class="st8" x1="332" y1="463" x2="354" y2="463"/>
		<line class="st8" x1="338" y1="545" x2="338" y2="521"/>
		<line class="st8" x1="462" y1="545" x2="462" y2="521"/>
		<line class="st8" x1="179" y1="381" x2="179" y2="365"/>
	</g>
</g>
</svg>
