<?xml version="1.0" encoding="utf-8"?>
<!-- Generator: Adobe Illustrator 23.0.0, SVG Export Plug-In . SVG Version: 6.00 Build 0)  -->
<svg version="1.1" xmlns="http://www.w3.org/2000/svg" xmlns:xlink="http://www.w3.org/1999/xlink" x="0px" y="0px"
	 viewBox="0 0 1400 730" style="enable-background:new 0 0 1400 730;" xml:space="preserve" width="1400px" height="730px" id="shf101">
<style type="text/css">
	#shf101 .st0{fill:#CBD5DD;}
	#shf101 .st1{fill:#F2F2F2;}
	#shf101 .st2{fill:#B3B3B3;}
	#shf101 .st3{fill:#EAEAEA;}
	#shf101 .st4{fill:#A5855B;}
	#shf101 .st5{fill:#C69C6D;}
	#shf101 .st6{fill:#B4C8D1;}
	#shf101 .st7{fill:none;stroke:#EF405C;}
	#shf101 .st8{fill:url(#SVGID_sh11);}
	#shf101 .st9{fill:url(#SVGID_sh12);}
	#shf101 .st10{fill:#EF405C;}
	#shf101 .st11{fill:#C72D46;}
	#shf101 .st12{fill:#FFFFFF;}
	#shf101 .st13{font-family:'NotoSans';}
	#shf101 .st14{font-size:12px;}
	#shf101 .st15{fill:none;stroke:#00FF00;}
	#shf101 .st16{fill:none;stroke:#FF00FF;}
</style>
<g id="BG">
	<rect class="st0" width="1400" height="730"/>
</g>
<g id="Road">
	<g>
		<path class="st1" d="M1650,763.4c0-6.7-2.6-13-7.3-17.7L1443.9,547c-4.7-4.7-11-7.3-17.7-7.3s-13,2.6-17.7,7.3l-257,257
			c-4.3,4.3-10.1,6.7-16.3,6.7H989.5c-10.7,0-20.2,6.9-23.7,17.2c-12.1,35.6-45.4,59.6-82.9,59.6c-0.4,0-0.9,0-1.3,0
			c-47.5-0.7-86.2-40.4-86.2-88.4v-40c0-48.8,39.3-88.5,87.5-88.5h0.9c38.7,0.4,73,26.8,83.4,64.1c3,10.7,12.9,18.2,24.2,18.2H1111
			c6.7,0,13-2.6,17.8-7.4l239.4-239.4c4.7-4.7,7.3-11,7.3-17.7s-2.6-13-7.3-17.7l-123.4-123.3c-4.7-4.7-11-7.3-17.7-7.3h-661
			c-13.9,0-25.1,11.3-25.1,25.1V405h-58V2.4h58v253.9c0,13.9,11.3,25.1,25.1,25.1h216.3c13.9,0,25.1-11.3,25.1-25.1V2.4h58v253.9
			c0,13.9,11.3,25.1,25.1,25.1h361.1c6.1,0,11.9,2.4,16.3,6.7l433.7,433.6c4.3,4.3,6.7,10.1,6.7,16.3L1650,763.4z"/>
		<path class="st2" d="M864.6,3.4v252.9c0,14.4,11.7,26.1,26.1,26.1h361.1c5.9,0,11.4,2.3,15.6,6.4l433.7,433.6
			c4.2,4.2,6.4,9.7,6.4,15.6l2.8-0.1c0-6.4-2.5-12.5-7-17l-433.7-433.6c-4.5-4.5-10.6-7-17-7H890.7c-13.3,0-24.1-10.8-24.1-24.1V1.5
			l-0.1-0.1l0,0h-59.7c-0.1,0-0.1,0.1-0.1,0.1v254.7c0,13.3-10.8,24.1-24.1,24.1H566.1c-13.3,0-24.1-10.8-24.1-24.1V1.5
			c0-0.1-0.1-0.1-0.1-0.1h-59.7c-0.1,0-0.1,0.1-0.1,0.1v404.3c0,0.1,0.1,0.1,0.1,0.1h59.7c0.1,0,0.1-0.1,0.1-0.1v-41.3
			c0-13.3,10.8-24.1,24.1-24.1H1227c6.4,0,12.5,2.5,17,7l123.4,123.3c9.4,9.4,9.4,24.6,0,33.9L1128,744c-4.5,4.5-10.7,7.1-17.1,7.1
			H991.4c-10.8,0-20.3-7.1-23.2-17.4c-10.3-37-44.3-64.4-84.4-64.8c-0.3,0-0.6,0-0.9,0c-49,0-88.5,40.4-88.5,89.5v40
			c0,48.5,38.7,88.7,87.2,89.4c0.4,0,0.9,0,1.3,0c38.8,0,72-25.3,83.8-60.2c3.3-9.8,12.4-16.5,22.8-16.5h146.4c6.4,0,12.5-2.5,17-7
			l257-257c4.7-4.7,10.8-7,17-7c6.1,0,12.3,2.3,17,7l198.8,198.7c4.5,4.5,7,10.6,7,17l2.3-0.2c0-6.9-2.7-13.5-7.6-18.4l-198.8-198.7
			c-4.9-4.9-11.4-7.6-18.4-7.6c-6.9,0-13.5,2.7-18.4,7.6l-257,257c-4.2,4.2-9.7,6.4-15.6,6.4H989.5c-11.1,0-21,7.2-24.7,17.9
			c-5.8,17-16.5,31.6-31.1,42.2c-14.9,10.9-32.5,16.6-50.8,16.6c-0.4,0-0.8,0-1.3,0c-22.9-0.3-44.3-9.6-60.4-26.2
			c-16-16.5-24.8-38.2-24.8-61.3v-40c0-23.3,9-45.2,25.3-61.8c16.4-16.6,38.1-25.7,61.2-25.7c0.3,0,0.6,0,0.9,0
			C922,671,955.9,697,966.2,734c3.1,11.1,13.4,18.9,25.1,18.9H1111c7,0,13.5-2.7,18.5-7.7l239.4-239.4c4.9-4.9,7.6-11.4,7.6-18.4
			c0-6.9-2.7-13.5-7.6-18.4l-123.5-123c-4.9-4.9-11.4-7.6-18.4-7.6H566.1c-14.4,0-26.1,11.7-26.1,26.1V404h-56V3.4h56v252.9
			c0,14.4,11.7,26.1,26.1,26.1h216.3c14.4,0,26.1-11.7,26.1-26.1V3.4H864.6"/>
	</g>
	<g>
		<path class="st0" d="M883.5,832c-21,0-38-17-38-38v-30c0-21,17-38,38-38s38,17,38,38v30C921.5,814.9,904.5,832,883.5,832z"/>
		<path class="st2" d="M883.5,727c20.4,0,37,16.6,37,37v30c0,20.4-16.6,37-37,37s-37-16.6-37-37v-30
			C846.5,743.6,863.1,727,883.5,727 M883.5,725L883.5,725c-21.5,0-39,17.5-39,39v30c0,21.4,17.5,39,39,39l0,0c21.5,0,39-17.5,39-39
			v-30C922.5,742.5,905,725,883.5,725L883.5,725z"/>
	</g>
</g>
<g id="Layer_3">
	<g id="Base_2_">
		<g id="메리어트관_2_">
			<g>
				<path class="st3" d="M1462.9,1325v-87.9c0-3.9-3.1-7-7-7h-259.1c-3.9,0-7,3.1-7,7v30c0,2.8-2.2,5-5,5H807c-2.8,0-5-2.2-5-5v-108
					c0-2.8,2.2-5,5-5h377.8c2.8,0,5,2.2,5,5v30c0,3.9,3.1,7,7,7h259.1c3.9,0,7-3.1,7-7v-42.8c0-3.9-3.1-7-7-7H1426c-2.8,0-5-2.2-5-5
					V808.4c0-1.9-0.7-3.6-2-4.9L1302.5,687c-1.9-1.9-1.9-5.1,0-7.1l76.3-76.4c0.9-0.9,2.2-1.5,3.5-1.5s2.6,0.5,3.5,1.5l151.6,151.7
					c0.9,0.9,1.5,2.2,1.5,3.5v375.6c0,2.8-2.2,5-5,5h-30.1c-3.9,0-7,3.1-7,7v179L1462.9,1325z"/>
				<path class="st4" d="M1382.3,603c1.1,0,2.1,0.4,2.8,1.2l151.6,151.7c0.8,0.8,1.2,1.8,1.2,2.8v375.6c0,2.2-1.8,4-4,4h-30.1
					c-4.4,0-8,3.6-8,8v179l1.9-0.1v-179c0-3.3,2.7-6,6-6h30.1c3.3,0,6-2.7,6-6V758.7c0-1.6-0.6-3.1-1.8-4.2l-151.6-151.7
					c-1.1-1.2-2.6-1.8-4.1-1.8l0,0c-1.5,0-3.1,0.6-4.2,1.8l-76.3,76.4c-2.3,2.3-2.3,6.1,0,8.5l116.5,116.5c1.1,1.1,1.8,2.7,1.8,4.2
					v325.9c0,3.3,2.7,6,6,6h29.9c3.3,0,6,2.7,6,6v42.8c0,3.3-2.7,6-6,6h-259.1c-3.3,0-6-2.7-6-6v-30c0-3.3-2.7-6-6-6H807
					c-3.3,0-6,2.7-6,6v108c0,3.3,2.7,6,6,6h377.8c3.3,0,6-2.7,6-6v-30c0-3.3,2.7-6,6-6h259.1c3.3,0,6,2.7,6,6v87.9h2v-87.9
					c0-4.4-3.6-8-8-8h-259.1c-4.4,0-8,3.6-8,8v30c0,2.2-1.8,4-4,4H807c-2.2,0-4-1.8-4-4v-108c0-2.2,1.8-4,4-4h377.8c2.2,0,4,1.8,4,4
					v30c0,4.4,3.6,8,8,8h259.1c4.4,0,8-3.6,8-8v-42.8c0-4.4-3.6-8-8-8H1426c-2.2,0-4-1.8-4-4V808.4c0-2.1-0.8-4.1-2.3-5.7
					l-116.5-116.5c-1.6-1.6-1.6-4.1,0-5.7l76.3-76.4C1380.2,603.4,1381.2,603,1382.3,603"/>
			</g>
		</g>
		<g id="Shinhwa_2_">
			<g>
				<path class="st3" d="M347.4,1320.2c-2.2,0-4.1-1.4-4.8-3.5l-32.2-100c-0.8-2.6,0.6-5.4,3.2-6.3c30.5-9.9,144.3-43.1,326.8-52.5
					c3.7-0.2,6.6-3.3,6.6-7v-119.7c0-3.9-3.1-7-7-7h-40.2c-2.8,0-5-2.2-5-5v-75.6c0-0.6-0.4-1-1-1h-93c-3.9,0-7,3.1-7,7V1114
					c0,2.8-2.2,5-5,5H127c-2.8,0-5-2.2-5-5v-75.2c0-3.7,2.8-6.9,6.5-7.3c39.6-4.9,76.9-16.3,110.9-33.9c32.6-16.9,61.4-39,85.8-65.9
					c48.2-53.1,75.8-121.8,77.7-193.4c0.1-4.1,3.4-7.2,7.4-7.2h78.5c2.8,0,5,2.2,5,5v147.6c0,3.9,3.1,7,7,7h93c0.6,0,1-0.4,1-1
					V575.2c0-3.9-3.1-7-7-7h-60c-2.8,0-5-2.2-5-5v-132c0-2.8,2.2-5,5-5h204c2.8,0,5,2.2,5,5V460c0,3.9,3.1,7,7,7H850
					c3.9,0,7-3.1,7-7v-28.8c0-2.8,2.2-5,5-5h78.6c0.6,0,1-0.4,1-1V202h34.6v223.2c0,0.6,0.4,1,1,1h224.3c1.3,0,2.6,0.5,3.5,1.5
					L1308.3,531c1.9,1.9,1.9,5.1,0,7.1l-76.4,76.4c-0.9,0.9-2.2,1.5-3.5,1.5s-2.6-0.5-3.5-1.5l-68.1-68.1c-1.3-1.3-3.1-2.1-4.9-2.1
					H862.1c-2.8,0-5-2.2-5-5V508c0-3.9-3.1-7-7-7H743.9c-3.9,0-7,3.1-7,7v229.8c0,3.9,3.1,7,7,7h13.8c2.8,0,5,2.2,5,5v60
					c0,2.8-2.2,5-5,5h-13.8c-3.9,0-7,3.1-7,7v197.4c0,2.8-2.2,5-5,5h-43.8c-3.9,0-7,3.1-7,7V1149c0,1.9,0.7,3.6,2.1,5
					c1.3,1.3,3.1,2,4.9,2h0.2c14.4-0.4,29.1-0.6,43.6-0.6c2.8,0,5,2.2,5,5v104.2c0,4-2.3,6.4-6.4,6.4
					c-41.4,0.2-254.6,3.3-381.4,48.9C348.6,1320.1,348,1320.2,347.4,1320.2z"/>
				<path class="st4" d="M975.3,203v222.2c0,1.1,0.9,2,2,2h224.3c1.1,0,2.1,0.4,2.8,1.2l103.3,103.3c1.6,1.6,1.6,4.1,0,5.7
					l-76.4,76.4c-0.8,0.8-1.8,1.2-2.8,1.2c-1.1,0-2.1-0.4-2.8-1.2l-68.1-68.1c-1.5-1.5-3.5-2.3-5.7-2.3H862.1c-2.2,0-4-1.8-4-4V508
					c0-4.4-3.6-8-8-8H743.9c-4.4,0-8,3.6-8,8v229.8c0,4.4,3.6,8,8,8h13.8c2.2,0,4,1.8,4,4v60c0,2.2-1.8,4-4,4h-13.8
					c-4.4,0-8,3.6-8,8v197.4c0,2.2-1.8,4-4,4h-43.8c-4.4,0-8,3.6-8,8V1149c0,4.4,3.6,8,8,8c0.1,0,0.1,0,0.2,0
					c14.4-0.4,29.1-0.6,43.6-0.6c2.2,0,4,1.8,4,4v104.2c0,3.5-1.9,5.4-5.4,5.4c-98.9,0.4-189.1,7.5-267.9,21.1
					c-63.6,11-100.8,23.1-113.8,27.8c-0.4,0.2-0.9,0.2-1.3,0.2c-1.7,0-3.3-1.1-3.8-2.8l-32.2-100c-0.7-2.1,0.5-4.4,2.6-5
					c12.7-4.1,48.2-14.9,103.6-25.8c69.3-13.6,144.2-22.6,222.9-26.7c4.3-0.2,7.6-3.7,7.6-8v-119.7c0-4.4-3.6-8-8-8H600
					c-2.2,0-4-1.8-4-4v-75.6c0-1.1-0.9-2-2-2h-93c-4.4,0-8,3.6-8,8V1114c0,2.2-1.8,4-4,4H127c-2.2,0-4-1.8-4-4v-75.2
					c0-3.2,2.4-6,5.6-6.3c39.7-4.9,77.1-16.4,111.2-34c32.7-16.9,61.6-39.1,86.1-66.1c48.3-53.3,76-122.2,78-194
					c0.1-3.5,2.9-6.3,6.4-6.3h78.5c2.2,0,4,1.8,4,4v147.6c0,4.4,3.6,8,8,8h93c1.1,0,2-0.9,2-2V575.2c0-4.4-3.6-8-8-8h-60
					c-2.2,0-4-1.8-4-4v-132c0-2.2,1.8-4,4-4h204c2.2,0,4,1.8,4,4V460c0,4.4,3.6,8,8,8H850c4.4,0,8-3.6,8-8v-28.8c0-2.2,1.8-4,4-4
					h78.6c1.1,0,2-0.9,2-2V203H975.3 M977.3,201h-36.6v224.2h-78.6c-3.3,0-6,2.7-6,6V460c0,3.3-2.7,6-6,6H743.9c-3.3,0-6-2.7-6-6
					v-28.8c0-3.3-2.7-6-6-6h-204c-3.3,0-6,2.7-6,6v132c0,3.3,2.7,6,6,6h60c3.3,0,6,2.7,6,6v314.4h-93c-3.3,0-6-2.7-6-6V736
					c0-3.3-2.7-6-6-6h-78.5c-4.6,0-8.3,3.6-8.4,8.2c-3.9,144.5-111.5,272.1-273.6,292.2c-4.2,0.5-7.3,4.1-7.3,8.3v75.2
					c0,3.3,2.7,6,6,6H489c3.3,0,6-2.7,6-6V949.6c0-3.3,2.7-6,6-6h93v75.6c0,3.3,2.7,6,6,6h40.2c3.3,0,6,2.7,6,6v119.7
					c0,3.2-2.5,5.8-5.7,6c-185.2,9.6-300.9,44.1-327,52.6c-3.1,1-4.9,4.4-3.8,7.5l32.2,100c0.8,2.5,3.2,4.2,5.7,4.2
					c0.7,0,1.4-0.1,2-0.4c26.8-9.6,148.7-47.9,381-48.8c4.6,0,7.4-2.8,7.4-7.4v-104.2c0-3.3-2.7-6-6-6l0,0
					c-14.9,0-29.4,0.3-43.6,0.6c-0.1,0-0.1,0-0.2,0c-3.3,0-6-2.7-6-6v-117.8c0-3.3,2.7-6,6-6H732c3.3,0,6-2.7,6-6V821.8
					c0-3.3,2.7-6,6-6h13.8c3.3,0,6-2.7,6-6v-60c0-3.3-2.7-6-6-6H744c-3.3,0-6-2.7-6-6V508c0-3.3,2.7-6,6-6h106.2c3.3,0,6,2.7,6,6
					v31.2c0,3.3,2.7,6,6,6H1152c1.6,0,3.1,0.6,4.2,1.8l68.1,68.1c1.2,1.2,2.7,1.8,4.2,1.8s3.1-0.6,4.2-1.8l76.4-76.4
					c2.3-2.3,2.3-6.1,0-8.5L1205.8,427c-1.1-1.1-2.7-1.8-4.2-1.8H977.3V201L977.3,201z"/>
			</g>
			<g>
				<g>
					<path class="st5" d="M564.7,682.5c-1.5,0-6.7-0.2-11.3-2.8c-5.8-3.2-8.7-8.8-8.7-16.6c0-15.6-20.1-46.9-32-64.2
						c-4.9-7.1-7.6-15.5-7.6-24.1v-1.7c0-2.8,2.2-5,5-5h77.8c3.9,0,7,3.1,7,7v107.4h-29.6C565.2,682.5,565,682.5,564.7,682.5z"/>
					<path class="st4" d="M587.9,569.1c3.3,0,6,2.7,6,6v106.4h-28.6h-0.1c0,0-0.2,0-0.5,0c-1.4,0-6.4-0.2-10.8-2.7
						c-5.4-3-8.2-8.3-8.2-15.7c0-15.9-20.2-47.4-32.2-64.7c-4.8-7-7.4-15.1-7.4-23.5v-1.7c0-2.2,1.8-4,4-4L587.9,569.1 M587.9,567.1
						h-77.8c-3.3,0-6,2.7-6,6v1.7c0,8.8,2.7,17.4,7.7,24.7c11.5,16.6,31.9,48.1,31.9,63.6c0,19.4,17.5,20.4,21,20.4
						c0.4,0,0.6,0,0.6,0h30.6V575.1C595.9,570.7,592.3,567.1,587.9,567.1L587.9,567.1z"/>
				</g>
				<path class="st4" d="M595.9,576.5h-91.8c0,0.4,0,0.8,0.1,1.2h91.7V576.5z"/>
				<path class="st4" d="M507.4,591.5h88.5v-1.2H507C507.1,590.7,507.2,591.1,507.4,591.5z"/>
				<path class="st4" d="M515.7,605.3h80.1v-1.2h-80.9C515.2,604.5,515.5,604.9,515.7,605.3z"/>
				<path class="st4" d="M524.7,619.1h71.2v-1.2H524C524.2,618.3,524.4,618.7,524.7,619.1z"/>
				<path class="st4" d="M532.7,632.9h63.2v-1.2H532C532.3,632.1,532.5,632.5,532.7,632.9z"/>
				<path class="st4" d="M539.4,646.7h56.5v-1.2h-57C539,645.9,539.2,646.3,539.4,646.7z"/>
				<path class="st4" d="M543.5,660.5h52.4v-1.2h-52.6C543.4,659.7,543.4,660.1,543.5,660.5z"/>
				<path class="st4" d="M546.3,674.3h49.5v-1.2h-50.2C545.9,673.5,546.1,673.9,546.3,674.3z"/>
			</g>
		</g>
		<g id="Parking_2_">
			<g id="jsw_x5F_park06_1_">
				<path class="st6" d="M927,202c-6.1,0-11-4.9-11-11V57c0-6.1,4.9-11,11-11h302c6.1,0,11,4.9,11,11v134c0,6.1-4.9,11-11,11H927z"
					/>
				<g>
					<path class="st2" d="M1229,47c5.5,0,10,4.5,10,10v134c0,5.5-4.5,10-10,10H927c-5.5,0-10-4.5-10-10V57c0-5.5,4.5-10,10-10H1229
						 M1229,45H927c-6.6,0-12,5.4-12,12v134c0,6.6,5.4,12,12,12h302c6.6,0,12-5.4,12-12V57C1241,50.4,1235.6,45,1229,45L1229,45z"/>
				</g>
			</g>
		</g>
		<g>
			
		</g>
	</g>
	<g id="Rooms">
		<g id="sh1f101_1">
			<path class="st3" d="M614.3,742.8c-8.7,0-16.9-1.5-19.4-2v-67.6c6,1.5,33.7,10.2,44.3,43.5c2.5,7.7,2.1,13.8-1,18.1
				C633.4,741.5,622.5,742.8,614.3,742.8z"/>
			<path class="st4" d="M595.9,674.6c7.7,2.2,32.5,11.5,42.4,42.5c2.4,7.4,2.1,13.2-0.8,17.2c-4.6,6.3-15.1,7.6-23.1,7.6
				c-7.9,0-15.3-1.2-18.4-1.8v-65.5 M593.9,672v69.7c0,0,9.7,2.2,20.4,2.2c15.5,0,33.1-4.6,25.9-27.4
				C627.9,678.1,593.9,672,593.9,672L593.9,672z"/>
		</g>
		<g id="sh1f101_2">
			<path class="st3" d="M594.9,671v-95.8c0-3.9-3.1-7-7-7h-60c-2.8,0-5-2.2-5-5v-86.4h123.2c2.8,0,5,2.2,5,5V666c0,2.8-2.2,5-5,5
				H594.9z"/>
			<g>
				<path class="st4" d="M523.9,475.8L523.9,475.8L523.9,475.8 M646.1,477.8c2.2,0,4,1.8,4,4V666c0,2.2-1.8,4-4,4h-50.2v-94.8
					c0-4.4-3.6-8-8-8h-60c-2.2,0-4-1.8-4-4v-85.4L646.1,477.8 M646.1,475.8H521.9v87.4c0,3.3,2.7,6,6,6h60c3.3,0,6,2.7,6,6V672h52.2
					c3.3,0,6-2.7,6-6V481.8C652.1,478.5,649.4,475.8,646.1,475.8L646.1,475.8z"/>
			</g>
		</g>
		<g id="lobbysh1f_2" class="svg_lobby_mark">
			<g>
				
					<linearGradient id="SVGID_sh11" gradientUnits="userSpaceOnUse" x1="2095.8655" y1="14" x2="2117.8655" y2="14" gradientTransform="matrix(-1 0 0 -1 2829.8655 730)">
					<stop  offset="0.1" style="stop-color:#EF405C;stop-opacity:0"/>
					<stop  offset="0.8" style="stop-color:#EF405C"/>
				</linearGradient>
				<polygon class="st8" points="734,701 712,716 734,731 				"/>
				
					<linearGradient id="SVGID_sh12" gradientUnits="userSpaceOnUse" x1="734" y1="14" x2="712" y2="14" gradientTransform="matrix(1 0 0 -1 0 730)">
					<stop  offset="0.1" style="stop-color:#EF405C;stop-opacity:0"/>
					<stop  offset="0.8" style="stop-color:#B30521"/>
				</linearGradient>
				<path class="st9" d="M733,702.9v26.2L713.8,716L733,702.9 M734,701l-22,15l22,15V701L734,701z"/>
			</g>
			<g>
				<path class="st10" d="M713.1,717.5c-0.1,0-0.3,0-0.4-0.2l-8.1-13.3c-0.7-1.3-1-2.7-1-4.2c0-2.5,1-4.9,2.8-6.6
					c1.8-1.7,4.2-2.7,6.7-2.7h0.1c5.1,0.1,9.3,4.2,9.4,9.2c0,1.5-0.3,2.9-1,4.3l-8.1,13.3C713.4,717.5,713.2,717.5,713.1,717.5z
					 M713,696c-2.2,0-4,1.8-4,4s1.8,4,4,4s4-1.8,4-4S715.2,696,713,696z"/>
				<path class="st11" d="M713.1,691L713.1,691c5,0.1,8.9,4,9,8.7c0,1.4-0.3,2.8-1,4l-8,13.2l-8-13.2c-0.6-1.2-1-2.6-1-3.9
					c0-2.4,0.9-4.6,2.7-6.3C708.5,691.9,710.7,691,713.1,691 M713,704.5c2.5,0,4.5-2,4.5-4.5s-2-4.5-4.5-4.5s-4.5,2-4.5,4.5
					S710.5,704.5,713,704.5 M713.1,690c-2.6,0-5.1,1-7,2.8c-1.9,1.9-3,4.3-3,7c0,1.6,0.4,3.1,1.1,4.4l8.1,13.3
					c0.2,0.4,0.6,0.5,0.8,0.5s0.6,0,0.8-0.5l8.1-13.3c0.7-1.4,1.1-2.9,1.1-4.5C723.1,694.4,718.6,690,713.1,690
					C713.2,690,713.1,690,713.1,690L713.1,690z M713,703.5c-1.9,0-3.5-1.6-3.5-3.5s1.6-3.5,3.5-3.5s3.5,1.6,3.5,3.5
					S714.9,703.5,713,703.5L713,703.5z"/>
			</g>
		</g>
		<a id="jswpark06" xlink:href="#" >
			<g>
				<g>
					<path class="st12" d="M1062.2,143.5c-2.2,0-4-1.8-4-4v-32c0-2.2,1.8-4,4-4h32c2.2,0,4,1.8,4,4v32c0,2.2-1.8,4-4,4H1062.2z"/>
					<path class="st4" d="M1094.2,104.5c1.7,0,3,1.3,3,3v32c0,1.7-1.3,3-3,3h-32c-1.7,0-3-1.3-3-3v-32c0-1.7,1.3-3,3-3H1094.2
						 M1094.2,102.5h-32c-2.8,0-5,2.2-5,5v32c0,2.8,2.2,5,5,5h32c2.8,0,5-2.2,5-5v-32C1099.2,104.7,1097,102.5,1094.2,102.5
						L1094.2,102.5z"/>
				</g>
					<image style="overflow:visible;enable-background:new ;" width="76" height="76" id="parking_x5F_off" xlink:href="./images/2x/parking_off@2x.png" class="i_parking"  transform="matrix(0.5 0 0 0.5 1059.2 104.5)">
				</image>
			</g>
		</a>
	</g>
	<g id="Spotname1Fsh_2_" class="spotname">
		<text id="shinhwa" text-anchor="middle" transform="matrix(1 0 0 1 1050 492)" class="st4 st13 st14">신화관</text>
		<text id="shlounge" text-anchor="middle" transform="matrix(1 0 0 1 616 710)"><tspan x="0" y="0" class="st4 st13 st14">신화</tspan><tspan x="0" y="14" class="st4 st13 st14">라운지</tspan></text>
		<text id="sh1f101" text-anchor="middle" transform="matrix(1 0 0 1 588 530)" class="st4 st13 st14">신화 다이닝</text>
	</g>
	<g id="Doors">
		<line id="jswpark06" class="st15" x1="1079" y1="138" x2="1086" y2="131"/>
	</g>
	<g id="Paths">
		<line class="st7" x1="960" y1="175" x2="960" y2="439"/>
		<line class="st7" x1="1079" y1="175" x2="960" y2="175"/>
		<line class="st7" x1="1079" y1="138" x2="1079" y2="175"/>
		<line class="st7" x1="688" y1="716" x2="714" y2="716"/>
		<line class="st7" x1="688" y1="486" x2="688" y2="716"/>
		<line class="st7" x1="960" y1="486" x2="688" y2="486"/>
		<line class="st7" x1="960" y1="439" x2="960" y2="486"/>
	</g>
	<g id="Portals">
		<line id="Wayout.1.floorShF100" class="st16" x1="953" y1="446" x2="960" y2="439"/>
	</g>
</g>
</svg>
