<?xml version="1.0" encoding="utf-8"?>
<!-- Generator: Adobe Illustrator 23.0.0, SVG Export Plug-In . SVG Version: 6.00 Build 0)  -->
<svg version="1.1" xmlns="http://www.w3.org/2000/svg" xmlns:xlink="http://www.w3.org/1999/xlink" x="0px" y="0px"
	 viewBox="0 0 1400 730" style="enable-background:new 0 0 1400 730;" xml:space="preserve" width="1400px" height="730px" id="smsF1">
<style type="text/css">
	#smsF1 .st0{fill:#CBD5DD;}
	#smsF1 .st1{fill:#EAEAEA;}
	#smsF1 .st2{fill:#A5855B;}
	#smsF1 .st3{fill:#8CC63F;stroke:#A5855B;stroke-width:2;stroke-miterlimit:10;}
	#smsF1 .st4{fill:#7EB6CE;}
	#smsF1 .st5{fill:none;stroke:#A5855B;stroke-width:2;stroke-miterlimit:10;}
	#smsF1 .st6{fill:#FFFFFF;}
	#smsF1 .st7{fill:url(#SVGID_sms1);}
	#smsF1 .st8{fill:url(#SVGID_sms2);}
	#smsF1 .st9{fill:#EF405C;}
	#smsF1 .st10{fill:#C72D46;}
	#smsF1 .st11{font-family:'NotoSans';}
	#smsF1 .st12{font-size:12px;}
	#smsF1 .st13{fill:none;stroke:#FF00FF;}
	#smsF1 .st14{fill:none;stroke:#00FF00;}
	#smsF1 .st15{fill:none;stroke:#EF405C;}
</style>
<rect id="BGColor" class="st0" width="1400" height="730"/>
<g id="Base_smsF1">
	<g>
		<path class="st1" d="M661.8,630.6c-1.3,0-2.5-0.5-3.5-1.4L368.1,338.9c-1.9-1.9-1.9-5,0-6.9l126.5-126.5c0.9-0.9,2.1-1.4,3.5-1.4
			s2.5,0.5,3.5,1.4l81.2,81.2c1,1,2.3,1.5,3.7,1.5s2.7-0.5,3.7-1.5l2.7-2.7c2-2,2-5.3,0-7.4l-2.2-2.2c-1.9-1.9-1.9-5.1,0-7.1
			l15.9-15.9c0.9-0.9,2.2-1.5,3.5-1.5s2.6,0.5,3.5,1.5l0.9,0.9c1.3,1.3,3.1,2.1,4.9,2.1s3.6-0.7,4.9-2.1l18.8-18.8
			c1.3-1.3,2.1-3.1,2.1-5V54.1c0-2.8,2.2-5,5-5h484.3c1.8,0,3.2,1.4,3.2,3.2v126c0,1.8-1.4,3.2-3.2,3.2H858.4
			c-2.9,0-5.2,2.3-5.2,5.2v127.7c0,1.3-0.5,2.6-1.5,3.5l-1.1,1.1c-2.7,2.7-2.7,7.2,0,9.9l4.9,4.9c0.9,0.9,1.4,2.1,1.4,3.5
			s-0.5,2.5-1.4,3.5l-25.7,25.7c-0.9,0.9-2.1,1.4-3.5,1.4s-2.5-0.5-3.5-1.4l-5-5c-1.3-1.3-3-2-4.9-2c-1.8,0-3.6,0.7-4.9,2
			l-70.5,70.6c-2.7,2.7-2.7,7,0,9.7l54,54c1.9,1.9,1.9,5,0,6.9L665.3,629.2C664.3,630.1,663.1,630.6,661.8,630.6z"/>
		<path class="st2" d="M1134.5,50.1c1.2,0,2.2,1,2.2,2.2v126c0,1.2-1,2.2-2.2,2.2H858.4c-3.4,0-6.2,2.8-6.2,6.2v127.7
			c0,1.1-0.4,2.1-1.2,2.8l-1.1,1.1c-3.1,3.1-3.1,8.2,0,11.3l4.9,4.9c1.5,1.5,1.5,4,0,5.5l-25.7,25.7c-0.7,0.7-1.7,1.1-2.7,1.1
			s-2-0.4-2.7-1.1l-5-5c-1.5-1.5-3.5-2.3-5.6-2.3s-4.1,0.8-5.6,2.3L737,431.4c-1.5,1.5-2.3,3.5-2.3,5.6s0.8,4.1,2.3,5.6l54,54
			c0.7,0.7,1.1,1.7,1.1,2.7s-0.4,2-1.1,2.7L664.6,628.5c-0.7,0.7-1.7,1.1-2.7,1.1s-2-0.4-2.7-1.1L368.8,338.2c-1.5-1.5-1.5-4,0-5.5
			l126.5-126.5c0.7-0.7,1.7-1.1,2.7-1.1s2,0.4,2.7,1.1l81.2,81.2c1.2,1.2,2.7,1.8,4.4,1.8s3.2-0.6,4.4-1.8l2.7-2.7
			c1.2-1.2,1.8-2.7,1.8-4.4c0-1.7-0.6-3.2-1.8-4.4l-2.2-2.2c-0.8-0.8-1.2-1.8-1.2-2.8c0-1.1,0.4-2.1,1.2-2.8l15.9-15.9
			c0.8-0.8,1.8-1.2,2.8-1.2s2.1,0.4,2.8,1.2l0.9,0.9c1.5,1.5,3.5,2.3,5.7,2.3c2.1,0,4.1-0.8,5.7-2.3l18.8-18.8
			c1.5-1.5,2.4-3.5,2.4-5.7V54.1c0-2.2,1.8-4,4-4H1134.5 M1134.5,48.1H650.1c-3.3,0-6,2.7-6,6v174.6c0,1.6-0.6,3.1-1.8,4.3
			l-18.8,18.8c-1.2,1.2-2.7,1.8-4.2,1.8s-3.1-0.6-4.2-1.8l-0.9-0.9c-1.2-1.2-2.7-1.8-4.2-1.8s-3.1,0.6-4.2,1.8l-15.9,15.9
			c-2.3,2.3-2.3,6.1,0,8.5l2.2,2.2c1.6,1.6,1.6,4.3,0,5.9l-2.7,2.7c-0.8,0.8-1.9,1.2-3,1.2s-2.1-0.4-3-1.2l-81.2-81.2
			c-1.1-1.1-2.7-1.7-4.2-1.7s-3,0.6-4.2,1.7L367.4,331.3c-2.3,2.3-2.3,6,0,8.3l290.3,290.3c1.1,1.1,2.7,1.7,4.2,1.7s3-0.6,4.2-1.7
			l126.5-126.5c2.3-2.3,2.3-6,0-8.3l-54-54c-2.3-2.3-2.3-6,0-8.3l70.5-70.6c1.1-1.1,2.7-1.7,4.2-1.7s3,0.6,4.2,1.7l5,5
			c1.1,1.1,2.7,1.7,4.2,1.7s3-0.6,4.2-1.7l25.7-25.7c2.3-2.3,2.3-6,0-8.3l-4.9-4.9c-2.3-2.3-2.3-6.1,0-8.5l1.1-1.1
			c1.1-1.1,1.8-2.7,1.8-4.2V186.8c0-2.3,1.9-4.2,4.2-4.2h276.1c2.3,0,4.2-1.9,4.2-4.2v-126C1138.7,50,1136.8,48.1,1134.5,48.1
			L1134.5,48.1z"/>
	</g>
	<g>
		<path class="st1" d="M632.4,659.9c-1.3,0-2.6-0.5-3.5-1.5L338.7,368.2c-1.9-1.9-1.9-5.1,0-7.1l86.4-86.4L722.4,572L636,658.4
			C635,659.4,633.7,659.9,632.4,659.9z"/>
		<g>
			<path class="st2" d="M425,276.2l295.9,295.9l-85.7,85.7c-0.8,0.8-1.8,1.2-2.8,1.2s-2.1-0.4-2.8-1.2L339.4,367.5
				c-1.6-1.6-1.6-4.1,0-5.7L425,276.2 M425,273.4l-87,87.1c-2.3,2.3-2.3,6.1,0,8.5l290.2,290.2c1.2,1.2,2.7,1.8,4.2,1.8
				s3.1-0.6,4.2-1.8l87.1-87.1L425,273.4L425,273.4z"/>
		</g>
	</g>
	<path class="st3" d="M411.9,275l-95.4-16.7c-3.2-0.6-6.3,1.6-6.8,4.8l-47.6,286.8c-0.5,3.2,1.7,6.3,4.9,6.8l160.2,24.9
		c2.4,0.4,4.5,1.6,6.2,3.3l133.9,134.3c2.3,2.3,6,2.3,8.3,0l82-82.4c2.3-2.3,2.3-6,0-8.3l-289-289.1c-2.3-2.3-2.3-6,0-8.3l46.2-46.2
		C418.1,281.6,416.5,276,411.9,275z"/>
	<g>
		<path class="st4" d="M535.6,611.7c-21.6,0-41.8-8.1-58.4-23.5c-33.1-30.8-32.6-53.8-32.3-64.9c0-1.1,0-2.1,0-2.9
			c-0.1-9.3-2.5-14.1-2.8-14.7c-0.5-1.1-8.2-18.4-25.5-18.4c-5.7,0-11.8,1.8-18.2,5.5c-8.3,4.7-17.7,7.2-27.4,7.2
			c-13.3,0-25.6-4.8-33.7-13.1c-7.2-7.4-10.8-17.3-10.4-28.6c1.2-37.5,32-54.3,62.1-54.3c0.8,0,1.6,0,2.4,0s1.6,0,2.4,0
			c23.7,0,32.3-10.6,41.5-21.9c2.6-3.1,5.2-6.4,8.2-9.4c7.5-7.5,14.8-11.3,21.6-11.3c8.3,0,13,5.8,13.1,5.8c0,0,0,0.1,0.1,0.1
			l164.1,164.5c1.9,1.9,1.9,4.9,0,6.8l-48,49.4C579.7,602.9,557.8,611.7,535.6,611.7L535.6,611.7z"/>
		<path class="st2" d="M465,362.4c7.7,0,12.1,5.2,12.3,5.4c0,0.1,0.1,0.1,0.1,0.2l164.1,164.5c1.5,1.5,1.5,3.9,0,5.4l-48,49.4
			c-14.4,14.6-36.1,23.4-58,23.4c-21.4,0-41.3-8-57.7-23.3c-32.8-30.5-32.3-53.2-32-64.1c0-1.1,0-2.1,0-3
			c-0.1-9.3-2.5-14.2-2.9-15.1c-0.7-1.6-8.4-18.9-26.4-18.9c-5.9,0-12.2,1.9-18.7,5.6c-8.1,4.6-17.4,7-26.9,7
			c-13.1,0-25.1-4.7-33-12.8c-7-7.2-10.5-16.9-10.1-27.9c0.5-16.9,7.3-30.8,19.5-40.3c10.8-8.4,25.6-13,41.5-13c0.8,0,1.6,0,2.4,0
			s1.6,0,2.4,0c24.1,0,33.4-11.3,42.3-22.3c2.5-3.1,5.2-6.4,8.2-9.3C451.5,366.1,458.5,362.4,465,362.4 M465,360.4
			c-5.8,0-13.4,2.7-22.3,11.6c-13.6,13.6-19.2,31-49,31c-0.8,0-1.6,0-2.4,0s-1.6,0-2.5,0c-31.2,0-61.8,17.4-63.1,55.2
			C324.8,486,347,501,370.8,501c9.5,0,19.2-2.4,27.9-7.3c6.8-3.9,12.7-5.4,17.7-5.4c17.4,0,24.6,17.8,24.6,17.8s2.6,4.6,2.7,14.3
			c0.1,9.6-4.1,34.5,32.6,68.5c18.1,16.8,39.1,23.8,59.1,23.8c23.3,0,45.2-9.5,59.4-24l48-49.4c2.2-2.3,2.2-6-0.1-8.3L478.9,366.6
			C478.9,366.6,473.9,360.4,465,360.4L465,360.4z"/>
	</g>
	<g>
		<path class="st1" d="M645.2,139.1v-85c0-2.8,2.2-5,5-5h110c2.8,0,5,2.2,5,5v80c0,2.8-2.2,5-5,5H645.2z"/>
		<path class="st2" d="M760.2,50.1c2.2,0,4,1.8,4,4v80c0,2.2-1.8,4-4,4h-114v-84c0-2.2,1.8-4,4-4L760.2,50.1 M760.2,48.1h-110
			c-3.3,0-6,2.7-6,6v86h116c3.3,0,6-2.7,6-6v-80C766.2,50.8,763.5,48.1,760.2,48.1L760.2,48.1z"/>
	</g>
	<line class="st5" x1="861.7" y1="48" x2="861.7" y2="182.4"/>
	<g>
		<path class="st1" d="M645.1,220.9V196h93.8c2.8,0,5,2.2,5,5v14.9c0,2.8-2.2,5-5,5H645.1z"/>
		<path class="st2" d="M738.9,197c2.2,0,4,1.8,4,4v14.9c0,2.2-1.8,4-4,4h-92.8V197H738.9 M738.9,195h-94.8v26.9h94.8
			c3.3,0,6-2.7,6-6V201C744.9,197.7,742.3,195,738.9,195L738.9,195z"/>
	</g>
	<g>
		<path class="st1" d="M470.9,320.6c-0.2-0.2-0.5-0.3-0.7-0.3s-0.5,0.1-0.7,0.3l-5.7,5.7c-0.6,0.6-1.3,0.9-2.1,0.9
			c-0.8,0-1.6-0.3-2.1-0.9l-5.7-5.7c-0.6-0.6-0.9-1.3-0.9-2.1c0-0.8,0.3-1.6,0.9-2.1l5.7-5.7c0.4-0.4,0.4-1,0-1.4l-34.4-34.4
			l69.3-69.3c0.9-0.9,2.2-1.5,3.5-1.5s2.6,0.5,3.5,1.5l120.2,120.2c1.9,1.9,1.9,5.1,0,7.1l-69.3,69.3L470.9,320.6z"/>
		<g>
			<path class="st2" d="M498,205.1c1.1,0,2.1,0.4,2.8,1.2L621,326.5c1.6,1.6,1.6,4.1,0,5.7l-68.6,68.6l-80.9-80.9
				c-0.4-0.4-0.9-0.6-1.4-0.6s-1,0.2-1.4,0.6l-5.7,5.7c-0.4,0.4-0.9,0.6-1.4,0.6s-1-0.2-1.4-0.6l-5.7-5.7c-0.4-0.4-0.6-0.9-0.6-1.4
				s0.2-1,0.6-1.4l5.7-5.7c0.8-0.8,0.8-2,0-2.8l-33.7-33.7l68.6-68.6C495.9,205.5,496.9,205.1,498,205.1 M498,203.1
				c-1.5,0-3.1,0.6-4.2,1.8l-70,70l35.1,35.1l-5.7,5.7c-1.6,1.6-1.6,4.1,0,5.7l5.7,5.7c0.8,0.8,1.8,1.2,2.8,1.2s2-0.4,2.8-1.2
				l5.7-5.7l82.3,82.3l70-70c2.3-2.3,2.3-6.1,0-8.5L502.2,204.9C501.1,203.7,499.5,203.1,498,203.1L498,203.1z"/>
		</g>
	</g>
	<g>
		<path class="st1" d="M692.9,542.6c-0.2-0.2-0.4-0.3-0.7-0.3s-0.5,0.1-0.7,0.3l-5.7,5.7c-0.6,0.6-1.3,0.9-2.1,0.9s-1.6-0.3-2.1-0.9
			l-5.7-5.7c-0.6-0.6-0.9-1.3-0.9-2.1s0.3-1.6,0.9-2.1l5.7-5.7c0.4-0.4,0.4-1,0-1.4l-86.4-86.4l69.3-69.3c0.9-0.9,2.2-1.5,3.5-1.5
			s2.6,0.5,3.5,1.5l120.2,120.2c1.9,2,1.9,5.1,0,7.1l-69.3,69.3L692.9,542.6z"/>
		<g>
			<path class="st2" d="M668,375.1c1.1,0,2.1,0.4,2.8,1.2L791,496.5c1.6,1.6,1.6,4.1,0,5.7l-68.6,68.6l-28.9-28.9
				c-0.4-0.4-0.9-0.6-1.4-0.6s-1,0.2-1.4,0.6l-5.7,5.7c-0.4,0.4-0.9,0.6-1.4,0.6s-1-0.2-1.4-0.6l-5.7-5.7c-0.4-0.4-0.6-0.9-0.6-1.4
				s0.2-1,0.6-1.4l5.7-5.7c0.8-0.8,0.8-2,0-2.8l-85.7-85.7l68.6-68.6C665.9,375.5,666.9,375.1,668,375.1 M668,373.1
				c-1.5,0-3.1,0.6-4.2,1.8l-70,70l87.1,87.1l-5.7,5.7c-1.6,1.6-1.6,4.1,0,5.7l5.7,5.7c0.8,0.8,1.8,1.2,2.8,1.2s2-0.4,2.8-1.2
				l5.7-5.7l30.3,30.3l70-70c2.3-2.3,2.3-6.1,0-8.5L672.2,374.9C671.1,373.7,669.5,373.1,668,373.1L668,373.1z"/>
		</g>
	</g>
	<g>
		<path class="st4" d="M412.7,562.7c-13.8,0-25.6-13.6-26.8-31c-0.6-8.8,1.5-17.3,6-23.8s10.7-10.3,17.6-10.8c0.5,0,1-0.1,1.5-0.1
			c13.8,0,25.6,13.6,26.8,31c1.3,18.1-9.3,33.6-23.7,34.7C413.7,562.7,413.2,562.7,412.7,562.7z"/>
		<path class="st2" d="M411.1,496v2l0,0c13.3,0,24.6,13.2,25.8,30.1c1.3,17.5-8.9,32.6-22.7,33.6c-0.5,0-0.9,0.1-1.4,0.1
			c-13.3,0-24.6-13.2-25.8-30.1c-1.2-17.5,8.9-32.6,22.7-33.6c0.5,0,0.9-0.1,1.4-0.1V496 M411.1,496c-0.5,0-1,0-1.6,0.1
			c-14.9,1.1-25.9,17.1-24.6,35.7c1.3,18,13.6,31.9,27.8,31.9c0.5,0,1,0,1.6-0.1c14.9-1.1,25.9-17.1,24.6-35.7
			C437.6,509.9,425.3,496,411.1,496L411.1,496z"/>
	</g>
	<g>
		<path class="st4" d="M409.3,355.4c-9.2,0-17-9.1-17.8-20.7c-0.9-12.1,6.2-22.4,15.7-23.1c0.3,0,0.7,0,1,0c9.2,0,17,9.1,17.8,20.7
			c0.4,5.9-1,11.5-4,15.9c-3,4.3-7.1,6.9-11.7,7.2C409.9,355.4,409.6,355.4,409.3,355.4z"/>
		<path class="st2" d="M408.1,310.5v2l0,0c8.7,0,16.1,8.7,16.8,19.8c0.4,5.7-1,11.1-3.9,15.3c-2.8,4.1-6.7,6.5-10.9,6.8
			c-0.3,0-0.6,0-0.9,0c-8.7,0-16.1-8.7-16.8-19.8c-0.8-11.5,5.8-21.4,14.8-22c0.3,0,0.6,0,0.9,0V310.5 M408.1,310.5
			c-0.4,0-0.7,0-1.1,0c-10.1,0.7-17.5,11.5-16.6,24.2c0.9,12.2,9.2,21.6,18.8,21.6c0.4,0,0.7,0,1.1,0c10.1-0.7,17.5-11.5,16.6-24.2
			C426.1,320,417.8,310.5,408.1,310.5L408.1,310.5z"/>
	</g>
	<g>
		<path class="st4" d="M355.8,315.2c-1,0-2-0.1-3-0.2c-6.1-0.6-11.7-3.1-15.7-7c-3.9-3.8-5.8-8.6-5.3-13.4
			c0.9-9,10.3-15.8,21.7-15.8c1,0,2,0.1,3,0.2c12.6,1.3,22,10.4,21,20.4C376.6,308.3,367.2,315.2,355.8,315.2z"/>
		<path class="st2" d="M353.5,277.8v2c1,0,1.9,0.1,2.9,0.1c12,1.2,21.1,9.9,20.1,19.3c-0.9,8.5-9.8,14.9-20.7,14.9
			c-1,0-1.9-0.1-2.9-0.1c-5.9-0.6-11.3-3-15.1-6.7c-3.7-3.6-5.5-8.1-5-12.5c0.9-8.5,9.8-14.9,20.7-14.9V277.8 M353.5,277.8
			c-11.8,0-21.7,7.1-22.7,16.7c-1.1,10.5,8.7,20.1,21.9,21.5c1,0.1,2.1,0.2,3.1,0.2c11.8,0,21.7-7.1,22.7-16.7
			c1.1-10.5-8.7-20.1-21.9-21.5C355.6,277.8,354.5,277.8,353.5,277.8L353.5,277.8z"/>
	</g>
</g>
<g id="Rooms">
	<a id="somer108" xlink:href="#" >
		<g>
			<path class="st4" d="M535.6,611.7c-21.6,0-41.8-8.1-58.4-23.5c-33.1-30.8-32.6-53.8-32.3-64.9c0-1.1,0-2.1,0-2.9
				c-0.1-9.3-2.5-14.1-2.8-14.7c-0.5-1.1-8.2-18.4-25.5-18.4c-5.7,0-11.8,1.8-18.2,5.5c-8.3,4.7-17.7,7.2-27.4,7.2
				c-13.3,0-25.6-4.8-33.7-13.1c-7.2-7.4-10.8-17.3-10.4-28.6c1.2-37.5,32-54.3,62.1-54.3c0.8,0,1.6,0,2.4,0s1.6,0,2.4,0
				c23.7,0,32.3-10.6,41.5-21.9c2.6-3.1,5.2-6.4,8.2-9.4c7.5-7.5,14.8-11.3,21.6-11.3c8.3,0,13,5.8,13.1,5.8c0,0,0,0.1,0.1,0.1
				l164.1,164.5c1.9,1.9,1.9,4.9,0,6.8l-48,49.4C579.7,602.9,557.8,611.7,535.6,611.7L535.6,611.7z"/>
			<path class="st2" d="M465,362.4c7.7,0,12.1,5.2,12.3,5.4c0,0.1,0.1,0.1,0.1,0.2l164.1,164.5c1.5,1.5,1.5,3.9,0,5.4l-48,49.4
				c-14.4,14.6-36.1,23.4-58,23.4c-21.4,0-41.3-8-57.7-23.3c-32.8-30.5-32.3-53.2-32-64.1c0-1.1,0-2.1,0-3
				c-0.1-9.3-2.5-14.2-2.9-15.1c-0.7-1.6-8.4-18.9-26.4-18.9c-5.9,0-12.2,1.9-18.7,5.6c-8.1,4.6-17.4,7-26.9,7
				c-13.1,0-25.1-4.7-33-12.8c-7-7.2-10.5-16.9-10.1-27.9c0.5-16.9,7.3-30.8,19.5-40.3c10.8-8.4,25.6-13,41.5-13c0.8,0,1.6,0,2.4,0
				s1.6,0,2.4,0c24.1,0,33.4-11.3,42.3-22.3c2.5-3.1,5.2-6.4,8.2-9.3C451.5,366.1,458.5,362.4,465,362.4 M465,360.4
				c-5.8,0-13.4,2.7-22.3,11.6c-13.6,13.6-19.2,31-49,31c-0.8,0-1.6,0-2.4,0s-1.6,0-2.5,0c-31.2,0-61.8,17.4-63.1,55.2
				C324.8,486,347,501,370.8,501c9.5,0,19.2-2.4,27.9-7.3c6.8-3.9,12.7-5.4,17.7-5.4c17.4,0,24.6,17.8,24.6,17.8s2.6,4.6,2.7,14.3
				c0.1,9.6-4.1,34.5,32.6,68.5c18.1,16.8,39.1,23.8,59.1,23.8c23.3,0,45.2-9.5,59.4-24l48-49.4c2.2-2.3,2.2-6-0.1-8.3L478.9,366.6
				C478.9,366.6,473.9,360.4,465,360.4L465,360.4z"/>
		</g>
	</a>
	<a id="somer101" xlink:href="#" >
		<g>
			<path class="st1" d="M645.2,139.1v-85c0-2.8,2.2-5,5-5h110c2.8,0,5,2.2,5,5v80c0,2.8-2.2,5-5,5H645.2z"/>
			<path class="st2" d="M760.2,50.1c2.2,0,4,1.8,4,4v80c0,2.2-1.8,4-4,4h-114v-84c0-2.2,1.8-4,4-4L760.2,50.1 M760.2,48.1h-110
				c-3.3,0-6,2.7-6,6v86h116c3.3,0,6-2.7,6-6v-80C766.2,50.8,763.5,48.1,760.2,48.1L760.2,48.1z"/>
		</g>
	</a>
	<a id="somer104" xlink:href="#" >
		<g>
			<path class="st1" d="M645.1,220.9V196h93.8c2.8,0,5,2.2,5,5v14.9c0,2.8-2.2,5-5,5H645.1z"/>
			<path class="st2" d="M738.9,197c2.2,0,4,1.8,4,4v14.9c0,2.2-1.8,4-4,4h-92.8V197H738.9 M738.9,195h-94.8v26.9h94.8
				c3.3,0,6-2.7,6-6V201C744.9,197.7,742.3,195,738.9,195L738.9,195z"/>
		</g>
	</a>
	<a id="somer106" xlink:href="#" >
		<g>
			<path class="st1" d="M470.9,320.6c-0.2-0.2-0.5-0.3-0.7-0.3s-0.5,0.1-0.7,0.3l-5.7,5.7c-0.6,0.6-1.3,0.9-2.1,0.9
				c-0.8,0-1.6-0.3-2.1-0.9l-5.7-5.7c-0.6-0.6-0.9-1.3-0.9-2.1c0-0.8,0.3-1.6,0.9-2.1l5.7-5.7c0.4-0.4,0.4-1,0-1.4l-34.4-34.4
				l69.3-69.3c0.9-0.9,2.2-1.5,3.5-1.5s2.6,0.5,3.5,1.5l120.2,120.2c1.9,1.9,1.9,5.1,0,7.1l-69.3,69.3L470.9,320.6z"/>
			<g>
				<path class="st2" d="M498,205.1c1.1,0,2.1,0.4,2.8,1.2L621,326.5c1.6,1.6,1.6,4.1,0,5.7l-68.6,68.6l-80.9-80.9
					c-0.4-0.4-0.9-0.6-1.4-0.6s-1,0.2-1.4,0.6l-5.7,5.7c-0.4,0.4-0.9,0.6-1.4,0.6s-1-0.2-1.4-0.6l-5.7-5.7c-0.4-0.4-0.6-0.9-0.6-1.4
					s0.2-1,0.6-1.4l5.7-5.7c0.8-0.8,0.8-2,0-2.8l-33.7-33.7l68.6-68.6C495.9,205.5,496.9,205.1,498,205.1 M498,203.1
					c-1.5,0-3.1,0.6-4.2,1.8l-70,70l35.1,35.1l-5.7,5.7c-1.6,1.6-1.6,4.1,0,5.7l5.7,5.7c0.8,0.8,1.8,1.2,2.8,1.2s2-0.4,2.8-1.2
					l5.7-5.7l82.3,82.3l70-70c2.3-2.3,2.3-6.1,0-8.5L502.2,204.9C501.1,203.7,499.5,203.1,498,203.1L498,203.1z"/>
			</g>
		</g>
	</a>
	<a id="somer107" xlink:href="#" >
		<g>
			<path class="st1" d="M692.9,542.6c-0.2-0.2-0.4-0.3-0.7-0.3s-0.5,0.1-0.7,0.3l-5.7,5.7c-0.6,0.6-1.3,0.9-2.1,0.9
				s-1.6-0.3-2.1-0.9l-5.7-5.7c-0.6-0.6-0.9-1.3-0.9-2.1s0.3-1.6,0.9-2.1l5.7-5.7c0.4-0.4,0.4-1,0-1.4l-86.4-86.4l69.3-69.3
				c0.9-0.9,2.2-1.5,3.5-1.5s2.6,0.5,3.5,1.5l120.2,120.2c1.9,2,1.9,5.1,0,7.1l-69.3,69.3L692.9,542.6z"/>
			<g>
				<path class="st2" d="M668,375.1c1.1,0,2.1,0.4,2.8,1.2L791,496.5c1.6,1.6,1.6,4.1,0,5.7l-68.6,68.6l-28.9-28.9
					c-0.4-0.4-0.9-0.6-1.4-0.6s-1,0.2-1.4,0.6l-5.7,5.7c-0.4,0.4-0.9,0.6-1.4,0.6s-1-0.2-1.4-0.6l-5.7-5.7c-0.4-0.4-0.6-0.9-0.6-1.4
					s0.2-1,0.6-1.4l5.7-5.7c0.8-0.8,0.8-2,0-2.8l-85.7-85.7l68.6-68.6C665.9,375.5,666.9,375.1,668,375.1 M668,373.1
					c-1.5,0-3.1,0.6-4.2,1.8l-70,70l87.1,87.1l-5.7,5.7c-1.6,1.6-1.6,4.1,0,5.7l5.7,5.7c0.8,0.8,1.8,1.2,2.8,1.2s2-0.4,2.8-1.2
					l5.7-5.7l30.3,30.3l70-70c2.3-2.3,2.3-6.1,0-8.5L672.2,374.9C671.1,373.7,669.5,373.1,668,373.1L668,373.1z"/>
			</g>
		</g>
	</a>
	<a id="somer103" xlink:href="#" >
		<g>
			<rect x="870" y="57" class="st1" width="230" height="116"/>
		</g>
	</a>
	<g id="Stairs">
		<g>
			<g>
				<path class="st1" d="M827,251.5c-0.6,0-0.9-0.4-0.9-0.5s0.3-0.5,0.9-0.5l15.4-1.2c0.5,0,0.7,0.3,0.7,0.7v2.1
					c0,0.3-0.1,0.4-0.2,0.5c-0.1,0.1-0.3,0.2-0.5,0.2L827,251.5z"/>
				<path class="st2" d="M842.4,250.2L842.4,250.2L842.4,250.2 M842.1,250.2v1.4l-9.1-0.7L842.1,250.2 M842.4,248.2L842.4,248.2
					l-15.5,1.2c-1,0.1-1.8,0.8-1.8,1.5c0,0.8,0.8,1.4,1.8,1.5l15.4,1.2h0.1c0.9,0,1.7-0.7,1.7-1.7v-2.1
					C844.1,248.9,843.4,248.2,842.4,248.2L842.4,248.2z"/>
			</g>
			<g>
				<path class="st1" d="M815.6,280.2c-0.2,0-0.4-0.1-0.5-0.2s-0.2-0.3-0.2-0.5l1.5-18.8c0-0.5,0.4-0.9,0.8-0.9s0.7,0.4,0.8,0.9
					l1.5,18.8c0,0.2,0,0.4-0.2,0.5c-0.1,0.1-0.3,0.2-0.5,0.2H815.6z"/>
				<path class="st2" d="M817.4,260.7L817.4,260.7L817.4,260.7 M817.2,263.7l1.2,15.6H816L817.2,263.7 M817.2,258.8
					c-0.9,0-1.7,0.8-1.8,1.8l-1.5,18.8c-0.1,1,0.7,1.8,1.7,1.8h3.1c1,0,1.8-0.8,1.7-1.8l-1.5-18.8
					C818.9,259.6,818.1,258.8,817.2,258.8L817.2,258.8z"/>
			</g>
			<g>
				<path class="st1" d="M823.7,244.7c-0.1,0-0.2,0-0.2,0c-0.1-0.1-0.1-0.5,0.3-1l9.8-11.5c0.1-0.2,0.3-0.3,0.5-0.3
					c0.1,0,0.3,0,0.5,0.2l1.4,1.4c0.1,0.1,0.2,0.3,0.2,0.5s-0.1,0.4-0.3,0.5l-11.5,9.8C824.2,244.6,823.9,244.7,823.7,244.7z"/>
				<path class="st2" d="M834.3,232.8L834.3,232.8L834.3,232.8 M834.1,233.1l0.9,0.9l-6.4,5.5L834.1,233.1 M834.1,230.9
					c-0.5,0-0.9,0.2-1.3,0.6L823,243c-0.7,0.8-0.8,1.8-0.2,2.3c0.2,0.2,0.5,0.3,0.9,0.3c0.5,0,1-0.2,1.4-0.6l11.5-9.8
					c0.8-0.7,0.8-1.8,0.1-2.5l-1.4-1.4C834.9,231.1,834.5,230.9,834.1,230.9L834.1,230.9z"/>
			</g>
			<g>
				<path class="st1" d="M835.5,271.9c-0.2,0-0.4-0.1-0.5-0.3l-11.3-13.3c-0.3-0.4-0.4-0.9-0.2-1.1c0.1-0.1,0.2-0.1,0.4-0.1
					c0.3,0,0.5,0.1,0.7,0.3l13.3,11.3c0.2,0.1,0.2,0.3,0.3,0.5c0,0.2-0.1,0.4-0.2,0.5l-1.9,1.9C835.8,271.8,835.6,271.9,835.5,271.9
					z"/>
				<path class="st2" d="M827.1,260.8l9.9,8.4l-1.4,1.4L827.1,260.8 M823.8,256.1c-0.4,0-0.8,0.1-1.1,0.4c-0.6,0.6-0.5,1.7,0.1,2.5
					l11.3,13.3c0.3,0.4,0.8,0.6,1.3,0.6c0.4,0,0.9-0.2,1.2-0.5l1.9-1.9c0.7-0.7,0.7-1.8-0.1-2.5l-13.3-11.3
					C824.8,256.3,824.3,256.1,823.8,256.1L823.8,256.1z"/>
			</g>
			<g>
				<path class="st1" d="M797,274.4c-0.1,0-0.3,0-0.5-0.2l-2.6-2.6c-0.1-0.1-0.2-0.3-0.2-0.5s0.1-0.4,0.3-0.5l15.7-13.4
					c0.2-0.2,0.4-0.2,0.7-0.2c0.2,0,0.5,0.1,0.6,0.2c0.3,0.3,0.3,0.9,0,1.3l-13.4,15.7C797.4,274.4,797.2,274.4,797,274.4L797,274.4
					z"/>
				<path class="st2" d="M809.4,258.8L797,273.3l-2.1-2.1L809.4,258.8 M810.3,256c-0.5,0-0.9,0.2-1.3,0.5l-15.7,13.4
					c-0.8,0.7-0.8,1.8-0.1,2.5l2.6,2.6c0.3,0.3,0.8,0.5,1.2,0.5c0.5,0,0.9-0.2,1.3-0.6l13.4-15.7c0.7-0.8,0.6-1.9-0.1-2.6
					C811.3,256.1,810.8,256,810.3,256L810.3,256z"/>
			</g>
			<g>
				<path class="st1" d="M820.6,242.7c-0.1,0-0.3-0.5-0.1-1l4.6-14c0.1-0.3,0.3-0.5,0.6-0.5c0.1,0,0.2,0,0.3,0.1l1.7,0.7
					c0.2,0.1,0.3,0.2,0.4,0.4c0.1,0.2,0,0.4,0,0.6l-6.7,13.1C821.2,242.5,820.8,242.7,820.6,242.7L820.6,242.7z"/>
				<path class="st2" d="M826,228L826,228L826,228 M825.9,228.3l1.1,0.5l-3.5,6.9L825.9,228.3 M825.7,226.2c-0.7,0-1.3,0.4-1.6,1.2
					l-4.6,14c-0.3,1,0,2,0.7,2.3c0.1,0.1,0.3,0.1,0.4,0.1c0.6,0,1.3-0.5,1.7-1.2l6.7-13.1c0.5-0.9,0.1-1.9-0.9-2.3l-1.7-0.7
					C826.2,226.3,826,226.2,825.7,226.2L825.7,226.2z"/>
			</g>
			<g>
				<path class="st1" d="M840.9,262.8c-0.1,0-0.2,0-0.3-0.1l-14.6-7.5c-0.5-0.2-0.7-0.7-0.6-0.9c0.1-0.1,0.3-0.3,0.7-0.3
					c0.1,0,0.3,0,0.4,0.1l15.6,5.1c0.2,0.1,0.3,0.2,0.4,0.4c0.1,0.2,0.1,0.4,0,0.6l-0.9,2.2C841.4,262.6,841.2,262.8,840.9,262.8
					L840.9,262.8z"/>
				<path class="st2" d="M831,256.7l10.4,3.4l-0.7,1.6L831,256.7 M826,253.1c-0.7,0-1.3,0.3-1.6,0.9c-0.3,0.7,0.2,1.7,1.1,2.2
					l14.6,7.5c0.3,0.1,0.5,0.2,0.8,0.2c0.7,0,1.3-0.4,1.5-1.1l0.9-2.2c0.4-0.9-0.1-1.9-1-2.3l-15.6-5.1
					C826.5,253.1,826.3,253.1,826,253.1L826,253.1z"/>
			</g>
			<g>
				<path class="st1" d="M807.4,279.7c-0.1,0-0.2,0-0.3-0.1l-3.2-1.3c-0.2-0.1-0.3-0.2-0.4-0.4s0-0.4,0-0.6l9.1-17.7
					c0.2-0.3,0.5-0.6,0.9-0.6c0.1,0,0.2,0,0.3,0c0.4,0.2,0.6,0.7,0.4,1.2l-6.2,18.9C808,279.5,807.7,279.7,807.4,279.7L807.4,279.7z
					"/>
				<path class="st2" d="M813.6,260.1L813.6,260.1L813.6,260.1 M812.6,261.9l-5.4,16.7l-2.6-1.1L812.6,261.9 M813.5,258.1
					c-0.7,0-1.4,0.4-1.8,1.1l-9.1,17.7c-0.5,0.9-0.1,1.9,0.9,2.3l3.2,1.3c0.2,0.1,0.5,0.1,0.7,0.1c0.7,0,1.3-0.4,1.6-1.2l6.2-18.9
					c0.3-1-0.1-2-1-2.4C814,258.1,813.7,258.1,813.5,258.1L813.5,258.1z"/>
			</g>
			<g>
				<path class="st1" d="M826,247.7c-0.4,0-0.6-0.1-0.6-0.2c0-0.1,0.1-0.6,0.6-0.8l13.6-6.9c0.1-0.1,0.2-0.1,0.3-0.1
					c0.3,0,0.5,0.2,0.6,0.4l0.8,1.9c0.1,0.2,0.1,0.4,0,0.6c-0.1,0.2-0.2,0.3-0.4,0.4l-14.6,4.7C826.3,247.7,826.1,247.7,826,247.7
					L826,247.7z"/>
				<path class="st2" d="M840.1,240.7L840.1,240.7L840.1,240.7 M839.8,240.8l0.5,1.3l-8.4,2.7L839.8,240.8 M840,238.7
					c-0.3,0-0.5,0.1-0.8,0.2l-13.6,6.9c-0.9,0.5-1.4,1.4-1.1,2.1c0.2,0.5,0.8,0.8,1.5,0.8c0.2,0,0.5,0,0.8-0.1l14.6-4.7
					c1-0.3,1.4-1.3,1-2.3l-0.8-1.9C841.3,239.1,840.7,238.7,840,238.7L840,238.7z"/>
			</g>
			<g>
				<path class="st1" d="M826.5,278.2c-0.3,0-0.5-0.2-0.6-0.5l-5.6-17.5c-0.2-0.5,0-1,0.3-1.1c0.1,0,0.1,0,0.2,0
					c0.3,0,0.6,0.2,0.8,0.6l8.3,16.4c0.1,0.2,0.1,0.4,0,0.6s-0.2,0.3-0.4,0.4l-2.8,1.1C826.7,278.2,826.6,278.2,826.5,278.2z"/>
				<path class="st2" d="M821.2,259.9L821.2,259.9L821.2,259.9 M822.2,263.1l6.7,13.1l-2.1,0.9L822.2,263.1 M820.8,258.1
					c-0.2,0-0.4,0-0.6,0.1c-0.8,0.3-1.2,1.4-0.9,2.3l5.6,17.5c0.2,0.7,0.9,1.2,1.6,1.2c0.2,0,0.4,0,0.7-0.1l2.8-1.1
					c0.9-0.4,1.3-1.4,0.9-2.3l-8.3-16.4C822.1,258.5,821.4,258.1,820.8,258.1L820.8,258.1z"/>
			</g>
			<g>
				<path class="st1" d="M789.2,265.2c-0.3,0-0.5-0.2-0.6-0.4l-1.5-3.6c-0.1-0.2-0.1-0.4,0-0.6s0.2-0.3,0.4-0.4l20-6.4
					c0.1,0,0.2-0.1,0.3-0.2c0.1,0,0.2,0,0.3,0c0.4,0,0.8,0.2,0.9,0.6c0.2,0.4,0,1-0.5,1.2l-19,9.6
					C789.4,265.2,789.3,265.2,789.2,265.2L789.2,265.2z M785.8,253.6c-0.5,0-0.7-0.3-0.7-0.7v-4c0-0.4,0.3-0.7,0.7-0.7l21.2,1.7h0.1
					c0.1,0,0.3,0,0.4-0.1c0.1,0.1,0.2,0.2,0.3,0.2c0.3,0.2,0.6,0.5,0.6,0.9s-0.3,0.7-0.6,0.9c-0.1,0-0.2,0.1-0.2,0.1
					c-0.1,0-0.2,0-0.3,0h-0.1C807.1,251.9,785.8,253.6,785.8,253.6z M807.8,248.2c-0.1-0.1-0.3-0.2-0.4-0.3l-20.8-6.8
					c-0.2-0.1-0.3-0.2-0.4-0.4c-0.1-0.2-0.1-0.4,0-0.6l1.6-3.9c0.1-0.3,0.3-0.4,0.6-0.4c0.1,0,0.2,0,0.3,0.1l18.8,9.6
					c0.1,0.1,0.3,0.1,0.5,0.1c0.3,0,0.6-0.2,0.8-0.4c0.3-0.4,0.2-1-0.2-1.3l-17-14.5c-0.2-0.1-0.2-0.3-0.3-0.5
					c0-0.2,0.1-0.4,0.2-0.5l3.2-3.2c0.2-0.2,0.4-0.2,0.5-0.2c0.2,0,0.4,0.1,0.5,0.3l14.3,16.8c0.2,0.2,0.5,0.4,0.8,0.4
					c0.2,0,0.4-0.1,0.6-0.2c0.4-0.3,0.6-0.8,0.3-1.3l-10-19.8c-0.1-0.2-0.1-0.4,0-0.6c0.1-0.2,0.2-0.3,0.4-0.4l4.2-1.7
					c0.1,0,0.2-0.1,0.3-0.1c0.3,0,0.5,0.2,0.6,0.5l6.7,20.7c0.1,0.4,0.5,0.7,1,0.7c0.1,0,0.1,0,0.2,0c0.5-0.1,0.8-0.6,0.8-1.1
					l-1.8-22.4c0-0.2,0-0.4,0.2-0.5c0.1-0.1,0.3-0.2,0.5-0.2h4.8c0.2,0,0.4,0.1,0.5,0.2c0.1,0.1,0.2,0.3,0.2,0.5l-1.9,24.2
					c0,0.5-0.5,0.9-1,0.9H817c-0.3,0-0.6-0.1-0.8-0.4c-0.2-0.2-0.5-0.4-0.8-0.4c-0.1,0-0.1,0-0.2,0c-0.4,0.1-0.7,0.3-0.8,0.7
					c-0.1,0.3-0.3,0.6-0.6,0.7l-0.2,0.1c-0.1,0-0.2,0.1-0.3,0.1c-0.2,0-0.4-0.1-0.6-0.2c-0.2-0.1-0.3-0.2-0.5-0.2s-0.4,0.1-0.6,0.2
					c-0.3,0.2-0.5,0.6-0.4,1c0.1,0.3,0,0.7-0.3,0.9l-0.2,0.2c-0.2,0.2-0.4,0.3-0.7,0.3c-0.1,0-0.1,0-0.2,0c-0.1,0-0.1,0-0.2,0
					c-0.3,0-0.6,0.2-0.8,0.4c-0.2,0.3-0.2,0.8,0,1.1s0.2,0.6,0.1,0.9c-0.2,0.4-0.5,0.7-0.9,0.7C808,248.2,807.9,248.2,807.8,248.2z"
					/>
				<path class="st2" d="M819.2,217.2l-1.9,23.8h-0.4c-0.1-0.2-0.3-0.3-0.5-0.4c0.3-0.4,0.4-0.8,0.4-1.3l-1.7-22.1H819.2
					 M806.7,219.5L806.7,219.5L806.7,219.5 M806.4,219.7l6.6,20.4c0.1,0.5,0.5,0.8,0.8,1.1c-0.1,0.2-0.2,0.4-0.3,0.6l-0.2,0.1
					c-0.1-0.1-0.3-0.1-0.4-0.2c0-0.3-0.1-0.7-0.2-1l-9.9-19.5L806.4,219.7 M795.5,226L795.5,226L795.5,226 M795.3,226.3l14.1,16.6
					c0.2,0.3,0.5,0.5,0.9,0.6c0,0.1,0,0.3,0,0.4l-0.2,0.2c-0.1,0-0.2,0-0.3,0c-0.1-0.3-0.3-0.5-0.5-0.7L792.5,229L795.3,226.3
					 M788.6,236.8L788.6,236.8L788.6,236.8 M788.5,237.1l18.5,9.5c0.3,0.1,0.6,0.2,0.9,0.2c0,0.1,0.1,0.2,0.2,0.3v0.1c0,0,0,0-0.1,0
					c-0.1-0.1-0.2-0.1-0.3-0.1l-20.5-6.7L788.5,237.1 M786.1,249.3l20.8,1.6c0.1,0,0.1,0,0.2,0l0,0l0,0l-20.9,1.7L786.1,249.3
					 M807.2,250.9L807.2,250.9L807.2,250.9L807.2,250.9L807.2,250.9 M807.5,254.9l-18.1,9.2l-1.2-3L807.5,254.9 M819.6,215.2h-4.8
					c-1,0-1.8,0.8-1.7,1.8l1.8,22.4l-6.7-20.7c-0.2-0.7-0.9-1.2-1.6-1.2c-0.2,0-0.4,0-0.7,0.1l-4.2,1.7c-0.9,0.4-1.3,1.4-0.9,2.3
					l10,19.8l-14.3-16.8c-0.3-0.4-0.8-0.6-1.3-0.6c-0.4,0-0.9,0.2-1.2,0.5l-3.2,3.2c-0.7,0.7-0.7,1.8,0.1,2.5l17,14.5l-18.8-9.6
					c-0.3-0.1-0.5-0.2-0.8-0.2c-0.7,0-1.3,0.4-1.5,1.1l-1.6,3.9c-0.4,0.9,0.1,1.9,1,2.3L807,249l-21.1-1.7h-0.1
					c-0.9,0-1.7,0.7-1.7,1.7v4c0,1,0.7,1.7,1.7,1.7h0.1l21.3-1.7l-20,6.4c-1,0.3-1.4,1.3-1,2.3l1.5,3.6c0.3,0.7,0.9,1.1,1.5,1.1
					c0.3,0,0.5-0.1,0.8-0.2l19-9.6c0.9-0.5,1.3-1.6,0.9-2.5c-0.3-0.7-1.1-1.2-1.8-1.2c0.7-0.3,1.2-1,1.2-1.8s-0.5-1.5-1.1-1.8
					c0.7,0,1.4-0.5,1.7-1.2V248c0.3-0.6,0.2-1.4-0.2-1.9c0.1,0,0.3,0,0.4,0c0.5,0,1-0.2,1.4-0.6l0.2-0.2c0.5-0.5,0.6-1.1,0.5-1.8
					c0.3,0.2,0.7,0.3,1.1,0.3c0.2,0,0.5,0,0.7-0.1l0.2-0.1c0.6-0.2,1-0.7,1.1-1.3c0.4,0.5,0.9,0.8,1.6,0.8h0.4c1,0,1.9-0.8,2-1.8
					l1.9-24.2C821.3,216,820.6,215.2,819.6,215.2L819.6,215.2z"/>
			</g>
		</g>
	</g>
	<g id="Exit_12_">
		<g>
			<path class="st6" d="M596.9,355.5c-1.3,0-2.6-0.5-3.5-1.5l-8.5-8.5c-1.9-1.9-1.9-5.1,0-7.1l21.2-21.2c0.9-0.9,2.2-1.5,3.5-1.5
				s2.6,0.5,3.5,1.5l8.5,8.5c1.9,1.9,1.9,5.1,0,7.1L600.5,354C599.5,355,598.3,355.5,596.9,355.5z"/>
			<path class="st2" d="M609.7,316.8c1.1,0,2.1,0.4,2.8,1.2l8.5,8.5c1.6,1.6,1.6,4.1,0,5.7l-21.2,21.2c-0.8,0.8-1.8,1.2-2.8,1.2
				c-1.1,0-2.1-0.4-2.8-1.2l-8.5-8.5c-1.6-1.6-1.6-4.1,0-5.7l21.2-21.2C607.6,317.2,608.6,316.8,609.7,316.8 M609.7,314.8
				c-1.5,0-3.1,0.6-4.2,1.8l-21.2,21.2c-2.3,2.3-2.3,6.1,0,8.5l8.5,8.5c1.2,1.2,2.7,1.8,4.2,1.8s3.1-0.6,4.2-1.8l21.2-21.2
				c2.3-2.3,2.3-6.1,0-8.5l-8.5-8.5C612.7,315.4,611.2,314.8,609.7,314.8L609.7,314.8z"/>
		</g>
	</g>
	
		<image style="overflow:visible;" width="40" height="76" id="stairs_x5F_off" xlink:href="./images/2x/stairs_off@2x.png" class="i_stairs" transform="matrix(0.3536 0.3536 -0.3536 0.3536 609.714 315.1939)">
	</image>
	<g id="Exit_13_">
		<g>
			<path class="st6" d="M655.3,413.9c-1.3,0-2.6-0.5-3.5-1.5l-8.5-8.5c-1.9-2-1.9-5.1,0-7.1l21.2-21.2c0.9-0.9,2.2-1.5,3.5-1.5l0,0
				c1.3,0,2.6,0.5,3.5,1.5l8.5,8.5c0.9,0.9,1.5,2.2,1.5,3.5s-0.5,2.6-1.5,3.5l-21.2,21.2C657.9,413.4,656.6,413.9,655.3,413.9z"/>
			<path class="st2" d="M668,375.2c1.1,0,2.1,0.4,2.8,1.2l8.5,8.5c1.6,1.6,1.6,4.1,0,5.7l-21.2,21.2c-0.8,0.8-1.8,1.2-2.8,1.2
				s-2.1-0.4-2.8-1.2l-8.5-8.5c-1.6-1.6-1.6-4.1,0-5.7l21.2-21.2C665.9,375.6,666.9,375.2,668,375.2 M668,373.2
				c-1.5,0-3.1,0.6-4.2,1.8l-21.2,21.2c-2.3,2.3-2.3,6.1,0,8.5l8.5,8.5c1.2,1.2,2.7,1.8,4.2,1.8s3.1-0.6,4.2-1.8l21.2-21.2
				c2.3-2.3,2.3-6.1,0-8.5l-8.5-8.5C671.1,373.8,669.5,373.2,668,373.2L668,373.2z"/>
		</g>
		
			<image style="overflow:visible;" width="40" height="76" id="stairs_x5F_off_1_" xlink:href="./images/2x/stairs_off@2x.png" class="i_stairs" transform="matrix(0.3536 0.3536 -0.3536 0.3536 668.0515 373.5939)">
		</image>
	</g>
	<g id="Elevator_11_">
		<g>
			<g>
				<path class="st6" d="M581.2,340c-1.3,0-2.6-0.5-3.5-1.5l-21.3-21.3c-1.9-1.9-1.9-5.1,0-7.1l21.3-21.3c0.9-0.9,2.2-1.5,3.5-1.5
					s2.6,0.5,3.5,1.5l21.3,21.3c1.9,1.9,1.9,5.1,0,7.1l-21.3,21.3C583.8,339.5,582.6,340,581.2,340z"/>
				<path class="st2" d="M581.2,288.4c1.1,0,2.1,0.4,2.8,1.2l21.3,21.3c1.6,1.6,1.6,4.1,0,5.7L584,337.9c-0.8,0.8-1.8,1.2-2.8,1.2
					s-2.1-0.4-2.8-1.2l-21.3-21.3c-1.6-1.6-1.6-4.1,0-5.7l21.3-21.3C579.1,288.8,580.1,288.4,581.2,288.4 M581.2,286.4
					c-1.5,0-3.1,0.6-4.2,1.8l-21.3,21.3c-2.3,2.3-2.3,6.1,0,8.5l21.3,21.3c1.2,1.2,2.7,1.8,4.2,1.8s3.1-0.6,4.2-1.8l21.3-21.3
					c2.3-2.3,2.3-6.1,0-8.5l-21.3-21.3C584.3,287,582.8,286.4,581.2,286.4L581.2,286.4z"/>
			</g>
		</g>
		
			<image style="overflow:visible;" width="76" height="76" id="elevator_x5F_off_3_" xlink:href="./images/2x/elevator_off@2x.png" class="i_elevator" transform="matrix(0.3536 0.3536 -0.3536 0.3536 581.2 286.8799)">
		</image>
	</g>
	<g id="Elevator_10_">
		<g>
			<g>
				<path class="st6" d="M683.6,442.4c-1.3,0-2.6-0.5-3.5-1.5l-21.3-21.3c-1.9-1.9-1.9-5.1,0-7.1l21.3-21.3c0.9-0.9,2.2-1.5,3.5-1.5
					s2.6,0.5,3.5,1.5l21.3,21.3c0.9,0.9,1.5,2.2,1.5,3.5s-0.5,2.6-1.5,3.5L687.2,441C686.2,441.9,685,442.4,683.6,442.4z"/>
				<path class="st2" d="M683.6,390.8c1.1,0,2.1,0.4,2.8,1.2l21.3,21.3c0.8,0.8,1.2,1.8,1.2,2.8c0,1.1-0.4,2.1-1.2,2.8l-21.3,21.3
					c-0.8,0.8-1.8,1.2-2.8,1.2c-1.1,0-2.1-0.4-2.8-1.2l-21.3-21.3c-0.8-0.8-1.2-1.8-1.2-2.8c0-1.1,0.4-2.1,1.2-2.8l21.3-21.3
					C681.5,391.2,682.5,390.8,683.6,390.8 M683.6,388.8c-1.5,0-3.1,0.6-4.2,1.8l-21.3,21.3c-2.3,2.3-2.3,6.1,0,8.5l21.3,21.3
					c1.2,1.2,2.7,1.8,4.2,1.8s3.1-0.6,4.2-1.8l21.3-21.3c2.3-2.3,2.3-6.1,0-8.5l-21.3-21.3C686.7,389.4,685.2,388.8,683.6,388.8
					L683.6,388.8z"/>
			</g>
		</g>
		
			<image style="overflow:visible;" width="76" height="76" id="elevator_x5F_off_2_" xlink:href="./images/2x/elevator_off@2x.png" class="i_elevator" transform="matrix(0.3536 0.3536 -0.3536 0.3536 683.6 389.22)">
		</image>
	</g>
	<a id="somer102" xlink:href="#" >
		<g>
			<g>
				<path class="st6" d="M799,89.1c-2.8,0-5-2.2-5-5v-30c0-2.8,2.2-5,5-5h30c2.8,0,5,2.2,5,5v30c0,2.8-2.2,5-5,5H799z"/>
				<path class="st2" d="M829,50.1c2.2,0,4,1.8,4,4v30c0,2.2-1.8,4-4,4h-30c-2.2,0-4-1.8-4-4v-30c0-2.2,1.8-4,4-4H829 M829,48.1h-30
					c-3.3,0-6,2.7-6,6v30c0,3.3,2.7,6,6,6h30c3.3,0,6-2.7,6-6v-30C835,50.8,832.3,48.1,829,48.1L829,48.1z"/>
			</g>
		</g>
		
			<image style="overflow:visible;enable-background:new    ;" width="76" height="76" id="toilet_x5F_off" xlink:href="./images/2x/toilet_off@2x.png" class="i_toilet" transform="matrix(0.5 0 0 0.5 795 50.1)">
		</image>
	</a>
	<g id="Elevator_12_">
		<g>
			<g>
				<path class="st6" d="M650.2,179.2c-2.8,0-5-2.2-5-5v-30c0-2.8,2.2-5,5-5h30c2.8,0,5,2.2,5,5v30c0,2.8-2.2,5-5,5H650.2z"/>
				<path class="st2" d="M680.2,140.2c2.2,0,4,1.8,4,4v30c0,2.2-1.8,4-4,4h-30c-2.2,0-4-1.8-4-4v-30c0-2.2,1.8-4,4-4H680.2
					 M680.2,138.2h-30c-3.3,0-6,2.7-6,6v30c0,3.3,2.7,6,6,6h30c3.3,0,6-2.7,6-6v-30C686.2,140.9,683.5,138.2,680.2,138.2
					L680.2,138.2z"/>
			</g>
		</g>
		
			<image style="overflow:visible;enable-background:new    ;" width="76" height="76" id="elevator_x5F_off" xlink:href="./images/2x/elevator_off@2x.png" class="i_elevator" transform="matrix(0.5 0 0 0.5 646.2 140.2)">
		</image>
	</g>
	<g id="Elevator_13_">
		<g>
			<g>
				<path class="st6" d="M730,179.2c-2.8,0-5-2.2-5-5v-30c0-2.8,2.2-5,5-5h30c2.8,0,5,2.2,5,5v30c0,2.8-2.2,5-5,5H730z"/>
				<path class="st2" d="M760,140.2c2.2,0,4,1.8,4,4v30c0,2.2-1.8,4-4,4h-30c-2.2,0-4-1.8-4-4v-30c0-2.2,1.8-4,4-4H760 M760,138.2
					h-30c-3.3,0-6,2.7-6,6v30c0,3.3,2.7,6,6,6h30c3.3,0,6-2.7,6-6v-30C766,140.9,763.3,138.2,760,138.2L760,138.2z"/>
			</g>
		</g>
		
			<image style="overflow:visible;enable-background:new    ;" width="76" height="76" id="elevator_x5F_off_1_" xlink:href="./images/2x/elevator_off@2x.png" class="i_elevator" transform="matrix(0.5 0 0 0.5 726 140.2)">
		</image>
	</g>
	<g id="Exit_14_">
		<g>
			<path class="st6" d="M690.2,179.2c-2.8,0-5-2.2-5-5v-30c0-2.8,2.2-5,5-5h12c2.8,0,5,2.2,5,5v30c0,2.8-2.2,5-5,5H690.2z"/>
			<path class="st2" d="M702.2,140.2c2.2,0,4,1.8,4,4v30c0,2.2-1.8,4-4,4h-12c-2.2,0-4-1.8-4-4v-30c0-2.2,1.8-4,4-4H702.2
				 M702.2,138.2h-12c-3.3,0-6,2.7-6,6v30c0,3.3,2.7,6,6,6h12c3.3,0,6-2.7,6-6v-30C708.2,140.9,705.5,138.2,702.2,138.2L702.2,138.2
				z"/>
		</g>
	</g>
	
		<image style="overflow:visible;" width="40" height="76" id="stairs_x5F_off_2_" xlink:href="./images/2x/stairs_off@2x.png" class="i_stairs" transform="matrix(0.5 0 0 0.5 686.2 140.2)">
	</image>
	<a id="somer105" xlink:href="#" >
		<g>
			<g>
				<g>
					<path class="st6" d="M724.8,426.9c-1.3,0-2.6-0.5-3.5-1.5l-21.2-21.2c-1.9-1.9-1.9-5.1,0-7.1l21.2-21.2
						c0.9-0.9,2.2-1.5,3.5-1.5s2.6,0.5,3.5,1.5l21.2,21.2c1.9,2,1.9,5.1,0,7.1l-21.2,21.2C727.4,426.4,726.2,426.9,724.8,426.9z"/>
					<path class="st2" d="M724.8,375.5c1.1,0,2.1,0.4,2.8,1.2l21.2,21.2c0.8,0.8,1.2,1.8,1.2,2.8c0,1.1-0.4,2.1-1.2,2.8l-21.2,21.2
						c-0.8,0.8-1.8,1.2-2.8,1.2s-2.1-0.4-2.8-1.2l-21.2-21.2c-0.8-0.8-1.2-1.8-1.2-2.8c0-1.1,0.4-2.1,1.2-2.8l21.2-21.2
						C722.8,375.9,723.8,375.5,724.8,375.5 M724.8,373.5c-1.5,0-3.1,0.6-4.2,1.8l-21.2,21.2c-2.3,2.3-2.3,6.1,0,8.5l21.2,21.2
						c1.2,1.2,2.7,1.8,4.2,1.8s3.1-0.6,4.2-1.8l21.2-21.2c2.3-2.3,2.3-6.1,0-8.5L729,375.3C727.9,374.1,726.4,373.5,724.8,373.5
						L724.8,373.5z"/>
				</g>
			</g>
		</g>
		
			<image style="overflow:visible;" width="76" height="76" id="atm_x5F_off" xlink:href="./images/2x/atm_off@2x.png" class="i_atm" transform="matrix(0.3536 0.3536 -0.3536 0.3536 724.8 373.7799)">
		</image>
	</a>
	<a id="lobbySms" xlink:href="#" class="svg_lobby_mark">
		<g>
			<g>
				
					<linearGradient id="SVGID_sms1" gradientUnits="userSpaceOnUse" x1="736" y1="520.4" x2="781" y2="520.4" gradientTransform="matrix(1 0 0 -1 0 730)">
					<stop  offset="0.1" style="stop-color:#EF405C;stop-opacity:0"/>
					<stop  offset="0.8" style="stop-color:#EF405C"/>
				</linearGradient>
				<polygon class="st7" points="736,181.4 781,209.6 736,237.8 				"/>
				
					<linearGradient id="SVGID_sms2" gradientUnits="userSpaceOnUse" x1="736" y1="520.4" x2="781" y2="520.4" gradientTransform="matrix(1 0 0 -1 0 730)">
					<stop  offset="0.1" style="stop-color:#EF405C;stop-opacity:0"/>
					<stop  offset="0.8" style="stop-color:#B30521"/>
				</linearGradient>
				<path class="st8" d="M737,183.2l42.1,26.4L737,236V183.2 M736,181.4v56.4l45-28.2L736,181.4L736,181.4z"/>
			</g>
			<g>
				<path class="st9" d="M779.2,211.5c-0.6,0-1.1-0.3-1.4-0.8l-9.7-16.3c-0.9-1.8-1.4-3.7-1.4-5.7c0-6.7,5.6-12.3,12.3-12.4h0.2
					c3.3,0,6.4,1.3,8.8,3.6c2.4,2.4,3.7,5.5,3.7,8.9c0,2-0.5,3.9-1.4,5.6l-9.7,16.3C780.3,211.2,779.7,211.5,779.2,211.5z
					 M779.2,184.1c-2.6,0-4.7,2.1-4.7,4.6s2.1,4.6,4.7,4.6s4.7-2.1,4.7-4.6S781.7,184.1,779.2,184.1z"/>
				<path class="st10" d="M779.2,176.8c3.2,0,6.2,1.2,8.4,3.4c2.3,2.3,3.6,5.3,3.6,8.5c0,1.9-0.4,3.7-1.3,5.4l-9.7,16.3
					c-0.3,0.5-0.8,0.6-1,0.6s-0.7-0.1-1-0.6l-9.7-16.3c-0.9-1.7-1.3-3.6-1.3-5.5c0-6.5,5.3-11.8,11.8-11.9
					C779.1,176.8,779.1,176.8,779.2,176.8 M779.2,193.9c2.8,0,5.2-2.3,5.2-5.1s-2.3-5.1-5.2-5.1c-2.8,0-5.2,2.3-5.2,5.1
					C774,191.6,776.3,193.9,779.2,193.9 M779.2,175.8H779c-7,0.1-12.8,5.9-12.8,12.9c0,2.1,0.5,4.1,1.4,5.9l0,0l0,0l9.7,16.3
					c0.4,0.6,1.1,1,1.8,1c0.8,0,1.4-0.4,1.8-1l9.7-16.3l0,0l0,0c0.9-1.8,1.4-3.8,1.4-5.9c0-3.5-1.4-6.8-3.9-9.2
					C785.8,177.1,782.6,175.8,779.2,175.8L779.2,175.8z M779.2,192.9c-2.3,0-4.2-1.9-4.2-4.1s1.9-4.1,4.2-4.1s4.2,1.9,4.2,4.1
					S781.5,192.9,779.2,192.9L779.2,192.9z"/>
			</g>
		</g>
	</a>
</g>
<g id="Soptname1Fsomerset" class="spotname">
	<text id="somer103" text-anchor="middle" transform="matrix(1 0 0 1 980 116)" class="st2 st11 st12">파크사이드 다이닝</text>
	<text id="somer101" text-anchor="middle" transform="matrix(1 0 0 1 706 92)"><tspan x="0" y="0" class="st2 st11 st12">트랜스포머</tspan><tspan x="0" y="14" class="st2 st11 st12">리테일매장</tspan></text>
	<text id="somer104" text-anchor="middle" transform="matrix(1 0 0 1 694 212)" class="st2 st11 st12">프론트 데스크</text>
	<text id="somer106" text-anchor="middle" transform="matrix(1 0 0 1 510 290)" class="st2 st11 st12">남자사우나</text>
	<text id="somer107" text-anchor="middle" transform="matrix(1 0 0 1 700 480)" class="st2 st11 st12">여자사우나</text>
	<text id="somer108" text-anchor="middle" transform="matrix(1 0 0 1 510 492)" class="st6 st11 st12">탐모라 수영장</text>
	<text id="somersetlobby" text-anchor="middle" transform="matrix(1 0 0 1 734 282)"><tspan x="0" y="0" class="st2 st11 st12">서머셋</tspan><tspan x="0" y="14" class="st2 st11 st12">제주신화월드</tspan><tspan x="6" y="28" class="st2 st11 st12">로비</tspan></text>
</g>
<g id="Portals">
	<line id="Wayout.3.floorGfZOM" class="st13" x1="849" y1="361" x2="856" y2="354"/>
	<line id="Elevsms.1.floorSmsF3" class="st13" x1="754" y1="167" x2="761" y2="160"/>
	<line id="Elevsms.2.floorSmsF3" class="st13" x1="673" y1="427" x2="680" y2="420"/>
	<line id="Elevsms.3.floorSmsF3" class="st13" x1="571" y1="325" x2="578" y2="318"/>
	<line id="Stair.1.floorSmsF3" class="st13" x1="793" y1="251" x2="800" y2="244"/>
</g>
<g id="Doors">
	<line id="somer103" class="st14" x1="880" y1="116" x2="887" y2="109"/>
	<line id="somer102" class="st14" x1="814" y1="82" x2="821" y2="75"/>
	<line id="somer101" class="st14" x1="754" y1="102" x2="761" y2="95"/>
	<line id="lobbySms" class="st14" x1="772" y1="216" x2="779" y2="209"/>
	<line id="somer104" class="st14" x1="696" y1="216" x2="703" y2="209"/>
	<line id="somer105" class="st14" x1="726" y1="400" x2="733" y2="393"/>
	<line id="somer107" class="st14" x1="626" y1="430" x2="633" y2="423"/>
	<line id="somer106" class="st14" x1="567" y1="371" x2="574" y2="364"/>
	<line id="somer108" class="st14" x1="560" y1="438" x2="567" y2="431"/>
</g>
<g id="Paths">
	<line class="st15" x1="696" y1="216" x2="696" y2="251"/>
	<line class="st15" x1="761" y1="95" x2="780" y2="95"/>
	<line class="st15" x1="814" y1="116" x2="880" y2="116"/>
	<line class="st15" x1="761" y1="160" x2="780" y2="160"/>
	<line class="st15" x1="733" y1="393" x2="747" y2="379"/>
	<line class="st15" x1="574" y1="364" x2="604" y2="394"/>
	<line class="st15" x1="604" y1="394" x2="633" y2="423"/>
	<line class="st15" x1="567" y1="431" x2="604" y2="394"/>
	<line class="st15" x1="814" y1="82" x2="814" y2="116"/>
	<line class="st15" x1="773" y1="251" x2="793" y2="251"/>
	<line class="st15" x1="779" y1="209" x2="799" y2="209"/>
	<line class="st15" x1="780" y1="95" x2="780" y2="160"/>
	<line class="st15" x1="780" y1="160" x2="799" y2="160"/>
	<line class="st15" x1="799" y1="160" x2="799" y2="209"/>
	<line class="st15" x1="814" y1="116" x2="814" y2="160"/>
	<line class="st15" x1="814" y1="160" x2="799" y2="209"/>
	<line class="st15" x1="799" y1="160" x2="814" y2="160"/>
	<line class="st15" x1="773" y1="238" x2="773" y2="251"/>
	<line class="st15" x1="799" y1="209" x2="773" y2="238"/>
	<line class="st15" x1="696" y1="251" x2="773" y2="251"/>
	<line class="st15" x1="606" y1="392" x2="683" y2="315"/>
	<line class="st15" x1="683" y1="315" x2="747" y2="379"/>
	<line class="st15" x1="773" y1="285" x2="773" y2="353"/>
	<line class="st15" x1="696" y1="251" x2="696" y2="302"/>
	<line class="st15" x1="683" y1="315" x2="696" y2="302"/>
	<line class="st15" x1="747" y1="379" x2="773" y2="353"/>
	<line class="st15" x1="773" y1="285" x2="849" y2="361"/>
	<line class="st15" x1="773" y1="251" x2="773" y2="285"/>
	<line class="st15" x1="555" y1="341" x2="606" y2="392"/>
	<line class="st15" x1="606" y1="392" x2="657" y2="443"/>
	<line class="st15" x1="604" y1="394" x2="606" y2="392"/>
	<line class="st15" x1="555" y1="341" x2="571" y2="325"/>
	<line class="st15" x1="657" y1="443" x2="673" y2="427"/>
</g>
</svg>
