<?xml version="1.0" encoding="utf-8"?>
<!-- Generator: Adobe Illustrator 22.1.0, SVG Export Plug-In . SVG Version: 6.00 Build 0)  -->
<svg version="1.1" xmlns="http://www.w3.org/2000/svg" xmlns:xlink="http://www.w3.org/1999/xlink" x="0px" y="0px"
	 viewBox="0 0 1400 730" style="enable-background:new 0 0 1400 730;" xml:space="preserve" width="1400px" height="730px" id="gfatr">
<defs>
	<style type="text/css">
		#gfatr .st0{fill:#CBD5DD;}
		#gfatr .st1{fill:#EAEAEA;}
		#gfatr .st2{fill:#A5855B;}
		#gfatr .st3{fill:#7EB6CE;}
		#gfatr .st4{font-family:'NotoSans';}
		#gfatr .st5{font-size:12px;}
		#gfatr .st6{font-size:24px;}
		#gfatr .st7{letter-spacing:-1;}
		#gfatr .st8{fill:#FFFFFF;}
		#gfatr .st9{fill:none;stroke:#FF00FF;}
		#gfatr .st10{fill:none;stroke:#00FF00;}
		#gfatr .st11{fill:none;stroke:#EF405C;}
	
	</style>
</defs>	
<g id="BGColor">
	<rect class="st0" width="1400" height="730"/>
</g>
<g id="Layer_1">
	<g id="Base">
		<g>
			<path class="st1" d="M1077.6,390.5c7.6-20.8,11.4-36.3,13.3-45.7c0.6-3.2,3.4-5.5,6.7-5.5c0.4,0,0.8,0,1.1,0.1l61.4,10.3
				c3.6,0.6,6,3.9,5.6,7.4c-2,18.3-6.3,37.7-12.8,57.6L1077.6,390.5z"/>
			<path class="st2" d="M1097.5,340.3c0.3,0,0.6,0,1,0.1l61.4,10.3c3,0.5,5.1,3.3,4.8,6.3c-2,18-6.2,37-12.5,56.5l-73.3-23.6
				c7.4-20.3,11.1-35.6,12.9-44.9C1092.3,342.3,1094.7,340.3,1097.5,340.3 M1097.5,338.3c-3.7,0-6.9,2.6-7.6,6.3
				c-1.7,8.7-5.5,24.8-13.6,46.5l77.2,24.9c5.8-17.8,10.9-37.8,13.2-58.8c0.5-4.1-2.4-7.9-6.5-8.5l-61.4-10.3
				C1098.4,338.4,1097.9,338.3,1097.5,338.3L1097.5,338.3z"/>
		</g>
		<g>
			<path class="st1" d="M1120.7,478.7c-1.3,0-2.6-0.4-3.7-1.1l-55.2-36.6c-2.8-1.9-3.8-5.6-2.3-8.7c6.9-14,12.9-27.9,18-41.5
				l75.3,24.3c-9.1,27.5-20.2,49.4-26.1,60.1C1125.5,477.4,1123.2,478.7,1120.7,478.7L1120.7,478.7z"/>
			<path class="st2" d="M1078,392.1l73.5,23.7c-9.1,27-19.9,48.4-25.7,59c-1,1.9-3,3-5.1,3c-1.1,0-2.2-0.3-3.2-1l-55.2-36.6
				c-2.4-1.6-3.3-4.8-2-7.4C1067,419.1,1073,405.4,1078,392.1 M1076.8,389.6c-4.6,12.4-10.6,26.5-18.3,42.3
				c-1.7,3.5-0.6,7.8,2.7,9.9l55.2,36.6c1.3,0.9,2.8,1.3,4.3,1.3c2.7,0,5.4-1.4,6.8-4.1c6-10.9,17.2-33.2,26.5-61.2L1076.8,389.6
				L1076.8,389.6z"/>
		</g>
		<g>
			<path class="st1" d="M985.1,615.2c-2.5,0-4.8-1.4-6-3.6l-32.4-60.3c-0.9-1.6-1-3.4-0.5-5.2c0.5-1.7,1.7-3.2,3.3-4
				c38.2-20.5,67-50.8,77.7-63c1.3-1.5,3.2-2.3,5.1-2.3c1.5,0,2.9,0.5,4,1.3l54.6,41.4c2.9,2.1,3.6,6.1,1.7,9.1
				c-33,50.7-84.3,76.9-104.8,85.9C987,615,986,615.2,985.1,615.2L985.1,615.2z"/>
			<path class="st2" d="M1032.3,477.8c1.2,0,2.4,0.4,3.4,1.1l54.6,41.5c2.5,1.8,3.1,5.2,1.4,7.8c-14.3,22-33.8,41.8-57.8,58.9
				c-19.8,14.1-37.7,22.7-46.6,26.6c-0.7,0.3-1.5,0.5-2.3,0.5c-2.1,0-4.1-1.2-5.1-3l-32.4-60.3c-0.7-1.4-0.9-2.9-0.4-4.4
				c0.5-1.5,1.5-2.7,2.8-3.4c38.3-20.6,67.3-51,78-63.2C1029.1,478.6,1030.6,477.8,1032.3,477.8 M1032.3,475.8
				c-2.2,0-4.3,0.9-5.9,2.6c-10.7,12.1-39.6,42.4-77.4,62.7c-3.8,2-5.3,6.8-3.2,10.6l32.4,60.3c1.4,2.6,4.1,4.1,6.9,4.1
				c1,0,2.1-0.2,3.1-0.7c18.5-8.1,71.6-34.6,105.2-86.2c2.2-3.4,1.4-8-1.9-10.5l-54.6-41.4C1035.6,476.3,1033.9,475.8,1032.3,475.8
				L1032.3,475.8z"/>
		</g>
		<g>
			<path class="st1" d="M359.4,110.6c-3,0-5.7-2.9-5.7-6.2v-17c0-0.6-0.4-1-1-1h-79.6c-0.2,0-26.8-1.2-34.4-27.4
				c-7.8-26.8-9.8-107.8-9.8-108.6c-2.9-60.2-29-105.8-56.7-154c-25.8-44.8-52.4-91.2-60.5-151.9C102.6-424,119.1-502,162.3-594
				c29.9-63.7,73.7-110.9,130.1-140.2c46.9-24.4,103-36.7,166.7-36.7c125.6,0,245.7,48,279.5,62.6c11.7,5.1,52.8,24,91.5,54.8
				c41.8,33.3,66.3,68.4,72.8,104.4c7.8,43.4-11.1,87.5-56.3,131.1c-61.9,56.3-102.7,148-121.5,272.5C710.3-46.9,714,41.7,715.4,75
				c0.1,2,0.2,3.8,0.2,5.3c0.1,1.6-0.5,3.1-1.6,4.3c-1.1,1.1-2.5,1.8-4,1.8H483.2c-0.6,0-1,0.4-1,1v17.1c0,1.6-0.6,3.1-1.7,4.3
				c-1.1,1.2-2.5,1.9-4,1.9H359.4z"/>
			<path class="st2" d="M459.1-770c125.4,0,245.3,47.9,279.1,62.6c11.7,5.1,52.7,24,91.3,54.7c18.9,15,34.4,30.7,46.3,46.6
				c13.9,18.7,22.7,38,26.2,57.2c7.8,43.1-11.1,86.9-56,130.2c-33.8,30.8-61.7,72.7-82.9,124.6c-17.4,42.7-30.5,92.7-38.9,148.5
				C709.3-47,713,41.7,714.4,75c0.1,2,0.2,3.8,0.2,5.3c0,1.3-0.4,2.6-1.3,3.6c-0.9,0.9-2.1,1.5-3.3,1.5H483.2c-1.1,0-2,0.9-2,2v17.1
				c0,2.7-2.2,5.2-4.7,5.2H359.4c-2.5,0-4.7-2.5-4.7-5.2v-17c0-1.1-0.9-2-2-2h-79.6c-0.5,0-6.9-0.4-14.1-3.7
				c-9.8-4.6-16.3-12.3-19.4-22.9c-7.7-26.7-9.7-107.6-9.7-108.4C227-110.1,200.8-155.7,173-204c-25.7-44.8-52.3-91.1-60.3-151.5
				c-4.3-32.6-3-66.4,4.2-103.1c8.1-41.5,23.2-85.6,46.3-134.9c15.5-33,34.9-61.8,57.6-85.6c20.9-21.9,45.2-40.1,72.1-54.1
				C339.6-757.6,395.6-770,459.1-770 M459.1-772c-113.8,0-232.8,39.1-297.8,177.5C13.7-279.9,219.6-223.1,227.8-49.5
				c0,0,1.9,81.7,9.8,108.9c7.9,27.2,35.4,28.1,35.4,28.1h79.6v17c0,3.7,3,7.2,6.7,7.2c0,0,0,0,0,0h117.1c3.7,0,6.7-3.5,6.7-7.2
				V87.3H710c3.8-0.1,6.8-3.3,6.6-7.1c-1.9-50.5-19.7-360.7,130.8-497.5C1005.9-570,797.6-683.8,739-709.2
				C708.1-722.7,586.9-772,459.1-772L459.1-772z"/>
		</g>
		<g>
			<path class="st1" d="M742.1,533.3v-70.8c51.4-1.3,88.8-12.8,106.6-19.6c0.8-0.3,1.6-0.5,2.4-0.5c3.1,0,5.8,2.1,6.6,5.1l20.2,77.3
				c0.5,2.1,0.1,4.2-1.2,5.9c-1.3,1.7-3.3,2.6-5.4,2.6H742.1z"/>
			<path class="st2" d="M851.1,443.4c2.6,0,4.9,1.8,5.6,4.3L877,525c0.5,1.7,0.1,3.6-1,5s-2.8,2.3-4.6,2.3H743.1v-68.8
				c51-1.4,88.2-12.9,106-19.7C849.7,443.5,850.4,443.4,851.1,443.4 M851.1,441.4c-0.9,0-1.9,0.2-2.8,0.5
				c-15.9,6.1-54.3,18.4-107.3,19.6v72.8h130.3c5.1,0,8.8-4.8,7.5-9.8l-20.2-77.3C857.7,443.7,854.6,441.4,851.1,441.4L851.1,441.4z
				"/>
		</g>
		<g>
			<path class="st1" d="M612.1,533.3c-3.7,0-6.8-3-6.8-6.8v-77c0-3.8,3-6.8,6.8-6.8c0.7,0,1.4,0.1,2.1,0.3
				c39.7,13,80.2,19.6,120.5,19.6c2.3,0,4.7,0,7.1-0.1v70.8H612.1z"/>
			<path class="st2" d="M612,443.6c0.6,0,1.2,0.1,1.8,0.3c39.8,13,80.4,19.6,120.8,19.6c2,0,4.1,0,6.1,0v68.8H612.1
				c-3.2,0-5.8-2.6-5.8-5.8v-77c0-1.6,0.6-3,1.7-4.1C609.1,444.3,610.6,443.6,612,443.6L612,443.6 M612,441.6
				c-4.1,0-7.8,3.4-7.8,7.8v77c0,4.3,3.5,7.8,7.8,7.8h130.6v-72.8c-2.7,0.1-5.3,0.1-8.1,0.1c-34.9,0-75.7-5-120.1-19.5
				C613.6,441.8,612.8,441.6,612,441.6L612,441.6z"/>
		</g>
		<g>
			<path class="st1" d="M935.8,377c9.6-17.4,15.2-36.8,16.8-57.9c0.2-3.4,3.2-6,6.7-6h66.9c1.9,0,3.7,0.8,5,2.2
				c1.3,1.4,1.9,3.2,1.8,5.1c-2.6,32.9-13.1,65.1-31.1,95.5L935.8,377z"/>
			<path class="st2" d="M1026.3,314.1c1.6,0,3.2,0.7,4.3,1.9c1.1,1.2,1.6,2.7,1.5,4.3c-2.6,32.5-12.9,64.1-30.5,94.2l-64.4-37.9
				c9.4-17.3,14.9-36.6,16.4-57.4c0.2-2.8,2.7-5.1,5.7-5.1H1026.3 M1026.3,312.1h-66.9c-4,0-7.5,3-7.7,6.9
				c-1.4,19.3-6.6,39.5-17.1,58.3l67.8,39.9c16-26.8,28.8-59.3,31.8-96.8C1034.4,316,1030.8,312.1,1026.3,312.1L1026.3,312.1z"/>
		</g>
		<g>
			<path class="st1" d="M922.1,500.4c-3,0-5.6-1.9-6.5-4.7c0,0,0-0.1,0-0.1l-28.8-62.9c-0.9-2.9,0.3-6.1,2.8-7.7
				c19.7-12.5,35.2-28.5,46-47.5l66,38.9c-25.2,41.9-58.1,69.8-75.5,82.8C925,499.9,923.6,500.4,922.1,500.4
				C922.1,500.4,922.1,500.4,922.1,500.4z"/>
			<path class="st2" d="M936,378.8l64.3,37.8c-25.1,41.3-57.5,68.8-74.7,81.6c-1,0.8-2.2,1.2-3.5,1.2c-2.5,0-4.8-1.6-5.5-4
				c0-0.1-0.1-0.2-0.1-0.2l-28.8-62.9c-0.7-2.5,0.3-5.1,2.4-6.5C909.7,413.3,925.1,397.5,936,378.8 M935.3,376
				c-10,17.9-24.9,34.5-46.2,48c-3,1.9-4.3,5.6-3.2,8.9l28.9,63c1.1,3.4,4.2,5.4,7.4,5.4c1.6,0,3.2-0.5,4.6-1.6
				c16-11.9,50.4-40.6,76.3-83.9L935.3,376L935.3,376z"/>
		</g>
		<g>
			<path class="st1" d="M612.4,674.8c-1.9,0-3.6-0.7-4.9-2.1c-1.3-1.3-2-3.1-1.9-4.9l0.1-91.6c0.1-3.7,3.1-6.5,6.8-6.5l0.2,0
				c25.9,0.7,114.4,3.2,166.9,3.7c1.3,0,2.5,0,3.8,0c50.5,0,89.8-9,97.1-10.8c0.5-0.1,1.1-0.2,1.6-0.2c3.2,0,6,2.3,6.6,5.4
				l14.4,67.4c0.3,1.4,0.1,3-0.5,4.3L888,670.8c-1.1,2.4-3.5,3.9-6.2,3.9H612.4z"/>
			<path class="st2" d="M882,563.3c2.7,0,5.1,1.9,5.7,4.6l14.4,67.4c0.3,1.2,0.1,2.5-0.4,3.6l-14.6,31.5c-0.9,2-3,3.4-5.2,3.4H612.4
				c-1.6,0-3.1-0.6-4.2-1.8c-1.1-1.1-1.7-2.6-1.6-4.2c0,0,0,0,0-0.1l0.1-91.6c0.1-3.1,2.6-5.6,5.8-5.6l0.2,0
				c25.9,0.7,114.4,3.2,166.9,3.7c1.3,0,2.5,0,3.8,0c50.6,0,90-9,97.4-10.8C881.1,563.4,881.6,563.3,882,563.3
				C882,563.3,882,563.3,882,563.3 M882,561.3c-0.6,0-1.2,0.1-1.9,0.2c-14.8,3.6-51.8,10.8-96.9,10.8c-1.3,0-2.5,0-3.8,0
				c-52.4-0.5-140.4-2.9-166.9-3.7c-0.1,0-0.2,0-0.2,0c-4.2,0-7.6,3.3-7.8,7.5l-0.1,91.6c-0.1,4.4,3.4,8,7.8,8h269.5
				c3,0,5.8-1.8,7.1-4.5l14.6-31.5c0.7-1.5,0.9-3.3,0.5-4.9l-14.4-67.4C888.9,563.8,885.6,561.3,882,561.3L882,561.3z"/>
		</g>
		<g>
			<path class="st1" d="M780.4,408.7c-1.8,0-3.5,0-5.2-0.1c-1.1,0-2.1-0.5-2.8-1.4c-0.7-0.8-1-1.9-0.8-3l11.7-74.5
				c0.4-2.5-0.3-5.1-2-7.1c-1.7-2-4.1-3.1-6.7-3.1c-0.8,0-1.7,0.1-2.5,0.4l-52,15.2c-0.6,0.2-1.3,0.3-1.9,0.3
				c-2.8,0-5.3-1.7-6.3-4.3l-1.2-3.1c-1.3-3.4-4.5-5.6-8.2-5.6c-1.2,0-2.3,0.2-3.4,0.7l-9.8,4.2c-0.9,0.4-1.7,0.5-2.7,0.5
				c-3.4,0-6.2-2.4-6.7-5.7c-6.4-39.4-0.3-71.5,18-95.2c26.8-34.8,72.8-41.9,86.3-43.2c0.1,0,0.3,0,0.4,0c2,0,3.7,1.7,3.8,3.7
				l0.3,12.8c0.1,3,2.5,5.5,5.5,5.6l2,0.1c0.1,0,0.2,0,0.3,0c2.1,0,4.1-1.2,5.1-3l2.9-5.4c0.7-1.2,1.9-2,3.3-2
				c0.6,0,1.3,0.2,1.8,0.5l3.6,2c0.8,0.5,1.8,0.7,2.8,0.7c2.7,0,5-1.8,5.6-4.5c0.4-1.7,1.9-2.9,3.7-2.9c0.5,0,1.1,0.1,1.6,0.3
				c44.7,20.4,62.5,50.6,69.5,72.4c7.6,23.6,4.7,42.5,4.7,42.7c-4.1,40.2-21.9,69.1-52.9,86C822.9,406.7,794.9,408.7,780.4,408.7z"
				/>
			<path class="st2" d="M784.6,184.6c1.5,0,2.7,1.2,2.8,2.7l0.3,12.8c0.1,3.5,2.9,6.4,6.4,6.6l2,0.1c0.1,0,0.3,0,0.4,0
				c2.5,0,4.8-1.4,6-3.5l2.9-5.4c0.5-0.9,1.4-1.5,2.5-1.5c0.5,0,0.9,0.1,1.3,0.3l3.6,2c1,0.5,2.1,0.8,3.2,0.8c3.2,0,5.9-2.2,6.6-5.2
				c0.3-1.3,1.4-2.2,2.7-2.2c0.4,0,0.8,0.1,1.2,0.3c19.6,8.9,35.6,20.5,47.7,34.3c9.6,11.1,16.8,23.6,21.3,37.3
				c7.6,23.4,4.8,42.3,4.7,42.5c0,0,0,0.1,0,0.1c-4,39.8-21.6,68.5-52.3,85.2c-25.3,13.8-53.1,15.8-67.5,15.8c-1.8,0-3.5,0-5.1-0.1
				c-0.8,0-1.5-0.4-2.1-1c-0.5-0.6-0.7-1.4-0.6-2.2l11.7-74.5c0.4-2.8-0.4-5.7-2.2-7.9c-1.9-2.2-4.6-3.4-7.4-3.4
				c-0.9,0-1.9,0.1-2.8,0.4l-52,15.2c-0.5,0.2-1.1,0.2-1.6,0.2c-2.4,0-4.5-1.5-5.4-3.7l-1.2-3.1c-1.5-3.8-5.1-6.3-9.1-6.3
				c-1.3,0-2.6,0.3-3.8,0.8l-9.8,4.2c-0.7,0.3-1.5,0.5-2.3,0.5c-2.9,0-5.3-2.1-5.7-4.9c-6.3-39.1-0.3-70.9,17.8-94.4
				c11.3-14.6,27.1-26,47-33.6c16.3-6.3,31.2-8.4,38.6-9.2C784.4,184.6,784.5,184.6,784.6,184.6 M784.6,182.6c-0.2,0-0.3,0-0.5,0
				C760,185.1,659.6,202.2,679,322.2c0.6,3.9,4,6.6,7.7,6.6c1,0,2-0.2,3-0.6l9.8-4.2c1-0.4,2-0.6,3-0.6c3.1,0,6.1,1.9,7.3,5l1.2,3.1
				c1.2,3.1,4.1,5,7.3,5c0.7,0,1.5-0.1,2.2-0.3l52-15.2c0.7-0.2,1.5-0.3,2.2-0.3c4.6,0,8.4,4.1,7.7,9l-11.7,74.5
				c-0.4,2.8,1.7,5.4,4.6,5.5c1.5,0.1,3.2,0.1,5.2,0.1c29.7,0,112.3-8.6,121.8-102.8c0,0,12.3-76.5-74.8-116.2
				c-0.6-0.3-1.3-0.4-2-0.4c-2.1,0-4.1,1.4-4.7,3.7v0c-0.5,2.3-2.5,3.7-4.7,3.7c-0.8,0-1.5-0.2-2.3-0.6l-3.6-2
				c-0.7-0.4-1.5-0.6-2.3-0.6c-1.7,0-3.3,0.9-4.2,2.5l-2.9,5.4c-0.8,1.5-2.5,2.5-4.2,2.5c-0.1,0-0.2,0-0.3,0l-2-0.1
				c-2.5-0.1-4.5-2.2-4.5-4.7l-0.3-12.8C789.3,184.7,787.2,182.6,784.6,182.6L784.6,182.6z"/>
		</g>
		<g>
			<path class="st1" d="M449.2,677c-1.8,0-3.5-0.7-4.8-2c-1.3-1.3-2-3-2-4.8l0.5-178c0-2.4-0.9-4.6-2.6-6.2s-3.9-2.6-6.2-2.6h-87
				c-2.8,0-5.3-1.7-6.3-4.3l-49.3-127.6c-1.3-3.5,0.3-7.3,3.7-8.7l51.2-21.3c0.8-0.3,1.7-0.5,2.6-0.5c3.2,0,5.9,2.2,6.6,5.3
				l6.4,27.9c0.3,1.5,1.1,2.9,2.1,4l30.9,33.7c1.7,1.8,4,2.8,6.5,2.8c2.3,0,4.6-0.9,6.2-2.6l7.3-7.3c1.3-1.3,3-2,4.8-2
				c1.7,0,3.3,0.6,4.6,1.8l2.5,2.3c1.6,1.5,3.7,2.3,5.9,2.3c2.2,0,4.4-0.8,6-2.4l27.5-25.9c1.3-1.2,2.9-1.8,4.7-1.8
				c1.3,0,2.6,0.4,3.7,1.1l69.8,46c1.9,1.3,3.1,3.4,3.1,5.7v258.4c0,3.7-3,6.8-6.8,6.8H449.2z"/>
			<path class="st2" d="M349,321.8c2.7,0,5,1.9,5.6,4.5l6.4,27.9c0.4,1.7,1.2,3.2,2.3,4.4l30.9,33.7c1.8,2,4.5,3.2,7.2,3.2
				c2.6,0,5.1-1,6.9-2.9l7.3-7.3c1.1-1.1,2.5-1.7,4.1-1.7c1.5,0,2.8,0.5,3.9,1.5l2.5,2.3c1.8,1.7,4.2,2.6,6.6,2.6
				c2.5,0,4.9-0.9,6.7-2.7l27.5-25.9c1.1-1,2.5-1.6,4-1.6c1.1,0,2.2,0.3,3.2,1l69.8,46c1.6,1.1,2.6,2.9,2.6,4.8v258.4
				c0,3.2-2.6,5.8-5.8,5.8h-91.8c-1.5,0-3-0.6-4.1-1.7c-1.1-1.1-1.7-2.6-1.7-4.1l0.5-178c0-2.6-1-5.1-2.9-6.9
				c-1.9-1.9-4.3-2.9-6.9-2.9h-87c-2.4,0-4.5-1.5-5.4-3.7l-49.3-127.6c-1.1-3,0.3-6.2,3.2-7.4l51.2-21.3
				C347.5,322,348.3,321.8,349,321.8L349,321.8 M349,319.8c-1,0-2,0.2-3,0.6l-51.2,21.3c-3.9,1.6-5.8,6.1-4.3,10l49.3,127.6
				c1.2,3,4,5,7.3,5h87c4.3,0,7.8,3.5,7.8,7.8l-0.5,178c0,4.3,3.5,7.8,7.8,7.8H541c4.3,0,7.8-3.5,7.8-7.8V411.8
				c0-2.6-1.3-5.1-3.5-6.5l-69.8-46c-1.3-0.9-2.8-1.3-4.3-1.3c-1.9,0-3.9,0.7-5.3,2.1l-27.5,25.9c-1.5,1.4-3.4,2.1-5.3,2.1
				c-1.9,0-3.8-0.7-5.3-2l-2.5-2.3c-1.5-1.4-3.4-2-5.3-2c-2,0-4,0.8-5.5,2.3l-7.3,7.3c-1.5,1.5-3.5,2.3-5.5,2.3
				c-2.1,0-4.2-0.8-5.7-2.5l-30.9-33.7c-0.9-1-1.6-2.2-1.9-3.5l-6.4-27.9C355.8,322.2,352.6,319.8,349,319.8L349,319.8z"/>
		</g>
		<g>
			<path class="st3" d="M743.8,86.5c-3,0-5.1-1.7-5.4-4.3c-2.4-23.6-9.4-108-0.7-201c5-53.1,14.2-100.1,27.6-139.7
				c16.3-48.3,38.8-85.9,66.8-111.8c48.7-44.9,110.1-68.6,177.6-68.6c93.1,0,188.5,45.9,243.1,117c0.1,0.2,12.9,16.8,21.5,44.8
				c7.9,25.8,13.9,66.9-2.9,115.7c-27.8,81.1-103,135.7-223.6,162.3c-0.5,0.1-44.8,12.2-52.9,47.6c0,0,0,0.1,0,0.2l-2.4,32.8
				c-0.2,2.8-2.6,5.1-5.4,5.1H743.8z"/>
			<path class="st2" d="M1009.7-438.1c92.8,0,187.8,45.8,242.3,116.7c0.1,0.2,12.8,16.7,21.3,44.6c5,16.3,7.6,33.3,7.8,50.4
				c0.2,21.4-3.4,43.1-10.7,64.6c-15,43.6-44.2,79.9-86.8,108c-35.8,23.6-81.6,41.6-136.1,53.7c0,0-0.1,0-0.1,0
				C1047,0,1036,3,1023.9,10.3c-16.2,9.9-26.6,22.9-30,37.9c0,0.1,0,0.2,0,0.3l-2.4,32.8c-0.2,2.3-2.1,4.2-4.4,4.2H743.8
				c-1.9,0-4.1-0.9-4.4-3.4c-2.4-23.6-9.4-107.9-0.7-200.8c4.9-53.1,14.2-100,27.5-139.5c16.2-48.2,38.6-85.6,66.6-111.4
				C881.3-414.4,942.5-438.1,1009.7-438.1L1009.7-438.1 M1009.7-440.1c-62.6,0-125.7,20.5-178.2,68.9
				C708.7-258,732.9,37.1,737.4,82.3c0.3,3.3,3.1,5.2,6.4,5.2c0,0,0,0,0,0H987c3.4,0,6.2-2.6,6.4-6l2.4-32.8
				c8.1-35.2,52.1-46.8,52.1-46.8c98.2-21.7,191.7-67.9,224.3-163s-18.7-161.5-18.7-161.5C1200.3-391.9,1105.7-440.1,1009.7-440.1
				L1009.7-440.1z"/>
		</g>
		<g>
			<path class="st1" d="M520.5,134.3c-2.8,0-5-2.2-5-5v-26.4c0-2.8,2.2-5,5-5h118.6c2.8,0,5,2.2,5,5v26.4c0,2.8-2.2,5-5,5H520.5z"/>
			<path class="st2" d="M639.1,96.9v2c2.2,0,4,1.8,4,4l0,26.4c0,2.2-1.8,4-4,4l-118.6,0c-2.2,0-4-1.8-4-4l0-26.4c0-2.2,1.8-4,4-4
				l118.6,0V96.9 M639.1,96.9l-118.6,0c-3.3,0-6,2.7-6,6l0,26.4c0,3.3,2.7,6,6,6l118.6,0c3.3,0,6-2.7,6-6l0-26.4
				C645.1,99.6,642.4,96.9,639.1,96.9L639.1,96.9z"/>
		</g>
		<g>
			<path class="st1" d="M520.5,134.3c-2.8,0-5-2.2-5-5v-26.4c0-2.8,2.2-5,5-5h118.6c2.8,0,5,2.2,5,5v26.4c0,2.8-2.2,5-5,5H520.5z"/>
			<path class="st2" d="M639.1,96.9v2c2.2,0,4,1.8,4,4l0,26.4c0,2.2-1.8,4-4,4l-118.6,0c-2.2,0-4-1.8-4-4l0-26.4c0-2.2,1.8-4,4-4
				l118.6,0V96.9 M639.1,96.9l-118.6,0c-3.3,0-6,2.7-6,6l0,26.4c0,3.3,2.7,6,6,6l118.6,0c3.3,0,6-2.7,6-6l0-26.4
				C645.1,99.6,642.4,96.9,639.1,96.9L639.1,96.9z"/>
		</g>
		<g>
			<path class="st1" d="M752,108.4c-2.8,0-5-2.2-5-5V70c0-2.8,2.2-5,5-5l228.6,0c2.8,0,5,2.2,5,5v33.4c0,2.8-2.2,5-5,5l0,0H752z"/>
			<path class="st2" d="M980.6,64v2c2.2,0,4,1.8,4,4v33.4c0,2.2-1.8,4-4,4l-228.6,0c-2.2,0-4-1.8-4-4l0-33.4c0-2.2,1.8-4,4-4
				l228.6,0V64 M980.6,64L752,64c-3.3,0-6,2.7-6,6l0,33.4c0,3.3,2.7,6,6,6l228.6,0c3.3,0,6-2.7,6-6V70C986.6,66.7,984,64,980.6,64
				L980.6,64z"/>
		</g>
		<g>
			<path class="st1" d="M404.7,666.8c-2.1,0-3.8-1.7-3.8-3.8v-41.6c0-3.2-2.6-5.8-5.8-5.8h-62.8c-2.1,0-3.8-1.7-3.8-3.8v-27.2
				c0-2.1,1.7-3.8,3.8-3.8h97.6c2.1,0,3.8,1.7,3.8,3.8V663c0,2.1-1.7,3.8-3.8,3.8H404.7z"/>
			<g>
				<path class="st2" d="M429.9,581.8c1.5,0,2.8,1.3,2.8,2.8V663c0,1.5-1.3,2.8-2.8,2.8h-25.2c-1.5,0-2.8-1.3-2.8-2.8v-41.6
					c0-3.7-3.1-6.8-6.8-6.8h-62.8c-1.5,0-2.8-1.3-2.8-2.8v-27.2c0-1.5,1.3-2.8,2.8-2.8H429.9 M429.9,579.8h-97.6
					c-2.7,0-4.8,2.1-4.8,4.8v27.2c0,2.7,2.1,4.8,4.8,4.8h62.8c2.7,0,4.8,2.1,4.8,4.8V663c0,2.7,2.1,4.8,4.8,4.8h25.2
					c2.7,0,4.8-2.1,4.8-4.8v-78.4C434.7,581.9,432.5,579.8,429.9,579.8L429.9,579.8z"/>
			</g>
		</g>
	</g>
	<g id="Rooms">
		<a id="ygrp108" xlink:href="#">
		<g>
			<path class="st1" d="M1077.6,390.5c7.6-20.8,11.4-36.3,13.3-45.7c0.6-3.2,3.4-5.5,6.7-5.5c0.4,0,0.8,0,1.1,0.1l61.4,10.3
				c3.6,0.6,6,3.9,5.6,7.4c-2,18.3-6.3,37.7-12.8,57.6L1077.6,390.5z"/>
			<path class="st2" d="M1097.5,340.3c0.3,0,0.6,0,1,0.1l61.4,10.3c3,0.5,5.1,3.3,4.8,6.3c-2,18-6.2,37-12.5,56.5l-73.3-23.6
				c7.4-20.3,11.1-35.6,12.9-44.9C1092.3,342.3,1094.7,340.3,1097.5,340.3 M1097.5,338.3c-3.7,0-6.9,2.6-7.6,6.3
				c-1.7,8.7-5.5,24.8-13.6,46.5l77.2,24.9c5.8-17.8,10.9-37.8,13.2-58.8c0.5-4.1-2.4-7.9-6.5-8.5l-61.4-10.3
				C1098.4,338.4,1097.9,338.3,1097.5,338.3L1097.5,338.3z"/>
		</g>
		</a>
		<a id="ygrp109" xlink:href="#">
		<g>
			<path class="st1" d="M1120.7,478.7c-1.3,0-2.6-0.4-3.7-1.1l-55.2-36.6c-2.8-1.9-3.8-5.6-2.3-8.7c6.9-14,12.9-27.9,18-41.5
				l75.3,24.3c-9.1,27.5-20.2,49.4-26.1,60.1C1125.5,477.4,1123.2,478.7,1120.7,478.7L1120.7,478.7z"/>
			<path class="st2" d="M1078,392.1l73.5,23.7c-9.1,27-19.9,48.4-25.7,59c-1,1.9-3,3-5.1,3c-1.1,0-2.2-0.3-3.2-1l-55.2-36.6
				c-2.4-1.6-3.3-4.8-2-7.4C1067,419.1,1073,405.4,1078,392.1 M1076.8,389.6c-4.6,12.4-10.6,26.5-18.3,42.3
				c-1.7,3.5-0.6,7.8,2.7,9.9l55.2,36.6c1.3,0.9,2.8,1.3,4.3,1.3c2.7,0,5.4-1.4,6.8-4.1c6-10.9,17.2-33.2,26.5-61.2L1076.8,389.6
				L1076.8,389.6z"/>
		</g>
		</a>
		<a id="ygrp110" xlink:href="#">
		<g>
			<path class="st1" d="M985.1,615.2c-2.5,0-4.8-1.4-6-3.6l-32.4-60.3c-0.9-1.6-1-3.4-0.5-5.2c0.5-1.7,1.7-3.2,3.3-4
				c38.2-20.5,67-50.8,77.7-63c1.3-1.5,3.2-2.3,5.1-2.3c1.5,0,2.9,0.5,4,1.3l54.6,41.4c2.9,2.1,3.6,6.2,1.7,9.1
				c-33,50.7-84.3,76.9-104.8,85.9C987,615,986,615.2,985.1,615.2L985.1,615.2z"/>
			<path class="st2" d="M1032.3,477.8c1.2,0,2.4,0.4,3.4,1.1l54.6,41.5c2.5,1.8,3.1,5.2,1.4,7.8c-14.3,22-33.8,41.8-57.8,58.9
				c-19.8,14.1-37.7,22.7-46.6,26.6c-0.7,0.3-1.5,0.5-2.3,0.5c-2.1,0-4.1-1.2-5.1-3l-32.4-60.3c-0.7-1.4-0.9-2.9-0.4-4.4
				c0.5-1.5,1.5-2.7,2.8-3.4c38.3-20.6,67.3-51,78-63.2C1029.1,478.6,1030.6,477.8,1032.3,477.8 M1032.3,475.8
				c-2.2,0-4.3,0.9-5.9,2.6c-10.7,12.1-39.6,42.4-77.4,62.7c-3.8,2-5.3,6.8-3.2,10.6l32.4,60.3c1.4,2.6,4.1,4.1,6.9,4.1
				c1,0,2.1-0.2,3.1-0.7c18.5-8.1,71.6-34.6,105.2-86.2c2.2-3.4,1.4-8-1.9-10.5l-54.6-41.4C1035.6,476.3,1033.9,475.8,1032.3,475.8
				L1032.3,475.8z"/>
		</g>
		</a>
		<a id="ygrp104" xlink:href="#">
		<g>
			<path class="st1" d="M742.1,533.3v-70.8c51.4-1.3,88.8-12.8,106.6-19.6c0.8-0.3,1.6-0.5,2.4-0.5c3.1,0,5.8,2.1,6.6,5.1l20.2,77.3
				c0.5,2.1,0.1,4.2-1.2,5.9c-1.3,1.7-3.3,2.6-5.4,2.6H742.1z"/>
			<path class="st2" d="M851.1,443.4c2.6,0,4.9,1.8,5.6,4.3L877,525c0.5,1.7,0.1,3.6-1,5c-1.1,1.4-2.8,2.3-4.6,2.3H743.1v-68.8
				c51-1.4,88.2-12.9,106-19.7C849.7,443.5,850.4,443.4,851.1,443.4 M851.1,441.4c-0.9,0-1.9,0.2-2.8,0.5
				c-15.9,6.1-54.3,18.4-107.3,19.6v72.8h130.3c5.1,0,8.8-4.8,7.5-9.8l-20.2-77.3C857.7,443.7,854.6,441.4,851.1,441.4L851.1,441.4z
				"/>
		</g>
		</a>
		<a id="ygrp103" xlink:href="#">
		<g>
			<path class="st1" d="M612.1,533.3c-3.7,0-6.8-3-6.8-6.8v-77c0-3.8,3-6.8,6.8-6.8c0.7,0,1.4,0.1,2.1,0.3
				c39.7,13,80.2,19.6,120.5,19.6c2.3,0,4.7,0,7.1-0.1v70.8H612.1z"/>
			<path class="st2" d="M612,443.6L612,443.6c0.6,0,1.2,0.1,1.8,0.3c39.8,13,80.4,19.6,120.8,19.6c2,0,4.1,0,6.1,0v68.8H612.1
				c-3.2,0-5.8-2.6-5.8-5.8v-77c0-1.6,0.6-3,1.7-4.1C609.1,444.3,610.6,443.6,612,443.6 M612,441.6c-4.1,0-7.8,3.4-7.8,7.8v77
				c0,4.3,3.5,7.8,7.8,7.8h130.6v-72.8c-2.7,0.1-5.3,0.1-8.1,0.1c-34.9,0-75.7-5-120.1-19.5C613.6,441.8,612.8,441.6,612,441.6
				L612,441.6z"/>
		</g>
		</a>
		<a id="ygrp107" xlink:href="#">
		<g>
			<path class="st1" d="M935.8,377c9.6-17.4,15.2-36.8,16.8-57.9c0.2-3.4,3.2-6,6.7-6h66.9c1.9,0,3.7,0.8,5,2.2
				c1.3,1.4,1.9,3.2,1.8,5.1c-2.6,32.9-13.1,65-31.1,95.5L935.8,377z"/>
			<path class="st2" d="M1026.3,314.1c1.6,0,3.2,0.7,4.3,1.9c1.1,1.2,1.6,2.7,1.5,4.3c-2.6,32.5-12.9,64.1-30.5,94.2l-64.4-37.9
				c9.4-17.3,14.9-36.6,16.4-57.4c0.2-2.8,2.7-5.1,5.7-5.1H1026.3 M1026.3,312.1h-66.9c-4,0-7.5,3-7.7,6.9
				c-1.4,19.3-6.6,39.5-17.1,58.3l67.8,39.9c16-26.8,28.8-59.3,31.8-96.8C1034.4,316,1030.8,312.1,1026.3,312.1L1026.3,312.1z"/>
		</g>
		</a>
		<a id="ygrp106" xlink:href="#">
		<g>
			<path class="st1" d="M922.1,500.4c-3,0-5.6-1.9-6.5-4.7c0,0,0-0.1,0-0.1l-28.8-62.9c-0.9-2.9,0.3-6.1,2.8-7.7
				c19.7-12.5,35.2-28.5,46-47.5l66,38.9c-25.2,41.9-58.1,69.8-75.5,82.8C925,499.9,923.6,500.4,922.1,500.4L922.1,500.4z"/>
			<path class="st2" d="M936,378.8l64.3,37.8c-25.1,41.3-57.5,68.8-74.7,81.6c-1,0.8-2.2,1.2-3.5,1.2c-2.5,0-4.8-1.6-5.5-4
				c0-0.1-0.1-0.2-0.1-0.2l-28.8-62.9c-0.7-2.5,0.3-5.1,2.4-6.5C909.7,413.3,925.1,397.5,936,378.8 M935.3,376
				c-10,17.9-24.9,34.5-46.2,48c-3,1.9-4.3,5.6-3.2,8.9l28.9,63c1.1,3.4,4.2,5.4,7.4,5.4c1.6,0,3.2-0.5,4.6-1.6
				c16-11.9,50.4-40.6,76.3-83.9L935.3,376L935.3,376z"/>
		</g>
		</a>
		<a id="ygrp105" xlink:href="#">
		<g>
			<path class="st1" d="M612.4,674.8c-1.9,0-3.6-0.7-4.9-2.1c-1.3-1.3-2-3.1-1.9-4.9l0.1-91.6c0.1-3.7,3.1-6.5,6.8-6.5l0.2,0
				c25.9,0.7,114.4,3.2,166.9,3.7c1.3,0,2.5,0,3.8,0c50.5,0,89.8-9,97.1-10.8c0.5-0.1,1.1-0.2,1.6-0.2c3.2,0,6,2.3,6.6,5.4
				l14.4,67.4c0.3,1.4,0.1,3-0.5,4.3L888,670.8c-1.1,2.4-3.5,3.9-6.2,3.9H612.4z"/>
			<path class="st2" d="M882,563.3L882,563.3c2.7,0,5.1,1.9,5.7,4.6l14.4,67.4c0.3,1.2,0.1,2.5-0.4,3.6l-14.6,31.5
				c-0.9,2-3,3.4-5.2,3.4H612.4c-1.6,0-3.1-0.6-4.2-1.8c-1.1-1.1-1.7-2.6-1.6-4.2c0,0,0,0,0-0.1l0.1-91.6c0.1-3.1,2.6-5.6,5.8-5.6
				l0.2,0c25.9,0.7,114.4,3.2,166.9,3.7c1.3,0,2.5,0,3.8,0c50.6,0,90-9,97.4-10.8C881.1,563.4,881.6,563.3,882,563.3 M882,561.3
				c-0.6,0-1.2,0.1-1.9,0.2c-14.8,3.6-51.8,10.8-96.9,10.8c-1.3,0-2.5,0-3.8,0c-52.4-0.5-140.4-2.9-166.9-3.7c-0.1,0-0.2,0-0.2,0
				c-4.2,0-7.6,3.3-7.8,7.5l-0.1,91.6c-0.1,4.4,3.4,8,7.8,8h269.5c3,0,5.8-1.8,7.1-4.5l14.6-31.5c0.7-1.5,0.9-3.3,0.5-4.9
				l-14.4-67.4C888.9,563.8,885.6,561.3,882,561.3L882,561.3z"/>
		</g>
		</a>
		<a id="ygrp101" xlink:href="#">
		<g>
			<path class="st1" d="M780.4,408.7c-1.8,0-3.5,0-5.2-0.1c-1.1,0-2.1-0.5-2.8-1.4c-0.7-0.8-1-1.9-0.8-3l11.7-74.5
				c0.4-2.5-0.3-5.1-2-7.1c-1.7-2-4.1-3.1-6.7-3.1c-0.8,0-1.7,0.1-2.5,0.4l-52,15.2c-0.6,0.2-1.3,0.3-1.9,0.3
				c-2.8,0-5.3-1.7-6.3-4.3l-1.2-3.1c-1.3-3.4-4.5-5.6-8.2-5.6c-1.2,0-2.3,0.2-3.4,0.7l-9.8,4.2c-0.9,0.4-1.7,0.5-2.7,0.5
				c-3.4,0-6.2-2.4-6.7-5.7c-6.4-39.4-0.3-71.5,18-95.2c26.8-34.8,72.8-41.9,86.3-43.2c0.1,0,0.3,0,0.4,0c2,0,3.7,1.7,3.8,3.7
				l0.3,12.8c0.1,3,2.5,5.5,5.5,5.6l2,0.1c0.1,0,0.2,0,0.3,0c2.1,0,4.1-1.2,5.1-3l2.9-5.4c0.7-1.2,1.9-2,3.3-2
				c0.6,0,1.3,0.2,1.8,0.5l3.6,2c0.8,0.5,1.8,0.7,2.8,0.7c2.7,0,5-1.8,5.6-4.5c0.4-1.7,1.9-2.9,3.7-2.9c0.5,0,1.1,0.1,1.6,0.3
				c44.6,20.3,62.4,50.5,69.5,72.3c7.7,23.6,4.8,42.6,4.7,42.8c-4.1,40.2-21.9,69.1-52.9,86C822.9,406.7,794.9,408.7,780.4,408.7z"
				/>
			<path class="st2" d="M784.6,184.6c1.5,0,2.7,1.2,2.8,2.7l0.3,12.8c0.1,3.5,2.9,6.4,6.4,6.6l2,0.1c0.1,0,0.3,0,0.4,0
				c2.5,0,4.8-1.4,6-3.5l2.9-5.4c0.5-0.9,1.4-1.5,2.5-1.5c0.5,0,0.9,0.1,1.3,0.3l3.6,2c1,0.5,2.1,0.8,3.2,0.8c3.2,0,5.9-2.2,6.6-5.2
				c0.3-1.3,1.4-2.2,2.7-2.2c0.4,0,0.8,0.1,1.2,0.3c19.6,8.9,35.6,20.5,47.7,34.3c9.6,11.1,16.8,23.6,21.3,37.3
				c7.6,23.4,4.8,42.3,4.7,42.5c0,0,0,0.1,0,0.1c-4,39.8-21.6,68.5-52.3,85.2c-25.3,13.8-53.1,15.8-67.5,15.8c-1.7,0-3.5,0-5.1-0.1
				c-0.8,0-1.5-0.4-2.1-1c-0.5-0.6-0.7-1.4-0.6-2.2l11.7-74.5c0.4-2.8-0.4-5.7-2.2-7.9c-1.9-2.2-4.6-3.4-7.4-3.4
				c-0.9,0-1.9,0.1-2.8,0.4l-52,15.2c-0.5,0.2-1.1,0.2-1.6,0.2c-2.4,0-4.5-1.5-5.4-3.7l-1.2-3.1c-1.5-3.8-5.1-6.3-9.1-6.3
				c-1.3,0-2.6,0.3-3.8,0.8l-9.8,4.2c-0.7,0.3-1.5,0.5-2.3,0.5c-2.9,0-5.3-2.1-5.7-4.9c-6.3-39.1-0.3-70.9,17.8-94.4
				c11.3-14.6,27.1-26,47-33.6c16.3-6.3,31.2-8.4,38.6-9.2C784.4,184.6,784.5,184.6,784.6,184.6 M784.6,182.6c-0.2,0-0.3,0-0.5,0
				C760,185.1,659.6,202.2,679,322.2c0.6,3.9,4,6.6,7.7,6.6c1,0,2-0.2,3-0.6l9.8-4.2c1-0.4,2-0.6,3-0.6c3.1,0,6.1,1.9,7.3,5l1.2,3.1
				c1.2,3.1,4.1,5,7.3,5c0.7,0,1.5-0.1,2.2-0.3l52-15.2c0.7-0.2,1.5-0.3,2.2-0.3c4.6,0,8.4,4.1,7.7,9l-11.7,74.5
				c-0.4,2.8,1.7,5.4,4.6,5.5c1.5,0.1,3.2,0.1,5.2,0.1c29.7,0,112.3-8.6,121.8-102.8c0,0,12.3-76.5-74.8-116.2
				c-0.6-0.3-1.3-0.4-2-0.4c-2.1,0-4.1,1.4-4.7,3.7c-0.5,2.3-2.5,3.7-4.7,3.7c-0.8,0-1.5-0.2-2.3-0.6l-3.6-2
				c-0.7-0.4-1.5-0.6-2.3-0.6c-1.7,0-3.3,0.9-4.2,2.5l-2.9,5.4c-0.8,1.5-2.5,2.5-4.2,2.5c-0.1,0-0.2,0-0.3,0l-2-0.1
				c-2.5-0.1-4.5-2.2-4.5-4.7l-0.3-12.8C789.3,184.7,787.2,182.6,784.6,182.6L784.6,182.6z"/>
		</g>
		</a>
		<a id="ygrp102" xlink:href="#">
		<g>
			<path class="st1" d="M449.2,677c-1.8,0-3.5-0.7-4.8-2c-1.3-1.3-2-3-2-4.8l0.5-178c0-2.4-0.9-4.6-2.6-6.2s-3.9-2.6-6.2-2.6h-87
				c-2.8,0-5.3-1.7-6.3-4.3l-49.3-127.6c-1.3-3.5,0.3-7.3,3.7-8.7l51.2-21.3c0.8-0.3,1.7-0.5,2.6-0.5c3.2,0,5.9,2.2,6.6,5.3
				l6.4,27.9c0.3,1.5,1.1,2.9,2.1,4l30.9,33.7c1.7,1.8,4,2.8,6.5,2.8c2.3,0,4.6-0.9,6.2-2.6l7.3-7.3c1.3-1.3,3-2,4.8-2
				c1.7,0,3.3,0.6,4.6,1.8l2.5,2.3c1.6,1.5,3.7,2.3,5.9,2.3c2.2,0,4.4-0.8,6-2.4l27.5-25.9c1.3-1.2,2.9-1.8,4.7-1.8
				c1.3,0,2.6,0.4,3.7,1.1l69.8,46c1.9,1.3,3.1,3.4,3.1,5.7v258.4c0,3.7-3,6.8-6.8,6.8H449.2z"/>
			<path class="st2" d="M349,321.8L349,321.8c2.7,0,5,1.9,5.6,4.5l6.4,27.9c0.4,1.7,1.2,3.2,2.3,4.4l30.9,33.7
				c1.8,2,4.5,3.2,7.2,3.2c2.6,0,5.1-1,6.9-2.9l7.3-7.3c1.1-1.1,2.5-1.7,4.1-1.7c1.5,0,2.8,0.5,3.9,1.5l2.5,2.3
				c1.8,1.7,4.2,2.6,6.6,2.6c2.5,0,4.9-0.9,6.7-2.7l27.5-25.9c1.1-1,2.5-1.6,4-1.6c1.1,0,2.2,0.3,3.2,1l69.8,46
				c1.6,1.1,2.6,2.9,2.6,4.8v258.4c0,3.2-2.6,5.8-5.8,5.8h-91.8c-1.5,0-3-0.6-4.1-1.7c-1.1-1.1-1.7-2.6-1.7-4.1l0.5-178
				c0-2.6-1-5.1-2.9-6.9c-1.9-1.9-4.3-2.9-6.9-2.9h-87c-2.4,0-4.5-1.5-5.4-3.7l-49.3-127.6c-1.1-3,0.3-6.2,3.2-7.4l51.2-21.3
				C347.5,322,348.3,321.8,349,321.8 M349,319.8c-1,0-2,0.2-3,0.6l-51.2,21.3c-3.9,1.6-5.8,6.1-4.3,10l49.3,127.6c1.2,3,4,5,7.3,5
				h87c4.3,0,7.8,3.5,7.8,7.8l-0.5,178c0,4.3,3.5,7.8,7.8,7.8H541c4.3,0,7.8-3.5,7.8-7.8V411.8c0-2.6-1.3-5.1-3.5-6.5l-69.8-46
				c-1.3-0.9-2.8-1.3-4.3-1.3c-1.9,0-3.9,0.7-5.3,2.1l-27.5,25.9c-1.5,1.4-3.4,2.1-5.3,2.1c-1.9,0-3.8-0.7-5.3-2l-2.5-2.3
				c-1.5-1.4-3.4-2-5.3-2c-2,0-4,0.8-5.5,2.3l-7.3,7.3c-1.5,1.5-3.5,2.3-5.5,2.3c-2.1,0-4.2-0.8-5.7-2.5l-30.9-33.7
				c-0.9-1-1.6-2.2-1.9-3.5l-6.4-27.9C355.8,322.2,352.6,319.8,349,319.8L349,319.8z"/>
		</g>
		</a>
		<a id="shpark101" xlink:href="#">
		<g>
			<path class="st1" d="M359,112.8c-2.8,0-5-2.2-5-5V81.4c0-2.8,2.2-5,5-5h118.6c2.8,0,5,2.2,5,5v26.4c0,2.8-2.2,5-5,5L359,112.8z"
				/>
			<path class="st2" d="M477.5,75.4v2c2.2,0,4,1.8,4,4l0,26.4c0,2.2-1.8,4-4,4l-118.6,0c-2.2,0-4-1.8-4-4V81.4c0-2.2,1.8-4,4-4
				l118.6,0V75.4 M477.5,75.4l-118.6,0c-3.3,0-6,2.7-6,6v26.4c0,3.3,2.7,6,6,6l118.6,0c3.3,0,6-2.7,6-6l0-26.4
				C483.5,78.1,480.9,75.4,477.5,75.4L477.5,75.4z"/>
		</g>
		</a>
		<a id="shpark102" xlink:href="#">
		<g>
			<path class="st1" d="M752,108.4c-2.8,0-5-2.2-5-5V70c0-2.8,2.2-5,5-5l228.6,0c2.8,0,5,2.2,5,5v33.4c0,2.8-2.2,5-5,5l0,0H752z"/>
			<path class="st2" d="M980.6,64v2c2.2,0,4,1.8,4,4v33.4c0,2.2-1.8,4-4,4l-228.6,0c-2.2,0-4-1.8-4-4l0-33.4c0-2.2,1.8-4,4-4
				l228.6,0V64 M980.6,64L752,64c-3.3,0-6,2.7-6,6l0,33.4c0,3.3,2.7,6,6,6l228.6,0c3.3,0,6-2.7,6-6V70C986.6,66.7,984,64,980.6,64
				L980.6,64z"/>
		</g>
		</a>
		<a  id="shpark103" xlink:href="#">
		<g>
			<path class="st1" d="M918.6,108.4c-2.8,0-5-2.2-5-5V70c0-2.8,2.2-5,5-5l62.1,0c2.8,0,5,2.2,5,5v33.4c0,2.8-2.2,5-5,5H918.6z"/>
			<path class="st2" d="M980.6,64v2c2.2,0,4,1.8,4,4v33.4c0,2.2-1.8,4-4,4l-62.1,0c-2.2,0-4-1.8-4-4V70c0-2.2,1.8-4,4-4l62.1,0V64
				 M980.6,64l-62.1,0c-3.3,0-6,2.7-6,6v33.4c0,3.3,2.7,6,6,6l62.1,0c3.3,0,6-2.7,6-6V70C986.6,66.7,984,64,980.6,64L980.6,64z"/>
		</g>
		</a>
		<a id="ygrp111" xlink:href="#">
		<g>
			<path class="st1" d="M330,666.8c-2.8,0-5-2.2-5-5V642c0-2.8,2.2-5,5-5h58.1c2.8,0,5,2.2,5,5v19.8c0,2.8-2.2,5-5,5H330z"/>
			<path class="st2" d="M388.1,638c2.2,0,4,1.8,4,4v19.8c0,2.2-1.8,4-4,4H330c-2.2,0-4-1.8-4-4V642c0-2.2,1.8-4,4-4H388.1
				 M388.1,636H330c-3.3,0-6,2.7-6,6v19.8c0,3.3,2.7,6,6,6h58.1c3.3,0,6-2.7,6-6V642C394.1,638.7,391.4,636,388.1,636L388.1,636z"/>
		</g>
		</a>
	</g>
	<g id="SpotnameGF" class="spotname">
		<text id="ygrp101" text-anchor="middle" transform="matrix(1 0 0 1 790 281)" class="st2 st4 st5">언타이틀드, 2017</text>
		<text id="ygrp107" text-anchor="middle" transform="matrix(1 0 0 1 985 359)" class="st2 st4 st5">한라원</text>
		<text id="ygrp108" text-anchor="middle" transform="matrix(1 0 0 1 1125 378)" class="st2 st4 st5">이니스프리</text>
		<text id="ygrp109" text-anchor="middle" transform="matrix(1 0 0 1 1105 434)" class="st2 st4 st5">GS 25</text>
		<text id="ygrp110" text-anchor="middle" transform="matrix(1 0 0 1 1020 548)" class="st2 st4 st5">재복헌 훠궈</text>
		<text id="ygrp106" text-anchor="middle" transform="matrix(1 0 0 1 940 429)"><tspan x="0" y="0" class="st2 st4 st5">아오리의</tspan><tspan x="0" y="14" class="st2 st4 st5">행방불명</tspan></text>
		<text id="ygrp103" text-anchor="middle" transform="matrix(1 0 0 1 672 499)" class="st2 st4 st5">삼거리 푸줏간</text>
		<text id="ygrp104" text-anchor="middle" transform="matrix(1 0 0 1 806 499)" class="st2 st4 st5">쓰리 버즈</text>
		<text id="ygrp105" text-anchor="middle" transform="matrix(1 0 0 1 750 625)" class="st2 st4 st5">제주삼거리</text>
		<text id="ygrp102" text-anchor="middle" transform="matrix(1 0 0 1 492 522)" class="st2 st4 st5">AC.Ⅲ.T</text>
		<text id="shpark101" text-anchor="middle" transform="matrix(1 0 0 1 480 42)" class="st2 st4 st6 st7">신화테마파크</text>
		<text id="shpark102" text-anchor="middle" transform="matrix(1 0 0 1 864 42)" class="st8 st4 st6 st7">신화워터파크</text>
		<text id="ygrepublic" text-anchor="middle" transform="matrix(1 0 0 1 520 296)" class="st2 st4 st6 st7">YG 리퍼블릭</text>
		<text id="ticketing" text-anchor="middle" transform="matrix(1 0 0 1 566 121)" class="st2 st4 st5">매표소</text>
		<text id="entrance" text-anchor="middle" transform="matrix(1 0 0 1 422 99)" class="st2 st4 st5">입구</text>
		<text id="entrance" text-anchor="middle" transform="matrix(1 0 0 1 836 89)" class="st2 st4 st5">입구</text>
		<text id="joanteddy" text-anchor="middle" transform="matrix(1 0 0 1 950 83)"><tspan x="0" y="0" class="st2 st4 st5">조안</tspan><tspan x="0" y="14" class="st2 st4 st5">테디베어</tspan></text>
		<text id="ygrp111" text-anchor="middle" transform="matrix(1 0 0 1 358 656)" class="st2 st4 st5">제주렌트카</text>
	</g>
	<g id="Portals">
		<line id="Wayout.5.floorGfMa" class="st9" x1="1352" y1="292" x2="1359" y2="285"/>
		<line id="Wayout.2.floorGfZOM" class="st9" x1="972" y1="687" x2="979" y2="680"/>
		<line id="Wayout.6.floorGfLd" class="st9" x1="972" y1="687" x2="979" y2="680"/>
	</g>
	<g id="Doors">
		<line id="ygrp108" class="st10" x1="1095" y1="366" x2="1102" y2="359"/>
		<line id="ygrp109" class="st10" x1="1079" y1="419" x2="1086" y2="412"/>
		<line id="ygrp110" class="st10" x1="993" y1="529" x2="1000" y2="522"/>
		<line id="ygrp105" class="st10" x1="745" y1="592" x2="752" y2="585"/>
		<line id="ygrp102" class="st10" x1="519" y1="546" x2="526" y2="539"/>
		<line id="ygrp111" class="st10" x1="354" y1="652" x2="361" y2="645"/>
		<line id="ygrp103" class="st10" x1="671" y1="482" x2="678" y2="475"/>
		<line id="ygrp104" class="st10" x1="792" y1="479" x2="799" y2="472"/>
		<line id="ygrp106" class="st10" x1="926" y1="415" x2="933" y2="408"/>
		<line id="ygrp107" class="st10" x1="960" y1="352" x2="967" y2="345"/>
		<line id="ygrp101" class="st10" x1="736" y1="310" x2="743" y2="303"/>
		<line id="shpark101" class="st10" x1="420" y1="106" x2="427" y2="99"/>
		<line id="shpark102" class="st10" x1="822" y1="101" x2="829" y2="94"/>
		<line id="shpark103" class="st10" x1="950" y1="101" x2="957" y2="94"/>
	</g>
	<g id="Paths">
		<line class="st11" x1="1251" y1="272" x2="1352" y2="292"/>
		<line class="st11" x1="1089" y1="272" x2="1251" y2="272"/>
		<line class="st11" x1="822" y1="165" x2="1089" y2="272"/>
		<line class="st11" x1="577" y1="165" x2="822" y2="165"/>
		<line class="st11" x1="420" y1="143" x2="577" y2="165"/>
		<line class="st11" x1="420" y1="106" x2="420" y2="143"/>
		<line class="st11" x1="822" y1="101" x2="822" y2="136"/>
		<line class="st11" x1="941" y1="272" x2="1089" y2="272"/>
		<line class="st11" x1="1072" y1="360" x2="1095" y2="366"/>
		<line class="st11" x1="1054" y1="408" x2="1079" y2="419"/>
		<line class="st11" x1="984" y1="504" x2="1000" y2="522"/>
		<line class="st11" x1="752" y1="560" x2="752" y2="585"/>
		<line class="st11" x1="799" y1="442" x2="799" y2="472"/>
		<line class="st11" x1="678" y1="445" x2="678" y2="475"/>
		<line class="st11" x1="736" y1="310" x2="736" y2="402"/>
		<line class="st11" x1="736" y1="402" x2="799" y2="442"/>
		<line class="st11" x1="361" y1="626" x2="361" y2="645"/>
		<line class="st11" x1="526" y1="539" x2="548" y2="539"/>
		<line class="st11" x1="930" y1="343" x2="960" y2="352"/>
		<line class="st11" x1="903" y1="394" x2="926" y2="415"/>
		<line class="st11" x1="1072" y1="360" x2="1089" y2="272"/>
		<line class="st11" x1="930" y1="343" x2="941" y2="272"/>
		<line class="st11" x1="903" y1="394" x2="930" y2="343"/>
		<line class="st11" x1="861" y1="425" x2="903" y2="394"/>
		<line class="st11" x1="799" y1="442" x2="861" y2="425"/>
		<line class="st11" x1="736" y1="449" x2="799" y2="442"/>
		<line class="st11" x1="678" y1="445" x2="736" y2="449"/>
		<line class="st11" x1="577" y1="415" x2="678" y2="445"/>
		<line class="st11" x1="577" y1="555" x2="577" y2="415"/>
		<line class="st11" x1="1054" y1="408" x2="1072" y2="360"/>
		<line class="st11" x1="1032" y1="450" x2="1054" y2="408"/>
		<line class="st11" x1="984" y1="504" x2="1032" y2="450"/>
		<line class="st11" x1="913" y1="543" x2="984" y2="504"/>
		<line class="st11" x1="839" y1="557" x2="913" y2="543"/>
		<line class="st11" x1="752" y1="560" x2="839" y2="557"/>
		<line class="st11" x1="577" y1="555" x2="752" y2="560"/>
		<line class="st11" x1="548" y1="539" x2="577" y2="555"/>
		<line class="st11" x1="314" y1="694" x2="577" y2="694"/>
		<line class="st11" x1="314" y1="626" x2="361" y2="626"/>
		<line class="st11" x1="577" y1="555" x2="577" y2="694"/>
		<line class="st11" x1="314" y1="626" x2="314" y2="694"/>
		<line class="st11" x1="822" y1="136" x2="822" y2="165"/>
		<line class="st11" x1="950" y1="101" x2="950" y2="136"/>
		<line class="st11" x1="822" y1="136" x2="950" y2="136"/>
		<line class="st11" x1="913" y1="543" x2="979" y2="680"/>
		<line class="st11" x1="979" y1="680" x2="1315" y2="680"/>
	</g>
</g>
</svg>
