<?xml version="1.0" encoding="utf-8"?>
<!-- Generator: Adobe Illustrator 23.0.0, SVG Export Plug-In . SVG Version: 6.00 Build 0)  -->
<svg version="1.1" xmlns="http://www.w3.org/2000/svg" xmlns:xlink="http://www.w3.org/1999/xlink" x="0px" y="0px"
	 viewBox="0 0 1400 730" style="enable-background:new 0 0 1400 730;" xml:space="preserve" width="1400px" height="730px" id="lgfMa">
	<style>
	#lgfMa .st0{fill:#CBD5DD;}
	#lgfMa .st1{fill:#EAEAEA;}
	#lgfMa .st2{fill:#A5855B;}
	#lgfMa .st3{fill:#FFFFFF;}
	#lgfMa .st4{fill:url(#SVGID_lgf1);}
	#lgfMa .st5{fill:url(#SVGID_lgf2);}
	#lgfMa .st6{fill:#EF405C;}
	#lgfMa .st7{fill:#C72D46;}
	#lgfMa .st8{fill:url(#SVGID_lgf3);}
	#lgfMa .st9{fill:url(#SVGID_lgf4);}
	#lgfMa .st10{font-family:'NotoSans';}
	#lgfMa .st11{font-size:17px;}
	#lgfMa .st12{font-size:12px;}
	#lgfMa .st13{fill:none;stroke:#FF00FF;}
	#lgfMa .st14{fill:none;stroke:#00FF00;}
	#lgfMa .st15{fill:none;stroke:#EF405C;}
    
    
    <!-- GF BG css Start //-->
	#lgfMa .st18{fill:#CBD5DD;}
	#lgfMa .st19{opacity:0.1;}
	#lgfMa .st20{opacity:0.5;}
	#lgfMa .st21{fill:#EAEAEA;}
	#lgfMa .st22{fill:#A5855B;}
	#lgfMa .st23{fill:#C9CDD1;}
	#lgfMa .st24{fill:#FFFFFF;}
	#lgfMa .st25{fill:none;stroke:#A5855B;stroke-width:2;stroke-miterlimit:10;}
	#lgfMa .st26{fill:none;stroke:#EF405C;}
	#lgfMa .st27{fill:none;stroke:#FF00FF;}
	#lgfMa .st28{fill:none;}
	#lgfMa .st29{opacity:5.000000e-02;}
	#lgfMa .st30{opacity:0.5;fill:#818387;enable-background:new;}
	#lgfMa .st31{font-size:22px;}
	<!-- GF BG css End //-->
</style>
<g id="BG">
	<rect class="st0" width="1400" height="730"/>
</g>
<g id="LGF">
	<g id="Base_2_">
        <!--
		<g id="Marriott_Base02_1_">
			<path class="st1" d="M520.5,1209.9c-4.4,0-7.9-3.4-7.9-7.7v-698c66.7,4.4,148.3,6.6,242.6,6.6c268.8,0,560.8-18,580.8-19.3v436.6
				c0,1.3-0.5,2.6-1.4,3.5l-273.7,276.8c-0.9,0.9-2.2,1.5-3.6,1.5L520.5,1209.9L520.5,1209.9z"/>
			<path class="st2" d="M1335,492.6v435.5c0,1.1-0.4,2.1-1.2,2.8l-273.7,276.8c-0.7,0.8-1.8,1.2-2.8,1.2H520.5c-3.8,0-6.9-3-6.9-6.7
				V505.3c66.5,4.3,147.8,6.5,241.6,6.5C1020.1,511.8,1307.5,494.3,1335,492.6 M1337,490.5c0,0-301.5,19.3-581.8,19.3
				c-86.4,0-170.7-1.8-243.6-6.6v699c0,4.8,4,8.7,8.9,8.7h536.7c1.6,0,3.1-0.6,4.3-1.8l273.7-276.8c1.1-1.1,1.7-2.6,1.7-4.2V490.5
				H1337z"/>
		</g>
        -->
        <!-- GF BG Start //-->
        <g class="st19">
	<g id="Marriott_Base01" class="st20">
		<path class="st21" d="M273.9,944.9c-3.2,0-5.7-2.5-5.9-5.7c-0.6-11-5-32.5-15.1-46.4c-1.3-1.8-3.4-2.9-5.7-2.9
			c-1.2,0-2.4,0.3-3.5,0.9l-6.6,3.8c-0.8,0.4-1.6,0.7-2.5,0.7c-1.8,0-3.4-1-4.3-2.5L209,855.9c-0.7-1.2-0.8-2.5-0.5-3.8
			s1.2-2.4,2.3-3l9.9-5.7c0.7-0.4,1.2-1.1,1.4-1.9c0.2-0.8,0.1-1.6-0.4-2.3c-1.6-2.5-3.2-5.1-4.8-7.5c-0.6-0.9-1.5-1.4-2.5-1.4
			c-0.6,0-1.2,0.2-1.7,0.6l-9.8,7c-0.9,0.6-1.9,0.9-2.9,0.9c-1.6,0-3.1-0.8-4.1-2.1l-24.7-34.6c-1.6-2.2-1.1-5.4,1.2-7l9-6.4
			c0.7-0.5,1.1-1.2,1.2-2.1c0.1-0.8-0.1-1.7-0.7-2.3c-2.2-2.6-4.4-5.2-6.6-7.7c-0.6-0.6-1.4-1-2.3-1c-0.8,0-1.5,0.3-2.1,0.8
			l-8.2,7.7c-0.9,0.9-2.1,1.3-3.4,1.3l0,0c-1.4,0-2.7-0.6-3.6-1.6c-3.3-3.5-8.5-9.1-13.8-14.7c-5.3-5.7-10.8-11.5-14.6-15.6
			c-1.4-1.5-2.1-2.9-2-4.3c0.1-1.4,0.8-2.8,2.3-4.2l2.4-2.3c1.5-1.4,2.3-3.3,2.2-5.4c-0.1-2-1-3.9-2.6-5.2
			c-8.6-6.8-16.6-12.3-23.9-16.3c-2-1.1-3.8-4.1-3.8-6.4v-326c0-5.1-4.2-9.3-9.3-9.4l-27.5-0.4c-4-0.1-7.3-3.4-7.3-7.4v-61.3
			c0-4.1,3.3-7.4,7.4-7.4H72c4.7,0,8.6-3.9,8.6-8.6c0-2,0.7-3.8,2-5.2c1.3-1.4,3.2-2.2,5.1-2.2c0.7,0,1.4,0.1,2.1,0.3h0.1l111.8,8.5
			c0.9,0.3,1.7,0.4,2.6,0.4c2.8,0,5.5-1.4,7.3-3.6c1.7-2.3,2.3-5.2,1.5-8l-18.8-67.2c-0.8-2.9,0.2-6,2.5-7.8
			c31.7-24.9,158-54.7,579.7-55.2c3.9,0,392.3,3.6,554.7,12.9c2.6,0.1,4.7,2.3,4.7,5V492c-19.4,1.2-328.7,19.2-592.1,19.2
			c-92.9,0-170.3-2.2-230-6.7l-1.1-0.1v440.5H273.9L273.9,944.9z"/>
		<path class="st22" d="M776.6,149.9L776.6,149.9c4,0,392.3,3.6,554.6,12.9c2.1,0.1,3.8,1.9,3.8,4v324.3
			c-26.8,1.6-331.3,19.1-591.1,19.1c-92.9,0-170.2-2.2-229.9-6.7l-2.1-0.2v2.2v438.4h-238h-0.1c-2.6,0-4.7-2.1-4.8-4.8
			c-0.5-9.6-4.3-31.7-15.3-47c-1.5-2.1-3.9-3.3-6.5-3.3c-1.4,0-2.8,0.4-4,1.1l-6.6,3.8c-0.6,0.4-1.3,0.5-2,0.5c-1.4,0-2.8-0.8-3.5-2
			l-21.3-36.8c-1.1-1.9-0.4-4.4,1.5-5.5l9.9-5.7c0.9-0.5,1.6-1.5,1.9-2.5c0.3-1.1,0.1-2.2-0.5-3.1c-1.6-2.5-3.2-5.1-4.8-7.5
			c-0.7-1.1-2-1.8-3.4-1.8c-0.8,0-1.6,0.3-2.3,0.7l-9.8,7c-0.7,0.5-1.5,0.7-2.3,0.7c-1.3,0-2.5-0.6-3.3-1.7L172,801.4
			c-1.3-1.8-0.9-4.3,0.9-5.6l9-6.4c0.9-0.6,1.5-1.7,1.7-2.8c0.1-1.1-0.2-2.2-0.9-3.1c-2.2-2.7-4.5-5.3-6.6-7.8
			c-0.8-0.9-1.9-1.4-3-1.4c-1,0-2,0.4-2.7,1.1l-8.2,7.7c-0.7,0.7-1.7,1.1-2.7,1.1c-1.1,0-2.2-0.4-2.9-1.3
			c-3.3-3.6-8.6-9.1-13.9-14.8c-5.3-5.7-10.7-11.4-14.5-15.5c-1.2-1.3-1.8-2.5-1.7-3.6c0-1.1,0.7-2.3,2-3.5l2.4-2.3
			c1.7-1.6,2.6-3.8,2.5-6.2c-0.1-2.3-1.2-4.5-3-5.9c-8.6-6.9-16.7-12.4-24-16.4c-1.7-0.9-3.3-3.6-3.3-5.5v-326
			c0-5.6-4.6-10.3-10.2-10.4l-27.5-0.4c-3.5-0.1-6.3-2.9-6.3-6.4v-61.3c0-3.5,2.9-6.4,6.4-6.4h6.8c5.3,0,9.6-4.3,9.6-9.6l0,0l0,0
			c0-1.7,0.6-3.2,1.7-4.4c1.2-1.2,2.8-1.9,4.4-1.9c0.6,0,1.2,0.1,1.8,0.3l0.2,0.1h0.2l111.5,8.5c0.9,0.3,1.9,0.4,2.8,0.4
			c3.1,0,6.1-1.5,8.1-4c1.9-2.5,2.5-5.8,1.7-8.8l-18.8-67.2c-0.7-2.5,0.2-5.1,2.2-6.7c17-13.4,56.9-24.6,118.5-33.3
			C416.3,157.5,571.3,150.2,776.6,149.9 M776.6,147.9c-476.1,0.6-559.3,38.9-580.3,55.4c-2.7,2.1-3.8,5.6-2.9,8.8l18.8,67.2
			c1.5,5.4-2.7,10.3-7.8,10.3c-0.8,0-1.6-0.1-2.4-0.4l-111.8-8.5c-0.8-0.2-1.6-0.4-2.4-0.4c-4.4,0-8.2,3.6-8.1,8.3
			c0,4.2-3.4,7.6-7.6,7.6h-6.8c-4.6,0-8.4,3.8-8.4,8.4v61.5c0,4.6,3.7,8.3,8.3,8.4l27.5,0.4c4.6,0.1,8.3,3.8,8.3,8.4v326
			c0,2.7,1.9,6,4.3,7.3c8,4.3,16.1,10.1,23.7,16.2c2.9,2.3,3,6.6,0.4,9.1l-2.4,2.3c-3.4,3.2-3.6,6.5-0.4,9.9
			c7.6,8.1,21.8,23.2,28.4,30.3c1.2,1.3,2.8,1.9,4.4,1.9c1.5,0,2.9-0.5,4.1-1.6l8.2-7.7c0.4-0.4,0.9-0.5,1.4-0.5
			c0.6,0,1.1,0.2,1.5,0.7c2.2,2.6,4.5,5.1,6.6,7.7c0.7,0.9,0.6,2.2-0.4,2.9l-9,6.4c-2.7,1.9-3.3,5.7-1.4,8.4l24.7,34.6
			c1.2,1.6,3,2.5,4.9,2.5c1.2,0,2.4-0.4,3.5-1.1l9.8-7c0.4-0.3,0.8-0.4,1.2-0.4c0.7,0,1.3,0.3,1.7,0.9c1.6,2.5,3.2,5,4.8,7.5
			c0.6,1,0.3,2.2-0.7,2.8l-9.9,5.7c-2.9,1.7-3.9,5.3-2.2,8.2l21.3,36.8c1.1,1.9,3.1,3,5.2,3c1,0,2-0.3,3-0.8l6.6-3.8
			c0.9-0.5,2-0.8,3-0.8c1.9,0,3.7,0.9,4.9,2.5c10.3,14.3,14.4,35.8,14.9,45.9c0.2,3.7,3.1,6.6,6.8,6.7h0.1h240V505.5
			c65.2,4.8,145.5,6.7,230.1,6.7c273.8,0,593.1-19.3,593.1-19.3V166.8c0-3.2-2.5-5.8-5.6-6C1167.1,151.4,776.6,147.9,776.6,147.9
			L776.6,147.9z"/>
	</g>
	<path class="st23" d="M273.9,944.9c-3.2,0-5.7-2.5-5.9-5.7c-0.6-11-5-32.5-15.1-46.4c-1.3-1.8-3.4-2.9-5.7-2.9
		c-1.2,0-2.4,0.3-3.5,0.9l-6.6,3.8c-0.8,0.4-1.6,0.7-2.5,0.7c-1.8,0-3.4-1-4.3-2.5L209,855.9c-1.4-2.4-0.6-5.5,1.8-6.8l9.9-5.7
		c0.7-0.4,1.2-1.1,1.4-1.9c0.2-0.8,0.1-1.6-0.4-2.3c-1.6-2.5-3.2-5.1-4.8-7.5c-0.6-0.9-1.5-1.4-2.5-1.4c-0.6,0-1.2,0.2-1.7,0.6
		l-9.8,7c-0.9,0.6-1.9,0.9-2.9,0.9c-1.6,0-3.1-0.8-4.1-2.1l-24.7-34.6c-1.6-2.2-1.1-5.4,1.2-7l9-6.4c0.7-0.5,1.1-1.2,1.2-2.1
		c0.1-0.8-0.1-1.7-0.7-2.3c-2.2-2.6-4.4-5.2-6.6-7.7c-0.6-0.6-1.4-1-2.3-1c-0.8,0-1.5,0.3-2.1,0.8l-8.2,7.7
		c-0.9,0.9-2.1,1.3-3.4,1.3c-1.4,0-2.7-0.6-3.6-1.6c-3.3-3.5-8.5-9.1-13.8-14.7c-5.3-5.7-10.8-11.5-14.6-15.6
		c-1.4-1.5-2.1-2.9-2-4.3c0.1-1.4,0.8-2.8,2.3-4.2l2.4-2.3c1.5-1.4,2.3-3.3,2.2-5.4c-0.1-2-1-3.9-2.6-5.2
		c-8.6-6.9-16.6-12.3-23.9-16.3c-2-1.1-3.8-4.1-3.8-6.4v-326c0-5.1-4.2-9.3-9.3-9.4l-27.5-0.4c-4-0.1-7.3-3.4-7.3-7.4v-61.3
		c0-4.1,3.3-7.4,7.4-7.4H72c4.7,0,8.6-3.9,8.6-8.6c0-2,0.7-3.8,2-5.2c1.3-1.4,3.2-2.2,5.1-2.2c0.7,0,1.4,0.1,2.1,0.3h0.1l111.8,8.5
		c0.9,0.3,1.7,0.4,2.6,0.4c2.8,0,5.5-1.4,7.3-3.6c1.7-2.3,2.3-5.2,1.5-8l-18.8-67.2c-0.8-2.9,0.2-6,2.5-7.8
		c31.7-24.9,158-54.7,579.7-55.2c3.9,0,392.3,3.6,554.7,12.9c2.6,0.1,4.7,2.3,4.7,5v71.3c0,2.8-2.2,5-5,5H1209
		c-5.2,0-9.4,4.2-9.4,9.4v19.9c0,3.8-2.9,7-6.6,7.4c-19.8,2-33,6.8-41.6,15.1c-9.2,8.9-13.4,22-13.4,41.3s4.3,32.5,13.4,41.3
		c8.5,8.3,21.7,13.1,41.6,15.1c3.8,0.4,6.6,3.5,6.6,7.4v21.1c0,3.9,3.1,7,7,7H1331c2.8,0,5,2.2,5,5v58.5
		c-11.2,0.7-120.7,7.9-275,13.2c-111,4.2-214.7,6.3-308.1,6.3c-162,0-238.2-6.5-238.9-6.6l-1.1-0.1v440.5L273.9,944.9L273.9,944.9z"
		/>
	<g>
		<g>
			<path class="st21" d="M282.9,880c-2.9,0-5.5-1.7-6.7-4.3c-10.3-22.9-48.9-101.4-114.5-152.1c-1.8-1.4-2.9-3.6-2.9-5.9V649
				c0-2.7,2.2-5,5-5h310c3.8,0,7,3.3,7,7.4v221.3c0,4.1-3.1,7.4-7,7.4H282.9V880z"/>
			<g>
				<path class="st22" d="M473.8,645c3.3,0,6,2.9,6,6.4v221.3c0,3.5-2.7,6.4-6,6.4h-191c-2.5,0-4.8-1.5-5.8-3.8
					c-10.3-22.9-49-101.6-114.8-152.5c-1.5-1.2-2.5-3.1-2.5-5.1V649c0-2.2,1.8-4,4-4H473.8 M473.8,643h-310c-3.3,0-6,2.7-6,6v68.7
					c0,2.6,1.2,5.1,3.2,6.7c66.1,51,104.9,131.1,114.2,151.7c1.4,3,4.3,4.9,7.6,4.9h191c4.4,0,8-3.7,8-8.4V651.4
					C481.8,646.7,478.2,643,473.8,643L473.8,643z"/>
			</g>
		</g>
		<g>
			<path class="st21" d="M512.4,713.7v-49.6h75.8c2.8,0,5,2.2,5,5v39.6c0,2.8-2.2,5-5,5H512.4z"/>
			<path class="st22" d="M588.2,665.1c2.2,0,4,1.8,4,4v39.6c0,2.2-1.8,4-4,4h-74.8v-47.6H588.2 M588.2,663.1h-76.8v51.6h76.8
				c3.3,0,6-2.7,6-6v-39.6C594.2,665.8,591.5,663.1,588.2,663.1L588.2,663.1z"/>
		</g>
		<g>
			<path class="st21" d="M512.4,836.2v-100h75.8c2.8,0,5,2.2,5,5v90c0,2.8-2.2,5-5,5H512.4z"/>
			<path class="st22" d="M588.2,737.2c2.2,0,4,1.8,4,4v90c0,2.2-1.8,4-4,4h-74.8v-98H588.2 M588.2,735.2h-76.8v102h76.8
				c3.3,0,6-2.7,6-6v-90C594.2,737.9,591.5,735.2,588.2,735.2L588.2,735.2z"/>
		</g>
		<g>
			<path class="st21" d="M512.4,882.2v-46h57.8c2.8,0,5,2.2,5,5v36c0,2.8-2.2,5-5,5H512.4z"/>
			<path class="st22" d="M570.2,837.2c2.2,0,4,1.8,4,4v36c0,2.2-1.8,4-4,4h-56.8v-44H570.2 M570.2,835.2h-58.8v48h58.8
				c3.3,0,6-2.7,6-6v-36C576.2,837.9,573.5,835.2,570.2,835.2L570.2,835.2z"/>
		</g>
		<g>
			<path class="st21" d="M164.2,586.2c-2.8,0-5-2.2-5-5v-70c0-2.8,2.2-5,5-5h85v75c0,2.8-2.2,5-5,5H164.2z"/>
			<path class="st22" d="M248.2,507.2v74c0,2.2-1.8,4-4,4h-80c-2.2,0-4-1.8-4-4v-70c0-2.2,1.8-4,4-4H248.2 M250.2,505.2h-86
				c-3.3,0-6,2.7-6,6v70c0,3.3,2.7,6,6,6h80c3.3,0,6-2.7,6-6V505.2L250.2,505.2z"/>
		</g>
		<g>
			<path class="st21" d="M254.2,586.2c-2.8,0-5-2.2-5-5v-75h28v75c0,2.8-2.2,5-5,5H254.2z"/>
			<path class="st22" d="M276.2,507.2v74c0,2.2-1.8,4-4,4h-18c-2.2,0-4-1.8-4-4v-74H276.2 M278.2,505.2h-30v76c0,3.3,2.7,6,6,6h18
				c3.3,0,6-2.7,6-6V505.2L278.2,505.2z"/>
		</g>
		<g>
			<path class="st21" d="M282.2,586.2c-2.8,0-5-2.2-5-5v-75h28v75c0,2.8-2.2,5-5,5H282.2z"/>
			<path class="st22" d="M304.2,507.2v74c0,2.2-1.8,4-4,4h-18c-2.2,0-4-1.8-4-4v-74H304.2 M306.2,505.2h-30v76c0,3.3,2.7,6,6,6h18
				c3.3,0,6-2.7,6-6V505.2L306.2,505.2z"/>
		</g>
		<g>
			<path class="st21" d="M310.2,586.2c-2.8,0-5-2.2-5-5v-75h28v75c0,2.8-2.2,5-5,5H310.2z"/>
			<path class="st22" d="M332.2,507.2v74c0,2.2-1.8,4-4,4h-18c-2.2,0-4-1.8-4-4v-74H332.2 M334.2,505.2h-30v76c0,3.3,2.7,6,6,6h18
				c3.3,0,6-2.7,6-6V505.2L334.2,505.2z"/>
		</g>
		<g>
			<path class="st21" d="M338.2,586.2c-2.8,0-5-2.2-5-5v-75h28v75c0,2.8-2.2,5-5,5H338.2z"/>
			<path class="st22" d="M360.2,507.2v74c0,2.2-1.8,4-4,4h-18c-2.2,0-4-1.8-4-4v-74H360.2 M362.2,505.2h-30v76c0,3.3,2.7,6,6,6h18
				c3.3,0,6-2.7,6-6V505.2L362.2,505.2z"/>
		</g>
		<g>
			<path class="st21" d="M366.2,586.2c-2.8,0-5-2.2-5-5v-75h28v75c0,2.8-2.2,5-5,5H366.2z"/>
			<path class="st22" d="M388.2,507.2v74c0,2.2-1.8,4-4,4h-18c-2.2,0-4-1.8-4-4v-74H388.2 M390.2,505.2h-30v76c0,3.3,2.7,6,6,6h18
				c3.3,0,6-2.7,6-6V505.2L390.2,505.2z"/>
		</g>
		<g>
			<path class="st21" d="M394.2,586.2c-2.8,0-5-2.2-5-5v-75h28v75c0,2.8-2.2,5-5,5H394.2z"/>
			<path class="st22" d="M416.2,507.2v74c0,2.2-1.8,4-4,4h-18c-2.2,0-4-1.8-4-4v-74H416.2 M418.2,505.2h-30v76c0,3.3,2.7,6,6,6h18
				c3.3,0,6-2.7,6-6V505.2L418.2,505.2z"/>
		</g>
		<g>
			<path class="st21" d="M422.2,586.2c-2.8,0-5-2.2-5-5v-75h28v75c0,2.8-2.2,5-5,5H422.2z"/>
			<path class="st22" d="M444.2,507.2v74c0,2.2-1.8,4-4,4h-18c-2.2,0-4-1.8-4-4v-74H444.2 M446.2,505.2h-30v76c0,3.3,2.7,6,6,6h18
				c3.3,0,6-2.7,6-6V505.2L446.2,505.2z"/>
		</g>
		<g>
			<path class="st21" d="M450.2,586.2c-2.8,0-5-2.2-5-5v-75h28v75c0,2.8-2.2,5-5,5H450.2z"/>
			<path class="st22" d="M472.2,507.2v74c0,2.2-1.8,4-4,4h-18c-2.2,0-4-1.8-4-4v-74H472.2 M474.2,505.2h-30v76c0,3.3,2.7,6,6,6h18
				c3.3,0,6-2.7,6-6V505.2L474.2,505.2z"/>
		</g>
		<g>
			<path class="st21" d="M209.8,707c-2.8,0-5-2.2-5-5v-58h44v58c0,2.8-2.2,5-5,5H209.8z"/>
			<path class="st22" d="M247.8,645v57c0,2.2-1.8,4-4,4h-34c-2.2,0-4-1.8-4-4v-57H247.8 M249.8,643h-46v59c0,3.3,2.7,6,6,6h34
				c3.3,0,6-2.7,6-6V643L249.8,643z"/>
		</g>
		<g>
			<path class="st21" d="M253.8,707c-2.8,0-5-2.2-5-5v-58h44v58c0,2.8-2.2,5-5,5H253.8z"/>
			<path class="st22" d="M291.8,645v57c0,2.2-1.8,4-4,4h-34c-2.2,0-4-1.8-4-4v-57H291.8 M293.8,643h-46v59c0,3.3,2.7,6,6,6h34
				c3.3,0,6-2.7,6-6V643L293.8,643z"/>
		</g>
		<g>
			<path class="st21" d="M297.8,707c-2.8,0-5-2.2-5-5v-58h44v58c0,2.8-2.2,5-5,5H297.8z"/>
			<path class="st22" d="M335.8,645v57c0,2.2-1.8,4-4,4h-34c-2.2,0-4-1.8-4-4v-57H335.8 M337.8,643h-46v59c0,3.3,2.7,6,6,6h34
				c3.3,0,6-2.7,6-6V643L337.8,643z"/>
		</g>
		<g>
			<g>
				<path class="st21" d="M317.4,910c-2.8,0-5-2.2-5-5v-25h68v25c0,2.8-2.2,5-5,5H317.4z"/>
				<path class="st22" d="M379.4,881v24c0,2.2-1.8,4-4,4h-58c-2.2,0-4-1.8-4-4v-24H379.4 M381.4,879h-70v26c0,3.3,2.7,6,6,6h58
					c3.3,0,6-2.7,6-6V879L381.4,879z"/>
			</g>
		</g>
		<g>
			<g>
				<path class="st21" d="M385.4,910c-2.8,0-5-2.2-5-5v-25h90v25c0,2.8-2.2,5-5,5H385.4z"/>
				<path class="st22" d="M469.4,881v24c0,2.2-1.8,4-4,4h-80c-2.2,0-4-1.8-4-4v-24H469.4 M471.4,879h-92v26c0,3.3,2.7,6,6,6h80
					c3.3,0,6-2.7,6-6V879L471.4,879z"/>
			</g>
		</g>
		<g>
			<g>
				<path class="st21" d="M273.9,946.8v44.7c0,3.9,3.1,7,7,7h42.2c0,0,12.4,1.7,23.7,16.2c11.3,14.5,24.6,12.6,24.6,12.6h141v-80.5
					L273.9,946.8L273.9,946.8z"/>
				<path class="st22" d="M369.7,1028.4c-1.5,0-3.8-0.2-6.6-1c-4.5-1.2-11.1-4.4-17.1-12.1c-10.5-13.5-22.1-15.7-23-15.8h-42.1
					c-4.4,0-8-3.6-8-8v-45.7h240.5v82.5H371.5C371.3,1028.3,370.6,1028.4,369.7,1028.4z M274.9,947.8v43.7c0,3.3,2.7,6,6,6h42.3
					c0.5,0.1,13,1.9,24.4,16.6c10.8,13.9,23.5,12.2,23.7,12.2h0.1h140v-78.5L274.9,947.8L274.9,947.8z"/>
			</g>
		</g>
		<g>
			<path class="st21" d="M347.8,736c-2.8,0-5-2.2-5-5v-42c0-2.8,2.2-5,5-5h128c2.8,0,5,2.2,5,5v42c0,2.8-2.2,5-5,5H347.8z"/>
			<path class="st22" d="M475.8,685c2.2,0,4,1.8,4,4v42c0,2.2-1.8,4-4,4h-128c-2.2,0-4-1.8-4-4v-42c0-2.2,1.8-4,4-4H475.8 M475.8,683
				h-128c-3.3,0-6,2.7-6,6v42c0,3.3,2.7,6,6,6h128c3.3,0,6-2.7,6-6v-42C481.8,685.7,479.1,683,475.8,683L475.8,683z"/>
		</g>
		<g>
			<path class="st21" d="M347.8,788c-2.8,0-5-2.2-5-5v-42c0-2.8,2.2-5,5-5h128c2.8,0,5,2.2,5,5v42c0,2.8-2.2,5-5,5H347.8z"/>
			<path class="st22" d="M475.8,737c2.2,0,4,1.8,4,4v42c0,2.2-1.8,4-4,4h-128c-2.2,0-4-1.8-4-4v-42c0-2.2,1.8-4,4-4H475.8 M475.8,735
				h-128c-3.3,0-6,2.7-6,6v42c0,3.3,2.7,6,6,6h128c3.3,0,6-2.7,6-6v-42C481.8,737.7,479.1,735,475.8,735L475.8,735z"/>
		</g>
		<g>
			<path class="st21" d="M347.8,840c-2.8,0-5-2.2-5-5v-42c0-2.8,2.2-5,5-5h128c2.8,0,5,2.2,5,5v42c0,2.8-2.2,5-5,5H347.8z"/>
			<path class="st22" d="M475.8,789c2.2,0,4,1.8,4,4v42c0,2.2-1.8,4-4,4h-128c-2.2,0-4-1.8-4-4v-42c0-2.2,1.8-4,4-4H475.8 M475.8,787
				h-128c-3.3,0-6,2.7-6,6v42c0,3.3,2.7,6,6,6h128c3.3,0,6-2.7,6-6v-42C481.8,789.7,479.1,787,475.8,787L475.8,787z"/>
		</g>
		<g id="Elevator_16_">
			<g>
				<g>
					<path class="st24" d="M214.2,586.2c-2.8,0-5-2.2-5-5v-30c0-2.8,2.2-5,5-5h30c2.8,0,5,2.2,5,5v30c0,2.8-2.2,5-5,5H214.2z"/>
					<path class="st22" d="M244.2,547.2c2.2,0,4,1.8,4,4v30c0,2.2-1.8,4-4,4h-30c-2.2,0-4-1.8-4-4v-30c0-2.2,1.8-4,4-4H244.2
						 M244.2,545.2h-30c-3.3,0-6,2.7-6,6v30c0,3.3,2.7,6,6,6h30c3.3,0,6-2.7,6-6v-30C250.2,547.9,247.5,545.2,244.2,545.2
						L244.2,545.2z"/>
				</g>
			</g>
		</g>
		<g id="Elevator_15_">
			<g>
				<g>
					<path class="st24" d="M163.8,724c-2.8,0-5-2.2-5-5v-30c0-2.8,2.2-5,5-5h30c2.8,0,5,2.2,5,5v30c0,2.8-2.2,5-5,5H163.8z"/>
					<path class="st22" d="M193.8,685c2.2,0,4,1.8,4,4v30c0,2.2-1.8,4-4,4h-30c-2.2,0-4-1.8-4-4v-30c0-2.2,1.8-4,4-4H193.8
						 M193.8,683h-30c-3.3,0-6,2.7-6,6v30c0,3.3,2.7,6,6,6h30c3.3,0,6-2.7,6-6v-30C199.8,685.7,197.1,683,193.8,683L193.8,683z"/>
				</g>
			</g>
		</g>
		<g id="Elevator_14_">
			<g>
				<g>
					<path class="st24" d="M387.8,684c-2.8,0-5-2.2-5-5v-30c0-2.8,2.2-5,5-5h30c2.8,0,5,2.2,5,5v30c0,2.8-2.2,5-5,5H387.8z"/>
					<path class="st22" d="M417.8,645c2.2,0,4,1.8,4,4v30c0,2.2-1.8,4-4,4h-30c-2.2,0-4-1.8-4-4v-30c0-2.2,1.8-4,4-4H417.8
						 M417.8,643h-30c-3.3,0-6,2.7-6,6v30c0,3.3,2.7,6,6,6h30c3.3,0,6-2.7,6-6v-30C423.8,645.7,421.1,643,417.8,643L417.8,643z"/>
				</g>
			</g>
		</g>
		<g id="Elevator_13_">
			<g>
				<g>
					<path class="st24" d="M517.4,617.3c-2.8,0-5-2.2-5-5v-30c0-2.8,2.2-5,5-5h30c2.8,0,5,2.2,5,5v30c0,2.8-2.2,5-5,5H517.4z"/>
					<path class="st22" d="M547.4,578.3c2.2,0,4,1.8,4,4v30c0,2.2-1.8,4-4,4h-30c-2.2,0-4-1.8-4-4v-30c0-2.2,1.8-4,4-4H547.4
						 M547.4,576.3h-30c-3.3,0-6,2.7-6,6v30c0,3.3,2.7,6,6,6h30c3.3,0,6-2.7,6-6v-30C553.4,579,550.7,576.3,547.4,576.3L547.4,576.3
						z"/>
				</g>
			</g>
		</g>
		<g id="Elevator_12_">
			<g>
				<g>
					<path class="st24" d="M540.4,1011c-2.8,0-5-2.2-5-5v-30c0-2.8,2.2-5,5-5h30c2.8,0,5,2.2,5,5v30c0,2.8-2.2,5-5,5H540.4z"/>
					<path class="st22" d="M570.4,972c2.2,0,4,1.8,4,4v30c0,2.2-1.8,4-4,4h-30c-2.2,0-4-1.8-4-4v-30c0-2.2,1.8-4,4-4H570.4
						 M570.4,970h-30c-3.3,0-6,2.7-6,6v30c0,3.3,2.7,6,6,6h30c3.3,0,6-2.7,6-6v-30C576.4,972.7,573.7,970,570.4,970L570.4,970z"/>
				</g>
			</g>
		</g>
		<g id="Stairs_4_">
			<g>
				<path class="st24" d="M347.8,684c-2.8,0-5-2.2-5-5v-30c0-2.8,2.2-5,5-5h30c2.8,0,5,2.2,5,5v30c0,2.8-2.2,5-5,5H347.8z"/>
				<path class="st22" d="M377.8,645c2.2,0,4,1.8,4,4v30c0,2.2-1.8,4-4,4h-30c-2.2,0-4-1.8-4-4v-30c0-2.2,1.8-4,4-4H377.8 M377.8,643
					h-30c-3.3,0-6,2.7-6,6v30c0,3.3,2.7,6,6,6h30c3.3,0,6-2.7,6-6v-30C383.8,645.7,381.1,643,377.8,643L377.8,643z"/>
			</g>
		</g>
		<g id="Exit_19_">
			<g>
				<path class="st24" d="M163.8,684c-2.8,0-5-2.2-5-5v-30c0-2.8,2.2-5,5-5h12c2.8,0,5,2.2,5,5v30c0,2.8-2.2,5-5,5H163.8z"/>
				<path class="st22" d="M175.8,645c2.2,0,4,1.8,4,4v30c0,2.2-1.8,4-4,4h-12c-2.2,0-4-1.8-4-4v-30c0-2.2,1.8-4,4-4H175.8 M175.8,643
					h-12c-3.3,0-6,2.7-6,6v30c0,3.3,2.7,6,6,6h12c3.3,0,6-2.7,6-6v-30C181.8,645.7,179.1,643,175.8,643L175.8,643z"/>
			</g>
		</g>
		<g id="Exit_18_">
			<g>
				<path class="st24" d="M517.4,577.4c-2.8,0-5-2.2-5-5v-30c0-2.8,2.2-5,5-5h12c2.8,0,5,2.2,5,5v30c0,2.8-2.2,5-5,5H517.4z"/>
				<path class="st22" d="M529.4,538.4c2.2,0,4,1.8,4,4v30c0,2.2-1.8,4-4,4h-12c-2.2,0-4-1.8-4-4v-30c0-2.2,1.8-4,4-4H529.4
					 M529.4,536.4h-12c-3.3,0-6,2.7-6,6v30c0,3.3,2.7,6,6,6h12c3.3,0,6-2.7,6-6v-30C535.4,539.1,532.7,536.4,529.4,536.4
					L529.4,536.4z"/>
			</g>
		</g>
		<g id="Exit_17_">
			<g>
				<path class="st24" d="M164.2,586.2c-2.8,0-5-2.2-5-5v-30c0-2.8,2.2-5,5-5h12c2.8,0,5,2.2,5,5v30c0,2.8-2.2,5-5,5H164.2z"/>
				<path class="st22" d="M176.2,547.2c2.2,0,4,1.8,4,4v30c0,2.2-1.8,4-4,4h-12c-2.2,0-4-1.8-4-4v-30c0-2.2,1.8-4,4-4H176.2
					 M176.2,545.2h-12c-3.3,0-6,2.7-6,6v30c0,3.3,2.7,6,6,6h12c3.3,0,6-2.7,6-6v-30C182.2,547.9,179.5,545.2,176.2,545.2
					L176.2,545.2z"/>
			</g>
		</g>
		<g id="Exit_16_">
			<g>
				<path class="st24" d="M540.4,931c-2.8,0-5-2.2-5-5v-30c0-2.8,2.2-5,5-5h12c2.8,0,5,2.2,5,5v30c0,2.8-2.2,5-5,5H540.4z"/>
				<path class="st22" d="M552.4,892c2.2,0,4,1.8,4,4v30c0,2.2-1.8,4-4,4h-12c-2.2,0-4-1.8-4-4v-30c0-2.2,1.8-4,4-4H552.4 M552.4,890
					h-12c-3.3,0-6,2.7-6,6v30c0,3.3,2.7,6,6,6h12c3.3,0,6-2.7,6-6v-30C558.4,892.7,555.7,890,552.4,890L552.4,890z"/>
			</g>
		</g>
		<g id="Exit_15_">
			<g>
				<path class="st24" d="M220.6,807.2c-2.8,0-5-2.2-5-5v-30c0-2.8,2.2-5,5-5h12c2.8,0,5,2.2,5,5v30c0,2.8-2.2,5-5,5H220.6z"/>
				<path class="st22" d="M232.6,768.2c2.2,0,4,1.8,4,4v30c0,2.2-1.8,4-4,4h-12c-2.2,0-4-1.8-4-4v-30c0-2.2,1.8-4,4-4H232.6
					 M232.6,766.2h-12c-3.3,0-6,2.7-6,6v30c0,3.3,2.7,6,6,6h12c3.3,0,6-2.7,6-6v-30C238.6,768.9,235.9,766.2,232.6,766.2
					L232.6,766.2z"/>
			</g>
		</g>
	</g>
	<a id="magf115" xlink:href="#" >
		<g>
			<path class="st21" d="M1308,187.1v13.8h17.1c4.7,0,10.9-2.2,10.9-5l-0.6-33.2c-28.3-1.8-20.5-2.4-52.9-3V187L1308,187.1
				L1308,187.1z"/>
		</g>
	</a>
	<path class="st21" d="M436.1,383.7c-44,0-99.5-11.2-101.7-11.6c-1.1-0.4-2.3-0.7-3.6-1.1c-11-3.3-24.7-7.4-24.7-37.2
		s13.7-33.9,24.7-37.2c1.3-0.4,2.5-0.8,3.6-1.1c0.4-0.1,46.1-11.6,101.7-11.6c49.7,0,91.9,19.5,96.5,21.7c0.1,0,0.1,0.1,0.2,0.1
		c8,1.7,17.2,7,17.3,7c5.5,3.1,8,11.3,8.9,15.9c0.7,3.5,0.7,7.2,0,10.6c-1,4.6-3.4,12.8-8.9,15.9c-0.1,0.1-9.3,5.3-17.3,7
		c-0.1,0-0.2,0-0.2,0.1C528,364.2,485.9,383.7,436.1,383.7z"/>
	<path class="st22" d="M436.1,284.7c49.5,0,91.5,19.4,96.1,21.6c0.1,0.1,0.3,0.1,0.4,0.2c7.9,1.7,16.9,6.9,17,6.9
		c5.1,2.9,7.5,10.8,8.4,15.2c0.7,3.3,0.7,6.9,0,10.2c-0.9,4.4-3.3,12.3-8.5,15.2c-0.1,0.1-9.1,5.3-17,6.9c-0.2,0-0.3,0.1-0.4,0.2
		c-4.6,2.2-46.6,21.6-96.1,21.6c-43.5,0-98.5-11-101.5-11.6c-1.1-0.4-2.3-0.7-3.6-1.1c-10.7-3.2-24-7.2-24-36.3
		c0-29.1,13.3-33.1,24-36.3c1.3-0.4,2.5-0.7,3.6-1.1C336.8,295.8,381.7,284.7,436.1,284.7 M436.1,282.7c-56.3,0-102,11.7-102,11.7
		c-10.9,3.7-29,5.2-29,39.3s18.1,35.6,29,39.3c0,0,56.7,11.7,102,11.7c50.4,0,93.5-20.1,97-21.8c8.3-1.8,17.6-7.1,17.6-7.1
		c5.7-3.2,8.3-11.1,9.4-16.5c0.8-3.6,0.8-7.4,0-11.1c-1.2-5.4-3.8-13.4-9.4-16.5c0,0-9.3-5.4-17.6-7.1
		C529.6,302.8,486.5,282.7,436.1,282.7L436.1,282.7z"/>
	<g>
		<path class="st21" d="M502.5,372.9c-2.1,0-4.1-0.9-5.5-2.5c-4.3-4.8-9.4-15.1-9.4-36.8s5.1-31.9,9.4-36.8c1.4-1.6,3.4-2.5,5.5-2.5
			c0.7,0,1.5,0.1,2.2,0.3c15.7,4.9,26,9.7,27.9,10.6l0.1,0.1h0.1c8.1,1.7,17.2,7,17.3,7c5.5,3.1,8,11.3,8.9,15.9
			c0.7,3.5,0.7,7.1,0,10.6c-1,4.6-3.4,12.8-8.9,15.9c-0.1,0.1-9.3,5.3-17.3,7h-0.1l-0.1,0.1c-1.9,0.9-12.2,5.7-27.9,10.6
			C504,372.8,503.3,372.9,502.5,372.9L502.5,372.9z"/>
		<g>
			<path class="st22" d="M502.5,295.5c0.6,0,1.3,0.1,1.9,0.3c15.7,4.9,25.9,9.6,27.8,10.5l0.2,0.1h0.2c7.9,1.7,16.9,6.9,17,6.9
				c5.1,2.9,7.5,10.8,8.4,15.2c0.7,3.4,0.7,6.8,0,10.2c-0.9,4.4-3.3,12.3-8.5,15.2c-0.1,0.1-9.1,5.3-17,6.9h-0.2l-0.2,0.1
				c-1.9,0.9-12.1,5.7-27.8,10.5c-0.6,0.2-1.3,0.3-1.9,0.3c-1.8,0-3.6-0.8-4.8-2.1c-4.2-4.7-9.2-14.8-9.2-36.1s5-31.4,9.2-36.1
				C499,296.3,500.7,295.5,502.5,295.5 M502.5,293.5c-2.4,0-4.7,1-6.3,2.8c-4.2,4.7-9.7,15.1-9.7,37.4s5.5,32.7,9.7,37.4
				c1.6,1.8,3.9,2.8,6.3,2.8c0.8,0,1.7-0.1,2.5-0.4c15.9-5,26.4-9.9,28-10.6c8.3-1.8,17.6-7.1,17.6-7.1c5.7-3.2,8.3-11.1,9.4-16.5
				c0.8-3.6,0.8-7.4,0-11.1c-1.2-5.4-3.8-13.4-9.4-16.5c0,0-9.3-5.4-17.6-7.1c-1.6-0.8-12.1-5.7-28-10.6
				C504.2,293.6,503.4,293.5,502.5,293.5L502.5,293.5z"/>
		</g>
	</g>
	<g>
		<path class="st21" d="M834.7,383.9c-48.7,0-91.3-19.2-96-21.4c-0.4-0.2-0.9-0.4-1.4-0.5c-7.9-1.8-16.6-6.8-16.7-6.9
			c-7.6-4.2-9.4-18-9.7-20.7c0-0.3,0-0.7,0-1c0.3-2.7,2.1-16.5,9.7-20.7c0.1-0.1,8.8-5.1,16.7-6.9c0.5-0.1,0.9-0.3,1.4-0.5
			c4.7-2.2,47.3-21.4,96-21.4c53.5,0,96.8,10.4,101.5,11.6c0.1,0,0.2,0.1,0.3,0.1c1.1,0.4,2.2,0.7,3.4,1.1c7.5,2.3,16.8,5.1,21.5,17
			c1,2.6,3.7,4.4,6.6,4.4h26.1c3.9,0,7-3.1,7-7v-5.4c0-2.8,2.2-5,5-5h56.4c2.8,0,5,2.2,5,5v56.4c0,2.8-2.2,5-5,5h-56.4
			c-2.8,0-5-2.2-5-5v-5.4c0-3.9-3.1-7-7-7h-26c-2.9,0-5.6,1.8-6.6,4.4c-4.7,12-14.1,14.8-21.6,17.1c-1.2,0.3-2.3,0.7-3.3,1
			c-0.2,0.1-0.4,0.1-0.6,0.2C930.2,373.5,877.5,383.9,834.7,383.9z"/>
		<path class="st22" d="M834.7,284.9c53.4,0,96.5,10.4,101.3,11.5c0.1,0,0.2,0,0.3,0.1c1.1,0.4,2.3,0.7,3.5,1.1
			c7.7,2.3,16.4,4.9,20.9,16.4c1.2,3,4.2,5,7.5,5h26.1c4.4,0,8-3.6,8-8v-5.4c0-2.2,1.8-4,4-4h56.4c2.2,0,4,1.8,4,4v56.5
			c0,2.2-1.8,4-4,4h-56.4c-2.2,0-4-1.8-4-4v-5.4c0-4.4-3.6-8-8-8h-26c-3.3,0-6.3,2-7.5,5.1c-4.5,11.5-13.2,14.2-20.9,16.5
			c-1.2,0.4-2.3,0.7-3.3,1c-0.2,0.1-0.3,0.1-0.4,0.1c-5.9,1.2-58.5,11.6-101.2,11.6c-48.5,0-90.9-19.2-95.6-21.3
			c-0.5-0.2-1-0.4-1.6-0.5c-7.7-1.8-16.3-6.7-16.5-6.8c-7.2-4-8.9-17.3-9.2-19.9c0-0.3,0-0.5,0-0.8c0.2-1.5,0.7-5.6,2.1-9.8
			c1.7-5,4.2-8.5,7.1-10.2c0.1,0,8.7-5,16.4-6.8c0.6-0.1,1.1-0.3,1.6-0.5C743.8,304.1,786.2,284.9,834.7,284.9 M834.7,282.9
			c-48.5,0-90.3,18.7-96.4,21.5c-0.4,0.2-0.8,0.3-1.2,0.4c-8.1,1.9-17,7-17,7c-8,4.4-9.9,18.4-10.2,21.5c0,0.4,0,0.8,0,1.2
			c0.3,3.1,2.2,17,10.2,21.5c0,0,8.8,5.1,17,7c0.4,0.1,0.8,0.2,1.2,0.4c6.1,2.9,47.9,21.5,96.4,21.5c43.2,0,96.8-10.6,101.6-11.6
			c0.2,0,0.5-0.1,0.7-0.2c8.1-2.7,19.9-4.4,25.5-18.7c0.9-2.3,3.2-3.8,5.7-3.8h26c3.3,0,6,2.7,6,6v5.4c0,3.3,2.7,6,6,6h56.4
			c3.3,0,6-2.7,6-6v-56.4c0-3.3-2.7-6-6-6h-56.4c-3.3,0-6,2.7-6,6v5.4c0,3.3-2.7,6-6,6h-26.1c-2.5,0-4.8-1.5-5.7-3.8
			c-5.7-14.3-17.5-15.9-25.6-18.7c-0.1,0-0.3-0.1-0.4-0.1C933,293.7,888.8,282.9,834.7,282.9L834.7,282.9z"/>
	</g>
	<g>
		<path class="st22" d="M626.4,367.9c43.5,0,74.8,8.7,107.9,17.8l2.8,0.8c31.7,8.8,72.5,15.9,99.3,17.2c3.4,0.2,6.1,3,6.1,6.4v22.4
			v14.4c0,2.2-1.8,4-4,4h-10.9c-1.1,0-2,0.9-2,2v16c0,1.1,0.9,2,2,2h10.9c2.2,0,4,1.8,4,4v34.4c-29.7,0.6-60.1,0.9-90.2,0.9
			c-130.7,0-224.6-5.8-238.8-6.7v-21.2c0-2.2,1.8-4,4-4h9.9c4.4,0,8-3.6,8-8v-27.6c0-2.2,1.8-4,4-4h49.3c4.4,0,8-3.6,8-8v-10.2
			c0-4.4-3.6-8-8-8h-49.3c-2.2,0-4-1.8-4-4v-20.7c0-1.6,1-3.1,2.5-3.7c11-4.6,40.9-15.3,80.2-16.2
			C620.9,367.9,623.7,367.9,626.4,367.9 M626.4,365.9c-2.7,0-5.5,0-8.3,0.1c-40.1,1-70.7,12.2-80.9,16.4c-2.2,0.9-3.7,3.1-3.7,5.5
			v20.7c0,3.3,2.7,6,6,6h49.3c3.3,0,6,2.7,6,6v10.2c0,3.3-2.7,6-6,6h-49.3c-3.3,0-6,2.7-6,6v27.6c0,3.3-2.7,6-6,6h-9.9
			c-3.3,0-6,2.7-6,6v23.1c0,0,97.7,6.8,240.8,6.8c29,0,59.9-0.3,92.2-1V475c0-3.3-2.7-6-6-6h-10.9v-16h10.9c3.3,0,6-2.7,6-6v-14.4
			v-22.4c0-4.5-3.5-8.2-8-8.4c-25.1-1.3-65.9-8-98.9-17.2C703,375,671.4,365.9,626.4,365.9L626.4,365.9z"/>
	</g>
	<line class="st25" x1="316.8" y1="171.3" x2="316.8" y2="277.9"/>
	<line class="st25" x1="414.6" y1="160.7" x2="414.6" y2="263.4"/>
	<g>
		<path class="st22" d="M499,156v105.9c0,3.5-2.9,6.4-6.4,6.4c-0.5,0-0.9-0.1-1.4-0.1c-20.3-4.4-42-6.7-64.5-6.7
			c-75.5,0-140.3,25.3-152.5,30.4c-0.8,0.3-1.6,0.5-2.5,0.5h-42.5c-6.7,0-12.5-4.5-14.3-10.9l-19.4-70.2c-0.7-2.5,0.2-5.1,2.2-6.7
			c8.5-6.6,38.1-23.3,130.3-34.4C329.2,170,421.2,158.5,499,156 M501,153.9c-79.2,2.4-173,14.3-173,14.3
			c-91,10.9-121.9,27.4-131.3,34.8c-2.7,2.1-3.8,5.6-2.9,8.8l19.4,70.2c2,7.3,8.7,12.4,16.2,12.4h42.5c1.1,0,2.2-0.2,3.2-0.6
			c10.6-4.4,75.2-30.3,151.7-30.3c20.7,0,42.4,1.9,64,6.6c0.6,0.1,1.2,0.2,1.8,0.2c4.5,0,8.4-3.7,8.4-8.4L501,153.9L501,153.9z"/>
	</g>
	<line class="st25" x1="635.4" y1="150.8" x2="635.4" y2="301.5"/>
	<line class="st25" x1="536.4" y1="222.9" x2="635.4" y2="222.9"/>
	<line class="st25" x1="737.4" y1="149" x2="737.4" y2="282.9"/>
	<line class="st25" x1="686.4" y1="150.6" x2="686.4" y2="296.7"/>
	<path class="st25" d="M845.4,149.5v107.8c0,4.5-3.5,8.2-8,8.4c-24.9,1.3-65.4,8-98.2,17.2c-36.6,10.2-69.6,19.8-118.8,18.6
		c-37.9-0.9-67.3-11.1-78.7-15.7c-3.2-1.3-5.3-4.4-5.3-7.8V153"/>
	<path class="st25" d="M1174.5,155.6V215c0,3.3-2.7,6-6,6h-58.8"/>
	<path class="st25" d="M1222.5,157.4v48c0,3.3-2.7,6-6,6h-41.4"/>
	<line class="st25" x1="723" y1="381.7" x2="723" y2="511.7"/>
	<path class="st25" d="M858,509.3V410c0-4.6,3.7-8.4,8.3-8.4c10.6-0.1,31.3-0.4,63.1-1.2c0,0,15.3-1.6,24-8.4
		c8.4-6.5,25.2-10.4,38.5-11.3c4.8-0.3,8.9,3.5,8.9,8.4v117.5"/>
	<path class="st25" d="M923.4,400.5v12c0,4.6,3.8,8.4,8.4,8.4h69"/>
	<path class="st25" d="M949.8,421.5v29.4c0,4.6,3.8,8.4,8.4,8.4h42.6"/>
	<g>
		<path class="st21" d="M1056,472.1c0-2.8,2.2-5,5-5h38c2.8,0,5,2.2,5,5v31l-48,1.9V472.1z"/>
		<path class="st22" d="M1099,468.1c2.2,0,4,1.8,4,4v30.1l-46,1.8v-31.9c0-2.2,1.8-4,4-4H1099 M1099,466.1h-38c-3.3,0-6,2.7-6,6v34
			l50-2v-32C1105,468.8,1102.3,466.1,1099,466.1L1099,466.1z"/>
	</g>
	<g id="magf_x5F_111_1">
		<path class="st22" d="M858.9,151.1c48.1,0.6,95.2,1.3,140,2.1v129.5c0,1.3-1,2.3-2.3,2.4c-16.5,0-34.2-5.8-41.1-11.3
			c-9.5-7.4-25.6-9.2-26.3-9.3l0,0l0,0h-0.1l0,0l0,0c-33.3-0.8-54.9-1.1-64.7-1.2c-2.9,0-5.3-2.4-5.3-5.4V151.1 M856.9,149.1v108.8
			c0,4,3.3,7.4,7.3,7.4c9.9,0.1,31.4,0.4,64.7,1.2h0.1c0.7,0.1,16.1,1.8,25.2,8.9c7.6,5.9,25.9,11.7,42.4,11.7
			c2.4-0.1,4.2-2,4.2-4.4V151.3C946.8,150.3,896.5,149.6,856.9,149.1L856.9,149.1z"/>
	</g>
	<g id="Elevator_11">
		<g>
			<g>
				<path class="st24" d="M627,353.7c-2.8,0-5-2.2-5-5v-30c0-2.8,2.2-5,5-5h30c2.8,0,5,2.2,5,5v30c0,2.8-2.2,5-5,5H627z"/>
				<path class="st22" d="M657,314.7c2.2,0,4,1.8,4,4v30c0,2.2-1.8,4-4,4h-30c-2.2,0-4-1.8-4-4v-30c0-2.2,1.8-4,4-4H657 M657,312.7
					h-30c-3.3,0-6,2.7-6,6v30c0,3.3,2.7,6,6,6h30c3.3,0,6-2.7,6-6v-30C663,315.4,660.3,312.7,657,312.7L657,312.7z"/>
			</g>
		</g>
	</g>
	<g id="Elevator_10">
		<g>
			<g>
				<path class="st24" d="M1150,500.1c-2.8,0-5-2.2-5-5v-30c0-2.8,2.2-5,5-5h30c2.8,0,5,2.2,5,5v30c0,2.8-2.2,5-5,5H1150z"/>
				<path class="st22" d="M1180,461.1c2.2,0,4,1.8,4,4v30c0,2.2-1.8,4-4,4h-30c-2.2,0-4-1.8-4-4v-30c0-2.2,1.8-4,4-4H1180
					 M1180,459.1h-30c-3.3,0-6,2.7-6,6v30c0,3.3,2.7,6,6,6h30c3.3,0,6-2.7,6-6v-30C1186,461.8,1183.3,459.1,1180,459.1L1180,459.1z"
					/>
			</g>
		</g>
	</g>
	<g id="Elevator_2">
		<g>
			<g>
				<path class="st24" d="M169,393.1c-2.8,0-5-2.2-5-5v-30c0-2.8,2.2-5,5-5h30c2.8,0,5,2.2,5,5v30c0,2.8-2.2,5-5,5H169z"/>
				<path class="st22" d="M199,354.1c2.2,0,4,1.8,4,4v30c0,2.2-1.8,4-4,4h-30c-2.2,0-4-1.8-4-4v-30c0-2.2,1.8-4,4-4H199 M199,352.1
					h-30c-3.3,0-6,2.7-6,6v30c0,3.3,2.7,6,6,6h30c3.3,0,6-2.7,6-6v-30C205,354.8,202.3,352.1,199,352.1L199,352.1z"/>
			</g>
		</g>
	</g>
	<g id="Stairs_3">
		<g>
			<path class="st24" d="M169,353.1c-2.8,0-5-2.2-5-5v-30c0-2.8,2.2-5,5-5h30c2.8,0,5,2.2,5,5v30c0,2.8-2.2,5-5,5H169z"/>
			<path class="st22" d="M199,314.1c2.2,0,4,1.8,4,4v30c0,2.2-1.8,4-4,4h-30c-2.2,0-4-1.8-4-4v-30c0-2.2,1.8-4,4-4H199 M199,312.1
				h-30c-3.3,0-6,2.7-6,6v30c0,3.3,2.7,6,6,6h30c3.3,0,6-2.7,6-6v-30C205,314.8,202.3,312.1,199,312.1L199,312.1z"/>
		</g>
	</g>
	<g id="Stairs_2">
		<g>
			<path class="st24" d="M587,353.7c-2.8,0-5-2.2-5-5v-30c0-2.8,2.2-5,5-5h30c2.8,0,5,2.2,5,5v30c0,2.8-2.2,5-5,5H587z"/>
			<path class="st22" d="M617,314.7c2.2,0,4,1.8,4,4v30c0,2.2-1.8,4-4,4h-30c-2.2,0-4-1.8-4-4v-30c0-2.2,1.8-4,4-4H617 M617,312.7
				h-30c-3.3,0-6,2.7-6,6v30c0,3.3,2.7,6,6,6h30c3.3,0,6-2.7,6-6v-30C623,315.4,620.3,312.7,617,312.7L617,312.7z"/>
		</g>
	</g>
	<g id="Stairs_1">
		<g>
			<path class="st24" d="M1100.4,353.8c-2.8,0-5-2.2-5-5v-30c0-2.8,2.2-5,5-5h30c2.8,0,5,2.2,5,5v30c0,2.8-2.2,5-5,5H1100.4z"/>
			<path class="st22" d="M1130.4,314.8c2.2,0,4,1.8,4,4v30c0,2.2-1.8,4-4,4h-30c-2.2,0-4-1.8-4-4v-30c0-2.2,1.8-4,4-4H1130.4
				 M1130.4,312.8h-30c-3.3,0-6,2.7-6,6v30c0,3.3,2.7,6,6,6h30c3.3,0,6-2.7,6-6v-30C1136.4,315.5,1133.7,312.8,1130.4,312.8
				L1130.4,312.8z"/>
		</g>
	</g>
	<a id="shss122" xlink:href="#" >
		<g>
			<path class="st21" d="M725.8,509.9c1.3,0,2.5,0,3.8,0c1.5,0,3.1,0,4.6,0c1.2,0,2.5,0,3.7,0c1.5,0,3,0,4.5,0c1.3,0,2.6,0,3.9,0
				c1.5,0,3,0,4.5,0c1.3,0,2.6,0,3.9,0c2.5,0,5,0,7.6,0c0.6,0,1.2,0,1.8,0c2,0,4,0,6,0c0.9,0,1.8,0,2.7,0c1.8,0,3.6,0,5.4,0
				c0.8,0,1.7,0,2.5,0c2.6,0,5.1,0,7.7,0c0.3,0,0.7,0,1,0c2.3,0,4.5,0,6.8,0c0.8,0,1.7,0,2.5,0c1.8,0,3.7,0,5.5,0c0.9,0,1.7,0,2.6,0
				c2.2,0,4.5,0,6.7-0.1c0.4,0,0.7,0,1.1,0c2.5,0,5.1,0,7.6-0.1c0.9,0,1.7,0,2.6,0c1.8,0,3.6,0,5.4-0.1c0.9,0,1.8,0,2.7,0
				c1.9,0,3.9,0,5.8-0.1c0.4,0,0.7,0,1.1,0c1,0,2,0,2.9-0.1V475c0-2.2-1.8-4-4-4h-10.9c-1.1,0-2-0.9-2-2v-16c0-1.1,0.9-2,2-2h10.9
				c2.2,0,4-1.8,4-4v-14.4v-22.4c0-3.4-2.7-6.2-6.1-6.4c-26.8-1.4-67.7-8.5-99.3-17.2l-2.8-0.8c-3.5-1-6.9-1.9-10.3-2.8v127
				C724.6,509.9,725.2,509.9,725.8,509.9z"/>
		</g>
	</a>
	<a id="shss113" xlink:href="#" >
		<g>
			<path class="st21" d="M866.7,509c2.5,0,5-0.1,7.4-0.1c0.8,0,1.5,0,2.3,0c1.8,0,3.6-0.1,5.4-0.1c1,0,2,0,3-0.1
				c1.6,0,3.3-0.1,4.9-0.1c1,0,1.9,0,2.9-0.1c2.5,0,4.9-0.1,7.4-0.1c0.6,0,1.1,0,1.7,0c2,0,3.9-0.1,5.9-0.1c1,0,2,0,3-0.1
				c1.6,0,3.2-0.1,4.8-0.1c1,0,2,0,3-0.1c1.8,0,3.7-0.1,5.5-0.1c0.9,0,1.9,0,2.8-0.1c2.1,0,4.3-0.1,6.4-0.1c1.1,0,2.1-0.1,3.2-0.1
				c1.4,0,2.9-0.1,4.3-0.1c1.1,0,2.2-0.1,3.4-0.1c1.6,0,3.1-0.1,4.7-0.1c0.9,0,1.9,0,2.8-0.1c2.3-0.1,4.6-0.1,6.9-0.2
				c1.1,0,2.2-0.1,3.3-0.1c0.5,0,1.1,0,1.6,0c12.1-0.3,24.2-0.7,36.5-1.1v-45.6h-41.6c-5.2,0-9.4-4.2-9.4-9.4v-29h-17
				c-5.2,0-9.4-4.2-9.4-9.4v-10.8c-28.5,0.7-47.1,0.9-56.1,1c-4,0-7.3,3.4-7.3,7.4v99.1c1.7,0,3.5-0.1,5.2-0.1
				C865,509,865.9,509,866.7,509z"/>
		</g>
	</a>
	<a id="shss115" xlink:href="#" >
		<g>
			<path class="st21" d="M521.1,503.9c1.6,0.1,3.1,0.2,4.7,0.3c1,0.1,1.9,0.1,2.9,0.2c1.4,0.1,2.9,0.2,4.3,0.2c1,0.1,2.1,0.1,3.2,0.2
				c1.4,0.1,2.8,0.2,4.1,0.2c1.1,0.1,2.1,0.1,3.2,0.2c1.4,0.1,2.8,0.1,4.2,0.2c1.1,0.1,2.1,0.1,3.2,0.2c1.4,0.1,2.8,0.1,4.3,0.2
				c1.1,0.1,2.1,0.1,3.2,0.1c1.4,0.1,2.9,0.1,4.4,0.2c1.1,0,2.1,0.1,3.2,0.1c1.5,0.1,3,0.1,4.4,0.2c1,0,2.1,0.1,3.1,0.1
				c1.5,0.1,3,0.1,4.6,0.2c1,0,2,0.1,3.1,0.1c1.6,0.1,3.1,0.1,4.7,0.2c1,0,2,0.1,3,0.1c1.6,0.1,3.2,0.1,4.8,0.2c1,0,1.9,0.1,2.9,0.1
				c1.7,0.1,3.4,0.1,5.1,0.2c0.9,0,1.8,0.1,2.7,0.1c1.8,0.1,3.6,0.1,5.4,0.2c0.8,0,1.6,0.1,2.4,0.1c1.9,0.1,3.9,0.1,5.8,0.2
				c0.7,0,1.4,0,2.1,0.1c2.3,0.1,4.6,0.1,6.8,0.2c0.4,0,0.7,0,1.1,0c8.1,0.2,16.2,0.4,24.4,0.6c0.4,0,0.9,0,1.3,0
				c2.2,0,4.5,0.1,6.7,0.1c0.7,0,1.5,0,2.2,0c1.9,0,3.9,0.1,5.8,0.1c0.9,0,1.8,0,2.7,0c1.8,0,3.6,0.1,5.4,0.1c1,0,2,0,3,0
				c1.7,0,3.4,0,5.1,0.1c1.1,0,2.1,0,3.2,0c1.7,0,3.4,0,5,0.1c1.1,0,2.2,0,3.3,0c1.6,0,3.3,0,4.9,0.1c1.1,0,2.3,0,3.4,0
				c1.6,0,3.2,0,4.8,0c1.2,0,2.4,0,3.6,0c1.5,0,3.1,0,4.6,0c1.2,0,2.5,0,3.7,0c0.3,0,0.5,0,0.8,0V382.3
				c-28.8-7.8-57.5-14.5-95.6-14.5c-2.7,0-5.5,0-8.3,0.1c-39.3,1-69.1,11.7-80.2,16.2c-1.5,0.6-2.5,2.1-2.5,3.7v20.7
				c0,2.2,1.8,4,4,4h49.3c4.4,0,8,3.6,8,8v10.2c0,4.4-3.6,8-8,8h-49.3c-2.2,0-4,1.8-4,4v27.6c0,4.4-3.6,8-8,8h-9.9c-2.2,0-4,1.8-4,4
				v21c1.7,0.1,3.4,0.2,5.1,0.3C519.5,503.8,520.3,503.9,521.1,503.9z"/>
		</g>
	</a>
	<a id="shss101" xlink:href="#" >
		<g>
			<path class="st21" d="M307.2,172.9c-32.2,4.8-58,10.4-77.2,16.6c-8.9,2.9-15.6,5.7-20.7,8.2c-4.6,2.3-8.5,4.7-11.6,7.1
				c-0.1,0.1-0.2,0.2-0.3,0.3c-1.5,1.6-2.1,3.9-1.5,6.1l19.4,70.2c1.8,6.4,7.7,10.9,14.3,10.9h42.5c0.8,0,1.7-0.2,2.5-0.5
				c5.2-2.2,20.2-8.1,41.4-14.1v-106C312.8,172.1,310,172.5,307.2,172.9z"/>
		</g>
	</a>
	<a id="shss103" xlink:href="#" >
		<g>
			<path class="st21" d="M498.8,156c-0.6,0-1.2,0-1.7,0.1c-29.1,1.5-56.3,3.2-81.5,5.1v100.4c3.7-0.1,7.5-0.2,11.2-0.2
				c22.5,0,44.2,2.2,64.5,6.7c0.5,0.1,0.9,0.1,1.4,0.1c3.5,0,6.4-2.9,6.4-6.4V159.9c-0.1-0.2-0.2-0.4-0.2-0.6L498.8,156L498.8,156z"
				/>
		</g>
	</a>
	<a id="magf121" xlink:href="#" >
		<g>
			<path class="st21" d="M950.8,450.9c0,4.1,3.3,7.4,7.4,7.4h41.6v-36.4h-49V450.9z"/>
		</g>
	</a>
	<a id="shss112" xlink:href="#" >
		<g>
			<path class="st21" d="M931.8,419.9h68v-30.7c0-2.1-0.8-4-2.3-5.4s-3.5-2.1-5.5-2c-12.9,0.9-29.6,4.6-37.9,11.1
				c-8.8,6.9-23.9,8.5-24.5,8.6c-1.7,0-3.4,0.1-5.1,0.1v10.9C924.4,416.6,927.7,419.9,931.8,419.9z"/>
		</g>
	</a>
	<a id="magf112" xlink:href="#" >
		<g>
			<path class="st21" d="M1109.7,221l-0.4-65.9c-18-0.4-60.2-1.7-79.4-2.1v68"/>
		</g>
	</a>
	<a id="magf113" xlink:href="#" >
		<g>
			<path class="st21" d="M1168.5,220c2.8,0,5-2.2,5-5v-58.3c-20.5-0.5-41.3-1-62.2-1.5v64.7h57.2V220z"/>
		</g>
	</a>
	<a id="shss111" xlink:href="#" >
		<g>
			<path class="st21" d="M864.2,263.3c9.9,0.1,31.5,0.4,64.7,1.2l0,0l0,0h0.1l0,0l0,0c0.7,0.1,16.7,1.9,26.3,9.3
				c6.9,5.4,24.6,11.2,41.1,11.3c1.3-0.1,2.3-1.1,2.3-2.4V153.3c-44.8-0.8-91.9-1.5-140-2.1V258
				C858.9,260.9,861.3,263.3,864.2,263.3z"/>
		</g>
	</a>
	<path class="st21" d="M1281.7,213.3l1.4-29.7c-7.2,0.2-31.7-0.3-38.7-0.2v20.9v4.6c0,1.9,2.2,3.4,5,3.4L1281.7,213.3z"/>
	<a id="magf114" xlink:href="#" >
		<g>
			<path class="st21" d="M1216.5,210.4c2.8,0,5-2.2,5-5v-47.3c-15-0.4-30.4-0.9-46-1.3v53.6H1216.5L1216.5,210.4z"/>
		</g>
	</a>
	<a id="shss102" xlink:href="#" >
		<g>
			<path class="st21" d="M328.3,170.1c-3.6,0.4-7.1,0.9-10.5,1.3v105.7c25.2-7,58.8-14.1,95.8-15.5V161.3
				C366.3,165.4,328.8,170.1,328.3,170.1z"/>
		</g>
	</a>
	<path class="st21" d="M537.4,221.9h97v-70.5c-34.2,0.7-66.5,1.7-97,2.9v5.1V221.9z"/>
	<a id="shss108" xlink:href="#" >
		<g>
			<path class="st21" d="M736.1,282.7l0.3-0.1V150c-16.7,0.1-33,0.3-49,0.4v144.4C704.3,291.6,720,287.2,736.1,282.7z"/>
		</g>
	</a>
	<a id="shss109" xlink:href="#" >
		<g>
			<path class="st21" d="M738.9,281.9c31.4-8.7,71.9-15.8,98.4-17.2c3.9-0.2,7-3.5,7-7.4V150.7c-40.8-0.5-66.7-0.7-67.8-0.8
				c-12.9,0-25.7,0.1-38.2,0.1v132.1L738.9,281.9z"/>
		</g>
	</a>
	<a id="shss107" xlink:href="#" >
		<g>
			<path class="st21" d="M685.4,295.3V150.5c-16.7,0.2-33.1,0.5-49,0.8v149.2C654.5,300.1,670.4,298.1,685.4,295.3z"/>
		</g>
	</a>
	<a id="shss121" xlink:href="#" >
		<g>
			<path class="st21" d="M502.5,295.5c-1.8,0-3.6,0.8-4.8,2.1c-4.2,4.7-9.2,14.8-9.2,36.1c0,21.3,5,31.4,9.2,36.1
				c1.2,1.4,3,2.1,4.8,2.1c0.6,0,1.3-0.1,1.9-0.3c14.6-4.6,24.5-9,27.3-10.3c0.2-0.1,0.3-0.2,0.5-0.2l0,0l0.2-0.1h0.2
				c7.9-1.7,16.9-6.9,17-6.9c0.2-0.1,0.3-0.2,0.4-0.3c0.2-0.1,0.3-0.2,0.5-0.3c1.5-1.1,2.7-2.5,3.7-4.2c0-0.1,0.1-0.1,0.1-0.2
				c0.7-1.2,1.3-2.5,1.9-3.9c0.1-0.1,0.1-0.3,0.2-0.4c0-0.1,0.1-0.2,0.1-0.3c0.1-0.2,0.2-0.5,0.3-0.7c0.1-0.3,0.2-0.7,0.3-1v-0.1
				c0.4-1.4,0.8-2.7,1-3.8c0.7-3.3,0.7-6.9,0-10.2c-0.2-0.8-0.4-1.8-0.7-2.8v-0.1c-0.1-0.3-0.2-0.6-0.3-0.9l0,0
				c-0.1-0.4-0.3-0.9-0.4-1.3c-0.2-0.4-0.3-0.9-0.5-1.4c-0.5-1.3-1.1-2.6-1.8-3.7l0,0c-0.2-0.3-0.4-0.7-0.6-1
				c-0.4-0.5-0.8-1-1.2-1.5c-0.1-0.1-0.2-0.2-0.3-0.3c-0.8-0.8-1.6-1.6-2.6-2.1c-0.1-0.1-9.2-5.3-17-6.9h-0.2l-0.2-0.1
				c-0.1-0.1-0.3-0.1-0.5-0.2c-2.8-1.3-12.7-5.8-27.3-10.3C503.8,295.6,503.2,295.5,502.5,295.5z"/>
		</g>
	</a>
	<a id="magf119" xlink:href="#" >
		<g>
			<path class="st21" d="M1002.2,311.1v-5.4c0-2.2,1.8-4,4-4h56.4c2.2,0,4,1.8,4,4v56.4c0,2.2-1.8,4-4,4h-56.4c-2.2,0-4-1.8-4-4v-5.4
				L1002.2,311.1L1002.2,311.1z"/>
		</g>
	</a>
	<a id="magf118" xlink:href="#" >
		<g>
			<path class="st21" d="M1090.3,502.7l12.7-0.5v-30.1c0-2.2-1.8-4-4-4h-38c-2.2,0-4,1.8-4,4v31.8c1.3,0,2.6-0.1,3.9-0.1
				C1070.9,503.4,1080.7,503,1090.3,502.7z"/>
		</g>
	</a>
	<a id="shss110" xlink:href="#" >
		<g>
			<g>
				<path class="st24" d="M810.4,189.6c-2.8,0-5-2.2-5-5v-30c0-2.8,2.2-5,5-5h30c2.8,0,5,2.2,5,5v30c0,2.8-2.2,5-5,5H810.4z"/>
				<path class="st22" d="M840.4,150.6c2.2,0,4,1.8,4,4v30c0,2.2-1.8,4-4,4h-30c-2.2,0-4-1.8-4-4v-30c0-2.2,1.8-4,4-4H840.4
					 M840.4,148.6h-30c-3.3,0-6,2.7-6,6v30c0,3.3,2.7,6,6,6h30c3.3,0,6-2.7,6-6v-30C846.4,151.3,843.7,148.6,840.4,148.6
					L840.4,148.6z"/>
			</g>
		</g>
	</a>
	<a id="shss104" xlink:href="#" >
		<g>
			<g>
				<path class="st24" d="M563.4,222.9c-2.8,0-5-2.2-5-5v-30c0-2.8,2.2-5,5-5h30c2.8,0,5,2.2,5,5v30c0,2.8-2.2,5-5,5H563.4z"/>
				<path class="st22" d="M593.4,183.9c2.2,0,4,1.8,4,4v30c0,2.2-1.8,4-4,4h-30c-2.2,0-4-1.8-4-4v-30c0-2.2,1.8-4,4-4H593.4
					 M593.4,181.9h-30c-3.3,0-6,2.7-6,6v30c0,3.3,2.7,6,6,6h30c3.3,0,6-2.7,6-6v-30C599.4,184.6,596.7,181.9,593.4,181.9
					L593.4,181.9z"/>
			</g>
		</g>
	</a>
	<a id="shss116" xlink:href="#" >
		<g>
			<g>
				<path class="st24" d="M561.6,477.8c-2.8,0-5-2.2-5-5v-30c0-2.8,2.2-5,5-5h30c2.8,0,5,2.2,5,5v30c0,2.8-2.2,5-5,5H561.6z"/>
				<path class="st22" d="M591.6,438.8c2.2,0,4,1.8,4,4v30c0,2.2-1.8,4-4,4h-30c-2.2,0-4-1.8-4-4v-30c0-2.2,1.8-4,4-4H591.6
					 M591.6,436.8h-30c-3.3,0-6,2.7-6,6v30c0,3.3,2.7,6,6,6h30c3.3,0,6-2.7,6-6v-30C597.6,439.5,594.9,436.8,591.6,436.8
					L591.6,436.8z"/>
			</g>
		</g>
	</a>
	<a id="shss114" xlink:href="#" >
		<g>
			<g>
				<path class="st24" d="M808.6,509.9c-2.8,0-5-2.2-5-5v-30c0-2.8,2.2-5,5-5h30c2.8,0,5,2.2,5,5v30c0,2.8-2.2,5-5,5H808.6z"/>
				<path class="st22" d="M838.6,470.9c2.2,0,4,1.8,4,4v30c0,2.2-1.8,4-4,4h-30c-2.2,0-4-1.8-4-4v-30c0-2.2,1.8-4,4-4H838.6
					 M838.6,468.9h-30c-3.3,0-6,2.7-6,6v30c0,3.3,2.7,6,6,6h30c3.3,0,6-2.7,6-6v-30C844.6,471.6,841.9,468.9,838.6,468.9
					L838.6,468.9z"/>
			</g>
		</g>
	</a>
	<a id="shss120" xlink:href="#" >
		<g>
			<g>
				<g>
					<path class="st24" d="M445.2,356.9c-2.8,0-5-2.2-5-5v-30c0-2.8,2.2-5,5-5h30c2.8,0,5,2.2,5,5v30c0,2.8-2.2,5-5,5H445.2z"/>
					<path class="st22" d="M475.2,317.9c2.2,0,4,1.8,4,4v30c0,2.2-1.8,4-4,4h-30c-2.2,0-4-1.8-4-4v-30c0-2.2,1.8-4,4-4H475.2
						 M475.2,315.9h-30c-3.3,0-6,2.7-6,6v30c0,3.3,2.7,6,6,6h30c3.3,0,6-2.7,6-6v-30C481.2,318.6,478.5,315.9,475.2,315.9
						L475.2,315.9z"/>
				</g>
			</g>
		</g>
	</a>
	<a id="magf122" xlink:href="#" >
		<g>
			<g>
				<g>
					<path class="st24" d="M965.8,506.8c-2.8,0-5-2.2-5-5v-30c0-2.8,2.2-5,5-5h30c2.8,0,5,2.2,5,5v30c0,2.8-2.2,5-5,5H965.8z"/>
					<path class="st22" d="M995.8,467.8c2.2,0,4,1.8,4,4v30c0,2.2-1.8,4-4,4h-30c-2.2,0-4-1.8-4-4v-30c0-2.2,1.8-4,4-4H995.8
						 M995.8,465.8h-30c-3.3,0-6,2.7-6,6v30c0,3.3,2.7,6,6,6h30c3.3,0,6-2.7,6-6v-30C1001.8,468.5,999.1,465.8,995.8,465.8
						L995.8,465.8z"/>
				</g>
			</g>
		</g>
	</a>
	<a id="shss105" xlink:href="#" >
		<g>
			<g>
				<g>
					<path class="st24" d="M541.4,280.7c-2.8,0-5-2.2-5-5v-30c0-2.8,2.2-5,5-5h30c2.8,0,5,2.2,5,5v30c0,2.8-2.2,5-5,5H541.4z"/>
					<path class="st22" d="M571.4,241.7c2.2,0,4,1.8,4,4v30c0,2.2-1.8,4-4,4h-30c-2.2,0-4-1.8-4-4v-30c0-2.2,1.8-4,4-4L571.4,241.7
						 M571.4,239.7h-30c-3.3,0-6,2.7-6,6v30c0,3.3,2.7,6,6,6h30c3.3,0,6-2.7,6-6v-30C577.4,242.4,574.7,239.7,571.4,239.7
						L571.4,239.7z"/>
				</g>
			</g>
		</g>
	</a>
	<g id="Exit_14">
		<g>
			<path class="st24" d="M539.6,477.8c-2.8,0-5-2.2-5-5v-30c0-2.8,2.2-5,5-5h12c2.8,0,5,2.2,5,5v30c0,2.8-2.2,5-5,5H539.6z"/>
			<path class="st22" d="M551.6,438.8c2.2,0,4,1.8,4,4v30c0,2.2-1.8,4-4,4h-12c-2.2,0-4-1.8-4-4v-30c0-2.2,1.8-4,4-4H551.6
				 M551.6,436.8h-12c-3.3,0-6,2.7-6,6v30c0,3.3,2.7,6,6,6h12c3.3,0,6-2.7,6-6v-30C557.6,439.5,554.9,436.8,551.6,436.8L551.6,436.8
				z"/>
		</g>
	</g>
	<g id="Exit_13">
		<g>
			<path class="st24" d="M541.4,222.9c-2.8,0-5-2.2-5-5v-30c0-2.8,2.2-5,5-5h12c2.8,0,5,2.2,5,5v30c0,2.8-2.2,5-5,5H541.4z"/>
			<path class="st22" d="M553.4,183.9c2.2,0,4,1.8,4,4v30c0,2.2-1.8,4-4,4h-12c-2.2,0-4-1.8-4-4v-30c0-2.2,1.8-4,4-4H553.4
				 M553.4,181.9h-12c-3.3,0-6,2.7-6,6v30c0,3.3,2.7,6,6,6h12c3.3,0,6-2.7,6-6v-30C559.4,184.6,556.7,181.9,553.4,181.9L553.4,181.9
				z"/>
		</g>
	</g>
	<g id="Exit_12">
		<g>
			<path class="st24" d="M828.4,229.6c-2.8,0-5-2.2-5-5v-30c0-2.8,2.2-5,5-5h12c2.8,0,5,2.2,5,5v30c0,2.8-2.2,5-5,5H828.4z"/>
			<path class="st22" d="M840.4,190.6c2.2,0,4,1.8,4,4v30c0,2.2-1.8,4-4,4h-12c-2.2,0-4-1.8-4-4v-30c0-2.2,1.8-4,4-4H840.4
				 M840.4,188.6h-12c-3.3,0-6,2.7-6,6v30c0,3.3,2.7,6,6,6h12c3.3,0,6-2.7,6-6v-30C846.4,191.3,843.7,188.6,840.4,188.6L840.4,188.6
				z"/>
		</g>
	</g>
	<g id="Exit_11">
		<g>
			<path class="st24" d="M982.9,233.9c-2.8,0-5-2.2-5-5v-30c0-2.8,2.2-5,5-5h12c2.8,0,5,2.2,5,5v30c0,2.8-2.2,5-5,5H982.9z"/>
			<path class="st22" d="M994.9,194.9c2.2,0,4,1.8,4,4v30c0,1.1-0.4,2.1-1.2,2.8c-0.8,0.8-1.8,1.2-2.8,1.2h-12c-2.2,0-4-1.8-4-4v-30
				c0-2.2,1.8-4,4-4H994.9 M994.9,192.9h-12c-3.3,0-6,2.7-6,6v30c0,3.3,2.7,6,6,6h12c3.3,0,6-2.7,6-6v-30
				C1000.9,195.6,998.2,192.9,994.9,192.9L994.9,192.9z"/>
		</g>
	</g>
	<g id="Exit_10">
		<g>
			<path class="st24" d="M826.6,452.1c-2.8,0-5-2.2-5-5v-30c0-2.8,2.2-5,5-5h12c2.8,0,5,2.2,5,5v30c0,2.8-2.2,5-5,5H826.6z"/>
			<path class="st22" d="M838.6,413.1c2.2,0,4,1.8,4,4v30c0,2.2-1.8,4-4,4h-12c-2.2,0-4-1.8-4-4v-30c0-2.2,1.8-4,4-4H838.6
				 M838.6,411.1h-12c-3.3,0-6,2.7-6,6v30c0,3.3,2.7,6,6,6h12c3.3,0,6-2.7,6-6v-30C844.6,413.8,841.9,411.1,838.6,411.1L838.6,411.1
				z"/>
		</g>
	</g>
	<path class="st25" d="M1336,165.9v30c0,3.3-2.5,6-5.6,6h-23.1v-13.8h-24.8v-28.3"/>
	<rect x="1029" y="219.9" class="st22" width="80.8" height="2"/>
	<path class="st22" d="M1028.4,151.9v70h82.9v-68.7L1028.4,151.9z M1109.4,221h-79v-67l79,1.2V221z"/>
	<path class="st26" d="M1168.5,460.1"/>
	<path class="st26" d="M1083.5,467.1"/>
	<path class="st26" d="M148,516.1"/>
	<path class="st26" d="M148,516.1"/>
	<g id="XMLID_2_">
		<g>
			<path class="st21" d="M483.7,410.5v51.1c0,1.6-0.7,3.1-1.8,4.2c-1.1,1.1-2.6,1.8-4.2,1.8c-191-0.3-269-12.1-293.3-17
				c-4.3-0.9-6.3-6-3.6-9.5l50.2-66.5c2.4-1.8,4.4-2.6,6.6-2.6c1.2,0,2.5,0.2,4.1,0.7c21.7,7.6,98.3,32.1,184.1,32.1
				c15.6,0,31.5-0.8,47.4-2.7c0.4-0.1,0.8-0.1,1.2-0.1C479.5,402,483.7,405.8,483.7,410.5z M481.6,461.6v-51.1
				c0-3.6-3.3-6.5-7.3-6.5c-0.3,0-0.7,0.1-1,0.1c-15.3,1.8-31.3,2.7-47.7,2.7c-86.1,0-163.2-24.6-184.8-32.2
				c-1.2-0.4-2.2-0.6-3.2-0.6c-1.7,0-3.3,0.6-5.2,2l-50.1,66.4c-0.8,1.1-1,2.5-0.5,3.8s1.5,2.2,2.9,2.5
				c24.7,5,102.7,16.7,292.9,16.9C479.8,465.6,481.6,463.8,481.6,461.6z"/>
			<path class="st21" d="M481.6,410.5v51.1c0,2.2-1.8,4-4,4c-190.2-0.2-268.2-11.9-292.9-16.9c-1.4-0.3-2.4-1.2-2.9-2.5
				s-0.3-2.7,0.5-3.8l50.1-66.4c1.9-1.4,3.5-2,5.2-2c1,0,2,0.2,3.2,0.6c21.6,7.6,98.7,32.2,184.8,32.2c16.4,0,32.4-0.9,47.7-2.7
				c0.3,0,0.7-0.1,1-0.1C478.3,404,481.6,406.9,481.6,410.5z"/>
		</g>
	</g>
	<g id="XMLID_1_">
		<g>
			<path class="st22" d="M483.7,410.5v51.1c0,1.6-0.7,3.1-1.8,4.2c-1.1,1.1-2.6,1.8-4.2,1.8c-191-0.3-269-12.1-293.3-17
				c-4.3-0.9-6.3-6-3.6-9.5l50.2-66.5c2.4-1.8,4.4-2.6,6.6-2.6c1.2,0,2.5,0.2,4.1,0.7c21.7,7.6,98.3,32.1,184.1,32.1
				c15.6,0,31.5-0.8,47.4-2.7c0.4-0.1,0.8-0.1,1.2-0.1C479.5,402,483.7,405.8,483.7,410.5z M481.6,461.6v-51.1
				c0-3.6-3.3-6.5-7.3-6.5c-0.3,0-0.7,0.1-1,0.1c-15.3,1.8-31.3,2.7-47.7,2.7c-86.1,0-163.2-24.6-184.8-32.2
				c-1.2-0.4-2.2-0.6-3.2-0.6c-1.7,0-3.3,0.6-5.2,2l-50.1,66.4c-0.8,1.1-1,2.5-0.5,3.8s1.5,2.2,2.9,2.5
				c24.7,5,102.7,16.7,292.9,16.9C479.8,465.6,481.6,463.8,481.6,461.6z"/>
		</g>
	</g>
	<a id="magf116" xlink:href="#" >
		<g>
			<g>
				<g>
					<path class="st24" d="M1286.9,221.9c-2.8,0-5-2.2-5-5v-30c0-2.8,2.2-5,5-5h30c2.8,0,5,2.2,5,5v30c0,2.8-2.2,5-5,5H1286.9z"/>
					<path class="st22" d="M1316.9,182.9c2.2,0,4,1.8,4,4v30c0,2.2-1.8,4-4,4h-30c-2.2,0-4-1.8-4-4v-30c0-2.2,1.8-4,4-4H1316.9
						 M1316.9,180.9h-30c-3.3,0-6,2.7-6,6v30c0,3.3,2.7,6,6,6h30c3.3,0,6-2.7,6-6v-30C1322.9,183.6,1320.2,180.9,1316.9,180.9
						L1316.9,180.9z"/>
				</g>
			</g>
		</g>
	</a>
	<path class="st25" d="M1281.7,212.7h-32.3c-3.3,0-6-1.8-6-4.1v-20.5"/>
	<path class="st25" d="M1243.5,207.4v-20.9c0-2.2,2.7-4.1,6-4.1h35.1"/>
	<path class="st22" d="M776.6,149.9L776.6,149.9c4,0,392.3,3.6,554.6,12.9c2.1,0.1,3.8,1.9,3.8,4v71.3c0,2.2-1.8,4-4,4h-121.9
		c-5.7,0-10.4,4.7-10.4,10.4v19.9c0,3.3-2.5,6-5.7,6.4c-20.1,2-33.4,6.9-42.1,15.4c-9.4,9.1-13.7,22.4-13.7,42.1
		c0,19.6,4.4,33,13.7,42.1c8.7,8.4,22.1,13.3,42.1,15.4c3.3,0.3,5.7,3.1,5.7,6.4v20.9c0,4.4,3.6,8,8,8H1331c2.2,0,4,1.8,4,4v57.5
		c-15.3,1-123.4,7.9-274.1,13.1c-111,4.2-214.6,6.3-308,6.3c-162,0-238.1-6.5-238.9-6.6l-2.2-0.2v2.2v438.4h-238h-0.1
		c-2.6,0-4.7-2.1-4.8-4.8c-0.5-9.6-4.3-31.7-15.3-47c-1.5-2.1-3.9-3.3-6.5-3.3c-1.4,0-2.8,0.4-4,1.1l-6.6,3.8
		c-0.6,0.4-1.3,0.5-2,0.5c-1.4,0-2.8-0.8-3.5-2l-21.3-36.8c-1.1-1.9-0.4-4.4,1.5-5.5l9.9-5.7c0.9-0.5,1.6-1.5,1.9-2.5
		c0.3-1.1,0.1-2.2-0.5-3.1c-1.6-2.5-3.2-5.1-4.8-7.5c-0.7-1.1-2-1.8-3.4-1.8c-0.8,0-1.6,0.3-2.3,0.7l-9.8,7
		c-0.7,0.5-1.5,0.7-2.3,0.7c-1.3,0-2.5-0.6-3.3-1.7l-24.7-34.6c-1.3-1.8-0.9-4.3,0.9-5.6l9-6.4c0.9-0.6,1.5-1.7,1.7-2.8
		c0.1-1.1-0.2-2.2-0.9-3.1c-2.2-2.6-4.5-5.3-6.6-7.8c-0.8-0.9-1.9-1.4-3-1.4c-1,0-2,0.4-2.7,1.1l-8.2,7.7c-0.7,0.7-1.7,1.1-2.7,1.1
		c-1.1,0-2.2-0.4-2.9-1.3c-3.3-3.6-8.5-9.1-13.9-14.8c-5.3-5.7-10.8-11.5-14.5-15.5c-1.2-1.3-1.8-2.5-1.7-3.6c0-1.1,0.7-2.3,2-3.5
		l2.4-2.3c1.7-1.6,2.6-3.8,2.5-6.2c-0.1-2.3-1.2-4.5-3-5.9c-8.6-6.9-16.7-12.4-24-16.4c-1.7-0.9-3.3-3.6-3.3-5.5v-326
		c0-5.6-4.6-10.3-10.2-10.4l-27.5-0.4c-3.5-0.1-6.3-2.9-6.3-6.4v-61.3c0-3.5,2.9-6.4,6.4-6.4h6.8c5.3,0,9.6-4.3,9.6-9.6l0,0l0,0
		c0-1.7,0.6-3.2,1.7-4.4c1.2-1.2,2.8-1.9,4.4-1.9c0.6,0,1.2,0.1,1.8,0.3l0.2,0.1h0.2l111.5,8.5c0.9,0.3,1.9,0.4,2.8,0.4
		c3.1,0,6.1-1.5,8.1-4c1.9-2.5,2.5-5.8,1.7-8.8l-18.8-67.2c-0.7-2.5,0.2-5.1,2.2-6.7c17-13.4,56.9-24.6,118.5-33.3
		C416.3,157.5,571.3,150.2,776.6,149.9 M776.6,147.9c-476.1,0.6-559.3,38.9-580.3,55.4c-2.7,2.1-3.8,5.6-2.9,8.8l18.8,67.2
		c1.5,5.4-2.7,10.3-7.8,10.3c-0.8,0-1.6-0.1-2.4-0.4l-111.8-8.5c-0.8-0.2-1.6-0.4-2.4-0.4c-4.4,0-8.2,3.6-8.1,8.3
		c0,4.2-3.4,7.6-7.6,7.6h-6.8c-4.6,0-8.4,3.8-8.4,8.4v61.5c0,4.6,3.7,8.3,8.3,8.4l27.5,0.4c4.6,0.1,8.3,3.8,8.3,8.4v326
		c0,2.7,1.9,6,4.3,7.3c8,4.3,16.1,10.1,23.7,16.2c2.9,2.3,3,6.6,0.4,9.1l-2.4,2.3c-3.4,3.2-3.6,6.5-0.4,9.9
		c7.6,8.1,21.8,23.2,28.4,30.3c1.2,1.3,2.8,1.9,4.4,1.9c1.5,0,2.9-0.5,4.1-1.6l8.2-7.7c0.4-0.4,0.9-0.5,1.4-0.5
		c0.6,0,1.1,0.2,1.5,0.7c2.2,2.6,4.5,5.1,6.6,7.7c0.7,0.9,0.6,2.2-0.4,2.9l-9,6.4c-2.7,1.9-3.3,5.7-1.4,8.4l24.7,34.6
		c1.2,1.6,3,2.5,4.9,2.5c1.2,0,2.4-0.4,3.5-1.1l9.8-7c0.4-0.3,0.8-0.4,1.2-0.4c0.7,0,1.3,0.3,1.7,0.9c1.6,2.5,3.2,5,4.8,7.5
		c0.6,1,0.3,2.2-0.7,2.8l-9.9,5.7c-2.9,1.7-3.9,5.3-2.2,8.2l21.3,36.8c1.1,1.9,3.1,3,5.2,3c1,0,2-0.3,3-0.8l6.6-3.8
		c0.9-0.5,2-0.8,3-0.8c1.9,0,3.7,0.9,4.9,2.5c10.3,14.3,14.4,35.8,14.9,45.9c0.2,3.7,3.1,6.6,6.8,6.7h0.1h240V505.5
		c0,0,75.1,6.6,239,6.6c80.7,0,182.8-1.6,308.1-6.3c164-5.6,276-13.2,276-13.2v-59.5c0-3.3-2.7-6-6-6h-124.2c-3.3,0-6-2.7-6-6V400
		c0-4.3-3.3-7.9-7.5-8.4c-37.1-3.8-54.1-17.2-54.1-55.4s17-51.6,54.1-55.4c4.3-0.4,7.5-4,7.5-8.4v-19.9c0-4.6,3.8-8.4,8.4-8.4H1331
		c3.3,0,6-2.7,6-6v-71.3c0-3.2-2.5-5.8-5.6-6C1167.1,151.4,776.6,147.9,776.6,147.9L776.6,147.9z"/>
	<g id="Portals">
		<line id="Elev.2.floorGfMa" class="st27" x1="1152" y1="454" x2="1159" y2="447"/>
		<line id="Wayout.1.floorGfZOM" class="st28" x1="1370" y1="325" x2="1377" y2="318"/>
		<line id="Wayout.2.floorMaF101" class="st28" x1="1263" y1="547" x2="1270" y2="540"/>
	</g>
</g>
        <g class="st29">
	<path d="M1331.6,160.8c-158.1-9-524.8-12.6-553.2-12.9c-1.2,0-1.8,0-1.8,0c-114.2,0.1-205.8,2.5-279.4,6.1c-28.1,1-57.7,3-84.2,5.3
		c-47.1,3.7-83.9,8.1-112.8,12.6c-23.1,3.5-41.4,7.4-55.7,11.3c-26.3,6.9-39.2,13.6-46.2,18.7l0,0c-0.7,0.5-1.3,0.9-1.8,1.4
		c-2.7,2.1-3.8,5.6-2.9,8.8l18.8,67.2c1.5,5.4-2.7,10.3-7.8,10.3c-0.8,0-1.6-0.1-2.4-0.4l-111.8-8.5c-0.8-0.2-1.6-0.4-2.4-0.4
		c-4.4,0-8.2,3.6-8.1,8.3c0,4.2-3.4,7.6-7.6,7.6h-6.8c-4.6,0-8.4,3.8-8.4,8.4v61.5c0,4.6,3.7,8.3,8.3,8.4l27.5,0.4
		c4.6,0.1,8.3,3.8,8.3,8.4v326c0,2.7,1.9,6,4.3,7.3c8,4.3,16.1,10.1,23.7,16.2c2.9,2.3,3,6.6,0.4,9.1l-2.4,2.3
		c-3.4,3.2-3.6,6.5-0.4,9.9c7.6,8.1,21.8,23.2,28.4,30.3c1.2,1.3,2.8,1.9,4.4,1.9c1.5,0,2.9-0.5,4.1-1.6l8.2-7.7
		c0.4-0.4,0.9-0.5,1.4-0.5c0.6,0,1.1,0.2,1.5,0.7c2.2,2.6,4.5,5.1,6.6,7.7c0.7,0.9,0.6,2.2-0.4,2.9l-9,6.4c-2.7,1.9-3.3,5.7-1.4,8.4
		l24.7,34.6c1.2,1.6,3,2.5,4.9,2.5c1.2,0,2.4-0.4,3.5-1.1l9.8-7c0.4-0.3,0.8-0.4,1.2-0.4c0.7,0,1.3,0.3,1.7,0.9
		c1.6,2.5,3.2,5,4.8,7.5c0.6,1,0.3,2.2-0.7,2.8l-9.9,5.7c-2.9,1.7-3.9,5.3-2.2,8.2l21.3,36.8c1.1,1.9,3.1,3,5.2,3c1,0,2-0.3,3-0.8
		l6.6-3.8c0.9-0.5,2-0.8,3-0.8c1.9,0,3.7,0.9,4.9,2.5c10.3,14.3,14.4,35.8,14.9,45.9c0.2,3.6,3,6.5,6.6,6.7h-0.8v45.7
		c0,4.4,3.6,8,8,8H323c0.9,0.1,12.5,2.3,23,15.8c6,7.7,12.6,10.9,17.1,12.1c2.8,0.8,5.1,1,6.6,1c0.9,0,1.6-0.1,1.8-0.1h141.9v-82.5
		h0.6v-62.6h56.2c3.3,0,6-2.7,6-6v-36c0-1.5-0.6-2.9-1.5-4h13.5c3.3,0,6-2.7,6-6v-90c0-3.3-2.7-6-6-6H514v-20.5h74.2
		c3.3,0,6-2.7,6-6v-39.6c0-3.3-2.7-6-6-6H514v-45.9c1,0.7,2.1,1.1,3.4,1.1h30c3.3,0,6-2.7,6-6v-30c0-3.3-2.7-6-6-6h-13.5
		c0.9-1.1,1.5-2.4,1.5-3.9v-30c0-3.3-2.7-6-6-6h-12c-1.3,0-2.4,0.4-3.4,1.1v-31.8c2.4,0.2,6.7,0.4,12.6,0.8
		c5.4,0.4,12.6,0.8,21.7,1.3c47.8,2.6,101.8,4,158.5,4.4c14.6,0.1,29.8,0.2,45.5,0.2c22,0,45.2-0.2,69.2-0.6
		c66.3-0.7,143.8-2.4,233.4-5.7v0.1l16.7-0.7c39.4-1.4,75.7-2.9,107.9-4.3h0.5c0.3,0,0.5,0,0.8-0.1c33.8-1.5,63-3,86.8-4.3
		c43.5-2.2,69.6-3.8,69.6-3.8V166.8C1337.2,163.6,1334.7,161,1331.6,160.8z M514,577.3L514,577.3L514,577.3L514,577.3z"/>
	<path d="M570.4,970h-30c-3.3,0-6,2.7-6,6v30c0,3.3,2.7,6,6,6h30c3.3,0,6-2.7,6-6v-30C576.4,972.7,573.7,970,570.4,970z"/>
	<path d="M540.4,932h12c3.3,0,6-2.7,6-6v-30c0-3.3-2.7-6-6-6h-12c-3.3,0-6,2.7-6,6v30C534.4,929.3,537.1,932,540.4,932z"/>
</g> 
        <!-- GF BG End //-->
        <!--
		<g id="Marriott_Base01_1_">
			<path class="st1" d="M273.9,944.8c-3.2,0-5.7-2.5-5.9-5.7c-0.6-11-5-32.5-15.1-46.4c-1.3-1.8-3.4-2.9-5.7-2.9
				c-1.2,0-2.4,0.3-3.5,0.9l-6.6,3.8c-0.8,0.4-1.6,0.7-2.5,0.7c-1.8,0-3.4-1-4.3-2.5L209,855.8c-0.7-1.2-0.8-2.5-0.5-3.8
				s1.2-2.4,2.3-3l9.9-5.7c0.7-0.4,1.2-1.1,1.4-1.9c0.2-0.8,0.1-1.6-0.4-2.3c-1.6-2.5-3.2-5.1-4.8-7.5c-0.6-0.9-1.5-1.4-2.5-1.4
				c-0.6,0-1.2,0.2-1.7,0.6l-9.8,7c-0.9,0.6-1.9,0.9-2.9,0.9c-1.6,0-3.1-0.8-4.1-2.1L171.2,802c-1.6-2.2-1.1-5.4,1.2-7l9-6.4
				c0.7-0.5,1.1-1.2,1.2-2.1c0.1-0.8-0.1-1.7-0.7-2.3c-2.2-2.6-4.4-5.2-6.6-7.7c-0.6-0.6-1.4-1-2.3-1c-0.8,0-1.5,0.3-2.1,0.8
				l-8.2,7.7c-0.9,0.9-2.1,1.3-3.4,1.3l0,0c-1.4,0-2.7-0.6-3.6-1.6c-3.3-3.5-8.5-9.1-13.8-14.7c-5.3-5.7-10.8-11.5-14.6-15.6
				c-1.4-1.5-2.1-2.9-2-4.3c0.1-1.4,0.8-2.8,2.3-4.2l2.4-2.3c1.5-1.4,2.3-3.3,2.2-5.4c-0.1-2-1-3.9-2.6-5.2
				c-8.6-6.8-16.6-12.3-23.9-16.3c-2-1.1-3.8-4.1-3.8-6.4v-326c0-5.1-4.2-9.3-9.3-9.4l-27.5-0.4c-4-0.1-7.3-3.4-7.3-7.4v-61.3
				c0-4.1,3.3-7.4,7.4-7.4H72c4.7,0,8.6-3.9,8.6-8.6c0-2,0.7-3.8,2-5.2c1.3-1.4,3.2-2.2,5.1-2.2c0.7,0,1.4,0.1,2.1,0.3h0.1
				l111.8,8.5c0.9,0.3,1.7,0.4,2.6,0.4c2.8,0,5.5-1.4,7.3-3.6c1.7-2.3,2.3-5.2,1.5-8l-18.8-67.2c-0.8-2.9,0.2-6,2.5-7.8
				c31.7-24.9,158-54.7,579.7-55.2c3.9,0,392.3,3.6,554.7,12.9c2.6,0.1,4.7,2.3,4.7,5v325.2c-19.4,1.2-328.7,19.2-592.1,19.2
				c-92.9,0-170.3-2.2-230-6.7l-1.1-0.1v440.5L273.9,944.8L273.9,944.8z"/>
			<path class="st2" d="M776.6,149.8L776.6,149.8c4,0,392.3,3.6,554.6,12.9c2.1,0.1,3.8,1.9,3.8,4V491
				c-26.8,1.6-331.3,19.1-591.1,19.1c-92.9,0-170.2-2.2-229.9-6.7l-2.1-0.2v2.2v438.4h-238h-0.1c-2.6,0-4.7-2.1-4.8-4.8
				c-0.5-9.6-4.3-31.7-15.3-47c-1.5-2.1-3.9-3.3-6.5-3.3c-1.4,0-2.8,0.4-4,1.1l-6.6,3.8c-0.6,0.4-1.3,0.5-2,0.5
				c-1.4,0-2.8-0.8-3.5-2l-21.3-36.8c-1.1-1.9-0.4-4.4,1.5-5.5l9.9-5.7c0.9-0.5,1.6-1.5,1.9-2.5c0.3-1.1,0.1-2.2-0.5-3.1
				c-1.6-2.5-3.2-5.1-4.8-7.5c-0.7-1.1-2-1.8-3.4-1.8c-0.8,0-1.6,0.3-2.3,0.7l-9.8,7c-0.7,0.5-1.5,0.7-2.3,0.7
				c-1.3,0-2.5-0.6-3.3-1.7L172,801.3c-1.3-1.8-0.9-4.3,0.9-5.6l9-6.4c0.9-0.6,1.5-1.7,1.7-2.8c0.1-1.1-0.2-2.2-0.9-3.1
				c-2.2-2.7-4.5-5.3-6.6-7.8c-0.8-0.9-1.9-1.4-3-1.4c-1,0-2,0.4-2.7,1.1l-8.2,7.7c-0.7,0.7-1.7,1.1-2.7,1.1c-1.1,0-2.2-0.4-2.9-1.3
				c-3.3-3.6-8.6-9.1-13.9-14.8c-5.3-5.7-10.7-11.4-14.5-15.5c-1.2-1.3-1.8-2.5-1.7-3.6c0-1.1,0.7-2.3,2-3.5l2.4-2.3
				c1.7-1.6,2.6-3.8,2.5-6.2c-0.1-2.3-1.2-4.5-3-5.9c-8.6-6.9-16.7-12.4-24-16.4c-1.7-0.9-3.3-3.6-3.3-5.5v-326
				c0-5.6-4.6-10.3-10.2-10.4l-27.5-0.4c-3.5-0.1-6.3-2.9-6.3-6.4v-61.3c0-3.5,2.9-6.4,6.4-6.4h6.8c5.3,0,9.6-4.3,9.6-9.6l0,0l0,0
				c0-1.7,0.6-3.2,1.7-4.4c1.2-1.2,2.8-1.9,4.4-1.9c0.6,0,1.2,0.1,1.8,0.3l0.2,0.1h0.2l111.5,8.5c0.9,0.3,1.9,0.4,2.8,0.4
				c3.1,0,6.1-1.5,8.1-4c1.9-2.5,2.5-5.8,1.7-8.8l-18.8-67.2c-0.7-2.5,0.2-5.1,2.2-6.7c17-13.4,56.9-24.6,118.5-33.3
				C416.3,157.4,571.3,150.1,776.6,149.8 M776.6,147.8c-476.1,0.6-559.3,38.9-580.3,55.4c-2.7,2.1-3.8,5.6-2.9,8.8l18.8,67.2
				c1.5,5.4-2.7,10.3-7.8,10.3c-0.8,0-1.6-0.1-2.4-0.4l-111.8-8.5c-0.8-0.2-1.6-0.4-2.4-0.4c-4.4,0-8.2,3.6-8.1,8.3
				c0,4.2-3.4,7.6-7.6,7.6h-6.8c-4.6,0-8.4,3.8-8.4,8.4V366c0,4.6,3.7,8.3,8.3,8.4l27.5,0.4c4.6,0.1,8.3,3.8,8.3,8.4v326
				c0,2.7,1.9,6,4.3,7.3c8,4.3,16.1,10.1,23.7,16.2c2.9,2.3,3,6.6,0.4,9.1l-2.4,2.3c-3.4,3.2-3.6,6.5-0.4,9.9
				c7.6,8.1,21.8,23.2,28.4,30.3c1.2,1.3,2.8,1.9,4.4,1.9c1.5,0,2.9-0.5,4.1-1.6l8.2-7.7c0.4-0.4,0.9-0.5,1.4-0.5
				c0.6,0,1.1,0.2,1.5,0.7c2.2,2.6,4.5,5.1,6.6,7.7c0.7,0.9,0.6,2.2-0.4,2.9l-9,6.4c-2.7,1.9-3.3,5.7-1.4,8.4l24.7,34.6
				c1.2,1.6,3,2.5,4.9,2.5c1.2,0,2.4-0.4,3.5-1.1l9.8-7c0.4-0.3,0.8-0.4,1.2-0.4c0.7,0,1.3,0.3,1.7,0.9c1.6,2.5,3.2,5,4.8,7.5
				c0.6,1,0.3,2.2-0.7,2.8l-9.9,5.7c-2.9,1.7-3.9,5.3-2.2,8.2l21.3,36.8c1.1,1.9,3.1,3,5.2,3c1,0,2-0.3,3-0.8l6.6-3.8
				c0.9-0.5,2-0.8,3-0.8c1.9,0,3.7,0.9,4.9,2.5c10.3,14.3,14.4,35.8,14.9,45.9c0.2,3.7,3.1,6.6,6.8,6.7h0.1h240V505.4
				c65.2,4.8,145.5,6.7,230.1,6.7c273.8,0,593.1-19.3,593.1-19.3V166.7c0-3.2-2.5-5.8-5.6-6C1167.1,151.3,776.6,147.8,776.6,147.8
				L776.6,147.8z"/>
		</g>
        -->
		<g id="LGF_x5F_Base">
			<path class="st1" d="M1001.3,506.9c-2.8,0-5-2.2-5-5V157c0-2.8,2.2-5,5-5c200.5,3.3,328.7,9.5,329.9,9.5c2.7,0.1,4.7,2.3,4.7,5
				V487c0,2.7-2.1,4.8-4.7,5c-139.3,7.5-296.3,13.9-329.8,14.8L1001.3,506.9z"/>
			<path class="st2" d="M1001.3,153L1001.3,153c200.5,3.3,328.6,9.5,329.9,9.5c2.1,0.1,3.8,1.9,3.8,4V487c0,2.1-1.7,3.9-3.8,4
				c-139.3,7.5-296.3,13.9-329.8,14.8h-0.1c-2.2,0-4-1.8-4-4V156.9C997.3,154.8,999.1,153,1001.3,153 M1001.3,151c-3.3,0-6,2.7-6,6
				v344.9c0,3.3,2.7,6,6,6c0.1,0,0.1,0,0.2,0c34.8-1,191-7.3,329.9-14.8c3.2-0.2,5.7-2.8,5.7-6V166.5c0-3.2-2.5-5.8-5.7-6
				c-27.3-1.3-151.4-6.6-329.9-9.5C1001.4,151,1001.3,151,1001.3,151L1001.3,151z"/>
		</g>
		<g id="Elevator_11">
			<g>
				<g>
					<path class="st3" d="M627,353.6c-2.8,0-5-2.2-5-5v-30c0-2.8,2.2-5,5-5h30c2.8,0,5,2.2,5,5v30c0,2.8-2.2,5-5,5H627z"/>
					<path class="st2" d="M657,314.6c2.2,0,4,1.8,4,4v30c0,2.2-1.8,4-4,4h-30c-2.2,0-4-1.8-4-4v-30c0-2.2,1.8-4,4-4H657 M657,312.6
						h-30c-3.3,0-6,2.7-6,6v30c0,3.3,2.7,6,6,6h30c3.3,0,6-2.7,6-6v-30C663,315.3,660.3,312.6,657,312.6L657,312.6z"/>
				</g>
			</g>
			
				<image style="overflow:visible;enable-background:new    ;" width="76" height="76" id="elevator_x5F_off_4_" xlink:href="./images/2x/elevator_off@2x.png"  class="i_elevator" transform="matrix(0.5 0 0 0.5 623 314.6)">
			</image>
		</g>
		<g id="Stairs_2">
			<g>
				<path class="st3" d="M587,353.6c-2.8,0-5-2.2-5-5v-30c0-2.8,2.2-5,5-5h30c2.8,0,5,2.2,5,5v30c0,2.8-2.2,5-5,5H587z"/>
				<path class="st2" d="M617,314.6c2.2,0,4,1.8,4,4v30c0,2.2-1.8,4-4,4h-30c-2.2,0-4-1.8-4-4v-30c0-2.2,1.8-4,4-4H617 M617,312.6
					h-30c-3.3,0-6,2.7-6,6v30c0,3.3,2.7,6,6,6h30c3.3,0,6-2.7,6-6v-30C623,315.3,620.3,312.6,617,312.6L617,312.6z"/>
			</g>
			
				<image style="overflow:visible;enable-background:new    ;" width="76" height="76" id="escal_x5F_off" xlink:href="./images/2x/escal_off@2x.png" class="i_escal" transform="matrix(0.5 0 0 0.5 583 314.6)">
			</image>
		</g>
	</g>
	<g id="Rooms">
		<a id="malgf101" xlink:href="#" >
			<g>
				<path class="st1" d="M1249,437c-2.8,0-5-2.2-5-5V220c0-2.8,2.2-5,5-5h126c2.8,0,5,2.2,5,5v212c0,2.8-2.2,5-5,5H1249z"/>
				<path class="st2" d="M1375,216c2.2,0,4,1.8,4,4v212c0,2.2-1.8,4-4,4h-126c-2.2,0-4-1.8-4-4V220c0-2.2,1.8-4,4-4H1375 M1375,214
					h-126c-3.3,0-6,2.7-6,6v212c0,3.3,2.7,6,6,6h126c3.3,0,6-2.7,6-6V220C1381,216.7,1378.3,214,1375,214L1375,214z"/>
			</g>
		</a>
		<a id="malgf102" xlink:href="#" >
			<g>
				<path class="st1" d="M1163,461.6c0-2.8,2.2-5,5-5h48c2.8,0,5,2.2,5,5v36c-19.8,0.9-51.8,2.6-58,2.9V461.6z"/>
				<g>
					<path class="st2" d="M1216,457.6c2.2,0,4,1.8,4,4v35.1c-18.9,0.9-48,2.4-56,2.8v-37.9c0-2.2,1.8-4,4-4H1216 M1216,455.6h-48
						c-3.3,0-6,2.7-6,6v40c0,0,38-2,60-3v-37C1222,458.3,1219.3,455.6,1216,455.6L1216,455.6z"/>
				</g>
			</g>
		</a>
		<a id="malgf103" xlink:href="#" >
			<g>
				<path class="st1" d="M1221,462c0-2.8,2.2-5,5-5h36c2.8,0,5,2.2,5,5v33.5c-24.4,1.3-41.7,2.1-46,2.3V462z"/>
				<g>
					<path class="st2" d="M1262,458c2.2,0,4,1.8,4,4v32.5c-22.3,1.2-38.5,2-44,2.2V462c0-2.2,1.8-4,4-4H1262 M1262,456h-36
						c-3.3,0-6,2.7-6,6v36.8c0,0,19-0.8,48-2.4V462C1268,458.7,1265.3,456,1262,456L1262,456z"/>
				</g>
			</g>
		</a>
		<g id="Stairs_1_">
			<g>
				<path class="st3" d="M1162,347c-2.8,0-5-2.2-5-5v-30c0-2.8,2.2-5,5-5h30c2.8,0,5,2.2,5,5v30c0,2.8-2.2,5-5,5H1162z"/>
				<path class="st2" d="M1192,308c2.2,0,4,1.8,4,4v30c0,2.2-1.8,4-4,4h-30c-2.2,0-4-1.8-4-4v-30c0-2.2,1.8-4,4-4H1192 M1192,306
					h-30c-3.3,0-6,2.7-6,6v30c0,3.3,2.7,6,6,6h30c3.3,0,6-2.7,6-6v-30C1198,308.7,1195.3,306,1192,306L1192,306z"/>
			</g>
			
				<image style="overflow:visible;enable-background:new;" width="76" height="76" id="escal_x5F_off" xlink:href="./images/2x/escal_off@2x.png" class="i_escal" transform="matrix(0.5 0 0 0.5 1158 308)">
			</image>
		</g>
		<a id="lobbymalgf" xlink:href="#"  class="svg_lobby_mark">
			<g>
				<g>
					
						<linearGradient id="SVGID_lgf1" gradientUnits="userSpaceOnUse" x1="306.5571" y1="1451.1482" x2="328.5571" y2="1451.1482" gradientTransform="matrix(0.766 -0.6428 -0.6428 -0.766 1855.2251 1572.1345)">
						<stop  offset="0.1" style="stop-color:#EF405C;stop-opacity:0"/>
						<stop  offset="0.8" style="stop-color:#EF405C"/>
					</linearGradient>
					<polygon class="st4" points="1147.6,252 1174.1,249.3 1166.9,275"/>
					
						<linearGradient id="SVGID_lgf2" gradientUnits="userSpaceOnUse" x1="1157.2693" y1="466.5162" x2="1174.1223" y2="480.6575" gradientTransform="matrix(1 0 0 -1 0 730)">
						<stop  offset="0.1" style="stop-color:#EF405C;stop-opacity:0"/>
						<stop  offset="0.8" style="stop-color:#B30521"/>
					</linearGradient>
					<path class="st5" d="M1172.8,250.5l-6.3,22.4l-16.9-20.1L1172.8,250.5 M1174.1,249.3l-26.5,2.7l19.3,23L1174.1,249.3
						L1174.1,249.3z"/>
				</g>
				<g>
					<path class="st6" d="M1173.9,251.5c-0.1,0-0.3,0-0.4-0.2l-8.1-13.3c-0.7-1.3-1-2.7-1-4.2c0-5,4.2-9.2,9.4-9.2h0.1
						c2.5,0,4.9,1,6.7,2.7c1.8,1.8,2.8,4.1,2.8,6.6c0,1.5-0.3,2.9-1,4.2l-8.1,13.3C1174.2,251.5,1174,251.5,1173.9,251.5z M1174,230
						c-2.2,0-4,1.8-4,4s1.8,4,4,4s4-1.8,4-4S1176.2,230,1174,230z"/>
					<path class="st7" d="M1173.9,225c2.4,0,4.6,0.9,6.3,2.5c1.7,1.7,2.7,3.9,2.7,6.3c0,1.4-0.3,2.7-1,3.9l-8,13.2l-8-13.2
						c-0.6-1.2-1-2.6-1-4C1164.9,228.9,1168.9,225,1173.9,225L1173.9,225 M1174,238.5c2.5,0,4.5-2,4.5-4.5s-2-4.5-4.5-4.5
						s-4.5,2-4.5,4.5S1171.6,238.5,1174,238.5 M1173.9,224L1173.9,224c-5.5,0.1-9.9,4.4-10,9.7c0,1.6,0.4,3.1,1.1,4.5l8.1,13.3
						c0.2,0.4,0.6,0.5,0.8,0.5c0.2,0,0.6,0,0.8-0.5l8.1-13.3c0.7-1.4,1.1-2.9,1.1-4.4c0-2.6-1.1-5.1-3-7
						C1179.1,225,1176.6,224,1173.9,224L1173.9,224z M1174,237.5c-1.9,0-3.5-1.6-3.5-3.5s1.6-3.5,3.5-3.5s3.5,1.6,3.5,3.5
						S1176,237.5,1174,237.5L1174,237.5z"/>
				</g>
			</g>
		</a>
		<a id="lobbymalgf2" xlink:href="#" class="svg_lobby_mark">
			<g>
				<g>
					<linearGradient id="SVGID_lgf3" gradientUnits="userSpaceOnUse" x1="669" y1="396" x2="691" y2="396" gradientTransform="matrix(1 0 0 -1 0 730)">
						<stop  offset="0.1" style="stop-color:#EF405C;stop-opacity:0"/>
						<stop  offset="0.8" style="stop-color:#EF405C"/>
					</linearGradient>
					<polygon class="st8" points="669,319 691,334 669,349"/>
					
						<linearGradient id="SVGID_lgf4" gradientUnits="userSpaceOnUse" x1="669" y1="396" x2="691" y2="396" gradientTransform="matrix(1 0 0 -1 0 730)">
						<stop  offset="0.1" style="stop-color:#EF405C;stop-opacity:0"/>
						<stop  offset="0.8" style="stop-color:#B30521"/>
					</linearGradient>
					<path class="st9" d="M670,320.9l19.2,13.1L670,347.1V320.9 M669,319v30l22-15L669,319L669,319z"/>
				</g>
				<g>
					<path class="st6" d="M689.9,335.5c-0.1,0-0.3,0-0.4-0.2l-8.1-13.3c-0.7-1.3-1-2.7-1-4.2c0-5,4.2-9.2,9.4-9.2h0.1
						c2.5,0,4.9,1,6.7,2.7c1.8,1.8,2.8,4.1,2.8,6.6c0,1.5-0.3,2.9-1,4.2l-8.1,13.3C690.2,335.5,690,335.5,689.9,335.5z M690,314
						c-2.2,0-4,1.8-4,4s1.8,4,4,4s4-1.8,4-4S692.2,314,690,314z"/>
					<path class="st7" d="M689.9,309c2.4,0,4.6,0.9,6.3,2.5c1.7,1.7,2.7,3.9,2.7,6.3c0,1.4-0.3,2.7-1,3.9l-8,13.2l-8-13.2
						c-0.6-1.2-1-2.6-1-4C680.9,312.9,684.9,309,689.9,309L689.9,309 M690,322.5c2.5,0,4.5-2,4.5-4.5s-2-4.5-4.5-4.5s-4.5,2-4.5,4.5
						S687.6,322.5,690,322.5 M689.9,308L689.9,308c-5.5,0.1-9.9,4.4-10,9.7c0,1.6,0.4,3.1,1.1,4.5l8.1,13.3c0.2,0.4,0.6,0.5,0.8,0.5
						s0.6,0,0.8-0.5l8.1-13.3c0.7-1.4,1.1-2.9,1.1-4.4c0-2.6-1.1-5.1-3-7C695.1,309,692.6,308,689.9,308L689.9,308z M690,321.5
						c-1.9,0-3.5-1.6-3.5-3.5s1.6-3.5,3.5-3.5s3.5,1.6,3.5,3.5S692,321.5,690,321.5L690,321.5z"/>
				</g>
			</g>
		</a>
	</g>
	<g id="SpotnameGFbg" class="spotname">
		<text id="foodavenue" text-anchor="middle" transform="matrix(1 0 0 1 420 340)" class="st9 st30 st31">(GF)</text>
		<text id="shopstreetgf" text-anchor="middle" transform="matrix(1 0 0 1 840 340)" class="st9 st30 st31"> (GF)</text>
	</g>
	<g id="SpotnameLGF" class="spotname">
		<text id="malgf101" text-anchor="middle" transform="matrix(1 0 0 1 1312 332)" class="st2 st10 st11"> </text>
		<text id="malgf103" text-anchor="middle" transform="matrix(1 0 0 1 1244 484)" class="st2 st10 st12"></text>
		<text id="malgf102" text-anchor="middle" transform="matrix(1 0 0 1 1192 475)"><tspan x="0" y="0" class="st2 st10 st12"></tspan><tspan x="0" y="14" class="st2 st10 st12"></tspan></text>
	</g>
	<g id="Portals">
		<line id="Stair.1.floorGfMa" class="st13" x1="1183" y1="334" x2="1190" y2="327"/>

		<line id="Stair.3.floorGfMa" class="st13" x1="586" y1="334" x2="593" y2="327"/>
		<line id="Elev.3.floorGfMa" class="st13" x1="642" y1="350" x2="649" y2="343"/>
	</g>
	<g id="Doors">
		<line id="lobbymalgf" class="st14" x1="1174" y1="245" x2="1181" y2="238"/>
		<line id="lobbymalgf2" class="st15" x1="676" y1="341" x2="683" y2="334"/>
		<line id="malgf101" class="st14" x1="1255" y1="327" x2="1262" y2="320"/>
		<line id="malgf102" class="st14" x1="1185" y1="471" x2="1192" y2="464"/>
		<line id="malgf103" class="st14" x1="1237" y1="471" x2="1244" y2="464"/>
	</g>
	<g id="Paths">
		<line class="st15" x1="1190" y1="327" x2="1220" y2="327"/>
		<line class="st15" x1="1174" y1="245" x2="1189" y2="261"/>
		<line class="st15" x1="1189" y1="261" x2="1220" y2="261"/>
		<line class="st15" x1="1192" y1="446" x2="1220" y2="446"/>
		<line class="st15" x1="1220" y1="446" x2="1244" y2="446"/>
		<line class="st15" x1="1220" y1="261" x2="1220" y2="327"/>
		<line class="st15" x1="1220" y1="327" x2="1220" y2="446"/>
		<line class="st15" x1="1220" y1="327" x2="1255" y2="327"/>
		<line class="st15" x1="1192" y1="464" x2="1192" y2="446"/>
		<line class="st15" x1="1244" y1="464" x2="1244" y2="446"/>
		<line class="st15" x1="570" y1="334" x2="586" y2="334"/>
		<line class="st15" x1="642" y1="360" x2="642" y2="350"/>
		<line class="st15" x1="570" y1="307" x2="661" y2="307"/>
		<line class="st15" x1="570" y1="334" x2="570" y2="307"/>
		<line class="st15" x1="570" y1="360" x2="570" y2="334"/>
		<line class="st15" x1="661" y1="307" x2="714" y2="300"/>
		<line class="st15" x1="661" y1="360" x2="713" y2="368"/>
		<line class="st15" x1="700" y1="334" x2="713" y2="368"/>
		<line class="st15" x1="683" y1="334" x2="700" y2="334"/>
		<line class="st15" x1="714" y1="300" x2="700" y2="334"/>
		<line class="st15" x1="570" y1="360" x2="642" y2="360"/>
		<line class="st15" x1="642" y1="360" x2="661" y2="360"/>
	</g>
</g>
</svg>
